<?xml version="1.0" standalone="no"?>
<!DOCTYPE svg PUBLIC "-//W3C//DTD SVG 1.1//EN" "http://www.w3.org/Graphics/SVG/1.1/DTD/svg11.dtd">
<svg width="52mm" height="14mm" viewBox="-26 -7 52 14" xmlns="http://www.w3.org/2000/svg" version="1.1">
<title>OpenSCAD Model</title>
<path d="
M -20.832,6.6566 L -20.2256,6.59641 L -19.6684,6.49609 L -19.1602,6.35567 L -18.7012,6.17509 L -18.2912,5.95441
 L -17.9304,5.6936 L -17.6182,5.39212 L -17.354,5.04944 L -17.1378,4.66554 L -16.9697,4.24045 L -16.8496,3.77414
 L -16.7776,3.26662 L -16.7536,2.7179 L -16.7688,2.31 L -16.8147,1.92262 L -16.8912,1.55576 L -16.9982,1.2094
 L -17.1358,0.883545 L -17.3041,0.578217 L -17.5029,0.293396 L -17.7341,0.0265503 L -17.9994,-0.224823 L -18.299,-0.460724
 L -18.6327,-0.681152 L -19.0006,-0.886093 L -19.4027,-1.07556 L -19.839,-1.24956 L -20.9587,-1.67322 L -21.2748,-1.79515
 L -21.5585,-1.91402 L -21.8095,-2.02982 L -22.028,-2.14253 L -22.2139,-2.2522 L -22.3673,-2.3588 L -22.4881,-2.46233
 L -22.5852,-2.56822 L -22.6673,-2.68187 L -22.7345,-2.80325 L -22.7867,-2.93239 L -22.8241,-3.06924 L -22.8465,-3.21387
 L -22.8539,-3.36621 L -22.8437,-3.5611 L -22.8129,-3.74265 L -22.7616,-3.91089 L -22.6899,-4.06581 L -22.5976,-4.20741
 L -22.4848,-4.33571 L -22.3515,-4.45067 L -22.1989,-4.55128 L -22.0283,-4.63641 L -21.8398,-4.70605 L -21.6332,-4.76024
 L -21.4087,-4.79892 L -21.1661,-4.82214 L -20.9056,-4.82988 L -20.6635,-4.82359 L -20.4206,-4.80472 L -20.177,-4.77327
 L -19.9327,-4.72923 L -19.6877,-4.67262 L -19.4419,-4.60342 L -19.1955,-4.52165 L -18.9492,-4.42784 L -18.7039,-4.32253
 L -18.4598,-4.20572 L -18.2167,-4.07741 L -17.9747,-3.93759 L -17.7338,-3.78629 L -17.494,-3.62349 L -17.494,-6.16109
 L -17.7488,-6.27342 L -18.0043,-6.37762 L -18.2605,-6.47369 L -18.5174,-6.56163 L -18.775,-6.64143 L -19.0334,-6.7131
 L -19.2924,-6.77663 L -19.5518,-6.83185 L -19.8113,-6.87857 L -20.0707,-6.91681 L -20.3301,-6.94653 L -20.5895,-6.96777
 L -20.849,-6.98051 L -21.1084,-6.98476 L -21.6628,-6.96387 L -22.1822,-6.9012 L -22.6667,-6.79675 L -23.1163,-6.65051
 L -23.531,-6.46251 L -23.9108,-6.23271 L -24.2557,-5.96114 L -24.5598,-5.65305 L -24.817,-5.31361 L -25.0275,-4.94284
 L -25.1912,-4.54074 L -25.3081,-4.10728 L -25.3783,-3.6425 L -25.4017,-3.14638 L -25.3875,-2.75967 L -25.3448,-2.39619
 L -25.2738,-2.05594 L -25.1743,-1.73891 L -25.0464,-1.4451 L -24.89,-1.17451 L -24.7053,-0.927155 L -24.4804,-0.692978
 L -24.2037,-0.461853 L -23.8752,-0.23381 L -23.4948,-0.00880432 L -23.0627,0.213104 L -22.5788,0.431976 L -22.043,0.647781
 L -20.7647,1.13307 L -20.5797,1.20985 L -20.4077,1.29436 L -20.2487,1.3866 L -20.1026,1.48657 L -19.9695,1.59427
 L -19.8493,1.7097 L -19.7421,1.83286 L -19.6485,1.96281 L -19.5694,2.09869 L -19.5046,2.24051 L -19.4542,2.38824
 L -19.4182,2.5419 L -19.3966,2.70149 L -19.3894,2.86702 L -19.4002,3.08374 L -19.4326,3.28629 L -19.4866,3.47464
 L -19.5621,3.64879 L -19.6593,3.80878 L -19.7781,3.95456 L -19.9184,4.08615 L -20.0783,4.20172 L -20.2559,4.29951
 L -20.4511,4.37953 L -20.6639,4.44177 L -20.8943,4.48622 L -21.1425,4.51289 L -21.4082,4.52179 L -21.6807,4.51445
 L -21.9541,4.49243 L -22.2283,4.45573 L -22.5035,4.40437 L -22.7796,4.33832 L -23.0565,4.2576 L -23.3344,4.1622
 L -23.6141,4.05173 L -23.8964,3.92587 L -24.1815,3.78464 L -24.4693,3.62801 L -24.7597,3.45598 L -25.0529,3.26857
 L -25.3488,3.06578 L -25.3488,5.75314 L -25.0855,5.87924 L -24.8195,5.99617 L -24.5508,6.10396 L -24.2794,6.20259
 L -24.0053,6.29207 L -23.7286,6.37241 L -23.4491,6.44357 L -23.1683,6.50542 L -22.8877,6.55774 L -22.6073,6.60056
 L -22.3271,6.63385 L -22.047,6.65764 L -21.7672,6.67191 L -21.4875,6.67667 z
M -21.7503,6.17212 L -22.0131,6.15872 L -22.2762,6.13637 L -22.5398,6.10506 L -22.8042,6.0647 L -23.0687,6.01537
 L -23.3335,5.95705 L -23.5974,5.88985 L -23.858,5.81419 L -24.1163,5.72986 L -24.3722,5.63689 L -24.6256,5.53522
 L -24.8488,5.43712 L -24.8488,3.98436 L -24.724,4.05821 L -24.7083,4.06715 L -24.4205,4.22379 L -24.4035,4.23267
 L -24.1184,4.3739 L -24.1,4.38257 L -23.8176,4.50842 L -23.7978,4.51675 L -23.5181,4.62723 L -23.4968,4.6351
 L -23.2189,4.7305 L -23.1964,4.73763 L -22.9195,4.81834 L -22.8959,4.82458 L -22.6199,4.89064 L -22.5952,4.89589
 L -22.3201,4.94725 L -22.2946,4.95132 L -22.0204,4.98802 L -21.9942,4.99081 L -21.7208,5.01283 L -21.6941,5.01427
 L -21.4217,5.02161 L -21.3915,5.02151 L -21.1257,5.01262 L -21.089,5.01003 L -20.8409,4.98335 L -20.7997,4.97717
 L -20.5692,4.93272 L -20.5235,4.92168 L -20.3107,4.85944 L -20.2614,4.84216 L -20.0662,4.76215 L -20.0147,4.73749
 L -19.8371,4.63969 L -19.7854,4.60696 L -19.6255,4.49139 L -19.5764,4.45088 L -19.4361,4.31929 L -19.3904,4.27032
 L -19.2717,4.12454 L -19.232,4.06833 L -19.1348,3.90834 L -19.1035,3.84781 L -19.0279,3.67366 L -19.0059,3.61237
 L -18.952,3.42401 L -18.9389,3.36525 L -18.9065,3.1627 L -18.9008,3.1086 L -18.8901,2.89188 L -18.8899,2.84534
 L -18.8971,2.67981 L -18.9011,2.63446 L -18.9227,2.47487 L -18.9314,2.42786 L -18.9674,2.2742 L -18.981,2.22685
 L -19.0314,2.07912 L -19.0498,2.03278 L -19.1146,1.89096 L -19.1374,1.84695 L -19.2165,1.71107 L -19.2428,1.67067
 L -19.3363,1.54071 L -19.365,1.50453 L -19.4722,1.38138 L -19.5029,1.34912 L -19.6231,1.23369 L -19.655,1.20555
 L -19.7881,1.09785 L -19.8202,1.07394 L -19.9663,0.973969 L -19.9978,0.954071 L -20.1569,0.861832 L -20.1873,0.845596
 L -20.3593,0.761093 L -20.388,0.748062 L -20.573,0.67128 L -20.5872,0.665619 L -21.861,0.182053 L -22.3821,-0.0278625
 L -22.8455,-0.237427 L -23.2531,-0.446732 L -23.6049,-0.654892 L -23.9003,-0.859909 L -24.1387,-1.05905 L -24.3232,-1.25121
 L -24.4718,-1.4502 L -24.5992,-1.67064 L -24.7052,-1.914 L -24.7893,-2.18222 L -24.8508,-2.47658 L -24.8885,-2.79803
 L -24.9012,-3.14375 L -24.88,-3.59332 L -24.818,-4.00456 L -24.7165,-4.38075 L -24.5767,-4.72417 L -24.3985,-5.03807
 L -24.181,-5.32501 L -23.9218,-5.58769 L -23.6257,-5.8208 L -23.2975,-6.01939 L -22.9352,-6.18364 L -22.5363,-6.31337
 L -22.0994,-6.40756 L -21.6234,-6.465 L -21.1031,-6.4846 L -20.8654,-6.48071 L -20.6221,-6.46877 L -20.3788,-6.44885
 L -20.1357,-6.42099 L -19.8919,-6.38504 L -19.6484,-6.3412 L -19.4038,-6.28912 L -19.1601,-6.22937 L -18.9157,-6.16158
 L -18.6721,-6.08612 L -18.4295,-6.00307 L -18.1862,-5.91187 L -17.994,-5.83347 L -17.994,-4.52525 L -18.2263,-4.64789
 L -18.244,-4.65675 L -18.4882,-4.77356 L -18.5066,-4.78195 L -18.7518,-4.88727 L -18.7712,-4.8951 L -19.0175,-4.98891
 L -19.038,-4.99622 L -19.2845,-5.07799 L -19.3064,-5.0847 L -19.5521,-5.1539 L -19.5751,-5.15979 L -19.8201,-5.2164
 L -19.844,-5.2213 L -20.0883,-5.26534 L -20.113,-5.26915 L -20.3566,-5.3006 L -20.3819,-5.30321 L -20.6247,-5.32208
 L -20.6505,-5.32343 L -20.8927,-5.32971 L -20.9205,-5.32967 L -21.181,-5.32193 L -21.2138,-5.31987 L -21.4563,-5.29665
 L -21.4935,-5.29166 L -21.7181,-5.25298 L -21.7601,-5.24388 L -21.9666,-5.1897 L -22.013,-5.17509 L -22.2015,-5.10545
 L -22.2516,-5.08379 L -22.4222,-4.99866 L -22.4741,-4.9687 L -22.6267,-4.86809 L -22.678,-4.82933 L -22.8113,-4.71437
 L -22.8603,-4.66585 L -22.9731,-4.53755 L -23.0165,-4.48041 L -23.1087,-4.33881 L -23.1435,-4.276 L -23.2153,-4.12108
 L -23.2399,-4.05664 L -23.2912,-3.8884 L -23.3059,-3.82617 L -23.3367,-3.64462 L -23.343,-3.58737 L -23.3532,-3.39249
 L -23.3533,-3.34175 L -23.3459,-3.18941 L -23.3406,-3.13734 L -23.3182,-2.99272 L -23.3064,-2.93768 L -23.2691,-2.80083
 L -23.2502,-2.74481 L -23.198,-2.61568 L -23.1719,-2.56108 L -23.1047,-2.4397 L -23.0725,-2.38902 L -22.9904,-2.27538
 L -22.9538,-2.23041 L -22.8567,-2.12451 L -22.8135,-2.08267 L -22.6927,-1.97914 L -22.6527,-1.94823 L -22.4993,-1.84163
 L -22.468,-1.82153 L -22.282,-1.71187 L -22.2572,-1.69818 L -22.0388,-1.58546 L -22.0189,-1.57578 L -21.7679,-1.45998
 L -21.7517,-1.45288 L -21.4681,-1.33401 L -21.4548,-1.32864 L -21.1386,-1.20671 L -20.0201,-0.783478 L -19.6019,-0.616714
 L -19.2291,-0.441025 L -18.8926,-0.253586 L -18.5919,-0.0549927 L -18.3267,0.153854 L -18.0958,0.372559 L -17.8979,0.601044
 L -17.7292,0.842651 L -17.5863,1.10211 L -17.4686,1.38083 L -17.3758,1.68089 L -17.3087,2.00319 L -17.2677,2.34888
 L -17.254,2.71626 L -17.276,3.22044 L -17.3408,3.67635 L -17.4462,4.08566 L -17.5902,4.44992 L -17.7719,4.77261
 L -17.9919,5.05794 L -18.2521,5.30916 L -18.5574,5.5298 L -18.912,5.7207 L -19.3188,5.88077 L -19.7794,6.00804
 L -20.2947,6.1008 L -20.8644,6.15735 L -21.4911,6.17653 z
M 11.3867,6.65182 L 11.9824,6.57733 L 12.5252,6.45317 L 13.0151,6.27934 L 13.4521,6.05585 L 13.8362,5.78268
 L 14.1674,5.45987 L 14.4504,5.08229 L 14.6899,4.64499 L 14.8858,4.14795 L 15.0383,3.59116 L 15.1471,2.97462
 L 15.2124,2.29834 L 15.2342,1.56233 L 15.2342,-6.74348 L 12.6335,-6.74348 L 12.6335,2.2148 L 12.6233,2.48822
 L 12.5925,2.74417 L 12.5412,2.98268 L 12.4694,3.20374 L 12.3771,3.40733 L 12.2643,3.59349 L 12.131,3.76219
 L 11.9795,3.91074 L 11.8122,4.03644 L 11.6291,4.13928 L 11.4301,4.21927 L 11.2153,4.2764 L 10.9847,4.31067
 L 10.7383,4.3221 L 10.4918,4.31067 L 10.2611,4.2764 L 10.0463,4.21927 L 9.84732,4.13928 L 9.66415,4.03644
 L 9.49683,3.91074 L 9.34532,3.76219 L 9.21201,3.59349 L 9.09921,3.40733 L 9.00693,3.20374 L 8.93515,2.98268
 L 8.88388,2.74417 L 8.85312,2.48822 L 8.84286,2.2148 L 8.84286,-6.74348 L 6.24222,-6.74348 L 6.24222,1.56233
 L 6.26407,2.29834 L 6.32965,2.97462 L 6.43895,3.59116 L 6.59195,4.14795 L 6.78868,4.64499 L 7.02913,5.08229
 L 7.31328,5.45987 L 7.64548,5.78268 L 8.03003,6.05585 L 8.46695,6.27934 L 8.95621,6.45317 L 9.49783,6.57733
 L 10.0918,6.65182 L 10.7381,6.67667 z
M 10.1325,6.15302 L 9.58514,6.08437 L 9.09615,5.97227 L 8.66541,5.81923 L 8.28998,5.6272 L 7.96637,5.39732
 L 7.68951,5.1283 L 7.45009,4.81015 L 7.24199,4.43167 L 7.06688,3.98924 L 6.92723,3.48103 L 6.82541,2.90674
 L 6.76337,2.26685 L 6.74222,1.5547 L 6.74222,-6.24348 L 8.34286,-6.24348 L 8.34286,2.2148 L 8.34322,2.23354
 L 8.35347,2.50696 L 8.35669,2.54788 L 8.38745,2.80383 L 8.39505,2.84924 L 8.44632,3.08775 L 8.45959,3.1371
 L 8.53137,3.35815 L 8.55153,3.41016 L 8.64381,3.61375 L 8.67159,3.66643 L 8.78438,3.85258 L 8.81972,3.9035
 L 8.95303,4.0722 L 8.99527,4.11922 L 9.14677,4.26776 L 9.19652,4.3105 L 9.36385,4.4362 L 9.41936,4.47241
 L 9.60252,4.57526 L 9.66084,4.60321 L 9.85983,4.6832 L 9.91782,4.70247 L 10.1326,4.7596 L 10.1877,4.77097
 L 10.4183,4.80524 L 10.4686,4.81013 L 10.7151,4.82156 L 10.7614,4.82156 L 11.0079,4.81013 L 11.0582,4.80524
 L 11.2888,4.77097 L 11.3438,4.7596 L 11.5586,4.70247 L 11.6166,4.68318 L 11.8156,4.6032 L 11.8739,4.57524
 L 12.057,4.4724 L 12.1125,4.43617 L 12.2798,4.31047 L 12.3296,4.26773 L 12.481,4.11919 L 12.5232,4.07225
 L 12.6566,3.90355 L 12.6919,3.85265 L 12.8047,3.66649 L 12.8325,3.61378 L 12.9248,3.41019 L 12.945,3.35822
 L 13.0168,3.13716 L 13.0301,3.08778 L 13.0813,2.84927 L 13.0889,2.80383 L 13.1197,2.54788 L 13.1229,2.50696
 L 13.1332,2.23354 L 13.1335,2.2148 L 13.1335,-6.24348 L 14.7342,-6.24348 L 14.7342,1.55476 L 14.7131,2.26701
 L 14.6513,2.90697 L 14.5499,3.48152 L 14.4108,3.98975 L 14.2363,4.4324 L 14.029,4.81085 L 13.7906,5.12895
 L 13.5149,5.39766 L 13.1921,5.62723 L 12.8168,5.81914 L 12.3853,5.97224 L 11.8954,6.0843 L 11.346,6.15302
 L 10.7382,6.1763 z
M -12.115,0.561462 L -8.862,0.561462 L -8.862,6.41875 L -6.26135,6.41875 L -6.26135,-6.74348 L -8.862,-6.74348
 L -8.862,-1.72652 L -12.115,-1.72652 L -12.115,-6.74348 L -14.7156,-6.74348 L -14.7156,6.41875 L -12.115,6.41875
 z
M -14.2156,5.91875 L -14.2156,-6.24348 L -12.615,-6.24348 L -12.615,-1.72652 L -12.6061,-1.63283 L -12.5905,-1.57201
 L -12.5674,-1.51363 L -12.5372,-1.4586 L -12.5002,-1.40781 L -12.4573,-1.36203 L -12.4089,-1.32201 L -12.3559,-1.28836
 L -12.2991,-1.26163 L -12.2393,-1.24222 L -12.1777,-1.23045 L -12.115,-1.22652 L -8.862,-1.22652 L -8.76831,-1.23537
 L -8.70749,-1.25099 L -8.64911,-1.27411 L -8.59409,-1.30435 L -8.54329,-1.34126 L -8.49751,-1.38425 L -8.45749,-1.43262
 L -8.42384,-1.48564 L -8.39711,-1.54245 L -8.3777,-1.60217 L -8.36594,-1.66385 L -8.362,-1.72652 L -8.362,-6.24348
 L -6.76135,-6.24348 L -6.76135,5.91875 L -8.362,5.91875 L -8.362,0.561462 L -8.37085,0.467773 L -8.38647,0.406952
 L -8.40959,0.348572 L -8.43983,0.293549 L -8.47675,0.242752 L -8.51973,0.196976 L -8.5681,0.156952 L -8.62112,0.123306
 L -8.67793,0.0965729 L -8.73766,0.0771637 L -8.79933,0.0653992 L -8.862,0.0614624 L -12.115,0.0614624 L -12.2087,0.0703125
 L -12.2695,0.0859375 L -12.3279,0.109055 L -12.3829,0.139297 L -12.4337,0.176208 L -12.4795,0.219193 L -12.5195,0.267563
 L -12.5531,0.320587 L -12.5799,0.377396 L -12.5993,0.437119 L -12.6111,0.498795 L -12.615,0.561462 L -12.615,5.91875
 z
M 19.2645,-3.14651 L 22.9494,6.41875 L 25.7264,6.41875 L 25.7264,-6.74348 L 23.4342,-6.74348 L 23.4342,2.82178
 L 19.7669,-6.74348 L 16.9724,-6.74348 L 16.9724,6.41875 L 19.2645,6.41875 z
M 17.4724,5.91875 L 17.4724,-6.24348 L 19.4231,-6.24348 L 22.9674,3.00078 L 22.9961,3.06265 L 23.0297,3.11568
 L 23.0697,3.16405 L 23.1155,3.20703 L 23.1663,3.24394 L 23.2213,3.27419 L 23.2797,3.2973 L 23.3405,3.31293
 L 23.4028,3.32079 L 23.4656,3.32079 L 23.5279,3.31293 L 23.5887,3.2973 L 23.6471,3.27419 L 23.7021,3.24394
 L 23.7529,3.20703 L 23.7987,3.16405 L 23.8387,3.11568 L 23.8724,3.06265 L 23.8991,3.00584 L 23.9185,2.94612
 L 23.9303,2.88445 L 23.9342,2.82178 L 23.9342,-6.24348 L 25.2264,-6.24348 L 25.2264,5.91875 L 23.2926,5.91875
 L 19.731,-3.32626 L 19.7026,-3.38739 L 19.669,-3.44041 L 19.629,-3.48878 L 19.5832,-3.53177 L 19.5324,-3.56868
 L 19.4774,-3.59892 L 19.419,-3.62204 L 19.3582,-3.63766 L 19.2959,-3.64552 L 19.2331,-3.64552 L 19.1708,-3.63766
 L 19.11,-3.62204 L 19.0516,-3.59892 L 18.9966,-3.56868 L 18.9458,-3.53177 L 18.9,-3.48878 L 18.86,-3.44041
 L 18.8263,-3.38739 L 18.7996,-3.33058 L 18.7802,-3.27086 L 18.7684,-3.20918 L 18.7645,-3.14651 L 18.7645,5.91875
 z
M -1.6228,3.16562 L 1.85938,3.16562 L 2.6703,6.41875 L 5.27097,6.41875 L 1.71832,-6.74348 L -1.4642,-6.74348
 L -5.01683,6.41875 L -2.41618,6.41875 z
M -4.36398,5.91875 L -1.08127,-6.24348 L 1.33539,-6.24348 L 4.61812,5.91875 L 3.06096,5.91875 L 2.34453,3.04468
 L 2.3349,3.01111 L 2.31178,2.95273 L 2.28154,2.89771 L 2.24463,2.84691 L 2.20164,2.80113 L 2.15327,2.76111
 L 2.10025,2.72746 L 2.04344,2.70073 L 1.98372,2.68132 L 1.92204,2.66956 L 1.85938,2.66562 L -1.6228,2.66562
 L -1.66025,2.66702 L -1.72244,2.67564 L -1.78307,2.692 L -1.84116,2.71582 L -1.89581,2.74673 L -1.94615,2.78426
 L -1.99141,2.82779 L -2.03084,2.87665 L -2.06384,2.93007 L -2.08989,2.9872 L -2.10857,3.04715 L -2.8089,5.91875
 z
M 1.43758,1.52081 L 1.49878,1.50681 L 1.55775,1.48523 L 1.61356,1.45644 L 1.6653,1.42087 L 1.71219,1.3791
 L 1.75346,1.33179 L 1.78848,1.27966 L 1.8167,1.22357 L 1.83766,1.16438 L 1.85104,1.10304 L 1.85663,1.0405
 L 1.85432,0.977753 L 1.84418,0.915787 L 0.610077,-4.47348 L 0.582291,-4.55878 L 0.554001,-4.61482 L 0.51889,-4.66689
 L 0.477539,-4.71414 L 0.430588,-4.75583 L 0.378784,-4.79132 L 0.322952,-4.82002 L 0.263947,-4.84151 L 0.202713,-4.85544
 L 0.140228,-4.86157 L 0.0774689,-4.85983 L 0.0154114,-4.85023 L -0.0449524,-4.83293 L -0.102661,-4.80821 L -0.15683,-4.77644
 L -0.206589,-4.73814 L -0.251144,-4.69391 L -0.28981,-4.64442 L -0.321976,-4.5905 L -0.347122,-4.53296 L -0.364853,-4.47273
 L -1.59021,0.916534 L -1.60167,0.995987 L -1.60167,1.05879 L -1.59381,1.12108 L -1.57819,1.1819 L -1.55507,1.24028
 L -1.52483,1.2953 L -1.48792,1.3461 L -1.44493,1.39188 L -1.39656,1.4319 L -1.34354,1.46555 L -1.28673,1.49228
 L -1.22701,1.51169 L -1.16533,1.52345 L -1.10266,1.52739 L 1.3568,1.52739 z
M -1.10266,1.02739 L 0.122696,-4.36188 L 1.3568,1.02739 z
" stroke="black" fill="lightgray" stroke-width="0.5"/>
</svg>
