  0
SECTION
  2
BLOCKS
  0
ENDSEC
  0
SECTION
  2
ENTITIES
  0
LINE
  8
0
 10
-20.832
 20
-6.6566
 11
-20.2256
 21
-6.59641
  0
LINE
  8
0
 10
-20.2256
 20
-6.59641
 11
-19.6684
 21
-6.49609
  0
LINE
  8
0
 10
-19.6684
 20
-6.49609
 11
-19.1602
 21
-6.35567
  0
LINE
  8
0
 10
-19.1602
 20
-6.35567
 11
-18.7012
 21
-6.17509
  0
LINE
  8
0
 10
-18.7012
 20
-6.17509
 11
-18.2912
 21
-5.95441
  0
LINE
  8
0
 10
-18.2912
 20
-5.95441
 11
-17.9304
 21
-5.6936
  0
LINE
  8
0
 10
-17.9304
 20
-5.6936
 11
-17.6182
 21
-5.39212
  0
LINE
  8
0
 10
-17.6182
 20
-5.39212
 11
-17.354
 21
-5.04944
  0
LINE
  8
0
 10
-17.354
 20
-5.04944
 11
-17.1378
 21
-4.66554
  0
LINE
  8
0
 10
-17.1378
 20
-4.66554
 11
-16.9697
 21
-4.24045
  0
LINE
  8
0
 10
-16.9697
 20
-4.24045
 11
-16.8496
 21
-3.77414
  0
LINE
  8
0
 10
-16.8496
 20
-3.77414
 11
-16.7776
 21
-3.26662
  0
LINE
  8
0
 10
-16.7776
 20
-3.26662
 11
-16.7536
 21
-2.7179
  0
LINE
  8
0
 10
-16.7536
 20
-2.7179
 11
-16.7688
 21
-2.31
  0
LINE
  8
0
 10
-16.7688
 20
-2.31
 11
-16.8147
 21
-1.92262
  0
LINE
  8
0
 10
-16.8147
 20
-1.92262
 11
-16.8912
 21
-1.55576
  0
LINE
  8
0
 10
-16.8912
 20
-1.55576
 11
-16.9982
 21
-1.2094
  0
LINE
  8
0
 10
-16.9982
 20
-1.2094
 11
-17.1358
 21
-0.883545
  0
LINE
  8
0
 10
-17.1358
 20
-0.883545
 11
-17.3041
 21
-0.578217
  0
LINE
  8
0
 10
-17.3041
 20
-0.578217
 11
-17.5029
 21
-0.293396
  0
LINE
  8
0
 10
-17.5029
 20
-0.293396
 11
-17.7341
 21
-0.0265503
  0
LINE
  8
0
 10
-17.7341
 20
-0.0265503
 11
-17.9994
 21
0.224823
  0
LINE
  8
0
 10
-17.9994
 20
0.224823
 11
-18.299
 21
0.460724
  0
LINE
  8
0
 10
-18.299
 20
0.460724
 11
-18.6327
 21
0.681152
  0
LINE
  8
0
 10
-18.6327
 20
0.681152
 11
-19.0006
 21
0.886093
  0
LINE
  8
0
 10
-19.0006
 20
0.886093
 11
-19.4027
 21
1.07556
  0
LINE
  8
0
 10
-19.4027
 20
1.07556
 11
-19.839
 21
1.24956
  0
LINE
  8
0
 10
-19.839
 20
1.24956
 11
-20.9587
 21
1.67322
  0
LINE
  8
0
 10
-20.9587
 20
1.67322
 11
-21.2748
 21
1.79515
  0
LINE
  8
0
 10
-21.2748
 20
1.79515
 11
-21.5585
 21
1.91402
  0
LINE
  8
0
 10
-21.5585
 20
1.91402
 11
-21.8095
 21
2.02982
  0
LINE
  8
0
 10
-21.8095
 20
2.02982
 11
-22.028
 21
2.14253
  0
LINE
  8
0
 10
-22.028
 20
2.14253
 11
-22.2139
 21
2.2522
  0
LINE
  8
0
 10
-22.2139
 20
2.2522
 11
-22.3673
 21
2.3588
  0
LINE
  8
0
 10
-22.3673
 20
2.3588
 11
-22.4881
 21
2.46233
  0
LINE
  8
0
 10
-22.4881
 20
2.46233
 11
-22.5852
 21
2.56822
  0
LINE
  8
0
 10
-22.5852
 20
2.56822
 11
-22.6673
 21
2.68187
  0
LINE
  8
0
 10
-22.6673
 20
2.68187
 11
-22.7345
 21
2.80325
  0
LINE
  8
0
 10
-22.7345
 20
2.80325
 11
-22.7867
 21
2.93239
  0
LINE
  8
0
 10
-22.7867
 20
2.93239
 11
-22.8241
 21
3.06924
  0
LINE
  8
0
 10
-22.8241
 20
3.06924
 11
-22.8465
 21
3.21387
  0
LINE
  8
0
 10
-22.8465
 20
3.21387
 11
-22.8539
 21
3.36621
  0
LINE
  8
0
 10
-22.8539
 20
3.36621
 11
-22.8437
 21
3.5611
  0
LINE
  8
0
 10
-22.8437
 20
3.5611
 11
-22.8129
 21
3.74265
  0
LINE
  8
0
 10
-22.8129
 20
3.74265
 11
-22.7616
 21
3.91089
  0
LINE
  8
0
 10
-22.7616
 20
3.91089
 11
-22.6899
 21
4.06581
  0
LINE
  8
0
 10
-22.6899
 20
4.06581
 11
-22.5976
 21
4.20741
  0
LINE
  8
0
 10
-22.5976
 20
4.20741
 11
-22.4848
 21
4.33571
  0
LINE
  8
0
 10
-22.4848
 20
4.33571
 11
-22.3515
 21
4.45067
  0
LINE
  8
0
 10
-22.3515
 20
4.45067
 11
-22.1989
 21
4.55128
  0
LINE
  8
0
 10
-22.1989
 20
4.55128
 11
-22.0283
 21
4.63641
  0
LINE
  8
0
 10
-22.0283
 20
4.63641
 11
-21.8398
 21
4.70605
  0
LINE
  8
0
 10
-21.8398
 20
4.70605
 11
-21.6332
 21
4.76024
  0
LINE
  8
0
 10
-21.6332
 20
4.76024
 11
-21.4087
 21
4.79892
  0
LINE
  8
0
 10
-21.4087
 20
4.79892
 11
-21.1661
 21
4.82214
  0
LINE
  8
0
 10
-21.1661
 20
4.82214
 11
-20.9056
 21
4.82988
  0
LINE
  8
0
 10
-20.9056
 20
4.82988
 11
-20.6635
 21
4.82359
  0
LINE
  8
0
 10
-20.6635
 20
4.82359
 11
-20.4206
 21
4.80472
  0
LINE
  8
0
 10
-20.4206
 20
4.80472
 11
-20.177
 21
4.77327
  0
LINE
  8
0
 10
-20.177
 20
4.77327
 11
-19.9327
 21
4.72923
  0
LINE
  8
0
 10
-19.9327
 20
4.72923
 11
-19.6877
 21
4.67262
  0
LINE
  8
0
 10
-19.6877
 20
4.67262
 11
-19.4419
 21
4.60342
  0
LINE
  8
0
 10
-19.4419
 20
4.60342
 11
-19.1955
 21
4.52165
  0
LINE
  8
0
 10
-19.1955
 20
4.52165
 11
-18.9492
 21
4.42784
  0
LINE
  8
0
 10
-18.9492
 20
4.42784
 11
-18.7039
 21
4.32253
  0
LINE
  8
0
 10
-18.7039
 20
4.32253
 11
-18.4598
 21
4.20572
  0
LINE
  8
0
 10
-18.4598
 20
4.20572
 11
-18.2167
 21
4.07741
  0
LINE
  8
0
 10
-18.2167
 20
4.07741
 11
-17.9747
 21
3.93759
  0
LINE
  8
0
 10
-17.9747
 20
3.93759
 11
-17.7338
 21
3.78629
  0
LINE
  8
0
 10
-17.7338
 20
3.78629
 11
-17.494
 21
3.62349
  0
LINE
  8
0
 10
-17.494
 20
3.62349
 11
-17.494
 21
6.16109
  0
LINE
  8
0
 10
-17.494
 20
6.16109
 11
-17.7488
 21
6.27342
  0
LINE
  8
0
 10
-17.7488
 20
6.27342
 11
-18.0043
 21
6.37762
  0
LINE
  8
0
 10
-18.0043
 20
6.37762
 11
-18.2605
 21
6.47369
  0
LINE
  8
0
 10
-18.2605
 20
6.47369
 11
-18.5174
 21
6.56163
  0
LINE
  8
0
 10
-18.5174
 20
6.56163
 11
-18.775
 21
6.64143
  0
LINE
  8
0
 10
-18.775
 20
6.64143
 11
-19.0334
 21
6.7131
  0
LINE
  8
0
 10
-19.0334
 20
6.7131
 11
-19.2924
 21
6.77663
  0
LINE
  8
0
 10
-19.2924
 20
6.77663
 11
-19.5518
 21
6.83185
  0
LINE
  8
0
 10
-19.5518
 20
6.83185
 11
-19.8113
 21
6.87857
  0
LINE
  8
0
 10
-19.8113
 20
6.87857
 11
-20.0707
 21
6.91681
  0
LINE
  8
0
 10
-20.0707
 20
6.91681
 11
-20.3301
 21
6.94653
  0
LINE
  8
0
 10
-20.3301
 20
6.94653
 11
-20.5895
 21
6.96777
  0
LINE
  8
0
 10
-20.5895
 20
6.96777
 11
-20.849
 21
6.98051
  0
LINE
  8
0
 10
-20.849
 20
6.98051
 11
-21.1084
 21
6.98476
  0
LINE
  8
0
 10
-21.1084
 20
6.98476
 11
-21.6628
 21
6.96387
  0
LINE
  8
0
 10
-21.6628
 20
6.96387
 11
-22.1822
 21
6.9012
  0
LINE
  8
0
 10
-22.1822
 20
6.9012
 11
-22.6667
 21
6.79675
  0
LINE
  8
0
 10
-22.6667
 20
6.79675
 11
-23.1163
 21
6.65051
  0
LINE
  8
0
 10
-23.1163
 20
6.65051
 11
-23.531
 21
6.46251
  0
LINE
  8
0
 10
-23.531
 20
6.46251
 11
-23.9108
 21
6.23271
  0
LINE
  8
0
 10
-23.9108
 20
6.23271
 11
-24.2557
 21
5.96114
  0
LINE
  8
0
 10
-24.2557
 20
5.96114
 11
-24.5598
 21
5.65305
  0
LINE
  8
0
 10
-24.5598
 20
5.65305
 11
-24.817
 21
5.31361
  0
LINE
  8
0
 10
-24.817
 20
5.31361
 11
-25.0275
 21
4.94284
  0
LINE
  8
0
 10
-25.0275
 20
4.94284
 11
-25.1912
 21
4.54074
  0
LINE
  8
0
 10
-25.1912
 20
4.54074
 11
-25.3081
 21
4.10728
  0
LINE
  8
0
 10
-25.3081
 20
4.10728
 11
-25.3783
 21
3.6425
  0
LINE
  8
0
 10
-25.3783
 20
3.6425
 11
-25.4017
 21
3.14638
  0
LINE
  8
0
 10
-25.4017
 20
3.14638
 11
-25.3875
 21
2.75967
  0
LINE
  8
0
 10
-25.3875
 20
2.75967
 11
-25.3448
 21
2.39619
  0
LINE
  8
0
 10
-25.3448
 20
2.39619
 11
-25.2738
 21
2.05594
  0
LINE
  8
0
 10
-25.2738
 20
2.05594
 11
-25.1743
 21
1.73891
  0
LINE
  8
0
 10
-25.1743
 20
1.73891
 11
-25.0464
 21
1.4451
  0
LINE
  8
0
 10
-25.0464
 20
1.4451
 11
-24.89
 21
1.17451
  0
LINE
  8
0
 10
-24.89
 20
1.17451
 11
-24.7053
 21
0.927155
  0
LINE
  8
0
 10
-24.7053
 20
0.927155
 11
-24.4804
 21
0.692978
  0
LINE
  8
0
 10
-24.4804
 20
0.692978
 11
-24.2037
 21
0.461853
  0
LINE
  8
0
 10
-24.2037
 20
0.461853
 11
-23.8752
 21
0.23381
  0
LINE
  8
0
 10
-23.8752
 20
0.23381
 11
-23.4948
 21
0.00880432
  0
LINE
  8
0
 10
-23.4948
 20
0.00880432
 11
-23.0627
 21
-0.213104
  0
LINE
  8
0
 10
-23.0627
 20
-0.213104
 11
-22.5788
 21
-0.431976
  0
LINE
  8
0
 10
-22.5788
 20
-0.431976
 11
-22.043
 21
-0.647781
  0
LINE
  8
0
 10
-22.043
 20
-0.647781
 11
-20.7647
 21
-1.13307
  0
LINE
  8
0
 10
-20.7647
 20
-1.13307
 11
-20.5797
 21
-1.20985
  0
LINE
  8
0
 10
-20.5797
 20
-1.20985
 11
-20.4077
 21
-1.29436
  0
LINE
  8
0
 10
-20.4077
 20
-1.29436
 11
-20.2487
 21
-1.3866
  0
LINE
  8
0
 10
-20.2487
 20
-1.3866
 11
-20.1026
 21
-1.48657
  0
LINE
  8
0
 10
-20.1026
 20
-1.48657
 11
-19.9695
 21
-1.59427
  0
LINE
  8
0
 10
-19.9695
 20
-1.59427
 11
-19.8493
 21
-1.7097
  0
LINE
  8
0
 10
-19.8493
 20
-1.7097
 11
-19.7421
 21
-1.83286
  0
LINE
  8
0
 10
-19.7421
 20
-1.83286
 11
-19.6485
 21
-1.96281
  0
LINE
  8
0
 10
-19.6485
 20
-1.96281
 11
-19.5694
 21
-2.09869
  0
LINE
  8
0
 10
-19.5694
 20
-2.09869
 11
-19.5046
 21
-2.24051
  0
LINE
  8
0
 10
-19.5046
 20
-2.24051
 11
-19.4542
 21
-2.38824
  0
LINE
  8
0
 10
-19.4542
 20
-2.38824
 11
-19.4182
 21
-2.5419
  0
LINE
  8
0
 10
-19.4182
 20
-2.5419
 11
-19.3966
 21
-2.70149
  0
LINE
  8
0
 10
-19.3966
 20
-2.70149
 11
-19.3894
 21
-2.86702
  0
LINE
  8
0
 10
-19.3894
 20
-2.86702
 11
-19.4002
 21
-3.08374
  0
LINE
  8
0
 10
-19.4002
 20
-3.08374
 11
-19.4326
 21
-3.28629
  0
LINE
  8
0
 10
-19.4326
 20
-3.28629
 11
-19.4866
 21
-3.47464
  0
LINE
  8
0
 10
-19.4866
 20
-3.47464
 11
-19.5621
 21
-3.64879
  0
LINE
  8
0
 10
-19.5621
 20
-3.64879
 11
-19.6593
 21
-3.80878
  0
LINE
  8
0
 10
-19.6593
 20
-3.80878
 11
-19.7781
 21
-3.95456
  0
LINE
  8
0
 10
-19.7781
 20
-3.95456
 11
-19.9184
 21
-4.08615
  0
LINE
  8
0
 10
-19.9184
 20
-4.08615
 11
-20.0783
 21
-4.20172
  0
LINE
  8
0
 10
-20.0783
 20
-4.20172
 11
-20.2559
 21
-4.29951
  0
LINE
  8
0
 10
-20.2559
 20
-4.29951
 11
-20.4511
 21
-4.37953
  0
LINE
  8
0
 10
-20.4511
 20
-4.37953
 11
-20.6639
 21
-4.44177
  0
LINE
  8
0
 10
-20.6639
 20
-4.44177
 11
-20.8943
 21
-4.48622
  0
LINE
  8
0
 10
-20.8943
 20
-4.48622
 11
-21.1425
 21
-4.51289
  0
LINE
  8
0
 10
-21.1425
 20
-4.51289
 11
-21.4082
 21
-4.52179
  0
LINE
  8
0
 10
-21.4082
 20
-4.52179
 11
-21.6807
 21
-4.51445
  0
LINE
  8
0
 10
-21.6807
 20
-4.51445
 11
-21.9541
 21
-4.49243
  0
LINE
  8
0
 10
-21.9541
 20
-4.49243
 11
-22.2283
 21
-4.45573
  0
LINE
  8
0
 10
-22.2283
 20
-4.45573
 11
-22.5035
 21
-4.40437
  0
LINE
  8
0
 10
-22.5035
 20
-4.40437
 11
-22.7796
 21
-4.33832
  0
LINE
  8
0
 10
-22.7796
 20
-4.33832
 11
-23.0565
 21
-4.2576
  0
LINE
  8
0
 10
-23.0565
 20
-4.2576
 11
-23.3344
 21
-4.1622
  0
LINE
  8
0
 10
-23.3344
 20
-4.1622
 11
-23.6141
 21
-4.05173
  0
LINE
  8
0
 10
-23.6141
 20
-4.05173
 11
-23.8964
 21
-3.92587
  0
LINE
  8
0
 10
-23.8964
 20
-3.92587
 11
-24.1815
 21
-3.78464
  0
LINE
  8
0
 10
-24.1815
 20
-3.78464
 11
-24.4693
 21
-3.62801
  0
LINE
  8
0
 10
-24.4693
 20
-3.62801
 11
-24.7597
 21
-3.45598
  0
LINE
  8
0
 10
-24.7597
 20
-3.45598
 11
-25.0529
 21
-3.26857
  0
LINE
  8
0
 10
-25.0529
 20
-3.26857
 11
-25.3488
 21
-3.06578
  0
LINE
  8
0
 10
-25.3488
 20
-3.06578
 11
-25.3488
 21
-5.75314
  0
LINE
  8
0
 10
-25.3488
 20
-5.75314
 11
-25.0855
 21
-5.87924
  0
LINE
  8
0
 10
-25.0855
 20
-5.87924
 11
-24.8195
 21
-5.99617
  0
LINE
  8
0
 10
-24.8195
 20
-5.99617
 11
-24.5508
 21
-6.10396
  0
LINE
  8
0
 10
-24.5508
 20
-6.10396
 11
-24.2794
 21
-6.20259
  0
LINE
  8
0
 10
-24.2794
 20
-6.20259
 11
-24.0053
 21
-6.29207
  0
LINE
  8
0
 10
-24.0053
 20
-6.29207
 11
-23.7286
 21
-6.37241
  0
LINE
  8
0
 10
-23.7286
 20
-6.37241
 11
-23.4491
 21
-6.44357
  0
LINE
  8
0
 10
-23.4491
 20
-6.44357
 11
-23.1683
 21
-6.50542
  0
LINE
  8
0
 10
-23.1683
 20
-6.50542
 11
-22.8877
 21
-6.55774
  0
LINE
  8
0
 10
-22.8877
 20
-6.55774
 11
-22.6073
 21
-6.60056
  0
LINE
  8
0
 10
-22.6073
 20
-6.60056
 11
-22.3271
 21
-6.63385
  0
LINE
  8
0
 10
-22.3271
 20
-6.63385
 11
-22.047
 21
-6.65764
  0
LINE
  8
0
 10
-22.047
 20
-6.65764
 11
-21.7672
 21
-6.67191
  0
LINE
  8
0
 10
-21.7672
 20
-6.67191
 11
-21.4875
 21
-6.67667
  0
LINE
  8
0
 10
-21.4875
 20
-6.67667
 11
-20.832
 21
-6.6566
  0
LINE
  8
0
 10
-21.7503
 20
-6.17212
 11
-22.0131
 21
-6.15872
  0
LINE
  8
0
 10
-22.0131
 20
-6.15872
 11
-22.2762
 21
-6.13637
  0
LINE
  8
0
 10
-22.2762
 20
-6.13637
 11
-22.5398
 21
-6.10506
  0
LINE
  8
0
 10
-22.5398
 20
-6.10506
 11
-22.8042
 21
-6.0647
  0
LINE
  8
0
 10
-22.8042
 20
-6.0647
 11
-23.0687
 21
-6.01537
  0
LINE
  8
0
 10
-23.0687
 20
-6.01537
 11
-23.3335
 21
-5.95705
  0
LINE
  8
0
 10
-23.3335
 20
-5.95705
 11
-23.5974
 21
-5.88985
  0
LINE
  8
0
 10
-23.5974
 20
-5.88985
 11
-23.858
 21
-5.81419
  0
LINE
  8
0
 10
-23.858
 20
-5.81419
 11
-24.1163
 21
-5.72986
  0
LINE
  8
0
 10
-24.1163
 20
-5.72986
 11
-24.3722
 21
-5.63689
  0
LINE
  8
0
 10
-24.3722
 20
-5.63689
 11
-24.6256
 21
-5.53522
  0
LINE
  8
0
 10
-24.6256
 20
-5.53522
 11
-24.8488
 21
-5.43712
  0
LINE
  8
0
 10
-24.8488
 20
-5.43712
 11
-24.8488
 21
-3.98436
  0
LINE
  8
0
 10
-24.8488
 20
-3.98436
 11
-24.724
 21
-4.05821
  0
LINE
  8
0
 10
-24.724
 20
-4.05821
 11
-24.7083
 21
-4.06715
  0
LINE
  8
0
 10
-24.7083
 20
-4.06715
 11
-24.4205
 21
-4.22379
  0
LINE
  8
0
 10
-24.4205
 20
-4.22379
 11
-24.4035
 21
-4.23267
  0
LINE
  8
0
 10
-24.4035
 20
-4.23267
 11
-24.1184
 21
-4.3739
  0
LINE
  8
0
 10
-24.1184
 20
-4.3739
 11
-24.1
 21
-4.38257
  0
LINE
  8
0
 10
-24.1
 20
-4.38257
 11
-23.8176
 21
-4.50842
  0
LINE
  8
0
 10
-23.8176
 20
-4.50842
 11
-23.7978
 21
-4.51675
  0
LINE
  8
0
 10
-23.7978
 20
-4.51675
 11
-23.5181
 21
-4.62723
  0
LINE
  8
0
 10
-23.5181
 20
-4.62723
 11
-23.4968
 21
-4.6351
  0
LINE
  8
0
 10
-23.4968
 20
-4.6351
 11
-23.2189
 21
-4.7305
  0
LINE
  8
0
 10
-23.2189
 20
-4.7305
 11
-23.1964
 21
-4.73763
  0
LINE
  8
0
 10
-23.1964
 20
-4.73763
 11
-22.9195
 21
-4.81834
  0
LINE
  8
0
 10
-22.9195
 20
-4.81834
 11
-22.8959
 21
-4.82458
  0
LINE
  8
0
 10
-22.8959
 20
-4.82458
 11
-22.6199
 21
-4.89064
  0
LINE
  8
0
 10
-22.6199
 20
-4.89064
 11
-22.5952
 21
-4.89589
  0
LINE
  8
0
 10
-22.5952
 20
-4.89589
 11
-22.3201
 21
-4.94725
  0
LINE
  8
0
 10
-22.3201
 20
-4.94725
 11
-22.2946
 21
-4.95132
  0
LINE
  8
0
 10
-22.2946
 20
-4.95132
 11
-22.0204
 21
-4.98802
  0
LINE
  8
0
 10
-22.0204
 20
-4.98802
 11
-21.9942
 21
-4.99081
  0
LINE
  8
0
 10
-21.9942
 20
-4.99081
 11
-21.7208
 21
-5.01283
  0
LINE
  8
0
 10
-21.7208
 20
-5.01283
 11
-21.6941
 21
-5.01427
  0
LINE
  8
0
 10
-21.6941
 20
-5.01427
 11
-21.4217
 21
-5.02161
  0
LINE
  8
0
 10
-21.4217
 20
-5.02161
 11
-21.3915
 21
-5.02151
  0
LINE
  8
0
 10
-21.3915
 20
-5.02151
 11
-21.1257
 21
-5.01262
  0
LINE
  8
0
 10
-21.1257
 20
-5.01262
 11
-21.089
 21
-5.01003
  0
LINE
  8
0
 10
-21.089
 20
-5.01003
 11
-20.8409
 21
-4.98335
  0
LINE
  8
0
 10
-20.8409
 20
-4.98335
 11
-20.7997
 21
-4.97717
  0
LINE
  8
0
 10
-20.7997
 20
-4.97717
 11
-20.5692
 21
-4.93272
  0
LINE
  8
0
 10
-20.5692
 20
-4.93272
 11
-20.5235
 21
-4.92168
  0
LINE
  8
0
 10
-20.5235
 20
-4.92168
 11
-20.3107
 21
-4.85944
  0
LINE
  8
0
 10
-20.3107
 20
-4.85944
 11
-20.2614
 21
-4.84216
  0
LINE
  8
0
 10
-20.2614
 20
-4.84216
 11
-20.0662
 21
-4.76215
  0
LINE
  8
0
 10
-20.0662
 20
-4.76215
 11
-20.0147
 21
-4.73749
  0
LINE
  8
0
 10
-20.0147
 20
-4.73749
 11
-19.8371
 21
-4.63969
  0
LINE
  8
0
 10
-19.8371
 20
-4.63969
 11
-19.7854
 21
-4.60696
  0
LINE
  8
0
 10
-19.7854
 20
-4.60696
 11
-19.6255
 21
-4.49139
  0
LINE
  8
0
 10
-19.6255
 20
-4.49139
 11
-19.5764
 21
-4.45088
  0
LINE
  8
0
 10
-19.5764
 20
-4.45088
 11
-19.4361
 21
-4.31929
  0
LINE
  8
0
 10
-19.4361
 20
-4.31929
 11
-19.3904
 21
-4.27032
  0
LINE
  8
0
 10
-19.3904
 20
-4.27032
 11
-19.2717
 21
-4.12454
  0
LINE
  8
0
 10
-19.2717
 20
-4.12454
 11
-19.232
 21
-4.06833
  0
LINE
  8
0
 10
-19.232
 20
-4.06833
 11
-19.1348
 21
-3.90834
  0
LINE
  8
0
 10
-19.1348
 20
-3.90834
 11
-19.1035
 21
-3.84781
  0
LINE
  8
0
 10
-19.1035
 20
-3.84781
 11
-19.0279
 21
-3.67366
  0
LINE
  8
0
 10
-19.0279
 20
-3.67366
 11
-19.0059
 21
-3.61237
  0
LINE
  8
0
 10
-19.0059
 20
-3.61237
 11
-18.952
 21
-3.42401
  0
LINE
  8
0
 10
-18.952
 20
-3.42401
 11
-18.9389
 21
-3.36525
  0
LINE
  8
0
 10
-18.9389
 20
-3.36525
 11
-18.9065
 21
-3.1627
  0
LINE
  8
0
 10
-18.9065
 20
-3.1627
 11
-18.9008
 21
-3.1086
  0
LINE
  8
0
 10
-18.9008
 20
-3.1086
 11
-18.8901
 21
-2.89188
  0
LINE
  8
0
 10
-18.8901
 20
-2.89188
 11
-18.8899
 21
-2.84534
  0
LINE
  8
0
 10
-18.8899
 20
-2.84534
 11
-18.8971
 21
-2.67981
  0
LINE
  8
0
 10
-18.8971
 20
-2.67981
 11
-18.9011
 21
-2.63446
  0
LINE
  8
0
 10
-18.9011
 20
-2.63446
 11
-18.9227
 21
-2.47487
  0
LINE
  8
0
 10
-18.9227
 20
-2.47487
 11
-18.9314
 21
-2.42786
  0
LINE
  8
0
 10
-18.9314
 20
-2.42786
 11
-18.9674
 21
-2.2742
  0
LINE
  8
0
 10
-18.9674
 20
-2.2742
 11
-18.981
 21
-2.22685
  0
LINE
  8
0
 10
-18.981
 20
-2.22685
 11
-19.0314
 21
-2.07912
  0
LINE
  8
0
 10
-19.0314
 20
-2.07912
 11
-19.0498
 21
-2.03278
  0
LINE
  8
0
 10
-19.0498
 20
-2.03278
 11
-19.1146
 21
-1.89096
  0
LINE
  8
0
 10
-19.1146
 20
-1.89096
 11
-19.1374
 21
-1.84695
  0
LINE
  8
0
 10
-19.1374
 20
-1.84695
 11
-19.2165
 21
-1.71107
  0
LINE
  8
0
 10
-19.2165
 20
-1.71107
 11
-19.2428
 21
-1.67067
  0
LINE
  8
0
 10
-19.2428
 20
-1.67067
 11
-19.3363
 21
-1.54071
  0
LINE
  8
0
 10
-19.3363
 20
-1.54071
 11
-19.365
 21
-1.50453
  0
LINE
  8
0
 10
-19.365
 20
-1.50453
 11
-19.4722
 21
-1.38138
  0
LINE
  8
0
 10
-19.4722
 20
-1.38138
 11
-19.5029
 21
-1.34912
  0
LINE
  8
0
 10
-19.5029
 20
-1.34912
 11
-19.6231
 21
-1.23369
  0
LINE
  8
0
 10
-19.6231
 20
-1.23369
 11
-19.655
 21
-1.20555
  0
LINE
  8
0
 10
-19.655
 20
-1.20555
 11
-19.7881
 21
-1.09785
  0
LINE
  8
0
 10
-19.7881
 20
-1.09785
 11
-19.8202
 21
-1.07394
  0
LINE
  8
0
 10
-19.8202
 20
-1.07394
 11
-19.9663
 21
-0.973969
  0
LINE
  8
0
 10
-19.9663
 20
-0.973969
 11
-19.9978
 21
-0.954071
  0
LINE
  8
0
 10
-19.9978
 20
-0.954071
 11
-20.1569
 21
-0.861832
  0
LINE
  8
0
 10
-20.1569
 20
-0.861832
 11
-20.1873
 21
-0.845596
  0
LINE
  8
0
 10
-20.1873
 20
-0.845596
 11
-20.3593
 21
-0.761093
  0
LINE
  8
0
 10
-20.3593
 20
-0.761093
 11
-20.388
 21
-0.748062
  0
LINE
  8
0
 10
-20.388
 20
-0.748062
 11
-20.573
 21
-0.67128
  0
LINE
  8
0
 10
-20.573
 20
-0.67128
 11
-20.5872
 21
-0.665619
  0
LINE
  8
0
 10
-20.5872
 20
-0.665619
 11
-21.861
 21
-0.182053
  0
LINE
  8
0
 10
-21.861
 20
-0.182053
 11
-22.3821
 21
0.0278625
  0
LINE
  8
0
 10
-22.3821
 20
0.0278625
 11
-22.8455
 21
0.237427
  0
LINE
  8
0
 10
-22.8455
 20
0.237427
 11
-23.2531
 21
0.446732
  0
LINE
  8
0
 10
-23.2531
 20
0.446732
 11
-23.6049
 21
0.654892
  0
LINE
  8
0
 10
-23.6049
 20
0.654892
 11
-23.9003
 21
0.859909
  0
LINE
  8
0
 10
-23.9003
 20
0.859909
 11
-24.1387
 21
1.05905
  0
LINE
  8
0
 10
-24.1387
 20
1.05905
 11
-24.3232
 21
1.25121
  0
LINE
  8
0
 10
-24.3232
 20
1.25121
 11
-24.4718
 21
1.4502
  0
LINE
  8
0
 10
-24.4718
 20
1.4502
 11
-24.5992
 21
1.67064
  0
LINE
  8
0
 10
-24.5992
 20
1.67064
 11
-24.7052
 21
1.914
  0
LINE
  8
0
 10
-24.7052
 20
1.914
 11
-24.7893
 21
2.18222
  0
LINE
  8
0
 10
-24.7893
 20
2.18222
 11
-24.8508
 21
2.47658
  0
LINE
  8
0
 10
-24.8508
 20
2.47658
 11
-24.8885
 21
2.79803
  0
LINE
  8
0
 10
-24.8885
 20
2.79803
 11
-24.9012
 21
3.14375
  0
LINE
  8
0
 10
-24.9012
 20
3.14375
 11
-24.88
 21
3.59332
  0
LINE
  8
0
 10
-24.88
 20
3.59332
 11
-24.818
 21
4.00456
  0
LINE
  8
0
 10
-24.818
 20
4.00456
 11
-24.7165
 21
4.38075
  0
LINE
  8
0
 10
-24.7165
 20
4.38075
 11
-24.5767
 21
4.72417
  0
LINE
  8
0
 10
-24.5767
 20
4.72417
 11
-24.3985
 21
5.03807
  0
LINE
  8
0
 10
-24.3985
 20
5.03807
 11
-24.181
 21
5.32501
  0
LINE
  8
0
 10
-24.181
 20
5.32501
 11
-23.9218
 21
5.58769
  0
LINE
  8
0
 10
-23.9218
 20
5.58769
 11
-23.6257
 21
5.8208
  0
LINE
  8
0
 10
-23.6257
 20
5.8208
 11
-23.2975
 21
6.01939
  0
LINE
  8
0
 10
-23.2975
 20
6.01939
 11
-22.9352
 21
6.18364
  0
LINE
  8
0
 10
-22.9352
 20
6.18364
 11
-22.5363
 21
6.31337
  0
LINE
  8
0
 10
-22.5363
 20
6.31337
 11
-22.0994
 21
6.40756
  0
LINE
  8
0
 10
-22.0994
 20
6.40756
 11
-21.6234
 21
6.465
  0
LINE
  8
0
 10
-21.6234
 20
6.465
 11
-21.1031
 21
6.4846
  0
LINE
  8
0
 10
-21.1031
 20
6.4846
 11
-20.8654
 21
6.48071
  0
LINE
  8
0
 10
-20.8654
 20
6.48071
 11
-20.6221
 21
6.46877
  0
LINE
  8
0
 10
-20.6221
 20
6.46877
 11
-20.3788
 21
6.44885
  0
LINE
  8
0
 10
-20.3788
 20
6.44885
 11
-20.1357
 21
6.42099
  0
LINE
  8
0
 10
-20.1357
 20
6.42099
 11
-19.8919
 21
6.38504
  0
LINE
  8
0
 10
-19.8919
 20
6.38504
 11
-19.6484
 21
6.3412
  0
LINE
  8
0
 10
-19.6484
 20
6.3412
 11
-19.4038
 21
6.28912
  0
LINE
  8
0
 10
-19.4038
 20
6.28912
 11
-19.1601
 21
6.22937
  0
LINE
  8
0
 10
-19.1601
 20
6.22937
 11
-18.9157
 21
6.16158
  0
LINE
  8
0
 10
-18.9157
 20
6.16158
 11
-18.6721
 21
6.08612
  0
LINE
  8
0
 10
-18.6721
 20
6.08612
 11
-18.4295
 21
6.00307
  0
LINE
  8
0
 10
-18.4295
 20
6.00307
 11
-18.1862
 21
5.91187
  0
LINE
  8
0
 10
-18.1862
 20
5.91187
 11
-17.994
 21
5.83347
  0
LINE
  8
0
 10
-17.994
 20
5.83347
 11
-17.994
 21
4.52525
  0
LINE
  8
0
 10
-17.994
 20
4.52525
 11
-18.2263
 21
4.64789
  0
LINE
  8
0
 10
-18.2263
 20
4.64789
 11
-18.244
 21
4.65675
  0
LINE
  8
0
 10
-18.244
 20
4.65675
 11
-18.4882
 21
4.77356
  0
LINE
  8
0
 10
-18.4882
 20
4.77356
 11
-18.5066
 21
4.78195
  0
LINE
  8
0
 10
-18.5066
 20
4.78195
 11
-18.7518
 21
4.88727
  0
LINE
  8
0
 10
-18.7518
 20
4.88727
 11
-18.7712
 21
4.8951
  0
LINE
  8
0
 10
-18.7712
 20
4.8951
 11
-19.0175
 21
4.98891
  0
LINE
  8
0
 10
-19.0175
 20
4.98891
 11
-19.038
 21
4.99622
  0
LINE
  8
0
 10
-19.038
 20
4.99622
 11
-19.2845
 21
5.07799
  0
LINE
  8
0
 10
-19.2845
 20
5.07799
 11
-19.3064
 21
5.0847
  0
LINE
  8
0
 10
-19.3064
 20
5.0847
 11
-19.5521
 21
5.1539
  0
LINE
  8
0
 10
-19.5521
 20
5.1539
 11
-19.5751
 21
5.15979
  0
LINE
  8
0
 10
-19.5751
 20
5.15979
 11
-19.8201
 21
5.2164
  0
LINE
  8
0
 10
-19.8201
 20
5.2164
 11
-19.844
 21
5.2213
  0
LINE
  8
0
 10
-19.844
 20
5.2213
 11
-20.0883
 21
5.26534
  0
LINE
  8
0
 10
-20.0883
 20
5.26534
 11
-20.113
 21
5.26915
  0
LINE
  8
0
 10
-20.113
 20
5.26915
 11
-20.3566
 21
5.3006
  0
LINE
  8
0
 10
-20.3566
 20
5.3006
 11
-20.3819
 21
5.30321
  0
LINE
  8
0
 10
-20.3819
 20
5.30321
 11
-20.6247
 21
5.32208
  0
LINE
  8
0
 10
-20.6247
 20
5.32208
 11
-20.6505
 21
5.32343
  0
LINE
  8
0
 10
-20.6505
 20
5.32343
 11
-20.8927
 21
5.32971
  0
LINE
  8
0
 10
-20.8927
 20
5.32971
 11
-20.9205
 21
5.32967
  0
LINE
  8
0
 10
-20.9205
 20
5.32967
 11
-21.181
 21
5.32193
  0
LINE
  8
0
 10
-21.181
 20
5.32193
 11
-21.2138
 21
5.31987
  0
LINE
  8
0
 10
-21.2138
 20
5.31987
 11
-21.4563
 21
5.29665
  0
LINE
  8
0
 10
-21.4563
 20
5.29665
 11
-21.4935
 21
5.29166
  0
LINE
  8
0
 10
-21.4935
 20
5.29166
 11
-21.7181
 21
5.25298
  0
LINE
  8
0
 10
-21.7181
 20
5.25298
 11
-21.7601
 21
5.24388
  0
LINE
  8
0
 10
-21.7601
 20
5.24388
 11
-21.9666
 21
5.1897
  0
LINE
  8
0
 10
-21.9666
 20
5.1897
 11
-22.013
 21
5.17509
  0
LINE
  8
0
 10
-22.013
 20
5.17509
 11
-22.2015
 21
5.10545
  0
LINE
  8
0
 10
-22.2015
 20
5.10545
 11
-22.2516
 21
5.08379
  0
LINE
  8
0
 10
-22.2516
 20
5.08379
 11
-22.4222
 21
4.99866
  0
LINE
  8
0
 10
-22.4222
 20
4.99866
 11
-22.4741
 21
4.9687
  0
LINE
  8
0
 10
-22.4741
 20
4.9687
 11
-22.6267
 21
4.86809
  0
LINE
  8
0
 10
-22.6267
 20
4.86809
 11
-22.678
 21
4.82933
  0
LINE
  8
0
 10
-22.678
 20
4.82933
 11
-22.8113
 21
4.71437
  0
LINE
  8
0
 10
-22.8113
 20
4.71437
 11
-22.8603
 21
4.66585
  0
LINE
  8
0
 10
-22.8603
 20
4.66585
 11
-22.9731
 21
4.53755
  0
LINE
  8
0
 10
-22.9731
 20
4.53755
 11
-23.0165
 21
4.48041
  0
LINE
  8
0
 10
-23.0165
 20
4.48041
 11
-23.1087
 21
4.33881
  0
LINE
  8
0
 10
-23.1087
 20
4.33881
 11
-23.1435
 21
4.276
  0
LINE
  8
0
 10
-23.1435
 20
4.276
 11
-23.2153
 21
4.12108
  0
LINE
  8
0
 10
-23.2153
 20
4.12108
 11
-23.2399
 21
4.05664
  0
LINE
  8
0
 10
-23.2399
 20
4.05664
 11
-23.2912
 21
3.8884
  0
LINE
  8
0
 10
-23.2912
 20
3.8884
 11
-23.3059
 21
3.82617
  0
LINE
  8
0
 10
-23.3059
 20
3.82617
 11
-23.3367
 21
3.64462
  0
LINE
  8
0
 10
-23.3367
 20
3.64462
 11
-23.343
 21
3.58737
  0
LINE
  8
0
 10
-23.343
 20
3.58737
 11
-23.3532
 21
3.39249
  0
LINE
  8
0
 10
-23.3532
 20
3.39249
 11
-23.3533
 21
3.34175
  0
LINE
  8
0
 10
-23.3533
 20
3.34175
 11
-23.3459
 21
3.18941
  0
LINE
  8
0
 10
-23.3459
 20
3.18941
 11
-23.3406
 21
3.13734
  0
LINE
  8
0
 10
-23.3406
 20
3.13734
 11
-23.3182
 21
2.99272
  0
LINE
  8
0
 10
-23.3182
 20
2.99272
 11
-23.3064
 21
2.93768
  0
LINE
  8
0
 10
-23.3064
 20
2.93768
 11
-23.2691
 21
2.80083
  0
LINE
  8
0
 10
-23.2691
 20
2.80083
 11
-23.2502
 21
2.74481
  0
LINE
  8
0
 10
-23.2502
 20
2.74481
 11
-23.198
 21
2.61568
  0
LINE
  8
0
 10
-23.198
 20
2.61568
 11
-23.1719
 21
2.56108
  0
LINE
  8
0
 10
-23.1719
 20
2.56108
 11
-23.1047
 21
2.4397
  0
LINE
  8
0
 10
-23.1047
 20
2.4397
 11
-23.0725
 21
2.38902
  0
LINE
  8
0
 10
-23.0725
 20
2.38902
 11
-22.9904
 21
2.27538
  0
LINE
  8
0
 10
-22.9904
 20
2.27538
 11
-22.9538
 21
2.23041
  0
LINE
  8
0
 10
-22.9538
 20
2.23041
 11
-22.8567
 21
2.12451
  0
LINE
  8
0
 10
-22.8567
 20
2.12451
 11
-22.8135
 21
2.08267
  0
LINE
  8
0
 10
-22.8135
 20
2.08267
 11
-22.6927
 21
1.97914
  0
LINE
  8
0
 10
-22.6927
 20
1.97914
 11
-22.6527
 21
1.94823
  0
LINE
  8
0
 10
-22.6527
 20
1.94823
 11
-22.4993
 21
1.84163
  0
LINE
  8
0
 10
-22.4993
 20
1.84163
 11
-22.468
 21
1.82153
  0
LINE
  8
0
 10
-22.468
 20
1.82153
 11
-22.282
 21
1.71187
  0
LINE
  8
0
 10
-22.282
 20
1.71187
 11
-22.2572
 21
1.69818
  0
LINE
  8
0
 10
-22.2572
 20
1.69818
 11
-22.0388
 21
1.58546
  0
LINE
  8
0
 10
-22.0388
 20
1.58546
 11
-22.0189
 21
1.57578
  0
LINE
  8
0
 10
-22.0189
 20
1.57578
 11
-21.7679
 21
1.45998
  0
LINE
  8
0
 10
-21.7679
 20
1.45998
 11
-21.7517
 21
1.45288
  0
LINE
  8
0
 10
-21.7517
 20
1.45288
 11
-21.4681
 21
1.33401
  0
LINE
  8
0
 10
-21.4681
 20
1.33401
 11
-21.4548
 21
1.32864
  0
LINE
  8
0
 10
-21.4548
 20
1.32864
 11
-21.1386
 21
1.20671
  0
LINE
  8
0
 10
-21.1386
 20
1.20671
 11
-20.0201
 21
0.783478
  0
LINE
  8
0
 10
-20.0201
 20
0.783478
 11
-19.6019
 21
0.616714
  0
LINE
  8
0
 10
-19.6019
 20
0.616714
 11
-19.2291
 21
0.441025
  0
LINE
  8
0
 10
-19.2291
 20
0.441025
 11
-18.8926
 21
0.253586
  0
LINE
  8
0
 10
-18.8926
 20
0.253586
 11
-18.5919
 21
0.0549927
  0
LINE
  8
0
 10
-18.5919
 20
0.0549927
 11
-18.3267
 21
-0.153854
  0
LINE
  8
0
 10
-18.3267
 20
-0.153854
 11
-18.0958
 21
-0.372559
  0
LINE
  8
0
 10
-18.0958
 20
-0.372559
 11
-17.8979
 21
-0.601044
  0
LINE
  8
0
 10
-17.8979
 20
-0.601044
 11
-17.7292
 21
-0.842651
  0
LINE
  8
0
 10
-17.7292
 20
-0.842651
 11
-17.5863
 21
-1.10211
  0
LINE
  8
0
 10
-17.5863
 20
-1.10211
 11
-17.4686
 21
-1.38083
  0
LINE
  8
0
 10
-17.4686
 20
-1.38083
 11
-17.3758
 21
-1.68089
  0
LINE
  8
0
 10
-17.3758
 20
-1.68089
 11
-17.3087
 21
-2.00319
  0
LINE
  8
0
 10
-17.3087
 20
-2.00319
 11
-17.2677
 21
-2.34888
  0
LINE
  8
0
 10
-17.2677
 20
-2.34888
 11
-17.254
 21
-2.71626
  0
LINE
  8
0
 10
-17.254
 20
-2.71626
 11
-17.276
 21
-3.22044
  0
LINE
  8
0
 10
-17.276
 20
-3.22044
 11
-17.3408
 21
-3.67635
  0
LINE
  8
0
 10
-17.3408
 20
-3.67635
 11
-17.4462
 21
-4.08566
  0
LINE
  8
0
 10
-17.4462
 20
-4.08566
 11
-17.5902
 21
-4.44992
  0
LINE
  8
0
 10
-17.5902
 20
-4.44992
 11
-17.7719
 21
-4.77261
  0
LINE
  8
0
 10
-17.7719
 20
-4.77261
 11
-17.9919
 21
-5.05794
  0
LINE
  8
0
 10
-17.9919
 20
-5.05794
 11
-18.2521
 21
-5.30916
  0
LINE
  8
0
 10
-18.2521
 20
-5.30916
 11
-18.5574
 21
-5.5298
  0
LINE
  8
0
 10
-18.5574
 20
-5.5298
 11
-18.912
 21
-5.7207
  0
LINE
  8
0
 10
-18.912
 20
-5.7207
 11
-19.3188
 21
-5.88077
  0
LINE
  8
0
 10
-19.3188
 20
-5.88077
 11
-19.7794
 21
-6.00804
  0
LINE
  8
0
 10
-19.7794
 20
-6.00804
 11
-20.2947
 21
-6.1008
  0
LINE
  8
0
 10
-20.2947
 20
-6.1008
 11
-20.8644
 21
-6.15735
  0
LINE
  8
0
 10
-20.8644
 20
-6.15735
 11
-21.4911
 21
-6.17653
  0
LINE
  8
0
 10
-21.4911
 20
-6.17653
 11
-21.7503
 21
-6.17212
  0
LINE
  8
0
 10
11.3867
 20
-6.65182
 11
11.9824
 21
-6.57733
  0
LINE
  8
0
 10
11.9824
 20
-6.57733
 11
12.5252
 21
-6.45317
  0
LINE
  8
0
 10
12.5252
 20
-6.45317
 11
13.0151
 21
-6.27934
  0
LINE
  8
0
 10
13.0151
 20
-6.27934
 11
13.4521
 21
-6.05585
  0
LINE
  8
0
 10
13.4521
 20
-6.05585
 11
13.8362
 21
-5.78268
  0
LINE
  8
0
 10
13.8362
 20
-5.78268
 11
14.1674
 21
-5.45987
  0
LINE
  8
0
 10
14.1674
 20
-5.45987
 11
14.4504
 21
-5.08229
  0
LINE
  8
0
 10
14.4504
 20
-5.08229
 11
14.6899
 21
-4.64499
  0
LINE
  8
0
 10
14.6899
 20
-4.64499
 11
14.8858
 21
-4.14795
  0
LINE
  8
0
 10
14.8858
 20
-4.14795
 11
15.0383
 21
-3.59116
  0
LINE
  8
0
 10
15.0383
 20
-3.59116
 11
15.1471
 21
-2.97462
  0
LINE
  8
0
 10
15.1471
 20
-2.97462
 11
15.2124
 21
-2.29834
  0
LINE
  8
0
 10
15.2124
 20
-2.29834
 11
15.2342
 21
-1.56233
  0
LINE
  8
0
 10
15.2342
 20
-1.56233
 11
15.2342
 21
6.74348
  0
LINE
  8
0
 10
15.2342
 20
6.74348
 11
12.6335
 21
6.74348
  0
LINE
  8
0
 10
12.6335
 20
6.74348
 11
12.6335
 21
-2.2148
  0
LINE
  8
0
 10
12.6335
 20
-2.2148
 11
12.6233
 21
-2.48822
  0
LINE
  8
0
 10
12.6233
 20
-2.48822
 11
12.5925
 21
-2.74417
  0
LINE
  8
0
 10
12.5925
 20
-2.74417
 11
12.5412
 21
-2.98268
  0
LINE
  8
0
 10
12.5412
 20
-2.98268
 11
12.4694
 21
-3.20374
  0
LINE
  8
0
 10
12.4694
 20
-3.20374
 11
12.3771
 21
-3.40733
  0
LINE
  8
0
 10
12.3771
 20
-3.40733
 11
12.2643
 21
-3.59349
  0
LINE
  8
0
 10
12.2643
 20
-3.59349
 11
12.131
 21
-3.76219
  0
LINE
  8
0
 10
12.131
 20
-3.76219
 11
11.9795
 21
-3.91074
  0
LINE
  8
0
 10
11.9795
 20
-3.91074
 11
11.8122
 21
-4.03644
  0
LINE
  8
0
 10
11.8122
 20
-4.03644
 11
11.6291
 21
-4.13928
  0
LINE
  8
0
 10
11.6291
 20
-4.13928
 11
11.4301
 21
-4.21927
  0
LINE
  8
0
 10
11.4301
 20
-4.21927
 11
11.2153
 21
-4.2764
  0
LINE
  8
0
 10
11.2153
 20
-4.2764
 11
10.9847
 21
-4.31067
  0
LINE
  8
0
 10
10.9847
 20
-4.31067
 11
10.7383
 21
-4.3221
  0
LINE
  8
0
 10
10.7383
 20
-4.3221
 11
10.4918
 21
-4.31067
  0
LINE
  8
0
 10
10.4918
 20
-4.31067
 11
10.2611
 21
-4.2764
  0
LINE
  8
0
 10
10.2611
 20
-4.2764
 11
10.0463
 21
-4.21927
  0
LINE
  8
0
 10
10.0463
 20
-4.21927
 11
9.84732
 21
-4.13928
  0
LINE
  8
0
 10
9.84732
 20
-4.13928
 11
9.66415
 21
-4.03644
  0
LINE
  8
0
 10
9.66415
 20
-4.03644
 11
9.49683
 21
-3.91074
  0
LINE
  8
0
 10
9.49683
 20
-3.91074
 11
9.34532
 21
-3.76219
  0
LINE
  8
0
 10
9.34532
 20
-3.76219
 11
9.21201
 21
-3.59349
  0
LINE
  8
0
 10
9.21201
 20
-3.59349
 11
9.09921
 21
-3.40733
  0
LINE
  8
0
 10
9.09921
 20
-3.40733
 11
9.00693
 21
-3.20374
  0
LINE
  8
0
 10
9.00693
 20
-3.20374
 11
8.93515
 21
-2.98268
  0
LINE
  8
0
 10
8.93515
 20
-2.98268
 11
8.88388
 21
-2.74417
  0
LINE
  8
0
 10
8.88388
 20
-2.74417
 11
8.85312
 21
-2.48822
  0
LINE
  8
0
 10
8.85312
 20
-2.48822
 11
8.84286
 21
-2.2148
  0
LINE
  8
0
 10
8.84286
 20
-2.2148
 11
8.84286
 21
6.74348
  0
LINE
  8
0
 10
8.84286
 20
6.74348
 11
6.24222
 21
6.74348
  0
LINE
  8
0
 10
6.24222
 20
6.74348
 11
6.24222
 21
-1.56233
  0
LINE
  8
0
 10
6.24222
 20
-1.56233
 11
6.26407
 21
-2.29834
  0
LINE
  8
0
 10
6.26407
 20
-2.29834
 11
6.32965
 21
-2.97462
  0
LINE
  8
0
 10
6.32965
 20
-2.97462
 11
6.43895
 21
-3.59116
  0
LINE
  8
0
 10
6.43895
 20
-3.59116
 11
6.59195
 21
-4.14795
  0
LINE
  8
0
 10
6.59195
 20
-4.14795
 11
6.78868
 21
-4.64499
  0
LINE
  8
0
 10
6.78868
 20
-4.64499
 11
7.02913
 21
-5.08229
  0
LINE
  8
0
 10
7.02913
 20
-5.08229
 11
7.31328
 21
-5.45987
  0
LINE
  8
0
 10
7.31328
 20
-5.45987
 11
7.64548
 21
-5.78268
  0
LINE
  8
0
 10
7.64548
 20
-5.78268
 11
8.03003
 21
-6.05585
  0
LINE
  8
0
 10
8.03003
 20
-6.05585
 11
8.46695
 21
-6.27934
  0
LINE
  8
0
 10
8.46695
 20
-6.27934
 11
8.95621
 21
-6.45317
  0
LINE
  8
0
 10
8.95621
 20
-6.45317
 11
9.49783
 21
-6.57733
  0
LINE
  8
0
 10
9.49783
 20
-6.57733
 11
10.0918
 21
-6.65182
  0
LINE
  8
0
 10
10.0918
 20
-6.65182
 11
10.7381
 21
-6.67667
  0
LINE
  8
0
 10
10.7381
 20
-6.67667
 11
11.3867
 21
-6.65182
  0
LINE
  8
0
 10
10.1325
 20
-6.15302
 11
9.58514
 21
-6.08437
  0
LINE
  8
0
 10
9.58514
 20
-6.08437
 11
9.09615
 21
-5.97227
  0
LINE
  8
0
 10
9.09615
 20
-5.97227
 11
8.66541
 21
-5.81923
  0
LINE
  8
0
 10
8.66541
 20
-5.81923
 11
8.28998
 21
-5.6272
  0
LINE
  8
0
 10
8.28998
 20
-5.6272
 11
7.96637
 21
-5.39732
  0
LINE
  8
0
 10
7.96637
 20
-5.39732
 11
7.68951
 21
-5.1283
  0
LINE
  8
0
 10
7.68951
 20
-5.1283
 11
7.45009
 21
-4.81015
  0
LINE
  8
0
 10
7.45009
 20
-4.81015
 11
7.24199
 21
-4.43167
  0
LINE
  8
0
 10
7.24199
 20
-4.43167
 11
7.06688
 21
-3.98924
  0
LINE
  8
0
 10
7.06688
 20
-3.98924
 11
6.92723
 21
-3.48103
  0
LINE
  8
0
 10
6.92723
 20
-3.48103
 11
6.82541
 21
-2.90674
  0
LINE
  8
0
 10
6.82541
 20
-2.90674
 11
6.76337
 21
-2.26685
  0
LINE
  8
0
 10
6.76337
 20
-2.26685
 11
6.74222
 21
-1.5547
  0
LINE
  8
0
 10
6.74222
 20
-1.5547
 11
6.74222
 21
6.24348
  0
LINE
  8
0
 10
6.74222
 20
6.24348
 11
8.34286
 21
6.24348
  0
LINE
  8
0
 10
8.34286
 20
6.24348
 11
8.34286
 21
-2.2148
  0
LINE
  8
0
 10
8.34286
 20
-2.2148
 11
8.34322
 21
-2.23354
  0
LINE
  8
0
 10
8.34322
 20
-2.23354
 11
8.35347
 21
-2.50696
  0
LINE
  8
0
 10
8.35347
 20
-2.50696
 11
8.35669
 21
-2.54788
  0
LINE
  8
0
 10
8.35669
 20
-2.54788
 11
8.38745
 21
-2.80383
  0
LINE
  8
0
 10
8.38745
 20
-2.80383
 11
8.39505
 21
-2.84924
  0
LINE
  8
0
 10
8.39505
 20
-2.84924
 11
8.44632
 21
-3.08775
  0
LINE
  8
0
 10
8.44632
 20
-3.08775
 11
8.45959
 21
-3.1371
  0
LINE
  8
0
 10
8.45959
 20
-3.1371
 11
8.53137
 21
-3.35815
  0
LINE
  8
0
 10
8.53137
 20
-3.35815
 11
8.55153
 21
-3.41016
  0
LINE
  8
0
 10
8.55153
 20
-3.41016
 11
8.64381
 21
-3.61375
  0
LINE
  8
0
 10
8.64381
 20
-3.61375
 11
8.67159
 21
-3.66643
  0
LINE
  8
0
 10
8.67159
 20
-3.66643
 11
8.78438
 21
-3.85258
  0
LINE
  8
0
 10
8.78438
 20
-3.85258
 11
8.81972
 21
-3.9035
  0
LINE
  8
0
 10
8.81972
 20
-3.9035
 11
8.95303
 21
-4.0722
  0
LINE
  8
0
 10
8.95303
 20
-4.0722
 11
8.99527
 21
-4.11922
  0
LINE
  8
0
 10
8.99527
 20
-4.11922
 11
9.14677
 21
-4.26776
  0
LINE
  8
0
 10
9.14677
 20
-4.26776
 11
9.19652
 21
-4.3105
  0
LINE
  8
0
 10
9.19652
 20
-4.3105
 11
9.36385
 21
-4.4362
  0
LINE
  8
0
 10
9.36385
 20
-4.4362
 11
9.41936
 21
-4.47241
  0
LINE
  8
0
 10
9.41936
 20
-4.47241
 11
9.60252
 21
-4.57526
  0
LINE
  8
0
 10
9.60252
 20
-4.57526
 11
9.66084
 21
-4.60321
  0
LINE
  8
0
 10
9.66084
 20
-4.60321
 11
9.85983
 21
-4.6832
  0
LINE
  8
0
 10
9.85983
 20
-4.6832
 11
9.91782
 21
-4.70247
  0
LINE
  8
0
 10
9.91782
 20
-4.70247
 11
10.1326
 21
-4.7596
  0
LINE
  8
0
 10
10.1326
 20
-4.7596
 11
10.1877
 21
-4.77097
  0
LINE
  8
0
 10
10.1877
 20
-4.77097
 11
10.4183
 21
-4.80524
  0
LINE
  8
0
 10
10.4183
 20
-4.80524
 11
10.4686
 21
-4.81013
  0
LINE
  8
0
 10
10.4686
 20
-4.81013
 11
10.7151
 21
-4.82156
  0
LINE
  8
0
 10
10.7151
 20
-4.82156
 11
10.7614
 21
-4.82156
  0
LINE
  8
0
 10
10.7614
 20
-4.82156
 11
11.0079
 21
-4.81013
  0
LINE
  8
0
 10
11.0079
 20
-4.81013
 11
11.0582
 21
-4.80524
  0
LINE
  8
0
 10
11.0582
 20
-4.80524
 11
11.2888
 21
-4.77097
  0
LINE
  8
0
 10
11.2888
 20
-4.77097
 11
11.3438
 21
-4.7596
  0
LINE
  8
0
 10
11.3438
 20
-4.7596
 11
11.5586
 21
-4.70247
  0
LINE
  8
0
 10
11.5586
 20
-4.70247
 11
11.6166
 21
-4.68318
  0
LINE
  8
0
 10
11.6166
 20
-4.68318
 11
11.8156
 21
-4.6032
  0
LINE
  8
0
 10
11.8156
 20
-4.6032
 11
11.8739
 21
-4.57524
  0
LINE
  8
0
 10
11.8739
 20
-4.57524
 11
12.057
 21
-4.4724
  0
LINE
  8
0
 10
12.057
 20
-4.4724
 11
12.1125
 21
-4.43617
  0
LINE
  8
0
 10
12.1125
 20
-4.43617
 11
12.2798
 21
-4.31047
  0
LINE
  8
0
 10
12.2798
 20
-4.31047
 11
12.3296
 21
-4.26773
  0
LINE
  8
0
 10
12.3296
 20
-4.26773
 11
12.481
 21
-4.11919
  0
LINE
  8
0
 10
12.481
 20
-4.11919
 11
12.5232
 21
-4.07225
  0
LINE
  8
0
 10
12.5232
 20
-4.07225
 11
12.6566
 21
-3.90355
  0
LINE
  8
0
 10
12.6566
 20
-3.90355
 11
12.6919
 21
-3.85265
  0
LINE
  8
0
 10
12.6919
 20
-3.85265
 11
12.8047
 21
-3.66649
  0
LINE
  8
0
 10
12.8047
 20
-3.66649
 11
12.8325
 21
-3.61378
  0
LINE
  8
0
 10
12.8325
 20
-3.61378
 11
12.9248
 21
-3.41019
  0
LINE
  8
0
 10
12.9248
 20
-3.41019
 11
12.945
 21
-3.35822
  0
LINE
  8
0
 10
12.945
 20
-3.35822
 11
13.0168
 21
-3.13716
  0
LINE
  8
0
 10
13.0168
 20
-3.13716
 11
13.0301
 21
-3.08778
  0
LINE
  8
0
 10
13.0301
 20
-3.08778
 11
13.0813
 21
-2.84927
  0
LINE
  8
0
 10
13.0813
 20
-2.84927
 11
13.0889
 21
-2.80383
  0
LINE
  8
0
 10
13.0889
 20
-2.80383
 11
13.1197
 21
-2.54788
  0
LINE
  8
0
 10
13.1197
 20
-2.54788
 11
13.1229
 21
-2.50696
  0
LINE
  8
0
 10
13.1229
 20
-2.50696
 11
13.1332
 21
-2.23354
  0
LINE
  8
0
 10
13.1332
 20
-2.23354
 11
13.1335
 21
-2.2148
  0
LINE
  8
0
 10
13.1335
 20
-2.2148
 11
13.1335
 21
6.24348
  0
LINE
  8
0
 10
13.1335
 20
6.24348
 11
14.7342
 21
6.24348
  0
LINE
  8
0
 10
14.7342
 20
6.24348
 11
14.7342
 21
-1.55476
  0
LINE
  8
0
 10
14.7342
 20
-1.55476
 11
14.7131
 21
-2.26701
  0
LINE
  8
0
 10
14.7131
 20
-2.26701
 11
14.6513
 21
-2.90697
  0
LINE
  8
0
 10
14.6513
 20
-2.90697
 11
14.5499
 21
-3.48152
  0
LINE
  8
0
 10
14.5499
 20
-3.48152
 11
14.4108
 21
-3.98975
  0
LINE
  8
0
 10
14.4108
 20
-3.98975
 11
14.2363
 21
-4.4324
  0
LINE
  8
0
 10
14.2363
 20
-4.4324
 11
14.029
 21
-4.81085
  0
LINE
  8
0
 10
14.029
 20
-4.81085
 11
13.7906
 21
-5.12895
  0
LINE
  8
0
 10
13.7906
 20
-5.12895
 11
13.5149
 21
-5.39766
  0
LINE
  8
0
 10
13.5149
 20
-5.39766
 11
13.1921
 21
-5.62723
  0
LINE
  8
0
 10
13.1921
 20
-5.62723
 11
12.8168
 21
-5.81914
  0
LINE
  8
0
 10
12.8168
 20
-5.81914
 11
12.3853
 21
-5.97224
  0
LINE
  8
0
 10
12.3853
 20
-5.97224
 11
11.8954
 21
-6.0843
  0
LINE
  8
0
 10
11.8954
 20
-6.0843
 11
11.346
 21
-6.15302
  0
LINE
  8
0
 10
11.346
 20
-6.15302
 11
10.7382
 21
-6.1763
  0
LINE
  8
0
 10
10.7382
 20
-6.1763
 11
10.1325
 21
-6.15302
  0
LINE
  8
0
 10
-12.115
 20
-0.561462
 11
-8.862
 21
-0.561462
  0
LINE
  8
0
 10
-8.862
 20
-0.561462
 11
-8.862
 21
-6.41875
  0
LINE
  8
0
 10
-8.862
 20
-6.41875
 11
-6.26135
 21
-6.41875
  0
LINE
  8
0
 10
-6.26135
 20
-6.41875
 11
-6.26135
 21
6.74348
  0
LINE
  8
0
 10
-6.26135
 20
6.74348
 11
-8.862
 21
6.74348
  0
LINE
  8
0
 10
-8.862
 20
6.74348
 11
-8.862
 21
1.72652
  0
LINE
  8
0
 10
-8.862
 20
1.72652
 11
-12.115
 21
1.72652
  0
LINE
  8
0
 10
-12.115
 20
1.72652
 11
-12.115
 21
6.74348
  0
LINE
  8
0
 10
-12.115
 20
6.74348
 11
-14.7156
 21
6.74348
  0
LINE
  8
0
 10
-14.7156
 20
6.74348
 11
-14.7156
 21
-6.41875
  0
LINE
  8
0
 10
-14.7156
 20
-6.41875
 11
-12.115
 21
-6.41875
  0
LINE
  8
0
 10
-12.115
 20
-6.41875
 11
-12.115
 21
-0.561462
  0
LINE
  8
0
 10
-14.2156
 20
-5.91875
 11
-14.2156
 21
6.24348
  0
LINE
  8
0
 10
-14.2156
 20
6.24348
 11
-12.615
 21
6.24348
  0
LINE
  8
0
 10
-12.615
 20
6.24348
 11
-12.615
 21
1.72652
  0
LINE
  8
0
 10
-12.615
 20
1.72652
 11
-12.6061
 21
1.63283
  0
LINE
  8
0
 10
-12.6061
 20
1.63283
 11
-12.5905
 21
1.57201
  0
LINE
  8
0
 10
-12.5905
 20
1.57201
 11
-12.5674
 21
1.51363
  0
LINE
  8
0
 10
-12.5674
 20
1.51363
 11
-12.5372
 21
1.4586
  0
LINE
  8
0
 10
-12.5372
 20
1.4586
 11
-12.5002
 21
1.40781
  0
LINE
  8
0
 10
-12.5002
 20
1.40781
 11
-12.4573
 21
1.36203
  0
LINE
  8
0
 10
-12.4573
 20
1.36203
 11
-12.4089
 21
1.32201
  0
LINE
  8
0
 10
-12.4089
 20
1.32201
 11
-12.3559
 21
1.28836
  0
LINE
  8
0
 10
-12.3559
 20
1.28836
 11
-12.2991
 21
1.26163
  0
LINE
  8
0
 10
-12.2991
 20
1.26163
 11
-12.2393
 21
1.24222
  0
LINE
  8
0
 10
-12.2393
 20
1.24222
 11
-12.1777
 21
1.23045
  0
LINE
  8
0
 10
-12.1777
 20
1.23045
 11
-12.115
 21
1.22652
  0
LINE
  8
0
 10
-12.115
 20
1.22652
 11
-8.862
 21
1.22652
  0
LINE
  8
0
 10
-8.862
 20
1.22652
 11
-8.76831
 21
1.23537
  0
LINE
  8
0
 10
-8.76831
 20
1.23537
 11
-8.70749
 21
1.25099
  0
LINE
  8
0
 10
-8.70749
 20
1.25099
 11
-8.64911
 21
1.27411
  0
LINE
  8
0
 10
-8.64911
 20
1.27411
 11
-8.59409
 21
1.30435
  0
LINE
  8
0
 10
-8.59409
 20
1.30435
 11
-8.54329
 21
1.34126
  0
LINE
  8
0
 10
-8.54329
 20
1.34126
 11
-8.49751
 21
1.38425
  0
LINE
  8
0
 10
-8.49751
 20
1.38425
 11
-8.45749
 21
1.43262
  0
LINE
  8
0
 10
-8.45749
 20
1.43262
 11
-8.42384
 21
1.48564
  0
LINE
  8
0
 10
-8.42384
 20
1.48564
 11
-8.39711
 21
1.54245
  0
LINE
  8
0
 10
-8.39711
 20
1.54245
 11
-8.3777
 21
1.60217
  0
LINE
  8
0
 10
-8.3777
 20
1.60217
 11
-8.36594
 21
1.66385
  0
LINE
  8
0
 10
-8.36594
 20
1.66385
 11
-8.362
 21
1.72652
  0
LINE
  8
0
 10
-8.362
 20
1.72652
 11
-8.362
 21
6.24348
  0
LINE
  8
0
 10
-8.362
 20
6.24348
 11
-6.76135
 21
6.24348
  0
LINE
  8
0
 10
-6.76135
 20
6.24348
 11
-6.76135
 21
-5.91875
  0
LINE
  8
0
 10
-6.76135
 20
-5.91875
 11
-8.362
 21
-5.91875
  0
LINE
  8
0
 10
-8.362
 20
-5.91875
 11
-8.362
 21
-0.561462
  0
LINE
  8
0
 10
-8.362
 20
-0.561462
 11
-8.37085
 21
-0.467773
  0
LINE
  8
0
 10
-8.37085
 20
-0.467773
 11
-8.38647
 21
-0.406952
  0
LINE
  8
0
 10
-8.38647
 20
-0.406952
 11
-8.40959
 21
-0.348572
  0
LINE
  8
0
 10
-8.40959
 20
-0.348572
 11
-8.43983
 21
-0.293549
  0
LINE
  8
0
 10
-8.43983
 20
-0.293549
 11
-8.47675
 21
-0.242752
  0
LINE
  8
0
 10
-8.47675
 20
-0.242752
 11
-8.51973
 21
-0.196976
  0
LINE
  8
0
 10
-8.51973
 20
-0.196976
 11
-8.5681
 21
-0.156952
  0
LINE
  8
0
 10
-8.5681
 20
-0.156952
 11
-8.62112
 21
-0.123306
  0
LINE
  8
0
 10
-8.62112
 20
-0.123306
 11
-8.67793
 21
-0.0965729
  0
LINE
  8
0
 10
-8.67793
 20
-0.0965729
 11
-8.73766
 21
-0.0771637
  0
LINE
  8
0
 10
-8.73766
 20
-0.0771637
 11
-8.79933
 21
-0.0653992
  0
LINE
  8
0
 10
-8.79933
 20
-0.0653992
 11
-8.862
 21
-0.0614624
  0
LINE
  8
0
 10
-8.862
 20
-0.0614624
 11
-12.115
 21
-0.0614624
  0
LINE
  8
0
 10
-12.115
 20
-0.0614624
 11
-12.2087
 21
-0.0703125
  0
LINE
  8
0
 10
-12.2087
 20
-0.0703125
 11
-12.2695
 21
-0.0859375
  0
LINE
  8
0
 10
-12.2695
 20
-0.0859375
 11
-12.3279
 21
-0.109055
  0
LINE
  8
0
 10
-12.3279
 20
-0.109055
 11
-12.3829
 21
-0.139297
  0
LINE
  8
0
 10
-12.3829
 20
-0.139297
 11
-12.4337
 21
-0.176208
  0
LINE
  8
0
 10
-12.4337
 20
-0.176208
 11
-12.4795
 21
-0.219193
  0
LINE
  8
0
 10
-12.4795
 20
-0.219193
 11
-12.5195
 21
-0.267563
  0
LINE
  8
0
 10
-12.5195
 20
-0.267563
 11
-12.5531
 21
-0.320587
  0
LINE
  8
0
 10
-12.5531
 20
-0.320587
 11
-12.5799
 21
-0.377396
  0
LINE
  8
0
 10
-12.5799
 20
-0.377396
 11
-12.5993
 21
-0.437119
  0
LINE
  8
0
 10
-12.5993
 20
-0.437119
 11
-12.6111
 21
-0.498795
  0
LINE
  8
0
 10
-12.6111
 20
-0.498795
 11
-12.615
 21
-0.561462
  0
LINE
  8
0
 10
-12.615
 20
-0.561462
 11
-12.615
 21
-5.91875
  0
LINE
  8
0
 10
-12.615
 20
-5.91875
 11
-14.2156
 21
-5.91875
  0
LINE
  8
0
 10
19.2645
 20
3.14651
 11
22.9494
 21
-6.41875
  0
LINE
  8
0
 10
22.9494
 20
-6.41875
 11
25.7264
 21
-6.41875
  0
LINE
  8
0
 10
25.7264
 20
-6.41875
 11
25.7264
 21
6.74348
  0
LINE
  8
0
 10
25.7264
 20
6.74348
 11
23.4342
 21
6.74348
  0
LINE
  8
0
 10
23.4342
 20
6.74348
 11
23.4342
 21
-2.82178
  0
LINE
  8
0
 10
23.4342
 20
-2.82178
 11
19.7669
 21
6.74348
  0
LINE
  8
0
 10
19.7669
 20
6.74348
 11
16.9724
 21
6.74348
  0
LINE
  8
0
 10
16.9724
 20
6.74348
 11
16.9724
 21
-6.41875
  0
LINE
  8
0
 10
16.9724
 20
-6.41875
 11
19.2645
 21
-6.41875
  0
LINE
  8
0
 10
19.2645
 20
-6.41875
 11
19.2645
 21
3.14651
  0
LINE
  8
0
 10
17.4724
 20
-5.91875
 11
17.4724
 21
6.24348
  0
LINE
  8
0
 10
17.4724
 20
6.24348
 11
19.4231
 21
6.24348
  0
LINE
  8
0
 10
19.4231
 20
6.24348
 11
22.9674
 21
-3.00078
  0
LINE
  8
0
 10
22.9674
 20
-3.00078
 11
22.9961
 21
-3.06265
  0
LINE
  8
0
 10
22.9961
 20
-3.06265
 11
23.0297
 21
-3.11568
  0
LINE
  8
0
 10
23.0297
 20
-3.11568
 11
23.0697
 21
-3.16405
  0
LINE
  8
0
 10
23.0697
 20
-3.16405
 11
23.1155
 21
-3.20703
  0
LINE
  8
0
 10
23.1155
 20
-3.20703
 11
23.1663
 21
-3.24394
  0
LINE
  8
0
 10
23.1663
 20
-3.24394
 11
23.2213
 21
-3.27419
  0
LINE
  8
0
 10
23.2213
 20
-3.27419
 11
23.2797
 21
-3.2973
  0
LINE
  8
0
 10
23.2797
 20
-3.2973
 11
23.3405
 21
-3.31293
  0
LINE
  8
0
 10
23.3405
 20
-3.31293
 11
23.4028
 21
-3.32079
  0
LINE
  8
0
 10
23.4028
 20
-3.32079
 11
23.4656
 21
-3.32079
  0
LINE
  8
0
 10
23.4656
 20
-3.32079
 11
23.5279
 21
-3.31293
  0
LINE
  8
0
 10
23.5279
 20
-3.31293
 11
23.5887
 21
-3.2973
  0
LINE
  8
0
 10
23.5887
 20
-3.2973
 11
23.6471
 21
-3.27419
  0
LINE
  8
0
 10
23.6471
 20
-3.27419
 11
23.7021
 21
-3.24394
  0
LINE
  8
0
 10
23.7021
 20
-3.24394
 11
23.7529
 21
-3.20703
  0
LINE
  8
0
 10
23.7529
 20
-3.20703
 11
23.7987
 21
-3.16405
  0
LINE
  8
0
 10
23.7987
 20
-3.16405
 11
23.8387
 21
-3.11568
  0
LINE
  8
0
 10
23.8387
 20
-3.11568
 11
23.8724
 21
-3.06265
  0
LINE
  8
0
 10
23.8724
 20
-3.06265
 11
23.8991
 21
-3.00584
  0
LINE
  8
0
 10
23.8991
 20
-3.00584
 11
23.9185
 21
-2.94612
  0
LINE
  8
0
 10
23.9185
 20
-2.94612
 11
23.9303
 21
-2.88445
  0
LINE
  8
0
 10
23.9303
 20
-2.88445
 11
23.9342
 21
-2.82178
  0
LINE
  8
0
 10
23.9342
 20
-2.82178
 11
23.9342
 21
6.24348
  0
LINE
  8
0
 10
23.9342
 20
6.24348
 11
25.2264
 21
6.24348
  0
LINE
  8
0
 10
25.2264
 20
6.24348
 11
25.2264
 21
-5.91875
  0
LINE
  8
0
 10
25.2264
 20
-5.91875
 11
23.2926
 21
-5.91875
  0
LINE
  8
0
 10
23.2926
 20
-5.91875
 11
19.731
 21
3.32626
  0
LINE
  8
0
 10
19.731
 20
3.32626
 11
19.7026
 21
3.38739
  0
LINE
  8
0
 10
19.7026
 20
3.38739
 11
19.669
 21
3.44041
  0
LINE
  8
0
 10
19.669
 20
3.44041
 11
19.629
 21
3.48878
  0
LINE
  8
0
 10
19.629
 20
3.48878
 11
19.5832
 21
3.53177
  0
LINE
  8
0
 10
19.5832
 20
3.53177
 11
19.5324
 21
3.56868
  0
LINE
  8
0
 10
19.5324
 20
3.56868
 11
19.4774
 21
3.59892
  0
LINE
  8
0
 10
19.4774
 20
3.59892
 11
19.419
 21
3.62204
  0
LINE
  8
0
 10
19.419
 20
3.62204
 11
19.3582
 21
3.63766
  0
LINE
  8
0
 10
19.3582
 20
3.63766
 11
19.2959
 21
3.64552
  0
LINE
  8
0
 10
19.2959
 20
3.64552
 11
19.2331
 21
3.64552
  0
LINE
  8
0
 10
19.2331
 20
3.64552
 11
19.1708
 21
3.63766
  0
LINE
  8
0
 10
19.1708
 20
3.63766
 11
19.11
 21
3.62204
  0
LINE
  8
0
 10
19.11
 20
3.62204
 11
19.0516
 21
3.59892
  0
LINE
  8
0
 10
19.0516
 20
3.59892
 11
18.9966
 21
3.56868
  0
LINE
  8
0
 10
18.9966
 20
3.56868
 11
18.9458
 21
3.53177
  0
LINE
  8
0
 10
18.9458
 20
3.53177
 11
18.9
 21
3.48878
  0
LINE
  8
0
 10
18.9
 20
3.48878
 11
18.86
 21
3.44041
  0
LINE
  8
0
 10
18.86
 20
3.44041
 11
18.8263
 21
3.38739
  0
LINE
  8
0
 10
18.8263
 20
3.38739
 11
18.7996
 21
3.33058
  0
LINE
  8
0
 10
18.7996
 20
3.33058
 11
18.7802
 21
3.27086
  0
LINE
  8
0
 10
18.7802
 20
3.27086
 11
18.7684
 21
3.20918
  0
LINE
  8
0
 10
18.7684
 20
3.20918
 11
18.7645
 21
3.14651
  0
LINE
  8
0
 10
18.7645
 20
3.14651
 11
18.7645
 21
-5.91875
  0
LINE
  8
0
 10
18.7645
 20
-5.91875
 11
17.4724
 21
-5.91875
  0
LINE
  8
0
 10
-1.6228
 20
-3.16562
 11
1.85938
 21
-3.16562
  0
LINE
  8
0
 10
1.85938
 20
-3.16562
 11
2.6703
 21
-6.41875
  0
LINE
  8
0
 10
2.6703
 20
-6.41875
 11
5.27097
 21
-6.41875
  0
LINE
  8
0
 10
5.27097
 20
-6.41875
 11
1.71832
 21
6.74348
  0
LINE
  8
0
 10
1.71832
 20
6.74348
 11
-1.4642
 21
6.74348
  0
LINE
  8
0
 10
-1.4642
 20
6.74348
 11
-5.01683
 21
-6.41875
  0
LINE
  8
0
 10
-5.01683
 20
-6.41875
 11
-2.41618
 21
-6.41875
  0
LINE
  8
0
 10
-2.41618
 20
-6.41875
 11
-1.6228
 21
-3.16562
  0
LINE
  8
0
 10
-4.36398
 20
-5.91875
 11
-1.08127
 21
6.24348
  0
LINE
  8
0
 10
-1.08127
 20
6.24348
 11
1.33539
 21
6.24348
  0
LINE
  8
0
 10
1.33539
 20
6.24348
 11
4.61812
 21
-5.91875
  0
LINE
  8
0
 10
4.61812
 20
-5.91875
 11
3.06096
 21
-5.91875
  0
LINE
  8
0
 10
3.06096
 20
-5.91875
 11
2.34453
 21
-3.04468
  0
LINE
  8
0
 10
2.34453
 20
-3.04468
 11
2.3349
 21
-3.01111
  0
LINE
  8
0
 10
2.3349
 20
-3.01111
 11
2.31178
 21
-2.95273
  0
LINE
  8
0
 10
2.31178
 20
-2.95273
 11
2.28154
 21
-2.89771
  0
LINE
  8
0
 10
2.28154
 20
-2.89771
 11
2.24463
 21
-2.84691
  0
LINE
  8
0
 10
2.24463
 20
-2.84691
 11
2.20164
 21
-2.80113
  0
LINE
  8
0
 10
2.20164
 20
-2.80113
 11
2.15327
 21
-2.76111
  0
LINE
  8
0
 10
2.15327
 20
-2.76111
 11
2.10025
 21
-2.72746
  0
LINE
  8
0
 10
2.10025
 20
-2.72746
 11
2.04344
 21
-2.70073
  0
LINE
  8
0
 10
2.04344
 20
-2.70073
 11
1.98372
 21
-2.68132
  0
LINE
  8
0
 10
1.98372
 20
-2.68132
 11
1.92204
 21
-2.66956
  0
LINE
  8
0
 10
1.92204
 20
-2.66956
 11
1.85938
 21
-2.66562
  0
LINE
  8
0
 10
1.85938
 20
-2.66562
 11
-1.6228
 21
-2.66562
  0
LINE
  8
0
 10
-1.6228
 20
-2.66562
 11
-1.66025
 21
-2.66702
  0
LINE
  8
0
 10
-1.66025
 20
-2.66702
 11
-1.72244
 21
-2.67564
  0
LINE
  8
0
 10
-1.72244
 20
-2.67564
 11
-1.78307
 21
-2.692
  0
LINE
  8
0
 10
-1.78307
 20
-2.692
 11
-1.84116
 21
-2.71582
  0
LINE
  8
0
 10
-1.84116
 20
-2.71582
 11
-1.89581
 21
-2.74673
  0
LINE
  8
0
 10
-1.89581
 20
-2.74673
 11
-1.94615
 21
-2.78426
  0
LINE
  8
0
 10
-1.94615
 20
-2.78426
 11
-1.99141
 21
-2.82779
  0
LINE
  8
0
 10
-1.99141
 20
-2.82779
 11
-2.03084
 21
-2.87665
  0
LINE
  8
0
 10
-2.03084
 20
-2.87665
 11
-2.06384
 21
-2.93007
  0
LINE
  8
0
 10
-2.06384
 20
-2.93007
 11
-2.08989
 21
-2.9872
  0
LINE
  8
0
 10
-2.08989
 20
-2.9872
 11
-2.10857
 21
-3.04715
  0
LINE
  8
0
 10
-2.10857
 20
-3.04715
 11
-2.8089
 21
-5.91875
  0
LINE
  8
0
 10
-2.8089
 20
-5.91875
 11
-4.36398
 21
-5.91875
  0
LINE
  8
0
 10
1.43758
 20
-1.52081
 11
1.49878
 21
-1.50681
  0
LINE
  8
0
 10
1.49878
 20
-1.50681
 11
1.55775
 21
-1.48523
  0
LINE
  8
0
 10
1.55775
 20
-1.48523
 11
1.61356
 21
-1.45644
  0
LINE
  8
0
 10
1.61356
 20
-1.45644
 11
1.6653
 21
-1.42087
  0
LINE
  8
0
 10
1.6653
 20
-1.42087
 11
1.71219
 21
-1.3791
  0
LINE
  8
0
 10
1.71219
 20
-1.3791
 11
1.75346
 21
-1.33179
  0
LINE
  8
0
 10
1.75346
 20
-1.33179
 11
1.78848
 21
-1.27966
  0
LINE
  8
0
 10
1.78848
 20
-1.27966
 11
1.8167
 21
-1.22357
  0
LINE
  8
0
 10
1.8167
 20
-1.22357
 11
1.83766
 21
-1.16438
  0
LINE
  8
0
 10
1.83766
 20
-1.16438
 11
1.85104
 21
-1.10304
  0
LINE
  8
0
 10
1.85104
 20
-1.10304
 11
1.85663
 21
-1.0405
  0
LINE
  8
0
 10
1.85663
 20
-1.0405
 11
1.85432
 21
-0.977753
  0
LINE
  8
0
 10
1.85432
 20
-0.977753
 11
1.84418
 21
-0.915787
  0
LINE
  8
0
 10
1.84418
 20
-0.915787
 11
0.610077
 21
4.47348
  0
LINE
  8
0
 10
0.610077
 20
4.47348
 11
0.582291
 21
4.55878
  0
LINE
  8
0
 10
0.582291
 20
4.55878
 11
0.554001
 21
4.61482
  0
LINE
  8
0
 10
0.554001
 20
4.61482
 11
0.51889
 21
4.66689
  0
LINE
  8
0
 10
0.51889
 20
4.66689
 11
0.477539
 21
4.71414
  0
LINE
  8
0
 10
0.477539
 20
4.71414
 11
0.430588
 21
4.75583
  0
LINE
  8
0
 10
0.430588
 20
4.75583
 11
0.378784
 21
4.79132
  0
LINE
  8
0
 10
0.378784
 20
4.79132
 11
0.322952
 21
4.82002
  0
LINE
  8
0
 10
0.322952
 20
4.82002
 11
0.263947
 21
4.84151
  0
LINE
  8
0
 10
0.263947
 20
4.84151
 11
0.202713
 21
4.85544
  0
LINE
  8
0
 10
0.202713
 20
4.85544
 11
0.140228
 21
4.86157
  0
LINE
  8
0
 10
0.140228
 20
4.86157
 11
0.0774689
 21
4.85983
  0
LINE
  8
0
 10
0.0774689
 20
4.85983
 11
0.0154114
 21
4.85023
  0
LINE
  8
0
 10
0.0154114
 20
4.85023
 11
-0.0449524
 21
4.83293
  0
LINE
  8
0
 10
-0.0449524
 20
4.83293
 11
-0.102661
 21
4.80821
  0
LINE
  8
0
 10
-0.102661
 20
4.80821
 11
-0.15683
 21
4.77644
  0
LINE
  8
0
 10
-0.15683
 20
4.77644
 11
-0.206589
 21
4.73814
  0
LINE
  8
0
 10
-0.206589
 20
4.73814
 11
-0.251144
 21
4.69391
  0
LINE
  8
0
 10
-0.251144
 20
4.69391
 11
-0.28981
 21
4.64442
  0
LINE
  8
0
 10
-0.28981
 20
4.64442
 11
-0.321976
 21
4.5905
  0
LINE
  8
0
 10
-0.321976
 20
4.5905
 11
-0.347122
 21
4.53296
  0
LINE
  8
0
 10
-0.347122
 20
4.53296
 11
-0.364853
 21
4.47273
  0
LINE
  8
0
 10
-0.364853
 20
4.47273
 11
-1.59021
 21
-0.916534
  0
LINE
  8
0
 10
-1.59021
 20
-0.916534
 11
-1.60167
 21
-0.995987
  0
LINE
  8
0
 10
-1.60167
 20
-0.995987
 11
-1.60167
 21
-1.05879
  0
LINE
  8
0
 10
-1.60167
 20
-1.05879
 11
-1.59381
 21
-1.12108
  0
LINE
  8
0
 10
-1.59381
 20
-1.12108
 11
-1.57819
 21
-1.1819
  0
LINE
  8
0
 10
-1.57819
 20
-1.1819
 11
-1.55507
 21
-1.24028
  0
LINE
  8
0
 10
-1.55507
 20
-1.24028
 11
-1.52483
 21
-1.2953
  0
LINE
  8
0
 10
-1.52483
 20
-1.2953
 11
-1.48792
 21
-1.3461
  0
LINE
  8
0
 10
-1.48792
 20
-1.3461
 11
-1.44493
 21
-1.39188
  0
LINE
  8
0
 10
-1.44493
 20
-1.39188
 11
-1.39656
 21
-1.4319
  0
LINE
  8
0
 10
-1.39656
 20
-1.4319
 11
-1.34354
 21
-1.46555
  0
LINE
  8
0
 10
-1.34354
 20
-1.46555
 11
-1.28673
 21
-1.49228
  0
LINE
  8
0
 10
-1.28673
 20
-1.49228
 11
-1.22701
 21
-1.51169
  0
LINE
  8
0
 10
-1.22701
 20
-1.51169
 11
-1.16533
 21
-1.52345
  0
LINE
  8
0
 10
-1.16533
 20
-1.52345
 11
-1.10266
 21
-1.52739
  0
LINE
  8
0
 10
-1.10266
 20
-1.52739
 11
1.3568
 21
-1.52739
  0
LINE
  8
0
 10
1.3568
 20
-1.52739
 11
1.43758
 21
-1.52081
  0
LINE
  8
0
 10
-1.10266
 20
-1.02739
 11
0.122696
 21
4.36188
  0
LINE
  8
0
 10
0.122696
 20
4.36188
 11
1.3568
 21
-1.02739
  0
LINE
  8
0
 10
1.3568
 20
-1.02739
 11
-1.10266
 21
-1.02739
  0
ENDSEC
  0
SECTION
  2
OBJECTS
  0
DICTIONARY
  0
ENDSEC
  0
EOF
