<?xml version="1.0" standalone="no"?>
<!DOCTYPE svg PUBLIC "-//W3C//DTD SVG 1.1//EN" "http://www.w3.org/Graphics/SVG/1.1/DTD/svg11.dtd">
<svg width="52mm" height="36mm" viewBox="-26 -18 52 36" xmlns="http://www.w3.org/2000/svg" version="1.1">
<title>OpenSCAD Model</title>
<path d="
M -19.5206,-3.82657 L -19.3109,-3.83624 L -19.104,-3.85237 L -18.9,-3.87495 L -18.6988,-3.90399 L -18.5006,-3.93948
 L -18.3052,-3.98141 L -18.1125,-4.02982 L -17.9223,-4.08466 L -17.7347,-4.14595 L -17.5495,-4.2137 L -17.3669,-4.2879
 L -17.1868,-4.36855 L -17.0093,-4.45566 L -17.0093,-7.35101 L -17.1999,-7.18152 L -17.3889,-7.0255 L -17.5763,-6.88297
 L -17.7621,-6.75391 L -17.9462,-6.63834 L -18.1287,-6.53625 L -18.3096,-6.44765 L -18.4905,-6.37167 L -18.673,-6.30737
 L -18.8572,-6.25478 L -19.0429,-6.21387 L -19.2303,-6.18463 L -19.4193,-6.1671 L -19.6099,-6.16125 L -20.0036,-6.18439
 L -20.3687,-6.25375 L -20.7052,-6.36937 L -21.0132,-6.53125 L -21.2925,-6.73936 L -21.5432,-6.99373 L -21.7653,-7.29434
 L -21.9582,-7.64034 L -22.1215,-8.03078 L -22.2551,-8.46565 L -22.359,-8.94499 L -22.4332,-9.46877 L -22.4777,-10.037
 L -22.4925,-10.6496 L -22.4777,-11.2646 L -22.4332,-11.8348 L -22.359,-12.3602 L -22.2551,-12.8408 L -22.1215,-13.2765
 L -21.9582,-13.6675 L -21.7653,-14.0136 L -21.5432,-14.3143 L -21.2925,-14.5687 L -21.0132,-14.7768 L -20.7052,-14.9387
 L -20.3687,-15.0543 L -20.0036,-15.1237 L -19.6099,-15.1468 L -19.4193,-15.141 L -19.2303,-15.1235 L -19.0429,-15.0942
 L -18.8572,-15.0533 L -18.673,-15.0007 L -18.4905,-14.9363 L -18.3096,-14.8603 L -18.1287,-14.7718 L -17.9462,-14.6697
 L -17.7621,-14.5542 L -17.5763,-14.4251 L -17.3889,-14.2826 L -17.1999,-14.1266 L -17.0093,-13.9571 L -17.0093,-16.8524
 L -17.1823,-16.9395 L -17.359,-17.0202 L -17.5393,-17.0944 L -17.7231,-17.1622 L -17.9106,-17.2234 L -18.1017,-17.2783
 L -18.2964,-17.3267 L -18.4941,-17.3686 L -18.6943,-17.4041 L -18.8971,-17.4332 L -19.1023,-17.4557 L -19.3101,-17.4719
 L -19.5204,-17.4815 L -19.7333,-17.4848 L -20.4682,-17.4489 L -21.1517,-17.3415 L -21.7837,-17.1624 L -22.3642,-16.9117
 L -22.8934,-16.5893 L -23.371,-16.1953 L -23.7972,-15.7296 L -24.1691,-15.1962 L -24.4837,-14.5986 L -24.7412,-13.937
 L -24.9414,-13.2113 L -25.0844,-12.4215 L -25.1703,-11.5676 L -25.1989,-10.6496 L -25.1703,-9.73402 L -25.0844,-8.88211
 L -24.9414,-8.09393 L -24.7412,-7.36946 L -24.4837,-6.70869 L -24.1691,-6.11166 L -23.7972,-5.57834 L -23.371,-5.11273
 L -22.8934,-4.71875 L -22.3642,-4.39639 L -21.7837,-4.14569 L -21.1517,-3.9666 L -20.4682,-3.85916 L -19.7333,-3.82333
 z
M -20.417,-4.35725 L -21.0443,-4.45587 L -21.6157,-4.61778 L -22.1339,-4.84155 L -22.6028,-5.12721 L -23.0258,-5.47615
 L -23.406,-5.89151 L -23.7412,-6.37224 L -24.0282,-6.91669 L -24.266,-7.52713 L -24.4535,-8.20554 L -24.5889,-8.95181
 L -24.671,-9.76692 L -24.6986,-10.6496 L -24.671,-11.5347 L -24.5889,-12.3518 L -24.4534,-13.1 L -24.2659,-13.7795
 L -24.0281,-14.3908 L -23.7411,-14.9357 L -23.406,-15.4165 L -23.0258,-15.8318 L -22.6027,-16.1809 L -22.1339,-16.4665
 L -21.6156,-16.6903 L -21.0443,-16.8522 L -20.4171,-16.9508 L -19.7249,-16.9846 L -19.5357,-16.9817 L -19.3413,-16.9728
 L -19.1487,-16.9578 L -18.96,-16.9371 L -18.7734,-16.9103 L -18.5899,-16.8778 L -18.4085,-16.8393 L -18.2307,-16.7952
 L -18.0576,-16.7455 L -17.8869,-16.6897 L -17.7211,-16.6285 L -17.558,-16.5614 L -17.5093,-16.5392 L -17.5093,-14.9858
 L -17.6805,-15.0932 L -17.7022,-15.1061 L -17.8847,-15.2082 L -17.9089,-15.2208 L -18.0898,-15.3094 L -18.1159,-15.3213
 L -18.2968,-15.3973 L -18.3243,-15.4079 L -18.5069,-15.4722 L -18.5356,-15.4814 L -18.7198,-15.534 L -18.7495,-15.5416
 L -18.9353,-15.5825 L -18.9658,-15.5882 L -19.1532,-15.6175 L -19.1841,-15.6213 L -19.3731,-15.6389 L -19.404,-15.6408
 L -19.5946,-15.6466 L -19.6392,-15.646 L -20.0329,-15.6229 L -20.097,-15.6149 L -20.4621,-15.5455 L -20.5312,-15.5272
 L -20.8677,-15.4116 L -20.9379,-15.3813 L -21.2458,-15.2194 L -21.3119,-15.1777 L -21.5912,-14.9696 L -21.6486,-14.9196
 L -21.8993,-14.6653 L -21.9454,-14.6114 L -22.1675,-14.3107 L -22.202,-14.2571 L -22.395,-13.9109 L -22.4196,-13.8602
 L -22.5829,-13.4692 L -22.5995,-13.4231 L -22.7331,-12.9873 L -22.7438,-12.9464 L -22.8477,-12.4659 L -22.854,-12.4301
 L -22.9283,-11.9048 L -22.9317,-11.8737 L -22.9762,-11.3036 L -22.9775,-11.2767 L -22.9924,-10.6617 L -22.9924,-10.6375
 L -22.9775,-10.0249 L -22.9762,-9.99791 L -22.9316,-9.4297 L -22.9282,-9.39864 L -22.854,-8.87486 L -22.8476,-8.83908
 L -22.7437,-8.35974 L -22.733,-8.31885 L -22.5995,-7.88397 L -22.5828,-7.83789 L -22.4195,-7.44745 L -22.3949,-7.39682
 L -22.202,-7.05083 L -22.1674,-6.99722 L -21.9453,-6.69661 L -21.8993,-6.64273 L -21.6486,-6.38837 L -21.5912,-6.33842
 L -21.3119,-6.13031 L -21.2458,-6.08868 L -20.9379,-5.9268 L -20.8677,-5.8965 L -20.5312,-5.78088 L -20.4621,-5.76254
 L -20.0969,-5.69318 L -20.0329,-5.68524 L -19.6392,-5.66211 L -19.5946,-5.66148 L -19.404,-5.66733 L -19.3731,-5.66924
 L -19.1841,-5.68677 L -19.1532,-5.69061 L -18.9658,-5.71985 L -18.9354,-5.72557 L -18.7496,-5.76648 L -18.7198,-5.774
 L -18.5357,-5.8266 L -18.5069,-5.83578 L -18.3244,-5.90009 L -18.2969,-5.91069 L -18.116,-5.98666 L -18.0897,-5.99861
 L -17.9088,-6.08722 L -17.8847,-6.09985 L -17.7021,-6.20193 L -17.6804,-6.21483 L -17.5093,-6.32224 L -17.5093,-4.772
 L -17.5632,-4.74786 L -17.7296,-4.68025 L -17.8986,-4.61839 L -18.0691,-4.5627 L -18.2426,-4.5127 L -18.4189,-4.46838
 L -18.597,-4.43018 L -18.7785,-4.39767 L -18.9633,-4.37099 L -19.1508,-4.35023 L -19.342,-4.33534 L -19.536,-4.32639
 L -19.7249,-4.32352 z
M -12.115,-9.93854 L -8.862,-9.93854 L -8.862,-4.08125 L -6.26135,-4.08125 L -6.26135,-17.2435 L -8.862,-17.2435
 L -8.862,-12.2265 L -12.115,-12.2265 L -12.115,-17.2435 L -14.7156,-17.2435 L -14.7156,-4.08125 L -12.115,-4.08125
 z
M -14.2156,-4.58125 L -14.2156,-16.7435 L -12.615,-16.7435 L -12.615,-12.2265 L -12.6061,-12.1328 L -12.5905,-12.072
 L -12.5674,-12.0136 L -12.5372,-11.9586 L -12.5002,-11.9078 L -12.4573,-11.862 L -12.4089,-11.822 L -12.3559,-11.7884
 L -12.2991,-11.7616 L -12.2393,-11.7422 L -12.1777,-11.7305 L -12.115,-11.7265 L -8.862,-11.7265 L -8.76831,-11.7354
 L -8.70749,-11.751 L -8.64911,-11.7741 L -8.59409,-11.8044 L -8.54329,-11.8413 L -8.49751,-11.8842 L -8.45749,-11.9326
 L -8.42384,-11.9856 L -8.39711,-12.0424 L -8.3777,-12.1022 L -8.36594,-12.1638 L -8.362,-12.2265 L -8.362,-16.7435
 L -6.76135,-16.7435 L -6.76135,-4.58125 L -8.362,-4.58125 L -8.362,-9.93854 L -8.37085,-10.0322 L -8.38647,-10.093
 L -8.40959,-10.1514 L -8.43983,-10.2065 L -8.47675,-10.2572 L -8.51973,-10.303 L -8.5681,-10.343 L -8.62112,-10.3767
 L -8.67793,-10.4034 L -8.73766,-10.4228 L -8.79933,-10.4346 L -8.862,-10.4385 L -12.115,-10.4385 L -12.2087,-10.4297
 L -12.2695,-10.4141 L -12.3279,-10.3909 L -12.3829,-10.3607 L -12.4337,-10.3238 L -12.4795,-10.2808 L -12.5195,-10.2324
 L -12.5531,-10.1794 L -12.5799,-10.1226 L -12.5993,-10.0629 L -12.6111,-10.0012 L -12.615,-9.93854 L -12.615,-4.58125
 z
M 14.6611,-6.36926 L 12.0429,-6.36926 L 12.0429,-14.9555 L 14.6611,-14.9555 L 14.6611,-17.2435 L 6.8241,-17.2435
 L 6.8241,-14.9555 L 9.44229,-14.9555 L 9.44229,-6.36926 L 6.8241,-6.36926 L 6.8241,-4.08125 L 14.6611,-4.08125
 z
M 7.3241,-4.58125 L 7.3241,-5.86926 L 9.44229,-5.86926 L 9.53598,-5.87811 L 9.5968,-5.89374 L 9.65518,-5.91685
 L 9.71021,-5.9471 L 9.761,-5.98401 L 9.80678,-6.02699 L 9.8468,-6.07536 L 9.88045,-6.12839 L 9.90718,-6.1852
 L 9.92659,-6.24492 L 9.93835,-6.30659 L 9.94229,-6.36926 L 9.94229,-14.9555 L 9.93344,-15.0492 L 9.91782,-15.11
 L 9.8947,-15.1684 L 9.86446,-15.2234 L 9.82755,-15.2742 L 9.78456,-15.32 L 9.73619,-15.36 L 9.68317,-15.3936
 L 9.62636,-15.4204 L 9.56664,-15.4398 L 9.50496,-15.4515 L 9.44229,-15.4555 L 7.3241,-15.4555 L 7.3241,-16.7435
 L 14.1611,-16.7435 L 14.1611,-15.4555 L 12.0429,-15.4555 L 11.9492,-15.4466 L 11.8884,-15.431 L 11.83,-15.4079
 L 11.775,-15.3776 L 11.7242,-15.3407 L 11.6785,-15.2977 L 11.6384,-15.2494 L 11.6048,-15.1964 L 11.578,-15.1395
 L 11.5586,-15.0798 L 11.5469,-15.0181 L 11.5429,-14.9555 L 11.5429,-6.36926 L 11.5518,-6.27557 L 11.5674,-6.21475
 L 11.5905,-6.15637 L 11.6208,-6.10135 L 11.6577,-6.05055 L 11.7007,-6.00478 L 11.749,-5.96475 L 11.8021,-5.93111
 L 11.8589,-5.90437 L 11.9186,-5.88496 L 11.9803,-5.8732 L 12.0429,-5.86926 L 14.1611,-5.86926 L 14.1611,-4.58125
 z
M -1.53465,-9.28127 L -0.706039,-9.28127 L -0.441559,-9.25085 L -0.187164,-9.15967 L 0.0571289,-9.00768 L 0.291367,-8.79488
 L 0.515533,-8.52129 L 0.72963,-8.1869 L 0.93364,-7.79172 L 0.9655,-7.72337 L 0.995544,-7.65935 L 1.0238,-7.59964
 L 1.05025,-7.54424 L 1.07489,-7.49315 L 1.09773,-7.44638 L 1.11876,-7.40393 L 2.70567,-4.08125 L 5.5619,-4.08125
 L 3.18159,-8.81416 L 3.06583,-9.03996 L 2.95528,-9.24361 L 2.84995,-9.42513 L 2.74983,-9.5845 L 2.65492,-9.72176
 L 2.56525,-9.83685 L 2.48077,-9.92982 L 2.39687,-10.0075 L 2.30882,-10.0767 L 2.21664,-10.1375 L 2.12032,-10.1898
 L 2.01984,-10.2336 L 1.91522,-10.269 L 1.80646,-10.2959 L 2.1497,-10.3544 L 2.46921,-10.4391 L 2.76497,-10.5501
 L 3.03699,-10.6874 L 3.28526,-10.851 L 3.50978,-11.0408 L 3.71057,-11.2569 L 3.88599,-11.4974 L 4.03441,-11.7607
 L 4.15585,-12.0466 L 4.25031,-12.3552 L 4.31778,-12.6865 L 4.35826,-13.0404 L 4.37175,-13.4171 L 4.34917,-13.9734
 L 4.28143,-14.4837 L 4.16853,-14.9479 L 4.01047,-15.366 L 3.80725,-15.7381 L 3.55887,-16.0642 L 3.26532,-16.3441
 L 2.92,-16.5827 L 2.5162,-16.7846 L 2.05392,-16.9498 L 1.53319,-17.0783 L 0.953979,-17.1701 L 0.316284,-17.2251
 L -0.379868,-17.2435 L -4.1353,-17.2435 L -4.1353,-4.08125 L -1.53465,-4.08125 z
M -3.6353,-4.58125 L -3.6353,-16.7435 L -0.386688,-16.7435 L 0.288162,-16.7257 L 0.893417,-16.6734 L 1.43396,-16.5878
 L 1.90958,-16.4704 L 2.31952,-16.324 L 2.66483,-16.1513 L 2.94872,-15.9552 L 3.18517,-15.7296 L 3.38658,-15.4652
 L 3.55504,-15.1568 L 3.68994,-14.7999 L 3.78929,-14.3914 L 3.85051,-13.9303 L 3.87138,-13.4159 L 3.85928,-13.0779
 L 3.82349,-12.7649 L 3.76514,-12.4785 L 3.68542,-12.218 L 3.58513,-11.9819 L 3.46475,-11.7684 L 3.32411,-11.5755
 L 3.16397,-11.4032 L 2.98534,-11.2521 L 2.78598,-11.1208 L 2.56386,-11.0087 L 2.31683,-10.916 L 2.0435,-10.8435
 L 1.72249,-10.7888 L 1.67795,-10.7791 L 1.61841,-10.7592 L 1.56183,-10.732 L 1.50909,-10.6979 L 1.46106,-10.6574
 L 1.41847,-10.6113 L 1.382,-10.5602 L 1.35223,-10.5049 L 1.32962,-10.4463 L 1.31453,-10.3854 L 1.30719,-10.323
 L 1.30774,-10.2602 L 1.31613,-10.198 L 1.33228,-10.1373 L 1.3559,-10.0791 L 1.38661,-10.0244 L 1.42395,-9.97391
 L 1.46733,-9.9285 L 1.51605,-9.8889 L 1.56935,-9.85571 L 1.6264,-9.82947 L 1.68628,-9.81058 L 1.77481,-9.78865
 L 1.83932,-9.76683 L 1.90077,-9.74002 L 1.95926,-9.70827 L 2.01624,-9.67072 L 2.07193,-9.62694 L 2.12538,-9.57745
 L 2.18236,-9.51474 L 2.25177,-9.42567 L 2.33228,-9.30923 L 2.42194,-9.1665 L 2.51935,-8.99864 L 2.62343,-8.8069
 L 2.73599,-8.58734 L 4.75076,-4.58125 L 3.02098,-4.58125 L 1.56995,-7.61942 L 1.5668,-7.62585 L 1.54701,-7.66582
 L 1.52524,-7.71039 L 1.5006,-7.76147 L 1.47574,-7.81354 L 1.44748,-7.87325 L 1.41814,-7.93578 L 1.38681,-8.00298
 L 1.37793,-8.02107 L 1.17392,-8.41626 L 1.15071,-8.45651 L 0.936615,-8.79089 L 0.902283,-8.83818 L 0.678116,-9.11177
 L 0.627579,-9.16496 L 0.393341,-9.37776 L 0.321259,-9.43221 L 0.0769653,-9.5842 L 0.0392151,-9.60548 L -0.0184479,-9.63034
 L -0.272842,-9.72153 L -0.322632,-9.73651 L -0.384445,-9.74759 L -0.648926,-9.778 L -0.706039,-9.78127 L -1.53465,-9.78127
 L -1.62834,-9.77242 L -1.68916,-9.75679 L -1.74754,-9.73367 L -1.80257,-9.70343 L -1.85336,-9.66652 L -1.89914,-9.62354
 L -1.93916,-9.57516 L -1.97281,-9.52214 L -1.99954,-9.46533 L -2.01895,-9.40561 L -2.03072,-9.34393 L -2.03465,-9.28127
 L -2.03465,-4.58125 z
M -0.294708,-10.9696 L -0.00227356,-10.9781 L 0.0308075,-10.9802 L 0.298584,-11.0058 L 0.337402,-11.0111 L 0.580536,-11.0538
 L 0.626022,-11.064 L 0.844513,-11.1238 L 0.896835,-11.1413 L 1.09068,-11.2181 L 1.14912,-11.2458 L 1.31833,-11.3397
 L 1.38017,-11.3803 L 1.52472,-11.4913 L 1.58449,-11.5455 L 1.70728,-11.6761 L 1.75639,-11.7374 L 1.86029,-11.8901
 L 1.89653,-11.9527 L 1.98154,-12.1276 L 2.00586,-12.1871 L 2.07198,-12.384 L 2.08675,-12.4378 L 2.13396,-12.6569
 L 2.14175,-12.7039 L 2.17009,-12.9451 L 2.17319,-12.9855 L 2.18263,-13.2489 L 2.18263,-13.2845 L 2.17328,-13.5478
 L 2.17024,-13.5879 L 2.14218,-13.8288 L 2.13448,-13.8755 L 2.08771,-14.0942 L 2.07307,-14.1478 L 2.00758,-14.3441
 L 1.98338,-14.4036 L 1.8992,-14.5777 L 1.8629,-14.6406 L 1.75999,-14.7923 L 1.71062,-14.854 L 1.589,-14.9835
 L 1.52849,-15.0382 L 1.38493,-15.1481 L 1.32234,-15.1889 L 1.15359,-15.2819 L 1.09485,-15.3095 L 0.900909,-15.3856
 L 0.848694,-15.4028 L 0.629562,-15.462 L 0.584442,-15.4719 L 0.340134,-15.5142 L 0.301743,-15.5193 L 0.0322571,-15.5447
 L -0.000244141,-15.5467 L -0.294937,-15.5551 L -0.30928,-15.5553 L -1.53465,-15.5553 L -1.62834,-15.5465 L -1.68916,-15.5309
 L -1.74754,-15.5077 L -1.80257,-15.4775 L -1.85336,-15.4406 L -1.89914,-15.3976 L -1.93916,-15.3492 L -1.97281,-15.2962
 L -1.99954,-15.2394 L -2.01895,-15.1797 L -2.03072,-15.118 L -2.03465,-15.0553 L -2.03465,-11.4694 L -2.0258,-11.3757
 L -2.01018,-11.3149 L -1.98706,-11.2565 L -1.95682,-11.2015 L -1.91991,-11.1507 L -1.87692,-11.1049 L -1.82855,-11.0649
 L -1.77553,-11.0312 L -1.71872,-11.0045 L -1.659,-10.9851 L -1.59732,-10.9733 L -1.53465,-10.9694 L -0.30928,-10.9694
 z
M -1.53465,-11.4694 L -1.53465,-15.0553 L -0.30928,-15.0553 L -0.0145874,-15.0469 L 0.254898,-15.0215 L 0.499207,-14.9792
 L 0.718338,-14.9201 L 0.912277,-14.844 L 1.08102,-14.751 L 1.22458,-14.6411 L 1.34619,-14.5117 L 1.4491,-14.36
 L 1.53328,-14.1859 L 1.59877,-13.9896 L 1.64554,-13.7709 L 1.6736,-13.53 L 1.68295,-13.2668 L 1.67351,-13.0035
 L 1.64517,-12.7623 L 1.59796,-12.5432 L 1.53185,-12.3462 L 1.44684,-12.1713 L 1.34294,-12.0185 L 1.22015,-11.8879
 L 1.07561,-11.7769 L 0.906403,-11.6829 L 0.712555,-11.606 L 0.494064,-11.5463 L 0.250931,-11.5036 L -0.0168457,-11.4779
 L -0.30928,-11.4694 z
M 24.1395,-10.5542 L 18.5769,-10.5542 L 18.5769,-7.99165 L 24.1395,-7.99165 z
M 19.0769,-8.49165 L 19.0769,-10.0542 L 23.6395,-10.0542 L 23.6395,-8.49165 z
M -20.832,17.1566 L -20.2256,17.0964 L -19.6684,16.9961 L -19.1602,16.8557 L -18.7012,16.6751 L -18.2912,16.4544
 L -17.9304,16.1936 L -17.6182,15.8921 L -17.354,15.5494 L -17.1378,15.1655 L -16.9697,14.7404 L -16.8496,14.2741
 L -16.7776,13.7666 L -16.7536,13.2179 L -16.7688,12.81 L -16.8147,12.4226 L -16.8912,12.0558 L -16.9982,11.7094
 L -17.1358,11.3835 L -17.3041,11.0782 L -17.5029,10.7934 L -17.7341,10.5266 L -17.9994,10.2752 L -18.299,10.0393
 L -18.6327,9.81885 L -19.0006,9.61391 L -19.4027,9.42444 L -19.839,9.25044 L -20.9587,8.82678 L -21.2748,8.70485
 L -21.5585,8.58598 L -21.8095,8.47018 L -22.028,8.35747 L -22.2139,8.2478 L -22.3673,8.1412 L -22.4881,8.03767
 L -22.5852,7.93178 L -22.6673,7.81813 L -22.7345,7.69675 L -22.7867,7.56761 L -22.8241,7.43076 L -22.8465,7.28613
 L -22.8539,7.13379 L -22.8437,6.9389 L -22.8129,6.75735 L -22.7616,6.58911 L -22.6899,6.43419 L -22.5976,6.29259
 L -22.4848,6.16429 L -22.3515,6.04933 L -22.1989,5.94872 L -22.0283,5.86359 L -21.8398,5.79395 L -21.6332,5.73976
 L -21.4087,5.70108 L -21.1661,5.67786 L -20.9056,5.67012 L -20.6635,5.67641 L -20.4206,5.69528 L -20.177,5.72673
 L -19.9327,5.77077 L -19.6877,5.82738 L -19.4419,5.89658 L -19.1955,5.97835 L -18.9492,6.07216 L -18.7039,6.17747
 L -18.4598,6.29428 L -18.2167,6.42259 L -17.9747,6.56241 L -17.7338,6.71371 L -17.494,6.87651 L -17.494,4.33891
 L -17.7488,4.22658 L -18.0043,4.12238 L -18.2605,4.02631 L -18.5174,3.93837 L -18.775,3.85857 L -19.0334,3.7869
 L -19.2924,3.72337 L -19.5518,3.66815 L -19.8113,3.62143 L -20.0707,3.58319 L -20.3301,3.55347 L -20.5895,3.53223
 L -20.849,3.51949 L -21.1084,3.51524 L -21.6628,3.53613 L -22.1822,3.5988 L -22.6667,3.70325 L -23.1163,3.84949
 L -23.531,4.03749 L -23.9108,4.26729 L -24.2557,4.53886 L -24.5598,4.84695 L -24.817,5.18639 L -25.0275,5.55716
 L -25.1912,5.95926 L -25.3081,6.39272 L -25.3783,6.8575 L -25.4017,7.35362 L -25.3875,7.74033 L -25.3448,8.10381
 L -25.2738,8.44406 L -25.1743,8.76109 L -25.0464,9.0549 L -24.89,9.32549 L -24.7053,9.57285 L -24.4804,9.80702
 L -24.2037,10.0381 L -23.8752,10.2662 L -23.4948,10.4912 L -23.0627,10.7131 L -22.5788,10.932 L -22.043,11.1478
 L -20.7647,11.6331 L -20.5797,11.7099 L -20.4077,11.7944 L -20.2487,11.8866 L -20.1026,11.9866 L -19.9695,12.0943
 L -19.8493,12.2097 L -19.7421,12.3329 L -19.6485,12.4628 L -19.5694,12.5987 L -19.5046,12.7405 L -19.4542,12.8882
 L -19.4182,13.0419 L -19.3966,13.2015 L -19.3894,13.367 L -19.4002,13.5837 L -19.4326,13.7863 L -19.4866,13.9746
 L -19.5621,14.1488 L -19.6593,14.3088 L -19.7781,14.4546 L -19.9184,14.5862 L -20.0783,14.7017 L -20.2559,14.7995
 L -20.4511,14.8795 L -20.6639,14.9418 L -20.8943,14.9862 L -21.1425,15.0129 L -21.4082,15.0218 L -21.6807,15.0145
 L -21.9541,14.9924 L -22.2283,14.9557 L -22.5035,14.9044 L -22.7796,14.8383 L -23.0565,14.7576 L -23.3344,14.6622
 L -23.6141,14.5517 L -23.8964,14.4259 L -24.1815,14.2846 L -24.4693,14.128 L -24.7597,13.956 L -25.0529,13.7686
 L -25.3488,13.5658 L -25.3488,16.2531 L -25.0855,16.3792 L -24.8195,16.4962 L -24.5508,16.604 L -24.2794,16.7026
 L -24.0053,16.7921 L -23.7286,16.8724 L -23.4491,16.9436 L -23.1683,17.0054 L -22.8877,17.0577 L -22.6073,17.1006
 L -22.3271,17.1339 L -22.047,17.1576 L -21.7672,17.1719 L -21.4875,17.1767 z
M -21.7503,16.6721 L -22.0131,16.6587 L -22.2762,16.6364 L -22.5398,16.6051 L -22.8042,16.5647 L -23.0687,16.5154
 L -23.3335,16.457 L -23.5974,16.3898 L -23.858,16.3142 L -24.1163,16.2299 L -24.3722,16.1369 L -24.6256,16.0352
 L -24.8488,15.9371 L -24.8488,14.4844 L -24.724,14.5582 L -24.7083,14.5672 L -24.4205,14.7238 L -24.4035,14.7327
 L -24.1184,14.8739 L -24.1,14.8826 L -23.8176,15.0084 L -23.7978,15.0168 L -23.5181,15.1272 L -23.4968,15.1351
 L -23.2189,15.2305 L -23.1964,15.2376 L -22.9195,15.3183 L -22.8959,15.3246 L -22.6199,15.3906 L -22.5952,15.3959
 L -22.3201,15.4473 L -22.2946,15.4513 L -22.0204,15.488 L -21.9942,15.4908 L -21.7208,15.5128 L -21.6941,15.5143
 L -21.4217,15.5216 L -21.3915,15.5215 L -21.1257,15.5126 L -21.089,15.51 L -20.8409,15.4834 L -20.7997,15.4772
 L -20.5692,15.4327 L -20.5235,15.4217 L -20.3107,15.3594 L -20.2614,15.3422 L -20.0662,15.2621 L -20.0147,15.2375
 L -19.8371,15.1397 L -19.7854,15.107 L -19.6255,14.9914 L -19.5764,14.9509 L -19.4361,14.8193 L -19.3904,14.7703
 L -19.2717,14.6245 L -19.232,14.5683 L -19.1348,14.4083 L -19.1035,14.3478 L -19.0279,14.1737 L -19.0059,14.1124
 L -18.952,13.924 L -18.9389,13.8652 L -18.9065,13.6627 L -18.9008,13.6086 L -18.8901,13.3919 L -18.8899,13.3453
 L -18.8971,13.1798 L -18.9011,13.1345 L -18.9227,12.9749 L -18.9314,12.9279 L -18.9674,12.7742 L -18.981,12.7269
 L -19.0314,12.5791 L -19.0498,12.5328 L -19.1146,12.391 L -19.1374,12.347 L -19.2165,12.2111 L -19.2428,12.1707
 L -19.3363,12.0407 L -19.365,12.0045 L -19.4722,11.8814 L -19.5029,11.8491 L -19.6231,11.7337 L -19.655,11.7056
 L -19.7881,11.5979 L -19.8202,11.5739 L -19.9663,11.474 L -19.9978,11.4541 L -20.1569,11.3618 L -20.1873,11.3456
 L -20.3593,11.2611 L -20.388,11.2481 L -20.573,11.1713 L -20.5872,11.1656 L -21.861,10.6821 L -22.3821,10.4721
 L -22.8455,10.2626 L -23.2531,10.0533 L -23.6049,9.84511 L -23.9003,9.64009 L -24.1387,9.44095 L -24.3232,9.24879
 L -24.4718,9.0498 L -24.5992,8.82936 L -24.7052,8.586 L -24.7893,8.31778 L -24.8508,8.02342 L -24.8885,7.70197
 L -24.9012,7.35625 L -24.88,6.90668 L -24.818,6.49544 L -24.7165,6.11925 L -24.5767,5.77583 L -24.3985,5.46193
 L -24.181,5.17499 L -23.9218,4.91231 L -23.6257,4.6792 L -23.2975,4.48061 L -22.9352,4.31636 L -22.5363,4.18663
 L -22.0994,4.09244 L -21.6234,4.035 L -21.1031,4.0154 L -20.8654,4.01929 L -20.6221,4.03123 L -20.3788,4.05115
 L -20.1357,4.07901 L -19.8919,4.11496 L -19.6484,4.1588 L -19.4038,4.21088 L -19.1601,4.27063 L -18.9157,4.33842
 L -18.6721,4.41388 L -18.4295,4.49693 L -18.1862,4.58813 L -17.994,4.66653 L -17.994,5.97475 L -18.2263,5.85211
 L -18.244,5.84325 L -18.4882,5.72644 L -18.5066,5.71805 L -18.7518,5.61273 L -18.7712,5.6049 L -19.0175,5.51109
 L -19.038,5.50378 L -19.2845,5.42201 L -19.3064,5.4153 L -19.5521,5.3461 L -19.5751,5.34021 L -19.8201,5.2836
 L -19.844,5.2787 L -20.0883,5.23466 L -20.113,5.23085 L -20.3566,5.1994 L -20.3819,5.19679 L -20.6247,5.17792
 L -20.6505,5.17657 L -20.8927,5.17029 L -20.9205,5.17033 L -21.181,5.17807 L -21.2138,5.18013 L -21.4563,5.20335
 L -21.4935,5.20834 L -21.7181,5.24702 L -21.7601,5.25612 L -21.9666,5.3103 L -22.013,5.32491 L -22.2015,5.39455
 L -22.2516,5.41621 L -22.4222,5.50134 L -22.4741,5.5313 L -22.6267,5.63191 L -22.678,5.67067 L -22.8113,5.78563
 L -22.8603,5.83415 L -22.9731,5.96245 L -23.0165,6.01959 L -23.1087,6.16119 L -23.1435,6.224 L -23.2153,6.37892
 L -23.2399,6.44336 L -23.2912,6.6116 L -23.3059,6.67383 L -23.3367,6.85538 L -23.343,6.91263 L -23.3532,7.10751
 L -23.3533,7.15825 L -23.3459,7.31059 L -23.3406,7.36266 L -23.3182,7.50728 L -23.3064,7.56232 L -23.2691,7.69917
 L -23.2502,7.75519 L -23.198,7.88432 L -23.1719,7.93892 L -23.1047,8.0603 L -23.0725,8.11098 L -22.9904,8.22462
 L -22.9538,8.26959 L -22.8567,8.37549 L -22.8135,8.41733 L -22.6927,8.52086 L -22.6527,8.55177 L -22.4993,8.65837
 L -22.468,8.67847 L -22.282,8.78813 L -22.2572,8.80182 L -22.0388,8.91454 L -22.0189,8.92422 L -21.7679,9.04002
 L -21.7517,9.04712 L -21.4681,9.16599 L -21.4548,9.17136 L -21.1386,9.29329 L -20.0201,9.71652 L -19.6019,9.88329
 L -19.2291,10.059 L -18.8926,10.2464 L -18.5919,10.445 L -18.3267,10.6539 L -18.0958,10.8726 L -17.8979,11.101
 L -17.7292,11.3427 L -17.5863,11.6021 L -17.4686,11.8808 L -17.3758,12.1809 L -17.3087,12.5032 L -17.2677,12.8489
 L -17.254,13.2163 L -17.276,13.7204 L -17.3408,14.1763 L -17.4462,14.5857 L -17.5902,14.9499 L -17.7719,15.2726
 L -17.9919,15.5579 L -18.2521,15.8092 L -18.5574,16.0298 L -18.912,16.2207 L -19.3188,16.3808 L -19.7794,16.508
 L -20.2947,16.6008 L -20.8644,16.6573 L -21.4911,16.6765 z
M 8.99275,13.6656 L 12.4749,13.6656 L 13.2859,16.9187 L 15.8865,16.9187 L 12.3339,3.75652 L 9.15135,3.75652
 L 5.59871,16.9187 L 8.19937,16.9187 z
M 6.25156,16.4187 L 9.53429,4.25652 L 11.951,4.25652 L 15.2337,16.4187 L 13.6765,16.4187 L 12.9601,13.5447
 L 12.9505,13.5111 L 12.9273,13.4527 L 12.8971,13.3977 L 12.8602,13.3469 L 12.8172,13.3011 L 12.7688,13.2611
 L 12.7158,13.2275 L 12.659,13.2007 L 12.5993,13.1813 L 12.5376,13.1696 L 12.4749,13.1656 L 8.99275,13.1656
 L 8.95531,13.167 L 8.89311,13.1756 L 8.83249,13.192 L 8.7744,13.2158 L 8.71974,13.2467 L 8.6694,13.2843
 L 8.62415,13.3278 L 8.58472,13.3766 L 8.55171,13.4301 L 8.52567,13.4872 L 8.50699,13.5471 L 7.80666,16.4187
 z
M 12.0531,12.0208 L 12.1143,12.0068 L 12.1733,11.9852 L 12.2291,11.9564 L 12.2809,11.9209 L 12.3277,11.8791
 L 12.369,11.8318 L 12.404,11.7797 L 12.4323,11.7236 L 12.4532,11.6644 L 12.4666,11.603 L 12.4722,11.5405
 L 12.4699,11.4778 L 12.4597,11.4158 L 11.2256,6.02652 L 11.1979,5.94122 L 11.1696,5.88518 L 11.1345,5.83311
 L 11.0931,5.78587 L 11.0462,5.74417 L 10.9944,5.70868 L 10.9385,5.67998 L 10.8795,5.65849 L 10.8183,5.64456
 L 10.7558,5.63843 L 10.693,5.64017 L 10.631,5.64977 L 10.5706,5.66707 L 10.5129,5.69179 L 10.4587,5.72356
 L 10.409,5.76186 L 10.3644,5.80609 L 10.3258,5.85558 L 10.2936,5.9095 L 10.2684,5.96703 L 10.2507,6.02727
 L 9.02533,11.4165 L 9.01387,11.496 L 9.01387,11.5588 L 9.02173,11.6211 L 9.03735,11.6819 L 9.06047,11.7403
 L 9.09071,11.7953 L 9.12762,11.8461 L 9.17061,11.8919 L 9.21898,11.9319 L 9.272,11.9655 L 9.32881,11.9923
 L 9.38853,12.0117 L 9.45021,12.0235 L 9.51288,12.0274 L 11.9724,12.0274 z
M 9.51288,11.5274 L 10.7383,6.13812 L 11.9724,11.5274 z
M 4.04558,14.6307 L 1.42738,14.6307 L 1.42738,6.04453 L 4.04558,6.04453 L 4.04558,3.75652 L -3.79146,3.75652
 L -3.79146,6.04453 L -1.17325,6.04453 L -1.17325,14.6307 L -3.79146,14.6307 L -3.79146,16.9187 L 4.04558,16.9187
 z
M -3.29146,16.4187 L -3.29146,15.1307 L -1.17325,15.1307 L -1.07956,15.1219 L -1.01874,15.1063 L -0.960358,15.0831
 L -0.905334,15.0529 L -0.854538,15.016 L -0.808762,14.973 L -0.768738,14.9246 L -0.735092,14.8716 L -0.708359,14.8148
 L -0.68895,14.7551 L -0.677185,14.6934 L -0.673248,14.6307 L -0.673248,6.04453 L -0.682098,5.95084 L -0.697723,5.89001
 L -0.72084,5.83163 L -0.751083,5.77661 L -0.787994,5.72581 L -0.830978,5.68004 L -0.879349,5.64001 L -0.932373,5.60637
 L -0.989182,5.57964 L -1.0489,5.56023 L -1.11058,5.54846 L -1.17325,5.54453 L -3.29146,5.54453 L -3.29146,4.25652
 L 3.54558,4.25652 L 3.54558,5.54453 L 1.42738,5.54453 L 1.33369,5.55338 L 1.27287,5.569 L 1.21449,5.59212
 L 1.15947,5.62236 L 1.10867,5.65927 L 1.0629,5.70226 L 1.02287,5.75063 L 0.989227,5.80365 L 0.962494,5.86046
 L 0.943085,5.92018 L 0.93132,5.98186 L 0.927383,6.04453 L 0.927383,14.6307 L 0.936234,14.7244 L 0.951859,14.7852
 L 0.974976,14.8436 L 1.00522,14.8987 L 1.04213,14.9494 L 1.08511,14.9952 L 1.13348,15.0352 L 1.18651,15.0689
 L 1.24332,15.0956 L 1.30304,15.115 L 1.36472,15.1268 L 1.42738,15.1307 L 3.54558,15.1307 L 3.54558,16.4187
 z
M 19.2645,16.3885 L 19.2645,7.35349 L 22.4733,15.6827 L 22.9842,15.6181 L 19.731,7.17374 L 19.7026,7.11261
 L 19.669,7.05959 L 19.629,7.01122 L 19.5832,6.96823 L 19.5324,6.93132 L 19.4774,6.90108 L 19.419,6.87796
 L 19.3582,6.86234 L 19.2959,6.85448 L 19.2331,6.85448 L 19.1708,6.86234 L 19.11,6.87796 L 19.0516,6.90108
 L 18.9966,6.93132 L 18.9458,6.96823 L 18.9,7.01122 L 18.86,7.05959 L 18.8263,7.11261 L 18.7996,7.16942
 L 18.7802,7.22914 L 18.7684,7.29082 L 18.7645,7.35349 L 18.7645,16.4187 L 17.4724,16.4187 L 17.4724,4.25652
 L 19.4231,4.25652 L 22.9674,13.5008 L 22.9961,13.5627 L 23.0297,13.6157 L 23.0697,13.664 L 23.1155,13.707
 L 23.1663,13.7439 L 23.2213,13.7742 L 23.2797,13.7973 L 23.3405,13.8129 L 23.4028,13.8208 L 23.4656,13.8208
 L 23.5279,13.8129 L 23.5887,13.7973 L 23.6471,13.7742 L 23.7021,13.7439 L 23.7529,13.707 L 23.7987,13.664
 L 23.8387,13.6157 L 23.8724,13.5627 L 23.8991,13.5058 L 23.9185,13.4461 L 23.9303,13.3844 L 23.9342,13.3218
 L 23.9342,4.25652 L 25.2264,4.25652 L 25.2264,15.3349 L 25.7264,15.2717 L 25.7264,3.75652 L 23.4342,3.75652
 L 23.4342,13.3218 L 19.7669,3.75652 L 16.9724,3.75652 L 16.9724,16.9187 L 17.1992,16.9187 z
M -9.18817,6.02788 L -5.84705,6.02788 L -5.84705,3.75652 L -15.13,3.75652 L -15.13,6.02788 L -11.7888,6.02788
 L -11.7888,16.9187 L -9.18817,16.9187 z
M -11.2888,16.4187 L -11.2888,6.02788 L -11.2977,5.93419 L -11.3133,5.87337 L -11.3364,5.81499 L -11.3667,5.75996
 L -11.4036,5.70917 L -11.4465,5.66339 L -11.4949,5.62337 L -11.5479,5.58972 L -11.6048,5.56299 L -11.6645,5.54358
 L -11.7262,5.53181 L -11.7888,5.52788 L -14.63,5.52788 L -14.63,4.25652 L -6.34705,4.25652 L -6.34705,5.52788
 L -9.18817,5.52788 L -9.28186,5.53673 L -9.34268,5.55235 L -9.40106,5.57547 L -9.45609,5.60571 L -9.50688,5.64262
 L -9.55266,5.68561 L -9.59268,5.73398 L -9.62633,5.787 L -9.65306,5.84381 L -9.67247,5.90353 L -9.68423,5.96521
 L -9.68817,6.02788 L -9.68817,16.4187 z
" stroke="black" fill="lightgray" stroke-width="0.5"/>
</svg>
