  0
SECTION
  2
BLOCKS
  0
ENDSEC
  0
SECTION
  2
ENTITIES
  0
LINE
  8
0
 10
-19.5206
 20
3.82657
 11
-19.3109
 21
3.83624
  0
LINE
  8
0
 10
-19.3109
 20
3.83624
 11
-19.104
 21
3.85237
  0
LINE
  8
0
 10
-19.104
 20
3.85237
 11
-18.9
 21
3.87495
  0
LINE
  8
0
 10
-18.9
 20
3.87495
 11
-18.6988
 21
3.90399
  0
LINE
  8
0
 10
-18.6988
 20
3.90399
 11
-18.5006
 21
3.93948
  0
LINE
  8
0
 10
-18.5006
 20
3.93948
 11
-18.3052
 21
3.98141
  0
LINE
  8
0
 10
-18.3052
 20
3.98141
 11
-18.1125
 21
4.02982
  0
LINE
  8
0
 10
-18.1125
 20
4.02982
 11
-17.9223
 21
4.08466
  0
LINE
  8
0
 10
-17.9223
 20
4.08466
 11
-17.7347
 21
4.14595
  0
LINE
  8
0
 10
-17.7347
 20
4.14595
 11
-17.5495
 21
4.2137
  0
LINE
  8
0
 10
-17.5495
 20
4.2137
 11
-17.3669
 21
4.2879
  0
LINE
  8
0
 10
-17.3669
 20
4.2879
 11
-17.1868
 21
4.36855
  0
LINE
  8
0
 10
-17.1868
 20
4.36855
 11
-17.0093
 21
4.45566
  0
LINE
  8
0
 10
-17.0093
 20
4.45566
 11
-17.0093
 21
7.35101
  0
LINE
  8
0
 10
-17.0093
 20
7.35101
 11
-17.1999
 21
7.18152
  0
LINE
  8
0
 10
-17.1999
 20
7.18152
 11
-17.3889
 21
7.0255
  0
LINE
  8
0
 10
-17.3889
 20
7.0255
 11
-17.5763
 21
6.88297
  0
LINE
  8
0
 10
-17.5763
 20
6.88297
 11
-17.7621
 21
6.75391
  0
LINE
  8
0
 10
-17.7621
 20
6.75391
 11
-17.9462
 21
6.63834
  0
LINE
  8
0
 10
-17.9462
 20
6.63834
 11
-18.1287
 21
6.53625
  0
LINE
  8
0
 10
-18.1287
 20
6.53625
 11
-18.3096
 21
6.44765
  0
LINE
  8
0
 10
-18.3096
 20
6.44765
 11
-18.4905
 21
6.37167
  0
LINE
  8
0
 10
-18.4905
 20
6.37167
 11
-18.673
 21
6.30737
  0
LINE
  8
0
 10
-18.673
 20
6.30737
 11
-18.8572
 21
6.25478
  0
LINE
  8
0
 10
-18.8572
 20
6.25478
 11
-19.0429
 21
6.21387
  0
LINE
  8
0
 10
-19.0429
 20
6.21387
 11
-19.2303
 21
6.18463
  0
LINE
  8
0
 10
-19.2303
 20
6.18463
 11
-19.4193
 21
6.1671
  0
LINE
  8
0
 10
-19.4193
 20
6.1671
 11
-19.6099
 21
6.16125
  0
LINE
  8
0
 10
-19.6099
 20
6.16125
 11
-20.0036
 21
6.18439
  0
LINE
  8
0
 10
-20.0036
 20
6.18439
 11
-20.3687
 21
6.25375
  0
LINE
  8
0
 10
-20.3687
 20
6.25375
 11
-20.7052
 21
6.36937
  0
LINE
  8
0
 10
-20.7052
 20
6.36937
 11
-21.0132
 21
6.53125
  0
LINE
  8
0
 10
-21.0132
 20
6.53125
 11
-21.2925
 21
6.73936
  0
LINE
  8
0
 10
-21.2925
 20
6.73936
 11
-21.5432
 21
6.99373
  0
LINE
  8
0
 10
-21.5432
 20
6.99373
 11
-21.7653
 21
7.29434
  0
LINE
  8
0
 10
-21.7653
 20
7.29434
 11
-21.9582
 21
7.64034
  0
LINE
  8
0
 10
-21.9582
 20
7.64034
 11
-22.1215
 21
8.03078
  0
LINE
  8
0
 10
-22.1215
 20
8.03078
 11
-22.2551
 21
8.46565
  0
LINE
  8
0
 10
-22.2551
 20
8.46565
 11
-22.359
 21
8.94499
  0
LINE
  8
0
 10
-22.359
 20
8.94499
 11
-22.4332
 21
9.46877
  0
LINE
  8
0
 10
-22.4332
 20
9.46877
 11
-22.4777
 21
10.037
  0
LINE
  8
0
 10
-22.4777
 20
10.037
 11
-22.4925
 21
10.6496
  0
LINE
  8
0
 10
-22.4925
 20
10.6496
 11
-22.4777
 21
11.2646
  0
LINE
  8
0
 10
-22.4777
 20
11.2646
 11
-22.4332
 21
11.8348
  0
LINE
  8
0
 10
-22.4332
 20
11.8348
 11
-22.359
 21
12.3602
  0
LINE
  8
0
 10
-22.359
 20
12.3602
 11
-22.2551
 21
12.8408
  0
LINE
  8
0
 10
-22.2551
 20
12.8408
 11
-22.1215
 21
13.2765
  0
LINE
  8
0
 10
-22.1215
 20
13.2765
 11
-21.9582
 21
13.6675
  0
LINE
  8
0
 10
-21.9582
 20
13.6675
 11
-21.7653
 21
14.0136
  0
LINE
  8
0
 10
-21.7653
 20
14.0136
 11
-21.5432
 21
14.3143
  0
LINE
  8
0
 10
-21.5432
 20
14.3143
 11
-21.2925
 21
14.5687
  0
LINE
  8
0
 10
-21.2925
 20
14.5687
 11
-21.0132
 21
14.7768
  0
LINE
  8
0
 10
-21.0132
 20
14.7768
 11
-20.7052
 21
14.9387
  0
LINE
  8
0
 10
-20.7052
 20
14.9387
 11
-20.3687
 21
15.0543
  0
LINE
  8
0
 10
-20.3687
 20
15.0543
 11
-20.0036
 21
15.1237
  0
LINE
  8
0
 10
-20.0036
 20
15.1237
 11
-19.6099
 21
15.1468
  0
LINE
  8
0
 10
-19.6099
 20
15.1468
 11
-19.4193
 21
15.141
  0
LINE
  8
0
 10
-19.4193
 20
15.141
 11
-19.2303
 21
15.1235
  0
LINE
  8
0
 10
-19.2303
 20
15.1235
 11
-19.0429
 21
15.0942
  0
LINE
  8
0
 10
-19.0429
 20
15.0942
 11
-18.8572
 21
15.0533
  0
LINE
  8
0
 10
-18.8572
 20
15.0533
 11
-18.673
 21
15.0007
  0
LINE
  8
0
 10
-18.673
 20
15.0007
 11
-18.4905
 21
14.9363
  0
LINE
  8
0
 10
-18.4905
 20
14.9363
 11
-18.3096
 21
14.8603
  0
LINE
  8
0
 10
-18.3096
 20
14.8603
 11
-18.1287
 21
14.7718
  0
LINE
  8
0
 10
-18.1287
 20
14.7718
 11
-17.9462
 21
14.6697
  0
LINE
  8
0
 10
-17.9462
 20
14.6697
 11
-17.7621
 21
14.5542
  0
LINE
  8
0
 10
-17.7621
 20
14.5542
 11
-17.5763
 21
14.4251
  0
LINE
  8
0
 10
-17.5763
 20
14.4251
 11
-17.3889
 21
14.2826
  0
LINE
  8
0
 10
-17.3889
 20
14.2826
 11
-17.1999
 21
14.1266
  0
LINE
  8
0
 10
-17.1999
 20
14.1266
 11
-17.0093
 21
13.9571
  0
LINE
  8
0
 10
-17.0093
 20
13.9571
 11
-17.0093
 21
16.8524
  0
LINE
  8
0
 10
-17.0093
 20
16.8524
 11
-17.1823
 21
16.9395
  0
LINE
  8
0
 10
-17.1823
 20
16.9395
 11
-17.359
 21
17.0202
  0
LINE
  8
0
 10
-17.359
 20
17.0202
 11
-17.5393
 21
17.0944
  0
LINE
  8
0
 10
-17.5393
 20
17.0944
 11
-17.7231
 21
17.1622
  0
LINE
  8
0
 10
-17.7231
 20
17.1622
 11
-17.9106
 21
17.2234
  0
LINE
  8
0
 10
-17.9106
 20
17.2234
 11
-18.1017
 21
17.2783
  0
LINE
  8
0
 10
-18.1017
 20
17.2783
 11
-18.2964
 21
17.3267
  0
LINE
  8
0
 10
-18.2964
 20
17.3267
 11
-18.4941
 21
17.3686
  0
LINE
  8
0
 10
-18.4941
 20
17.3686
 11
-18.6943
 21
17.4041
  0
LINE
  8
0
 10
-18.6943
 20
17.4041
 11
-18.8971
 21
17.4332
  0
LINE
  8
0
 10
-18.8971
 20
17.4332
 11
-19.1023
 21
17.4557
  0
LINE
  8
0
 10
-19.1023
 20
17.4557
 11
-19.3101
 21
17.4719
  0
LINE
  8
0
 10
-19.3101
 20
17.4719
 11
-19.5204
 21
17.4815
  0
LINE
  8
0
 10
-19.5204
 20
17.4815
 11
-19.7333
 21
17.4848
  0
LINE
  8
0
 10
-19.7333
 20
17.4848
 11
-20.4682
 21
17.4489
  0
LINE
  8
0
 10
-20.4682
 20
17.4489
 11
-21.1517
 21
17.3415
  0
LINE
  8
0
 10
-21.1517
 20
17.3415
 11
-21.7837
 21
17.1624
  0
LINE
  8
0
 10
-21.7837
 20
17.1624
 11
-22.3642
 21
16.9117
  0
LINE
  8
0
 10
-22.3642
 20
16.9117
 11
-22.8934
 21
16.5893
  0
LINE
  8
0
 10
-22.8934
 20
16.5893
 11
-23.371
 21
16.1953
  0
LINE
  8
0
 10
-23.371
 20
16.1953
 11
-23.7972
 21
15.7296
  0
LINE
  8
0
 10
-23.7972
 20
15.7296
 11
-24.1691
 21
15.1962
  0
LINE
  8
0
 10
-24.1691
 20
15.1962
 11
-24.4837
 21
14.5986
  0
LINE
  8
0
 10
-24.4837
 20
14.5986
 11
-24.7412
 21
13.937
  0
LINE
  8
0
 10
-24.7412
 20
13.937
 11
-24.9414
 21
13.2113
  0
LINE
  8
0
 10
-24.9414
 20
13.2113
 11
-25.0844
 21
12.4215
  0
LINE
  8
0
 10
-25.0844
 20
12.4215
 11
-25.1703
 21
11.5676
  0
LINE
  8
0
 10
-25.1703
 20
11.5676
 11
-25.1989
 21
10.6496
  0
LINE
  8
0
 10
-25.1989
 20
10.6496
 11
-25.1703
 21
9.73402
  0
LINE
  8
0
 10
-25.1703
 20
9.73402
 11
-25.0844
 21
8.88211
  0
LINE
  8
0
 10
-25.0844
 20
8.88211
 11
-24.9414
 21
8.09393
  0
LINE
  8
0
 10
-24.9414
 20
8.09393
 11
-24.7412
 21
7.36946
  0
LINE
  8
0
 10
-24.7412
 20
7.36946
 11
-24.4837
 21
6.70869
  0
LINE
  8
0
 10
-24.4837
 20
6.70869
 11
-24.1691
 21
6.11166
  0
LINE
  8
0
 10
-24.1691
 20
6.11166
 11
-23.7972
 21
5.57834
  0
LINE
  8
0
 10
-23.7972
 20
5.57834
 11
-23.371
 21
5.11273
  0
LINE
  8
0
 10
-23.371
 20
5.11273
 11
-22.8934
 21
4.71875
  0
LINE
  8
0
 10
-22.8934
 20
4.71875
 11
-22.3642
 21
4.39639
  0
LINE
  8
0
 10
-22.3642
 20
4.39639
 11
-21.7837
 21
4.14569
  0
LINE
  8
0
 10
-21.7837
 20
4.14569
 11
-21.1517
 21
3.9666
  0
LINE
  8
0
 10
-21.1517
 20
3.9666
 11
-20.4682
 21
3.85916
  0
LINE
  8
0
 10
-20.4682
 20
3.85916
 11
-19.7333
 21
3.82333
  0
LINE
  8
0
 10
-19.7333
 20
3.82333
 11
-19.5206
 21
3.82657
  0
LINE
  8
0
 10
-20.417
 20
4.35725
 11
-21.0443
 21
4.45587
  0
LINE
  8
0
 10
-21.0443
 20
4.45587
 11
-21.6157
 21
4.61778
  0
LINE
  8
0
 10
-21.6157
 20
4.61778
 11
-22.1339
 21
4.84155
  0
LINE
  8
0
 10
-22.1339
 20
4.84155
 11
-22.6028
 21
5.12721
  0
LINE
  8
0
 10
-22.6028
 20
5.12721
 11
-23.0258
 21
5.47615
  0
LINE
  8
0
 10
-23.0258
 20
5.47615
 11
-23.406
 21
5.89151
  0
LINE
  8
0
 10
-23.406
 20
5.89151
 11
-23.7412
 21
6.37224
  0
LINE
  8
0
 10
-23.7412
 20
6.37224
 11
-24.0282
 21
6.91669
  0
LINE
  8
0
 10
-24.0282
 20
6.91669
 11
-24.266
 21
7.52713
  0
LINE
  8
0
 10
-24.266
 20
7.52713
 11
-24.4535
 21
8.20554
  0
LINE
  8
0
 10
-24.4535
 20
8.20554
 11
-24.5889
 21
8.95181
  0
LINE
  8
0
 10
-24.5889
 20
8.95181
 11
-24.671
 21
9.76692
  0
LINE
  8
0
 10
-24.671
 20
9.76692
 11
-24.6986
 21
10.6496
  0
LINE
  8
0
 10
-24.6986
 20
10.6496
 11
-24.671
 21
11.5347
  0
LINE
  8
0
 10
-24.671
 20
11.5347
 11
-24.5889
 21
12.3518
  0
LINE
  8
0
 10
-24.5889
 20
12.3518
 11
-24.4534
 21
13.1
  0
LINE
  8
0
 10
-24.4534
 20
13.1
 11
-24.2659
 21
13.7795
  0
LINE
  8
0
 10
-24.2659
 20
13.7795
 11
-24.0281
 21
14.3908
  0
LINE
  8
0
 10
-24.0281
 20
14.3908
 11
-23.7411
 21
14.9357
  0
LINE
  8
0
 10
-23.7411
 20
14.9357
 11
-23.406
 21
15.4165
  0
LINE
  8
0
 10
-23.406
 20
15.4165
 11
-23.0258
 21
15.8318
  0
LINE
  8
0
 10
-23.0258
 20
15.8318
 11
-22.6027
 21
16.1809
  0
LINE
  8
0
 10
-22.6027
 20
16.1809
 11
-22.1339
 21
16.4665
  0
LINE
  8
0
 10
-22.1339
 20
16.4665
 11
-21.6156
 21
16.6903
  0
LINE
  8
0
 10
-21.6156
 20
16.6903
 11
-21.0443
 21
16.8522
  0
LINE
  8
0
 10
-21.0443
 20
16.8522
 11
-20.4171
 21
16.9508
  0
LINE
  8
0
 10
-20.4171
 20
16.9508
 11
-19.7249
 21
16.9846
  0
LINE
  8
0
 10
-19.7249
 20
16.9846
 11
-19.5357
 21
16.9817
  0
LINE
  8
0
 10
-19.5357
 20
16.9817
 11
-19.3413
 21
16.9728
  0
LINE
  8
0
 10
-19.3413
 20
16.9728
 11
-19.1487
 21
16.9578
  0
LINE
  8
0
 10
-19.1487
 20
16.9578
 11
-18.96
 21
16.9371
  0
LINE
  8
0
 10
-18.96
 20
16.9371
 11
-18.7734
 21
16.9103
  0
LINE
  8
0
 10
-18.7734
 20
16.9103
 11
-18.5899
 21
16.8778
  0
LINE
  8
0
 10
-18.5899
 20
16.8778
 11
-18.4085
 21
16.8393
  0
LINE
  8
0
 10
-18.4085
 20
16.8393
 11
-18.2307
 21
16.7952
  0
LINE
  8
0
 10
-18.2307
 20
16.7952
 11
-18.0576
 21
16.7455
  0
LINE
  8
0
 10
-18.0576
 20
16.7455
 11
-17.8869
 21
16.6897
  0
LINE
  8
0
 10
-17.8869
 20
16.6897
 11
-17.7211
 21
16.6285
  0
LINE
  8
0
 10
-17.7211
 20
16.6285
 11
-17.558
 21
16.5614
  0
LINE
  8
0
 10
-17.558
 20
16.5614
 11
-17.5093
 21
16.5392
  0
LINE
  8
0
 10
-17.5093
 20
16.5392
 11
-17.5093
 21
14.9858
  0
LINE
  8
0
 10
-17.5093
 20
14.9858
 11
-17.6805
 21
15.0932
  0
LINE
  8
0
 10
-17.6805
 20
15.0932
 11
-17.7022
 21
15.1061
  0
LINE
  8
0
 10
-17.7022
 20
15.1061
 11
-17.8847
 21
15.2082
  0
LINE
  8
0
 10
-17.8847
 20
15.2082
 11
-17.9089
 21
15.2208
  0
LINE
  8
0
 10
-17.9089
 20
15.2208
 11
-18.0898
 21
15.3094
  0
LINE
  8
0
 10
-18.0898
 20
15.3094
 11
-18.1159
 21
15.3213
  0
LINE
  8
0
 10
-18.1159
 20
15.3213
 11
-18.2968
 21
15.3973
  0
LINE
  8
0
 10
-18.2968
 20
15.3973
 11
-18.3243
 21
15.4079
  0
LINE
  8
0
 10
-18.3243
 20
15.4079
 11
-18.5069
 21
15.4722
  0
LINE
  8
0
 10
-18.5069
 20
15.4722
 11
-18.5356
 21
15.4814
  0
LINE
  8
0
 10
-18.5356
 20
15.4814
 11
-18.7198
 21
15.534
  0
LINE
  8
0
 10
-18.7198
 20
15.534
 11
-18.7495
 21
15.5416
  0
LINE
  8
0
 10
-18.7495
 20
15.5416
 11
-18.9353
 21
15.5825
  0
LINE
  8
0
 10
-18.9353
 20
15.5825
 11
-18.9658
 21
15.5882
  0
LINE
  8
0
 10
-18.9658
 20
15.5882
 11
-19.1532
 21
15.6175
  0
LINE
  8
0
 10
-19.1532
 20
15.6175
 11
-19.1841
 21
15.6213
  0
LINE
  8
0
 10
-19.1841
 20
15.6213
 11
-19.3731
 21
15.6389
  0
LINE
  8
0
 10
-19.3731
 20
15.6389
 11
-19.404
 21
15.6408
  0
LINE
  8
0
 10
-19.404
 20
15.6408
 11
-19.5946
 21
15.6466
  0
LINE
  8
0
 10
-19.5946
 20
15.6466
 11
-19.6392
 21
15.646
  0
LINE
  8
0
 10
-19.6392
 20
15.646
 11
-20.0329
 21
15.6229
  0
LINE
  8
0
 10
-20.0329
 20
15.6229
 11
-20.097
 21
15.6149
  0
LINE
  8
0
 10
-20.097
 20
15.6149
 11
-20.4621
 21
15.5455
  0
LINE
  8
0
 10
-20.4621
 20
15.5455
 11
-20.5312
 21
15.5272
  0
LINE
  8
0
 10
-20.5312
 20
15.5272
 11
-20.8677
 21
15.4116
  0
LINE
  8
0
 10
-20.8677
 20
15.4116
 11
-20.9379
 21
15.3813
  0
LINE
  8
0
 10
-20.9379
 20
15.3813
 11
-21.2458
 21
15.2194
  0
LINE
  8
0
 10
-21.2458
 20
15.2194
 11
-21.3119
 21
15.1777
  0
LINE
  8
0
 10
-21.3119
 20
15.1777
 11
-21.5912
 21
14.9696
  0
LINE
  8
0
 10
-21.5912
 20
14.9696
 11
-21.6486
 21
14.9196
  0
LINE
  8
0
 10
-21.6486
 20
14.9196
 11
-21.8993
 21
14.6653
  0
LINE
  8
0
 10
-21.8993
 20
14.6653
 11
-21.9454
 21
14.6114
  0
LINE
  8
0
 10
-21.9454
 20
14.6114
 11
-22.1675
 21
14.3107
  0
LINE
  8
0
 10
-22.1675
 20
14.3107
 11
-22.202
 21
14.2571
  0
LINE
  8
0
 10
-22.202
 20
14.2571
 11
-22.395
 21
13.9109
  0
LINE
  8
0
 10
-22.395
 20
13.9109
 11
-22.4196
 21
13.8602
  0
LINE
  8
0
 10
-22.4196
 20
13.8602
 11
-22.5829
 21
13.4692
  0
LINE
  8
0
 10
-22.5829
 20
13.4692
 11
-22.5995
 21
13.4231
  0
LINE
  8
0
 10
-22.5995
 20
13.4231
 11
-22.7331
 21
12.9873
  0
LINE
  8
0
 10
-22.7331
 20
12.9873
 11
-22.7438
 21
12.9464
  0
LINE
  8
0
 10
-22.7438
 20
12.9464
 11
-22.8477
 21
12.4659
  0
LINE
  8
0
 10
-22.8477
 20
12.4659
 11
-22.854
 21
12.4301
  0
LINE
  8
0
 10
-22.854
 20
12.4301
 11
-22.9283
 21
11.9048
  0
LINE
  8
0
 10
-22.9283
 20
11.9048
 11
-22.9317
 21
11.8737
  0
LINE
  8
0
 10
-22.9317
 20
11.8737
 11
-22.9762
 21
11.3036
  0
LINE
  8
0
 10
-22.9762
 20
11.3036
 11
-22.9775
 21
11.2767
  0
LINE
  8
0
 10
-22.9775
 20
11.2767
 11
-22.9924
 21
10.6617
  0
LINE
  8
0
 10
-22.9924
 20
10.6617
 11
-22.9924
 21
10.6375
  0
LINE
  8
0
 10
-22.9924
 20
10.6375
 11
-22.9775
 21
10.0249
  0
LINE
  8
0
 10
-22.9775
 20
10.0249
 11
-22.9762
 21
9.99791
  0
LINE
  8
0
 10
-22.9762
 20
9.99791
 11
-22.9316
 21
9.4297
  0
LINE
  8
0
 10
-22.9316
 20
9.4297
 11
-22.9282
 21
9.39864
  0
LINE
  8
0
 10
-22.9282
 20
9.39864
 11
-22.854
 21
8.87486
  0
LINE
  8
0
 10
-22.854
 20
8.87486
 11
-22.8476
 21
8.83908
  0
LINE
  8
0
 10
-22.8476
 20
8.83908
 11
-22.7437
 21
8.35974
  0
LINE
  8
0
 10
-22.7437
 20
8.35974
 11
-22.733
 21
8.31885
  0
LINE
  8
0
 10
-22.733
 20
8.31885
 11
-22.5995
 21
7.88397
  0
LINE
  8
0
 10
-22.5995
 20
7.88397
 11
-22.5828
 21
7.83789
  0
LINE
  8
0
 10
-22.5828
 20
7.83789
 11
-22.4195
 21
7.44745
  0
LINE
  8
0
 10
-22.4195
 20
7.44745
 11
-22.3949
 21
7.39682
  0
LINE
  8
0
 10
-22.3949
 20
7.39682
 11
-22.202
 21
7.05083
  0
LINE
  8
0
 10
-22.202
 20
7.05083
 11
-22.1674
 21
6.99722
  0
LINE
  8
0
 10
-22.1674
 20
6.99722
 11
-21.9453
 21
6.69661
  0
LINE
  8
0
 10
-21.9453
 20
6.69661
 11
-21.8993
 21
6.64273
  0
LINE
  8
0
 10
-21.8993
 20
6.64273
 11
-21.6486
 21
6.38837
  0
LINE
  8
0
 10
-21.6486
 20
6.38837
 11
-21.5912
 21
6.33842
  0
LINE
  8
0
 10
-21.5912
 20
6.33842
 11
-21.3119
 21
6.13031
  0
LINE
  8
0
 10
-21.3119
 20
6.13031
 11
-21.2458
 21
6.08868
  0
LINE
  8
0
 10
-21.2458
 20
6.08868
 11
-20.9379
 21
5.9268
  0
LINE
  8
0
 10
-20.9379
 20
5.9268
 11
-20.8677
 21
5.8965
  0
LINE
  8
0
 10
-20.8677
 20
5.8965
 11
-20.5312
 21
5.78088
  0
LINE
  8
0
 10
-20.5312
 20
5.78088
 11
-20.4621
 21
5.76254
  0
LINE
  8
0
 10
-20.4621
 20
5.76254
 11
-20.0969
 21
5.69318
  0
LINE
  8
0
 10
-20.0969
 20
5.69318
 11
-20.0329
 21
5.68524
  0
LINE
  8
0
 10
-20.0329
 20
5.68524
 11
-19.6392
 21
5.66211
  0
LINE
  8
0
 10
-19.6392
 20
5.66211
 11
-19.5946
 21
5.66148
  0
LINE
  8
0
 10
-19.5946
 20
5.66148
 11
-19.404
 21
5.66733
  0
LINE
  8
0
 10
-19.404
 20
5.66733
 11
-19.3731
 21
5.66924
  0
LINE
  8
0
 10
-19.3731
 20
5.66924
 11
-19.1841
 21
5.68677
  0
LINE
  8
0
 10
-19.1841
 20
5.68677
 11
-19.1532
 21
5.69061
  0
LINE
  8
0
 10
-19.1532
 20
5.69061
 11
-18.9658
 21
5.71985
  0
LINE
  8
0
 10
-18.9658
 20
5.71985
 11
-18.9354
 21
5.72557
  0
LINE
  8
0
 10
-18.9354
 20
5.72557
 11
-18.7496
 21
5.76648
  0
LINE
  8
0
 10
-18.7496
 20
5.76648
 11
-18.7198
 21
5.774
  0
LINE
  8
0
 10
-18.7198
 20
5.774
 11
-18.5357
 21
5.8266
  0
LINE
  8
0
 10
-18.5357
 20
5.8266
 11
-18.5069
 21
5.83578
  0
LINE
  8
0
 10
-18.5069
 20
5.83578
 11
-18.3244
 21
5.90009
  0
LINE
  8
0
 10
-18.3244
 20
5.90009
 11
-18.2969
 21
5.91069
  0
LINE
  8
0
 10
-18.2969
 20
5.91069
 11
-18.116
 21
5.98666
  0
LINE
  8
0
 10
-18.116
 20
5.98666
 11
-18.0897
 21
5.99861
  0
LINE
  8
0
 10
-18.0897
 20
5.99861
 11
-17.9088
 21
6.08722
  0
LINE
  8
0
 10
-17.9088
 20
6.08722
 11
-17.8847
 21
6.09985
  0
LINE
  8
0
 10
-17.8847
 20
6.09985
 11
-17.7021
 21
6.20193
  0
LINE
  8
0
 10
-17.7021
 20
6.20193
 11
-17.6804
 21
6.21483
  0
LINE
  8
0
 10
-17.6804
 20
6.21483
 11
-17.5093
 21
6.32224
  0
LINE
  8
0
 10
-17.5093
 20
6.32224
 11
-17.5093
 21
4.772
  0
LINE
  8
0
 10
-17.5093
 20
4.772
 11
-17.5632
 21
4.74786
  0
LINE
  8
0
 10
-17.5632
 20
4.74786
 11
-17.7296
 21
4.68025
  0
LINE
  8
0
 10
-17.7296
 20
4.68025
 11
-17.8986
 21
4.61839
  0
LINE
  8
0
 10
-17.8986
 20
4.61839
 11
-18.0691
 21
4.5627
  0
LINE
  8
0
 10
-18.0691
 20
4.5627
 11
-18.2426
 21
4.5127
  0
LINE
  8
0
 10
-18.2426
 20
4.5127
 11
-18.4189
 21
4.46838
  0
LINE
  8
0
 10
-18.4189
 20
4.46838
 11
-18.597
 21
4.43018
  0
LINE
  8
0
 10
-18.597
 20
4.43018
 11
-18.7785
 21
4.39767
  0
LINE
  8
0
 10
-18.7785
 20
4.39767
 11
-18.9633
 21
4.37099
  0
LINE
  8
0
 10
-18.9633
 20
4.37099
 11
-19.1508
 21
4.35023
  0
LINE
  8
0
 10
-19.1508
 20
4.35023
 11
-19.342
 21
4.33534
  0
LINE
  8
0
 10
-19.342
 20
4.33534
 11
-19.536
 21
4.32639
  0
LINE
  8
0
 10
-19.536
 20
4.32639
 11
-19.7249
 21
4.32352
  0
LINE
  8
0
 10
-19.7249
 20
4.32352
 11
-20.417
 21
4.35725
  0
LINE
  8
0
 10
-12.115
 20
9.93854
 11
-8.862
 21
9.93854
  0
LINE
  8
0
 10
-8.862
 20
9.93854
 11
-8.862
 21
4.08125
  0
LINE
  8
0
 10
-8.862
 20
4.08125
 11
-6.26135
 21
4.08125
  0
LINE
  8
0
 10
-6.26135
 20
4.08125
 11
-6.26135
 21
17.2435
  0
LINE
  8
0
 10
-6.26135
 20
17.2435
 11
-8.862
 21
17.2435
  0
LINE
  8
0
 10
-8.862
 20
17.2435
 11
-8.862
 21
12.2265
  0
LINE
  8
0
 10
-8.862
 20
12.2265
 11
-12.115
 21
12.2265
  0
LINE
  8
0
 10
-12.115
 20
12.2265
 11
-12.115
 21
17.2435
  0
LINE
  8
0
 10
-12.115
 20
17.2435
 11
-14.7156
 21
17.2435
  0
LINE
  8
0
 10
-14.7156
 20
17.2435
 11
-14.7156
 21
4.08125
  0
LINE
  8
0
 10
-14.7156
 20
4.08125
 11
-12.115
 21
4.08125
  0
LINE
  8
0
 10
-12.115
 20
4.08125
 11
-12.115
 21
9.93854
  0
LINE
  8
0
 10
-14.2156
 20
4.58125
 11
-14.2156
 21
16.7435
  0
LINE
  8
0
 10
-14.2156
 20
16.7435
 11
-12.615
 21
16.7435
  0
LINE
  8
0
 10
-12.615
 20
16.7435
 11
-12.615
 21
12.2265
  0
LINE
  8
0
 10
-12.615
 20
12.2265
 11
-12.6061
 21
12.1328
  0
LINE
  8
0
 10
-12.6061
 20
12.1328
 11
-12.5905
 21
12.072
  0
LINE
  8
0
 10
-12.5905
 20
12.072
 11
-12.5674
 21
12.0136
  0
LINE
  8
0
 10
-12.5674
 20
12.0136
 11
-12.5372
 21
11.9586
  0
LINE
  8
0
 10
-12.5372
 20
11.9586
 11
-12.5002
 21
11.9078
  0
LINE
  8
0
 10
-12.5002
 20
11.9078
 11
-12.4573
 21
11.862
  0
LINE
  8
0
 10
-12.4573
 20
11.862
 11
-12.4089
 21
11.822
  0
LINE
  8
0
 10
-12.4089
 20
11.822
 11
-12.3559
 21
11.7884
  0
LINE
  8
0
 10
-12.3559
 20
11.7884
 11
-12.2991
 21
11.7616
  0
LINE
  8
0
 10
-12.2991
 20
11.7616
 11
-12.2393
 21
11.7422
  0
LINE
  8
0
 10
-12.2393
 20
11.7422
 11
-12.1777
 21
11.7305
  0
LINE
  8
0
 10
-12.1777
 20
11.7305
 11
-12.115
 21
11.7265
  0
LINE
  8
0
 10
-12.115
 20
11.7265
 11
-8.862
 21
11.7265
  0
LINE
  8
0
 10
-8.862
 20
11.7265
 11
-8.76831
 21
11.7354
  0
LINE
  8
0
 10
-8.76831
 20
11.7354
 11
-8.70749
 21
11.751
  0
LINE
  8
0
 10
-8.70749
 20
11.751
 11
-8.64911
 21
11.7741
  0
LINE
  8
0
 10
-8.64911
 20
11.7741
 11
-8.59409
 21
11.8044
  0
LINE
  8
0
 10
-8.59409
 20
11.8044
 11
-8.54329
 21
11.8413
  0
LINE
  8
0
 10
-8.54329
 20
11.8413
 11
-8.49751
 21
11.8842
  0
LINE
  8
0
 10
-8.49751
 20
11.8842
 11
-8.45749
 21
11.9326
  0
LINE
  8
0
 10
-8.45749
 20
11.9326
 11
-8.42384
 21
11.9856
  0
LINE
  8
0
 10
-8.42384
 20
11.9856
 11
-8.39711
 21
12.0424
  0
LINE
  8
0
 10
-8.39711
 20
12.0424
 11
-8.3777
 21
12.1022
  0
LINE
  8
0
 10
-8.3777
 20
12.1022
 11
-8.36594
 21
12.1638
  0
LINE
  8
0
 10
-8.36594
 20
12.1638
 11
-8.362
 21
12.2265
  0
LINE
  8
0
 10
-8.362
 20
12.2265
 11
-8.362
 21
16.7435
  0
LINE
  8
0
 10
-8.362
 20
16.7435
 11
-6.76135
 21
16.7435
  0
LINE
  8
0
 10
-6.76135
 20
16.7435
 11
-6.76135
 21
4.58125
  0
LINE
  8
0
 10
-6.76135
 20
4.58125
 11
-8.362
 21
4.58125
  0
LINE
  8
0
 10
-8.362
 20
4.58125
 11
-8.362
 21
9.93854
  0
LINE
  8
0
 10
-8.362
 20
9.93854
 11
-8.37085
 21
10.0322
  0
LINE
  8
0
 10
-8.37085
 20
10.0322
 11
-8.38647
 21
10.093
  0
LINE
  8
0
 10
-8.38647
 20
10.093
 11
-8.40959
 21
10.1514
  0
LINE
  8
0
 10
-8.40959
 20
10.1514
 11
-8.43983
 21
10.2065
  0
LINE
  8
0
 10
-8.43983
 20
10.2065
 11
-8.47675
 21
10.2572
  0
LINE
  8
0
 10
-8.47675
 20
10.2572
 11
-8.51973
 21
10.303
  0
LINE
  8
0
 10
-8.51973
 20
10.303
 11
-8.5681
 21
10.343
  0
LINE
  8
0
 10
-8.5681
 20
10.343
 11
-8.62112
 21
10.3767
  0
LINE
  8
0
 10
-8.62112
 20
10.3767
 11
-8.67793
 21
10.4034
  0
LINE
  8
0
 10
-8.67793
 20
10.4034
 11
-8.73766
 21
10.4228
  0
LINE
  8
0
 10
-8.73766
 20
10.4228
 11
-8.79933
 21
10.4346
  0
LINE
  8
0
 10
-8.79933
 20
10.4346
 11
-8.862
 21
10.4385
  0
LINE
  8
0
 10
-8.862
 20
10.4385
 11
-12.115
 21
10.4385
  0
LINE
  8
0
 10
-12.115
 20
10.4385
 11
-12.2087
 21
10.4297
  0
LINE
  8
0
 10
-12.2087
 20
10.4297
 11
-12.2695
 21
10.4141
  0
LINE
  8
0
 10
-12.2695
 20
10.4141
 11
-12.3279
 21
10.3909
  0
LINE
  8
0
 10
-12.3279
 20
10.3909
 11
-12.3829
 21
10.3607
  0
LINE
  8
0
 10
-12.3829
 20
10.3607
 11
-12.4337
 21
10.3238
  0
LINE
  8
0
 10
-12.4337
 20
10.3238
 11
-12.4795
 21
10.2808
  0
LINE
  8
0
 10
-12.4795
 20
10.2808
 11
-12.5195
 21
10.2324
  0
LINE
  8
0
 10
-12.5195
 20
10.2324
 11
-12.5531
 21
10.1794
  0
LINE
  8
0
 10
-12.5531
 20
10.1794
 11
-12.5799
 21
10.1226
  0
LINE
  8
0
 10
-12.5799
 20
10.1226
 11
-12.5993
 21
10.0629
  0
LINE
  8
0
 10
-12.5993
 20
10.0629
 11
-12.6111
 21
10.0012
  0
LINE
  8
0
 10
-12.6111
 20
10.0012
 11
-12.615
 21
9.93854
  0
LINE
  8
0
 10
-12.615
 20
9.93854
 11
-12.615
 21
4.58125
  0
LINE
  8
0
 10
-12.615
 20
4.58125
 11
-14.2156
 21
4.58125
  0
LINE
  8
0
 10
14.6611
 20
6.36926
 11
12.0429
 21
6.36926
  0
LINE
  8
0
 10
12.0429
 20
6.36926
 11
12.0429
 21
14.9555
  0
LINE
  8
0
 10
12.0429
 20
14.9555
 11
14.6611
 21
14.9555
  0
LINE
  8
0
 10
14.6611
 20
14.9555
 11
14.6611
 21
17.2435
  0
LINE
  8
0
 10
14.6611
 20
17.2435
 11
6.8241
 21
17.2435
  0
LINE
  8
0
 10
6.8241
 20
17.2435
 11
6.8241
 21
14.9555
  0
LINE
  8
0
 10
6.8241
 20
14.9555
 11
9.44229
 21
14.9555
  0
LINE
  8
0
 10
9.44229
 20
14.9555
 11
9.44229
 21
6.36926
  0
LINE
  8
0
 10
9.44229
 20
6.36926
 11
6.8241
 21
6.36926
  0
LINE
  8
0
 10
6.8241
 20
6.36926
 11
6.8241
 21
4.08125
  0
LINE
  8
0
 10
6.8241
 20
4.08125
 11
14.6611
 21
4.08125
  0
LINE
  8
0
 10
14.6611
 20
4.08125
 11
14.6611
 21
6.36926
  0
LINE
  8
0
 10
7.3241
 20
4.58125
 11
7.3241
 21
5.86926
  0
LINE
  8
0
 10
7.3241
 20
5.86926
 11
9.44229
 21
5.86926
  0
LINE
  8
0
 10
9.44229
 20
5.86926
 11
9.53598
 21
5.87811
  0
LINE
  8
0
 10
9.53598
 20
5.87811
 11
9.5968
 21
5.89374
  0
LINE
  8
0
 10
9.5968
 20
5.89374
 11
9.65518
 21
5.91685
  0
LINE
  8
0
 10
9.65518
 20
5.91685
 11
9.71021
 21
5.9471
  0
LINE
  8
0
 10
9.71021
 20
5.9471
 11
9.761
 21
5.98401
  0
LINE
  8
0
 10
9.761
 20
5.98401
 11
9.80678
 21
6.02699
  0
LINE
  8
0
 10
9.80678
 20
6.02699
 11
9.8468
 21
6.07536
  0
LINE
  8
0
 10
9.8468
 20
6.07536
 11
9.88045
 21
6.12839
  0
LINE
  8
0
 10
9.88045
 20
6.12839
 11
9.90718
 21
6.1852
  0
LINE
  8
0
 10
9.90718
 20
6.1852
 11
9.92659
 21
6.24492
  0
LINE
  8
0
 10
9.92659
 20
6.24492
 11
9.93835
 21
6.30659
  0
LINE
  8
0
 10
9.93835
 20
6.30659
 11
9.94229
 21
6.36926
  0
LINE
  8
0
 10
9.94229
 20
6.36926
 11
9.94229
 21
14.9555
  0
LINE
  8
0
 10
9.94229
 20
14.9555
 11
9.93344
 21
15.0492
  0
LINE
  8
0
 10
9.93344
 20
15.0492
 11
9.91782
 21
15.11
  0
LINE
  8
0
 10
9.91782
 20
15.11
 11
9.8947
 21
15.1684
  0
LINE
  8
0
 10
9.8947
 20
15.1684
 11
9.86446
 21
15.2234
  0
LINE
  8
0
 10
9.86446
 20
15.2234
 11
9.82755
 21
15.2742
  0
LINE
  8
0
 10
9.82755
 20
15.2742
 11
9.78456
 21
15.32
  0
LINE
  8
0
 10
9.78456
 20
15.32
 11
9.73619
 21
15.36
  0
LINE
  8
0
 10
9.73619
 20
15.36
 11
9.68317
 21
15.3936
  0
LINE
  8
0
 10
9.68317
 20
15.3936
 11
9.62636
 21
15.4204
  0
LINE
  8
0
 10
9.62636
 20
15.4204
 11
9.56664
 21
15.4398
  0
LINE
  8
0
 10
9.56664
 20
15.4398
 11
9.50496
 21
15.4515
  0
LINE
  8
0
 10
9.50496
 20
15.4515
 11
9.44229
 21
15.4555
  0
LINE
  8
0
 10
9.44229
 20
15.4555
 11
7.3241
 21
15.4555
  0
LINE
  8
0
 10
7.3241
 20
15.4555
 11
7.3241
 21
16.7435
  0
LINE
  8
0
 10
7.3241
 20
16.7435
 11
14.1611
 21
16.7435
  0
LINE
  8
0
 10
14.1611
 20
16.7435
 11
14.1611
 21
15.4555
  0
LINE
  8
0
 10
14.1611
 20
15.4555
 11
12.0429
 21
15.4555
  0
LINE
  8
0
 10
12.0429
 20
15.4555
 11
11.9492
 21
15.4466
  0
LINE
  8
0
 10
11.9492
 20
15.4466
 11
11.8884
 21
15.431
  0
LINE
  8
0
 10
11.8884
 20
15.431
 11
11.83
 21
15.4079
  0
LINE
  8
0
 10
11.83
 20
15.4079
 11
11.775
 21
15.3776
  0
LINE
  8
0
 10
11.775
 20
15.3776
 11
11.7242
 21
15.3407
  0
LINE
  8
0
 10
11.7242
 20
15.3407
 11
11.6785
 21
15.2977
  0
LINE
  8
0
 10
11.6785
 20
15.2977
 11
11.6384
 21
15.2494
  0
LINE
  8
0
 10
11.6384
 20
15.2494
 11
11.6048
 21
15.1964
  0
LINE
  8
0
 10
11.6048
 20
15.1964
 11
11.578
 21
15.1395
  0
LINE
  8
0
 10
11.578
 20
15.1395
 11
11.5586
 21
15.0798
  0
LINE
  8
0
 10
11.5586
 20
15.0798
 11
11.5469
 21
15.0181
  0
LINE
  8
0
 10
11.5469
 20
15.0181
 11
11.5429
 21
14.9555
  0
LINE
  8
0
 10
11.5429
 20
14.9555
 11
11.5429
 21
6.36926
  0
LINE
  8
0
 10
11.5429
 20
6.36926
 11
11.5518
 21
6.27557
  0
LINE
  8
0
 10
11.5518
 20
6.27557
 11
11.5674
 21
6.21475
  0
LINE
  8
0
 10
11.5674
 20
6.21475
 11
11.5905
 21
6.15637
  0
LINE
  8
0
 10
11.5905
 20
6.15637
 11
11.6208
 21
6.10135
  0
LINE
  8
0
 10
11.6208
 20
6.10135
 11
11.6577
 21
6.05055
  0
LINE
  8
0
 10
11.6577
 20
6.05055
 11
11.7007
 21
6.00478
  0
LINE
  8
0
 10
11.7007
 20
6.00478
 11
11.749
 21
5.96475
  0
LINE
  8
0
 10
11.749
 20
5.96475
 11
11.8021
 21
5.93111
  0
LINE
  8
0
 10
11.8021
 20
5.93111
 11
11.8589
 21
5.90437
  0
LINE
  8
0
 10
11.8589
 20
5.90437
 11
11.9186
 21
5.88496
  0
LINE
  8
0
 10
11.9186
 20
5.88496
 11
11.9803
 21
5.8732
  0
LINE
  8
0
 10
11.9803
 20
5.8732
 11
12.0429
 21
5.86926
  0
LINE
  8
0
 10
12.0429
 20
5.86926
 11
14.1611
 21
5.86926
  0
LINE
  8
0
 10
14.1611
 20
5.86926
 11
14.1611
 21
4.58125
  0
LINE
  8
0
 10
14.1611
 20
4.58125
 11
7.3241
 21
4.58125
  0
LINE
  8
0
 10
-1.53465
 20
9.28127
 11
-0.706039
 21
9.28127
  0
LINE
  8
0
 10
-0.706039
 20
9.28127
 11
-0.441559
 21
9.25085
  0
LINE
  8
0
 10
-0.441559
 20
9.25085
 11
-0.187164
 21
9.15967
  0
LINE
  8
0
 10
-0.187164
 20
9.15967
 11
0.0571289
 21
9.00768
  0
LINE
  8
0
 10
0.0571289
 20
9.00768
 11
0.291367
 21
8.79488
  0
LINE
  8
0
 10
0.291367
 20
8.79488
 11
0.515533
 21
8.52129
  0
LINE
  8
0
 10
0.515533
 20
8.52129
 11
0.72963
 21
8.1869
  0
LINE
  8
0
 10
0.72963
 20
8.1869
 11
0.93364
 21
7.79172
  0
LINE
  8
0
 10
0.93364
 20
7.79172
 11
0.9655
 21
7.72337
  0
LINE
  8
0
 10
0.9655
 20
7.72337
 11
0.995544
 21
7.65935
  0
LINE
  8
0
 10
0.995544
 20
7.65935
 11
1.0238
 21
7.59964
  0
LINE
  8
0
 10
1.0238
 20
7.59964
 11
1.05025
 21
7.54424
  0
LINE
  8
0
 10
1.05025
 20
7.54424
 11
1.07489
 21
7.49315
  0
LINE
  8
0
 10
1.07489
 20
7.49315
 11
1.09773
 21
7.44638
  0
LINE
  8
0
 10
1.09773
 20
7.44638
 11
1.11876
 21
7.40393
  0
LINE
  8
0
 10
1.11876
 20
7.40393
 11
2.70567
 21
4.08125
  0
LINE
  8
0
 10
2.70567
 20
4.08125
 11
5.5619
 21
4.08125
  0
LINE
  8
0
 10
5.5619
 20
4.08125
 11
3.18159
 21
8.81416
  0
LINE
  8
0
 10
3.18159
 20
8.81416
 11
3.06583
 21
9.03996
  0
LINE
  8
0
 10
3.06583
 20
9.03996
 11
2.95528
 21
9.24361
  0
LINE
  8
0
 10
2.95528
 20
9.24361
 11
2.84995
 21
9.42513
  0
LINE
  8
0
 10
2.84995
 20
9.42513
 11
2.74983
 21
9.5845
  0
LINE
  8
0
 10
2.74983
 20
9.5845
 11
2.65492
 21
9.72176
  0
LINE
  8
0
 10
2.65492
 20
9.72176
 11
2.56525
 21
9.83685
  0
LINE
  8
0
 10
2.56525
 20
9.83685
 11
2.48077
 21
9.92982
  0
LINE
  8
0
 10
2.48077
 20
9.92982
 11
2.39687
 21
10.0075
  0
LINE
  8
0
 10
2.39687
 20
10.0075
 11
2.30882
 21
10.0767
  0
LINE
  8
0
 10
2.30882
 20
10.0767
 11
2.21664
 21
10.1375
  0
LINE
  8
0
 10
2.21664
 20
10.1375
 11
2.12032
 21
10.1898
  0
LINE
  8
0
 10
2.12032
 20
10.1898
 11
2.01984
 21
10.2336
  0
LINE
  8
0
 10
2.01984
 20
10.2336
 11
1.91522
 21
10.269
  0
LINE
  8
0
 10
1.91522
 20
10.269
 11
1.80646
 21
10.2959
  0
LINE
  8
0
 10
1.80646
 20
10.2959
 11
2.1497
 21
10.3544
  0
LINE
  8
0
 10
2.1497
 20
10.3544
 11
2.46921
 21
10.4391
  0
LINE
  8
0
 10
2.46921
 20
10.4391
 11
2.76497
 21
10.5501
  0
LINE
  8
0
 10
2.76497
 20
10.5501
 11
3.03699
 21
10.6874
  0
LINE
  8
0
 10
3.03699
 20
10.6874
 11
3.28526
 21
10.851
  0
LINE
  8
0
 10
3.28526
 20
10.851
 11
3.50978
 21
11.0408
  0
LINE
  8
0
 10
3.50978
 20
11.0408
 11
3.71057
 21
11.2569
  0
LINE
  8
0
 10
3.71057
 20
11.2569
 11
3.88599
 21
11.4974
  0
LINE
  8
0
 10
3.88599
 20
11.4974
 11
4.03441
 21
11.7607
  0
LINE
  8
0
 10
4.03441
 20
11.7607
 11
4.15585
 21
12.0466
  0
LINE
  8
0
 10
4.15585
 20
12.0466
 11
4.25031
 21
12.3552
  0
LINE
  8
0
 10
4.25031
 20
12.3552
 11
4.31778
 21
12.6865
  0
LINE
  8
0
 10
4.31778
 20
12.6865
 11
4.35826
 21
13.0404
  0
LINE
  8
0
 10
4.35826
 20
13.0404
 11
4.37175
 21
13.4171
  0
LINE
  8
0
 10
4.37175
 20
13.4171
 11
4.34917
 21
13.9734
  0
LINE
  8
0
 10
4.34917
 20
13.9734
 11
4.28143
 21
14.4837
  0
LINE
  8
0
 10
4.28143
 20
14.4837
 11
4.16853
 21
14.9479
  0
LINE
  8
0
 10
4.16853
 20
14.9479
 11
4.01047
 21
15.366
  0
LINE
  8
0
 10
4.01047
 20
15.366
 11
3.80725
 21
15.7381
  0
LINE
  8
0
 10
3.80725
 20
15.7381
 11
3.55887
 21
16.0642
  0
LINE
  8
0
 10
3.55887
 20
16.0642
 11
3.26532
 21
16.3441
  0
LINE
  8
0
 10
3.26532
 20
16.3441
 11
2.92
 21
16.5827
  0
LINE
  8
0
 10
2.92
 20
16.5827
 11
2.5162
 21
16.7846
  0
LINE
  8
0
 10
2.5162
 20
16.7846
 11
2.05392
 21
16.9498
  0
LINE
  8
0
 10
2.05392
 20
16.9498
 11
1.53319
 21
17.0783
  0
LINE
  8
0
 10
1.53319
 20
17.0783
 11
0.953979
 21
17.1701
  0
LINE
  8
0
 10
0.953979
 20
17.1701
 11
0.316284
 21
17.2251
  0
LINE
  8
0
 10
0.316284
 20
17.2251
 11
-0.379868
 21
17.2435
  0
LINE
  8
0
 10
-0.379868
 20
17.2435
 11
-4.1353
 21
17.2435
  0
LINE
  8
0
 10
-4.1353
 20
17.2435
 11
-4.1353
 21
4.08125
  0
LINE
  8
0
 10
-4.1353
 20
4.08125
 11
-1.53465
 21
4.08125
  0
LINE
  8
0
 10
-1.53465
 20
4.08125
 11
-1.53465
 21
9.28127
  0
LINE
  8
0
 10
-3.6353
 20
4.58125
 11
-3.6353
 21
16.7435
  0
LINE
  8
0
 10
-3.6353
 20
16.7435
 11
-0.386688
 21
16.7435
  0
LINE
  8
0
 10
-0.386688
 20
16.7435
 11
0.288162
 21
16.7257
  0
LINE
  8
0
 10
0.288162
 20
16.7257
 11
0.893417
 21
16.6734
  0
LINE
  8
0
 10
0.893417
 20
16.6734
 11
1.43396
 21
16.5878
  0
LINE
  8
0
 10
1.43396
 20
16.5878
 11
1.90958
 21
16.4704
  0
LINE
  8
0
 10
1.90958
 20
16.4704
 11
2.31952
 21
16.324
  0
LINE
  8
0
 10
2.31952
 20
16.324
 11
2.66483
 21
16.1513
  0
LINE
  8
0
 10
2.66483
 20
16.1513
 11
2.94872
 21
15.9552
  0
LINE
  8
0
 10
2.94872
 20
15.9552
 11
3.18517
 21
15.7296
  0
LINE
  8
0
 10
3.18517
 20
15.7296
 11
3.38658
 21
15.4652
  0
LINE
  8
0
 10
3.38658
 20
15.4652
 11
3.55504
 21
15.1568
  0
LINE
  8
0
 10
3.55504
 20
15.1568
 11
3.68994
 21
14.7999
  0
LINE
  8
0
 10
3.68994
 20
14.7999
 11
3.78929
 21
14.3914
  0
LINE
  8
0
 10
3.78929
 20
14.3914
 11
3.85051
 21
13.9303
  0
LINE
  8
0
 10
3.85051
 20
13.9303
 11
3.87138
 21
13.4159
  0
LINE
  8
0
 10
3.87138
 20
13.4159
 11
3.85928
 21
13.0779
  0
LINE
  8
0
 10
3.85928
 20
13.0779
 11
3.82349
 21
12.7649
  0
LINE
  8
0
 10
3.82349
 20
12.7649
 11
3.76514
 21
12.4785
  0
LINE
  8
0
 10
3.76514
 20
12.4785
 11
3.68542
 21
12.218
  0
LINE
  8
0
 10
3.68542
 20
12.218
 11
3.58513
 21
11.9819
  0
LINE
  8
0
 10
3.58513
 20
11.9819
 11
3.46475
 21
11.7684
  0
LINE
  8
0
 10
3.46475
 20
11.7684
 11
3.32411
 21
11.5755
  0
LINE
  8
0
 10
3.32411
 20
11.5755
 11
3.16397
 21
11.4032
  0
LINE
  8
0
 10
3.16397
 20
11.4032
 11
2.98534
 21
11.2521
  0
LINE
  8
0
 10
2.98534
 20
11.2521
 11
2.78598
 21
11.1208
  0
LINE
  8
0
 10
2.78598
 20
11.1208
 11
2.56386
 21
11.0087
  0
LINE
  8
0
 10
2.56386
 20
11.0087
 11
2.31683
 21
10.916
  0
LINE
  8
0
 10
2.31683
 20
10.916
 11
2.0435
 21
10.8435
  0
LINE
  8
0
 10
2.0435
 20
10.8435
 11
1.72249
 21
10.7888
  0
LINE
  8
0
 10
1.72249
 20
10.7888
 11
1.67795
 21
10.7791
  0
LINE
  8
0
 10
1.67795
 20
10.7791
 11
1.61841
 21
10.7592
  0
LINE
  8
0
 10
1.61841
 20
10.7592
 11
1.56183
 21
10.732
  0
LINE
  8
0
 10
1.56183
 20
10.732
 11
1.50909
 21
10.6979
  0
LINE
  8
0
 10
1.50909
 20
10.6979
 11
1.46106
 21
10.6574
  0
LINE
  8
0
 10
1.46106
 20
10.6574
 11
1.41847
 21
10.6113
  0
LINE
  8
0
 10
1.41847
 20
10.6113
 11
1.382
 21
10.5602
  0
LINE
  8
0
 10
1.382
 20
10.5602
 11
1.35223
 21
10.5049
  0
LINE
  8
0
 10
1.35223
 20
10.5049
 11
1.32962
 21
10.4463
  0
LINE
  8
0
 10
1.32962
 20
10.4463
 11
1.31453
 21
10.3854
  0
LINE
  8
0
 10
1.31453
 20
10.3854
 11
1.30719
 21
10.323
  0
LINE
  8
0
 10
1.30719
 20
10.323
 11
1.30774
 21
10.2602
  0
LINE
  8
0
 10
1.30774
 20
10.2602
 11
1.31613
 21
10.198
  0
LINE
  8
0
 10
1.31613
 20
10.198
 11
1.33228
 21
10.1373
  0
LINE
  8
0
 10
1.33228
 20
10.1373
 11
1.3559
 21
10.0791
  0
LINE
  8
0
 10
1.3559
 20
10.0791
 11
1.38661
 21
10.0244
  0
LINE
  8
0
 10
1.38661
 20
10.0244
 11
1.42395
 21
9.97391
  0
LINE
  8
0
 10
1.42395
 20
9.97391
 11
1.46733
 21
9.9285
  0
LINE
  8
0
 10
1.46733
 20
9.9285
 11
1.51605
 21
9.8889
  0
LINE
  8
0
 10
1.51605
 20
9.8889
 11
1.56935
 21
9.85571
  0
LINE
  8
0
 10
1.56935
 20
9.85571
 11
1.6264
 21
9.82947
  0
LINE
  8
0
 10
1.6264
 20
9.82947
 11
1.68628
 21
9.81058
  0
LINE
  8
0
 10
1.68628
 20
9.81058
 11
1.77481
 21
9.78865
  0
LINE
  8
0
 10
1.77481
 20
9.78865
 11
1.83932
 21
9.76683
  0
LINE
  8
0
 10
1.83932
 20
9.76683
 11
1.90077
 21
9.74002
  0
LINE
  8
0
 10
1.90077
 20
9.74002
 11
1.95926
 21
9.70827
  0
LINE
  8
0
 10
1.95926
 20
9.70827
 11
2.01624
 21
9.67072
  0
LINE
  8
0
 10
2.01624
 20
9.67072
 11
2.07193
 21
9.62694
  0
LINE
  8
0
 10
2.07193
 20
9.62694
 11
2.12538
 21
9.57745
  0
LINE
  8
0
 10
2.12538
 20
9.57745
 11
2.18236
 21
9.51474
  0
LINE
  8
0
 10
2.18236
 20
9.51474
 11
2.25177
 21
9.42567
  0
LINE
  8
0
 10
2.25177
 20
9.42567
 11
2.33228
 21
9.30923
  0
LINE
  8
0
 10
2.33228
 20
9.30923
 11
2.42194
 21
9.1665
  0
LINE
  8
0
 10
2.42194
 20
9.1665
 11
2.51935
 21
8.99864
  0
LINE
  8
0
 10
2.51935
 20
8.99864
 11
2.62343
 21
8.8069
  0
LINE
  8
0
 10
2.62343
 20
8.8069
 11
2.73599
 21
8.58734
  0
LINE
  8
0
 10
2.73599
 20
8.58734
 11
4.75076
 21
4.58125
  0
LINE
  8
0
 10
4.75076
 20
4.58125
 11
3.02098
 21
4.58125
  0
LINE
  8
0
 10
3.02098
 20
4.58125
 11
1.56995
 21
7.61942
  0
LINE
  8
0
 10
1.56995
 20
7.61942
 11
1.5668
 21
7.62585
  0
LINE
  8
0
 10
1.5668
 20
7.62585
 11
1.54701
 21
7.66582
  0
LINE
  8
0
 10
1.54701
 20
7.66582
 11
1.52524
 21
7.71039
  0
LINE
  8
0
 10
1.52524
 20
7.71039
 11
1.5006
 21
7.76147
  0
LINE
  8
0
 10
1.5006
 20
7.76147
 11
1.47574
 21
7.81354
  0
LINE
  8
0
 10
1.47574
 20
7.81354
 11
1.44748
 21
7.87325
  0
LINE
  8
0
 10
1.44748
 20
7.87325
 11
1.41814
 21
7.93578
  0
LINE
  8
0
 10
1.41814
 20
7.93578
 11
1.38681
 21
8.00298
  0
LINE
  8
0
 10
1.38681
 20
8.00298
 11
1.37793
 21
8.02107
  0
LINE
  8
0
 10
1.37793
 20
8.02107
 11
1.17392
 21
8.41626
  0
LINE
  8
0
 10
1.17392
 20
8.41626
 11
1.15071
 21
8.45651
  0
LINE
  8
0
 10
1.15071
 20
8.45651
 11
0.936615
 21
8.79089
  0
LINE
  8
0
 10
0.936615
 20
8.79089
 11
0.902283
 21
8.83818
  0
LINE
  8
0
 10
0.902283
 20
8.83818
 11
0.678116
 21
9.11177
  0
LINE
  8
0
 10
0.678116
 20
9.11177
 11
0.627579
 21
9.16496
  0
LINE
  8
0
 10
0.627579
 20
9.16496
 11
0.393341
 21
9.37776
  0
LINE
  8
0
 10
0.393341
 20
9.37776
 11
0.321259
 21
9.43221
  0
LINE
  8
0
 10
0.321259
 20
9.43221
 11
0.0769653
 21
9.5842
  0
LINE
  8
0
 10
0.0769653
 20
9.5842
 11
0.0392151
 21
9.60548
  0
LINE
  8
0
 10
0.0392151
 20
9.60548
 11
-0.0184479
 21
9.63034
  0
LINE
  8
0
 10
-0.0184479
 20
9.63034
 11
-0.272842
 21
9.72153
  0
LINE
  8
0
 10
-0.272842
 20
9.72153
 11
-0.322632
 21
9.73651
  0
LINE
  8
0
 10
-0.322632
 20
9.73651
 11
-0.384445
 21
9.74759
  0
LINE
  8
0
 10
-0.384445
 20
9.74759
 11
-0.648926
 21
9.778
  0
LINE
  8
0
 10
-0.648926
 20
9.778
 11
-0.706039
 21
9.78127
  0
LINE
  8
0
 10
-0.706039
 20
9.78127
 11
-1.53465
 21
9.78127
  0
LINE
  8
0
 10
-1.53465
 20
9.78127
 11
-1.62834
 21
9.77242
  0
LINE
  8
0
 10
-1.62834
 20
9.77242
 11
-1.68916
 21
9.75679
  0
LINE
  8
0
 10
-1.68916
 20
9.75679
 11
-1.74754
 21
9.73367
  0
LINE
  8
0
 10
-1.74754
 20
9.73367
 11
-1.80257
 21
9.70343
  0
LINE
  8
0
 10
-1.80257
 20
9.70343
 11
-1.85336
 21
9.66652
  0
LINE
  8
0
 10
-1.85336
 20
9.66652
 11
-1.89914
 21
9.62354
  0
LINE
  8
0
 10
-1.89914
 20
9.62354
 11
-1.93916
 21
9.57516
  0
LINE
  8
0
 10
-1.93916
 20
9.57516
 11
-1.97281
 21
9.52214
  0
LINE
  8
0
 10
-1.97281
 20
9.52214
 11
-1.99954
 21
9.46533
  0
LINE
  8
0
 10
-1.99954
 20
9.46533
 11
-2.01895
 21
9.40561
  0
LINE
  8
0
 10
-2.01895
 20
9.40561
 11
-2.03072
 21
9.34393
  0
LINE
  8
0
 10
-2.03072
 20
9.34393
 11
-2.03465
 21
9.28127
  0
LINE
  8
0
 10
-2.03465
 20
9.28127
 11
-2.03465
 21
4.58125
  0
LINE
  8
0
 10
-2.03465
 20
4.58125
 11
-3.6353
 21
4.58125
  0
LINE
  8
0
 10
-0.294708
 20
10.9696
 11
-0.00227356
 21
10.9781
  0
LINE
  8
0
 10
-0.00227356
 20
10.9781
 11
0.0308075
 21
10.9802
  0
LINE
  8
0
 10
0.0308075
 20
10.9802
 11
0.298584
 21
11.0058
  0
LINE
  8
0
 10
0.298584
 20
11.0058
 11
0.337402
 21
11.0111
  0
LINE
  8
0
 10
0.337402
 20
11.0111
 11
0.580536
 21
11.0538
  0
LINE
  8
0
 10
0.580536
 20
11.0538
 11
0.626022
 21
11.064
  0
LINE
  8
0
 10
0.626022
 20
11.064
 11
0.844513
 21
11.1238
  0
LINE
  8
0
 10
0.844513
 20
11.1238
 11
0.896835
 21
11.1413
  0
LINE
  8
0
 10
0.896835
 20
11.1413
 11
1.09068
 21
11.2181
  0
LINE
  8
0
 10
1.09068
 20
11.2181
 11
1.14912
 21
11.2458
  0
LINE
  8
0
 10
1.14912
 20
11.2458
 11
1.31833
 21
11.3397
  0
LINE
  8
0
 10
1.31833
 20
11.3397
 11
1.38017
 21
11.3803
  0
LINE
  8
0
 10
1.38017
 20
11.3803
 11
1.52472
 21
11.4913
  0
LINE
  8
0
 10
1.52472
 20
11.4913
 11
1.58449
 21
11.5455
  0
LINE
  8
0
 10
1.58449
 20
11.5455
 11
1.70728
 21
11.6761
  0
LINE
  8
0
 10
1.70728
 20
11.6761
 11
1.75639
 21
11.7374
  0
LINE
  8
0
 10
1.75639
 20
11.7374
 11
1.86029
 21
11.8901
  0
LINE
  8
0
 10
1.86029
 20
11.8901
 11
1.89653
 21
11.9527
  0
LINE
  8
0
 10
1.89653
 20
11.9527
 11
1.98154
 21
12.1276
  0
LINE
  8
0
 10
1.98154
 20
12.1276
 11
2.00586
 21
12.1871
  0
LINE
  8
0
 10
2.00586
 20
12.1871
 11
2.07198
 21
12.384
  0
LINE
  8
0
 10
2.07198
 20
12.384
 11
2.08675
 21
12.4378
  0
LINE
  8
0
 10
2.08675
 20
12.4378
 11
2.13396
 21
12.6569
  0
LINE
  8
0
 10
2.13396
 20
12.6569
 11
2.14175
 21
12.7039
  0
LINE
  8
0
 10
2.14175
 20
12.7039
 11
2.17009
 21
12.9451
  0
LINE
  8
0
 10
2.17009
 20
12.9451
 11
2.17319
 21
12.9855
  0
LINE
  8
0
 10
2.17319
 20
12.9855
 11
2.18263
 21
13.2489
  0
LINE
  8
0
 10
2.18263
 20
13.2489
 11
2.18263
 21
13.2845
  0
LINE
  8
0
 10
2.18263
 20
13.2845
 11
2.17328
 21
13.5478
  0
LINE
  8
0
 10
2.17328
 20
13.5478
 11
2.17024
 21
13.5879
  0
LINE
  8
0
 10
2.17024
 20
13.5879
 11
2.14218
 21
13.8288
  0
LINE
  8
0
 10
2.14218
 20
13.8288
 11
2.13448
 21
13.8755
  0
LINE
  8
0
 10
2.13448
 20
13.8755
 11
2.08771
 21
14.0942
  0
LINE
  8
0
 10
2.08771
 20
14.0942
 11
2.07307
 21
14.1478
  0
LINE
  8
0
 10
2.07307
 20
14.1478
 11
2.00758
 21
14.3441
  0
LINE
  8
0
 10
2.00758
 20
14.3441
 11
1.98338
 21
14.4036
  0
LINE
  8
0
 10
1.98338
 20
14.4036
 11
1.8992
 21
14.5777
  0
LINE
  8
0
 10
1.8992
 20
14.5777
 11
1.8629
 21
14.6406
  0
LINE
  8
0
 10
1.8629
 20
14.6406
 11
1.75999
 21
14.7923
  0
LINE
  8
0
 10
1.75999
 20
14.7923
 11
1.71062
 21
14.854
  0
LINE
  8
0
 10
1.71062
 20
14.854
 11
1.589
 21
14.9835
  0
LINE
  8
0
 10
1.589
 20
14.9835
 11
1.52849
 21
15.0382
  0
LINE
  8
0
 10
1.52849
 20
15.0382
 11
1.38493
 21
15.1481
  0
LINE
  8
0
 10
1.38493
 20
15.1481
 11
1.32234
 21
15.1889
  0
LINE
  8
0
 10
1.32234
 20
15.1889
 11
1.15359
 21
15.2819
  0
LINE
  8
0
 10
1.15359
 20
15.2819
 11
1.09485
 21
15.3095
  0
LINE
  8
0
 10
1.09485
 20
15.3095
 11
0.900909
 21
15.3856
  0
LINE
  8
0
 10
0.900909
 20
15.3856
 11
0.848694
 21
15.4028
  0
LINE
  8
0
 10
0.848694
 20
15.4028
 11
0.629562
 21
15.462
  0
LINE
  8
0
 10
0.629562
 20
15.462
 11
0.584442
 21
15.4719
  0
LINE
  8
0
 10
0.584442
 20
15.4719
 11
0.340134
 21
15.5142
  0
LINE
  8
0
 10
0.340134
 20
15.5142
 11
0.301743
 21
15.5193
  0
LINE
  8
0
 10
0.301743
 20
15.5193
 11
0.0322571
 21
15.5447
  0
LINE
  8
0
 10
0.0322571
 20
15.5447
 11
-0.000244141
 21
15.5467
  0
LINE
  8
0
 10
-0.000244141
 20
15.5467
 11
-0.294937
 21
15.5551
  0
LINE
  8
0
 10
-0.294937
 20
15.5551
 11
-0.30928
 21
15.5553
  0
LINE
  8
0
 10
-0.30928
 20
15.5553
 11
-1.53465
 21
15.5553
  0
LINE
  8
0
 10
-1.53465
 20
15.5553
 11
-1.62834
 21
15.5465
  0
LINE
  8
0
 10
-1.62834
 20
15.5465
 11
-1.68916
 21
15.5309
  0
LINE
  8
0
 10
-1.68916
 20
15.5309
 11
-1.74754
 21
15.5077
  0
LINE
  8
0
 10
-1.74754
 20
15.5077
 11
-1.80257
 21
15.4775
  0
LINE
  8
0
 10
-1.80257
 20
15.4775
 11
-1.85336
 21
15.4406
  0
LINE
  8
0
 10
-1.85336
 20
15.4406
 11
-1.89914
 21
15.3976
  0
LINE
  8
0
 10
-1.89914
 20
15.3976
 11
-1.93916
 21
15.3492
  0
LINE
  8
0
 10
-1.93916
 20
15.3492
 11
-1.97281
 21
15.2962
  0
LINE
  8
0
 10
-1.97281
 20
15.2962
 11
-1.99954
 21
15.2394
  0
LINE
  8
0
 10
-1.99954
 20
15.2394
 11
-2.01895
 21
15.1797
  0
LINE
  8
0
 10
-2.01895
 20
15.1797
 11
-2.03072
 21
15.118
  0
LINE
  8
0
 10
-2.03072
 20
15.118
 11
-2.03465
 21
15.0553
  0
LINE
  8
0
 10
-2.03465
 20
15.0553
 11
-2.03465
 21
11.4694
  0
LINE
  8
0
 10
-2.03465
 20
11.4694
 11
-2.0258
 21
11.3757
  0
LINE
  8
0
 10
-2.0258
 20
11.3757
 11
-2.01018
 21
11.3149
  0
LINE
  8
0
 10
-2.01018
 20
11.3149
 11
-1.98706
 21
11.2565
  0
LINE
  8
0
 10
-1.98706
 20
11.2565
 11
-1.95682
 21
11.2015
  0
LINE
  8
0
 10
-1.95682
 20
11.2015
 11
-1.91991
 21
11.1507
  0
LINE
  8
0
 10
-1.91991
 20
11.1507
 11
-1.87692
 21
11.1049
  0
LINE
  8
0
 10
-1.87692
 20
11.1049
 11
-1.82855
 21
11.0649
  0
LINE
  8
0
 10
-1.82855
 20
11.0649
 11
-1.77553
 21
11.0312
  0
LINE
  8
0
 10
-1.77553
 20
11.0312
 11
-1.71872
 21
11.0045
  0
LINE
  8
0
 10
-1.71872
 20
11.0045
 11
-1.659
 21
10.9851
  0
LINE
  8
0
 10
-1.659
 20
10.9851
 11
-1.59732
 21
10.9733
  0
LINE
  8
0
 10
-1.59732
 20
10.9733
 11
-1.53465
 21
10.9694
  0
LINE
  8
0
 10
-1.53465
 20
10.9694
 11
-0.30928
 21
10.9694
  0
LINE
  8
0
 10
-0.30928
 20
10.9694
 11
-0.294708
 21
10.9696
  0
LINE
  8
0
 10
-1.53465
 20
11.4694
 11
-1.53465
 21
15.0553
  0
LINE
  8
0
 10
-1.53465
 20
15.0553
 11
-0.30928
 21
15.0553
  0
LINE
  8
0
 10
-0.30928
 20
15.0553
 11
-0.0145874
 21
15.0469
  0
LINE
  8
0
 10
-0.0145874
 20
15.0469
 11
0.254898
 21
15.0215
  0
LINE
  8
0
 10
0.254898
 20
15.0215
 11
0.499207
 21
14.9792
  0
LINE
  8
0
 10
0.499207
 20
14.9792
 11
0.718338
 21
14.9201
  0
LINE
  8
0
 10
0.718338
 20
14.9201
 11
0.912277
 21
14.844
  0
LINE
  8
0
 10
0.912277
 20
14.844
 11
1.08102
 21
14.751
  0
LINE
  8
0
 10
1.08102
 20
14.751
 11
1.22458
 21
14.6411
  0
LINE
  8
0
 10
1.22458
 20
14.6411
 11
1.34619
 21
14.5117
  0
LINE
  8
0
 10
1.34619
 20
14.5117
 11
1.4491
 21
14.36
  0
LINE
  8
0
 10
1.4491
 20
14.36
 11
1.53328
 21
14.1859
  0
LINE
  8
0
 10
1.53328
 20
14.1859
 11
1.59877
 21
13.9896
  0
LINE
  8
0
 10
1.59877
 20
13.9896
 11
1.64554
 21
13.7709
  0
LINE
  8
0
 10
1.64554
 20
13.7709
 11
1.6736
 21
13.53
  0
LINE
  8
0
 10
1.6736
 20
13.53
 11
1.68295
 21
13.2668
  0
LINE
  8
0
 10
1.68295
 20
13.2668
 11
1.67351
 21
13.0035
  0
LINE
  8
0
 10
1.67351
 20
13.0035
 11
1.64517
 21
12.7623
  0
LINE
  8
0
 10
1.64517
 20
12.7623
 11
1.59796
 21
12.5432
  0
LINE
  8
0
 10
1.59796
 20
12.5432
 11
1.53185
 21
12.3462
  0
LINE
  8
0
 10
1.53185
 20
12.3462
 11
1.44684
 21
12.1713
  0
LINE
  8
0
 10
1.44684
 20
12.1713
 11
1.34294
 21
12.0185
  0
LINE
  8
0
 10
1.34294
 20
12.0185
 11
1.22015
 21
11.8879
  0
LINE
  8
0
 10
1.22015
 20
11.8879
 11
1.07561
 21
11.7769
  0
LINE
  8
0
 10
1.07561
 20
11.7769
 11
0.906403
 21
11.6829
  0
LINE
  8
0
 10
0.906403
 20
11.6829
 11
0.712555
 21
11.606
  0
LINE
  8
0
 10
0.712555
 20
11.606
 11
0.494064
 21
11.5463
  0
LINE
  8
0
 10
0.494064
 20
11.5463
 11
0.250931
 21
11.5036
  0
LINE
  8
0
 10
0.250931
 20
11.5036
 11
-0.0168457
 21
11.4779
  0
LINE
  8
0
 10
-0.0168457
 20
11.4779
 11
-0.30928
 21
11.4694
  0
LINE
  8
0
 10
-0.30928
 20
11.4694
 11
-1.53465
 21
11.4694
  0
LINE
  8
0
 10
24.1395
 20
10.5542
 11
18.5769
 21
10.5542
  0
LINE
  8
0
 10
18.5769
 20
10.5542
 11
18.5769
 21
7.99165
  0
LINE
  8
0
 10
18.5769
 20
7.99165
 11
24.1395
 21
7.99165
  0
LINE
  8
0
 10
24.1395
 20
7.99165
 11
24.1395
 21
10.5542
  0
LINE
  8
0
 10
19.0769
 20
8.49165
 11
19.0769
 21
10.0542
  0
LINE
  8
0
 10
19.0769
 20
10.0542
 11
23.6395
 21
10.0542
  0
LINE
  8
0
 10
23.6395
 20
10.0542
 11
23.6395
 21
8.49165
  0
LINE
  8
0
 10
23.6395
 20
8.49165
 11
19.0769
 21
8.49165
  0
LINE
  8
0
 10
-20.832
 20
-17.1566
 11
-20.2256
 21
-17.0964
  0
LINE
  8
0
 10
-20.2256
 20
-17.0964
 11
-19.6684
 21
-16.9961
  0
LINE
  8
0
 10
-19.6684
 20
-16.9961
 11
-19.1602
 21
-16.8557
  0
LINE
  8
0
 10
-19.1602
 20
-16.8557
 11
-18.7012
 21
-16.6751
  0
LINE
  8
0
 10
-18.7012
 20
-16.6751
 11
-18.2912
 21
-16.4544
  0
LINE
  8
0
 10
-18.2912
 20
-16.4544
 11
-17.9304
 21
-16.1936
  0
LINE
  8
0
 10
-17.9304
 20
-16.1936
 11
-17.6182
 21
-15.8921
  0
LINE
  8
0
 10
-17.6182
 20
-15.8921
 11
-17.354
 21
-15.5494
  0
LINE
  8
0
 10
-17.354
 20
-15.5494
 11
-17.1378
 21
-15.1655
  0
LINE
  8
0
 10
-17.1378
 20
-15.1655
 11
-16.9697
 21
-14.7404
  0
LINE
  8
0
 10
-16.9697
 20
-14.7404
 11
-16.8496
 21
-14.2741
  0
LINE
  8
0
 10
-16.8496
 20
-14.2741
 11
-16.7776
 21
-13.7666
  0
LINE
  8
0
 10
-16.7776
 20
-13.7666
 11
-16.7536
 21
-13.2179
  0
LINE
  8
0
 10
-16.7536
 20
-13.2179
 11
-16.7688
 21
-12.81
  0
LINE
  8
0
 10
-16.7688
 20
-12.81
 11
-16.8147
 21
-12.4226
  0
LINE
  8
0
 10
-16.8147
 20
-12.4226
 11
-16.8912
 21
-12.0558
  0
LINE
  8
0
 10
-16.8912
 20
-12.0558
 11
-16.9982
 21
-11.7094
  0
LINE
  8
0
 10
-16.9982
 20
-11.7094
 11
-17.1358
 21
-11.3835
  0
LINE
  8
0
 10
-17.1358
 20
-11.3835
 11
-17.3041
 21
-11.0782
  0
LINE
  8
0
 10
-17.3041
 20
-11.0782
 11
-17.5029
 21
-10.7934
  0
LINE
  8
0
 10
-17.5029
 20
-10.7934
 11
-17.7341
 21
-10.5266
  0
LINE
  8
0
 10
-17.7341
 20
-10.5266
 11
-17.9994
 21
-10.2752
  0
LINE
  8
0
 10
-17.9994
 20
-10.2752
 11
-18.299
 21
-10.0393
  0
LINE
  8
0
 10
-18.299
 20
-10.0393
 11
-18.6327
 21
-9.81885
  0
LINE
  8
0
 10
-18.6327
 20
-9.81885
 11
-19.0006
 21
-9.61391
  0
LINE
  8
0
 10
-19.0006
 20
-9.61391
 11
-19.4027
 21
-9.42444
  0
LINE
  8
0
 10
-19.4027
 20
-9.42444
 11
-19.839
 21
-9.25044
  0
LINE
  8
0
 10
-19.839
 20
-9.25044
 11
-20.9587
 21
-8.82678
  0
LINE
  8
0
 10
-20.9587
 20
-8.82678
 11
-21.2748
 21
-8.70485
  0
LINE
  8
0
 10
-21.2748
 20
-8.70485
 11
-21.5585
 21
-8.58598
  0
LINE
  8
0
 10
-21.5585
 20
-8.58598
 11
-21.8095
 21
-8.47018
  0
LINE
  8
0
 10
-21.8095
 20
-8.47018
 11
-22.028
 21
-8.35747
  0
LINE
  8
0
 10
-22.028
 20
-8.35747
 11
-22.2139
 21
-8.2478
  0
LINE
  8
0
 10
-22.2139
 20
-8.2478
 11
-22.3673
 21
-8.1412
  0
LINE
  8
0
 10
-22.3673
 20
-8.1412
 11
-22.4881
 21
-8.03767
  0
LINE
  8
0
 10
-22.4881
 20
-8.03767
 11
-22.5852
 21
-7.93178
  0
LINE
  8
0
 10
-22.5852
 20
-7.93178
 11
-22.6673
 21
-7.81813
  0
LINE
  8
0
 10
-22.6673
 20
-7.81813
 11
-22.7345
 21
-7.69675
  0
LINE
  8
0
 10
-22.7345
 20
-7.69675
 11
-22.7867
 21
-7.56761
  0
LINE
  8
0
 10
-22.7867
 20
-7.56761
 11
-22.8241
 21
-7.43076
  0
LINE
  8
0
 10
-22.8241
 20
-7.43076
 11
-22.8465
 21
-7.28613
  0
LINE
  8
0
 10
-22.8465
 20
-7.28613
 11
-22.8539
 21
-7.13379
  0
LINE
  8
0
 10
-22.8539
 20
-7.13379
 11
-22.8437
 21
-6.9389
  0
LINE
  8
0
 10
-22.8437
 20
-6.9389
 11
-22.8129
 21
-6.75735
  0
LINE
  8
0
 10
-22.8129
 20
-6.75735
 11
-22.7616
 21
-6.58911
  0
LINE
  8
0
 10
-22.7616
 20
-6.58911
 11
-22.6899
 21
-6.43419
  0
LINE
  8
0
 10
-22.6899
 20
-6.43419
 11
-22.5976
 21
-6.29259
  0
LINE
  8
0
 10
-22.5976
 20
-6.29259
 11
-22.4848
 21
-6.16429
  0
LINE
  8
0
 10
-22.4848
 20
-6.16429
 11
-22.3515
 21
-6.04933
  0
LINE
  8
0
 10
-22.3515
 20
-6.04933
 11
-22.1989
 21
-5.94872
  0
LINE
  8
0
 10
-22.1989
 20
-5.94872
 11
-22.0283
 21
-5.86359
  0
LINE
  8
0
 10
-22.0283
 20
-5.86359
 11
-21.8398
 21
-5.79395
  0
LINE
  8
0
 10
-21.8398
 20
-5.79395
 11
-21.6332
 21
-5.73976
  0
LINE
  8
0
 10
-21.6332
 20
-5.73976
 11
-21.4087
 21
-5.70108
  0
LINE
  8
0
 10
-21.4087
 20
-5.70108
 11
-21.1661
 21
-5.67786
  0
LINE
  8
0
 10
-21.1661
 20
-5.67786
 11
-20.9056
 21
-5.67012
  0
LINE
  8
0
 10
-20.9056
 20
-5.67012
 11
-20.6635
 21
-5.67641
  0
LINE
  8
0
 10
-20.6635
 20
-5.67641
 11
-20.4206
 21
-5.69528
  0
LINE
  8
0
 10
-20.4206
 20
-5.69528
 11
-20.177
 21
-5.72673
  0
LINE
  8
0
 10
-20.177
 20
-5.72673
 11
-19.9327
 21
-5.77077
  0
LINE
  8
0
 10
-19.9327
 20
-5.77077
 11
-19.6877
 21
-5.82738
  0
LINE
  8
0
 10
-19.6877
 20
-5.82738
 11
-19.4419
 21
-5.89658
  0
LINE
  8
0
 10
-19.4419
 20
-5.89658
 11
-19.1955
 21
-5.97835
  0
LINE
  8
0
 10
-19.1955
 20
-5.97835
 11
-18.9492
 21
-6.07216
  0
LINE
  8
0
 10
-18.9492
 20
-6.07216
 11
-18.7039
 21
-6.17747
  0
LINE
  8
0
 10
-18.7039
 20
-6.17747
 11
-18.4598
 21
-6.29428
  0
LINE
  8
0
 10
-18.4598
 20
-6.29428
 11
-18.2167
 21
-6.42259
  0
LINE
  8
0
 10
-18.2167
 20
-6.42259
 11
-17.9747
 21
-6.56241
  0
LINE
  8
0
 10
-17.9747
 20
-6.56241
 11
-17.7338
 21
-6.71371
  0
LINE
  8
0
 10
-17.7338
 20
-6.71371
 11
-17.494
 21
-6.87651
  0
LINE
  8
0
 10
-17.494
 20
-6.87651
 11
-17.494
 21
-4.33891
  0
LINE
  8
0
 10
-17.494
 20
-4.33891
 11
-17.7488
 21
-4.22658
  0
LINE
  8
0
 10
-17.7488
 20
-4.22658
 11
-18.0043
 21
-4.12238
  0
LINE
  8
0
 10
-18.0043
 20
-4.12238
 11
-18.2605
 21
-4.02631
  0
LINE
  8
0
 10
-18.2605
 20
-4.02631
 11
-18.5174
 21
-3.93837
  0
LINE
  8
0
 10
-18.5174
 20
-3.93837
 11
-18.775
 21
-3.85857
  0
LINE
  8
0
 10
-18.775
 20
-3.85857
 11
-19.0334
 21
-3.7869
  0
LINE
  8
0
 10
-19.0334
 20
-3.7869
 11
-19.2924
 21
-3.72337
  0
LINE
  8
0
 10
-19.2924
 20
-3.72337
 11
-19.5518
 21
-3.66815
  0
LINE
  8
0
 10
-19.5518
 20
-3.66815
 11
-19.8113
 21
-3.62143
  0
LINE
  8
0
 10
-19.8113
 20
-3.62143
 11
-20.0707
 21
-3.58319
  0
LINE
  8
0
 10
-20.0707
 20
-3.58319
 11
-20.3301
 21
-3.55347
  0
LINE
  8
0
 10
-20.3301
 20
-3.55347
 11
-20.5895
 21
-3.53223
  0
LINE
  8
0
 10
-20.5895
 20
-3.53223
 11
-20.849
 21
-3.51949
  0
LINE
  8
0
 10
-20.849
 20
-3.51949
 11
-21.1084
 21
-3.51524
  0
LINE
  8
0
 10
-21.1084
 20
-3.51524
 11
-21.6628
 21
-3.53613
  0
LINE
  8
0
 10
-21.6628
 20
-3.53613
 11
-22.1822
 21
-3.5988
  0
LINE
  8
0
 10
-22.1822
 20
-3.5988
 11
-22.6667
 21
-3.70325
  0
LINE
  8
0
 10
-22.6667
 20
-3.70325
 11
-23.1163
 21
-3.84949
  0
LINE
  8
0
 10
-23.1163
 20
-3.84949
 11
-23.531
 21
-4.03749
  0
LINE
  8
0
 10
-23.531
 20
-4.03749
 11
-23.9108
 21
-4.26729
  0
LINE
  8
0
 10
-23.9108
 20
-4.26729
 11
-24.2557
 21
-4.53886
  0
LINE
  8
0
 10
-24.2557
 20
-4.53886
 11
-24.5598
 21
-4.84695
  0
LINE
  8
0
 10
-24.5598
 20
-4.84695
 11
-24.817
 21
-5.18639
  0
LINE
  8
0
 10
-24.817
 20
-5.18639
 11
-25.0275
 21
-5.55716
  0
LINE
  8
0
 10
-25.0275
 20
-5.55716
 11
-25.1912
 21
-5.95926
  0
LINE
  8
0
 10
-25.1912
 20
-5.95926
 11
-25.3081
 21
-6.39272
  0
LINE
  8
0
 10
-25.3081
 20
-6.39272
 11
-25.3783
 21
-6.8575
  0
LINE
  8
0
 10
-25.3783
 20
-6.8575
 11
-25.4017
 21
-7.35362
  0
LINE
  8
0
 10
-25.4017
 20
-7.35362
 11
-25.3875
 21
-7.74033
  0
LINE
  8
0
 10
-25.3875
 20
-7.74033
 11
-25.3448
 21
-8.10381
  0
LINE
  8
0
 10
-25.3448
 20
-8.10381
 11
-25.2738
 21
-8.44406
  0
LINE
  8
0
 10
-25.2738
 20
-8.44406
 11
-25.1743
 21
-8.76109
  0
LINE
  8
0
 10
-25.1743
 20
-8.76109
 11
-25.0464
 21
-9.0549
  0
LINE
  8
0
 10
-25.0464
 20
-9.0549
 11
-24.89
 21
-9.32549
  0
LINE
  8
0
 10
-24.89
 20
-9.32549
 11
-24.7053
 21
-9.57285
  0
LINE
  8
0
 10
-24.7053
 20
-9.57285
 11
-24.4804
 21
-9.80702
  0
LINE
  8
0
 10
-24.4804
 20
-9.80702
 11
-24.2037
 21
-10.0381
  0
LINE
  8
0
 10
-24.2037
 20
-10.0381
 11
-23.8752
 21
-10.2662
  0
LINE
  8
0
 10
-23.8752
 20
-10.2662
 11
-23.4948
 21
-10.4912
  0
LINE
  8
0
 10
-23.4948
 20
-10.4912
 11
-23.0627
 21
-10.7131
  0
LINE
  8
0
 10
-23.0627
 20
-10.7131
 11
-22.5788
 21
-10.932
  0
LINE
  8
0
 10
-22.5788
 20
-10.932
 11
-22.043
 21
-11.1478
  0
LINE
  8
0
 10
-22.043
 20
-11.1478
 11
-20.7647
 21
-11.6331
  0
LINE
  8
0
 10
-20.7647
 20
-11.6331
 11
-20.5797
 21
-11.7099
  0
LINE
  8
0
 10
-20.5797
 20
-11.7099
 11
-20.4077
 21
-11.7944
  0
LINE
  8
0
 10
-20.4077
 20
-11.7944
 11
-20.2487
 21
-11.8866
  0
LINE
  8
0
 10
-20.2487
 20
-11.8866
 11
-20.1026
 21
-11.9866
  0
LINE
  8
0
 10
-20.1026
 20
-11.9866
 11
-19.9695
 21
-12.0943
  0
LINE
  8
0
 10
-19.9695
 20
-12.0943
 11
-19.8493
 21
-12.2097
  0
LINE
  8
0
 10
-19.8493
 20
-12.2097
 11
-19.7421
 21
-12.3329
  0
LINE
  8
0
 10
-19.7421
 20
-12.3329
 11
-19.6485
 21
-12.4628
  0
LINE
  8
0
 10
-19.6485
 20
-12.4628
 11
-19.5694
 21
-12.5987
  0
LINE
  8
0
 10
-19.5694
 20
-12.5987
 11
-19.5046
 21
-12.7405
  0
LINE
  8
0
 10
-19.5046
 20
-12.7405
 11
-19.4542
 21
-12.8882
  0
LINE
  8
0
 10
-19.4542
 20
-12.8882
 11
-19.4182
 21
-13.0419
  0
LINE
  8
0
 10
-19.4182
 20
-13.0419
 11
-19.3966
 21
-13.2015
  0
LINE
  8
0
 10
-19.3966
 20
-13.2015
 11
-19.3894
 21
-13.367
  0
LINE
  8
0
 10
-19.3894
 20
-13.367
 11
-19.4002
 21
-13.5837
  0
LINE
  8
0
 10
-19.4002
 20
-13.5837
 11
-19.4326
 21
-13.7863
  0
LINE
  8
0
 10
-19.4326
 20
-13.7863
 11
-19.4866
 21
-13.9746
  0
LINE
  8
0
 10
-19.4866
 20
-13.9746
 11
-19.5621
 21
-14.1488
  0
LINE
  8
0
 10
-19.5621
 20
-14.1488
 11
-19.6593
 21
-14.3088
  0
LINE
  8
0
 10
-19.6593
 20
-14.3088
 11
-19.7781
 21
-14.4546
  0
LINE
  8
0
 10
-19.7781
 20
-14.4546
 11
-19.9184
 21
-14.5862
  0
LINE
  8
0
 10
-19.9184
 20
-14.5862
 11
-20.0783
 21
-14.7017
  0
LINE
  8
0
 10
-20.0783
 20
-14.7017
 11
-20.2559
 21
-14.7995
  0
LINE
  8
0
 10
-20.2559
 20
-14.7995
 11
-20.4511
 21
-14.8795
  0
LINE
  8
0
 10
-20.4511
 20
-14.8795
 11
-20.6639
 21
-14.9418
  0
LINE
  8
0
 10
-20.6639
 20
-14.9418
 11
-20.8943
 21
-14.9862
  0
LINE
  8
0
 10
-20.8943
 20
-14.9862
 11
-21.1425
 21
-15.0129
  0
LINE
  8
0
 10
-21.1425
 20
-15.0129
 11
-21.4082
 21
-15.0218
  0
LINE
  8
0
 10
-21.4082
 20
-15.0218
 11
-21.6807
 21
-15.0145
  0
LINE
  8
0
 10
-21.6807
 20
-15.0145
 11
-21.9541
 21
-14.9924
  0
LINE
  8
0
 10
-21.9541
 20
-14.9924
 11
-22.2283
 21
-14.9557
  0
LINE
  8
0
 10
-22.2283
 20
-14.9557
 11
-22.5035
 21
-14.9044
  0
LINE
  8
0
 10
-22.5035
 20
-14.9044
 11
-22.7796
 21
-14.8383
  0
LINE
  8
0
 10
-22.7796
 20
-14.8383
 11
-23.0565
 21
-14.7576
  0
LINE
  8
0
 10
-23.0565
 20
-14.7576
 11
-23.3344
 21
-14.6622
  0
LINE
  8
0
 10
-23.3344
 20
-14.6622
 11
-23.6141
 21
-14.5517
  0
LINE
  8
0
 10
-23.6141
 20
-14.5517
 11
-23.8964
 21
-14.4259
  0
LINE
  8
0
 10
-23.8964
 20
-14.4259
 11
-24.1815
 21
-14.2846
  0
LINE
  8
0
 10
-24.1815
 20
-14.2846
 11
-24.4693
 21
-14.128
  0
LINE
  8
0
 10
-24.4693
 20
-14.128
 11
-24.7597
 21
-13.956
  0
LINE
  8
0
 10
-24.7597
 20
-13.956
 11
-25.0529
 21
-13.7686
  0
LINE
  8
0
 10
-25.0529
 20
-13.7686
 11
-25.3488
 21
-13.5658
  0
LINE
  8
0
 10
-25.3488
 20
-13.5658
 11
-25.3488
 21
-16.2531
  0
LINE
  8
0
 10
-25.3488
 20
-16.2531
 11
-25.0855
 21
-16.3792
  0
LINE
  8
0
 10
-25.0855
 20
-16.3792
 11
-24.8195
 21
-16.4962
  0
LINE
  8
0
 10
-24.8195
 20
-16.4962
 11
-24.5508
 21
-16.604
  0
LINE
  8
0
 10
-24.5508
 20
-16.604
 11
-24.2794
 21
-16.7026
  0
LINE
  8
0
 10
-24.2794
 20
-16.7026
 11
-24.0053
 21
-16.7921
  0
LINE
  8
0
 10
-24.0053
 20
-16.7921
 11
-23.7286
 21
-16.8724
  0
LINE
  8
0
 10
-23.7286
 20
-16.8724
 11
-23.4491
 21
-16.9436
  0
LINE
  8
0
 10
-23.4491
 20
-16.9436
 11
-23.1683
 21
-17.0054
  0
LINE
  8
0
 10
-23.1683
 20
-17.0054
 11
-22.8877
 21
-17.0577
  0
LINE
  8
0
 10
-22.8877
 20
-17.0577
 11
-22.6073
 21
-17.1006
  0
LINE
  8
0
 10
-22.6073
 20
-17.1006
 11
-22.3271
 21
-17.1339
  0
LINE
  8
0
 10
-22.3271
 20
-17.1339
 11
-22.047
 21
-17.1576
  0
LINE
  8
0
 10
-22.047
 20
-17.1576
 11
-21.7672
 21
-17.1719
  0
LINE
  8
0
 10
-21.7672
 20
-17.1719
 11
-21.4875
 21
-17.1767
  0
LINE
  8
0
 10
-21.4875
 20
-17.1767
 11
-20.832
 21
-17.1566
  0
LINE
  8
0
 10
-21.7503
 20
-16.6721
 11
-22.0131
 21
-16.6587
  0
LINE
  8
0
 10
-22.0131
 20
-16.6587
 11
-22.2762
 21
-16.6364
  0
LINE
  8
0
 10
-22.2762
 20
-16.6364
 11
-22.5398
 21
-16.6051
  0
LINE
  8
0
 10
-22.5398
 20
-16.6051
 11
-22.8042
 21
-16.5647
  0
LINE
  8
0
 10
-22.8042
 20
-16.5647
 11
-23.0687
 21
-16.5154
  0
LINE
  8
0
 10
-23.0687
 20
-16.5154
 11
-23.3335
 21
-16.457
  0
LINE
  8
0
 10
-23.3335
 20
-16.457
 11
-23.5974
 21
-16.3898
  0
LINE
  8
0
 10
-23.5974
 20
-16.3898
 11
-23.858
 21
-16.3142
  0
LINE
  8
0
 10
-23.858
 20
-16.3142
 11
-24.1163
 21
-16.2299
  0
LINE
  8
0
 10
-24.1163
 20
-16.2299
 11
-24.3722
 21
-16.1369
  0
LINE
  8
0
 10
-24.3722
 20
-16.1369
 11
-24.6256
 21
-16.0352
  0
LINE
  8
0
 10
-24.6256
 20
-16.0352
 11
-24.8488
 21
-15.9371
  0
LINE
  8
0
 10
-24.8488
 20
-15.9371
 11
-24.8488
 21
-14.4844
  0
LINE
  8
0
 10
-24.8488
 20
-14.4844
 11
-24.724
 21
-14.5582
  0
LINE
  8
0
 10
-24.724
 20
-14.5582
 11
-24.7083
 21
-14.5672
  0
LINE
  8
0
 10
-24.7083
 20
-14.5672
 11
-24.4205
 21
-14.7238
  0
LINE
  8
0
 10
-24.4205
 20
-14.7238
 11
-24.4035
 21
-14.7327
  0
LINE
  8
0
 10
-24.4035
 20
-14.7327
 11
-24.1184
 21
-14.8739
  0
LINE
  8
0
 10
-24.1184
 20
-14.8739
 11
-24.1
 21
-14.8826
  0
LINE
  8
0
 10
-24.1
 20
-14.8826
 11
-23.8176
 21
-15.0084
  0
LINE
  8
0
 10
-23.8176
 20
-15.0084
 11
-23.7978
 21
-15.0168
  0
LINE
  8
0
 10
-23.7978
 20
-15.0168
 11
-23.5181
 21
-15.1272
  0
LINE
  8
0
 10
-23.5181
 20
-15.1272
 11
-23.4968
 21
-15.1351
  0
LINE
  8
0
 10
-23.4968
 20
-15.1351
 11
-23.2189
 21
-15.2305
  0
LINE
  8
0
 10
-23.2189
 20
-15.2305
 11
-23.1964
 21
-15.2376
  0
LINE
  8
0
 10
-23.1964
 20
-15.2376
 11
-22.9195
 21
-15.3183
  0
LINE
  8
0
 10
-22.9195
 20
-15.3183
 11
-22.8959
 21
-15.3246
  0
LINE
  8
0
 10
-22.8959
 20
-15.3246
 11
-22.6199
 21
-15.3906
  0
LINE
  8
0
 10
-22.6199
 20
-15.3906
 11
-22.5952
 21
-15.3959
  0
LINE
  8
0
 10
-22.5952
 20
-15.3959
 11
-22.3201
 21
-15.4473
  0
LINE
  8
0
 10
-22.3201
 20
-15.4473
 11
-22.2946
 21
-15.4513
  0
LINE
  8
0
 10
-22.2946
 20
-15.4513
 11
-22.0204
 21
-15.488
  0
LINE
  8
0
 10
-22.0204
 20
-15.488
 11
-21.9942
 21
-15.4908
  0
LINE
  8
0
 10
-21.9942
 20
-15.4908
 11
-21.7208
 21
-15.5128
  0
LINE
  8
0
 10
-21.7208
 20
-15.5128
 11
-21.6941
 21
-15.5143
  0
LINE
  8
0
 10
-21.6941
 20
-15.5143
 11
-21.4217
 21
-15.5216
  0
LINE
  8
0
 10
-21.4217
 20
-15.5216
 11
-21.3915
 21
-15.5215
  0
LINE
  8
0
 10
-21.3915
 20
-15.5215
 11
-21.1257
 21
-15.5126
  0
LINE
  8
0
 10
-21.1257
 20
-15.5126
 11
-21.089
 21
-15.51
  0
LINE
  8
0
 10
-21.089
 20
-15.51
 11
-20.8409
 21
-15.4834
  0
LINE
  8
0
 10
-20.8409
 20
-15.4834
 11
-20.7997
 21
-15.4772
  0
LINE
  8
0
 10
-20.7997
 20
-15.4772
 11
-20.5692
 21
-15.4327
  0
LINE
  8
0
 10
-20.5692
 20
-15.4327
 11
-20.5235
 21
-15.4217
  0
LINE
  8
0
 10
-20.5235
 20
-15.4217
 11
-20.3107
 21
-15.3594
  0
LINE
  8
0
 10
-20.3107
 20
-15.3594
 11
-20.2614
 21
-15.3422
  0
LINE
  8
0
 10
-20.2614
 20
-15.3422
 11
-20.0662
 21
-15.2621
  0
LINE
  8
0
 10
-20.0662
 20
-15.2621
 11
-20.0147
 21
-15.2375
  0
LINE
  8
0
 10
-20.0147
 20
-15.2375
 11
-19.8371
 21
-15.1397
  0
LINE
  8
0
 10
-19.8371
 20
-15.1397
 11
-19.7854
 21
-15.107
  0
LINE
  8
0
 10
-19.7854
 20
-15.107
 11
-19.6255
 21
-14.9914
  0
LINE
  8
0
 10
-19.6255
 20
-14.9914
 11
-19.5764
 21
-14.9509
  0
LINE
  8
0
 10
-19.5764
 20
-14.9509
 11
-19.4361
 21
-14.8193
  0
LINE
  8
0
 10
-19.4361
 20
-14.8193
 11
-19.3904
 21
-14.7703
  0
LINE
  8
0
 10
-19.3904
 20
-14.7703
 11
-19.2717
 21
-14.6245
  0
LINE
  8
0
 10
-19.2717
 20
-14.6245
 11
-19.232
 21
-14.5683
  0
LINE
  8
0
 10
-19.232
 20
-14.5683
 11
-19.1348
 21
-14.4083
  0
LINE
  8
0
 10
-19.1348
 20
-14.4083
 11
-19.1035
 21
-14.3478
  0
LINE
  8
0
 10
-19.1035
 20
-14.3478
 11
-19.0279
 21
-14.1737
  0
LINE
  8
0
 10
-19.0279
 20
-14.1737
 11
-19.0059
 21
-14.1124
  0
LINE
  8
0
 10
-19.0059
 20
-14.1124
 11
-18.952
 21
-13.924
  0
LINE
  8
0
 10
-18.952
 20
-13.924
 11
-18.9389
 21
-13.8652
  0
LINE
  8
0
 10
-18.9389
 20
-13.8652
 11
-18.9065
 21
-13.6627
  0
LINE
  8
0
 10
-18.9065
 20
-13.6627
 11
-18.9008
 21
-13.6086
  0
LINE
  8
0
 10
-18.9008
 20
-13.6086
 11
-18.8901
 21
-13.3919
  0
LINE
  8
0
 10
-18.8901
 20
-13.3919
 11
-18.8899
 21
-13.3453
  0
LINE
  8
0
 10
-18.8899
 20
-13.3453
 11
-18.8971
 21
-13.1798
  0
LINE
  8
0
 10
-18.8971
 20
-13.1798
 11
-18.9011
 21
-13.1345
  0
LINE
  8
0
 10
-18.9011
 20
-13.1345
 11
-18.9227
 21
-12.9749
  0
LINE
  8
0
 10
-18.9227
 20
-12.9749
 11
-18.9314
 21
-12.9279
  0
LINE
  8
0
 10
-18.9314
 20
-12.9279
 11
-18.9674
 21
-12.7742
  0
LINE
  8
0
 10
-18.9674
 20
-12.7742
 11
-18.981
 21
-12.7269
  0
LINE
  8
0
 10
-18.981
 20
-12.7269
 11
-19.0314
 21
-12.5791
  0
LINE
  8
0
 10
-19.0314
 20
-12.5791
 11
-19.0498
 21
-12.5328
  0
LINE
  8
0
 10
-19.0498
 20
-12.5328
 11
-19.1146
 21
-12.391
  0
LINE
  8
0
 10
-19.1146
 20
-12.391
 11
-19.1374
 21
-12.347
  0
LINE
  8
0
 10
-19.1374
 20
-12.347
 11
-19.2165
 21
-12.2111
  0
LINE
  8
0
 10
-19.2165
 20
-12.2111
 11
-19.2428
 21
-12.1707
  0
LINE
  8
0
 10
-19.2428
 20
-12.1707
 11
-19.3363
 21
-12.0407
  0
LINE
  8
0
 10
-19.3363
 20
-12.0407
 11
-19.365
 21
-12.0045
  0
LINE
  8
0
 10
-19.365
 20
-12.0045
 11
-19.4722
 21
-11.8814
  0
LINE
  8
0
 10
-19.4722
 20
-11.8814
 11
-19.5029
 21
-11.8491
  0
LINE
  8
0
 10
-19.5029
 20
-11.8491
 11
-19.6231
 21
-11.7337
  0
LINE
  8
0
 10
-19.6231
 20
-11.7337
 11
-19.655
 21
-11.7056
  0
LINE
  8
0
 10
-19.655
 20
-11.7056
 11
-19.7881
 21
-11.5979
  0
LINE
  8
0
 10
-19.7881
 20
-11.5979
 11
-19.8202
 21
-11.5739
  0
LINE
  8
0
 10
-19.8202
 20
-11.5739
 11
-19.9663
 21
-11.474
  0
LINE
  8
0
 10
-19.9663
 20
-11.474
 11
-19.9978
 21
-11.4541
  0
LINE
  8
0
 10
-19.9978
 20
-11.4541
 11
-20.1569
 21
-11.3618
  0
LINE
  8
0
 10
-20.1569
 20
-11.3618
 11
-20.1873
 21
-11.3456
  0
LINE
  8
0
 10
-20.1873
 20
-11.3456
 11
-20.3593
 21
-11.2611
  0
LINE
  8
0
 10
-20.3593
 20
-11.2611
 11
-20.388
 21
-11.2481
  0
LINE
  8
0
 10
-20.388
 20
-11.2481
 11
-20.573
 21
-11.1713
  0
LINE
  8
0
 10
-20.573
 20
-11.1713
 11
-20.5872
 21
-11.1656
  0
LINE
  8
0
 10
-20.5872
 20
-11.1656
 11
-21.861
 21
-10.6821
  0
LINE
  8
0
 10
-21.861
 20
-10.6821
 11
-22.3821
 21
-10.4721
  0
LINE
  8
0
 10
-22.3821
 20
-10.4721
 11
-22.8455
 21
-10.2626
  0
LINE
  8
0
 10
-22.8455
 20
-10.2626
 11
-23.2531
 21
-10.0533
  0
LINE
  8
0
 10
-23.2531
 20
-10.0533
 11
-23.6049
 21
-9.84511
  0
LINE
  8
0
 10
-23.6049
 20
-9.84511
 11
-23.9003
 21
-9.64009
  0
LINE
  8
0
 10
-23.9003
 20
-9.64009
 11
-24.1387
 21
-9.44095
  0
LINE
  8
0
 10
-24.1387
 20
-9.44095
 11
-24.3232
 21
-9.24879
  0
LINE
  8
0
 10
-24.3232
 20
-9.24879
 11
-24.4718
 21
-9.0498
  0
LINE
  8
0
 10
-24.4718
 20
-9.0498
 11
-24.5992
 21
-8.82936
  0
LINE
  8
0
 10
-24.5992
 20
-8.82936
 11
-24.7052
 21
-8.586
  0
LINE
  8
0
 10
-24.7052
 20
-8.586
 11
-24.7893
 21
-8.31778
  0
LINE
  8
0
 10
-24.7893
 20
-8.31778
 11
-24.8508
 21
-8.02342
  0
LINE
  8
0
 10
-24.8508
 20
-8.02342
 11
-24.8885
 21
-7.70197
  0
LINE
  8
0
 10
-24.8885
 20
-7.70197
 11
-24.9012
 21
-7.35625
  0
LINE
  8
0
 10
-24.9012
 20
-7.35625
 11
-24.88
 21
-6.90668
  0
LINE
  8
0
 10
-24.88
 20
-6.90668
 11
-24.818
 21
-6.49544
  0
LINE
  8
0
 10
-24.818
 20
-6.49544
 11
-24.7165
 21
-6.11925
  0
LINE
  8
0
 10
-24.7165
 20
-6.11925
 11
-24.5767
 21
-5.77583
  0
LINE
  8
0
 10
-24.5767
 20
-5.77583
 11
-24.3985
 21
-5.46193
  0
LINE
  8
0
 10
-24.3985
 20
-5.46193
 11
-24.181
 21
-5.17499
  0
LINE
  8
0
 10
-24.181
 20
-5.17499
 11
-23.9218
 21
-4.91231
  0
LINE
  8
0
 10
-23.9218
 20
-4.91231
 11
-23.6257
 21
-4.6792
  0
LINE
  8
0
 10
-23.6257
 20
-4.6792
 11
-23.2975
 21
-4.48061
  0
LINE
  8
0
 10
-23.2975
 20
-4.48061
 11
-22.9352
 21
-4.31636
  0
LINE
  8
0
 10
-22.9352
 20
-4.31636
 11
-22.5363
 21
-4.18663
  0
LINE
  8
0
 10
-22.5363
 20
-4.18663
 11
-22.0994
 21
-4.09244
  0
LINE
  8
0
 10
-22.0994
 20
-4.09244
 11
-21.6234
 21
-4.035
  0
LINE
  8
0
 10
-21.6234
 20
-4.035
 11
-21.1031
 21
-4.0154
  0
LINE
  8
0
 10
-21.1031
 20
-4.0154
 11
-20.8654
 21
-4.01929
  0
LINE
  8
0
 10
-20.8654
 20
-4.01929
 11
-20.6221
 21
-4.03123
  0
LINE
  8
0
 10
-20.6221
 20
-4.03123
 11
-20.3788
 21
-4.05115
  0
LINE
  8
0
 10
-20.3788
 20
-4.05115
 11
-20.1357
 21
-4.07901
  0
LINE
  8
0
 10
-20.1357
 20
-4.07901
 11
-19.8919
 21
-4.11496
  0
LINE
  8
0
 10
-19.8919
 20
-4.11496
 11
-19.6484
 21
-4.1588
  0
LINE
  8
0
 10
-19.6484
 20
-4.1588
 11
-19.4038
 21
-4.21088
  0
LINE
  8
0
 10
-19.4038
 20
-4.21088
 11
-19.1601
 21
-4.27063
  0
LINE
  8
0
 10
-19.1601
 20
-4.27063
 11
-18.9157
 21
-4.33842
  0
LINE
  8
0
 10
-18.9157
 20
-4.33842
 11
-18.6721
 21
-4.41388
  0
LINE
  8
0
 10
-18.6721
 20
-4.41388
 11
-18.4295
 21
-4.49693
  0
LINE
  8
0
 10
-18.4295
 20
-4.49693
 11
-18.1862
 21
-4.58813
  0
LINE
  8
0
 10
-18.1862
 20
-4.58813
 11
-17.994
 21
-4.66653
  0
LINE
  8
0
 10
-17.994
 20
-4.66653
 11
-17.994
 21
-5.97475
  0
LINE
  8
0
 10
-17.994
 20
-5.97475
 11
-18.2263
 21
-5.85211
  0
LINE
  8
0
 10
-18.2263
 20
-5.85211
 11
-18.244
 21
-5.84325
  0
LINE
  8
0
 10
-18.244
 20
-5.84325
 11
-18.4882
 21
-5.72644
  0
LINE
  8
0
 10
-18.4882
 20
-5.72644
 11
-18.5066
 21
-5.71805
  0
LINE
  8
0
 10
-18.5066
 20
-5.71805
 11
-18.7518
 21
-5.61273
  0
LINE
  8
0
 10
-18.7518
 20
-5.61273
 11
-18.7712
 21
-5.6049
  0
LINE
  8
0
 10
-18.7712
 20
-5.6049
 11
-19.0175
 21
-5.51109
  0
LINE
  8
0
 10
-19.0175
 20
-5.51109
 11
-19.038
 21
-5.50378
  0
LINE
  8
0
 10
-19.038
 20
-5.50378
 11
-19.2845
 21
-5.42201
  0
LINE
  8
0
 10
-19.2845
 20
-5.42201
 11
-19.3064
 21
-5.4153
  0
LINE
  8
0
 10
-19.3064
 20
-5.4153
 11
-19.5521
 21
-5.3461
  0
LINE
  8
0
 10
-19.5521
 20
-5.3461
 11
-19.5751
 21
-5.34021
  0
LINE
  8
0
 10
-19.5751
 20
-5.34021
 11
-19.8201
 21
-5.2836
  0
LINE
  8
0
 10
-19.8201
 20
-5.2836
 11
-19.844
 21
-5.2787
  0
LINE
  8
0
 10
-19.844
 20
-5.2787
 11
-20.0883
 21
-5.23466
  0
LINE
  8
0
 10
-20.0883
 20
-5.23466
 11
-20.113
 21
-5.23085
  0
LINE
  8
0
 10
-20.113
 20
-5.23085
 11
-20.3566
 21
-5.1994
  0
LINE
  8
0
 10
-20.3566
 20
-5.1994
 11
-20.3819
 21
-5.19679
  0
LINE
  8
0
 10
-20.3819
 20
-5.19679
 11
-20.6247
 21
-5.17792
  0
LINE
  8
0
 10
-20.6247
 20
-5.17792
 11
-20.6505
 21
-5.17657
  0
LINE
  8
0
 10
-20.6505
 20
-5.17657
 11
-20.8927
 21
-5.17029
  0
LINE
  8
0
 10
-20.8927
 20
-5.17029
 11
-20.9205
 21
-5.17033
  0
LINE
  8
0
 10
-20.9205
 20
-5.17033
 11
-21.181
 21
-5.17807
  0
LINE
  8
0
 10
-21.181
 20
-5.17807
 11
-21.2138
 21
-5.18013
  0
LINE
  8
0
 10
-21.2138
 20
-5.18013
 11
-21.4563
 21
-5.20335
  0
LINE
  8
0
 10
-21.4563
 20
-5.20335
 11
-21.4935
 21
-5.20834
  0
LINE
  8
0
 10
-21.4935
 20
-5.20834
 11
-21.7181
 21
-5.24702
  0
LINE
  8
0
 10
-21.7181
 20
-5.24702
 11
-21.7601
 21
-5.25612
  0
LINE
  8
0
 10
-21.7601
 20
-5.25612
 11
-21.9666
 21
-5.3103
  0
LINE
  8
0
 10
-21.9666
 20
-5.3103
 11
-22.013
 21
-5.32491
  0
LINE
  8
0
 10
-22.013
 20
-5.32491
 11
-22.2015
 21
-5.39455
  0
LINE
  8
0
 10
-22.2015
 20
-5.39455
 11
-22.2516
 21
-5.41621
  0
LINE
  8
0
 10
-22.2516
 20
-5.41621
 11
-22.4222
 21
-5.50134
  0
LINE
  8
0
 10
-22.4222
 20
-5.50134
 11
-22.4741
 21
-5.5313
  0
LINE
  8
0
 10
-22.4741
 20
-5.5313
 11
-22.6267
 21
-5.63191
  0
LINE
  8
0
 10
-22.6267
 20
-5.63191
 11
-22.678
 21
-5.67067
  0
LINE
  8
0
 10
-22.678
 20
-5.67067
 11
-22.8113
 21
-5.78563
  0
LINE
  8
0
 10
-22.8113
 20
-5.78563
 11
-22.8603
 21
-5.83415
  0
LINE
  8
0
 10
-22.8603
 20
-5.83415
 11
-22.9731
 21
-5.96245
  0
LINE
  8
0
 10
-22.9731
 20
-5.96245
 11
-23.0165
 21
-6.01959
  0
LINE
  8
0
 10
-23.0165
 20
-6.01959
 11
-23.1087
 21
-6.16119
  0
LINE
  8
0
 10
-23.1087
 20
-6.16119
 11
-23.1435
 21
-6.224
  0
LINE
  8
0
 10
-23.1435
 20
-6.224
 11
-23.2153
 21
-6.37892
  0
LINE
  8
0
 10
-23.2153
 20
-6.37892
 11
-23.2399
 21
-6.44336
  0
LINE
  8
0
 10
-23.2399
 20
-6.44336
 11
-23.2912
 21
-6.6116
  0
LINE
  8
0
 10
-23.2912
 20
-6.6116
 11
-23.3059
 21
-6.67383
  0
LINE
  8
0
 10
-23.3059
 20
-6.67383
 11
-23.3367
 21
-6.85538
  0
LINE
  8
0
 10
-23.3367
 20
-6.85538
 11
-23.343
 21
-6.91263
  0
LINE
  8
0
 10
-23.343
 20
-6.91263
 11
-23.3532
 21
-7.10751
  0
LINE
  8
0
 10
-23.3532
 20
-7.10751
 11
-23.3533
 21
-7.15825
  0
LINE
  8
0
 10
-23.3533
 20
-7.15825
 11
-23.3459
 21
-7.31059
  0
LINE
  8
0
 10
-23.3459
 20
-7.31059
 11
-23.3406
 21
-7.36266
  0
LINE
  8
0
 10
-23.3406
 20
-7.36266
 11
-23.3182
 21
-7.50728
  0
LINE
  8
0
 10
-23.3182
 20
-7.50728
 11
-23.3064
 21
-7.56232
  0
LINE
  8
0
 10
-23.3064
 20
-7.56232
 11
-23.2691
 21
-7.69917
  0
LINE
  8
0
 10
-23.2691
 20
-7.69917
 11
-23.2502
 21
-7.75519
  0
LINE
  8
0
 10
-23.2502
 20
-7.75519
 11
-23.198
 21
-7.88432
  0
LINE
  8
0
 10
-23.198
 20
-7.88432
 11
-23.1719
 21
-7.93892
  0
LINE
  8
0
 10
-23.1719
 20
-7.93892
 11
-23.1047
 21
-8.0603
  0
LINE
  8
0
 10
-23.1047
 20
-8.0603
 11
-23.0725
 21
-8.11098
  0
LINE
  8
0
 10
-23.0725
 20
-8.11098
 11
-22.9904
 21
-8.22462
  0
LINE
  8
0
 10
-22.9904
 20
-8.22462
 11
-22.9538
 21
-8.26959
  0
LINE
  8
0
 10
-22.9538
 20
-8.26959
 11
-22.8567
 21
-8.37549
  0
LINE
  8
0
 10
-22.8567
 20
-8.37549
 11
-22.8135
 21
-8.41733
  0
LINE
  8
0
 10
-22.8135
 20
-8.41733
 11
-22.6927
 21
-8.52086
  0
LINE
  8
0
 10
-22.6927
 20
-8.52086
 11
-22.6527
 21
-8.55177
  0
LINE
  8
0
 10
-22.6527
 20
-8.55177
 11
-22.4993
 21
-8.65837
  0
LINE
  8
0
 10
-22.4993
 20
-8.65837
 11
-22.468
 21
-8.67847
  0
LINE
  8
0
 10
-22.468
 20
-8.67847
 11
-22.282
 21
-8.78813
  0
LINE
  8
0
 10
-22.282
 20
-8.78813
 11
-22.2572
 21
-8.80182
  0
LINE
  8
0
 10
-22.2572
 20
-8.80182
 11
-22.0388
 21
-8.91454
  0
LINE
  8
0
 10
-22.0388
 20
-8.91454
 11
-22.0189
 21
-8.92422
  0
LINE
  8
0
 10
-22.0189
 20
-8.92422
 11
-21.7679
 21
-9.04002
  0
LINE
  8
0
 10
-21.7679
 20
-9.04002
 11
-21.7517
 21
-9.04712
  0
LINE
  8
0
 10
-21.7517
 20
-9.04712
 11
-21.4681
 21
-9.16599
  0
LINE
  8
0
 10
-21.4681
 20
-9.16599
 11
-21.4548
 21
-9.17136
  0
LINE
  8
0
 10
-21.4548
 20
-9.17136
 11
-21.1386
 21
-9.29329
  0
LINE
  8
0
 10
-21.1386
 20
-9.29329
 11
-20.0201
 21
-9.71652
  0
LINE
  8
0
 10
-20.0201
 20
-9.71652
 11
-19.6019
 21
-9.88329
  0
LINE
  8
0
 10
-19.6019
 20
-9.88329
 11
-19.2291
 21
-10.059
  0
LINE
  8
0
 10
-19.2291
 20
-10.059
 11
-18.8926
 21
-10.2464
  0
LINE
  8
0
 10
-18.8926
 20
-10.2464
 11
-18.5919
 21
-10.445
  0
LINE
  8
0
 10
-18.5919
 20
-10.445
 11
-18.3267
 21
-10.6539
  0
LINE
  8
0
 10
-18.3267
 20
-10.6539
 11
-18.0958
 21
-10.8726
  0
LINE
  8
0
 10
-18.0958
 20
-10.8726
 11
-17.8979
 21
-11.101
  0
LINE
  8
0
 10
-17.8979
 20
-11.101
 11
-17.7292
 21
-11.3427
  0
LINE
  8
0
 10
-17.7292
 20
-11.3427
 11
-17.5863
 21
-11.6021
  0
LINE
  8
0
 10
-17.5863
 20
-11.6021
 11
-17.4686
 21
-11.8808
  0
LINE
  8
0
 10
-17.4686
 20
-11.8808
 11
-17.3758
 21
-12.1809
  0
LINE
  8
0
 10
-17.3758
 20
-12.1809
 11
-17.3087
 21
-12.5032
  0
LINE
  8
0
 10
-17.3087
 20
-12.5032
 11
-17.2677
 21
-12.8489
  0
LINE
  8
0
 10
-17.2677
 20
-12.8489
 11
-17.254
 21
-13.2163
  0
LINE
  8
0
 10
-17.254
 20
-13.2163
 11
-17.276
 21
-13.7204
  0
LINE
  8
0
 10
-17.276
 20
-13.7204
 11
-17.3408
 21
-14.1763
  0
LINE
  8
0
 10
-17.3408
 20
-14.1763
 11
-17.4462
 21
-14.5857
  0
LINE
  8
0
 10
-17.4462
 20
-14.5857
 11
-17.5902
 21
-14.9499
  0
LINE
  8
0
 10
-17.5902
 20
-14.9499
 11
-17.7719
 21
-15.2726
  0
LINE
  8
0
 10
-17.7719
 20
-15.2726
 11
-17.9919
 21
-15.5579
  0
LINE
  8
0
 10
-17.9919
 20
-15.5579
 11
-18.2521
 21
-15.8092
  0
LINE
  8
0
 10
-18.2521
 20
-15.8092
 11
-18.5574
 21
-16.0298
  0
LINE
  8
0
 10
-18.5574
 20
-16.0298
 11
-18.912
 21
-16.2207
  0
LINE
  8
0
 10
-18.912
 20
-16.2207
 11
-19.3188
 21
-16.3808
  0
LINE
  8
0
 10
-19.3188
 20
-16.3808
 11
-19.7794
 21
-16.508
  0
LINE
  8
0
 10
-19.7794
 20
-16.508
 11
-20.2947
 21
-16.6008
  0
LINE
  8
0
 10
-20.2947
 20
-16.6008
 11
-20.8644
 21
-16.6573
  0
LINE
  8
0
 10
-20.8644
 20
-16.6573
 11
-21.4911
 21
-16.6765
  0
LINE
  8
0
 10
-21.4911
 20
-16.6765
 11
-21.7503
 21
-16.6721
  0
LINE
  8
0
 10
8.99275
 20
-13.6656
 11
12.4749
 21
-13.6656
  0
LINE
  8
0
 10
12.4749
 20
-13.6656
 11
13.2859
 21
-16.9187
  0
LINE
  8
0
 10
13.2859
 20
-16.9187
 11
15.8865
 21
-16.9187
  0
LINE
  8
0
 10
15.8865
 20
-16.9187
 11
12.3339
 21
-3.75652
  0
LINE
  8
0
 10
12.3339
 20
-3.75652
 11
9.15135
 21
-3.75652
  0
LINE
  8
0
 10
9.15135
 20
-3.75652
 11
5.59871
 21
-16.9187
  0
LINE
  8
0
 10
5.59871
 20
-16.9187
 11
8.19937
 21
-16.9187
  0
LINE
  8
0
 10
8.19937
 20
-16.9187
 11
8.99275
 21
-13.6656
  0
LINE
  8
0
 10
6.25156
 20
-16.4187
 11
9.53429
 21
-4.25652
  0
LINE
  8
0
 10
9.53429
 20
-4.25652
 11
11.951
 21
-4.25652
  0
LINE
  8
0
 10
11.951
 20
-4.25652
 11
15.2337
 21
-16.4187
  0
LINE
  8
0
 10
15.2337
 20
-16.4187
 11
13.6765
 21
-16.4187
  0
LINE
  8
0
 10
13.6765
 20
-16.4187
 11
12.9601
 21
-13.5447
  0
LINE
  8
0
 10
12.9601
 20
-13.5447
 11
12.9505
 21
-13.5111
  0
LINE
  8
0
 10
12.9505
 20
-13.5111
 11
12.9273
 21
-13.4527
  0
LINE
  8
0
 10
12.9273
 20
-13.4527
 11
12.8971
 21
-13.3977
  0
LINE
  8
0
 10
12.8971
 20
-13.3977
 11
12.8602
 21
-13.3469
  0
LINE
  8
0
 10
12.8602
 20
-13.3469
 11
12.8172
 21
-13.3011
  0
LINE
  8
0
 10
12.8172
 20
-13.3011
 11
12.7688
 21
-13.2611
  0
LINE
  8
0
 10
12.7688
 20
-13.2611
 11
12.7158
 21
-13.2275
  0
LINE
  8
0
 10
12.7158
 20
-13.2275
 11
12.659
 21
-13.2007
  0
LINE
  8
0
 10
12.659
 20
-13.2007
 11
12.5993
 21
-13.1813
  0
LINE
  8
0
 10
12.5993
 20
-13.1813
 11
12.5376
 21
-13.1696
  0
LINE
  8
0
 10
12.5376
 20
-13.1696
 11
12.4749
 21
-13.1656
  0
LINE
  8
0
 10
12.4749
 20
-13.1656
 11
8.99275
 21
-13.1656
  0
LINE
  8
0
 10
8.99275
 20
-13.1656
 11
8.95531
 21
-13.167
  0
LINE
  8
0
 10
8.95531
 20
-13.167
 11
8.89311
 21
-13.1756
  0
LINE
  8
0
 10
8.89311
 20
-13.1756
 11
8.83249
 21
-13.192
  0
LINE
  8
0
 10
8.83249
 20
-13.192
 11
8.7744
 21
-13.2158
  0
LINE
  8
0
 10
8.7744
 20
-13.2158
 11
8.71974
 21
-13.2467
  0
LINE
  8
0
 10
8.71974
 20
-13.2467
 11
8.6694
 21
-13.2843
  0
LINE
  8
0
 10
8.6694
 20
-13.2843
 11
8.62415
 21
-13.3278
  0
LINE
  8
0
 10
8.62415
 20
-13.3278
 11
8.58472
 21
-13.3766
  0
LINE
  8
0
 10
8.58472
 20
-13.3766
 11
8.55171
 21
-13.4301
  0
LINE
  8
0
 10
8.55171
 20
-13.4301
 11
8.52567
 21
-13.4872
  0
LINE
  8
0
 10
8.52567
 20
-13.4872
 11
8.50699
 21
-13.5471
  0
LINE
  8
0
 10
8.50699
 20
-13.5471
 11
7.80666
 21
-16.4187
  0
LINE
  8
0
 10
7.80666
 20
-16.4187
 11
6.25156
 21
-16.4187
  0
LINE
  8
0
 10
12.0531
 20
-12.0208
 11
12.1143
 21
-12.0068
  0
LINE
  8
0
 10
12.1143
 20
-12.0068
 11
12.1733
 21
-11.9852
  0
LINE
  8
0
 10
12.1733
 20
-11.9852
 11
12.2291
 21
-11.9564
  0
LINE
  8
0
 10
12.2291
 20
-11.9564
 11
12.2809
 21
-11.9209
  0
LINE
  8
0
 10
12.2809
 20
-11.9209
 11
12.3277
 21
-11.8791
  0
LINE
  8
0
 10
12.3277
 20
-11.8791
 11
12.369
 21
-11.8318
  0
LINE
  8
0
 10
12.369
 20
-11.8318
 11
12.404
 21
-11.7797
  0
LINE
  8
0
 10
12.404
 20
-11.7797
 11
12.4323
 21
-11.7236
  0
LINE
  8
0
 10
12.4323
 20
-11.7236
 11
12.4532
 21
-11.6644
  0
LINE
  8
0
 10
12.4532
 20
-11.6644
 11
12.4666
 21
-11.603
  0
LINE
  8
0
 10
12.4666
 20
-11.603
 11
12.4722
 21
-11.5405
  0
LINE
  8
0
 10
12.4722
 20
-11.5405
 11
12.4699
 21
-11.4778
  0
LINE
  8
0
 10
12.4699
 20
-11.4778
 11
12.4597
 21
-11.4158
  0
LINE
  8
0
 10
12.4597
 20
-11.4158
 11
11.2256
 21
-6.02652
  0
LINE
  8
0
 10
11.2256
 20
-6.02652
 11
11.1979
 21
-5.94122
  0
LINE
  8
0
 10
11.1979
 20
-5.94122
 11
11.1696
 21
-5.88518
  0
LINE
  8
0
 10
11.1696
 20
-5.88518
 11
11.1345
 21
-5.83311
  0
LINE
  8
0
 10
11.1345
 20
-5.83311
 11
11.0931
 21
-5.78587
  0
LINE
  8
0
 10
11.0931
 20
-5.78587
 11
11.0462
 21
-5.74417
  0
LINE
  8
0
 10
11.0462
 20
-5.74417
 11
10.9944
 21
-5.70868
  0
LINE
  8
0
 10
10.9944
 20
-5.70868
 11
10.9385
 21
-5.67998
  0
LINE
  8
0
 10
10.9385
 20
-5.67998
 11
10.8795
 21
-5.65849
  0
LINE
  8
0
 10
10.8795
 20
-5.65849
 11
10.8183
 21
-5.64456
  0
LINE
  8
0
 10
10.8183
 20
-5.64456
 11
10.7558
 21
-5.63843
  0
LINE
  8
0
 10
10.7558
 20
-5.63843
 11
10.693
 21
-5.64017
  0
LINE
  8
0
 10
10.693
 20
-5.64017
 11
10.631
 21
-5.64977
  0
LINE
  8
0
 10
10.631
 20
-5.64977
 11
10.5706
 21
-5.66707
  0
LINE
  8
0
 10
10.5706
 20
-5.66707
 11
10.5129
 21
-5.69179
  0
LINE
  8
0
 10
10.5129
 20
-5.69179
 11
10.4587
 21
-5.72356
  0
LINE
  8
0
 10
10.4587
 20
-5.72356
 11
10.409
 21
-5.76186
  0
LINE
  8
0
 10
10.409
 20
-5.76186
 11
10.3644
 21
-5.80609
  0
LINE
  8
0
 10
10.3644
 20
-5.80609
 11
10.3258
 21
-5.85558
  0
LINE
  8
0
 10
10.3258
 20
-5.85558
 11
10.2936
 21
-5.9095
  0
LINE
  8
0
 10
10.2936
 20
-5.9095
 11
10.2684
 21
-5.96703
  0
LINE
  8
0
 10
10.2684
 20
-5.96703
 11
10.2507
 21
-6.02727
  0
LINE
  8
0
 10
10.2507
 20
-6.02727
 11
9.02533
 21
-11.4165
  0
LINE
  8
0
 10
9.02533
 20
-11.4165
 11
9.01387
 21
-11.496
  0
LINE
  8
0
 10
9.01387
 20
-11.496
 11
9.01387
 21
-11.5588
  0
LINE
  8
0
 10
9.01387
 20
-11.5588
 11
9.02173
 21
-11.6211
  0
LINE
  8
0
 10
9.02173
 20
-11.6211
 11
9.03735
 21
-11.6819
  0
LINE
  8
0
 10
9.03735
 20
-11.6819
 11
9.06047
 21
-11.7403
  0
LINE
  8
0
 10
9.06047
 20
-11.7403
 11
9.09071
 21
-11.7953
  0
LINE
  8
0
 10
9.09071
 20
-11.7953
 11
9.12762
 21
-11.8461
  0
LINE
  8
0
 10
9.12762
 20
-11.8461
 11
9.17061
 21
-11.8919
  0
LINE
  8
0
 10
9.17061
 20
-11.8919
 11
9.21898
 21
-11.9319
  0
LINE
  8
0
 10
9.21898
 20
-11.9319
 11
9.272
 21
-11.9655
  0
LINE
  8
0
 10
9.272
 20
-11.9655
 11
9.32881
 21
-11.9923
  0
LINE
  8
0
 10
9.32881
 20
-11.9923
 11
9.38853
 21
-12.0117
  0
LINE
  8
0
 10
9.38853
 20
-12.0117
 11
9.45021
 21
-12.0235
  0
LINE
  8
0
 10
9.45021
 20
-12.0235
 11
9.51288
 21
-12.0274
  0
LINE
  8
0
 10
9.51288
 20
-12.0274
 11
11.9724
 21
-12.0274
  0
LINE
  8
0
 10
11.9724
 20
-12.0274
 11
12.0531
 21
-12.0208
  0
LINE
  8
0
 10
9.51288
 20
-11.5274
 11
10.7383
 21
-6.13812
  0
LINE
  8
0
 10
10.7383
 20
-6.13812
 11
11.9724
 21
-11.5274
  0
LINE
  8
0
 10
11.9724
 20
-11.5274
 11
9.51288
 21
-11.5274
  0
LINE
  8
0
 10
4.04558
 20
-14.6307
 11
1.42738
 21
-14.6307
  0
LINE
  8
0
 10
1.42738
 20
-14.6307
 11
1.42738
 21
-6.04453
  0
LINE
  8
0
 10
1.42738
 20
-6.04453
 11
4.04558
 21
-6.04453
  0
LINE
  8
0
 10
4.04558
 20
-6.04453
 11
4.04558
 21
-3.75652
  0
LINE
  8
0
 10
4.04558
 20
-3.75652
 11
-3.79146
 21
-3.75652
  0
LINE
  8
0
 10
-3.79146
 20
-3.75652
 11
-3.79146
 21
-6.04453
  0
LINE
  8
0
 10
-3.79146
 20
-6.04453
 11
-1.17325
 21
-6.04453
  0
LINE
  8
0
 10
-1.17325
 20
-6.04453
 11
-1.17325
 21
-14.6307
  0
LINE
  8
0
 10
-1.17325
 20
-14.6307
 11
-3.79146
 21
-14.6307
  0
LINE
  8
0
 10
-3.79146
 20
-14.6307
 11
-3.79146
 21
-16.9187
  0
LINE
  8
0
 10
-3.79146
 20
-16.9187
 11
4.04558
 21
-16.9187
  0
LINE
  8
0
 10
4.04558
 20
-16.9187
 11
4.04558
 21
-14.6307
  0
LINE
  8
0
 10
-3.29146
 20
-16.4187
 11
-3.29146
 21
-15.1307
  0
LINE
  8
0
 10
-3.29146
 20
-15.1307
 11
-1.17325
 21
-15.1307
  0
LINE
  8
0
 10
-1.17325
 20
-15.1307
 11
-1.07956
 21
-15.1219
  0
LINE
  8
0
 10
-1.07956
 20
-15.1219
 11
-1.01874
 21
-15.1063
  0
LINE
  8
0
 10
-1.01874
 20
-15.1063
 11
-0.960358
 21
-15.0831
  0
LINE
  8
0
 10
-0.960358
 20
-15.0831
 11
-0.905334
 21
-15.0529
  0
LINE
  8
0
 10
-0.905334
 20
-15.0529
 11
-0.854538
 21
-15.016
  0
LINE
  8
0
 10
-0.854538
 20
-15.016
 11
-0.808762
 21
-14.973
  0
LINE
  8
0
 10
-0.808762
 20
-14.973
 11
-0.768738
 21
-14.9246
  0
LINE
  8
0
 10
-0.768738
 20
-14.9246
 11
-0.735092
 21
-14.8716
  0
LINE
  8
0
 10
-0.735092
 20
-14.8716
 11
-0.708359
 21
-14.8148
  0
LINE
  8
0
 10
-0.708359
 20
-14.8148
 11
-0.68895
 21
-14.7551
  0
LINE
  8
0
 10
-0.68895
 20
-14.7551
 11
-0.677185
 21
-14.6934
  0
LINE
  8
0
 10
-0.677185
 20
-14.6934
 11
-0.673248
 21
-14.6307
  0
LINE
  8
0
 10
-0.673248
 20
-14.6307
 11
-0.673248
 21
-6.04453
  0
LINE
  8
0
 10
-0.673248
 20
-6.04453
 11
-0.682098
 21
-5.95084
  0
LINE
  8
0
 10
-0.682098
 20
-5.95084
 11
-0.697723
 21
-5.89001
  0
LINE
  8
0
 10
-0.697723
 20
-5.89001
 11
-0.72084
 21
-5.83163
  0
LINE
  8
0
 10
-0.72084
 20
-5.83163
 11
-0.751083
 21
-5.77661
  0
LINE
  8
0
 10
-0.751083
 20
-5.77661
 11
-0.787994
 21
-5.72581
  0
LINE
  8
0
 10
-0.787994
 20
-5.72581
 11
-0.830978
 21
-5.68004
  0
LINE
  8
0
 10
-0.830978
 20
-5.68004
 11
-0.879349
 21
-5.64001
  0
LINE
  8
0
 10
-0.879349
 20
-5.64001
 11
-0.932373
 21
-5.60637
  0
LINE
  8
0
 10
-0.932373
 20
-5.60637
 11
-0.989182
 21
-5.57964
  0
LINE
  8
0
 10
-0.989182
 20
-5.57964
 11
-1.0489
 21
-5.56023
  0
LINE
  8
0
 10
-1.0489
 20
-5.56023
 11
-1.11058
 21
-5.54846
  0
LINE
  8
0
 10
-1.11058
 20
-5.54846
 11
-1.17325
 21
-5.54453
  0
LINE
  8
0
 10
-1.17325
 20
-5.54453
 11
-3.29146
 21
-5.54453
  0
LINE
  8
0
 10
-3.29146
 20
-5.54453
 11
-3.29146
 21
-4.25652
  0
LINE
  8
0
 10
-3.29146
 20
-4.25652
 11
3.54558
 21
-4.25652
  0
LINE
  8
0
 10
3.54558
 20
-4.25652
 11
3.54558
 21
-5.54453
  0
LINE
  8
0
 10
3.54558
 20
-5.54453
 11
1.42738
 21
-5.54453
  0
LINE
  8
0
 10
1.42738
 20
-5.54453
 11
1.33369
 21
-5.55338
  0
LINE
  8
0
 10
1.33369
 20
-5.55338
 11
1.27287
 21
-5.569
  0
LINE
  8
0
 10
1.27287
 20
-5.569
 11
1.21449
 21
-5.59212
  0
LINE
  8
0
 10
1.21449
 20
-5.59212
 11
1.15947
 21
-5.62236
  0
LINE
  8
0
 10
1.15947
 20
-5.62236
 11
1.10867
 21
-5.65927
  0
LINE
  8
0
 10
1.10867
 20
-5.65927
 11
1.0629
 21
-5.70226
  0
LINE
  8
0
 10
1.0629
 20
-5.70226
 11
1.02287
 21
-5.75063
  0
LINE
  8
0
 10
1.02287
 20
-5.75063
 11
0.989227
 21
-5.80365
  0
LINE
  8
0
 10
0.989227
 20
-5.80365
 11
0.962494
 21
-5.86046
  0
LINE
  8
0
 10
0.962494
 20
-5.86046
 11
0.943085
 21
-5.92018
  0
LINE
  8
0
 10
0.943085
 20
-5.92018
 11
0.93132
 21
-5.98186
  0
LINE
  8
0
 10
0.93132
 20
-5.98186
 11
0.927383
 21
-6.04453
  0
LINE
  8
0
 10
0.927383
 20
-6.04453
 11
0.927383
 21
-14.6307
  0
LINE
  8
0
 10
0.927383
 20
-14.6307
 11
0.936234
 21
-14.7244
  0
LINE
  8
0
 10
0.936234
 20
-14.7244
 11
0.951859
 21
-14.7852
  0
LINE
  8
0
 10
0.951859
 20
-14.7852
 11
0.974976
 21
-14.8436
  0
LINE
  8
0
 10
0.974976
 20
-14.8436
 11
1.00522
 21
-14.8987
  0
LINE
  8
0
 10
1.00522
 20
-14.8987
 11
1.04213
 21
-14.9494
  0
LINE
  8
0
 10
1.04213
 20
-14.9494
 11
1.08511
 21
-14.9952
  0
LINE
  8
0
 10
1.08511
 20
-14.9952
 11
1.13348
 21
-15.0352
  0
LINE
  8
0
 10
1.13348
 20
-15.0352
 11
1.18651
 21
-15.0689
  0
LINE
  8
0
 10
1.18651
 20
-15.0689
 11
1.24332
 21
-15.0956
  0
LINE
  8
0
 10
1.24332
 20
-15.0956
 11
1.30304
 21
-15.115
  0
LINE
  8
0
 10
1.30304
 20
-15.115
 11
1.36472
 21
-15.1268
  0
LINE
  8
0
 10
1.36472
 20
-15.1268
 11
1.42738
 21
-15.1307
  0
LINE
  8
0
 10
1.42738
 20
-15.1307
 11
3.54558
 21
-15.1307
  0
LINE
  8
0
 10
3.54558
 20
-15.1307
 11
3.54558
 21
-16.4187
  0
LINE
  8
0
 10
3.54558
 20
-16.4187
 11
-3.29146
 21
-16.4187
  0
LINE
  8
0
 10
19.2645
 20
-16.3885
 11
19.2645
 21
-7.35349
  0
LINE
  8
0
 10
19.2645
 20
-7.35349
 11
22.4733
 21
-15.6827
  0
LINE
  8
0
 10
22.4733
 20
-15.6827
 11
22.9842
 21
-15.6181
  0
LINE
  8
0
 10
22.9842
 20
-15.6181
 11
19.731
 21
-7.17374
  0
LINE
  8
0
 10
19.731
 20
-7.17374
 11
19.7026
 21
-7.11261
  0
LINE
  8
0
 10
19.7026
 20
-7.11261
 11
19.669
 21
-7.05959
  0
LINE
  8
0
 10
19.669
 20
-7.05959
 11
19.629
 21
-7.01122
  0
LINE
  8
0
 10
19.629
 20
-7.01122
 11
19.5832
 21
-6.96823
  0
LINE
  8
0
 10
19.5832
 20
-6.96823
 11
19.5324
 21
-6.93132
  0
LINE
  8
0
 10
19.5324
 20
-6.93132
 11
19.4774
 21
-6.90108
  0
LINE
  8
0
 10
19.4774
 20
-6.90108
 11
19.419
 21
-6.87796
  0
LINE
  8
0
 10
19.419
 20
-6.87796
 11
19.3582
 21
-6.86234
  0
LINE
  8
0
 10
19.3582
 20
-6.86234
 11
19.2959
 21
-6.85448
  0
LINE
  8
0
 10
19.2959
 20
-6.85448
 11
19.2331
 21
-6.85448
  0
LINE
  8
0
 10
19.2331
 20
-6.85448
 11
19.1708
 21
-6.86234
  0
LINE
  8
0
 10
19.1708
 20
-6.86234
 11
19.11
 21
-6.87796
  0
LINE
  8
0
 10
19.11
 20
-6.87796
 11
19.0516
 21
-6.90108
  0
LINE
  8
0
 10
19.0516
 20
-6.90108
 11
18.9966
 21
-6.93132
  0
LINE
  8
0
 10
18.9966
 20
-6.93132
 11
18.9458
 21
-6.96823
  0
LINE
  8
0
 10
18.9458
 20
-6.96823
 11
18.9
 21
-7.01122
  0
LINE
  8
0
 10
18.9
 20
-7.01122
 11
18.86
 21
-7.05959
  0
LINE
  8
0
 10
18.86
 20
-7.05959
 11
18.8263
 21
-7.11261
  0
LINE
  8
0
 10
18.8263
 20
-7.11261
 11
18.7996
 21
-7.16942
  0
LINE
  8
0
 10
18.7996
 20
-7.16942
 11
18.7802
 21
-7.22914
  0
LINE
  8
0
 10
18.7802
 20
-7.22914
 11
18.7684
 21
-7.29082
  0
LINE
  8
0
 10
18.7684
 20
-7.29082
 11
18.7645
 21
-7.35349
  0
LINE
  8
0
 10
18.7645
 20
-7.35349
 11
18.7645
 21
-16.4187
  0
LINE
  8
0
 10
18.7645
 20
-16.4187
 11
17.4724
 21
-16.4187
  0
LINE
  8
0
 10
17.4724
 20
-16.4187
 11
17.4724
 21
-4.25652
  0
LINE
  8
0
 10
17.4724
 20
-4.25652
 11
19.4231
 21
-4.25652
  0
LINE
  8
0
 10
19.4231
 20
-4.25652
 11
22.9674
 21
-13.5008
  0
LINE
  8
0
 10
22.9674
 20
-13.5008
 11
22.9961
 21
-13.5627
  0
LINE
  8
0
 10
22.9961
 20
-13.5627
 11
23.0297
 21
-13.6157
  0
LINE
  8
0
 10
23.0297
 20
-13.6157
 11
23.0697
 21
-13.664
  0
LINE
  8
0
 10
23.0697
 20
-13.664
 11
23.1155
 21
-13.707
  0
LINE
  8
0
 10
23.1155
 20
-13.707
 11
23.1663
 21
-13.7439
  0
LINE
  8
0
 10
23.1663
 20
-13.7439
 11
23.2213
 21
-13.7742
  0
LINE
  8
0
 10
23.2213
 20
-13.7742
 11
23.2797
 21
-13.7973
  0
LINE
  8
0
 10
23.2797
 20
-13.7973
 11
23.3405
 21
-13.8129
  0
LINE
  8
0
 10
23.3405
 20
-13.8129
 11
23.4028
 21
-13.8208
  0
LINE
  8
0
 10
23.4028
 20
-13.8208
 11
23.4656
 21
-13.8208
  0
LINE
  8
0
 10
23.4656
 20
-13.8208
 11
23.5279
 21
-13.8129
  0
LINE
  8
0
 10
23.5279
 20
-13.8129
 11
23.5887
 21
-13.7973
  0
LINE
  8
0
 10
23.5887
 20
-13.7973
 11
23.6471
 21
-13.7742
  0
LINE
  8
0
 10
23.6471
 20
-13.7742
 11
23.7021
 21
-13.7439
  0
LINE
  8
0
 10
23.7021
 20
-13.7439
 11
23.7529
 21
-13.707
  0
LINE
  8
0
 10
23.7529
 20
-13.707
 11
23.7987
 21
-13.664
  0
LINE
  8
0
 10
23.7987
 20
-13.664
 11
23.8387
 21
-13.6157
  0
LINE
  8
0
 10
23.8387
 20
-13.6157
 11
23.8724
 21
-13.5627
  0
LINE
  8
0
 10
23.8724
 20
-13.5627
 11
23.8991
 21
-13.5058
  0
LINE
  8
0
 10
23.8991
 20
-13.5058
 11
23.9185
 21
-13.4461
  0
LINE
  8
0
 10
23.9185
 20
-13.4461
 11
23.9303
 21
-13.3844
  0
LINE
  8
0
 10
23.9303
 20
-13.3844
 11
23.9342
 21
-13.3218
  0
LINE
  8
0
 10
23.9342
 20
-13.3218
 11
23.9342
 21
-4.25652
  0
LINE
  8
0
 10
23.9342
 20
-4.25652
 11
25.2264
 21
-4.25652
  0
LINE
  8
0
 10
25.2264
 20
-4.25652
 11
25.2264
 21
-15.3349
  0
LINE
  8
0
 10
25.2264
 20
-15.3349
 11
25.7264
 21
-15.2717
  0
LINE
  8
0
 10
25.7264
 20
-15.2717
 11
25.7264
 21
-3.75652
  0
LINE
  8
0
 10
25.7264
 20
-3.75652
 11
23.4342
 21
-3.75652
  0
LINE
  8
0
 10
23.4342
 20
-3.75652
 11
23.4342
 21
-13.3218
  0
LINE
  8
0
 10
23.4342
 20
-13.3218
 11
19.7669
 21
-3.75652
  0
LINE
  8
0
 10
19.7669
 20
-3.75652
 11
16.9724
 21
-3.75652
  0
LINE
  8
0
 10
16.9724
 20
-3.75652
 11
16.9724
 21
-16.9187
  0
LINE
  8
0
 10
16.9724
 20
-16.9187
 11
17.1992
 21
-16.9187
  0
LINE
  8
0
 10
17.1992
 20
-16.9187
 11
19.2645
 21
-16.3885
  0
LINE
  8
0
 10
-9.18817
 20
-6.02788
 11
-5.84705
 21
-6.02788
  0
LINE
  8
0
 10
-5.84705
 20
-6.02788
 11
-5.84705
 21
-3.75652
  0
LINE
  8
0
 10
-5.84705
 20
-3.75652
 11
-15.13
 21
-3.75652
  0
LINE
  8
0
 10
-15.13
 20
-3.75652
 11
-15.13
 21
-6.02788
  0
LINE
  8
0
 10
-15.13
 20
-6.02788
 11
-11.7888
 21
-6.02788
  0
LINE
  8
0
 10
-11.7888
 20
-6.02788
 11
-11.7888
 21
-16.9187
  0
LINE
  8
0
 10
-11.7888
 20
-16.9187
 11
-9.18817
 21
-16.9187
  0
LINE
  8
0
 10
-9.18817
 20
-16.9187
 11
-9.18817
 21
-6.02788
  0
LINE
  8
0
 10
-11.2888
 20
-16.4187
 11
-11.2888
 21
-6.02788
  0
LINE
  8
0
 10
-11.2888
 20
-6.02788
 11
-11.2977
 21
-5.93419
  0
LINE
  8
0
 10
-11.2977
 20
-5.93419
 11
-11.3133
 21
-5.87337
  0
LINE
  8
0
 10
-11.3133
 20
-5.87337
 11
-11.3364
 21
-5.81499
  0
LINE
  8
0
 10
-11.3364
 20
-5.81499
 11
-11.3667
 21
-5.75996
  0
LINE
  8
0
 10
-11.3667
 20
-5.75996
 11
-11.4036
 21
-5.70917
  0
LINE
  8
0
 10
-11.4036
 20
-5.70917
 11
-11.4465
 21
-5.66339
  0
LINE
  8
0
 10
-11.4465
 20
-5.66339
 11
-11.4949
 21
-5.62337
  0
LINE
  8
0
 10
-11.4949
 20
-5.62337
 11
-11.5479
 21
-5.58972
  0
LINE
  8
0
 10
-11.5479
 20
-5.58972
 11
-11.6048
 21
-5.56299
  0
LINE
  8
0
 10
-11.6048
 20
-5.56299
 11
-11.6645
 21
-5.54358
  0
LINE
  8
0
 10
-11.6645
 20
-5.54358
 11
-11.7262
 21
-5.53181
  0
LINE
  8
0
 10
-11.7262
 20
-5.53181
 11
-11.7888
 21
-5.52788
  0
LINE
  8
0
 10
-11.7888
 20
-5.52788
 11
-14.63
 21
-5.52788
  0
LINE
  8
0
 10
-14.63
 20
-5.52788
 11
-14.63
 21
-4.25652
  0
LINE
  8
0
 10
-14.63
 20
-4.25652
 11
-6.34705
 21
-4.25652
  0
LINE
  8
0
 10
-6.34705
 20
-4.25652
 11
-6.34705
 21
-5.52788
  0
LINE
  8
0
 10
-6.34705
 20
-5.52788
 11
-9.18817
 21
-5.52788
  0
LINE
  8
0
 10
-9.18817
 20
-5.52788
 11
-9.28186
 21
-5.53673
  0
LINE
  8
0
 10
-9.28186
 20
-5.53673
 11
-9.34268
 21
-5.55235
  0
LINE
  8
0
 10
-9.34268
 20
-5.55235
 11
-9.40106
 21
-5.57547
  0
LINE
  8
0
 10
-9.40106
 20
-5.57547
 11
-9.45609
 21
-5.60571
  0
LINE
  8
0
 10
-9.45609
 20
-5.60571
 11
-9.50688
 21
-5.64262
  0
LINE
  8
0
 10
-9.50688
 20
-5.64262
 11
-9.55266
 21
-5.68561
  0
LINE
  8
0
 10
-9.55266
 20
-5.68561
 11
-9.59268
 21
-5.73398
  0
LINE
  8
0
 10
-9.59268
 20
-5.73398
 11
-9.62633
 21
-5.787
  0
LINE
  8
0
 10
-9.62633
 20
-5.787
 11
-9.65306
 21
-5.84381
  0
LINE
  8
0
 10
-9.65306
 20
-5.84381
 11
-9.67247
 21
-5.90353
  0
LINE
  8
0
 10
-9.67247
 20
-5.90353
 11
-9.68423
 21
-5.96521
  0
LINE
  8
0
 10
-9.68423
 20
-5.96521
 11
-9.68817
 21
-6.02788
  0
LINE
  8
0
 10
-9.68817
 20
-6.02788
 11
-9.68817
 21
-16.4187
  0
LINE
  8
0
 10
-9.68817
 20
-16.4187
 11
-11.2888
 21
-16.4187
  0
ENDSEC
  0
SECTION
  2
OBJECTS
  0
DICTIONARY
  0
ENDSEC
  0
EOF
