<?xml version="1.0" standalone="no"?>
<!DOCTYPE svg PUBLIC "-//W3C//DTD SVG 1.1//EN" "http://www.w3.org/Graphics/SVG/1.1/DTD/svg11.dtd">
<svg width="32mm" height="14mm" viewBox="-16 -7 32 14" xmlns="http://www.w3.org/2000/svg" version="1.1">
<title>OpenSCAD Model</title>
<path d="
M 10.7383,2.07173 L 13.2506,6.42686 L 15.9394,6.42686 L 12.0959,-0.25563 L 15.8336,-6.73535 L 13.1448,-6.73535
 L 10.7383,-2.54779 L 8.34041,-6.73535 L 5.65163,-6.73535 L 9.40706,-0.25563 L 5.54581,6.42686 L 8.23459,6.42686
 z
M 6.41219,5.92686 L 9.83998,-0.00547791 L 9.87599,-0.0821228 L 9.89404,-0.142258 L 9.9044,-0.204193 L 9.90694,-0.266937
 L 9.90157,-0.329498 L 9.88841,-0.390884 L 9.86766,-0.45015 L 9.83966,-0.506348 L 6.51932,-6.23535 L 8.05055,-6.23535
 L 10.3044,-2.29933 L 10.3283,-2.26161 L 10.3674,-2.21248 L 10.4123,-2.16864 L 10.4624,-2.13078 L 10.5168,-2.09949
 L 10.5748,-2.07527 L 10.6353,-2.05852 L 10.6974,-2.04947 L 10.7602,-2.04828 L 10.8226,-2.05496 L 10.8837,-2.06943
 L 10.9426,-2.09143 L 10.9981,-2.12062 L 11.0496,-2.15657 L 11.0962,-2.19867 L 11.1371,-2.24629 L 11.1718,-2.29866
 L 13.4342,-6.23535 L 14.968,-6.23535 L 11.6628,-0.505463 L 11.6275,-0.430679 L 11.6093,-0.370605 L 11.5987,-0.308701
 L 11.5959,-0.245972 L 11.6011,-0.183395 L 11.6141,-0.121964 L 11.6346,-0.0626221 L 11.6624,-0.0063324 L 15.075,5.92686
 L 13.5394,5.92686 L 11.1714,1.82188 L 11.1483,1.78561 L 11.1092,1.73648 L 11.0643,1.69263 L 11.0142,1.65475
 L 10.9597,1.62346 L 10.9018,1.59924 L 10.8413,1.58246 L 10.7792,1.57341 L 10.7164,1.5722 L 10.654,1.57889
 L 10.5929,1.59334 L 10.5341,1.61534 L 10.4785,1.64453 L 10.427,1.68047 L 10.3804,1.72256 L 10.3394,1.77017
 L 10.3048,1.82254 L 7.9453,5.92686 z
M 4.37175,4.13887 L -1.22617,4.13887 L -1.22617,0.686066 L 3.84277,0.686066 L 3.84277,-1.60191 L -1.22617,-1.60191
 L -1.22617,-4.44736 L 4.37175,-4.44736 L 4.37175,-6.73535 L -3.82669,-6.73535 L -3.82669,6.42686 L 4.37175,6.42686
 z
M -3.32669,5.92686 L -3.32669,-6.23535 L 3.87175,-6.23535 L 3.87175,-4.94736 L -1.22617,-4.94736 L -1.31985,-4.93851
 L -1.38068,-4.92288 L -1.43906,-4.89977 L -1.49408,-4.86952 L -1.54488,-4.83261 L -1.59065,-4.78963 L -1.63068,-4.74126
 L -1.66432,-4.68823 L -1.69106,-4.63142 L -1.71046,-4.5717 L -1.72223,-4.51003 L -1.72617,-4.44736 L -1.72617,-1.60191
 L -1.71732,-1.50822 L -1.70169,-1.4474 L -1.67857,-1.38902 L -1.64833,-1.334 L -1.61142,-1.2832 L -1.56844,-1.23743
 L -1.52007,-1.1974 L -1.46704,-1.16376 L -1.41023,-1.13702 L -1.35051,-1.11761 L -1.28883,-1.10585 L -1.22617,-1.10191
 L 3.34277,-1.10191 L 3.34277,0.186066 L -1.22617,0.186066 L -1.31985,0.194916 L -1.38068,0.210541 L -1.43906,0.233658
 L -1.49408,0.263901 L -1.54488,0.300812 L -1.59065,0.343796 L -1.63068,0.392166 L -1.66432,0.44519 L -1.69106,0.501999
 L -1.71046,0.561722 L -1.72223,0.623398 L -1.72617,0.686066 L -1.72617,4.13887 L -1.71732,4.23256 L -1.70169,4.29338
 L -1.67857,4.35176 L -1.64833,4.40678 L -1.61142,4.45758 L -1.56844,4.50336 L -1.52007,4.54338 L -1.46704,4.57703
 L -1.41023,4.60376 L -1.35051,4.62317 L -1.28883,4.63493 L -1.22617,4.63887 L 3.87175,4.63887 L 3.87175,5.92686
 z
M -12.9261,-4.11612 L -11.5156,1.64287 L -9.44388,1.64287 L -8.05093,-4.11612 L -8.05093,6.42686 L -5.81181,6.42686
 L -5.81181,-6.73535 L -8.93259,-6.73535 L -10.4929,-0.958801 L -12.0621,-6.73535 L -15.1652,-6.73535 L -15.1652,6.42686
 L -12.9261,6.42686 z
M -14.6652,5.92686 L -14.6652,-6.23535 L -12.4444,-6.23535 L -10.9754,-0.827728 L -10.96,-0.780563 L -10.934,-0.723419
 L -10.901,-0.669983 L -10.8616,-0.621109 L -10.8164,-0.577545 L -10.766,-0.540009 L -10.7114,-0.509079 L -10.6533,-0.485245
 L -10.5927,-0.468872 L -10.5305,-0.46022 L -10.4677,-0.459442 L -10.4053,-0.466522 L -10.3443,-0.481384 L -10.2856,-0.503769
 L -10.2302,-0.533325 L -10.179,-0.569595 L -10.1327,-0.612 L -10.0921,-0.659882 L -10.0577,-0.712479 L -10.0303,-0.768951
 L -10.0102,-0.828415 L -8.54973,-6.23535 L -6.31181,-6.23535 L -6.31181,5.92686 L -7.55093,5.92686 L -7.55093,-4.11612
 L -7.5558,-4.18573 L -7.56844,-4.24724 L -7.58867,-4.30667 L -7.6162,-4.36311 L -7.65059,-4.41565 L -7.69128,-4.46347
 L -7.73766,-4.5058 L -7.78896,-4.54199 L -7.84441,-4.57147 L -7.90311,-4.59377 L -7.96413,-4.60852 L -8.02654,-4.61552
 L -8.08932,-4.61464 L -8.1515,-4.6059 L -8.2121,-4.58943 L -8.27014,-4.56551 L -8.32474,-4.53448 L -8.37502,-4.49687
 L -8.42018,-4.45325 L -8.45952,-4.40431 L -8.49242,-4.35083 L -8.51836,-4.29366 L -8.53693,-4.23367 L -9.83737,1.14287
 L -11.1232,1.14287 L -12.4404,-4.23506 L -12.4612,-4.30019 L -12.4879,-4.35699 L -12.5215,-4.41002 L -12.5616,-4.45839
 L -12.6073,-4.50137 L -12.6581,-4.53828 L -12.7132,-4.56853 L -12.7715,-4.59164 L -12.8324,-4.60727 L -12.8947,-4.61513
 L -12.9575,-4.61513 L -13.0197,-4.60727 L -13.0806,-4.59164 L -13.1389,-4.56853 L -13.194,-4.53828 L -13.2448,-4.50137
 L -13.2905,-4.45839 L -13.3306,-4.41002 L -13.3642,-4.35699 L -13.3909,-4.30019 L -13.4104,-4.24046 L -13.4221,-4.17879
 L -13.4261,-4.11612 L -13.4261,5.92686 z
" stroke="black" fill="lightgray" stroke-width="0.5"/>
</svg>
