  0
SECTION
  2
BLOCKS
  0
ENDSEC
  0
SECTION
  2
ENTITIES
  0
LINE
  8
0
 10
10.7383
 20
-2.07173
 11
13.2506
 21
-6.42686
  0
LINE
  8
0
 10
13.2506
 20
-6.42686
 11
15.9394
 21
-6.42686
  0
LINE
  8
0
 10
15.9394
 20
-6.42686
 11
12.0959
 21
0.25563
  0
LINE
  8
0
 10
12.0959
 20
0.25563
 11
15.8336
 21
6.73535
  0
LINE
  8
0
 10
15.8336
 20
6.73535
 11
13.1448
 21
6.73535
  0
LINE
  8
0
 10
13.1448
 20
6.73535
 11
10.7383
 21
2.54779
  0
LINE
  8
0
 10
10.7383
 20
2.54779
 11
8.34041
 21
6.73535
  0
LINE
  8
0
 10
8.34041
 20
6.73535
 11
5.65163
 21
6.73535
  0
LINE
  8
0
 10
5.65163
 20
6.73535
 11
9.40706
 21
0.25563
  0
LINE
  8
0
 10
9.40706
 20
0.25563
 11
5.54581
 21
-6.42686
  0
LINE
  8
0
 10
5.54581
 20
-6.42686
 11
8.23459
 21
-6.42686
  0
LINE
  8
0
 10
8.23459
 20
-6.42686
 11
10.7383
 21
-2.07173
  0
LINE
  8
0
 10
6.41219
 20
-5.92686
 11
9.83998
 21
0.00547791
  0
LINE
  8
0
 10
9.83998
 20
0.00547791
 11
9.87599
 21
0.0821228
  0
LINE
  8
0
 10
9.87599
 20
0.0821228
 11
9.89404
 21
0.142258
  0
LINE
  8
0
 10
9.89404
 20
0.142258
 11
9.9044
 21
0.204193
  0
LINE
  8
0
 10
9.9044
 20
0.204193
 11
9.90694
 21
0.266937
  0
LINE
  8
0
 10
9.90694
 20
0.266937
 11
9.90157
 21
0.329498
  0
LINE
  8
0
 10
9.90157
 20
0.329498
 11
9.88841
 21
0.390884
  0
LINE
  8
0
 10
9.88841
 20
0.390884
 11
9.86766
 21
0.45015
  0
LINE
  8
0
 10
9.86766
 20
0.45015
 11
9.83966
 21
0.506348
  0
LINE
  8
0
 10
9.83966
 20
0.506348
 11
6.51932
 21
6.23535
  0
LINE
  8
0
 10
6.51932
 20
6.23535
 11
8.05055
 21
6.23535
  0
LINE
  8
0
 10
8.05055
 20
6.23535
 11
10.3044
 21
2.29933
  0
LINE
  8
0
 10
10.3044
 20
2.29933
 11
10.3283
 21
2.26161
  0
LINE
  8
0
 10
10.3283
 20
2.26161
 11
10.3674
 21
2.21248
  0
LINE
  8
0
 10
10.3674
 20
2.21248
 11
10.4123
 21
2.16864
  0
LINE
  8
0
 10
10.4123
 20
2.16864
 11
10.4624
 21
2.13078
  0
LINE
  8
0
 10
10.4624
 20
2.13078
 11
10.5168
 21
2.09949
  0
LINE
  8
0
 10
10.5168
 20
2.09949
 11
10.5748
 21
2.07527
  0
LINE
  8
0
 10
10.5748
 20
2.07527
 11
10.6353
 21
2.05852
  0
LINE
  8
0
 10
10.6353
 20
2.05852
 11
10.6974
 21
2.04947
  0
LINE
  8
0
 10
10.6974
 20
2.04947
 11
10.7602
 21
2.04828
  0
LINE
  8
0
 10
10.7602
 20
2.04828
 11
10.8226
 21
2.05496
  0
LINE
  8
0
 10
10.8226
 20
2.05496
 11
10.8837
 21
2.06943
  0
LINE
  8
0
 10
10.8837
 20
2.06943
 11
10.9426
 21
2.09143
  0
LINE
  8
0
 10
10.9426
 20
2.09143
 11
10.9981
 21
2.12062
  0
LINE
  8
0
 10
10.9981
 20
2.12062
 11
11.0496
 21
2.15657
  0
LINE
  8
0
 10
11.0496
 20
2.15657
 11
11.0962
 21
2.19867
  0
LINE
  8
0
 10
11.0962
 20
2.19867
 11
11.1371
 21
2.24629
  0
LINE
  8
0
 10
11.1371
 20
2.24629
 11
11.1718
 21
2.29866
  0
LINE
  8
0
 10
11.1718
 20
2.29866
 11
13.4342
 21
6.23535
  0
LINE
  8
0
 10
13.4342
 20
6.23535
 11
14.968
 21
6.23535
  0
LINE
  8
0
 10
14.968
 20
6.23535
 11
11.6628
 21
0.505463
  0
LINE
  8
0
 10
11.6628
 20
0.505463
 11
11.6275
 21
0.430679
  0
LINE
  8
0
 10
11.6275
 20
0.430679
 11
11.6093
 21
0.370605
  0
LINE
  8
0
 10
11.6093
 20
0.370605
 11
11.5987
 21
0.308701
  0
LINE
  8
0
 10
11.5987
 20
0.308701
 11
11.5959
 21
0.245972
  0
LINE
  8
0
 10
11.5959
 20
0.245972
 11
11.6011
 21
0.183395
  0
LINE
  8
0
 10
11.6011
 20
0.183395
 11
11.6141
 21
0.121964
  0
LINE
  8
0
 10
11.6141
 20
0.121964
 11
11.6346
 21
0.0626221
  0
LINE
  8
0
 10
11.6346
 20
0.0626221
 11
11.6624
 21
0.0063324
  0
LINE
  8
0
 10
11.6624
 20
0.0063324
 11
15.075
 21
-5.92686
  0
LINE
  8
0
 10
15.075
 20
-5.92686
 11
13.5394
 21
-5.92686
  0
LINE
  8
0
 10
13.5394
 20
-5.92686
 11
11.1714
 21
-1.82188
  0
LINE
  8
0
 10
11.1714
 20
-1.82188
 11
11.1483
 21
-1.78561
  0
LINE
  8
0
 10
11.1483
 20
-1.78561
 11
11.1092
 21
-1.73648
  0
LINE
  8
0
 10
11.1092
 20
-1.73648
 11
11.0643
 21
-1.69263
  0
LINE
  8
0
 10
11.0643
 20
-1.69263
 11
11.0142
 21
-1.65475
  0
LINE
  8
0
 10
11.0142
 20
-1.65475
 11
10.9597
 21
-1.62346
  0
LINE
  8
0
 10
10.9597
 20
-1.62346
 11
10.9018
 21
-1.59924
  0
LINE
  8
0
 10
10.9018
 20
-1.59924
 11
10.8413
 21
-1.58246
  0
LINE
  8
0
 10
10.8413
 20
-1.58246
 11
10.7792
 21
-1.57341
  0
LINE
  8
0
 10
10.7792
 20
-1.57341
 11
10.7164
 21
-1.5722
  0
LINE
  8
0
 10
10.7164
 20
-1.5722
 11
10.654
 21
-1.57889
  0
LINE
  8
0
 10
10.654
 20
-1.57889
 11
10.5929
 21
-1.59334
  0
LINE
  8
0
 10
10.5929
 20
-1.59334
 11
10.5341
 21
-1.61534
  0
LINE
  8
0
 10
10.5341
 20
-1.61534
 11
10.4785
 21
-1.64453
  0
LINE
  8
0
 10
10.4785
 20
-1.64453
 11
10.427
 21
-1.68047
  0
LINE
  8
0
 10
10.427
 20
-1.68047
 11
10.3804
 21
-1.72256
  0
LINE
  8
0
 10
10.3804
 20
-1.72256
 11
10.3394
 21
-1.77017
  0
LINE
  8
0
 10
10.3394
 20
-1.77017
 11
10.3048
 21
-1.82254
  0
LINE
  8
0
 10
10.3048
 20
-1.82254
 11
7.9453
 21
-5.92686
  0
LINE
  8
0
 10
7.9453
 20
-5.92686
 11
6.41219
 21
-5.92686
  0
LINE
  8
0
 10
4.37175
 20
-4.13887
 11
-1.22617
 21
-4.13887
  0
LINE
  8
0
 10
-1.22617
 20
-4.13887
 11
-1.22617
 21
-0.686066
  0
LINE
  8
0
 10
-1.22617
 20
-0.686066
 11
3.84277
 21
-0.686066
  0
LINE
  8
0
 10
3.84277
 20
-0.686066
 11
3.84277
 21
1.60191
  0
LINE
  8
0
 10
3.84277
 20
1.60191
 11
-1.22617
 21
1.60191
  0
LINE
  8
0
 10
-1.22617
 20
1.60191
 11
-1.22617
 21
4.44736
  0
LINE
  8
0
 10
-1.22617
 20
4.44736
 11
4.37175
 21
4.44736
  0
LINE
  8
0
 10
4.37175
 20
4.44736
 11
4.37175
 21
6.73535
  0
LINE
  8
0
 10
4.37175
 20
6.73535
 11
-3.82669
 21
6.73535
  0
LINE
  8
0
 10
-3.82669
 20
6.73535
 11
-3.82669
 21
-6.42686
  0
LINE
  8
0
 10
-3.82669
 20
-6.42686
 11
4.37175
 21
-6.42686
  0
LINE
  8
0
 10
4.37175
 20
-6.42686
 11
4.37175
 21
-4.13887
  0
LINE
  8
0
 10
-3.32669
 20
-5.92686
 11
-3.32669
 21
6.23535
  0
LINE
  8
0
 10
-3.32669
 20
6.23535
 11
3.87175
 21
6.23535
  0
LINE
  8
0
 10
3.87175
 20
6.23535
 11
3.87175
 21
4.94736
  0
LINE
  8
0
 10
3.87175
 20
4.94736
 11
-1.22617
 21
4.94736
  0
LINE
  8
0
 10
-1.22617
 20
4.94736
 11
-1.31985
 21
4.93851
  0
LINE
  8
0
 10
-1.31985
 20
4.93851
 11
-1.38068
 21
4.92288
  0
LINE
  8
0
 10
-1.38068
 20
4.92288
 11
-1.43906
 21
4.89977
  0
LINE
  8
0
 10
-1.43906
 20
4.89977
 11
-1.49408
 21
4.86952
  0
LINE
  8
0
 10
-1.49408
 20
4.86952
 11
-1.54488
 21
4.83261
  0
LINE
  8
0
 10
-1.54488
 20
4.83261
 11
-1.59065
 21
4.78963
  0
LINE
  8
0
 10
-1.59065
 20
4.78963
 11
-1.63068
 21
4.74126
  0
LINE
  8
0
 10
-1.63068
 20
4.74126
 11
-1.66432
 21
4.68823
  0
LINE
  8
0
 10
-1.66432
 20
4.68823
 11
-1.69106
 21
4.63142
  0
LINE
  8
0
 10
-1.69106
 20
4.63142
 11
-1.71046
 21
4.5717
  0
LINE
  8
0
 10
-1.71046
 20
4.5717
 11
-1.72223
 21
4.51003
  0
LINE
  8
0
 10
-1.72223
 20
4.51003
 11
-1.72617
 21
4.44736
  0
LINE
  8
0
 10
-1.72617
 20
4.44736
 11
-1.72617
 21
1.60191
  0
LINE
  8
0
 10
-1.72617
 20
1.60191
 11
-1.71732
 21
1.50822
  0
LINE
  8
0
 10
-1.71732
 20
1.50822
 11
-1.70169
 21
1.4474
  0
LINE
  8
0
 10
-1.70169
 20
1.4474
 11
-1.67857
 21
1.38902
  0
LINE
  8
0
 10
-1.67857
 20
1.38902
 11
-1.64833
 21
1.334
  0
LINE
  8
0
 10
-1.64833
 20
1.334
 11
-1.61142
 21
1.2832
  0
LINE
  8
0
 10
-1.61142
 20
1.2832
 11
-1.56844
 21
1.23743
  0
LINE
  8
0
 10
-1.56844
 20
1.23743
 11
-1.52007
 21
1.1974
  0
LINE
  8
0
 10
-1.52007
 20
1.1974
 11
-1.46704
 21
1.16376
  0
LINE
  8
0
 10
-1.46704
 20
1.16376
 11
-1.41023
 21
1.13702
  0
LINE
  8
0
 10
-1.41023
 20
1.13702
 11
-1.35051
 21
1.11761
  0
LINE
  8
0
 10
-1.35051
 20
1.11761
 11
-1.28883
 21
1.10585
  0
LINE
  8
0
 10
-1.28883
 20
1.10585
 11
-1.22617
 21
1.10191
  0
LINE
  8
0
 10
-1.22617
 20
1.10191
 11
3.34277
 21
1.10191
  0
LINE
  8
0
 10
3.34277
 20
1.10191
 11
3.34277
 21
-0.186066
  0
LINE
  8
0
 10
3.34277
 20
-0.186066
 11
-1.22617
 21
-0.186066
  0
LINE
  8
0
 10
-1.22617
 20
-0.186066
 11
-1.31985
 21
-0.194916
  0
LINE
  8
0
 10
-1.31985
 20
-0.194916
 11
-1.38068
 21
-0.210541
  0
LINE
  8
0
 10
-1.38068
 20
-0.210541
 11
-1.43906
 21
-0.233658
  0
LINE
  8
0
 10
-1.43906
 20
-0.233658
 11
-1.49408
 21
-0.263901
  0
LINE
  8
0
 10
-1.49408
 20
-0.263901
 11
-1.54488
 21
-0.300812
  0
LINE
  8
0
 10
-1.54488
 20
-0.300812
 11
-1.59065
 21
-0.343796
  0
LINE
  8
0
 10
-1.59065
 20
-0.343796
 11
-1.63068
 21
-0.392166
  0
LINE
  8
0
 10
-1.63068
 20
-0.392166
 11
-1.66432
 21
-0.44519
  0
LINE
  8
0
 10
-1.66432
 20
-0.44519
 11
-1.69106
 21
-0.501999
  0
LINE
  8
0
 10
-1.69106
 20
-0.501999
 11
-1.71046
 21
-0.561722
  0
LINE
  8
0
 10
-1.71046
 20
-0.561722
 11
-1.72223
 21
-0.623398
  0
LINE
  8
0
 10
-1.72223
 20
-0.623398
 11
-1.72617
 21
-0.686066
  0
LINE
  8
0
 10
-1.72617
 20
-0.686066
 11
-1.72617
 21
-4.13887
  0
LINE
  8
0
 10
-1.72617
 20
-4.13887
 11
-1.71732
 21
-4.23256
  0
LINE
  8
0
 10
-1.71732
 20
-4.23256
 11
-1.70169
 21
-4.29338
  0
LINE
  8
0
 10
-1.70169
 20
-4.29338
 11
-1.67857
 21
-4.35176
  0
LINE
  8
0
 10
-1.67857
 20
-4.35176
 11
-1.64833
 21
-4.40678
  0
LINE
  8
0
 10
-1.64833
 20
-4.40678
 11
-1.61142
 21
-4.45758
  0
LINE
  8
0
 10
-1.61142
 20
-4.45758
 11
-1.56844
 21
-4.50336
  0
LINE
  8
0
 10
-1.56844
 20
-4.50336
 11
-1.52007
 21
-4.54338
  0
LINE
  8
0
 10
-1.52007
 20
-4.54338
 11
-1.46704
 21
-4.57703
  0
LINE
  8
0
 10
-1.46704
 20
-4.57703
 11
-1.41023
 21
-4.60376
  0
LINE
  8
0
 10
-1.41023
 20
-4.60376
 11
-1.35051
 21
-4.62317
  0
LINE
  8
0
 10
-1.35051
 20
-4.62317
 11
-1.28883
 21
-4.63493
  0
LINE
  8
0
 10
-1.28883
 20
-4.63493
 11
-1.22617
 21
-4.63887
  0
LINE
  8
0
 10
-1.22617
 20
-4.63887
 11
3.87175
 21
-4.63887
  0
LINE
  8
0
 10
3.87175
 20
-4.63887
 11
3.87175
 21
-5.92686
  0
LINE
  8
0
 10
3.87175
 20
-5.92686
 11
-3.32669
 21
-5.92686
  0
LINE
  8
0
 10
-12.9261
 20
4.11612
 11
-11.5156
 21
-1.64287
  0
LINE
  8
0
 10
-11.5156
 20
-1.64287
 11
-9.44388
 21
-1.64287
  0
LINE
  8
0
 10
-9.44388
 20
-1.64287
 11
-8.05093
 21
4.11612
  0
LINE
  8
0
 10
-8.05093
 20
4.11612
 11
-8.05093
 21
-6.42686
  0
LINE
  8
0
 10
-8.05093
 20
-6.42686
 11
-5.81181
 21
-6.42686
  0
LINE
  8
0
 10
-5.81181
 20
-6.42686
 11
-5.81181
 21
6.73535
  0
LINE
  8
0
 10
-5.81181
 20
6.73535
 11
-8.93259
 21
6.73535
  0
LINE
  8
0
 10
-8.93259
 20
6.73535
 11
-10.4929
 21
0.958801
  0
LINE
  8
0
 10
-10.4929
 20
0.958801
 11
-12.0621
 21
6.73535
  0
LINE
  8
0
 10
-12.0621
 20
6.73535
 11
-15.1652
 21
6.73535
  0
LINE
  8
0
 10
-15.1652
 20
6.73535
 11
-15.1652
 21
-6.42686
  0
LINE
  8
0
 10
-15.1652
 20
-6.42686
 11
-12.9261
 21
-6.42686
  0
LINE
  8
0
 10
-12.9261
 20
-6.42686
 11
-12.9261
 21
4.11612
  0
LINE
  8
0
 10
-14.6652
 20
-5.92686
 11
-14.6652
 21
6.23535
  0
LINE
  8
0
 10
-14.6652
 20
6.23535
 11
-12.4444
 21
6.23535
  0
LINE
  8
0
 10
-12.4444
 20
6.23535
 11
-10.9754
 21
0.827728
  0
LINE
  8
0
 10
-10.9754
 20
0.827728
 11
-10.96
 21
0.780563
  0
LINE
  8
0
 10
-10.96
 20
0.780563
 11
-10.934
 21
0.723419
  0
LINE
  8
0
 10
-10.934
 20
0.723419
 11
-10.901
 21
0.669983
  0
LINE
  8
0
 10
-10.901
 20
0.669983
 11
-10.8616
 21
0.621109
  0
LINE
  8
0
 10
-10.8616
 20
0.621109
 11
-10.8164
 21
0.577545
  0
LINE
  8
0
 10
-10.8164
 20
0.577545
 11
-10.766
 21
0.540009
  0
LINE
  8
0
 10
-10.766
 20
0.540009
 11
-10.7114
 21
0.509079
  0
LINE
  8
0
 10
-10.7114
 20
0.509079
 11
-10.6533
 21
0.485245
  0
LINE
  8
0
 10
-10.6533
 20
0.485245
 11
-10.5927
 21
0.468872
  0
LINE
  8
0
 10
-10.5927
 20
0.468872
 11
-10.5305
 21
0.46022
  0
LINE
  8
0
 10
-10.5305
 20
0.46022
 11
-10.4677
 21
0.459442
  0
LINE
  8
0
 10
-10.4677
 20
0.459442
 11
-10.4053
 21
0.466522
  0
LINE
  8
0
 10
-10.4053
 20
0.466522
 11
-10.3443
 21
0.481384
  0
LINE
  8
0
 10
-10.3443
 20
0.481384
 11
-10.2856
 21
0.503769
  0
LINE
  8
0
 10
-10.2856
 20
0.503769
 11
-10.2302
 21
0.533325
  0
LINE
  8
0
 10
-10.2302
 20
0.533325
 11
-10.179
 21
0.569595
  0
LINE
  8
0
 10
-10.179
 20
0.569595
 11
-10.1327
 21
0.612
  0
LINE
  8
0
 10
-10.1327
 20
0.612
 11
-10.0921
 21
0.659882
  0
LINE
  8
0
 10
-10.0921
 20
0.659882
 11
-10.0577
 21
0.712479
  0
LINE
  8
0
 10
-10.0577
 20
0.712479
 11
-10.0303
 21
0.768951
  0
LINE
  8
0
 10
-10.0303
 20
0.768951
 11
-10.0102
 21
0.828415
  0
LINE
  8
0
 10
-10.0102
 20
0.828415
 11
-8.54973
 21
6.23535
  0
LINE
  8
0
 10
-8.54973
 20
6.23535
 11
-6.31181
 21
6.23535
  0
LINE
  8
0
 10
-6.31181
 20
6.23535
 11
-6.31181
 21
-5.92686
  0
LINE
  8
0
 10
-6.31181
 20
-5.92686
 11
-7.55093
 21
-5.92686
  0
LINE
  8
0
 10
-7.55093
 20
-5.92686
 11
-7.55093
 21
4.11612
  0
LINE
  8
0
 10
-7.55093
 20
4.11612
 11
-7.5558
 21
4.18573
  0
LINE
  8
0
 10
-7.5558
 20
4.18573
 11
-7.56844
 21
4.24724
  0
LINE
  8
0
 10
-7.56844
 20
4.24724
 11
-7.58867
 21
4.30667
  0
LINE
  8
0
 10
-7.58867
 20
4.30667
 11
-7.6162
 21
4.36311
  0
LINE
  8
0
 10
-7.6162
 20
4.36311
 11
-7.65059
 21
4.41565
  0
LINE
  8
0
 10
-7.65059
 20
4.41565
 11
-7.69128
 21
4.46347
  0
LINE
  8
0
 10
-7.69128
 20
4.46347
 11
-7.73766
 21
4.5058
  0
LINE
  8
0
 10
-7.73766
 20
4.5058
 11
-7.78896
 21
4.54199
  0
LINE
  8
0
 10
-7.78896
 20
4.54199
 11
-7.84441
 21
4.57147
  0
LINE
  8
0
 10
-7.84441
 20
4.57147
 11
-7.90311
 21
4.59377
  0
LINE
  8
0
 10
-7.90311
 20
4.59377
 11
-7.96413
 21
4.60852
  0
LINE
  8
0
 10
-7.96413
 20
4.60852
 11
-8.02654
 21
4.61552
  0
LINE
  8
0
 10
-8.02654
 20
4.61552
 11
-8.08932
 21
4.61464
  0
LINE
  8
0
 10
-8.08932
 20
4.61464
 11
-8.1515
 21
4.6059
  0
LINE
  8
0
 10
-8.1515
 20
4.6059
 11
-8.2121
 21
4.58943
  0
LINE
  8
0
 10
-8.2121
 20
4.58943
 11
-8.27014
 21
4.56551
  0
LINE
  8
0
 10
-8.27014
 20
4.56551
 11
-8.32474
 21
4.53448
  0
LINE
  8
0
 10
-8.32474
 20
4.53448
 11
-8.37502
 21
4.49687
  0
LINE
  8
0
 10
-8.37502
 20
4.49687
 11
-8.42018
 21
4.45325
  0
LINE
  8
0
 10
-8.42018
 20
4.45325
 11
-8.45952
 21
4.40431
  0
LINE
  8
0
 10
-8.45952
 20
4.40431
 11
-8.49242
 21
4.35083
  0
LINE
  8
0
 10
-8.49242
 20
4.35083
 11
-8.51836
 21
4.29366
  0
LINE
  8
0
 10
-8.51836
 20
4.29366
 11
-8.53693
 21
4.23367
  0
LINE
  8
0
 10
-8.53693
 20
4.23367
 11
-9.83737
 21
-1.14287
  0
LINE
  8
0
 10
-9.83737
 20
-1.14287
 11
-11.1232
 21
-1.14287
  0
LINE
  8
0
 10
-11.1232
 20
-1.14287
 11
-12.4404
 21
4.23506
  0
LINE
  8
0
 10
-12.4404
 20
4.23506
 11
-12.4612
 21
4.30019
  0
LINE
  8
0
 10
-12.4612
 20
4.30019
 11
-12.4879
 21
4.35699
  0
LINE
  8
0
 10
-12.4879
 20
4.35699
 11
-12.5215
 21
4.41002
  0
LINE
  8
0
 10
-12.5215
 20
4.41002
 11
-12.5616
 21
4.45839
  0
LINE
  8
0
 10
-12.5616
 20
4.45839
 11
-12.6073
 21
4.50137
  0
LINE
  8
0
 10
-12.6073
 20
4.50137
 11
-12.6581
 21
4.53828
  0
LINE
  8
0
 10
-12.6581
 20
4.53828
 11
-12.7132
 21
4.56853
  0
LINE
  8
0
 10
-12.7132
 20
4.56853
 11
-12.7715
 21
4.59164
  0
LINE
  8
0
 10
-12.7715
 20
4.59164
 11
-12.8324
 21
4.60727
  0
LINE
  8
0
 10
-12.8324
 20
4.60727
 11
-12.8947
 21
4.61513
  0
LINE
  8
0
 10
-12.8947
 20
4.61513
 11
-12.9575
 21
4.61513
  0
LINE
  8
0
 10
-12.9575
 20
4.61513
 11
-13.0197
 21
4.60727
  0
LINE
  8
0
 10
-13.0197
 20
4.60727
 11
-13.0806
 21
4.59164
  0
LINE
  8
0
 10
-13.0806
 20
4.59164
 11
-13.1389
 21
4.56853
  0
LINE
  8
0
 10
-13.1389
 20
4.56853
 11
-13.194
 21
4.53828
  0
LINE
  8
0
 10
-13.194
 20
4.53828
 11
-13.2448
 21
4.50137
  0
LINE
  8
0
 10
-13.2448
 20
4.50137
 11
-13.2905
 21
4.45839
  0
LINE
  8
0
 10
-13.2905
 20
4.45839
 11
-13.3306
 21
4.41002
  0
LINE
  8
0
 10
-13.3306
 20
4.41002
 11
-13.3642
 21
4.35699
  0
LINE
  8
0
 10
-13.3642
 20
4.35699
 11
-13.3909
 21
4.30019
  0
LINE
  8
0
 10
-13.3909
 20
4.30019
 11
-13.4104
 21
4.24046
  0
LINE
  8
0
 10
-13.4104
 20
4.24046
 11
-13.4221
 21
4.17879
  0
LINE
  8
0
 10
-13.4221
 20
4.17879
 11
-13.4261
 21
4.11612
  0
LINE
  8
0
 10
-13.4261
 20
4.11612
 11
-13.4261
 21
-5.92686
  0
LINE
  8
0
 10
-13.4261
 20
-5.92686
 11
-14.6652
 21
-5.92686
  0
ENDSEC
  0
SECTION
  2
OBJECTS
  0
DICTIONARY
  0
ENDSEC
  0
EOF
