  0
SECTION
  2
BLOCKS
  0
ENDSEC
  0
SECTION
  2
ENTITIES
  0
LINE
  8
0
 10
-21.1084
 20
11.1112
 11
-19.6098
 21
4.19907
  0
LINE
  8
0
 10
-19.6098
 20
4.19907
 11
-17.1855
 21
4.19907
  0
LINE
  8
0
 10
-17.1855
 20
4.19907
 11
-15.6692
 21
17.3613
  0
LINE
  8
0
 10
-15.6692
 20
17.3613
 11
-17.9612
 21
17.3613
  0
LINE
  8
0
 10
-17.9612
 20
17.3613
 11
-18.7019
 21
7.69919
  0
LINE
  8
0
 10
-18.7019
 20
7.69919
 11
-20.0242
 21
13.9501
  0
LINE
  8
0
 10
-20.0242
 20
13.9501
 11
-22.184
 21
13.9501
  0
LINE
  8
0
 10
-22.184
 20
13.9501
 11
-23.3212
 21
7.69919
  0
LINE
  8
0
 10
-23.3212
 20
7.69919
 11
-24.2644
 21
17.3613
  0
LINE
  8
0
 10
-24.2644
 20
17.3613
 11
-26.5389
 21
17.3613
  0
LINE
  8
0
 10
-26.5389
 20
17.3613
 11
-24.9168
 21
4.19907
  0
LINE
  8
0
 10
-24.9168
 20
4.19907
 11
-22.5102
 21
4.19907
  0
LINE
  8
0
 10
-22.5102
 20
4.19907
 11
-21.1084
 21
11.1112
  0
LINE
  8
0
 10
-24.4746
 20
4.69907
 11
-25.9735
 21
16.8613
  0
LINE
  8
0
 10
-25.9735
 20
16.8613
 11
-24.718
 21
16.8613
  0
LINE
  8
0
 10
-24.718
 20
16.8613
 11
-23.8188
 21
7.6506
  0
LINE
  8
0
 10
-23.8188
 20
7.6506
 11
-23.8115
 21
7.6013
  0
LINE
  8
0
 10
-23.8115
 20
7.6013
 11
-23.7953
 21
7.54062
  0
LINE
  8
0
 10
-23.7953
 20
7.54062
 11
-23.7717
 21
7.48244
  0
LINE
  8
0
 10
-23.7717
 20
7.48244
 11
-23.741
 21
7.42767
  0
LINE
  8
0
 10
-23.741
 20
7.42767
 11
-23.7037
 21
7.3772
  0
LINE
  8
0
 10
-23.7037
 20
7.3772
 11
-23.6603
 21
7.33179
  0
LINE
  8
0
 10
-23.6603
 20
7.33179
 11
-23.6116
 21
7.29218
  0
LINE
  8
0
 10
-23.6116
 20
7.29218
 11
-23.5583
 21
7.25899
  0
LINE
  8
0
 10
-23.5583
 20
7.25899
 11
-23.5012
 21
7.23274
  0
LINE
  8
0
 10
-23.5012
 20
7.23274
 11
-23.4413
 21
7.21385
  0
LINE
  8
0
 10
-23.4413
 20
7.21385
 11
-23.3796
 21
7.20261
  0
LINE
  8
0
 10
-23.3796
 20
7.20261
 11
-23.3169
 21
7.1992
  0
LINE
  8
0
 10
-23.3169
 20
7.1992
 11
-23.2542
 21
7.20369
  0
LINE
  8
0
 10
-23.2542
 20
7.20369
 11
-23.1927
 21
7.21597
  0
LINE
  8
0
 10
-23.1927
 20
7.21597
 11
-23.1331
 21
7.23589
  0
LINE
  8
0
 10
-23.1331
 20
7.23589
 11
-23.0765
 21
7.26311
  0
LINE
  8
0
 10
-23.0765
 20
7.26311
 11
-23.0238
 21
7.29721
  0
LINE
  8
0
 10
-23.0238
 20
7.29721
 11
-22.9758
 21
7.33765
  0
LINE
  8
0
 10
-22.9758
 20
7.33765
 11
-22.9332
 21
7.38379
  0
LINE
  8
0
 10
-22.9332
 20
7.38379
 11
-22.8967
 21
7.43489
  0
LINE
  8
0
 10
-22.8967
 20
7.43489
 11
-22.8669
 21
7.49017
  0
LINE
  8
0
 10
-22.8669
 20
7.49017
 11
-22.8443
 21
7.54875
  0
LINE
  8
0
 10
-22.8443
 20
7.54875
 11
-22.8292
 21
7.6097
  0
LINE
  8
0
 10
-22.8292
 20
7.6097
 11
-21.7668
 21
13.4501
  0
LINE
  8
0
 10
-21.7668
 20
13.4501
 11
-20.4295
 21
13.4501
  0
LINE
  8
0
 10
-20.4295
 20
13.4501
 11
-19.191
 21
7.5957
  0
LINE
  8
0
 10
-19.191
 20
7.5957
 11
-19.1795
 21
7.55119
  0
LINE
  8
0
 10
-19.1795
 20
7.55119
 11
-19.1571
 21
7.49251
  0
LINE
  8
0
 10
-19.1571
 20
7.49251
 11
-19.1276
 21
7.43707
  0
LINE
  8
0
 10
-19.1276
 20
7.43707
 11
-19.0914
 21
7.38577
  0
LINE
  8
0
 10
-19.0914
 20
7.38577
 11
-19.0491
 21
7.33942
  0
LINE
  8
0
 10
-19.0491
 20
7.33942
 11
-19.0013
 21
7.29874
  0
LINE
  8
0
 10
-19.0013
 20
7.29874
 11
-18.9487
 21
7.26437
  0
LINE
  8
0
 10
-18.9487
 20
7.26437
 11
-18.8923
 21
7.23686
  0
LINE
  8
0
 10
-18.8923
 20
7.23686
 11
-18.8328
 21
7.21664
  0
LINE
  8
0
 10
-18.8328
 20
7.21664
 11
-18.7713
 21
7.20404
  0
LINE
  8
0
 10
-18.7713
 20
7.20404
 11
-18.7087
 21
7.19923
  0
LINE
  8
0
 10
-18.7087
 20
7.19923
 11
-18.646
 21
7.20232
  0
LINE
  8
0
 10
-18.646
 20
7.20232
 11
-18.5842
 21
7.21324
  0
LINE
  8
0
 10
-18.5842
 20
7.21324
 11
-18.5242
 21
7.23183
  0
LINE
  8
0
 10
-18.5242
 20
7.23183
 11
-18.467
 21
7.25778
  0
LINE
  8
0
 10
-18.467
 20
7.25778
 11
-18.4135
 21
7.2907
  0
LINE
  8
0
 10
-18.4135
 20
7.2907
 11
-18.3646
 21
7.33006
  0
LINE
  8
0
 10
-18.3646
 20
7.33006
 11
-18.321
 21
7.37524
  0
LINE
  8
0
 10
-18.321
 20
7.37524
 11
-18.2834
 21
7.42552
  0
LINE
  8
0
 10
-18.2834
 20
7.42552
 11
-18.2524
 21
7.48013
  0
LINE
  8
0
 10
-18.2524
 20
7.48013
 11
-18.2285
 21
7.53819
  0
LINE
  8
0
 10
-18.2285
 20
7.53819
 11
-18.212
 21
7.59879
  0
LINE
  8
0
 10
-18.212
 20
7.59879
 11
-18.2033
 21
7.66098
  0
LINE
  8
0
 10
-18.2033
 20
7.66098
 11
-17.4981
 21
16.8613
  0
LINE
  8
0
 10
-17.4981
 20
16.8613
 11
-16.2301
 21
16.8613
  0
LINE
  8
0
 10
-16.2301
 20
16.8613
 11
-17.6312
 21
4.69907
  0
LINE
  8
0
 10
-17.6312
 20
4.69907
 11
-19.2066
 21
4.69907
  0
LINE
  8
0
 10
-19.2066
 20
4.69907
 11
-20.6198
 21
11.2171
  0
LINE
  8
0
 10
-20.6198
 20
11.2171
 11
-20.6311
 21
11.2601
  0
LINE
  8
0
 10
-20.6311
 20
11.2601
 11
-20.6536
 21
11.3188
  0
LINE
  8
0
 10
-20.6536
 20
11.3188
 11
-20.6832
 21
11.3742
  0
LINE
  8
0
 10
-20.6832
 20
11.3742
 11
-20.7195
 21
11.4254
  0
LINE
  8
0
 10
-20.7195
 20
11.4254
 11
-20.7619
 21
11.4716
  0
LINE
  8
0
 10
-20.7619
 20
11.4716
 11
-20.8098
 21
11.5122
  0
LINE
  8
0
 10
-20.8098
 20
11.5122
 11
-20.8625
 21
11.5465
  0
LINE
  8
0
 10
-20.8625
 20
11.5465
 11
-20.919
 21
11.5739
  0
LINE
  8
0
 10
-20.919
 20
11.5739
 11
-20.9785
 21
11.594
  0
LINE
  8
0
 10
-20.9785
 20
11.594
 11
-21.04
 21
11.6065
  0
LINE
  8
0
 10
-21.04
 20
11.6065
 11
-21.1026
 21
11.6111
  0
LINE
  8
0
 10
-21.1026
 20
11.6111
 11
-21.1653
 21
11.6079
  0
LINE
  8
0
 10
-21.1653
 20
11.6079
 11
-21.2271
 21
11.5969
  0
LINE
  8
0
 10
-21.2271
 20
11.5969
 11
-21.2871
 21
11.5782
  0
LINE
  8
0
 10
-21.2871
 20
11.5782
 11
-21.3442
 21
11.5521
  0
LINE
  8
0
 10
-21.3442
 20
11.5521
 11
-21.3976
 21
11.519
  0
LINE
  8
0
 10
-21.3976
 20
11.519
 11
-21.4464
 21
11.4796
  0
LINE
  8
0
 10
-21.4464
 20
11.4796
 11
-21.4899
 21
11.4343
  0
LINE
  8
0
 10
-21.4899
 20
11.4343
 11
-21.5275
 21
11.384
  0
LINE
  8
0
 10
-21.5275
 20
11.384
 11
-21.5583
 21
11.3293
  0
LINE
  8
0
 10
-21.5583
 20
11.3293
 11
-21.5821
 21
11.2712
  0
LINE
  8
0
 10
-21.5821
 20
11.2712
 11
-21.5984
 21
11.2105
  0
LINE
  8
0
 10
-21.5984
 20
11.2105
 11
-22.919
 21
4.69907
  0
LINE
  8
0
 10
-22.919
 20
4.69907
 11
-24.4746
 21
4.69907
  0
LINE
  8
0
 10
1.42738
 20
15.0899
 11
4.76851
 21
15.0899
  0
LINE
  8
0
 10
4.76851
 20
15.0899
 11
4.76851
 21
17.3613
  0
LINE
  8
0
 10
4.76851
 20
17.3613
 11
-4.51439
 21
17.3613
  0
LINE
  8
0
 10
-4.51439
 20
17.3613
 11
-4.51439
 21
15.0899
  0
LINE
  8
0
 10
-4.51439
 20
15.0899
 11
-1.17325
 21
15.0899
  0
LINE
  8
0
 10
-1.17325
 20
15.0899
 11
-1.17325
 21
4.19907
  0
LINE
  8
0
 10
-1.17325
 20
4.19907
 11
1.42738
 21
4.19907
  0
LINE
  8
0
 10
1.42738
 20
4.19907
 11
1.42738
 21
15.0899
  0
LINE
  8
0
 10
-0.673248
 20
4.69907
 11
-0.673248
 21
15.0899
  0
LINE
  8
0
 10
-0.673248
 20
15.0899
 11
-0.682098
 21
15.1836
  0
LINE
  8
0
 10
-0.682098
 20
15.1836
 11
-0.697723
 21
15.2444
  0
LINE
  8
0
 10
-0.697723
 20
15.2444
 11
-0.72084
 21
15.3028
  0
LINE
  8
0
 10
-0.72084
 20
15.3028
 11
-0.751083
 21
15.3578
  0
LINE
  8
0
 10
-0.751083
 20
15.3578
 11
-0.787994
 21
15.4086
  0
LINE
  8
0
 10
-0.787994
 20
15.4086
 11
-0.830978
 21
15.4544
  0
LINE
  8
0
 10
-0.830978
 20
15.4544
 11
-0.879349
 21
15.4944
  0
LINE
  8
0
 10
-0.879349
 20
15.4944
 11
-0.932373
 21
15.5281
  0
LINE
  8
0
 10
-0.932373
 20
15.5281
 11
-0.989182
 21
15.5548
  0
LINE
  8
0
 10
-0.989182
 20
15.5548
 11
-1.0489
 21
15.5742
  0
LINE
  8
0
 10
-1.0489
 20
15.5742
 11
-1.11058
 21
15.586
  0
LINE
  8
0
 10
-1.11058
 20
15.586
 11
-1.17325
 21
15.5899
  0
LINE
  8
0
 10
-1.17325
 20
15.5899
 11
-4.01439
 21
15.5899
  0
LINE
  8
0
 10
-4.01439
 20
15.5899
 11
-4.01439
 21
16.8613
  0
LINE
  8
0
 10
-4.01439
 20
16.8613
 11
4.26851
 21
16.8613
  0
LINE
  8
0
 10
4.26851
 20
16.8613
 11
4.26851
 21
15.5899
  0
LINE
  8
0
 10
4.26851
 20
15.5899
 11
1.42738
 21
15.5899
  0
LINE
  8
0
 10
1.42738
 20
15.5899
 11
1.33369
 21
15.5811
  0
LINE
  8
0
 10
1.33369
 20
15.5811
 11
1.27287
 21
15.5655
  0
LINE
  8
0
 10
1.27287
 20
15.5655
 11
1.21449
 21
15.5423
  0
LINE
  8
0
 10
1.21449
 20
15.5423
 11
1.15947
 21
15.5121
  0
LINE
  8
0
 10
1.15947
 20
15.5121
 11
1.10867
 21
15.4752
  0
LINE
  8
0
 10
1.10867
 20
15.4752
 11
1.0629
 21
15.4322
  0
LINE
  8
0
 10
1.0629
 20
15.4322
 11
1.02287
 21
15.3838
  0
LINE
  8
0
 10
1.02287
 20
15.3838
 11
0.989227
 21
15.3308
  0
LINE
  8
0
 10
0.989227
 20
15.3308
 11
0.962494
 21
15.274
  0
LINE
  8
0
 10
0.962494
 20
15.274
 11
0.943085
 21
15.2143
  0
LINE
  8
0
 10
0.943085
 20
15.2143
 11
0.93132
 21
15.1526
  0
LINE
  8
0
 10
0.93132
 20
15.1526
 11
0.927383
 21
15.0899
  0
LINE
  8
0
 10
0.927383
 20
15.0899
 11
0.927383
 21
4.69907
  0
LINE
  8
0
 10
0.927383
 20
4.69907
 11
-0.673248
 21
4.69907
  0
LINE
  8
0
 10
-9.84439
 20
3.96599
 11
-9.2487
 21
4.04048
  0
LINE
  8
0
 10
-9.2487
 20
4.04048
 11
-8.70592
 21
4.16464
  0
LINE
  8
0
 10
-8.70592
 20
4.16464
 11
-8.21602
 21
4.33847
  0
LINE
  8
0
 10
-8.21602
 20
4.33847
 11
-7.77902
 21
4.56197
  0
LINE
  8
0
 10
-7.77902
 20
4.56197
 11
-7.39491
 21
4.83513
  0
LINE
  8
0
 10
-7.39491
 20
4.83513
 11
-7.06371
 21
5.15794
  0
LINE
  8
0
 10
-7.06371
 20
5.15794
 11
-6.78069
 21
5.53552
  0
LINE
  8
0
 10
-6.78069
 20
5.53552
 11
-6.54121
 21
5.97282
  0
LINE
  8
0
 10
-6.54121
 20
5.97282
 11
-6.34528
 21
6.46986
  0
LINE
  8
0
 10
-6.34528
 20
6.46986
 11
-6.19287
 21
7.02666
  0
LINE
  8
0
 10
-6.19287
 20
7.02666
 11
-6.08401
 21
7.64319
  0
LINE
  8
0
 10
-6.08401
 20
7.64319
 11
-6.01871
 21
8.31946
  0
LINE
  8
0
 10
-6.01871
 20
8.31946
 11
-5.99693
 21
9.05548
  0
LINE
  8
0
 10
-5.99693
 20
9.05548
 11
-5.99693
 21
17.3613
  0
LINE
  8
0
 10
-5.99693
 20
17.3613
 11
-8.59758
 21
17.3613
  0
LINE
  8
0
 10
-8.59758
 20
17.3613
 11
-8.59758
 21
8.40302
  0
LINE
  8
0
 10
-8.59758
 20
8.40302
 11
-8.60783
 21
8.12959
  0
LINE
  8
0
 10
-8.60783
 20
8.12959
 11
-8.63861
 21
7.87364
  0
LINE
  8
0
 10
-8.63861
 20
7.87364
 11
-8.6899
 21
7.63513
  0
LINE
  8
0
 10
-8.6899
 20
7.63513
 11
-8.76169
 21
7.41408
  0
LINE
  8
0
 10
-8.76169
 20
7.41408
 11
-8.854
 21
7.21048
  0
LINE
  8
0
 10
-8.854
 20
7.21048
 11
-8.96683
 21
7.02432
  0
LINE
  8
0
 10
-8.96683
 20
7.02432
 11
-9.10016
 21
6.85562
  0
LINE
  8
0
 10
-9.10016
 20
6.85562
 11
-9.25163
 21
6.70708
  0
LINE
  8
0
 10
-9.25163
 20
6.70708
 11
-9.41893
 21
6.58138
  0
LINE
  8
0
 10
-9.41893
 20
6.58138
 11
-9.60207
 21
6.47853
  0
LINE
  8
0
 10
-9.60207
 20
6.47853
 11
-9.80101
 21
6.39854
  0
LINE
  8
0
 10
-9.80101
 20
6.39854
 11
-10.0158
 21
6.34142
  0
LINE
  8
0
 10
-10.0158
 20
6.34142
 11
-10.2464
 21
6.30714
  0
LINE
  8
0
 10
-10.2464
 20
6.30714
 11
-10.4929
 21
6.29572
  0
LINE
  8
0
 10
-10.4929
 20
6.29572
 11
-10.7393
 21
6.30714
  0
LINE
  8
0
 10
-10.7393
 20
6.30714
 11
-10.97
 21
6.34142
  0
LINE
  8
0
 10
-10.97
 20
6.34142
 11
-11.1848
 21
6.39854
  0
LINE
  8
0
 10
-11.1848
 20
6.39854
 11
-11.3838
 21
6.47853
  0
LINE
  8
0
 10
-11.3838
 20
6.47853
 11
-11.567
 21
6.58138
  0
LINE
  8
0
 10
-11.567
 20
6.58138
 11
-11.7343
 21
6.70708
  0
LINE
  8
0
 10
-11.7343
 20
6.70708
 11
-11.8858
 21
6.85562
  0
LINE
  8
0
 10
-11.8858
 20
6.85562
 11
-12.0191
 21
7.02432
  0
LINE
  8
0
 10
-12.0191
 20
7.02432
 11
-12.1319
 21
7.21048
  0
LINE
  8
0
 10
-12.1319
 20
7.21048
 11
-12.2242
 21
7.41408
  0
LINE
  8
0
 10
-12.2242
 20
7.41408
 11
-12.296
 21
7.63513
  0
LINE
  8
0
 10
-12.296
 20
7.63513
 11
-12.3472
 21
7.87364
  0
LINE
  8
0
 10
-12.3472
 20
7.87364
 11
-12.378
 21
8.12959
  0
LINE
  8
0
 10
-12.378
 20
8.12959
 11
-12.3882
 21
8.40302
  0
LINE
  8
0
 10
-12.3882
 20
8.40302
 11
-12.3882
 21
17.3613
  0
LINE
  8
0
 10
-12.3882
 20
17.3613
 11
-14.9889
 21
17.3613
  0
LINE
  8
0
 10
-14.9889
 20
17.3613
 11
-14.9889
 21
9.05548
  0
LINE
  8
0
 10
-14.9889
 20
9.05548
 11
-14.967
 21
8.31946
  0
LINE
  8
0
 10
-14.967
 20
8.31946
 11
-14.9015
 21
7.64319
  0
LINE
  8
0
 10
-14.9015
 20
7.64319
 11
-14.7922
 21
7.02666
  0
LINE
  8
0
 10
-14.7922
 20
7.02666
 11
-14.6392
 21
6.46986
  0
LINE
  8
0
 10
-14.6392
 20
6.46986
 11
-14.4424
 21
5.97282
  0
LINE
  8
0
 10
-14.4424
 20
5.97282
 11
-14.202
 21
5.53552
  0
LINE
  8
0
 10
-14.202
 20
5.53552
 11
-13.9178
 21
5.15794
  0
LINE
  8
0
 10
-13.9178
 20
5.15794
 11
-13.5856
 21
4.83513
  0
LINE
  8
0
 10
-13.5856
 20
4.83513
 11
-13.2011
 21
4.56197
  0
LINE
  8
0
 10
-13.2011
 20
4.56197
 11
-12.7642
 21
4.33847
  0
LINE
  8
0
 10
-12.7642
 20
4.33847
 11
-12.2749
 21
4.16464
  0
LINE
  8
0
 10
-12.2749
 20
4.16464
 11
-11.7333
 21
4.04048
  0
LINE
  8
0
 10
-11.7333
 20
4.04048
 11
-11.1393
 21
3.96599
  0
LINE
  8
0
 10
-11.1393
 20
3.96599
 11
-10.493
 21
3.94115
  0
LINE
  8
0
 10
-10.493
 20
3.94115
 11
-9.84439
 21
3.96599
  0
LINE
  8
0
 10
-11.0986
 20
4.4648
 11
-11.6461
 21
4.53346
  0
LINE
  8
0
 10
-11.6461
 20
4.53346
 11
-12.1348
 21
4.64549
  0
LINE
  8
0
 10
-12.1348
 20
4.64549
 11
-12.5657
 21
4.79858
  0
LINE
  8
0
 10
-12.5657
 20
4.79858
 11
-12.9411
 21
4.99062
  0
LINE
  8
0
 10
-12.9411
 20
4.99062
 11
-13.2647
 21
5.22049
  0
LINE
  8
0
 10
-13.2647
 20
5.22049
 11
-13.5416
 21
5.48953
  0
LINE
  8
0
 10
-13.5416
 20
5.48953
 11
-13.781
 21
5.80768
  0
LINE
  8
0
 10
-13.781
 20
5.80768
 11
-13.9891
 21
6.18608
  0
LINE
  8
0
 10
-13.9891
 20
6.18608
 11
-14.1642
 21
6.62862
  0
LINE
  8
0
 10
-14.1642
 20
6.62862
 11
-14.3039
 21
7.13683
  0
LINE
  8
0
 10
-14.3039
 20
7.13683
 11
-14.4057
 21
7.71109
  0
LINE
  8
0
 10
-14.4057
 20
7.71109
 11
-14.4677
 21
8.35092
  0
LINE
  8
0
 10
-14.4677
 20
8.35092
 11
-14.4889
 21
9.06314
  0
LINE
  8
0
 10
-14.4889
 20
9.06314
 11
-14.4889
 21
16.8613
  0
LINE
  8
0
 10
-14.4889
 20
16.8613
 11
-12.8882
 21
16.8613
  0
LINE
  8
0
 10
-12.8882
 20
16.8613
 11
-12.8882
 21
8.40302
  0
LINE
  8
0
 10
-12.8882
 20
8.40302
 11
-12.8879
 21
8.38428
  0
LINE
  8
0
 10
-12.8879
 20
8.38428
 11
-12.8776
 21
8.11086
  0
LINE
  8
0
 10
-12.8776
 20
8.11086
 11
-12.8744
 21
8.06993
  0
LINE
  8
0
 10
-12.8744
 20
8.06993
 11
-12.8437
 21
7.81398
  0
LINE
  8
0
 10
-12.8437
 20
7.81398
 11
-12.8361
 21
7.76857
  0
LINE
  8
0
 10
-12.8361
 20
7.76857
 11
-12.7848
 21
7.53006
  0
LINE
  8
0
 10
-12.7848
 20
7.53006
 11
-12.7715
 21
7.48071
  0
LINE
  8
0
 10
-12.7715
 20
7.48071
 11
-12.6997
 21
7.25966
  0
LINE
  8
0
 10
-12.6997
 20
7.25966
 11
-12.6796
 21
7.20766
  0
LINE
  8
0
 10
-12.6796
 20
7.20766
 11
-12.5873
 21
7.00406
  0
LINE
  8
0
 10
-12.5873
 20
7.00406
 11
-12.5595
 21
6.95139
  0
LINE
  8
0
 10
-12.5595
 20
6.95139
 11
-12.4467
 21
6.76523
  0
LINE
  8
0
 10
-12.4467
 20
6.76523
 11
-12.4114
 21
6.71434
  0
LINE
  8
0
 10
-12.4114
 20
6.71434
 11
-12.2781
 21
6.54564
  0
LINE
  8
0
 10
-12.2781
 20
6.54564
 11
-12.2359
 21
6.4986
  0
LINE
  8
0
 10
-12.2359
 20
6.4986
 11
-12.0844
 21
6.35005
  0
LINE
  8
0
 10
-12.0844
 20
6.35005
 11
-12.0346
 21
6.3073
  0
LINE
  8
0
 10
-12.0346
 20
6.3073
 11
-11.8672
 21
6.18159
  0
LINE
  8
0
 10
-11.8672
 20
6.18159
 11
-11.8118
 21
6.1454
  0
LINE
  8
0
 10
-11.8118
 20
6.1454
 11
-11.6286
 21
6.04256
  0
LINE
  8
0
 10
-11.6286
 20
6.04256
 11
-11.5703
 21
6.0146
  0
LINE
  8
0
 10
-11.5703
 20
6.0146
 11
-11.3713
 21
5.93462
  0
LINE
  8
0
 10
-11.3713
 20
5.93462
 11
-11.3133
 21
5.91534
  0
LINE
  8
0
 10
-11.3133
 20
5.91534
 11
-11.0985
 21
5.85822
  0
LINE
  8
0
 10
-11.0985
 20
5.85822
 11
-11.0435
 21
5.84685
  0
LINE
  8
0
 10
-11.0435
 20
5.84685
 11
-10.8128
 21
5.81258
  0
LINE
  8
0
 10
-10.8128
 20
5.81258
 11
-10.7625
 21
5.80768
  0
LINE
  8
0
 10
-10.7625
 20
5.80768
 11
-10.516
 21
5.79625
  0
LINE
  8
0
 10
-10.516
 20
5.79625
 11
-10.4697
 21
5.79625
  0
LINE
  8
0
 10
-10.4697
 20
5.79625
 11
-10.2233
 21
5.80768
  0
LINE
  8
0
 10
-10.2233
 20
5.80768
 11
-10.1729
 21
5.81258
  0
LINE
  8
0
 10
-10.1729
 20
5.81258
 11
-9.94229
 21
5.84685
  0
LINE
  8
0
 10
-9.94229
 20
5.84685
 11
-9.88727
 21
5.85822
  0
LINE
  8
0
 10
-9.88727
 20
5.85822
 11
-9.67249
 21
5.91534
  0
LINE
  8
0
 10
-9.67249
 20
5.91534
 11
-9.61449
 21
5.93463
  0
LINE
  8
0
 10
-9.61449
 20
5.93463
 11
-9.41554
 21
6.01462
  0
LINE
  8
0
 10
-9.41554
 20
6.01462
 11
-9.35724
 21
6.04257
  0
LINE
  8
0
 10
-9.35724
 20
6.04257
 11
-9.1741
 21
6.14542
  0
LINE
  8
0
 10
-9.1741
 20
6.14542
 11
-9.11858
 21
6.18164
  0
LINE
  8
0
 10
-9.11858
 20
6.18164
 11
-8.95128
 21
6.30734
  0
LINE
  8
0
 10
-8.95128
 20
6.30734
 11
-8.90155
 21
6.35008
  0
LINE
  8
0
 10
-8.90155
 20
6.35008
 11
-8.75008
 21
6.49863
  0
LINE
  8
0
 10
-8.75008
 20
6.49863
 11
-8.70789
 21
6.54559
  0
LINE
  8
0
 10
-8.70789
 20
6.54559
 11
-8.57455
 21
6.71429
  0
LINE
  8
0
 10
-8.57455
 20
6.71429
 11
-8.53923
 21
6.76517
  0
LINE
  8
0
 10
-8.53923
 20
6.76517
 11
-8.42641
 21
6.95132
  0
LINE
  8
0
 10
-8.42641
 20
6.95132
 11
-8.39862
 21
7.004
  0
LINE
  8
0
 10
-8.39862
 20
7.004
 11
-8.3063
 21
7.2076
  0
LINE
  8
0
 10
-8.3063
 20
7.2076
 11
-8.28613
 21
7.25963
  0
LINE
  8
0
 10
-8.28613
 20
7.25963
 11
-8.21434
 21
7.48068
  0
LINE
  8
0
 10
-8.21434
 20
7.48068
 11
-8.20107
 21
7.53003
  0
LINE
  8
0
 10
-8.20107
 20
7.53003
 11
-8.14978
 21
7.76854
  0
LINE
  8
0
 10
-8.14978
 20
7.76854
 11
-8.14218
 21
7.81395
  0
LINE
  8
0
 10
-8.14218
 20
7.81395
 11
-8.1114
 21
8.0699
  0
LINE
  8
0
 10
-8.1114
 20
8.0699
 11
-8.10818
 21
8.11086
  0
LINE
  8
0
 10
-8.10818
 20
8.11086
 11
-8.09793
 21
8.38428
  0
LINE
  8
0
 10
-8.09793
 20
8.38428
 11
-8.09758
 21
8.40302
  0
LINE
  8
0
 10
-8.09758
 20
8.40302
 11
-8.09758
 21
16.8613
  0
LINE
  8
0
 10
-8.09758
 20
16.8613
 11
-6.49693
 21
16.8613
  0
LINE
  8
0
 10
-6.49693
 20
16.8613
 11
-6.49693
 21
9.06305
  0
LINE
  8
0
 10
-6.49693
 20
9.06305
 11
-6.51801
 21
8.35078
  0
LINE
  8
0
 10
-6.51801
 20
8.35078
 11
-6.5798
 21
7.71085
  0
LINE
  8
0
 10
-6.5798
 20
7.71085
 11
-6.68124
 21
7.13629
  0
LINE
  8
0
 10
-6.68124
 20
7.13629
 11
-6.82036
 21
6.62807
  0
LINE
  8
0
 10
-6.82036
 20
6.62807
 11
-6.99484
 21
6.18546
  0
LINE
  8
0
 10
-6.99484
 20
6.18546
 11
-7.20213
 21
5.80693
  0
LINE
  8
0
 10
-7.20213
 20
5.80693
 11
-7.44054
 21
5.48886
  0
LINE
  8
0
 10
-7.44054
 20
5.48886
 11
-7.71617
 21
5.22021
  0
LINE
  8
0
 10
-7.71617
 20
5.22021
 11
-8.03912
 21
4.99054
  0
LINE
  8
0
 10
-8.03912
 20
4.99054
 11
-8.41429
 21
4.79868
  0
LINE
  8
0
 10
-8.41429
 20
4.79868
 11
-8.84579
 21
4.64557
  0
LINE
  8
0
 10
-8.84579
 20
4.64557
 11
-9.33566
 21
4.53351
  0
LINE
  8
0
 10
-9.33566
 20
4.53351
 11
-9.8851
 21
4.4648
  0
LINE
  8
0
 10
-9.8851
 20
4.4648
 11
-10.4929
 21
4.44151
  0
LINE
  8
0
 10
-10.4929
 20
4.44151
 11
-11.0986
 21
4.4648
  0
LINE
  8
0
 10
9.11612
 20
10.0564
 11
12.3691
 21
10.0564
  0
LINE
  8
0
 10
12.3691
 20
10.0564
 11
12.3691
 21
4.19907
  0
LINE
  8
0
 10
12.3691
 20
4.19907
 11
14.9698
 21
4.19907
  0
LINE
  8
0
 10
14.9698
 20
4.19907
 11
14.9698
 21
17.3613
  0
LINE
  8
0
 10
14.9698
 20
17.3613
 11
12.3691
 21
17.3613
  0
LINE
  8
0
 10
12.3691
 20
17.3613
 11
12.3691
 21
12.3443
  0
LINE
  8
0
 10
12.3691
 20
12.3443
 11
9.11612
 21
12.3443
  0
LINE
  8
0
 10
9.11612
 20
12.3443
 11
9.11612
 21
17.3613
  0
LINE
  8
0
 10
9.11612
 20
17.3613
 11
6.51547
 21
17.3613
  0
LINE
  8
0
 10
6.51547
 20
17.3613
 11
6.51547
 21
4.19907
  0
LINE
  8
0
 10
6.51547
 20
4.19907
 11
9.11612
 21
4.19907
  0
LINE
  8
0
 10
9.11612
 20
4.19907
 11
9.11612
 21
10.0564
  0
LINE
  8
0
 10
7.01547
 20
4.69907
 11
7.01547
 21
16.8613
  0
LINE
  8
0
 10
7.01547
 20
16.8613
 11
8.61612
 21
16.8613
  0
LINE
  8
0
 10
8.61612
 20
16.8613
 11
8.61612
 21
12.3443
  0
LINE
  8
0
 10
8.61612
 20
12.3443
 11
8.62497
 21
12.2506
  0
LINE
  8
0
 10
8.62497
 20
12.2506
 11
8.64059
 21
12.1898
  0
LINE
  8
0
 10
8.64059
 20
12.1898
 11
8.66371
 21
12.1314
  0
LINE
  8
0
 10
8.66371
 20
12.1314
 11
8.69395
 21
12.0764
  0
LINE
  8
0
 10
8.69395
 20
12.0764
 11
8.73087
 21
12.0256
  0
LINE
  8
0
 10
8.73087
 20
12.0256
 11
8.77385
 21
11.9798
  0
LINE
  8
0
 10
8.77385
 20
11.9798
 11
8.82222
 21
11.9398
  0
LINE
  8
0
 10
8.82222
 20
11.9398
 11
8.87524
 21
11.9062
  0
LINE
  8
0
 10
8.87524
 20
11.9062
 11
8.93205
 21
11.8794
  0
LINE
  8
0
 10
8.93205
 20
11.8794
 11
8.99178
 21
11.86
  0
LINE
  8
0
 10
8.99178
 20
11.86
 11
9.05345
 21
11.8483
  0
LINE
  8
0
 10
9.05345
 20
11.8483
 11
9.11612
 21
11.8443
  0
LINE
  8
0
 10
9.11612
 20
11.8443
 11
12.3691
 21
11.8443
  0
LINE
  8
0
 10
12.3691
 20
11.8443
 11
12.4628
 21
11.8532
  0
LINE
  8
0
 10
12.4628
 20
11.8532
 11
12.5236
 21
11.8688
  0
LINE
  8
0
 10
12.5236
 20
11.8688
 11
12.582
 21
11.8919
  0
LINE
  8
0
 10
12.582
 20
11.8919
 11
12.637
 21
11.9222
  0
LINE
  8
0
 10
12.637
 20
11.9222
 11
12.6878
 21
11.9591
  0
LINE
  8
0
 10
12.6878
 20
11.9591
 11
12.7336
 21
12.0021
  0
LINE
  8
0
 10
12.7336
 20
12.0021
 11
12.7736
 21
12.0504
  0
LINE
  8
0
 10
12.7736
 20
12.0504
 11
12.8073
 21
12.1035
  0
LINE
  8
0
 10
12.8073
 20
12.1035
 11
12.834
 21
12.1603
  0
LINE
  8
0
 10
12.834
 20
12.1603
 11
12.8534
 21
12.22
  0
LINE
  8
0
 10
12.8534
 20
12.22
 11
12.8652
 21
12.2817
  0
LINE
  8
0
 10
12.8652
 20
12.2817
 11
12.8691
 21
12.3443
  0
LINE
  8
0
 10
12.8691
 20
12.3443
 11
12.8691
 21
16.8613
  0
LINE
  8
0
 10
12.8691
 20
16.8613
 11
14.4698
 21
16.8613
  0
LINE
  8
0
 10
14.4698
 20
16.8613
 11
14.4698
 21
4.69907
  0
LINE
  8
0
 10
14.4698
 20
4.69907
 11
12.8691
 21
4.69907
  0
LINE
  8
0
 10
12.8691
 20
4.69907
 11
12.8691
 21
10.0564
  0
LINE
  8
0
 10
12.8691
 20
10.0564
 11
12.8603
 21
10.15
  0
LINE
  8
0
 10
12.8603
 20
10.15
 11
12.8446
 21
10.2109
  0
LINE
  8
0
 10
12.8446
 20
10.2109
 11
12.8215
 21
10.2692
  0
LINE
  8
0
 10
12.8215
 20
10.2692
 11
12.7913
 21
10.3243
  0
LINE
  8
0
 10
12.7913
 20
10.3243
 11
12.7544
 21
10.3751
  0
LINE
  8
0
 10
12.7544
 20
10.3751
 11
12.7114
 21
10.4208
  0
LINE
  8
0
 10
12.7114
 20
10.4208
 11
12.663
 21
10.4609
  0
LINE
  8
0
 10
12.663
 20
10.4609
 11
12.61
 21
10.4945
  0
LINE
  8
0
 10
12.61
 20
10.4945
 11
12.5532
 21
10.5212
  0
LINE
  8
0
 10
12.5532
 20
10.5212
 11
12.4935
 21
10.5406
  0
LINE
  8
0
 10
12.4935
 20
10.5406
 11
12.4318
 21
10.5524
  0
LINE
  8
0
 10
12.4318
 20
10.5524
 11
12.3691
 21
10.5564
  0
LINE
  8
0
 10
12.3691
 20
10.5564
 11
9.11612
 21
10.5564
  0
LINE
  8
0
 10
9.11612
 20
10.5564
 11
9.02243
 21
10.5475
  0
LINE
  8
0
 10
9.02243
 20
10.5475
 11
8.96161
 21
10.5319
  0
LINE
  8
0
 10
8.96161
 20
10.5319
 11
8.90323
 21
10.5088
  0
LINE
  8
0
 10
8.90323
 20
10.5088
 11
8.84821
 21
10.4785
  0
LINE
  8
0
 10
8.84821
 20
10.4785
 11
8.79741
 21
10.4416
  0
LINE
  8
0
 10
8.79741
 20
10.4416
 11
8.75163
 21
10.3986
  0
LINE
  8
0
 10
8.75163
 20
10.3986
 11
8.71161
 21
10.3503
  0
LINE
  8
0
 10
8.71161
 20
10.3503
 11
8.67796
 21
10.2972
  0
LINE
  8
0
 10
8.67796
 20
10.2972
 11
8.65123
 21
10.2404
  0
LINE
  8
0
 10
8.65123
 20
10.2404
 11
8.63182
 21
10.1807
  0
LINE
  8
0
 10
8.63182
 20
10.1807
 11
8.62006
 21
10.119
  0
LINE
  8
0
 10
8.62006
 20
10.119
 11
8.61612
 21
10.0564
  0
LINE
  8
0
 10
8.61612
 20
10.0564
 11
8.61612
 21
4.69907
  0
LINE
  8
0
 10
8.61612
 20
4.69907
 11
7.01547
 21
4.69907
  0
LINE
  8
0
 10
24.1395
 20
10.672
 11
18.5769
 21
10.672
  0
LINE
  8
0
 10
18.5769
 20
10.672
 11
18.5769
 21
8.10947
  0
LINE
  8
0
 10
18.5769
 20
8.10947
 11
24.1395
 21
8.10947
  0
LINE
  8
0
 10
24.1395
 20
8.10947
 11
24.1395
 21
10.672
  0
LINE
  8
0
 10
19.0769
 20
8.60947
 11
19.0769
 21
10.172
  0
LINE
  8
0
 10
19.0769
 20
10.172
 11
23.6395
 21
10.172
  0
LINE
  8
0
 10
23.6395
 20
10.172
 11
23.6395
 21
8.60947
  0
LINE
  8
0
 10
23.6395
 20
8.60947
 11
19.0769
 21
8.60947
  0
LINE
  8
0
 10
22.5891
 20
-17.1699
 11
22.8759
 21
-17.1497
  0
LINE
  8
0
 10
22.8759
 20
-17.1497
 11
23.1576
 21
-17.1159
  0
LINE
  8
0
 10
23.1576
 20
-17.1159
 11
23.434
 21
-17.0686
  0
LINE
  8
0
 10
23.434
 20
-17.0686
 11
23.7052
 21
-17.0079
  0
LINE
  8
0
 10
23.7052
 20
-17.0079
 11
23.9712
 21
-16.9336
  0
LINE
  8
0
 10
23.9712
 20
-16.9336
 11
24.232
 21
-16.8458
  0
LINE
  8
0
 10
24.232
 20
-16.8458
 11
24.4871
 21
-16.7449
  0
LINE
  8
0
 10
24.4871
 20
-16.7449
 11
24.7358
 21
-16.6312
  0
LINE
  8
0
 10
24.7358
 20
-16.6312
 11
24.9782
 21
-16.5047
  0
LINE
  8
0
 10
24.9782
 20
-16.5047
 11
25.2144
 21
-16.3654
  0
LINE
  8
0
 10
25.2144
 20
-16.3654
 11
25.4442
 21
-16.2134
  0
LINE
  8
0
 10
25.4442
 20
-16.2134
 11
25.6677
 21
-16.0486
  0
LINE
  8
0
 10
25.6677
 20
-16.0486
 11
25.885
 21
-15.8709
  0
LINE
  8
0
 10
25.885
 20
-15.8709
 11
25.885
 21
-9.83844
  0
LINE
  8
0
 10
25.885
 20
-9.83844
 11
21.8298
 21
-9.83844
  0
LINE
  8
0
 10
21.8298
 20
-9.83844
 11
21.8298
 21
-12.0266
  0
LINE
  8
0
 10
21.8298
 20
-12.0266
 11
23.6106
 21
-12.0266
  0
LINE
  8
0
 10
23.6106
 20
-12.0266
 11
23.6106
 21
-14.539
  0
LINE
  8
0
 10
23.6106
 20
-14.539
 11
23.5554
 21
-14.5803
  0
LINE
  8
0
 10
23.5554
 20
-14.5803
 11
23.4955
 21
-14.6185
  0
LINE
  8
0
 10
23.4955
 20
-14.6185
 11
23.4309
 21
-14.6537
  0
LINE
  8
0
 10
23.4309
 20
-14.6537
 11
23.3616
 21
-14.6858
  0
LINE
  8
0
 10
23.3616
 20
-14.6858
 11
23.2877
 21
-14.7149
  0
LINE
  8
0
 10
23.2877
 20
-14.7149
 11
23.209
 21
-14.7409
  0
LINE
  8
0
 10
23.209
 20
-14.7409
 11
23.1257
 21
-14.7639
  0
LINE
  8
0
 10
23.1257
 20
-14.7639
 11
23.0379
 21
-14.7837
  0
LINE
  8
0
 10
23.0379
 20
-14.7837
 11
22.9459
 21
-14.8005
  0
LINE
  8
0
 10
22.9459
 20
-14.8005
 11
22.8494
 21
-14.8143
  0
LINE
  8
0
 10
22.8494
 20
-14.8143
 11
22.7487
 21
-14.825
  0
LINE
  8
0
 10
22.7487
 20
-14.825
 11
22.6436
 21
-14.8326
  0
LINE
  8
0
 10
22.6436
 20
-14.8326
 11
22.5342
 21
-14.8372
  0
LINE
  8
0
 10
22.5342
 20
-14.8372
 11
22.4205
 21
-14.8387
  0
LINE
  8
0
 10
22.4205
 20
-14.8387
 11
22.0483
 21
-14.8154
  0
LINE
  8
0
 10
22.0483
 20
-14.8154
 11
21.7023
 21
-14.7452
  0
LINE
  8
0
 10
21.7023
 20
-14.7452
 11
21.3826
 21
-14.6282
  0
LINE
  8
0
 10
21.3826
 20
-14.6282
 11
21.0892
 21
-14.4644
  0
LINE
  8
0
 10
21.0892
 20
-14.4644
 11
20.822
 21
-14.2539
  0
LINE
  8
0
 10
20.822
 20
-14.2539
 11
20.5811
 21
-13.9965
  0
LINE
  8
0
 10
20.5811
 20
-13.9965
 11
20.3665
 21
-13.6924
  0
LINE
  8
0
 10
20.3665
 20
-13.6924
 11
20.1794
 21
-13.3435
  0
LINE
  8
0
 10
20.1794
 20
-13.3435
 11
20.0211
 21
-12.9517
  0
LINE
  8
0
 10
20.0211
 20
-12.9517
 11
19.8915
 21
-12.5171
  0
LINE
  8
0
 10
19.8915
 20
-12.5171
 11
19.7908
 21
-12.0397
  0
LINE
  8
0
 10
19.7908
 20
-12.0397
 11
19.7188
 21
-11.5194
  0
LINE
  8
0
 10
19.7188
 20
-11.5194
 11
19.6756
 21
-10.9563
  0
LINE
  8
0
 10
19.6756
 20
-10.9563
 11
19.6612
 21
-10.3504
  0
LINE
  8
0
 10
19.6612
 20
-10.3504
 11
19.6762
 21
-9.72635
  0
LINE
  8
0
 10
19.6762
 20
-9.72635
 11
19.721
 21
-9.14931
  0
LINE
  8
0
 10
19.721
 20
-9.14931
 11
19.7956
 21
-8.61923
  0
LINE
  8
0
 10
19.7956
 20
-8.61923
 11
19.9001
 21
-8.13614
  0
LINE
  8
0
 10
19.9001
 20
-8.13614
 11
20.0345
 21
-7.70001
  0
LINE
  8
0
 10
20.0345
 20
-7.70001
 11
20.1988
 21
-7.31087
  0
LINE
  8
0
 10
20.1988
 20
-7.31087
 11
20.3929
 21
-6.96869
  0
LINE
  8
0
 10
20.3929
 20
-6.96869
 11
20.6172
 21
-6.67273
  0
LINE
  8
0
 10
20.6172
 20
-6.67273
 11
20.8722
 21
-6.4223
  0
LINE
  8
0
 10
20.8722
 20
-6.4223
 11
21.1577
 21
-6.21741
  0
LINE
  8
0
 10
21.1577
 20
-6.21741
 11
21.4738
 21
-6.05804
  0
LINE
  8
0
 10
21.4738
 20
-6.05804
 11
21.8205
 21
-5.94421
  0
LINE
  8
0
 10
21.8205
 20
-5.94421
 11
22.1978
 21
-5.87593
  0
LINE
  8
0
 10
22.1978
 20
-5.87593
 11
22.6056
 21
-5.85316
  0
LINE
  8
0
 10
22.6056
 20
-5.85316
 11
22.8446
 21
-5.86041
  0
LINE
  8
0
 10
22.8446
 20
-5.86041
 11
23.078
 21
-5.8822
  0
LINE
  8
0
 10
23.078
 20
-5.8822
 11
23.3059
 21
-5.91852
  0
LINE
  8
0
 10
23.3059
 20
-5.91852
 11
23.5282
 21
-5.96935
  0
LINE
  8
0
 10
23.5282
 20
-5.96935
 11
23.7449
 21
-6.0347
  0
LINE
  8
0
 10
23.7449
 20
-6.0347
 11
23.956
 21
-6.11456
  0
LINE
  8
0
 10
23.956
 20
-6.11456
 11
24.1616
 21
-6.20897
  0
LINE
  8
0
 10
24.1616
 20
-6.20897
 11
24.361
 21
-6.3177
  0
LINE
  8
0
 10
24.361
 20
-6.3177
 11
24.5538
 21
-6.44061
  0
LINE
  8
0
 10
24.5538
 20
-6.44061
 11
24.7399
 21
-6.57768
  0
LINE
  8
0
 10
24.7399
 20
-6.57768
 11
24.9194
 21
-6.7289
  0
LINE
  8
0
 10
24.9194
 20
-6.7289
 11
25.0921
 21
-6.89429
  0
LINE
  8
0
 10
25.0921
 20
-6.89429
 11
25.2583
 21
-7.07384
  0
LINE
  8
0
 10
25.2583
 20
-7.07384
 11
25.4178
 21
-7.26756
  0
LINE
  8
0
 10
25.4178
 20
-7.26756
 11
25.4178
 21
-4.38884
  0
LINE
  8
0
 10
25.4178
 20
-4.38884
 11
25.2243
 21
-4.27188
  0
LINE
  8
0
 10
25.2243
 20
-4.27188
 11
25.027
 21
-4.16302
  0
LINE
  8
0
 10
25.027
 20
-4.16302
 11
24.8257
 21
-4.06227
  0
LINE
  8
0
 10
24.8257
 20
-4.06227
 11
24.6204
 21
-3.9696
  0
LINE
  8
0
 10
24.6204
 20
-3.9696
 11
24.4111
 21
-3.88506
  0
LINE
  8
0
 10
24.4111
 20
-3.88506
 11
24.1979
 21
-3.80861
  0
LINE
  8
0
 10
24.1979
 20
-3.80861
 11
23.9807
 21
-3.74026
  0
LINE
  8
0
 10
23.9807
 20
-3.74026
 11
23.7611
 21
-3.68057
  0
LINE
  8
0
 10
23.7611
 20
-3.68057
 11
23.5404
 21
-3.63005
  0
LINE
  8
0
 10
23.5404
 20
-3.63005
 11
23.3186
 21
-3.58871
  0
LINE
  8
0
 10
23.3186
 20
-3.58871
 11
23.0957
 21
-3.55656
  0
LINE
  8
0
 10
23.0957
 20
-3.55656
 11
22.8717
 21
-3.5336
  0
LINE
  8
0
 10
22.8717
 20
-3.5336
 11
22.6466
 21
-3.51984
  0
LINE
  8
0
 10
22.6466
 20
-3.51984
 11
22.4205
 21
-3.51524
  0
LINE
  8
0
 10
22.4205
 20
-3.51524
 11
21.6878
 21
-3.55106
  0
LINE
  8
0
 10
21.6878
 20
-3.55106
 11
21.006
 21
-3.65851
  0
LINE
  8
0
 10
21.006
 20
-3.65851
 11
20.3751
 21
-3.83762
  0
LINE
  8
0
 10
20.3751
 20
-3.83762
 11
19.7952
 21
-4.08835
  0
LINE
  8
0
 10
19.7952
 20
-4.08835
 11
19.2661
 21
-4.41071
  0
LINE
  8
0
 10
19.2661
 20
-4.41071
 11
18.788
 21
-4.80472
  0
LINE
  8
0
 10
18.788
 20
-4.80472
 11
18.3608
 21
-5.27037
  0
LINE
  8
0
 10
18.3608
 20
-5.27037
 11
17.9878
 21
-5.80383
  0
LINE
  8
0
 10
17.9878
 20
-5.80383
 11
17.6721
 21
-6.40138
  0
LINE
  8
0
 10
17.6721
 20
-6.40138
 11
17.4139
 21
-7.06302
  0
LINE
  8
0
 10
17.4139
 20
-7.06302
 11
17.213
 21
-7.78874
  0
LINE
  8
0
 10
17.213
 20
-7.78874
 11
17.0695
 21
-8.57854
  0
LINE
  8
0
 10
17.0695
 20
-8.57854
 11
16.9835
 21
-9.43242
  0
LINE
  8
0
 10
16.9835
 20
-9.43242
 11
16.9548
 21
-10.3504
  0
LINE
  8
0
 10
16.9548
 20
-10.3504
 11
16.9832
 21
-11.2547
  0
LINE
  8
0
 10
16.9832
 20
-11.2547
 11
17.0685
 21
-12.098
  0
LINE
  8
0
 10
17.0685
 20
-12.098
 11
17.2106
 21
-12.8804
  0
LINE
  8
0
 10
17.2106
 20
-12.8804
 11
17.4096
 21
-13.6017
  0
LINE
  8
0
 10
17.4096
 20
-13.6017
 11
17.6654
 21
-14.262
  0
LINE
  8
0
 10
17.6654
 20
-14.262
 11
17.9781
 21
-14.8613
  0
LINE
  8
0
 10
17.9781
 20
-14.8613
 11
18.3476
 21
-15.3996
  0
LINE
  8
0
 10
18.3476
 20
-15.3996
 11
18.7693
 21
-15.871
  0
LINE
  8
0
 10
18.7693
 20
-15.871
 11
19.2385
 21
-16.27
  0
LINE
  8
0
 10
19.2385
 20
-16.27
 11
19.7552
 21
-16.5964
  0
LINE
  8
0
 10
19.7552
 20
-16.5964
 11
20.3194
 21
-16.8503
  0
LINE
  8
0
 10
20.3194
 20
-16.8503
 11
20.9311
 21
-17.0316
  0
LINE
  8
0
 10
20.9311
 20
-17.0316
 11
21.5903
 21
-17.1404
  0
LINE
  8
0
 10
21.5903
 20
-17.1404
 11
22.297
 21
-17.1767
  0
LINE
  8
0
 10
22.297
 20
-17.1767
 11
22.5891
 21
-17.1699
  0
LINE
  8
0
 10
21.6439
 20
-16.6425
 11
21.0434
 21
-16.5434
  0
LINE
  8
0
 10
21.0434
 20
-16.5434
 11
20.4938
 21
-16.3804
  0
LINE
  8
0
 10
20.4938
 20
-16.3804
 11
19.9925
 21
-16.1549
  0
LINE
  8
0
 10
19.9925
 20
-16.1549
 11
19.5355
 21
-15.8662
  0
LINE
  8
0
 10
19.5355
 20
-15.8662
 11
19.1192
 21
-15.5123
  0
LINE
  8
0
 10
19.1192
 20
-15.5123
 11
18.7416
 21
-15.0901
  0
LINE
  8
0
 10
18.7416
 20
-15.0901
 11
18.4074
 21
-14.6033
  0
LINE
  8
0
 10
18.4074
 20
-14.6033
 11
18.1216
 21
-14.0554
  0
LINE
  8
0
 10
18.1216
 20
-14.0554
 11
17.8849
 21
-13.4445
  0
LINE
  8
0
 10
17.8849
 20
-13.4445
 11
17.6985
 21
-12.769
  0
LINE
  8
0
 10
17.6985
 20
-12.769
 11
17.564
 21
-12.0282
  0
LINE
  8
0
 10
17.564
 20
-12.0282
 11
17.4824
 21
-11.2216
  0
LINE
  8
0
 10
17.4824
 20
-11.2216
 11
17.455
 21
-10.3504
  0
LINE
  8
0
 10
17.455
 20
-10.3504
 11
17.4827
 21
-9.46541
  0
LINE
  8
0
 10
17.4827
 20
-9.46541
 11
17.565
 21
-8.6483
  0
LINE
  8
0
 10
17.565
 20
-8.6483
 11
17.7009
 21
-7.90045
  0
LINE
  8
0
 10
17.7009
 20
-7.90045
 11
17.889
 21
-7.22098
  0
LINE
  8
0
 10
17.889
 20
-7.22098
 11
18.1276
 21
-6.60971
  0
LINE
  8
0
 10
18.1276
 20
-6.60971
 11
18.4154
 21
-6.0649
  0
LINE
  8
0
 10
18.4154
 20
-6.0649
 11
18.7516
 21
-5.584
  0
LINE
  8
0
 10
18.7516
 20
-5.584
 11
19.1329
 21
-5.16841
  0
LINE
  8
0
 10
19.1329
 20
-5.16841
 11
19.5566
 21
-4.81923
  0
LINE
  8
0
 10
19.5566
 20
-4.81923
 11
20.0257
 21
-4.5334
  0
LINE
  8
0
 10
20.0257
 20
-4.5334
 11
20.5433
 21
-4.30962
  0
LINE
  8
0
 10
20.5433
 20
-4.30962
 11
21.1136
 21
-4.14771
  0
LINE
  8
0
 10
21.1136
 20
-4.14771
 11
21.739
 21
-4.04915
  0
LINE
  8
0
 10
21.739
 20
-4.04915
 11
22.4277
 21
-4.01549
  0
LINE
  8
0
 10
22.4277
 20
-4.01549
 11
22.6261
 21
-4.01952
  0
LINE
  8
0
 10
22.6261
 20
-4.01952
 11
22.831
 21
-4.03204
  0
LINE
  8
0
 10
22.831
 20
-4.03204
 11
23.0345
 21
-4.05292
  0
LINE
  8
0
 10
23.0345
 20
-4.05292
 11
23.2371
 21
-4.08212
  0
LINE
  8
0
 10
23.2371
 20
-4.08212
 11
23.4386
 21
-4.11969
  0
LINE
  8
0
 10
23.4386
 20
-4.11969
 11
23.6398
 21
-4.16574
  0
LINE
  8
0
 10
23.6398
 20
-4.16574
 11
23.8399
 21
-4.22011
  0
LINE
  8
0
 10
23.8399
 20
-4.22011
 11
24.0386
 21
-4.28265
  0
LINE
  8
0
 10
24.0386
 20
-4.28265
 11
24.2328
 21
-4.35231
  0
LINE
  8
0
 10
24.2328
 20
-4.35231
 11
24.424
 21
-4.42957
  0
LINE
  8
0
 10
24.424
 20
-4.42957
 11
24.6108
 21
-4.51384
  0
LINE
  8
0
 10
24.6108
 20
-4.51384
 11
24.7943
 21
-4.6057
  0
LINE
  8
0
 10
24.7943
 20
-4.6057
 11
24.9178
 21
-4.67378
  0
LINE
  8
0
 10
24.9178
 20
-4.67378
 11
24.9178
 21
-6.08771
  0
LINE
  8
0
 10
24.9178
 20
-6.08771
 11
24.8503
 21
-6.03801
  0
LINE
  8
0
 10
24.8503
 20
-6.03801
 11
24.8226
 21
-6.01903
  0
LINE
  8
0
 10
24.8226
 20
-6.01903
 11
24.6298
 21
-5.89612
  0
LINE
  8
0
 10
24.6298
 20
-5.89612
 11
24.6004
 21
-5.87871
  0
LINE
  8
0
 10
24.6004
 20
-5.87871
 11
24.4009
 21
-5.76997
  0
LINE
  8
0
 10
24.4009
 20
-5.76997
 11
24.3703
 21
-5.75459
  0
LINE
  8
0
 10
24.3703
 20
-5.75459
 11
24.1647
 21
-5.66019
  0
LINE
  8
0
 10
24.1647
 20
-5.66019
 11
24.1329
 21
-5.6469
  0
LINE
  8
0
 10
24.1329
 20
-5.6469
 11
23.9218
 21
-5.56703
  0
LINE
  8
0
 10
23.9218
 20
-5.56703
 11
23.8893
 21
-5.556
  0
LINE
  8
0
 10
23.8893
 20
-5.556
 11
23.6725
 21
-5.49065
  0
LINE
  8
0
 10
23.6725
 20
-5.49065
 11
23.6396
 21
-5.48193
  0
LINE
  8
0
 10
23.6396
 20
-5.48193
 11
23.4174
 21
-5.43111
  0
LINE
  8
0
 10
23.4174
 20
-5.43111
 11
23.3846
 21
-5.42474
  0
LINE
  8
0
 10
23.3846
 20
-5.42474
 11
23.1567
 21
-5.38843
  0
LINE
  8
0
 10
23.1567
 20
-5.38843
 11
23.1245
 21
-5.38437
  0
LINE
  8
0
 10
23.1245
 20
-5.38437
 11
22.8911
 21
-5.36258
  0
LINE
  8
0
 10
22.8911
 20
-5.36258
 11
22.8598
 21
-5.36064
  0
LINE
  8
0
 10
22.8598
 20
-5.36064
 11
22.6208
 21
-5.35339
  0
LINE
  8
0
 10
22.6208
 20
-5.35339
 11
22.5777
 21
-5.35394
  0
LINE
  8
0
 10
22.5777
 20
-5.35394
 11
22.1699
 21
-5.37671
  0
LINE
  8
0
 10
22.1699
 20
-5.37671
 11
22.1087
 21
-5.38393
  0
LINE
  8
0
 10
22.1087
 20
-5.38393
 11
21.7314
 21
-5.45221
  0
LINE
  8
0
 10
21.7314
 20
-5.45221
 11
21.6645
 21
-5.46916
  0
LINE
  8
0
 10
21.6645
 20
-5.46916
 11
21.3178
 21
-5.58299
  0
LINE
  8
0
 10
21.3178
 20
-5.58299
 11
21.2487
 21
-5.61157
  0
LINE
  8
0
 10
21.2487
 20
-5.61157
 11
20.9326
 21
-5.77094
  0
LINE
  8
0
 10
20.9326
 20
-5.77094
 11
20.8662
 21
-5.81117
  0
LINE
  8
0
 10
20.8662
 20
-5.81117
 11
20.5807
 21
-6.01607
  0
LINE
  8
0
 10
20.5807
 20
-6.01607
 11
20.5218
 21
-6.0656
  0
LINE
  8
0
 10
20.5218
 20
-6.0656
 11
20.2669
 21
-6.31602
  0
LINE
  8
0
 10
20.2669
 20
-6.31602
 11
20.2188
 21
-6.37067
  0
LINE
  8
0
 10
20.2188
 20
-6.37067
 11
19.9944
 21
-6.66663
  0
LINE
  8
0
 10
19.9944
 20
-6.66663
 11
19.958
 21
-6.72198
  0
LINE
  8
0
 10
19.958
 20
-6.72198
 11
19.7639
 21
-7.06416
  0
LINE
  8
0
 10
19.7639
 20
-7.06416
 11
19.7381
 21
-7.11644
  0
LINE
  8
0
 10
19.7381
 20
-7.11644
 11
19.5739
 21
-7.50558
  0
LINE
  8
0
 10
19.5739
 20
-7.50558
 11
19.5567
 21
-7.55278
  0
LINE
  8
0
 10
19.5567
 20
-7.55278
 11
19.4223
 21
-7.98891
  0
LINE
  8
0
 10
19.4223
 20
-7.98891
 11
19.4114
 21
-8.03041
  0
LINE
  8
0
 10
19.4114
 20
-8.03041
 11
19.3069
 21
-8.5135
  0
LINE
  8
0
 10
19.3069
 20
-8.5135
 11
19.3005
 21
-8.54951
  0
LINE
  8
0
 10
19.3005
 20
-8.54951
 11
19.2258
 21
-9.07959
  0
LINE
  8
0
 10
19.2258
 20
-9.07959
 11
19.2225
 21
-9.11061
  0
LINE
  8
0
 10
19.2225
 20
-9.11061
 11
19.1777
 21
-9.68765
  0
LINE
  8
0
 10
19.1777
 20
-9.68765
 11
19.1763
 21
-9.71439
  0
LINE
  8
0
 10
19.1763
 20
-9.71439
 11
19.1614
 21
-10.3384
  0
LINE
  8
0
 10
19.1614
 20
-10.3384
 11
19.1614
 21
-10.3623
  0
LINE
  8
0
 10
19.1614
 20
-10.3623
 11
19.1758
 21
-10.9682
  0
LINE
  8
0
 10
19.1758
 20
-10.9682
 11
19.1771
 21
-10.9945
  0
LINE
  8
0
 10
19.1771
 20
-10.9945
 11
19.2203
 21
-11.5576
  0
LINE
  8
0
 10
19.2203
 20
-11.5576
 11
19.2235
 21
-11.5879
  0
LINE
  8
0
 10
19.2235
 20
-11.5879
 11
19.2955
 21
-12.1082
  0
LINE
  8
0
 10
19.2955
 20
-12.1082
 11
19.3015
 21
-12.1429
  0
LINE
  8
0
 10
19.3015
 20
-12.1429
 11
19.4023
 21
-12.6203
  0
LINE
  8
0
 10
19.4023
 20
-12.6203
 11
19.4124
 21
-12.6599
  0
LINE
  8
0
 10
19.4124
 20
-12.6599
 11
19.5419
 21
-13.0945
  0
LINE
  8
0
 10
19.5419
 20
-13.0945
 11
19.5575
 21
-13.139
  0
LINE
  8
0
 10
19.5575
 20
-13.139
 11
19.7158
 21
-13.5308
  0
LINE
  8
0
 10
19.7158
 20
-13.5308
 11
19.7387
 21
-13.5797
  0
LINE
  8
0
 10
19.7387
 20
-13.5797
 11
19.9258
 21
-13.9287
  0
LINE
  8
0
 10
19.9258
 20
-13.9287
 11
19.958
 21
-13.9807
  0
LINE
  8
0
 10
19.958
 20
-13.9807
 11
20.1726
 21
-14.2848
  0
LINE
  8
0
 10
20.1726
 20
-14.2848
 11
20.2161
 21
-14.3382
  0
LINE
  8
0
 10
20.2161
 20
-14.3382
 11
20.457
 21
-14.5956
  0
LINE
  8
0
 10
20.457
 20
-14.5956
 11
20.5125
 21
-14.6466
  0
LINE
  8
0
 10
20.5125
 20
-14.6466
 11
20.7797
 21
-14.8571
  0
LINE
  8
0
 10
20.7797
 20
-14.8571
 11
20.8455
 21
-14.901
  0
LINE
  8
0
 10
20.8455
 20
-14.901
 11
21.1389
 21
-15.0648
  0
LINE
  8
0
 10
21.1389
 20
-15.0648
 11
21.2108
 21
-15.0977
  0
LINE
  8
0
 10
21.2108
 20
-15.0977
 11
21.5305
 21
-15.2147
  0
LINE
  8
0
 10
21.5305
 20
-15.2147
 11
21.6029
 21
-15.2352
  0
LINE
  8
0
 10
21.6029
 20
-15.2352
 11
21.9489
 21
-15.3054
  0
LINE
  8
0
 10
21.9489
 20
-15.3054
 11
22.0169
 21
-15.3144
  0
LINE
  8
0
 10
22.0169
 20
-15.3144
 11
22.3891
 21
-15.3378
  0
LINE
  8
0
 10
22.3891
 20
-15.3378
 11
22.4272
 21
-15.3387
  0
LINE
  8
0
 10
22.4272
 20
-15.3387
 11
22.5409
 21
-15.3372
  0
LINE
  8
0
 10
22.5409
 20
-15.3372
 11
22.5552
 21
-15.3368
  0
LINE
  8
0
 10
22.5552
 20
-15.3368
 11
22.6646
 21
-15.3322
  0
LINE
  8
0
 10
22.6646
 20
-15.3322
 11
22.6799
 21
-15.3313
  0
LINE
  8
0
 10
22.6799
 20
-15.3313
 11
22.785
 21
-15.3237
  0
LINE
  8
0
 10
22.785
 20
-15.3237
 11
22.8015
 21
-15.3222
  0
LINE
  8
0
 10
22.8015
 20
-15.3222
 11
22.9022
 21
-15.3115
  0
LINE
  8
0
 10
22.9022
 20
-15.3115
 11
22.92
 21
-15.3093
  0
LINE
  8
0
 10
22.92
 20
-15.3093
 11
23.0164
 21
-15.2955
  0
LINE
  8
0
 10
23.0164
 20
-15.2955
 11
23.0357
 21
-15.2924
  0
LINE
  8
0
 10
23.0357
 20
-15.2924
 11
23.1278
 21
-15.2756
  0
LINE
  8
0
 10
23.1278
 20
-15.2756
 11
23.1483
 21
-15.2714
  0
LINE
  8
0
 10
23.1483
 20
-15.2714
 11
23.2361
 21
-15.2515
  0
LINE
  8
0
 10
23.2361
 20
-15.2515
 11
23.2585
 21
-15.2459
  0
LINE
  8
0
 10
23.2585
 20
-15.2459
 11
23.3418
 21
-15.2229
  0
LINE
  8
0
 10
23.3418
 20
-15.2229
 11
23.3661
 21
-15.2156
  0
LINE
  8
0
 10
23.3661
 20
-15.2156
 11
23.4447
 21
-15.1896
  0
LINE
  8
0
 10
23.4447
 20
-15.1896
 11
23.4706
 21
-15.1802
  0
LINE
  8
0
 10
23.4706
 20
-15.1802
 11
23.5445
 21
-15.1512
  0
LINE
  8
0
 10
23.5445
 20
-15.1512
 11
23.5721
 21
-15.1394
  0
LINE
  8
0
 10
23.5721
 20
-15.1394
 11
23.6413
 21
-15.1072
  0
LINE
  8
0
 10
23.6413
 20
-15.1072
 11
23.6701
 21
-15.0928
  0
LINE
  8
0
 10
23.6701
 20
-15.0928
 11
23.7347
 21
-15.0576
  0
LINE
  8
0
 10
23.7347
 20
-15.0576
 11
23.7645
 21
-15.04
  0
LINE
  8
0
 10
23.7645
 20
-15.04
 11
23.8244
 21
-15.0018
  0
LINE
  8
0
 10
23.8244
 20
-15.0018
 11
23.8549
 21
-14.9807
  0
LINE
  8
0
 10
23.8549
 20
-14.9807
 11
23.9101
 21
-14.9393
  0
LINE
  8
0
 10
23.9101
 20
-14.9393
 11
23.9751
 21
-14.8812
  0
LINE
  8
0
 10
23.9751
 20
-14.8812
 11
24.0151
 21
-14.8329
  0
LINE
  8
0
 10
24.0151
 20
-14.8329
 11
24.0488
 21
-14.7798
  0
LINE
  8
0
 10
24.0488
 20
-14.7798
 11
24.0755
 21
-14.723
  0
LINE
  8
0
 10
24.0755
 20
-14.723
 11
24.0949
 21
-14.6633
  0
LINE
  8
0
 10
24.0949
 20
-14.6633
 11
24.1067
 21
-14.6016
  0
LINE
  8
0
 10
24.1067
 20
-14.6016
 11
24.1106
 21
-14.539
  0
LINE
  8
0
 10
24.1106
 20
-14.539
 11
24.1106
 21
-12.0266
  0
LINE
  8
0
 10
24.1106
 20
-12.0266
 11
24.1018
 21
-11.9329
  0
LINE
  8
0
 10
24.1018
 20
-11.9329
 11
24.0862
 21
-11.8721
  0
LINE
  8
0
 10
24.0862
 20
-11.8721
 11
24.063
 21
-11.8137
  0
LINE
  8
0
 10
24.063
 20
-11.8137
 11
24.0328
 21
-11.7587
  0
LINE
  8
0
 10
24.0328
 20
-11.7587
 11
23.9959
 21
-11.7079
  0
LINE
  8
0
 10
23.9959
 20
-11.7079
 11
23.9529
 21
-11.6621
  0
LINE
  8
0
 10
23.9529
 20
-11.6621
 11
23.9045
 21
-11.6221
  0
LINE
  8
0
 10
23.9045
 20
-11.6221
 11
23.8515
 21
-11.5884
  0
LINE
  8
0
 10
23.8515
 20
-11.5884
 11
23.7947
 21
-11.5617
  0
LINE
  8
0
 10
23.7947
 20
-11.5617
 11
23.735
 21
-11.5423
  0
LINE
  8
0
 10
23.735
 20
-11.5423
 11
23.6733
 21
-11.5305
  0
LINE
  8
0
 10
23.6733
 20
-11.5305
 11
23.6106
 21
-11.5266
  0
LINE
  8
0
 10
23.6106
 20
-11.5266
 11
22.3298
 21
-11.5266
  0
LINE
  8
0
 10
22.3298
 20
-11.5266
 11
22.3298
 21
-10.3384
  0
LINE
  8
0
 10
22.3298
 20
-10.3384
 11
25.385
 21
-10.3384
  0
LINE
  8
0
 10
25.385
 20
-10.3384
 11
25.385
 21
-15.6339
  0
LINE
  8
0
 10
25.385
 20
-15.6339
 11
25.3611
 21
-15.6535
  0
LINE
  8
0
 10
25.3611
 20
-15.6535
 11
25.1576
 21
-15.8035
  0
LINE
  8
0
 10
25.1576
 20
-15.8035
 11
24.9493
 21
-15.9413
  0
LINE
  8
0
 10
24.9493
 20
-15.9413
 11
24.7354
 21
-16.0675
  0
LINE
  8
0
 10
24.7354
 20
-16.0675
 11
24.516
 21
-16.1819
  0
LINE
  8
0
 10
24.516
 20
-16.1819
 11
24.2911
 21
-16.2847
  0
LINE
  8
0
 10
24.2911
 20
-16.2847
 11
24.0603
 21
-16.3761
  0
LINE
  8
0
 10
24.0603
 20
-16.3761
 11
23.8241
 21
-16.4556
  0
LINE
  8
0
 10
23.8241
 20
-16.4556
 11
23.5832
 21
-16.5228
  0
LINE
  8
0
 10
23.5832
 20
-16.5228
 11
23.337
 21
-16.578
  0
LINE
  8
0
 10
23.337
 20
-16.578
 11
23.0858
 21
-16.6209
  0
LINE
  8
0
 10
23.0858
 20
-16.6209
 11
22.8286
 21
-16.6517
  0
LINE
  8
0
 10
22.8286
 20
-16.6517
 11
22.5655
 21
-16.6703
  0
LINE
  8
0
 10
22.5655
 20
-16.6703
 11
22.3041
 21
-16.6764
  0
LINE
  8
0
 10
22.3041
 20
-16.6764
 11
21.6439
 21
-16.6425
  0
LINE
  8
0
 10
8.64891
 20
-7.35349
 11
12.3339
 21
-16.9187
  0
LINE
  8
0
 10
12.3339
 20
-16.9187
 11
15.1108
 21
-16.9187
  0
LINE
  8
0
 10
15.1108
 20
-16.9187
 11
15.1108
 21
-3.75652
  0
LINE
  8
0
 10
15.1108
 20
-3.75652
 11
12.8186
 21
-3.75652
  0
LINE
  8
0
 10
12.8186
 20
-3.75652
 11
12.8186
 21
-13.3218
  0
LINE
  8
0
 10
12.8186
 20
-13.3218
 11
9.15135
 21
-3.75652
  0
LINE
  8
0
 10
9.15135
 20
-3.75652
 11
6.35687
 21
-3.75652
  0
LINE
  8
0
 10
6.35687
 20
-3.75652
 11
6.35687
 21
-16.9187
  0
LINE
  8
0
 10
6.35687
 20
-16.9187
 11
8.64891
 21
-16.9187
  0
LINE
  8
0
 10
8.64891
 20
-16.9187
 11
8.64891
 21
-7.35349
  0
LINE
  8
0
 10
6.85687
 20
-16.4187
 11
6.85687
 21
-4.25652
  0
LINE
  8
0
 10
6.85687
 20
-4.25652
 11
8.80757
 21
-4.25652
  0
LINE
  8
0
 10
8.80757
 20
-4.25652
 11
12.3518
 21
-13.5008
  0
LINE
  8
0
 10
12.3518
 20
-13.5008
 11
12.3805
 21
-13.5627
  0
LINE
  8
0
 10
12.3805
 20
-13.5627
 11
12.4141
 21
-13.6157
  0
LINE
  8
0
 10
12.4141
 20
-13.6157
 11
12.4542
 21
-13.664
  0
LINE
  8
0
 10
12.4542
 20
-13.664
 11
12.4999
 21
-13.707
  0
LINE
  8
0
 10
12.4999
 20
-13.707
 11
12.5507
 21
-13.7439
  0
LINE
  8
0
 10
12.5507
 20
-13.7439
 11
12.6058
 21
-13.7742
  0
LINE
  8
0
 10
12.6058
 20
-13.7742
 11
12.6641
 21
-13.7973
  0
LINE
  8
0
 10
12.6641
 20
-13.7973
 11
12.725
 21
-13.8129
  0
LINE
  8
0
 10
12.725
 20
-13.8129
 11
12.7872
 21
-13.8208
  0
LINE
  8
0
 10
12.7872
 20
-13.8208
 11
12.8501
 21
-13.8208
  0
LINE
  8
0
 10
12.8501
 20
-13.8208
 11
12.9123
 21
-13.8129
  0
LINE
  8
0
 10
12.9123
 20
-13.8129
 11
12.9732
 21
-13.7973
  0
LINE
  8
0
 10
12.9732
 20
-13.7973
 11
13.0315
 21
-13.7742
  0
LINE
  8
0
 10
13.0315
 20
-13.7742
 11
13.0866
 21
-13.7439
  0
LINE
  8
0
 10
13.0866
 20
-13.7439
 11
13.1374
 21
-13.707
  0
LINE
  8
0
 10
13.1374
 20
-13.707
 11
13.1831
 21
-13.664
  0
LINE
  8
0
 10
13.1831
 20
-13.664
 11
13.2232
 21
-13.6157
  0
LINE
  8
0
 10
13.2232
 20
-13.6157
 11
13.2568
 21
-13.5627
  0
LINE
  8
0
 10
13.2568
 20
-13.5627
 11
13.2835
 21
-13.5058
  0
LINE
  8
0
 10
13.2835
 20
-13.5058
 11
13.3029
 21
-13.4461
  0
LINE
  8
0
 10
13.3029
 20
-13.4461
 11
13.3147
 21
-13.3844
  0
LINE
  8
0
 10
13.3147
 20
-13.3844
 11
13.3186
 21
-13.3218
  0
LINE
  8
0
 10
13.3186
 20
-13.3218
 11
13.3186
 21
-4.25652
  0
LINE
  8
0
 10
13.3186
 20
-4.25652
 11
14.6108
 21
-4.25652
  0
LINE
  8
0
 10
14.6108
 20
-4.25652
 11
14.6108
 21
-16.4187
  0
LINE
  8
0
 10
14.6108
 20
-16.4187
 11
12.6771
 21
-16.4187
  0
LINE
  8
0
 10
12.6771
 20
-16.4187
 11
9.11548
 21
-7.17374
  0
LINE
  8
0
 10
9.11548
 20
-7.17374
 11
9.08707
 21
-7.11261
  0
LINE
  8
0
 10
9.08707
 20
-7.11261
 11
9.05342
 21
-7.05959
  0
LINE
  8
0
 10
9.05342
 20
-7.05959
 11
9.0134
 21
-7.01122
  0
LINE
  8
0
 10
9.0134
 20
-7.01122
 11
8.96762
 21
-6.96823
  0
LINE
  8
0
 10
8.96762
 20
-6.96823
 11
8.91682
 21
-6.93132
  0
LINE
  8
0
 10
8.91682
 20
-6.93132
 11
8.8618
 21
-6.90108
  0
LINE
  8
0
 10
8.8618
 20
-6.90108
 11
8.80342
 21
-6.87796
  0
LINE
  8
0
 10
8.80342
 20
-6.87796
 11
8.7426
 21
-6.86234
  0
LINE
  8
0
 10
8.7426
 20
-6.86234
 11
8.68031
 21
-6.85448
  0
LINE
  8
0
 10
8.68031
 20
-6.85448
 11
8.61751
 21
-6.85448
  0
LINE
  8
0
 10
8.61751
 20
-6.85448
 11
8.55522
 21
-6.86234
  0
LINE
  8
0
 10
8.55522
 20
-6.86234
 11
8.4944
 21
-6.87796
  0
LINE
  8
0
 10
8.4944
 20
-6.87796
 11
8.43602
 21
-6.90108
  0
LINE
  8
0
 10
8.43602
 20
-6.90108
 11
8.381
 21
-6.93132
  0
LINE
  8
0
 10
8.381
 20
-6.93132
 11
8.3302
 21
-6.96823
  0
LINE
  8
0
 10
8.3302
 20
-6.96823
 11
8.28442
 21
-7.01122
  0
LINE
  8
0
 10
8.28442
 20
-7.01122
 11
8.2444
 21
-7.05959
  0
LINE
  8
0
 10
8.2444
 20
-7.05959
 11
8.21075
 21
-7.11261
  0
LINE
  8
0
 10
8.21075
 20
-7.11261
 11
8.18402
 21
-7.16942
  0
LINE
  8
0
 10
8.18402
 20
-7.16942
 11
8.16461
 21
-7.22914
  0
LINE
  8
0
 10
8.16461
 20
-7.22914
 11
8.15285
 21
-7.29082
  0
LINE
  8
0
 10
8.15285
 20
-7.29082
 11
8.14891
 21
-7.35349
  0
LINE
  8
0
 10
8.14891
 20
-7.35349
 11
8.14891
 21
-16.4187
  0
LINE
  8
0
 10
8.14891
 20
-16.4187
 11
6.85687
 21
-16.4187
  0
LINE
  8
0
 10
-16.8594
 20
-14.6307
 11
-22.4573
 21
-14.6307
  0
LINE
  8
0
 10
-22.4573
 20
-14.6307
 11
-22.4573
 21
-11.1779
  0
LINE
  8
0
 10
-22.4573
 20
-11.1779
 11
-17.3883
 21
-11.1779
  0
LINE
  8
0
 10
-17.3883
 20
-11.1779
 11
-17.3883
 21
-8.88995
  0
LINE
  8
0
 10
-17.3883
 20
-8.88995
 11
-22.4573
 21
-8.88995
  0
LINE
  8
0
 10
-22.4573
 20
-8.88995
 11
-22.4573
 21
-6.04453
  0
LINE
  8
0
 10
-22.4573
 20
-6.04453
 11
-16.8594
 21
-6.04453
  0
LINE
  8
0
 10
-16.8594
 20
-6.04453
 11
-16.8594
 21
-3.75652
  0
LINE
  8
0
 10
-16.8594
 20
-3.75652
 11
-25.0578
 21
-3.75652
  0
LINE
  8
0
 10
-25.0578
 20
-3.75652
 11
-25.0578
 21
-16.9187
  0
LINE
  8
0
 10
-25.0578
 20
-16.9187
 11
-16.8594
 21
-16.9187
  0
LINE
  8
0
 10
-16.8594
 20
-16.9187
 11
-16.8594
 21
-14.6307
  0
LINE
  8
0
 10
-24.5578
 20
-16.4187
 11
-24.5578
 21
-4.25652
  0
LINE
  8
0
 10
-24.5578
 20
-4.25652
 11
-17.3594
 21
-4.25652
  0
LINE
  8
0
 10
-17.3594
 20
-4.25652
 11
-17.3594
 21
-5.54453
  0
LINE
  8
0
 10
-17.3594
 20
-5.54453
 11
-22.4573
 21
-5.54453
  0
LINE
  8
0
 10
-22.4573
 20
-5.54453
 11
-22.551
 21
-5.55338
  0
LINE
  8
0
 10
-22.551
 20
-5.55338
 11
-22.6118
 21
-5.569
  0
LINE
  8
0
 10
-22.6118
 20
-5.569
 11
-22.6702
 21
-5.59212
  0
LINE
  8
0
 10
-22.6702
 20
-5.59212
 11
-22.7252
 21
-5.62236
  0
LINE
  8
0
 10
-22.7252
 20
-5.62236
 11
-22.776
 21
-5.65927
  0
LINE
  8
0
 10
-22.776
 20
-5.65927
 11
-22.8218
 21
-5.70226
  0
LINE
  8
0
 10
-22.8218
 20
-5.70226
 11
-22.8618
 21
-5.75063
  0
LINE
  8
0
 10
-22.8618
 20
-5.75063
 11
-22.8955
 21
-5.80365
  0
LINE
  8
0
 10
-22.8955
 20
-5.80365
 11
-22.9222
 21
-5.86046
  0
LINE
  8
0
 10
-22.9222
 20
-5.86046
 11
-22.9416
 21
-5.92018
  0
LINE
  8
0
 10
-22.9416
 20
-5.92018
 11
-22.9534
 21
-5.98186
  0
LINE
  8
0
 10
-22.9534
 20
-5.98186
 11
-22.9573
 21
-6.04453
  0
LINE
  8
0
 10
-22.9573
 20
-6.04453
 11
-22.9573
 21
-8.88995
  0
LINE
  8
0
 10
-22.9573
 20
-8.88995
 11
-22.9485
 21
-8.98364
  0
LINE
  8
0
 10
-22.9485
 20
-8.98364
 11
-22.9328
 21
-9.04446
  0
LINE
  8
0
 10
-22.9328
 20
-9.04446
 11
-22.9097
 21
-9.10284
  0
LINE
  8
0
 10
-22.9097
 20
-9.10284
 11
-22.8795
 21
-9.15787
  0
LINE
  8
0
 10
-22.8795
 20
-9.15787
 11
-22.8426
 21
-9.20866
  0
LINE
  8
0
 10
-22.8426
 20
-9.20866
 11
-22.7996
 21
-9.25444
  0
LINE
  8
0
 10
-22.7996
 20
-9.25444
 11
-22.7512
 21
-9.29446
  0
LINE
  8
0
 10
-22.7512
 20
-9.29446
 11
-22.6982
 21
-9.32811
  0
LINE
  8
0
 10
-22.6982
 20
-9.32811
 11
-22.6414
 21
-9.35484
  0
LINE
  8
0
 10
-22.6414
 20
-9.35484
 11
-22.5816
 21
-9.37425
  0
LINE
  8
0
 10
-22.5816
 20
-9.37425
 11
-22.52
 21
-9.38602
  0
LINE
  8
0
 10
-22.52
 20
-9.38602
 11
-22.4573
 21
-9.38995
  0
LINE
  8
0
 10
-22.4573
 20
-9.38995
 11
-17.8883
 21
-9.38995
  0
LINE
  8
0
 10
-17.8883
 20
-9.38995
 11
-17.8883
 21
-10.6779
  0
LINE
  8
0
 10
-17.8883
 20
-10.6779
 11
-22.4573
 21
-10.6779
  0
LINE
  8
0
 10
-22.4573
 20
-10.6779
 11
-22.551
 21
-10.6868
  0
LINE
  8
0
 10
-22.551
 20
-10.6868
 11
-22.6118
 21
-10.7024
  0
LINE
  8
0
 10
-22.6118
 20
-10.7024
 11
-22.6702
 21
-10.7255
  0
LINE
  8
0
 10
-22.6702
 20
-10.7255
 11
-22.7252
 21
-10.7558
  0
LINE
  8
0
 10
-22.7252
 20
-10.7558
 11
-22.776
 21
-10.7927
  0
LINE
  8
0
 10
-22.776
 20
-10.7927
 11
-22.8218
 21
-10.8357
  0
LINE
  8
0
 10
-22.8218
 20
-10.8357
 11
-22.8618
 21
-10.884
  0
LINE
  8
0
 10
-22.8618
 20
-10.884
 11
-22.8955
 21
-10.9371
  0
LINE
  8
0
 10
-22.8955
 20
-10.9371
 11
-22.9222
 21
-10.9939
  0
LINE
  8
0
 10
-22.9222
 20
-10.9939
 11
-22.9416
 21
-11.0536
  0
LINE
  8
0
 10
-22.9416
 20
-11.0536
 11
-22.9534
 21
-11.1153
  0
LINE
  8
0
 10
-22.9534
 20
-11.1153
 11
-22.9573
 21
-11.1779
  0
LINE
  8
0
 10
-22.9573
 20
-11.1779
 11
-22.9573
 21
-14.6307
  0
LINE
  8
0
 10
-22.9573
 20
-14.6307
 11
-22.9485
 21
-14.7244
  0
LINE
  8
0
 10
-22.9485
 20
-14.7244
 11
-22.9328
 21
-14.7852
  0
LINE
  8
0
 10
-22.9328
 20
-14.7852
 11
-22.9097
 21
-14.8436
  0
LINE
  8
0
 10
-22.9097
 20
-14.8436
 11
-22.8795
 21
-14.8987
  0
LINE
  8
0
 10
-22.8795
 20
-14.8987
 11
-22.8426
 21
-14.9494
  0
LINE
  8
0
 10
-22.8426
 20
-14.9494
 11
-22.7996
 21
-14.9952
  0
LINE
  8
0
 10
-22.7996
 20
-14.9952
 11
-22.7512
 21
-15.0352
  0
LINE
  8
0
 10
-22.7512
 20
-15.0352
 11
-22.6982
 21
-15.0689
  0
LINE
  8
0
 10
-22.6982
 20
-15.0689
 11
-22.6414
 21
-15.0956
  0
LINE
  8
0
 10
-22.6414
 20
-15.0956
 11
-22.5816
 21
-15.115
  0
LINE
  8
0
 10
-22.5816
 20
-15.115
 11
-22.52
 21
-15.1268
  0
LINE
  8
0
 10
-22.52
 20
-15.1268
 11
-22.4573
 21
-15.1307
  0
LINE
  8
0
 10
-22.4573
 20
-15.1307
 11
-17.3594
 21
-15.1307
  0
LINE
  8
0
 10
-17.3594
 20
-15.1307
 11
-17.3594
 21
-16.4187
  0
LINE
  8
0
 10
-17.3594
 20
-16.4187
 11
-24.5578
 21
-16.4187
  0
LINE
  8
0
 10
4.04558
 20
-14.6307
 11
1.42738
 21
-14.6307
  0
LINE
  8
0
 10
1.42738
 20
-14.6307
 11
1.42738
 21
-6.04453
  0
LINE
  8
0
 10
1.42738
 20
-6.04453
 11
4.04558
 21
-6.04453
  0
LINE
  8
0
 10
4.04558
 20
-6.04453
 11
4.04558
 21
-3.75652
  0
LINE
  8
0
 10
4.04558
 20
-3.75652
 11
-3.79146
 21
-3.75652
  0
LINE
  8
0
 10
-3.79146
 20
-3.75652
 11
-3.79146
 21
-6.04453
  0
LINE
  8
0
 10
-3.79146
 20
-6.04453
 11
-1.17325
 21
-6.04453
  0
LINE
  8
0
 10
-1.17325
 20
-6.04453
 11
-1.17325
 21
-14.6307
  0
LINE
  8
0
 10
-1.17325
 20
-14.6307
 11
-3.79146
 21
-14.6307
  0
LINE
  8
0
 10
-3.79146
 20
-14.6307
 11
-3.79146
 21
-16.9187
  0
LINE
  8
0
 10
-3.79146
 20
-16.9187
 11
4.04558
 21
-16.9187
  0
LINE
  8
0
 10
4.04558
 20
-16.9187
 11
4.04558
 21
-14.6307
  0
LINE
  8
0
 10
-3.29146
 20
-16.4187
 11
-3.29146
 21
-15.1307
  0
LINE
  8
0
 10
-3.29146
 20
-15.1307
 11
-1.17325
 21
-15.1307
  0
LINE
  8
0
 10
-1.17325
 20
-15.1307
 11
-1.07956
 21
-15.1219
  0
LINE
  8
0
 10
-1.07956
 20
-15.1219
 11
-1.01874
 21
-15.1063
  0
LINE
  8
0
 10
-1.01874
 20
-15.1063
 11
-0.960358
 21
-15.0831
  0
LINE
  8
0
 10
-0.960358
 20
-15.0831
 11
-0.905334
 21
-15.0529
  0
LINE
  8
0
 10
-0.905334
 20
-15.0529
 11
-0.854538
 21
-15.016
  0
LINE
  8
0
 10
-0.854538
 20
-15.016
 11
-0.808762
 21
-14.973
  0
LINE
  8
0
 10
-0.808762
 20
-14.973
 11
-0.768738
 21
-14.9246
  0
LINE
  8
0
 10
-0.768738
 20
-14.9246
 11
-0.735092
 21
-14.8716
  0
LINE
  8
0
 10
-0.735092
 20
-14.8716
 11
-0.708359
 21
-14.8148
  0
LINE
  8
0
 10
-0.708359
 20
-14.8148
 11
-0.68895
 21
-14.7551
  0
LINE
  8
0
 10
-0.68895
 20
-14.7551
 11
-0.677185
 21
-14.6934
  0
LINE
  8
0
 10
-0.677185
 20
-14.6934
 11
-0.673248
 21
-14.6307
  0
LINE
  8
0
 10
-0.673248
 20
-14.6307
 11
-0.673248
 21
-6.04453
  0
LINE
  8
0
 10
-0.673248
 20
-6.04453
 11
-0.682098
 21
-5.95084
  0
LINE
  8
0
 10
-0.682098
 20
-5.95084
 11
-0.697723
 21
-5.89001
  0
LINE
  8
0
 10
-0.697723
 20
-5.89001
 11
-0.72084
 21
-5.83163
  0
LINE
  8
0
 10
-0.72084
 20
-5.83163
 11
-0.751083
 21
-5.77661
  0
LINE
  8
0
 10
-0.751083
 20
-5.77661
 11
-0.787994
 21
-5.72581
  0
LINE
  8
0
 10
-0.787994
 20
-5.72581
 11
-0.830978
 21
-5.68004
  0
LINE
  8
0
 10
-0.830978
 20
-5.68004
 11
-0.879349
 21
-5.64001
  0
LINE
  8
0
 10
-0.879349
 20
-5.64001
 11
-0.932373
 21
-5.60637
  0
LINE
  8
0
 10
-0.932373
 20
-5.60637
 11
-0.989182
 21
-5.57964
  0
LINE
  8
0
 10
-0.989182
 20
-5.57964
 11
-1.0489
 21
-5.56023
  0
LINE
  8
0
 10
-1.0489
 20
-5.56023
 11
-1.11058
 21
-5.54846
  0
LINE
  8
0
 10
-1.11058
 20
-5.54846
 11
-1.17325
 21
-5.54453
  0
LINE
  8
0
 10
-1.17325
 20
-5.54453
 11
-3.29146
 21
-5.54453
  0
LINE
  8
0
 10
-3.29146
 20
-5.54453
 11
-3.29146
 21
-4.25652
  0
LINE
  8
0
 10
-3.29146
 20
-4.25652
 11
3.54558
 21
-4.25652
  0
LINE
  8
0
 10
3.54558
 20
-4.25652
 11
3.54558
 21
-5.54453
  0
LINE
  8
0
 10
3.54558
 20
-5.54453
 11
1.42738
 21
-5.54453
  0
LINE
  8
0
 10
1.42738
 20
-5.54453
 11
1.33369
 21
-5.55338
  0
LINE
  8
0
 10
1.33369
 20
-5.55338
 11
1.27287
 21
-5.569
  0
LINE
  8
0
 10
1.27287
 20
-5.569
 11
1.21449
 21
-5.59212
  0
LINE
  8
0
 10
1.21449
 20
-5.59212
 11
1.15947
 21
-5.62236
  0
LINE
  8
0
 10
1.15947
 20
-5.62236
 11
1.10867
 21
-5.65927
  0
LINE
  8
0
 10
1.10867
 20
-5.65927
 11
1.0629
 21
-5.70226
  0
LINE
  8
0
 10
1.0629
 20
-5.70226
 11
1.02287
 21
-5.75063
  0
LINE
  8
0
 10
1.02287
 20
-5.75063
 11
0.989227
 21
-5.80365
  0
LINE
  8
0
 10
0.989227
 20
-5.80365
 11
0.962494
 21
-5.86046
  0
LINE
  8
0
 10
0.962494
 20
-5.86046
 11
0.943085
 21
-5.92018
  0
LINE
  8
0
 10
0.943085
 20
-5.92018
 11
0.93132
 21
-5.98186
  0
LINE
  8
0
 10
0.93132
 20
-5.98186
 11
0.927383
 21
-6.04453
  0
LINE
  8
0
 10
0.927383
 20
-6.04453
 11
0.927383
 21
-14.6307
  0
LINE
  8
0
 10
0.927383
 20
-14.6307
 11
0.936234
 21
-14.7244
  0
LINE
  8
0
 10
0.936234
 20
-14.7244
 11
0.951859
 21
-14.7852
  0
LINE
  8
0
 10
0.951859
 20
-14.7852
 11
0.974976
 21
-14.8436
  0
LINE
  8
0
 10
0.974976
 20
-14.8436
 11
1.00522
 21
-14.8987
  0
LINE
  8
0
 10
1.00522
 20
-14.8987
 11
1.04213
 21
-14.9494
  0
LINE
  8
0
 10
1.04213
 20
-14.9494
 11
1.08511
 21
-14.9952
  0
LINE
  8
0
 10
1.08511
 20
-14.9952
 11
1.13348
 21
-15.0352
  0
LINE
  8
0
 10
1.13348
 20
-15.0352
 11
1.18651
 21
-15.0689
  0
LINE
  8
0
 10
1.18651
 20
-15.0689
 11
1.24332
 21
-15.0956
  0
LINE
  8
0
 10
1.24332
 20
-15.0956
 11
1.30304
 21
-15.115
  0
LINE
  8
0
 10
1.30304
 20
-15.115
 11
1.36472
 21
-15.1268
  0
LINE
  8
0
 10
1.36472
 20
-15.1268
 11
1.42738
 21
-15.1307
  0
LINE
  8
0
 10
1.42738
 20
-15.1307
 11
3.54558
 21
-15.1307
  0
LINE
  8
0
 10
3.54558
 20
-15.1307
 11
3.54558
 21
-16.4187
  0
LINE
  8
0
 10
3.54558
 20
-16.4187
 11
-3.29146
 21
-16.4187
  0
LINE
  8
0
 10
-12.1502
 20
-11.7187
 11
-11.3216
 21
-11.7187
  0
LINE
  8
0
 10
-11.3216
 20
-11.7187
 11
-11.0571
 21
-11.7491
  0
LINE
  8
0
 10
-11.0571
 20
-11.7491
 11
-10.8027
 21
-11.8403
  0
LINE
  8
0
 10
-10.8027
 20
-11.8403
 11
-10.5584
 21
-11.9923
  0
LINE
  8
0
 10
-10.5584
 20
-11.9923
 11
-10.3242
 21
-12.2051
  0
LINE
  8
0
 10
-10.3242
 20
-12.2051
 11
-10.1
 21
-12.4787
  0
LINE
  8
0
 10
-10.1
 20
-12.4787
 11
-9.88593
 21
-12.8131
  0
LINE
  8
0
 10
-9.88593
 20
-12.8131
 11
-9.68192
 21
-13.2083
  0
LINE
  8
0
 10
-9.68192
 20
-13.2083
 11
-9.65005
 21
-13.2766
  0
LINE
  8
0
 10
-9.65005
 20
-13.2766
 11
-9.62
 21
-13.3407
  0
LINE
  8
0
 10
-9.62
 20
-13.3407
 11
-9.59175
 21
-13.4004
  0
LINE
  8
0
 10
-9.59175
 20
-13.4004
 11
-9.56531
 21
-13.4558
  0
LINE
  8
0
 10
-9.56531
 20
-13.4558
 11
-9.54066
 21
-13.5069
  0
LINE
  8
0
 10
-9.54066
 20
-13.5069
 11
-9.51782
 21
-13.5536
  0
LINE
  8
0
 10
-9.51782
 20
-13.5536
 11
-9.4968
 21
-13.5961
  0
LINE
  8
0
 10
-9.4968
 20
-13.5961
 11
-7.90988
 21
-16.9187
  0
LINE
  8
0
 10
-7.90988
 20
-16.9187
 11
-5.05365
 21
-16.9187
  0
LINE
  8
0
 10
-5.05365
 20
-16.9187
 11
-7.43394
 21
-12.1858
  0
LINE
  8
0
 10
-7.43394
 20
-12.1858
 11
-7.54971
 21
-11.96
  0
LINE
  8
0
 10
-7.54971
 20
-11.96
 11
-7.66026
 21
-11.7564
  0
LINE
  8
0
 10
-7.66026
 20
-11.7564
 11
-7.76561
 21
-11.5749
  0
LINE
  8
0
 10
-7.76561
 20
-11.5749
 11
-7.86572
 21
-11.4155
  0
LINE
  8
0
 10
-7.86572
 20
-11.4155
 11
-7.96062
 21
-11.2782
  0
LINE
  8
0
 10
-7.96062
 20
-11.2782
 11
-8.05031
 21
-11.1631
  0
LINE
  8
0
 10
-8.05031
 20
-11.1631
 11
-8.13478
 21
-11.0702
  0
LINE
  8
0
 10
-8.13478
 20
-11.0702
 11
-8.21867
 21
-10.9925
  0
LINE
  8
0
 10
-8.21867
 20
-10.9925
 11
-8.30672
 21
-10.9233
  0
LINE
  8
0
 10
-8.30672
 20
-10.9233
 11
-8.39891
 21
-10.8625
  0
LINE
  8
0
 10
-8.39891
 20
-10.8625
 11
-8.49524
 21
-10.8102
  0
LINE
  8
0
 10
-8.49524
 20
-10.8102
 11
-8.59572
 21
-10.7664
  0
LINE
  8
0
 10
-8.59572
 20
-10.7664
 11
-8.70033
 21
-10.731
  0
LINE
  8
0
 10
-8.70033
 20
-10.731
 11
-8.8091
 21
-10.7041
  0
LINE
  8
0
 10
-8.8091
 20
-10.7041
 11
-8.46584
 21
-10.6456
  0
LINE
  8
0
 10
-8.46584
 20
-10.6456
 11
-8.14633
 21
-10.5609
  0
LINE
  8
0
 10
-8.14633
 20
-10.5609
 11
-7.85057
 21
-10.4499
  0
LINE
  8
0
 10
-7.85057
 20
-10.4499
 11
-7.57855
 21
-10.3126
  0
LINE
  8
0
 10
-7.57855
 20
-10.3126
 11
-7.33029
 21
-10.149
  0
LINE
  8
0
 10
-7.33029
 20
-10.149
 11
-7.10576
 21
-9.95923
  0
LINE
  8
0
 10
-7.10576
 20
-9.95923
 11
-6.90498
 21
-9.74315
  0
LINE
  8
0
 10
-6.90498
 20
-9.74315
 11
-6.72957
 21
-9.50256
  0
LINE
  8
0
 10
-6.72957
 20
-9.50256
 11
-6.58115
 21
-9.2393
  0
LINE
  8
0
 10
-6.58115
 20
-9.2393
 11
-6.4597
 21
-8.95338
  0
LINE
  8
0
 10
-6.4597
 20
-8.95338
 11
-6.36525
 21
-8.64478
  0
LINE
  8
0
 10
-6.36525
 20
-8.64478
 11
-6.29778
 21
-8.31351
  0
LINE
  8
0
 10
-6.29778
 20
-8.31351
 11
-6.25729
 21
-7.95956
  0
LINE
  8
0
 10
-6.25729
 20
-7.95956
 11
-6.2438
 21
-7.58293
  0
LINE
  8
0
 10
-6.2438
 20
-7.58293
 11
-6.26639
 21
-7.02661
  0
LINE
  8
0
 10
-6.26639
 20
-7.02661
 11
-6.33412
 21
-6.51634
  0
LINE
  8
0
 10
-6.33412
 20
-6.51634
 11
-6.44702
 21
-6.05214
  0
LINE
  8
0
 10
-6.44702
 20
-6.05214
 11
-6.60509
 21
-5.63397
  0
LINE
  8
0
 10
-6.60509
 20
-5.63397
 11
-6.8083
 21
-5.26189
  0
LINE
  8
0
 10
-6.8083
 20
-5.26189
 11
-7.05669
 21
-4.93584
  0
LINE
  8
0
 10
-7.05669
 20
-4.93584
 11
-7.35023
 21
-4.65585
  0
LINE
  8
0
 10
-7.35023
 20
-4.65585
 11
-7.69556
 21
-4.41725
  0
LINE
  8
0
 10
-7.69556
 20
-4.41725
 11
-8.09935
 21
-4.21536
  0
LINE
  8
0
 10
-8.09935
 20
-4.21536
 11
-8.56161
 21
-4.05019
  0
LINE
  8
0
 10
-8.56161
 20
-4.05019
 11
-9.08237
 21
-3.92171
  0
LINE
  8
0
 10
-9.08237
 20
-3.92171
 11
-9.66158
 21
-3.82993
  0
LINE
  8
0
 10
-9.66158
 20
-3.82993
 11
-10.2993
 21
-3.77487
  0
LINE
  8
0
 10
-10.2993
 20
-3.77487
 11
-10.9954
 21
-3.75652
  0
LINE
  8
0
 10
-10.9954
 20
-3.75652
 11
-14.7509
 21
-3.75652
  0
LINE
  8
0
 10
-14.7509
 20
-3.75652
 11
-14.7509
 21
-16.9187
  0
LINE
  8
0
 10
-14.7509
 20
-16.9187
 11
-12.1502
 21
-16.9187
  0
LINE
  8
0
 10
-12.1502
 20
-16.9187
 11
-12.1502
 21
-11.7187
  0
LINE
  8
0
 10
-14.2509
 20
-16.4187
 11
-14.2509
 21
-4.25652
  0
LINE
  8
0
 10
-14.2509
 20
-4.25652
 11
-11.0023
 21
-4.25652
  0
LINE
  8
0
 10
-11.0023
 20
-4.25652
 11
-10.3274
 21
-4.27431
  0
LINE
  8
0
 10
-10.3274
 20
-4.27431
 11
-9.72214
 21
-4.32657
  0
LINE
  8
0
 10
-9.72214
 20
-4.32657
 11
-9.18159
 21
-4.41222
  0
LINE
  8
0
 10
-9.18159
 20
-4.41222
 11
-8.70596
 21
-4.52956
  0
LINE
  8
0
 10
-8.70596
 20
-4.52956
 11
-8.29604
 21
-4.67604
  0
LINE
  8
0
 10
-8.29604
 20
-4.67604
 11
-7.95073
 21
-4.84868
  0
LINE
  8
0
 10
-7.95073
 20
-4.84868
 11
-7.66684
 21
-5.04485
  0
LINE
  8
0
 10
-7.66684
 20
-5.04485
 11
-7.43039
 21
-5.27037
  0
LINE
  8
0
 10
-7.43039
 20
-5.27037
 11
-7.22897
 21
-5.53477
  0
LINE
  8
0
 10
-7.22897
 20
-5.53477
 11
-7.06052
 21
-5.84322
  0
LINE
  8
0
 10
-7.06052
 20
-5.84322
 11
-6.92561
 21
-6.2001
  0
LINE
  8
0
 10
-6.92561
 20
-6.2001
 11
-6.82626
 21
-6.60861
  0
LINE
  8
0
 10
-6.82626
 20
-6.60861
 11
-6.76505
 21
-7.06973
  0
LINE
  8
0
 10
-6.76505
 20
-7.06973
 11
-6.74417
 21
-7.58412
  0
LINE
  8
0
 10
-6.74417
 20
-7.58412
 11
-6.75627
 21
-7.92212
  0
LINE
  8
0
 10
-6.75627
 20
-7.92212
 11
-6.79207
 21
-8.23506
  0
LINE
  8
0
 10
-6.79207
 20
-8.23506
 11
-6.85042
 21
-8.52151
  0
LINE
  8
0
 10
-6.85042
 20
-8.52151
 11
-6.93013
 21
-8.78197
  0
LINE
  8
0
 10
-6.93013
 20
-8.78197
 11
-7.03043
 21
-9.0181
  0
LINE
  8
0
 10
-7.03043
 20
-9.0181
 11
-7.1508
 21
-9.23163
  0
LINE
  8
0
 10
-7.1508
 20
-9.23163
 11
-7.29144
 21
-9.42451
  0
LINE
  8
0
 10
-7.29144
 20
-9.42451
 11
-7.45157
 21
-9.59683
  0
LINE
  8
0
 10
-7.45157
 20
-9.59683
 11
-7.63031
 21
-9.74794
  0
LINE
  8
0
 10
-7.63031
 20
-9.74794
 11
-7.82947
 21
-9.87914
  0
LINE
  8
0
 10
-7.82947
 20
-9.87914
 11
-8.05168
 21
-9.99129
  0
LINE
  8
0
 10
-8.05168
 20
-9.99129
 11
-8.29871
 21
-10.084
  0
LINE
  8
0
 10
-8.29871
 20
-10.084
 11
-8.57207
 21
-10.1565
  0
LINE
  8
0
 10
-8.57207
 20
-10.1565
 11
-8.89305
 21
-10.2112
  0
LINE
  8
0
 10
-8.89305
 20
-10.2112
 11
-8.93761
 21
-10.2209
  0
LINE
  8
0
 10
-8.93761
 20
-10.2209
 11
-8.99715
 21
-10.2408
  0
LINE
  8
0
 10
-8.99715
 20
-10.2408
 11
-9.05373
 21
-10.268
  0
LINE
  8
0
 10
-9.05373
 20
-10.268
 11
-9.10646
 21
-10.3021
  0
LINE
  8
0
 10
-9.10646
 20
-10.3021
 11
-9.1545
 21
-10.3426
  0
LINE
  8
0
 10
-9.1545
 20
-10.3426
 11
-9.19708
 21
-10.3887
  0
LINE
  8
0
 10
-9.19708
 20
-10.3887
 11
-9.23355
 21
-10.4398
  0
LINE
  8
0
 10
-9.23355
 20
-10.4398
 11
-9.26332
 21
-10.4951
  0
LINE
  8
0
 10
-9.26332
 20
-10.4951
 11
-9.28593
 21
-10.5537
  0
LINE
  8
0
 10
-9.28593
 20
-10.5537
 11
-9.30103
 21
-10.6146
  0
LINE
  8
0
 10
-9.30103
 20
-10.6146
 11
-9.30836
 21
-10.677
  0
LINE
  8
0
 10
-9.30836
 20
-10.677
 11
-9.30782
 21
-10.7398
  0
LINE
  8
0
 10
-9.30782
 20
-10.7398
 11
-9.29942
 21
-10.802
  0
LINE
  8
0
 10
-9.29942
 20
-10.802
 11
-9.28328
 21
-10.8627
  0
LINE
  8
0
 10
-9.28328
 20
-10.8627
 11
-9.25966
 21
-10.9209
  0
LINE
  8
0
 10
-9.25966
 20
-10.9209
 11
-9.22894
 21
-10.9756
  0
LINE
  8
0
 10
-9.22894
 20
-10.9756
 11
-9.1916
 21
-11.0261
  0
LINE
  8
0
 10
-9.1916
 20
-11.0261
 11
-9.14822
 21
-11.0715
  0
LINE
  8
0
 10
-9.14822
 20
-11.0715
 11
-9.0995
 21
-11.1111
  0
LINE
  8
0
 10
-9.0995
 20
-11.1111
 11
-9.0462
 21
-11.1443
  0
LINE
  8
0
 10
-9.0462
 20
-11.1443
 11
-8.98915
 21
-11.1705
  0
LINE
  8
0
 10
-8.98915
 20
-11.1705
 11
-8.92928
 21
-11.1894
  0
LINE
  8
0
 10
-8.92928
 20
-11.1894
 11
-8.84074
 21
-11.2113
  0
LINE
  8
0
 10
-8.84074
 20
-11.2113
 11
-8.77623
 21
-11.2332
  0
LINE
  8
0
 10
-8.77623
 20
-11.2332
 11
-8.71478
 21
-11.26
  0
LINE
  8
0
 10
-8.71478
 20
-11.26
 11
-8.65623
 21
-11.2918
  0
LINE
  8
0
 10
-8.65623
 20
-11.2918
 11
-8.59932
 21
-11.3293
  0
LINE
  8
0
 10
-8.59932
 20
-11.3293
 11
-8.5435
 21
-11.3732
  0
LINE
  8
0
 10
-8.5435
 20
-11.3732
 11
-8.49028
 21
-11.4224
  0
LINE
  8
0
 10
-8.49028
 20
-11.4224
 11
-8.43321
 21
-11.4852
  0
LINE
  8
0
 10
-8.43321
 20
-11.4852
 11
-8.36368
 21
-11.5745
  0
LINE
  8
0
 10
-8.36368
 20
-11.5745
 11
-8.28334
 21
-11.6907
  0
LINE
  8
0
 10
-8.28334
 20
-11.6907
 11
-8.19363
 21
-11.8335
  0
LINE
  8
0
 10
-8.19363
 20
-11.8335
 11
-8.09615
 21
-12.0014
  0
LINE
  8
0
 10
-8.09615
 20
-12.0014
 11
-7.99211
 21
-12.1931
  0
LINE
  8
0
 10
-7.99211
 20
-12.1931
 11
-7.87955
 21
-12.4126
  0
LINE
  8
0
 10
-7.87955
 20
-12.4126
 11
-5.86478
 21
-16.4187
  0
LINE
  8
0
 10
-5.86478
 20
-16.4187
 11
-7.59457
 21
-16.4187
  0
LINE
  8
0
 10
-7.59457
 20
-16.4187
 11
-9.04561
 21
-13.3806
  0
LINE
  8
0
 10
-9.04561
 20
-13.3806
 11
-9.04875
 21
-13.3741
  0
LINE
  8
0
 10
-9.04875
 20
-13.3741
 11
-9.06854
 21
-13.3342
  0
LINE
  8
0
 10
-9.06854
 20
-13.3342
 11
-9.09032
 21
-13.2896
  0
LINE
  8
0
 10
-9.09032
 20
-13.2896
 11
-9.11496
 21
-13.2385
  0
LINE
  8
0
 10
-9.11496
 20
-13.2385
 11
-9.13977
 21
-13.1866
  0
LINE
  8
0
 10
-9.13977
 20
-13.1866
 11
-9.16739
 21
-13.1282
  0
LINE
  8
0
 10
-9.16739
 20
-13.1282
 11
-9.19745
 21
-13.0641
  0
LINE
  8
0
 10
-9.19745
 20
-13.0641
 11
-9.22874
 21
-12.997
  0
LINE
  8
0
 10
-9.22874
 20
-12.997
 11
-9.23763
 21
-12.9789
  0
LINE
  8
0
 10
-9.23763
 20
-12.9789
 11
-9.44164
 21
-12.5837
  0
LINE
  8
0
 10
-9.44164
 20
-12.5837
 11
-9.46483
 21
-12.5435
  0
LINE
  8
0
 10
-9.46483
 20
-12.5435
 11
-9.67891
 21
-12.2091
  0
LINE
  8
0
 10
-9.67891
 20
-12.2091
 11
-9.71326
 21
-12.1618
  0
LINE
  8
0
 10
-9.71326
 20
-12.1618
 11
-9.93742
 21
-11.8882
  0
LINE
  8
0
 10
-9.93742
 20
-11.8882
 11
-9.98798
 21
-11.835
  0
LINE
  8
0
 10
-9.98798
 20
-11.835
 11
-10.2222
 21
-11.6222
  0
LINE
  8
0
 10
-10.2222
 20
-11.6222
 11
-10.2943
 21
-11.5678
  0
LINE
  8
0
 10
-10.2943
 20
-11.5678
 11
-10.5386
 21
-11.4158
  0
LINE
  8
0
 10
-10.5386
 20
-11.4158
 11
-10.5764
 21
-11.3945
  0
LINE
  8
0
 10
-10.5764
 20
-11.3945
 11
-10.634
 21
-11.3697
  0
LINE
  8
0
 10
-10.634
 20
-11.3697
 11
-10.8884
 21
-11.2785
  0
LINE
  8
0
 10
-10.8884
 20
-11.2785
 11
-10.9382
 21
-11.2635
  0
LINE
  8
0
 10
-10.9382
 20
-11.2635
 11
-11
 21
-11.2524
  0
LINE
  8
0
 10
-11
 20
-11.2524
 11
-11.2645
 21
-11.222
  0
LINE
  8
0
 10
-11.2645
 20
-11.222
 11
-11.3216
 21
-11.2187
  0
LINE
  8
0
 10
-11.3216
 20
-11.2187
 11
-12.1502
 21
-11.2187
  0
LINE
  8
0
 10
-12.1502
 20
-11.2187
 11
-12.2439
 21
-11.2276
  0
LINE
  8
0
 10
-12.2439
 20
-11.2276
 11
-12.3047
 21
-11.2432
  0
LINE
  8
0
 10
-12.3047
 20
-11.2432
 11
-12.3631
 21
-11.2663
  0
LINE
  8
0
 10
-12.3631
 20
-11.2663
 11
-12.4181
 21
-11.2966
  0
LINE
  8
0
 10
-12.4181
 20
-11.2966
 11
-12.4689
 21
-11.3335
  0
LINE
  8
0
 10
-12.4689
 20
-11.3335
 11
-12.5147
 21
-11.3765
  0
LINE
  8
0
 10
-12.5147
 20
-11.3765
 11
-12.5547
 21
-11.4248
  0
LINE
  8
0
 10
-12.5547
 20
-11.4248
 11
-12.5884
 21
-11.4779
  0
LINE
  8
0
 10
-12.5884
 20
-11.4779
 11
-12.6151
 21
-11.5347
  0
LINE
  8
0
 10
-12.6151
 20
-11.5347
 11
-12.6345
 21
-11.5944
  0
LINE
  8
0
 10
-12.6345
 20
-11.5944
 11
-12.6463
 21
-11.6561
  0
LINE
  8
0
 10
-12.6463
 20
-11.6561
 11
-12.6502
 21
-11.7187
  0
LINE
  8
0
 10
-12.6502
 20
-11.7187
 11
-12.6502
 21
-16.4187
  0
LINE
  8
0
 10
-12.6502
 20
-16.4187
 11
-14.2509
 21
-16.4187
  0
LINE
  8
0
 10
-10.9103
 20
-10.0304
 11
-10.6178
 21
-10.0219
  0
LINE
  8
0
 10
-10.6178
 20
-10.0219
 11
-10.5848
 21
-10.0198
  0
LINE
  8
0
 10
-10.5848
 20
-10.0198
 11
-10.317
 21
-9.99416
  0
LINE
  8
0
 10
-10.317
 20
-9.99416
 11
-10.2782
 21
-9.98889
  0
LINE
  8
0
 10
-10.2782
 20
-9.98889
 11
-10.035
 21
-9.9462
  0
LINE
  8
0
 10
-10.035
 20
-9.9462
 11
-9.98952
 21
-9.936
  0
LINE
  8
0
 10
-9.98952
 20
-9.936
 11
-9.77103
 21
-9.87622
  0
LINE
  8
0
 10
-9.77103
 20
-9.87622
 11
-9.7187
 21
-9.85875
  0
LINE
  8
0
 10
-9.7187
 20
-9.85875
 11
-9.52486
 21
-9.78189
  0
LINE
  8
0
 10
-9.52486
 20
-9.78189
 11
-9.4664
 21
-9.75423
  0
LINE
  8
0
 10
-9.4664
 20
-9.75423
 11
-9.29721
 21
-9.66028
  0
LINE
  8
0
 10
-9.29721
 20
-9.66028
 11
-9.2354
 21
-9.61969
  0
LINE
  8
0
 10
-9.2354
 20
-9.61969
 11
-9.09084
 21
-9.50867
  0
LINE
  8
0
 10
-9.09084
 20
-9.50867
 11
-9.03102
 21
-9.45453
  0
LINE
  8
0
 10
-9.03102
 20
-9.45453
 11
-8.90825
 21
-9.32388
  0
LINE
  8
0
 10
-8.90825
 20
-9.32388
 11
-8.85916
 21
-9.26265
  0
LINE
  8
0
 10
-8.85916
 20
-9.26265
 11
-8.75526
 21
-9.10988
  0
LINE
  8
0
 10
-8.75526
 20
-9.10988
 11
-8.71902
 21
-9.04729
  0
LINE
  8
0
 10
-8.71902
 20
-9.04729
 11
-8.63402
 21
-8.87241
  0
LINE
  8
0
 10
-8.63402
 20
-8.87241
 11
-8.6097
 21
-8.81293
  0
LINE
  8
0
 10
-8.6097
 20
-8.81293
 11
-8.54358
 21
-8.61595
  0
LINE
  8
0
 10
-8.54358
 20
-8.61595
 11
-8.52882
 21
-8.56219
  0
LINE
  8
0
 10
-8.52882
 20
-8.56219
 11
-8.4816
 21
-8.34309
  0
LINE
  8
0
 10
-8.4816
 20
-8.34309
 11
-8.47379
 21
-8.29608
  0
LINE
  8
0
 10
-8.47379
 20
-8.29608
 11
-8.44545
 21
-8.05487
  0
LINE
  8
0
 10
-8.44545
 20
-8.05487
 11
-8.44235
 21
-8.01447
  0
LINE
  8
0
 10
-8.44235
 20
-8.01447
 11
-8.43291
 21
-7.75114
  0
LINE
  8
0
 10
-8.43291
 20
-7.75114
 11
-8.43291
 21
-7.71545
  0
LINE
  8
0
 10
-8.43291
 20
-7.71545
 11
-8.44226
 21
-7.45222
  0
LINE
  8
0
 10
-8.44226
 20
-7.45222
 11
-8.4453
 21
-7.41211
  0
LINE
  8
0
 10
-8.4453
 20
-7.41211
 11
-8.47337
 21
-7.17119
  0
LINE
  8
0
 10
-8.47337
 20
-7.17119
 11
-8.48108
 21
-7.12448
  0
LINE
  8
0
 10
-8.48108
 20
-7.12448
 11
-8.52785
 21
-6.90584
  0
LINE
  8
0
 10
-8.52785
 20
-6.90584
 11
-8.54247
 21
-6.85225
  0
LINE
  8
0
 10
-8.54247
 20
-6.85225
 11
-8.60794
 21
-6.65591
  0
LINE
  8
0
 10
-8.60794
 20
-6.65591
 11
-8.63217
 21
-6.59634
  0
LINE
  8
0
 10
-8.63217
 20
-6.59634
 11
-8.71637
 21
-6.4223
  0
LINE
  8
0
 10
-8.71637
 20
-6.4223
 11
-8.75266
 21
-6.35941
  0
LINE
  8
0
 10
-8.75266
 20
-6.35941
 11
-8.85556
 21
-6.20767
  0
LINE
  8
0
 10
-8.85556
 20
-6.20767
 11
-8.90494
 21
-6.14597
  0
LINE
  8
0
 10
-8.90494
 20
-6.14597
 11
-9.02655
 21
-6.01651
  0
LINE
  8
0
 10
-9.02655
 20
-6.01651
 11
-9.08707
 21
-5.96181
  0
LINE
  8
0
 10
-9.08707
 20
-5.96181
 11
-9.23062
 21
-5.85193
  0
LINE
  8
0
 10
-9.23062
 20
-5.85193
 11
-9.29321
 21
-5.81107
  0
LINE
  8
0
 10
-9.29321
 20
-5.81107
 11
-9.46196
 21
-5.71808
  0
LINE
  8
0
 10
-9.46196
 20
-5.71808
 11
-9.52071
 21
-5.69051
  0
LINE
  8
0
 10
-9.52071
 20
-5.69051
 11
-9.71465
 21
-5.61444
  0
LINE
  8
0
 10
-9.71465
 20
-5.61444
 11
-9.76686
 21
-5.59721
  0
LINE
  8
0
 10
-9.76686
 20
-5.59721
 11
-9.98598
 21
-5.53804
  0
LINE
  8
0
 10
-9.98598
 20
-5.53804
 11
-10.0311
 21
-5.52808
  0
LINE
  8
0
 10
-10.0311
 20
-5.52808
 11
-10.2754
 21
-5.48581
  0
LINE
  8
0
 10
-10.2754
 20
-5.48581
 11
-10.3138
 21
-5.48068
  0
LINE
  8
0
 10
-10.3138
 20
-5.48068
 11
-10.5833
 21
-5.45532
  0
LINE
  8
0
 10
-10.5833
 20
-5.45532
 11
-10.6158
 21
-5.45332
  0
LINE
  8
0
 10
-10.6158
 20
-5.45332
 11
-10.9105
 21
-5.44487
  0
LINE
  8
0
 10
-10.9105
 20
-5.44487
 11
-10.9248
 21
-5.44467
  0
LINE
  8
0
 10
-10.9248
 20
-5.44467
 11
-12.1502
 21
-5.44467
  0
LINE
  8
0
 10
-12.1502
 20
-5.44467
 11
-12.2439
 21
-5.45352
  0
LINE
  8
0
 10
-12.2439
 20
-5.45352
 11
-12.3047
 21
-5.46915
  0
LINE
  8
0
 10
-12.3047
 20
-5.46915
 11
-12.3631
 21
-5.49226
  0
LINE
  8
0
 10
-12.3631
 20
-5.49226
 11
-12.4181
 21
-5.52251
  0
LINE
  8
0
 10
-12.4181
 20
-5.52251
 11
-12.4689
 21
-5.55942
  0
LINE
  8
0
 10
-12.4689
 20
-5.55942
 11
-12.5147
 21
-5.6024
  0
LINE
  8
0
 10
-12.5147
 20
-5.6024
 11
-12.5547
 21
-5.65077
  0
LINE
  8
0
 10
-12.5547
 20
-5.65077
 11
-12.5884
 21
-5.7038
  0
LINE
  8
0
 10
-12.5884
 20
-5.7038
 11
-12.6151
 21
-5.7606
  0
LINE
  8
0
 10
-12.6151
 20
-5.7606
 11
-12.6345
 21
-5.82033
  0
LINE
  8
0
 10
-12.6345
 20
-5.82033
 11
-12.6463
 21
-5.882
  0
LINE
  8
0
 10
-12.6463
 20
-5.882
 11
-12.6502
 21
-5.94467
  0
LINE
  8
0
 10
-12.6502
 20
-5.94467
 11
-12.6502
 21
-9.53059
  0
LINE
  8
0
 10
-12.6502
 20
-9.53059
 11
-12.6414
 21
-9.62428
  0
LINE
  8
0
 10
-12.6414
 20
-9.62428
 11
-12.6257
 21
-9.6851
  0
LINE
  8
0
 10
-12.6257
 20
-9.6851
 11
-12.6026
 21
-9.74348
  0
LINE
  8
0
 10
-12.6026
 20
-9.74348
 11
-12.5724
 21
-9.79851
  0
LINE
  8
0
 10
-12.5724
 20
-9.79851
 11
-12.5355
 21
-9.8493
  0
LINE
  8
0
 10
-12.5355
 20
-9.8493
 11
-12.4925
 21
-9.89508
  0
LINE
  8
0
 10
-12.4925
 20
-9.89508
 11
-12.4441
 21
-9.9351
  0
LINE
  8
0
 10
-12.4441
 20
-9.9351
 11
-12.3911
 21
-9.96875
  0
LINE
  8
0
 10
-12.3911
 20
-9.96875
 11
-12.3343
 21
-9.99548
  0
LINE
  8
0
 10
-12.3343
 20
-9.99548
 11
-12.2746
 21
-10.0149
  0
LINE
  8
0
 10
-12.2746
 20
-10.0149
 11
-12.2129
 21
-10.0267
  0
LINE
  8
0
 10
-12.2129
 20
-10.0267
 11
-12.1502
 21
-10.0306
  0
LINE
  8
0
 10
-12.1502
 20
-10.0306
 11
-10.9248
 21
-10.0306
  0
LINE
  8
0
 10
-10.9248
 20
-10.0306
 11
-10.9103
 21
-10.0304
  0
LINE
  8
0
 10
-12.1502
 20
-9.53059
 11
-12.1502
 21
-5.94467
  0
LINE
  8
0
 10
-12.1502
 20
-5.94467
 11
-10.9248
 21
-5.94467
  0
LINE
  8
0
 10
-10.9248
 20
-5.94467
 11
-10.6302
 21
-5.95312
  0
LINE
  8
0
 10
-10.6302
 20
-5.95312
 11
-10.3607
 21
-5.97849
  0
LINE
  8
0
 10
-10.3607
 20
-5.97849
 11
-10.1163
 21
-6.02075
  0
LINE
  8
0
 10
-10.1163
 20
-6.02075
 11
-9.89722
 21
-6.07993
  0
LINE
  8
0
 10
-9.89722
 20
-6.07993
 11
-9.70328
 21
-6.15599
  0
LINE
  8
0
 10
-9.70328
 20
-6.15599
 11
-9.53453
 21
-6.24898
  0
LINE
  8
0
 10
-9.53453
 20
-6.24898
 11
-9.39098
 21
-6.35886
  0
LINE
  8
0
 10
-9.39098
 20
-6.35886
 11
-9.26936
 21
-6.48831
  0
LINE
  8
0
 10
-9.26936
 20
-6.48831
 11
-9.16646
 21
-6.64005
  0
LINE
  8
0
 10
-9.16646
 20
-6.64005
 11
-9.08226
 21
-6.81409
  0
LINE
  8
0
 10
-9.08226
 20
-6.81409
 11
-9.01678
 21
-7.01042
  0
LINE
  8
0
 10
-9.01678
 20
-7.01042
 11
-8.97002
 21
-7.22906
  0
LINE
  8
0
 10
-8.97002
 20
-7.22906
 11
-8.94194
 21
-7.46999
  0
LINE
  8
0
 10
-8.94194
 20
-7.46999
 11
-8.93259
 21
-7.73322
  0
LINE
  8
0
 10
-8.93259
 20
-7.73322
 11
-8.94203
 21
-7.99654
  0
LINE
  8
0
 10
-8.94203
 20
-7.99654
 11
-8.97037
 21
-8.23775
  0
LINE
  8
0
 10
-8.97037
 20
-8.23775
 11
-9.01759
 21
-8.45685
  0
LINE
  8
0
 10
-9.01759
 20
-8.45685
 11
-9.08371
 21
-8.65382
  0
LINE
  8
0
 10
-9.08371
 20
-8.65382
 11
-9.16872
 21
-8.8287
  0
LINE
  8
0
 10
-9.16872
 20
-8.8287
 11
-9.27261
 21
-8.98148
  0
LINE
  8
0
 10
-9.27261
 20
-8.98148
 11
-9.39539
 21
-9.11212
  0
LINE
  8
0
 10
-9.39539
 20
-9.11212
 11
-9.53995
 21
-9.22314
  0
LINE
  8
0
 10
-9.53995
 20
-9.22314
 11
-9.70914
 21
-9.31709
  0
LINE
  8
0
 10
-9.70914
 20
-9.31709
 11
-9.90298
 21
-9.39395
  0
LINE
  8
0
 10
-9.90298
 20
-9.39395
 11
-10.1215
 21
-9.45374
  0
LINE
  8
0
 10
-10.1215
 20
-9.45374
 11
-10.3646
 21
-9.49643
  0
LINE
  8
0
 10
-10.3646
 20
-9.49643
 11
-10.6324
 21
-9.52206
  0
LINE
  8
0
 10
-10.6324
 20
-9.52206
 11
-10.9248
 21
-9.53059
  0
LINE
  8
0
 10
-10.9248
 20
-9.53059
 11
-12.1502
 21
-9.53059
  0
ENDSEC
  0
SECTION
  2
OBJECTS
  0
DICTIONARY
  0
ENDSEC
  0
EOF
