<?xml version="1.0" standalone="no"?>
<!DOCTYPE svg PUBLIC "-//W3C//DTD SVG 1.1//EN" "http://www.w3.org/Graphics/SVG/1.1/DTD/svg11.dtd">
<svg width="53mm" height="36mm" viewBox="-27 -18 53 36" xmlns="http://www.w3.org/2000/svg" version="1.1">
<title>OpenSCAD Model</title>
<path d="
M -21.1084,-11.1112 L -19.6098,-4.19907 L -17.1855,-4.19907 L -15.6692,-17.3613 L -17.9612,-17.3613 L -18.7019,-7.69919
 L -20.0242,-13.9501 L -22.184,-13.9501 L -23.3212,-7.69919 L -24.2644,-17.3613 L -26.5389,-17.3613 L -24.9168,-4.19907
 L -22.5102,-4.19907 z
M -24.4746,-4.69907 L -25.9735,-16.8613 L -24.718,-16.8613 L -23.8188,-7.6506 L -23.8115,-7.6013 L -23.7953,-7.54062
 L -23.7717,-7.48244 L -23.741,-7.42767 L -23.7037,-7.3772 L -23.6603,-7.33179 L -23.6116,-7.29218 L -23.5583,-7.25899
 L -23.5012,-7.23274 L -23.4413,-7.21385 L -23.3796,-7.20261 L -23.3169,-7.1992 L -23.2542,-7.20369 L -23.1927,-7.21597
 L -23.1331,-7.23589 L -23.0765,-7.26311 L -23.0238,-7.29721 L -22.9758,-7.33765 L -22.9332,-7.38379 L -22.8967,-7.43489
 L -22.8669,-7.49017 L -22.8443,-7.54875 L -22.8292,-7.6097 L -21.7668,-13.4501 L -20.4295,-13.4501 L -19.191,-7.5957
 L -19.1795,-7.55119 L -19.1571,-7.49251 L -19.1276,-7.43707 L -19.0914,-7.38577 L -19.0491,-7.33942 L -19.0013,-7.29874
 L -18.9487,-7.26437 L -18.8923,-7.23686 L -18.8328,-7.21664 L -18.7713,-7.20404 L -18.7087,-7.19923 L -18.646,-7.20232
 L -18.5842,-7.21324 L -18.5242,-7.23183 L -18.467,-7.25778 L -18.4135,-7.2907 L -18.3646,-7.33006 L -18.321,-7.37524
 L -18.2834,-7.42552 L -18.2524,-7.48013 L -18.2285,-7.53819 L -18.212,-7.59879 L -18.2033,-7.66098 L -17.4981,-16.8613
 L -16.2301,-16.8613 L -17.6312,-4.69907 L -19.2066,-4.69907 L -20.6198,-11.2171 L -20.6311,-11.2601 L -20.6536,-11.3188
 L -20.6832,-11.3742 L -20.7195,-11.4254 L -20.7619,-11.4716 L -20.8098,-11.5122 L -20.8625,-11.5465 L -20.919,-11.5739
 L -20.9785,-11.594 L -21.04,-11.6065 L -21.1026,-11.6111 L -21.1653,-11.6079 L -21.2271,-11.5969 L -21.2871,-11.5782
 L -21.3442,-11.5521 L -21.3976,-11.519 L -21.4464,-11.4796 L -21.4899,-11.4343 L -21.5275,-11.384 L -21.5583,-11.3293
 L -21.5821,-11.2712 L -21.5984,-11.2105 L -22.919,-4.69907 z
M 1.42738,-15.0899 L 4.76851,-15.0899 L 4.76851,-17.3613 L -4.51439,-17.3613 L -4.51439,-15.0899 L -1.17325,-15.0899
 L -1.17325,-4.19907 L 1.42738,-4.19907 z
M -0.673248,-4.69907 L -0.673248,-15.0899 L -0.682098,-15.1836 L -0.697723,-15.2444 L -0.72084,-15.3028 L -0.751083,-15.3578
 L -0.787994,-15.4086 L -0.830978,-15.4544 L -0.879349,-15.4944 L -0.932373,-15.5281 L -0.989182,-15.5548 L -1.0489,-15.5742
 L -1.11058,-15.586 L -1.17325,-15.5899 L -4.01439,-15.5899 L -4.01439,-16.8613 L 4.26851,-16.8613 L 4.26851,-15.5899
 L 1.42738,-15.5899 L 1.33369,-15.5811 L 1.27287,-15.5655 L 1.21449,-15.5423 L 1.15947,-15.5121 L 1.10867,-15.4752
 L 1.0629,-15.4322 L 1.02287,-15.3838 L 0.989227,-15.3308 L 0.962494,-15.274 L 0.943085,-15.2143 L 0.93132,-15.1526
 L 0.927383,-15.0899 L 0.927383,-4.69907 z
M -9.84439,-3.96599 L -9.2487,-4.04048 L -8.70592,-4.16464 L -8.21602,-4.33847 L -7.77902,-4.56197 L -7.39491,-4.83513
 L -7.06371,-5.15794 L -6.78069,-5.53552 L -6.54121,-5.97282 L -6.34528,-6.46986 L -6.19287,-7.02666 L -6.08401,-7.64319
 L -6.01871,-8.31946 L -5.99693,-9.05548 L -5.99693,-17.3613 L -8.59758,-17.3613 L -8.59758,-8.40302 L -8.60783,-8.12959
 L -8.63861,-7.87364 L -8.6899,-7.63513 L -8.76169,-7.41408 L -8.854,-7.21048 L -8.96683,-7.02432 L -9.10016,-6.85562
 L -9.25163,-6.70708 L -9.41893,-6.58138 L -9.60207,-6.47853 L -9.80101,-6.39854 L -10.0158,-6.34142 L -10.2464,-6.30714
 L -10.4929,-6.29572 L -10.7393,-6.30714 L -10.97,-6.34142 L -11.1848,-6.39854 L -11.3838,-6.47853 L -11.567,-6.58138
 L -11.7343,-6.70708 L -11.8858,-6.85562 L -12.0191,-7.02432 L -12.1319,-7.21048 L -12.2242,-7.41408 L -12.296,-7.63513
 L -12.3472,-7.87364 L -12.378,-8.12959 L -12.3882,-8.40302 L -12.3882,-17.3613 L -14.9889,-17.3613 L -14.9889,-9.05548
 L -14.967,-8.31946 L -14.9015,-7.64319 L -14.7922,-7.02666 L -14.6392,-6.46986 L -14.4424,-5.97282 L -14.202,-5.53552
 L -13.9178,-5.15794 L -13.5856,-4.83513 L -13.2011,-4.56197 L -12.7642,-4.33847 L -12.2749,-4.16464 L -11.7333,-4.04048
 L -11.1393,-3.96599 L -10.493,-3.94115 z
M -11.0986,-4.4648 L -11.6461,-4.53346 L -12.1348,-4.64549 L -12.5657,-4.79858 L -12.9411,-4.99062 L -13.2647,-5.22049
 L -13.5416,-5.48953 L -13.781,-5.80768 L -13.9891,-6.18608 L -14.1642,-6.62862 L -14.3039,-7.13683 L -14.4057,-7.71109
 L -14.4677,-8.35092 L -14.4889,-9.06314 L -14.4889,-16.8613 L -12.8882,-16.8613 L -12.8882,-8.40302 L -12.8879,-8.38428
 L -12.8776,-8.11086 L -12.8744,-8.06993 L -12.8437,-7.81398 L -12.8361,-7.76857 L -12.7848,-7.53006 L -12.7715,-7.48071
 L -12.6997,-7.25966 L -12.6796,-7.20766 L -12.5873,-7.00406 L -12.5595,-6.95139 L -12.4467,-6.76523 L -12.4114,-6.71434
 L -12.2781,-6.54564 L -12.2359,-6.4986 L -12.0844,-6.35005 L -12.0346,-6.3073 L -11.8672,-6.18159 L -11.8118,-6.1454
 L -11.6286,-6.04256 L -11.5703,-6.0146 L -11.3713,-5.93462 L -11.3133,-5.91534 L -11.0985,-5.85822 L -11.0435,-5.84685
 L -10.8128,-5.81258 L -10.7625,-5.80768 L -10.516,-5.79625 L -10.4697,-5.79625 L -10.2233,-5.80768 L -10.1729,-5.81258
 L -9.94229,-5.84685 L -9.88727,-5.85822 L -9.67249,-5.91534 L -9.61449,-5.93463 L -9.41554,-6.01462 L -9.35724,-6.04257
 L -9.1741,-6.14542 L -9.11858,-6.18164 L -8.95128,-6.30734 L -8.90155,-6.35008 L -8.75008,-6.49863 L -8.70789,-6.54559
 L -8.57455,-6.71429 L -8.53923,-6.76517 L -8.42641,-6.95132 L -8.39862,-7.004 L -8.3063,-7.2076 L -8.28613,-7.25963
 L -8.21434,-7.48068 L -8.20107,-7.53003 L -8.14978,-7.76854 L -8.14218,-7.81395 L -8.1114,-8.0699 L -8.10818,-8.11086
 L -8.09793,-8.38428 L -8.09758,-8.40302 L -8.09758,-16.8613 L -6.49693,-16.8613 L -6.49693,-9.06305 L -6.51801,-8.35078
 L -6.5798,-7.71085 L -6.68124,-7.13629 L -6.82036,-6.62807 L -6.99484,-6.18546 L -7.20213,-5.80693 L -7.44054,-5.48886
 L -7.71617,-5.22021 L -8.03912,-4.99054 L -8.41429,-4.79868 L -8.84579,-4.64557 L -9.33566,-4.53351 L -9.8851,-4.4648
 L -10.4929,-4.44151 z
M 9.11612,-10.0564 L 12.3691,-10.0564 L 12.3691,-4.19907 L 14.9698,-4.19907 L 14.9698,-17.3613 L 12.3691,-17.3613
 L 12.3691,-12.3443 L 9.11612,-12.3443 L 9.11612,-17.3613 L 6.51547,-17.3613 L 6.51547,-4.19907 L 9.11612,-4.19907
 z
M 7.01547,-4.69907 L 7.01547,-16.8613 L 8.61612,-16.8613 L 8.61612,-12.3443 L 8.62497,-12.2506 L 8.64059,-12.1898
 L 8.66371,-12.1314 L 8.69395,-12.0764 L 8.73087,-12.0256 L 8.77385,-11.9798 L 8.82222,-11.9398 L 8.87524,-11.9062
 L 8.93205,-11.8794 L 8.99178,-11.86 L 9.05345,-11.8483 L 9.11612,-11.8443 L 12.3691,-11.8443 L 12.4628,-11.8532
 L 12.5236,-11.8688 L 12.582,-11.8919 L 12.637,-11.9222 L 12.6878,-11.9591 L 12.7336,-12.0021 L 12.7736,-12.0504
 L 12.8073,-12.1035 L 12.834,-12.1603 L 12.8534,-12.22 L 12.8652,-12.2817 L 12.8691,-12.3443 L 12.8691,-16.8613
 L 14.4698,-16.8613 L 14.4698,-4.69907 L 12.8691,-4.69907 L 12.8691,-10.0564 L 12.8603,-10.15 L 12.8446,-10.2109
 L 12.8215,-10.2692 L 12.7913,-10.3243 L 12.7544,-10.3751 L 12.7114,-10.4208 L 12.663,-10.4609 L 12.61,-10.4945
 L 12.5532,-10.5212 L 12.4935,-10.5406 L 12.4318,-10.5524 L 12.3691,-10.5564 L 9.11612,-10.5564 L 9.02243,-10.5475
 L 8.96161,-10.5319 L 8.90323,-10.5088 L 8.84821,-10.4785 L 8.79741,-10.4416 L 8.75163,-10.3986 L 8.71161,-10.3503
 L 8.67796,-10.2972 L 8.65123,-10.2404 L 8.63182,-10.1807 L 8.62006,-10.119 L 8.61612,-10.0564 L 8.61612,-4.69907
 z
M 24.1395,-10.672 L 18.5769,-10.672 L 18.5769,-8.10947 L 24.1395,-8.10947 z
M 19.0769,-8.60947 L 19.0769,-10.172 L 23.6395,-10.172 L 23.6395,-8.60947 z
M 22.5891,17.1699 L 22.8759,17.1497 L 23.1576,17.1159 L 23.434,17.0686 L 23.7052,17.0079 L 23.9712,16.9336
 L 24.232,16.8458 L 24.4871,16.7449 L 24.7358,16.6312 L 24.9782,16.5047 L 25.2144,16.3654 L 25.4442,16.2134
 L 25.6677,16.0486 L 25.885,15.8709 L 25.885,9.83844 L 21.8298,9.83844 L 21.8298,12.0266 L 23.6106,12.0266
 L 23.6106,14.539 L 23.5554,14.5803 L 23.4955,14.6185 L 23.4309,14.6537 L 23.3616,14.6858 L 23.2877,14.7149
 L 23.209,14.7409 L 23.1257,14.7639 L 23.0379,14.7837 L 22.9459,14.8005 L 22.8494,14.8143 L 22.7487,14.825
 L 22.6436,14.8326 L 22.5342,14.8372 L 22.4205,14.8387 L 22.0483,14.8154 L 21.7023,14.7452 L 21.3826,14.6282
 L 21.0892,14.4644 L 20.822,14.2539 L 20.5811,13.9965 L 20.3665,13.6924 L 20.1794,13.3435 L 20.0211,12.9517
 L 19.8915,12.5171 L 19.7908,12.0397 L 19.7188,11.5194 L 19.6756,10.9563 L 19.6612,10.3504 L 19.6762,9.72635
 L 19.721,9.14931 L 19.7956,8.61923 L 19.9001,8.13614 L 20.0345,7.70001 L 20.1988,7.31087 L 20.3929,6.96869
 L 20.6172,6.67273 L 20.8722,6.4223 L 21.1577,6.21741 L 21.4738,6.05804 L 21.8205,5.94421 L 22.1978,5.87593
 L 22.6056,5.85316 L 22.8446,5.86041 L 23.078,5.8822 L 23.3059,5.91852 L 23.5282,5.96935 L 23.7449,6.0347
 L 23.956,6.11456 L 24.1616,6.20897 L 24.361,6.3177 L 24.5538,6.44061 L 24.7399,6.57768 L 24.9194,6.7289
 L 25.0921,6.89429 L 25.2583,7.07384 L 25.4178,7.26756 L 25.4178,4.38884 L 25.2243,4.27188 L 25.027,4.16302
 L 24.8257,4.06227 L 24.6204,3.9696 L 24.4111,3.88506 L 24.1979,3.80861 L 23.9807,3.74026 L 23.7611,3.68057
 L 23.5404,3.63005 L 23.3186,3.58871 L 23.0957,3.55656 L 22.8717,3.5336 L 22.6466,3.51984 L 22.4205,3.51524
 L 21.6878,3.55106 L 21.006,3.65851 L 20.3751,3.83762 L 19.7952,4.08835 L 19.2661,4.41071 L 18.788,4.80472
 L 18.3608,5.27037 L 17.9878,5.80383 L 17.6721,6.40138 L 17.4139,7.06302 L 17.213,7.78874 L 17.0695,8.57854
 L 16.9835,9.43242 L 16.9548,10.3504 L 16.9832,11.2547 L 17.0685,12.098 L 17.2106,12.8804 L 17.4096,13.6017
 L 17.6654,14.262 L 17.9781,14.8613 L 18.3476,15.3996 L 18.7693,15.871 L 19.2385,16.27 L 19.7552,16.5964
 L 20.3194,16.8503 L 20.9311,17.0316 L 21.5903,17.1404 L 22.297,17.1767 z
M 21.6439,16.6425 L 21.0434,16.5434 L 20.4938,16.3804 L 19.9925,16.1549 L 19.5355,15.8662 L 19.1192,15.5123
 L 18.7416,15.0901 L 18.4074,14.6033 L 18.1216,14.0554 L 17.8849,13.4445 L 17.6985,12.769 L 17.564,12.0282
 L 17.4824,11.2216 L 17.455,10.3504 L 17.4827,9.46541 L 17.565,8.6483 L 17.7009,7.90045 L 17.889,7.22098
 L 18.1276,6.60971 L 18.4154,6.0649 L 18.7516,5.584 L 19.1329,5.16841 L 19.5566,4.81923 L 20.0257,4.5334
 L 20.5433,4.30962 L 21.1136,4.14771 L 21.739,4.04915 L 22.4277,4.01549 L 22.6261,4.01952 L 22.831,4.03204
 L 23.0345,4.05292 L 23.2371,4.08212 L 23.4386,4.11969 L 23.6398,4.16574 L 23.8399,4.22011 L 24.0386,4.28265
 L 24.2328,4.35231 L 24.424,4.42957 L 24.6108,4.51384 L 24.7943,4.6057 L 24.9178,4.67378 L 24.9178,6.08771
 L 24.8503,6.03801 L 24.8226,6.01903 L 24.6298,5.89612 L 24.6004,5.87871 L 24.4009,5.76997 L 24.3703,5.75459
 L 24.1647,5.66019 L 24.1329,5.6469 L 23.9218,5.56703 L 23.8893,5.556 L 23.6725,5.49065 L 23.6396,5.48193
 L 23.4174,5.43111 L 23.3846,5.42474 L 23.1567,5.38843 L 23.1245,5.38437 L 22.8911,5.36258 L 22.8598,5.36064
 L 22.6208,5.35339 L 22.5777,5.35394 L 22.1699,5.37671 L 22.1087,5.38393 L 21.7314,5.45221 L 21.6645,5.46916
 L 21.3178,5.58299 L 21.2487,5.61157 L 20.9326,5.77094 L 20.8662,5.81117 L 20.5807,6.01607 L 20.5218,6.0656
 L 20.2669,6.31602 L 20.2188,6.37067 L 19.9944,6.66663 L 19.958,6.72198 L 19.7639,7.06416 L 19.7381,7.11644
 L 19.5739,7.50558 L 19.5567,7.55278 L 19.4223,7.98891 L 19.4114,8.03041 L 19.3069,8.5135 L 19.3005,8.54951
 L 19.2258,9.07959 L 19.2225,9.11061 L 19.1777,9.68765 L 19.1763,9.71439 L 19.1614,10.3384 L 19.1614,10.3623
 L 19.1758,10.9682 L 19.1771,10.9945 L 19.2203,11.5576 L 19.2235,11.5879 L 19.2955,12.1082 L 19.3015,12.1429
 L 19.4023,12.6203 L 19.4124,12.6599 L 19.5419,13.0945 L 19.5575,13.139 L 19.7158,13.5308 L 19.7387,13.5797
 L 19.9258,13.9287 L 19.958,13.9807 L 20.1726,14.2848 L 20.2161,14.3382 L 20.457,14.5956 L 20.5125,14.6466
 L 20.7797,14.8571 L 20.8455,14.901 L 21.1389,15.0648 L 21.2108,15.0977 L 21.5305,15.2147 L 21.6029,15.2352
 L 21.9489,15.3054 L 22.0169,15.3144 L 22.3891,15.3378 L 22.4272,15.3387 L 22.5409,15.3372 L 22.5552,15.3368
 L 22.6646,15.3322 L 22.6799,15.3313 L 22.785,15.3237 L 22.8015,15.3222 L 22.9022,15.3115 L 22.92,15.3093
 L 23.0164,15.2955 L 23.0357,15.2924 L 23.1278,15.2756 L 23.1483,15.2714 L 23.2361,15.2515 L 23.2585,15.2459
 L 23.3418,15.2229 L 23.3661,15.2156 L 23.4447,15.1896 L 23.4706,15.1802 L 23.5445,15.1512 L 23.5721,15.1394
 L 23.6413,15.1072 L 23.6701,15.0928 L 23.7347,15.0576 L 23.7645,15.04 L 23.8244,15.0018 L 23.8549,14.9807
 L 23.9101,14.9393 L 23.9751,14.8812 L 24.0151,14.8329 L 24.0488,14.7798 L 24.0755,14.723 L 24.0949,14.6633
 L 24.1067,14.6016 L 24.1106,14.539 L 24.1106,12.0266 L 24.1018,11.9329 L 24.0862,11.8721 L 24.063,11.8137
 L 24.0328,11.7587 L 23.9959,11.7079 L 23.9529,11.6621 L 23.9045,11.6221 L 23.8515,11.5884 L 23.7947,11.5617
 L 23.735,11.5423 L 23.6733,11.5305 L 23.6106,11.5266 L 22.3298,11.5266 L 22.3298,10.3384 L 25.385,10.3384
 L 25.385,15.6339 L 25.3611,15.6535 L 25.1576,15.8035 L 24.9493,15.9413 L 24.7354,16.0675 L 24.516,16.1819
 L 24.2911,16.2847 L 24.0603,16.3761 L 23.8241,16.4556 L 23.5832,16.5228 L 23.337,16.578 L 23.0858,16.6209
 L 22.8286,16.6517 L 22.5655,16.6703 L 22.3041,16.6764 z
M 8.64891,7.35349 L 12.3339,16.9187 L 15.1108,16.9187 L 15.1108,3.75652 L 12.8186,3.75652 L 12.8186,13.3218
 L 9.15135,3.75652 L 6.35687,3.75652 L 6.35687,16.9187 L 8.64891,16.9187 z
M 6.85687,16.4187 L 6.85687,4.25652 L 8.80757,4.25652 L 12.3518,13.5008 L 12.3805,13.5627 L 12.4141,13.6157
 L 12.4542,13.664 L 12.4999,13.707 L 12.5507,13.7439 L 12.6058,13.7742 L 12.6641,13.7973 L 12.725,13.8129
 L 12.7872,13.8208 L 12.8501,13.8208 L 12.9123,13.8129 L 12.9732,13.7973 L 13.0315,13.7742 L 13.0866,13.7439
 L 13.1374,13.707 L 13.1831,13.664 L 13.2232,13.6157 L 13.2568,13.5627 L 13.2835,13.5058 L 13.3029,13.4461
 L 13.3147,13.3844 L 13.3186,13.3218 L 13.3186,4.25652 L 14.6108,4.25652 L 14.6108,16.4187 L 12.6771,16.4187
 L 9.11548,7.17374 L 9.08707,7.11261 L 9.05342,7.05959 L 9.0134,7.01122 L 8.96762,6.96823 L 8.91682,6.93132
 L 8.8618,6.90108 L 8.80342,6.87796 L 8.7426,6.86234 L 8.68031,6.85448 L 8.61751,6.85448 L 8.55522,6.86234
 L 8.4944,6.87796 L 8.43602,6.90108 L 8.381,6.93132 L 8.3302,6.96823 L 8.28442,7.01122 L 8.2444,7.05959
 L 8.21075,7.11261 L 8.18402,7.16942 L 8.16461,7.22914 L 8.15285,7.29082 L 8.14891,7.35349 L 8.14891,16.4187
 z
M -16.8594,14.6307 L -22.4573,14.6307 L -22.4573,11.1779 L -17.3883,11.1779 L -17.3883,8.88995 L -22.4573,8.88995
 L -22.4573,6.04453 L -16.8594,6.04453 L -16.8594,3.75652 L -25.0578,3.75652 L -25.0578,16.9187 L -16.8594,16.9187
 z
M -24.5578,16.4187 L -24.5578,4.25652 L -17.3594,4.25652 L -17.3594,5.54453 L -22.4573,5.54453 L -22.551,5.55338
 L -22.6118,5.569 L -22.6702,5.59212 L -22.7252,5.62236 L -22.776,5.65927 L -22.8218,5.70226 L -22.8618,5.75063
 L -22.8955,5.80365 L -22.9222,5.86046 L -22.9416,5.92018 L -22.9534,5.98186 L -22.9573,6.04453 L -22.9573,8.88995
 L -22.9485,8.98364 L -22.9328,9.04446 L -22.9097,9.10284 L -22.8795,9.15787 L -22.8426,9.20866 L -22.7996,9.25444
 L -22.7512,9.29446 L -22.6982,9.32811 L -22.6414,9.35484 L -22.5816,9.37425 L -22.52,9.38602 L -22.4573,9.38995
 L -17.8883,9.38995 L -17.8883,10.6779 L -22.4573,10.6779 L -22.551,10.6868 L -22.6118,10.7024 L -22.6702,10.7255
 L -22.7252,10.7558 L -22.776,10.7927 L -22.8218,10.8357 L -22.8618,10.884 L -22.8955,10.9371 L -22.9222,10.9939
 L -22.9416,11.0536 L -22.9534,11.1153 L -22.9573,11.1779 L -22.9573,14.6307 L -22.9485,14.7244 L -22.9328,14.7852
 L -22.9097,14.8436 L -22.8795,14.8987 L -22.8426,14.9494 L -22.7996,14.9952 L -22.7512,15.0352 L -22.6982,15.0689
 L -22.6414,15.0956 L -22.5816,15.115 L -22.52,15.1268 L -22.4573,15.1307 L -17.3594,15.1307 L -17.3594,16.4187
 z
M 4.04558,14.6307 L 1.42738,14.6307 L 1.42738,6.04453 L 4.04558,6.04453 L 4.04558,3.75652 L -3.79146,3.75652
 L -3.79146,6.04453 L -1.17325,6.04453 L -1.17325,14.6307 L -3.79146,14.6307 L -3.79146,16.9187 L 4.04558,16.9187
 z
M -3.29146,16.4187 L -3.29146,15.1307 L -1.17325,15.1307 L -1.07956,15.1219 L -1.01874,15.1063 L -0.960358,15.0831
 L -0.905334,15.0529 L -0.854538,15.016 L -0.808762,14.973 L -0.768738,14.9246 L -0.735092,14.8716 L -0.708359,14.8148
 L -0.68895,14.7551 L -0.677185,14.6934 L -0.673248,14.6307 L -0.673248,6.04453 L -0.682098,5.95084 L -0.697723,5.89001
 L -0.72084,5.83163 L -0.751083,5.77661 L -0.787994,5.72581 L -0.830978,5.68004 L -0.879349,5.64001 L -0.932373,5.60637
 L -0.989182,5.57964 L -1.0489,5.56023 L -1.11058,5.54846 L -1.17325,5.54453 L -3.29146,5.54453 L -3.29146,4.25652
 L 3.54558,4.25652 L 3.54558,5.54453 L 1.42738,5.54453 L 1.33369,5.55338 L 1.27287,5.569 L 1.21449,5.59212
 L 1.15947,5.62236 L 1.10867,5.65927 L 1.0629,5.70226 L 1.02287,5.75063 L 0.989227,5.80365 L 0.962494,5.86046
 L 0.943085,5.92018 L 0.93132,5.98186 L 0.927383,6.04453 L 0.927383,14.6307 L 0.936234,14.7244 L 0.951859,14.7852
 L 0.974976,14.8436 L 1.00522,14.8987 L 1.04213,14.9494 L 1.08511,14.9952 L 1.13348,15.0352 L 1.18651,15.0689
 L 1.24332,15.0956 L 1.30304,15.115 L 1.36472,15.1268 L 1.42738,15.1307 L 3.54558,15.1307 L 3.54558,16.4187
 z
M -12.1502,11.7187 L -11.3216,11.7187 L -11.0571,11.7491 L -10.8027,11.8403 L -10.5584,11.9923 L -10.3242,12.2051
 L -10.1,12.4787 L -9.88593,12.8131 L -9.68192,13.2083 L -9.65005,13.2766 L -9.62,13.3407 L -9.59175,13.4004
 L -9.56531,13.4558 L -9.54066,13.5069 L -9.51782,13.5536 L -9.4968,13.5961 L -7.90988,16.9187 L -5.05365,16.9187
 L -7.43394,12.1858 L -7.54971,11.96 L -7.66026,11.7564 L -7.76561,11.5749 L -7.86572,11.4155 L -7.96062,11.2782
 L -8.05031,11.1631 L -8.13478,11.0702 L -8.21867,10.9925 L -8.30672,10.9233 L -8.39891,10.8625 L -8.49524,10.8102
 L -8.59572,10.7664 L -8.70033,10.731 L -8.8091,10.7041 L -8.46584,10.6456 L -8.14633,10.5609 L -7.85057,10.4499
 L -7.57855,10.3126 L -7.33029,10.149 L -7.10576,9.95923 L -6.90498,9.74315 L -6.72957,9.50256 L -6.58115,9.2393
 L -6.4597,8.95338 L -6.36525,8.64478 L -6.29778,8.31351 L -6.25729,7.95956 L -6.2438,7.58293 L -6.26639,7.02661
 L -6.33412,6.51634 L -6.44702,6.05214 L -6.60509,5.63397 L -6.8083,5.26189 L -7.05669,4.93584 L -7.35023,4.65585
 L -7.69556,4.41725 L -8.09935,4.21536 L -8.56161,4.05019 L -9.08237,3.92171 L -9.66158,3.82993 L -10.2993,3.77487
 L -10.9954,3.75652 L -14.7509,3.75652 L -14.7509,16.9187 L -12.1502,16.9187 z
M -14.2509,16.4187 L -14.2509,4.25652 L -11.0023,4.25652 L -10.3274,4.27431 L -9.72214,4.32657 L -9.18159,4.41222
 L -8.70596,4.52956 L -8.29604,4.67604 L -7.95073,4.84868 L -7.66684,5.04485 L -7.43039,5.27037 L -7.22897,5.53477
 L -7.06052,5.84322 L -6.92561,6.2001 L -6.82626,6.60861 L -6.76505,7.06973 L -6.74417,7.58412 L -6.75627,7.92212
 L -6.79207,8.23506 L -6.85042,8.52151 L -6.93013,8.78197 L -7.03043,9.0181 L -7.1508,9.23163 L -7.29144,9.42451
 L -7.45157,9.59683 L -7.63031,9.74794 L -7.82947,9.87914 L -8.05168,9.99129 L -8.29871,10.084 L -8.57207,10.1565
 L -8.89305,10.2112 L -8.93761,10.2209 L -8.99715,10.2408 L -9.05373,10.268 L -9.10646,10.3021 L -9.1545,10.3426
 L -9.19708,10.3887 L -9.23355,10.4398 L -9.26332,10.4951 L -9.28593,10.5537 L -9.30103,10.6146 L -9.30836,10.677
 L -9.30782,10.7398 L -9.29942,10.802 L -9.28328,10.8627 L -9.25966,10.9209 L -9.22894,10.9756 L -9.1916,11.0261
 L -9.14822,11.0715 L -9.0995,11.1111 L -9.0462,11.1443 L -8.98915,11.1705 L -8.92928,11.1894 L -8.84074,11.2113
 L -8.77623,11.2332 L -8.71478,11.26 L -8.65623,11.2918 L -8.59932,11.3293 L -8.5435,11.3732 L -8.49028,11.4224
 L -8.43321,11.4852 L -8.36368,11.5745 L -8.28334,11.6907 L -8.19363,11.8335 L -8.09615,12.0014 L -7.99211,12.1931
 L -7.87955,12.4126 L -5.86478,16.4187 L -7.59457,16.4187 L -9.04561,13.3806 L -9.04875,13.3741 L -9.06854,13.3342
 L -9.09032,13.2896 L -9.11496,13.2385 L -9.13977,13.1866 L -9.16739,13.1282 L -9.19745,13.0641 L -9.22874,12.997
 L -9.23763,12.9789 L -9.44164,12.5837 L -9.46483,12.5435 L -9.67891,12.2091 L -9.71326,12.1618 L -9.93742,11.8882
 L -9.98798,11.835 L -10.2222,11.6222 L -10.2943,11.5678 L -10.5386,11.4158 L -10.5764,11.3945 L -10.634,11.3697
 L -10.8884,11.2785 L -10.9382,11.2635 L -11,11.2524 L -11.2645,11.222 L -11.3216,11.2187 L -12.1502,11.2187
 L -12.2439,11.2276 L -12.3047,11.2432 L -12.3631,11.2663 L -12.4181,11.2966 L -12.4689,11.3335 L -12.5147,11.3765
 L -12.5547,11.4248 L -12.5884,11.4779 L -12.6151,11.5347 L -12.6345,11.5944 L -12.6463,11.6561 L -12.6502,11.7187
 L -12.6502,16.4187 z
M -10.9103,10.0304 L -10.6178,10.0219 L -10.5848,10.0198 L -10.317,9.99416 L -10.2782,9.98889 L -10.035,9.9462
 L -9.98952,9.936 L -9.77103,9.87622 L -9.7187,9.85875 L -9.52486,9.78189 L -9.4664,9.75423 L -9.29721,9.66028
 L -9.2354,9.61969 L -9.09084,9.50867 L -9.03102,9.45453 L -8.90825,9.32388 L -8.85916,9.26265 L -8.75526,9.10988
 L -8.71902,9.04729 L -8.63402,8.87241 L -8.6097,8.81293 L -8.54358,8.61595 L -8.52882,8.56219 L -8.4816,8.34309
 L -8.47379,8.29608 L -8.44545,8.05487 L -8.44235,8.01447 L -8.43291,7.75114 L -8.43291,7.71545 L -8.44226,7.45222
 L -8.4453,7.41211 L -8.47337,7.17119 L -8.48108,7.12448 L -8.52785,6.90584 L -8.54247,6.85225 L -8.60794,6.65591
 L -8.63217,6.59634 L -8.71637,6.4223 L -8.75266,6.35941 L -8.85556,6.20767 L -8.90494,6.14597 L -9.02655,6.01651
 L -9.08707,5.96181 L -9.23062,5.85193 L -9.29321,5.81107 L -9.46196,5.71808 L -9.52071,5.69051 L -9.71465,5.61444
 L -9.76686,5.59721 L -9.98598,5.53804 L -10.0311,5.52808 L -10.2754,5.48581 L -10.3138,5.48068 L -10.5833,5.45532
 L -10.6158,5.45332 L -10.9105,5.44487 L -10.9248,5.44467 L -12.1502,5.44467 L -12.2439,5.45352 L -12.3047,5.46915
 L -12.3631,5.49226 L -12.4181,5.52251 L -12.4689,5.55942 L -12.5147,5.6024 L -12.5547,5.65077 L -12.5884,5.7038
 L -12.6151,5.7606 L -12.6345,5.82033 L -12.6463,5.882 L -12.6502,5.94467 L -12.6502,9.53059 L -12.6414,9.62428
 L -12.6257,9.6851 L -12.6026,9.74348 L -12.5724,9.79851 L -12.5355,9.8493 L -12.4925,9.89508 L -12.4441,9.9351
 L -12.3911,9.96875 L -12.3343,9.99548 L -12.2746,10.0149 L -12.2129,10.0267 L -12.1502,10.0306 L -10.9248,10.0306
 z
M -12.1502,9.53059 L -12.1502,5.94467 L -10.9248,5.94467 L -10.6302,5.95312 L -10.3607,5.97849 L -10.1163,6.02075
 L -9.89722,6.07993 L -9.70328,6.15599 L -9.53453,6.24898 L -9.39098,6.35886 L -9.26936,6.48831 L -9.16646,6.64005
 L -9.08226,6.81409 L -9.01678,7.01042 L -8.97002,7.22906 L -8.94194,7.46999 L -8.93259,7.73322 L -8.94203,7.99654
 L -8.97037,8.23775 L -9.01759,8.45685 L -9.08371,8.65382 L -9.16872,8.8287 L -9.27261,8.98148 L -9.39539,9.11212
 L -9.53995,9.22314 L -9.70914,9.31709 L -9.90298,9.39395 L -10.1215,9.45374 L -10.3646,9.49643 L -10.6324,9.52206
 L -10.9248,9.53059 z
" stroke="black" fill="lightgray" stroke-width="0.5"/>
</svg>
