<?xml version="1.0" standalone="no"?>
<!DOCTYPE svg PUBLIC "-//W3C//DTD SVG 1.1//EN" "http://www.w3.org/Graphics/SVG/1.1/DTD/svg11.dtd">
<svg width="51mm" height="35mm" viewBox="-26 -18 51 35" xmlns="http://www.w3.org/2000/svg" version="1.1">
<title>OpenSCAD Model</title>
<path d="
M -10.2164,-3.8434 L -9.61006,-3.90359 L -9.0528,-4.00391 L -8.54465,-4.14433 L -8.0856,-4.32491 L -7.67569,-4.54559
 L -7.31487,-4.8064 L -7.00264,-5.10788 L -6.73843,-5.45056 L -6.52228,-5.83446 L -6.35414,-6.25955 L -6.23405,-6.72586
 L -6.162,-7.23338 L -6.13799,-7.7821 L -6.15327,-8.19 L -6.19916,-8.57738 L -6.27562,-8.94424 L -6.38266,-9.2906
 L -6.52029,-9.61646 L -6.68851,-9.92178 L -6.8873,-10.2066 L -7.11848,-10.4734 L -7.38385,-10.7248 L -7.6834,-10.9607
 L -8.01712,-11.1812 L -8.38504,-11.3861 L -8.78712,-11.5756 L -9.2234,-11.7496 L -10.3431,-12.1732 L -10.6593,-12.2952
 L -10.9429,-12.414 L -11.194,-12.5298 L -11.4124,-12.6425 L -11.5984,-12.7522 L -11.7517,-12.8588 L -11.8725,-12.9623
 L -11.9696,-13.0682 L -12.0517,-13.1819 L -12.1189,-13.3033 L -12.1712,-13.4324 L -12.2085,-13.5692 L -12.2309,-13.7139
 L -12.2384,-13.8662 L -12.2281,-14.0611 L -12.1973,-14.2426 L -12.1461,-14.4109 L -12.0743,-14.5658 L -11.982,-14.7074
 L -11.8692,-14.8357 L -11.7359,-14.9507 L -11.5833,-15.0513 L -11.4128,-15.1364 L -11.2242,-15.2061 L -11.0176,-15.2602
 L -10.7931,-15.2989 L -10.5506,-15.3221 L -10.2901,-15.3299 L -10.0479,-15.3236 L -9.80502,-15.3047 L -9.56143,-15.2733
 L -9.31712,-15.2292 L -9.0721,-15.1726 L -8.82635,-15.1034 L -8.5799,-15.0217 L -8.33359,-14.9278 L -8.08836,-14.8225
 L -7.84422,-14.7057 L -7.60115,-14.5774 L -7.35918,-14.4376 L -7.11827,-14.2863 L -6.87846,-14.1235 L -6.87846,-16.6611
 L -7.13321,-16.7734 L -7.38869,-16.8776 L -7.64488,-16.9737 L -7.90179,-17.0616 L -8.15944,-17.1414 L -8.4178,-17.2131
 L -8.67688,-17.2766 L -8.93629,-17.3318 L -9.19571,-17.3786 L -9.45512,-17.4168 L -9.71455,-17.4465 L -9.97398,-17.4678
 L -10.2334,-17.4805 L -10.4929,-17.4848 L -11.0472,-17.4639 L -11.5666,-17.4012 L -12.0511,-17.2968 L -12.5007,-17.1505
 L -12.9154,-16.9625 L -13.2952,-16.7327 L -13.6402,-16.4611 L -13.9442,-16.153 L -14.2014,-15.8136 L -14.4119,-15.4428
 L -14.5756,-15.0407 L -14.6926,-14.6073 L -14.7627,-14.1425 L -14.7861,-13.6464 L -14.7719,-13.2597 L -14.7292,-12.8962
 L -14.6582,-12.5559 L -14.5587,-12.2389 L -14.4308,-11.9451 L -14.2745,-11.6745 L -14.0897,-11.4272 L -13.8648,-11.193
 L -13.5881,-10.9619 L -13.2596,-10.7338 L -12.8793,-10.5088 L -12.4471,-10.2869 L -11.9632,-10.068 L -11.4274,-9.85222
 L -10.1491,-9.36693 L -9.96417,-9.29015 L -9.79218,-9.20564 L -9.63313,-9.1134 L -9.48706,-9.01343 L -9.35393,-8.90573
 L -9.23376,-8.7903 L -9.12656,-8.66714 L -9.03297,-8.53719 L -8.95381,-8.40131 L -8.88902,-8.25949 L -8.83864,-8.11176
 L -8.80266,-7.9581 L -8.78107,-7.79851 L -8.77386,-7.63298 L -8.78465,-7.41626 L -8.81705,-7.21371 L -8.87102,-7.02536
 L -8.94659,-6.85121 L -9.04375,-6.69122 L -9.16249,-6.54544 L -9.30283,-6.41385 L -9.46275,-6.29828 L -9.6403,-6.20049
 L -9.83549,-6.12047 L -10.0483,-6.05823 L -10.2788,-6.01378 L -10.5269,-5.98711 L -10.7926,-5.97821 L -11.0651,-5.98555
 L -11.3385,-6.00757 L -11.6128,-6.04427 L -11.8879,-6.09563 L -12.164,-6.16168 L -12.441,-6.2424 L -12.7188,-6.3378
 L -12.9985,-6.44827 L -13.2809,-6.57413 L -13.5659,-6.71536 L -13.8537,-6.87199 L -14.1442,-7.04402 L -14.4373,-7.23143
 L -14.7332,-7.43422 L -14.7332,-4.74686 L -14.4699,-4.62076 L -14.2039,-4.50383 L -13.9352,-4.39604 L -13.6639,-4.29741
 L -13.3898,-4.20793 L -13.113,-4.12759 L -12.8335,-4.05643 L -12.5527,-3.99458 L -12.2721,-3.94226 L -11.9917,-3.89944
 L -11.7115,-3.86615 L -11.4315,-3.84236 L -11.1516,-3.82809 L -10.8719,-3.82333 z
M -11.1343,-4.32787 L -11.3979,-4.34131 L -11.6607,-4.36363 L -11.9242,-4.39494 L -12.1886,-4.4353 L -12.4532,-4.48463
 L -12.7179,-4.54295 L -12.9818,-4.61015 L -13.2424,-4.68581 L -13.5008,-4.77014 L -13.7568,-4.86317 L -14.0103,-4.96487
 L -14.2332,-5.06287 L -14.2332,-6.51564 L -14.1085,-6.44179 L -14.0927,-6.43283 L -13.805,-6.2762 L -13.7879,-6.26733
 L -13.5028,-6.1261 L -13.4844,-6.11743 L -13.2021,-5.99158 L -13.1822,-5.98325 L -12.9025,-5.87277 L -12.8812,-5.8649
 L -12.6033,-5.7695 L -12.5809,-5.76237 L -12.3039,-5.68166 L -12.2804,-5.6754 L -12.0043,-5.60934 L -11.9797,-5.60411
 L -11.7045,-5.55275 L -11.6791,-5.54868 L -11.4048,-5.51198 L -11.3786,-5.50919 L -11.1053,-5.48717 L -11.0786,-5.48573
 L -10.8061,-5.47839 L -10.7759,-5.47849 L -10.5102,-5.48738 L -10.4734,-5.48997 L -10.2253,-5.51665 L -10.1841,-5.52283
 L -9.95364,-5.56728 L -9.90797,-5.57832 L -9.69514,-5.64056 L -9.64584,-5.65784 L -9.45065,-5.73785 L -9.39908,-5.76253
 L -9.22153,-5.86032 L -9.16989,-5.89302 L -9.00996,-6.00859 L -8.96082,-6.04912 L -8.82048,-6.18071 L -8.77483,-6.22968
 L -8.65608,-6.37546 L -8.61638,-6.4317 L -8.51923,-6.59169 L -8.48793,-6.65216 L -8.41235,-6.82631 L -8.39037,-6.88763
 L -8.3364,-7.07599 L -8.32332,-7.13475 L -8.29092,-7.3373 L -8.28528,-7.3914 L -8.27449,-7.60812 L -8.27434,-7.65471
 L -8.28154,-7.82024 L -8.28558,-7.86554 L -8.30717,-8.02513 L -8.31583,-8.0721 L -8.35181,-8.22575 L -8.3654,-8.27315
 L -8.41579,-8.42088 L -8.43423,-8.46725 L -8.49902,-8.60907 L -8.52179,-8.653 L -8.60095,-8.78888 L -8.62723,-8.82936
 L -8.72081,-8.95932 L -8.74944,-8.99544 L -8.85664,-9.11859 L -8.88737,-9.15088 L -9.00754,-9.26631 L -9.03946,-9.29446
 L -9.17259,-9.40216 L -9.20465,-9.42604 L -9.35072,-9.52602 L -9.38228,-9.54593 L -9.54132,-9.63817 L -9.5717,-9.6544
 L -9.7437,-9.73891 L -9.77248,-9.75194 L -9.95744,-9.82872 L -9.97168,-9.83438 L -11.2454,-10.3179 L -11.7669,-10.528
 L -12.2298,-10.7374 L -12.6375,-10.9467 L -12.9895,-11.155 L -13.2847,-11.3599 L -13.5231,-11.559 L -13.7076,-11.7512
 L -13.8563,-11.9502 L -13.9837,-12.1707 L -14.0896,-12.414 L -14.1738,-12.6822 L -14.2352,-12.9766 L -14.273,-13.2981
 L -14.2857,-13.6437 L -14.2645,-14.0933 L -14.2024,-14.5046 L -14.1009,-14.8808 L -13.9611,-15.2242 L -13.7829,-15.5381
 L -13.5654,-15.825 L -13.3062,-16.0877 L -13.0102,-16.3208 L -12.6819,-16.5194 L -12.3196,-16.6836 L -11.9208,-16.8134
 L -11.4838,-16.9076 L -11.0078,-16.965 L -10.4876,-16.9846 L -10.2498,-16.9807 L -10.0066,-16.9688 L -9.76329,-16.9489
 L -9.52016,-16.921 L -9.27632,-16.885 L -9.03276,-16.8412 L -8.7883,-16.7891 L -8.54454,-16.7294 L -8.30013,-16.6616
 L -8.05655,-16.5861 L -7.8139,-16.5031 L -7.57066,-16.4119 L -7.37846,-16.3335 L -7.37846,-15.0252 L -7.61081,-15.1479
 L -7.62843,-15.1568 L -7.87257,-15.2736 L -7.89105,-15.282 L -8.13628,-15.3873 L -8.15562,-15.3951 L -8.40193,-15.4889
 L -8.42244,-15.4962 L -8.6689,-15.578 L -8.69083,-15.5847 L -8.93657,-15.6539 L -8.95955,-15.6598 L -9.20457,-15.7164
 L -9.22842,-15.7213 L -9.47273,-15.7653 L -9.49741,-15.7691 L -9.741,-15.8006 L -9.76628,-15.8032 L -10.0092,-15.8221
 L -10.0349,-15.8234 L -10.2771,-15.8297 L -10.3049,-15.8297 L -10.5654,-15.8219 L -10.5982,-15.8199 L -10.8408,-15.7966
 L -10.878,-15.7917 L -11.1025,-15.753 L -11.1445,-15.7439 L -11.3511,-15.6897 L -11.3974,-15.6751 L -11.586,-15.6055
 L -11.636,-15.5838 L -11.8066,-15.4987 L -11.8586,-15.4687 L -12.0112,-15.3681 L -12.0625,-15.3293 L -12.1958,-15.2144
 L -12.2447,-15.1658 L -12.3575,-15.0376 L -12.4009,-14.9804 L -12.4932,-14.8388 L -12.528,-14.776 L -12.5997,-14.6211
 L -12.6244,-14.5566 L -12.6756,-14.3884 L -12.6903,-14.3262 L -12.7211,-14.1446 L -12.7274,-14.0874 L -12.7377,-13.8925
 L -12.7378,-13.8418 L -12.7303,-13.6894 L -12.725,-13.6373 L -12.7026,-13.4927 L -12.6909,-13.4377 L -12.6535,-13.3008
 L -12.6347,-13.2448 L -12.5824,-13.1157 L -12.5564,-13.0611 L -12.4892,-12.9397 L -12.457,-12.889 L -12.3748,-12.7754
 L -12.3382,-12.7304 L -12.2412,-12.6245 L -12.1979,-12.5827 L -12.0771,-12.4791 L -12.0371,-12.4482 L -11.8837,-12.3416
 L -11.8524,-12.3215 L -11.6665,-12.2119 L -11.6417,-12.1982 L -11.4232,-12.0855 L -11.4034,-12.0758 L -11.1523,-11.96
 L -11.1362,-11.9529 L -10.8525,-11.834 L -10.8392,-11.8286 L -10.523,-11.7067 L -9.4045,-11.2835 L -8.98643,-11.1167
 L -8.6136,-10.9411 L -8.27686,-10.7535 L -7.97633,-10.555 L -7.71115,-10.3461 L -7.48027,-10.1274 L -7.28227,-9.8989
 L -7.11374,-9.65744 L -6.97076,-9.39793 L -6.85297,-9.11903 L -6.76031,-8.81921 L -6.69312,-8.49683 L -6.65216,-8.15108
 L -6.6384,-7.78374 L -6.66046,-7.27956 L -6.72519,-6.82365 L -6.83058,-6.4144 L -6.97469,-6.05008 L -7.1564,-5.72734
 L -7.37634,-5.44206 L -7.63657,-5.19081 L -7.94182,-4.97017 L -8.29628,-4.77933 L -8.70328,-4.61923 L -9.16383,-4.49196
 L -9.67915,-4.3992 L -10.2488,-4.34265 L -10.8755,-4.32347 z
M 12.326,-3.82657 L 12.5358,-3.83624 L 12.7427,-3.85237 L 12.9467,-3.87495 L 13.1478,-3.90399 L 13.3461,-3.93948
 L 13.5415,-3.98141 L 13.7342,-4.02982 L 13.9243,-4.08466 L 14.112,-4.14595 L 14.2971,-4.2137 L 14.4798,-4.2879
 L 14.6599,-4.36855 L 14.8374,-4.45566 L 14.8374,-7.35101 L 14.6468,-7.18152 L 14.4578,-7.0255 L 14.2704,-6.88297
 L 14.0846,-6.75391 L 13.9005,-6.63834 L 13.718,-6.53625 L 13.537,-6.44765 L 13.3562,-6.37167 L 13.1736,-6.30737
 L 12.9895,-6.25478 L 12.8038,-6.21387 L 12.6164,-6.18463 L 12.4274,-6.1671 L 12.2368,-6.16125 L 11.8431,-6.18439
 L 11.478,-6.25375 L 11.1414,-6.36937 L 10.8335,-6.53125 L 10.5542,-6.73936 L 10.3035,-6.99373 L 10.0814,-7.29434
 L 9.88844,-7.64034 L 9.72519,-8.03078 L 9.59161,-8.46565 L 9.48773,-8.94499 L 9.41351,-9.46877 L 9.369,-10.037
 L 9.35416,-10.6496 L 9.369,-11.2646 L 9.41351,-11.8348 L 9.48773,-12.3602 L 9.59161,-12.8408 L 9.72519,-13.2765
 L 9.88844,-13.6675 L 10.0814,-14.0136 L 10.3035,-14.3143 L 10.5542,-14.5687 L 10.8335,-14.7768 L 11.1414,-14.9387
 L 11.478,-15.0543 L 11.8431,-15.1237 L 12.2368,-15.1468 L 12.4274,-15.141 L 12.6164,-15.1235 L 12.8038,-15.0942
 L 12.9895,-15.0533 L 13.1736,-15.0007 L 13.3562,-14.9363 L 13.537,-14.8603 L 13.718,-14.7718 L 13.9005,-14.6697
 L 14.0846,-14.5542 L 14.2704,-14.4251 L 14.4578,-14.2826 L 14.6468,-14.1266 L 14.8374,-13.9571 L 14.8374,-16.8524
 L 14.6644,-16.9395 L 14.4877,-17.0202 L 14.3074,-17.0944 L 14.1235,-17.1622 L 13.9361,-17.2234 L 13.745,-17.2783
 L 13.5503,-17.3267 L 13.3526,-17.3686 L 13.1524,-17.4041 L 12.9496,-17.4332 L 12.7443,-17.4557 L 12.5365,-17.4719
 L 12.3262,-17.4815 L 12.1134,-17.4848 L 11.3785,-17.4489 L 10.695,-17.3415 L 10.063,-17.1624 L 9.48244,-16.9117
 L 8.95334,-16.5893 L 8.47568,-16.1953 L 8.04947,-15.7296 L 7.67761,-15.1962 L 7.36295,-14.5986 L 7.1055,-13.937
 L 6.90526,-13.2113 L 6.76224,-12.4215 L 6.67642,-11.5676 L 6.64781,-10.6496 L 6.67642,-9.73402 L 6.76224,-8.88211
 L 6.90526,-8.09393 L 7.1055,-7.36946 L 7.36295,-6.70869 L 7.67761,-6.11166 L 8.04947,-5.57834 L 8.47568,-5.11273
 L 8.95334,-4.71875 L 9.48244,-4.39639 L 10.063,-4.14569 L 10.695,-3.9666 L 11.3785,-3.85916 L 12.1134,-3.82333
 z
M 11.4296,-4.35727 L 10.8025,-4.45584 L 10.231,-4.61778 L 9.71269,-4.8416 L 9.244,-5.12714 L 8.82085,-5.47617
 L 8.44061,-5.89156 L 8.1055,-6.37218 L 7.81851,-6.91669 L 7.58067,-7.52713 L 7.39316,-8.20554 L 7.25775,-8.95181
 L 7.17564,-9.76692 L 7.14806,-10.6496 L 7.17564,-11.5347 L 7.25775,-12.3518 L 7.39325,-13.1 L 7.58073,-13.7795
 L 7.81859,-14.3908 L 8.10556,-14.9357 L 8.44069,-15.4165 L 8.82088,-15.8319 L 9.244,-16.1809 L 9.71274,-16.4665
 L 10.2309,-16.6903 L 10.8025,-16.8522 L 11.4296,-16.9508 L 12.1218,-16.9846 L 12.311,-16.9817 L 12.5054,-16.9728
 L 12.698,-16.9578 L 12.8866,-16.9371 L 13.0733,-16.9103 L 13.2568,-16.8778 L 13.4382,-16.8393 L 13.6156,-16.7952
 L 13.7894,-16.7454 L 13.9597,-16.6897 L 14.1256,-16.6285 L 14.2887,-16.5614 L 14.3374,-16.5392 L 14.3374,-14.9858
 L 14.1662,-15.0932 L 14.1445,-15.1061 L 13.962,-15.2082 L 13.9378,-15.2208 L 13.7569,-15.3094 L 13.7308,-15.3213
 L 13.5499,-15.3973 L 13.5223,-15.4079 L 13.3398,-15.4722 L 13.3111,-15.4814 L 13.1269,-15.534 L 13.0971,-15.5416
 L 12.9114,-15.5825 L 12.8809,-15.5882 L 12.6935,-15.6175 L 12.6626,-15.6213 L 12.4736,-15.6389 L 12.4427,-15.6408
 L 12.2521,-15.6466 L 12.2075,-15.646 L 11.8138,-15.6229 L 11.7497,-15.6149 L 11.3846,-15.5455 L 11.3155,-15.5272
 L 10.979,-15.4116 L 10.9088,-15.3813 L 10.6008,-15.2194 L 10.5348,-15.1777 L 10.2554,-14.9696 L 10.1981,-14.9196
 L 9.94737,-14.6652 L 9.90134,-14.6114 L 9.67921,-14.3107 L 9.64464,-14.2571 L 9.45171,-13.9109 L 9.42705,-13.8602
 L 9.26379,-13.4692 L 9.24715,-13.4231 L 9.11357,-12.9873 L 9.10291,-12.9464 L 8.99902,-12.4658 L 8.99265,-12.4301
 L 8.91843,-11.9048 L 8.91502,-11.8737 L 8.87051,-11.3035 L 8.86916,-11.2767 L 8.85431,-10.6617 L 8.85431,-10.6375
 L 8.86916,-10.0249 L 8.87053,-9.99792 L 8.91504,-9.42972 L 8.91846,-9.39862 L 8.99268,-8.87485 L 8.99907,-8.8391
 L 9.10295,-8.35976 L 9.11365,-8.31885 L 9.24722,-7.88397 L 9.26389,-7.83789 L 9.42714,-7.44745 L 9.45175,-7.39682
 L 9.64468,-7.05083 L 9.67924,-6.99721 L 9.90137,-6.69659 L 9.94739,-6.64275 L 10.1981,-6.38838 L 10.2555,-6.33842
 L 10.5348,-6.13031 L 10.6008,-6.08868 L 10.9088,-5.9268 L 10.979,-5.8965 L 11.3155,-5.78088 L 11.3846,-5.76254
 L 11.7497,-5.69318 L 11.8137,-5.68524 L 12.2074,-5.66211 L 12.2521,-5.66148 L 12.4427,-5.66733 L 12.4736,-5.66924
 L 12.6626,-5.68677 L 12.6935,-5.69061 L 12.8809,-5.71985 L 12.9113,-5.72557 L 13.0971,-5.76648 L 13.1268,-5.774
 L 13.311,-5.8266 L 13.3398,-5.83578 L 13.5223,-5.90009 L 13.5498,-5.91069 L 13.7307,-5.98666 L 13.757,-5.99861
 L 13.9379,-6.08722 L 13.962,-6.09987 L 14.1445,-6.20195 L 14.1663,-6.21483 L 14.3374,-6.32225 L 14.3374,-4.77202
 L 14.2835,-4.74786 L 14.1168,-4.68015 L 13.9487,-4.61861 L 13.7772,-4.56259 L 13.604,-4.51266 L 13.4279,-4.46841
 L 13.2497,-4.43018 L 13.0682,-4.39767 L 12.8834,-4.371 L 12.6958,-4.35023 L 12.5047,-4.33534 L 12.3107,-4.32639
 L 12.1218,-4.32352 z
M -20.4765,-3.85861 L -19.8904,-3.96445 L -19.3503,-4.14084 L -18.856,-4.38779 L -18.4075,-4.70528 L -18.005,-5.09334
 L -17.6483,-5.55194 L -17.3384,-6.07932 L -17.0762,-6.67365 L -16.8617,-7.33493 L -16.6948,-8.06317 L -16.5756,-8.85837
 L -16.5041,-9.72052 L -16.4803,-10.6496 L -16.5041,-11.5811 L -16.5756,-12.4452 L -16.6948,-13.2421 L -16.8617,-13.9716
 L -17.0762,-14.6337 L -17.3384,-15.2286 L -17.6483,-15.7561 L -18.005,-16.2148 L -18.4075,-16.6028 L -18.856,-16.9203
 L -19.3503,-17.1673 L -19.8904,-17.3437 L -20.4765,-17.4495 L -21.1084,-17.4848 L -21.738,-17.4495 L -22.3221,-17.3437
 L -22.8607,-17.1673 L -23.3538,-16.9203 L -23.8013,-16.6028 L -24.2033,-16.2148 L -24.5598,-15.7561 L -24.8697,-15.2286
 L -25.1319,-14.6337 L -25.3464,-13.9716 L -25.5133,-13.2421 L -25.6325,-12.4452 L -25.704,-11.5811 L -25.7278,-10.6496
 L -25.704,-9.72052 L -25.6325,-8.85837 L -25.5133,-8.06317 L -25.3464,-7.33493 L -25.1319,-6.67365 L -24.8697,-6.07932
 L -24.5598,-5.55194 L -24.2033,-5.09334 L -23.8013,-4.70528 L -23.3538,-4.38779 L -22.8607,-4.14084 L -22.3221,-3.96445
 L -21.738,-3.85861 L -21.1084,-3.82333 z
M -21.6793,-4.35611 L -22.1992,-4.45032 L -22.6698,-4.60446 L -23.0956,-4.81772 L -23.4812,-5.09125 L -23.8304,-5.42833
 L -24.1451,-5.83319 L -24.4239,-6.30768 L -24.6642,-6.85216 L -24.864,-7.46825 L -25.0217,-8.15617 L -25.1356,-8.91612
 L -25.2045,-9.7477 L -25.2277,-10.6497 L -25.2045,-11.5541 L -25.1356,-12.3876 L -25.0217,-13.1491 L -24.864,-13.8385
 L -24.6641,-14.4555 L -24.4239,-15.0003 L -24.1451,-15.475 L -23.8304,-15.8798 L -23.4812,-16.2168 L -23.0957,-16.4904
 L -22.6698,-16.7036 L -22.1992,-16.8578 L -21.6793,-16.952 L -21.1083,-16.984 L -20.5351,-16.952 L -20.013,-16.8577
 L -19.5406,-16.7034 L -19.1137,-16.4901 L -18.7274,-16.2166 L -18.3778,-15.8796 L -18.063,-15.4749 L -17.7842,-15.0003
 L -17.5441,-14.4555 L -17.3442,-13.8385 L -17.1865,-13.1491 L -17.0726,-12.3876 L -17.0036,-11.5541 L -16.9804,-10.6497
 L -17.0036,-9.74773 L -17.0726,-8.91611 L -17.1865,-8.15617 L -17.3441,-7.46825 L -17.544,-6.85216 L -17.7842,-6.30763
 L -18.063,-5.83319 L -18.3777,-5.42854 L -18.7273,-5.09154 L -19.1137,-4.81793 L -19.5406,-4.60466 L -20.0131,-4.45038
 L -20.535,-4.35612 L -21.1083,-4.32411 z
M -20.7933,-5.68448 L -20.7083,-5.69861 L -20.4546,-5.76366 L -20.3666,-5.79524 L -20.1353,-5.90367 L -20.1067,-5.91818
 L -20.0537,-5.95181 L -19.8447,-6.10359 L -19.7771,-6.16252 L -19.5904,-6.35767 L -19.54,-6.41956 L -19.3756,-6.65808
 L -19.3408,-6.71677 L -19.1987,-6.99866 L -19.176,-7.05089 L -19.0543,-7.38103 L -19.0406,-7.42419 L -18.9377,-7.80743
 L -18.9296,-7.84238 L -18.8454,-8.2787 L -18.8408,-8.30713 L -18.7753,-8.79654 L -18.7727,-8.81992 L -18.7259,-9.36243
 L -18.7246,-9.38184 L -18.6965,-9.97742 L -18.696,-9.99376 L -18.6867,-10.6424 L -18.6867,-10.6568 L -18.696,-11.3078
 L -18.6965,-11.3241 L -18.7246,-11.9217 L -18.7259,-11.941 L -18.7727,-12.4852 L -18.7752,-12.5085 L -18.8407,-12.9991
 L -18.8454,-13.0275 L -18.9296,-13.4648 L -18.9376,-13.4997 L -19.0406,-13.8835 L -19.0543,-13.9267 L -19.1759,-14.257
 L -19.1987,-14.3093 L -19.3408,-14.5912 L -19.3756,-14.6499 L -19.54,-14.8884 L -19.5904,-14.9503 L -19.7771,-15.1455
 L -19.8446,-15.2045 L -20.0537,-15.3562 L -20.0802,-15.3742 L -20.1352,-15.4044 L -20.3666,-15.5128 L -20.4546,-15.5444
 L -20.7083,-15.6095 L -20.7933,-15.6236 L -21.0692,-15.6453 L -21.1479,-15.6453 L -21.4216,-15.6236 L -21.5072,-15.6093
 L -21.7589,-15.5442 L -21.8472,-15.5123 L -22.077,-15.4038 L -22.1055,-15.3892 L -22.1585,-15.3554 L -22.3663,-15.2036
 L -22.4334,-15.1447 L -22.6193,-14.9495 L -22.6693,-14.8879 L -22.8332,-14.6493 L -22.8677,-14.591 L -23.0097,-14.3091
 L -23.0323,-14.257 L -23.1539,-13.9267 L -23.1677,-13.8834 L -23.2706,-13.4997 L -23.2786,-13.4647 L -23.3628,-13.0275
 L -23.3674,-12.9991 L -23.4329,-12.5085 L -23.4355,-12.4852 L -23.4823,-11.941 L -23.4835,-11.9217 L -23.5116,-11.3241
 L -23.5121,-11.3078 L -23.5215,-10.6568 L -23.5215,-10.6424 L -23.5121,-9.99376 L -23.5116,-9.97743 L -23.4835,-9.38185
 L -23.4822,-9.36243 L -23.4355,-8.81992 L -23.4329,-8.79657 L -23.3674,-8.30716 L -23.3628,-8.27872 L -23.2786,-7.84239
 L -23.2705,-7.80746 L -23.1676,-7.42422 L -23.1539,-7.38109 L -23.0323,-7.05095 L -23.0097,-6.99884 L -22.8677,-6.71695
 L -22.8332,-6.65868 L -22.6693,-6.42015 L -22.6193,-6.35849 L -22.4334,-6.16335 L -22.3663,-6.10442 L -22.1584,-5.95264
 L -22.1319,-5.93454 L -22.0769,-5.90424 L -21.8472,-5.79581 L -21.7589,-5.76389 L -21.5072,-5.69884 L -21.4216,-5.68449
 L -21.1479,-5.66281 L -21.0692,-5.6628 z
M -21.3821,-6.18294 L -21.6338,-6.24799 L -21.8635,-6.35641 L -22.0714,-6.50819 L -22.2572,-6.70334 L -22.4211,-6.94186
 L -22.5631,-7.22375 L -22.6847,-7.55389 L -22.7876,-7.93713 L -22.8718,-8.37346 L -22.9373,-8.86287 L -22.9841,-9.40538
 L -23.0121,-10.001 L -23.0215,-10.6496 L -23.0121,-11.3006 L -22.9841,-11.8982 L -22.9373,-12.4423 L -22.8718,-12.933
 L -22.7876,-13.3702 L -22.6847,-13.7539 L -22.5631,-14.0842 L -22.4211,-14.3661 L -22.2572,-14.6047 L -22.0714,-14.7999
 L -21.8635,-14.9517 L -21.6338,-15.0601 L -21.3821,-15.1252 L -21.1084,-15.1468 L -20.8325,-15.1252 L -20.5788,-15.0601
 L -20.3475,-14.9517 L -20.1384,-14.7999 L -19.9517,-14.6047 L -19.7873,-14.3661 L -19.6451,-14.0842 L -19.5235,-13.7539
 L -19.4206,-13.3702 L -19.3363,-12.933 L -19.2708,-12.4423 L -19.2241,-11.8982 L -19.196,-11.3006 L -19.1866,-10.6496
 L -19.196,-10.001 L -19.2241,-9.40538 L -19.2708,-8.86287 L -19.3363,-8.37346 L -19.4206,-7.93713 L -19.5235,-7.55389
 L -19.6451,-7.22375 L -19.7873,-6.94186 L -19.9517,-6.70334 L -20.1384,-6.50819 L -20.3475,-6.35641 L -20.5788,-6.24799
 L -20.8325,-6.18294 L -21.1084,-6.16125 z
M -1.49942,-9.93854 L 1.75356,-9.93854 L 1.75356,-4.08125 L 4.3542,-4.08125 L 4.3542,-17.2435 L 1.75356,-17.2435
 L 1.75356,-12.2265 L -1.49942,-12.2265 L -1.49942,-17.2435 L -4.10008,-17.2435 L -4.10008,-4.08125 L -1.49942,-4.08125
 z
M -3.60008,-4.58125 L -3.60008,-16.7435 L -1.99942,-16.7435 L -1.99942,-12.2265 L -1.99057,-12.1328 L -1.97495,-12.072
 L -1.95183,-12.0136 L -1.92159,-11.9586 L -1.88467,-11.9078 L -1.84169,-11.862 L -1.79332,-11.822 L -1.7403,-11.7884
 L -1.68349,-11.7616 L -1.62376,-11.7422 L -1.56209,-11.7305 L -1.49942,-11.7265 L 1.75356,-11.7265 L 1.84724,-11.7354
 L 1.90807,-11.751 L 1.96645,-11.7741 L 2.02147,-11.8044 L 2.07227,-11.8413 L 2.11804,-11.8842 L 2.15807,-11.9326
 L 2.19171,-11.9856 L 2.21844,-12.0424 L 2.23785,-12.1022 L 2.24962,-12.1638 L 2.25356,-12.2265 L 2.25356,-16.7435
 L 3.8542,-16.7435 L 3.8542,-4.58125 L 2.25356,-4.58125 L 2.25356,-9.93854 L 2.24471,-10.0322 L 2.22908,-10.093
 L 2.20596,-10.1514 L 2.17572,-10.2065 L 2.13881,-10.2572 L 2.09583,-10.303 L 2.04745,-10.343 L 1.99443,-10.3767
 L 1.93762,-10.4034 L 1.8779,-10.4228 L 1.81622,-10.4346 L 1.75356,-10.4385 L -1.49942,-10.4385 L -1.59311,-10.4297
 L -1.65393,-10.4141 L -1.71231,-10.3909 L -1.76733,-10.3607 L -1.81813,-10.3238 L -1.86391,-10.2808 L -1.90393,-10.2324
 L -1.93758,-10.1794 L -1.96431,-10.1226 L -1.98372,-10.0629 L -1.99548,-10.0012 L -1.99942,-9.93854 L -1.99942,-4.58125
 z
M 24.1395,-10.5542 L 18.5769,-10.5542 L 18.5769,-7.99165 L 24.1395,-7.99165 z
M 19.0769,-8.49165 L 19.0769,-10.0542 L 23.6395,-10.0542 L 23.6395,-8.49165 z
M -2.3105,6.38388 L -0.899994,12.1429 L 1.17168,12.1429 L 2.56462,6.38388 L 2.56462,16.9269 L 4.80374,16.9269
 L 4.80374,3.76465 L 1.68295,3.76465 L 0.122696,9.5412 L -1.44652,3.76465 L -4.54962,3.76465 L -4.54962,16.9269
 L -2.3105,16.9269 z
M -4.04962,16.4269 L -4.04962,4.26465 L -1.82881,4.26465 L -0.359818,9.67227 L -0.344452,9.71945 L -0.318436,9.7766
 L -0.285446,9.83002 L -0.246033,9.87889 L -0.200806,9.92245 L -0.150467,9.95999 L -0.0958252,9.99092 L -0.037735,10.0148
 L 0.0228882,10.0311 L 0.085083,10.0398 L 0.147858,10.0406 L 0.210251,10.0335 L 0.271255,10.0186 L 0.329926,9.99623
 L 0.385315,9.96667 L 0.436569,9.9304 L 0.48288,9.888 L 0.523499,9.84012 L 0.557816,9.78752 L 0.585251,9.73105
 L 0.605392,9.67159 L 2.06581,4.26465 L 4.30374,4.26465 L 4.30374,16.4269 L 3.06462,16.4269 L 3.06462,6.38388
 L 3.05975,6.31427 L 3.04712,6.25276 L 3.02689,6.19333 L 2.99936,6.13689 L 2.96497,6.08435 L 2.92427,6.03653
 L 2.8779,5.9942 L 2.8266,5.95801 L 2.77115,5.92853 L 2.71245,5.90623 L 2.65143,5.89148 L 2.58902,5.88448
 L 2.52623,5.88536 L 2.46405,5.8941 L 2.40346,5.91057 L 2.34541,5.93449 L 2.29082,5.96552 L 2.24054,6.00313
 L 2.19537,6.04675 L 2.15604,6.09569 L 2.12314,6.14917 L 2.0972,6.20634 L 2.07863,6.26633 L 0.778183,11.6429
 L -0.507675,11.6429 L -1.82486,6.26494 L -1.84561,6.19981 L -1.87234,6.14301 L -1.90599,6.08998 L -1.94601,6.04161
 L -1.99179,5.99863 L -2.04259,5.96172 L -2.09761,5.93147 L -2.15599,5.90836 L -2.21681,5.89273 L -2.2791,5.88487
 L -2.3419,5.88487 L -2.40419,5.89273 L -2.46501,5.90836 L -2.52339,5.93147 L -2.57841,5.96172 L -2.62921,5.99863
 L -2.67499,6.04161 L -2.71501,6.08998 L -2.74866,6.14301 L -2.77539,6.19981 L -2.7948,6.25954 L -2.80656,6.32121
 L -2.8105,6.38388 L -2.8105,16.4269 z
M -12.2384,13.6738 L -8.75618,13.6738 L -7.94524,16.9269 L -5.34459,16.9269 L -8.89723,3.76465 L -12.0798,3.76465
 L -15.6324,16.9269 L -13.0318,16.9269 z
M -14.9796,16.4269 L -11.6968,4.26465 L -9.28017,4.26465 L -5.99744,16.4269 L -7.55458,16.4269 L -8.27103,13.5528
 L -8.28065,13.5192 L -8.30377,13.4609 L -8.33401,13.4058 L -8.37093,13.355 L -8.41391,13.3093 L -8.46228,13.2692
 L -8.5153,13.2356 L -8.57211,13.2089 L -8.63184,13.1895 L -8.69351,13.1777 L -8.75618,13.1738 L -12.2384,13.1738
 L -12.2758,13.1752 L -12.338,13.1838 L -12.3986,13.2001 L -12.4567,13.224 L -12.5114,13.2549 L -12.5617,13.2924
 L -12.607,13.3359 L -12.6464,13.3848 L -12.6794,13.4382 L -12.7054,13.4953 L -12.7241,13.5553 L -13.4245,16.4269
 z
M -9.17798,12.0289 L -9.11678,12.0149 L -9.0578,11.9933 L -9.002,11.9646 L -8.95026,11.929 L -8.90337,11.8872
 L -8.86209,11.8399 L -8.82707,11.7878 L -8.79886,11.7317 L -8.77789,11.6725 L -8.76451,11.6112 L -8.75893,11.5486
 L -8.76123,11.4859 L -8.77138,11.4239 L -10.0055,6.03464 L -10.0333,5.94934 L -10.0616,5.8933 L -10.0967,5.84123
 L -10.138,5.79398 L -10.185,5.75229 L -10.2368,5.7168 L -10.2926,5.6881 L -10.3516,5.66661 L -10.4128,5.65268
 L -10.4753,5.64655 L -10.5381,5.64828 L -10.6001,5.65788 L -10.6605,5.67519 L -10.7182,5.69991 L -10.7724,5.73167
 L -10.8221,5.76997 L -10.8667,5.81421 L -10.9054,5.86369 L -10.9375,5.91762 L -10.9627,5.97514 L -10.9804,6.03539
 L -12.2058,11.4247 L -12.2172,11.5041 L -12.2172,11.5669 L -12.2094,11.6292 L -12.1938,11.69 L -12.1706,11.7484
 L -12.1404,11.8034 L -12.1035,11.8542 L -12.0605,11.9 L -12.0121,11.94 L -11.9591,11.9737 L -11.9023,12.0004
 L -11.8426,12.0198 L -11.7809,12.0316 L -11.7182,12.0355 L -9.25876,12.0355 z
M -11.7182,11.5355 L -10.4929,6.14624 L -9.25876,11.5355 z
M 9.33647,12.0014 L 10.3063,12.0014 L 11.0533,11.9816 L 11.738,11.9222 L 12.3602,11.8233 L 12.92,11.6847
 L 13.4173,11.5065 L 13.8522,11.2887 L 14.2247,11.0314 L 14.5417,10.7296 L 14.8098,10.3784 L 15.0292,9.97798
 L 15.1999,9.52823 L 15.3218,9.02914 L 15.3949,8.48074 L 15.4193,7.88304 L 15.3949,7.28534 L 15.3218,6.73694
 L 15.1999,6.23787 L 15.0292,5.7881 L 14.8098,5.38765 L 14.5417,5.03651 L 14.2247,4.7347 L 13.8522,4.47734
 L 13.4173,4.25957 L 12.92,4.08139 L 12.3602,3.94281 L 11.738,3.84383 L 11.0533,3.78444 L 10.3063,3.76465
 L 6.73596,3.76465 L 6.73596,16.9269 L 9.33647,16.9269 z
M 7.23596,16.4269 L 7.23596,4.26465 L 10.2994,4.26465 L 11.0253,4.28387 L 11.677,4.34041 L 12.2606,4.43326
 L 12.7752,4.56065 L 13.2204,4.72014 L 13.5969,4.90866 L 13.9083,5.12381 L 14.1682,5.37134 L 14.3895,5.66112
 L 14.5741,5.99788 L 14.7215,6.38647 L 14.8297,6.82959 L 14.8963,7.32857 L 14.9189,7.88304 L 14.8963,8.43752
 L 14.8297,8.93649 L 14.7215,9.37959 L 14.574,9.76823 L 14.3895,10.105 L 14.1683,10.3947 L 13.9083,10.6423
 L 13.5969,10.8574 L 13.2204,11.0459 L 12.7752,11.2054 L 12.2606,11.3328 L 11.677,11.4257 L 11.0251,11.4822
 L 10.2999,11.5014 L 9.33647,11.5014 L 9.24278,11.5103 L 9.18196,11.5259 L 9.12358,11.549 L 9.06856,11.5793
 L 9.01776,11.6162 L 8.97198,11.6592 L 8.93196,11.7075 L 8.89832,11.7606 L 8.87158,11.8174 L 8.85217,11.8771
 L 8.84041,11.9388 L 8.83647,12.0014 L 8.83647,16.4269 z
M 10.4158,10.3131 L 10.7655,10.3043 L 10.7943,10.3028 L 11.1128,10.2763 L 11.1472,10.2723 L 11.4346,10.2282
 L 11.4759,10.2201 L 11.7322,10.1584 L 11.7813,10.1439 L 12.0065,10.0645 L 12.0638,10.0402 L 12.2578,9.94328
 L 12.322,9.90497 L 12.4849,9.79039 L 12.5502,9.73561 L 12.687,9.59927 L 12.7411,9.53551 L 12.8569,9.37326
 L 12.8964,9.30768 L 12.9912,9.11952 L 13.0173,9.0574 L 13.091,8.84335 L 13.1066,8.78775 L 13.1593,8.54779
 L 13.1674,8.49963 L 13.1989,8.23376 L 13.2021,8.19284 L 13.2126,7.90108 L 13.2126,7.86501 L 13.2021,7.57324
 L 13.1989,7.53232 L 13.1674,7.26645 L 13.1593,7.21829 L 13.1066,6.97833 L 13.091,6.92273 L 13.0173,6.70868
 L 12.9912,6.64656 L 12.8964,6.4584 L 12.8569,6.39282 L 12.7411,6.23058 L 12.687,6.16681 L 12.5502,6.03047
 L 12.4849,5.97569 L 12.322,5.86111 L 12.2578,5.8228 L 12.0638,5.72586 L 12.0065,5.70155 L 11.7813,5.62222
 L 11.7322,5.6077 L 11.4759,5.54601 L 11.4346,5.53789 L 11.1472,5.49382 L 11.1128,5.48976 L 10.7943,5.46332
 L 10.7655,5.46176 L 10.4158,5.45296 L 10.4033,5.4528 L 9.33647,5.4528 L 9.24278,5.46165 L 9.18196,5.47728
 L 9.12358,5.5004 L 9.06856,5.53064 L 9.01776,5.56755 L 8.97198,5.61053 L 8.93196,5.65891 L 8.89832,5.71193
 L 8.87158,5.76874 L 8.85217,5.82846 L 8.84041,5.89014 L 8.83647,5.9528 L 8.83647,9.81328 L 8.84532,9.90697
 L 8.86095,9.96779 L 8.88406,10.0262 L 8.91431,10.0812 L 8.95122,10.132 L 8.9942,10.1778 L 9.04257,10.2178
 L 9.0956,10.2514 L 9.1524,10.2782 L 9.21213,10.2976 L 9.2738,10.3093 L 9.33647,10.3133 L 10.4033,10.3133
 z
M 9.33647,9.81328 L 9.33647,5.9528 L 10.4033,5.9528 L 10.7529,5.96161 L 11.0715,5.98805 L 11.3589,6.03212
 L 11.6152,6.09381 L 11.8403,6.17314 L 12.0343,6.27008 L 12.1973,6.38466 L 12.3341,6.521 L 12.4498,6.68324
 L 12.5446,6.8714 L 12.6182,7.08545 L 12.6709,7.32541 L 12.7024,7.59128 L 12.713,7.88304 L 12.7024,8.1748
 L 12.6709,8.44067 L 12.6182,8.68063 L 12.5446,8.89468 L 12.4498,9.08284 L 12.3341,9.24509 L 12.1973,9.38142
 L 12.0343,9.496 L 11.8403,9.59294 L 11.6152,9.67227 L 11.3589,9.73396 L 11.0715,9.77803 L 10.7529,9.80447
 L 10.4033,9.81328 z
" stroke="black" fill="lightgray" stroke-width="0.5"/>
</svg>
