  0
SECTION
  2
BLOCKS
  0
ENDSEC
  0
SECTION
  2
ENTITIES
  0
LINE
  8
0
 10
-10.2164
 20
3.8434
 11
-9.61006
 21
3.90359
  0
LINE
  8
0
 10
-9.61006
 20
3.90359
 11
-9.0528
 21
4.00391
  0
LINE
  8
0
 10
-9.0528
 20
4.00391
 11
-8.54465
 21
4.14433
  0
LINE
  8
0
 10
-8.54465
 20
4.14433
 11
-8.0856
 21
4.32491
  0
LINE
  8
0
 10
-8.0856
 20
4.32491
 11
-7.67569
 21
4.54559
  0
LINE
  8
0
 10
-7.67569
 20
4.54559
 11
-7.31487
 21
4.8064
  0
LINE
  8
0
 10
-7.31487
 20
4.8064
 11
-7.00264
 21
5.10788
  0
LINE
  8
0
 10
-7.00264
 20
5.10788
 11
-6.73843
 21
5.45056
  0
LINE
  8
0
 10
-6.73843
 20
5.45056
 11
-6.52228
 21
5.83446
  0
LINE
  8
0
 10
-6.52228
 20
5.83446
 11
-6.35414
 21
6.25955
  0
LINE
  8
0
 10
-6.35414
 20
6.25955
 11
-6.23405
 21
6.72586
  0
LINE
  8
0
 10
-6.23405
 20
6.72586
 11
-6.162
 21
7.23338
  0
LINE
  8
0
 10
-6.162
 20
7.23338
 11
-6.13799
 21
7.7821
  0
LINE
  8
0
 10
-6.13799
 20
7.7821
 11
-6.15327
 21
8.19
  0
LINE
  8
0
 10
-6.15327
 20
8.19
 11
-6.19916
 21
8.57738
  0
LINE
  8
0
 10
-6.19916
 20
8.57738
 11
-6.27562
 21
8.94424
  0
LINE
  8
0
 10
-6.27562
 20
8.94424
 11
-6.38266
 21
9.2906
  0
LINE
  8
0
 10
-6.38266
 20
9.2906
 11
-6.52029
 21
9.61646
  0
LINE
  8
0
 10
-6.52029
 20
9.61646
 11
-6.68851
 21
9.92178
  0
LINE
  8
0
 10
-6.68851
 20
9.92178
 11
-6.8873
 21
10.2066
  0
LINE
  8
0
 10
-6.8873
 20
10.2066
 11
-7.11848
 21
10.4734
  0
LINE
  8
0
 10
-7.11848
 20
10.4734
 11
-7.38385
 21
10.7248
  0
LINE
  8
0
 10
-7.38385
 20
10.7248
 11
-7.6834
 21
10.9607
  0
LINE
  8
0
 10
-7.6834
 20
10.9607
 11
-8.01712
 21
11.1812
  0
LINE
  8
0
 10
-8.01712
 20
11.1812
 11
-8.38504
 21
11.3861
  0
LINE
  8
0
 10
-8.38504
 20
11.3861
 11
-8.78712
 21
11.5756
  0
LINE
  8
0
 10
-8.78712
 20
11.5756
 11
-9.2234
 21
11.7496
  0
LINE
  8
0
 10
-9.2234
 20
11.7496
 11
-10.3431
 21
12.1732
  0
LINE
  8
0
 10
-10.3431
 20
12.1732
 11
-10.6593
 21
12.2952
  0
LINE
  8
0
 10
-10.6593
 20
12.2952
 11
-10.9429
 21
12.414
  0
LINE
  8
0
 10
-10.9429
 20
12.414
 11
-11.194
 21
12.5298
  0
LINE
  8
0
 10
-11.194
 20
12.5298
 11
-11.4124
 21
12.6425
  0
LINE
  8
0
 10
-11.4124
 20
12.6425
 11
-11.5984
 21
12.7522
  0
LINE
  8
0
 10
-11.5984
 20
12.7522
 11
-11.7517
 21
12.8588
  0
LINE
  8
0
 10
-11.7517
 20
12.8588
 11
-11.8725
 21
12.9623
  0
LINE
  8
0
 10
-11.8725
 20
12.9623
 11
-11.9696
 21
13.0682
  0
LINE
  8
0
 10
-11.9696
 20
13.0682
 11
-12.0517
 21
13.1819
  0
LINE
  8
0
 10
-12.0517
 20
13.1819
 11
-12.1189
 21
13.3033
  0
LINE
  8
0
 10
-12.1189
 20
13.3033
 11
-12.1712
 21
13.4324
  0
LINE
  8
0
 10
-12.1712
 20
13.4324
 11
-12.2085
 21
13.5692
  0
LINE
  8
0
 10
-12.2085
 20
13.5692
 11
-12.2309
 21
13.7139
  0
LINE
  8
0
 10
-12.2309
 20
13.7139
 11
-12.2384
 21
13.8662
  0
LINE
  8
0
 10
-12.2384
 20
13.8662
 11
-12.2281
 21
14.0611
  0
LINE
  8
0
 10
-12.2281
 20
14.0611
 11
-12.1973
 21
14.2426
  0
LINE
  8
0
 10
-12.1973
 20
14.2426
 11
-12.1461
 21
14.4109
  0
LINE
  8
0
 10
-12.1461
 20
14.4109
 11
-12.0743
 21
14.5658
  0
LINE
  8
0
 10
-12.0743
 20
14.5658
 11
-11.982
 21
14.7074
  0
LINE
  8
0
 10
-11.982
 20
14.7074
 11
-11.8692
 21
14.8357
  0
LINE
  8
0
 10
-11.8692
 20
14.8357
 11
-11.7359
 21
14.9507
  0
LINE
  8
0
 10
-11.7359
 20
14.9507
 11
-11.5833
 21
15.0513
  0
LINE
  8
0
 10
-11.5833
 20
15.0513
 11
-11.4128
 21
15.1364
  0
LINE
  8
0
 10
-11.4128
 20
15.1364
 11
-11.2242
 21
15.2061
  0
LINE
  8
0
 10
-11.2242
 20
15.2061
 11
-11.0176
 21
15.2602
  0
LINE
  8
0
 10
-11.0176
 20
15.2602
 11
-10.7931
 21
15.2989
  0
LINE
  8
0
 10
-10.7931
 20
15.2989
 11
-10.5506
 21
15.3221
  0
LINE
  8
0
 10
-10.5506
 20
15.3221
 11
-10.2901
 21
15.3299
  0
LINE
  8
0
 10
-10.2901
 20
15.3299
 11
-10.0479
 21
15.3236
  0
LINE
  8
0
 10
-10.0479
 20
15.3236
 11
-9.80502
 21
15.3047
  0
LINE
  8
0
 10
-9.80502
 20
15.3047
 11
-9.56143
 21
15.2733
  0
LINE
  8
0
 10
-9.56143
 20
15.2733
 11
-9.31712
 21
15.2292
  0
LINE
  8
0
 10
-9.31712
 20
15.2292
 11
-9.0721
 21
15.1726
  0
LINE
  8
0
 10
-9.0721
 20
15.1726
 11
-8.82635
 21
15.1034
  0
LINE
  8
0
 10
-8.82635
 20
15.1034
 11
-8.5799
 21
15.0217
  0
LINE
  8
0
 10
-8.5799
 20
15.0217
 11
-8.33359
 21
14.9278
  0
LINE
  8
0
 10
-8.33359
 20
14.9278
 11
-8.08836
 21
14.8225
  0
LINE
  8
0
 10
-8.08836
 20
14.8225
 11
-7.84422
 21
14.7057
  0
LINE
  8
0
 10
-7.84422
 20
14.7057
 11
-7.60115
 21
14.5774
  0
LINE
  8
0
 10
-7.60115
 20
14.5774
 11
-7.35918
 21
14.4376
  0
LINE
  8
0
 10
-7.35918
 20
14.4376
 11
-7.11827
 21
14.2863
  0
LINE
  8
0
 10
-7.11827
 20
14.2863
 11
-6.87846
 21
14.1235
  0
LINE
  8
0
 10
-6.87846
 20
14.1235
 11
-6.87846
 21
16.6611
  0
LINE
  8
0
 10
-6.87846
 20
16.6611
 11
-7.13321
 21
16.7734
  0
LINE
  8
0
 10
-7.13321
 20
16.7734
 11
-7.38869
 21
16.8776
  0
LINE
  8
0
 10
-7.38869
 20
16.8776
 11
-7.64488
 21
16.9737
  0
LINE
  8
0
 10
-7.64488
 20
16.9737
 11
-7.90179
 21
17.0616
  0
LINE
  8
0
 10
-7.90179
 20
17.0616
 11
-8.15944
 21
17.1414
  0
LINE
  8
0
 10
-8.15944
 20
17.1414
 11
-8.4178
 21
17.2131
  0
LINE
  8
0
 10
-8.4178
 20
17.2131
 11
-8.67688
 21
17.2766
  0
LINE
  8
0
 10
-8.67688
 20
17.2766
 11
-8.93629
 21
17.3318
  0
LINE
  8
0
 10
-8.93629
 20
17.3318
 11
-9.19571
 21
17.3786
  0
LINE
  8
0
 10
-9.19571
 20
17.3786
 11
-9.45512
 21
17.4168
  0
LINE
  8
0
 10
-9.45512
 20
17.4168
 11
-9.71455
 21
17.4465
  0
LINE
  8
0
 10
-9.71455
 20
17.4465
 11
-9.97398
 21
17.4678
  0
LINE
  8
0
 10
-9.97398
 20
17.4678
 11
-10.2334
 21
17.4805
  0
LINE
  8
0
 10
-10.2334
 20
17.4805
 11
-10.4929
 21
17.4848
  0
LINE
  8
0
 10
-10.4929
 20
17.4848
 11
-11.0472
 21
17.4639
  0
LINE
  8
0
 10
-11.0472
 20
17.4639
 11
-11.5666
 21
17.4012
  0
LINE
  8
0
 10
-11.5666
 20
17.4012
 11
-12.0511
 21
17.2968
  0
LINE
  8
0
 10
-12.0511
 20
17.2968
 11
-12.5007
 21
17.1505
  0
LINE
  8
0
 10
-12.5007
 20
17.1505
 11
-12.9154
 21
16.9625
  0
LINE
  8
0
 10
-12.9154
 20
16.9625
 11
-13.2952
 21
16.7327
  0
LINE
  8
0
 10
-13.2952
 20
16.7327
 11
-13.6402
 21
16.4611
  0
LINE
  8
0
 10
-13.6402
 20
16.4611
 11
-13.9442
 21
16.153
  0
LINE
  8
0
 10
-13.9442
 20
16.153
 11
-14.2014
 21
15.8136
  0
LINE
  8
0
 10
-14.2014
 20
15.8136
 11
-14.4119
 21
15.4428
  0
LINE
  8
0
 10
-14.4119
 20
15.4428
 11
-14.5756
 21
15.0407
  0
LINE
  8
0
 10
-14.5756
 20
15.0407
 11
-14.6926
 21
14.6073
  0
LINE
  8
0
 10
-14.6926
 20
14.6073
 11
-14.7627
 21
14.1425
  0
LINE
  8
0
 10
-14.7627
 20
14.1425
 11
-14.7861
 21
13.6464
  0
LINE
  8
0
 10
-14.7861
 20
13.6464
 11
-14.7719
 21
13.2597
  0
LINE
  8
0
 10
-14.7719
 20
13.2597
 11
-14.7292
 21
12.8962
  0
LINE
  8
0
 10
-14.7292
 20
12.8962
 11
-14.6582
 21
12.5559
  0
LINE
  8
0
 10
-14.6582
 20
12.5559
 11
-14.5587
 21
12.2389
  0
LINE
  8
0
 10
-14.5587
 20
12.2389
 11
-14.4308
 21
11.9451
  0
LINE
  8
0
 10
-14.4308
 20
11.9451
 11
-14.2745
 21
11.6745
  0
LINE
  8
0
 10
-14.2745
 20
11.6745
 11
-14.0897
 21
11.4272
  0
LINE
  8
0
 10
-14.0897
 20
11.4272
 11
-13.8648
 21
11.193
  0
LINE
  8
0
 10
-13.8648
 20
11.193
 11
-13.5881
 21
10.9619
  0
LINE
  8
0
 10
-13.5881
 20
10.9619
 11
-13.2596
 21
10.7338
  0
LINE
  8
0
 10
-13.2596
 20
10.7338
 11
-12.8793
 21
10.5088
  0
LINE
  8
0
 10
-12.8793
 20
10.5088
 11
-12.4471
 21
10.2869
  0
LINE
  8
0
 10
-12.4471
 20
10.2869
 11
-11.9632
 21
10.068
  0
LINE
  8
0
 10
-11.9632
 20
10.068
 11
-11.4274
 21
9.85222
  0
LINE
  8
0
 10
-11.4274
 20
9.85222
 11
-10.1491
 21
9.36693
  0
LINE
  8
0
 10
-10.1491
 20
9.36693
 11
-9.96417
 21
9.29015
  0
LINE
  8
0
 10
-9.96417
 20
9.29015
 11
-9.79218
 21
9.20564
  0
LINE
  8
0
 10
-9.79218
 20
9.20564
 11
-9.63313
 21
9.1134
  0
LINE
  8
0
 10
-9.63313
 20
9.1134
 11
-9.48706
 21
9.01343
  0
LINE
  8
0
 10
-9.48706
 20
9.01343
 11
-9.35393
 21
8.90573
  0
LINE
  8
0
 10
-9.35393
 20
8.90573
 11
-9.23376
 21
8.7903
  0
LINE
  8
0
 10
-9.23376
 20
8.7903
 11
-9.12656
 21
8.66714
  0
LINE
  8
0
 10
-9.12656
 20
8.66714
 11
-9.03297
 21
8.53719
  0
LINE
  8
0
 10
-9.03297
 20
8.53719
 11
-8.95381
 21
8.40131
  0
LINE
  8
0
 10
-8.95381
 20
8.40131
 11
-8.88902
 21
8.25949
  0
LINE
  8
0
 10
-8.88902
 20
8.25949
 11
-8.83864
 21
8.11176
  0
LINE
  8
0
 10
-8.83864
 20
8.11176
 11
-8.80266
 21
7.9581
  0
LINE
  8
0
 10
-8.80266
 20
7.9581
 11
-8.78107
 21
7.79851
  0
LINE
  8
0
 10
-8.78107
 20
7.79851
 11
-8.77386
 21
7.63298
  0
LINE
  8
0
 10
-8.77386
 20
7.63298
 11
-8.78465
 21
7.41626
  0
LINE
  8
0
 10
-8.78465
 20
7.41626
 11
-8.81705
 21
7.21371
  0
LINE
  8
0
 10
-8.81705
 20
7.21371
 11
-8.87102
 21
7.02536
  0
LINE
  8
0
 10
-8.87102
 20
7.02536
 11
-8.94659
 21
6.85121
  0
LINE
  8
0
 10
-8.94659
 20
6.85121
 11
-9.04375
 21
6.69122
  0
LINE
  8
0
 10
-9.04375
 20
6.69122
 11
-9.16249
 21
6.54544
  0
LINE
  8
0
 10
-9.16249
 20
6.54544
 11
-9.30283
 21
6.41385
  0
LINE
  8
0
 10
-9.30283
 20
6.41385
 11
-9.46275
 21
6.29828
  0
LINE
  8
0
 10
-9.46275
 20
6.29828
 11
-9.6403
 21
6.20049
  0
LINE
  8
0
 10
-9.6403
 20
6.20049
 11
-9.83549
 21
6.12047
  0
LINE
  8
0
 10
-9.83549
 20
6.12047
 11
-10.0483
 21
6.05823
  0
LINE
  8
0
 10
-10.0483
 20
6.05823
 11
-10.2788
 21
6.01378
  0
LINE
  8
0
 10
-10.2788
 20
6.01378
 11
-10.5269
 21
5.98711
  0
LINE
  8
0
 10
-10.5269
 20
5.98711
 11
-10.7926
 21
5.97821
  0
LINE
  8
0
 10
-10.7926
 20
5.97821
 11
-11.0651
 21
5.98555
  0
LINE
  8
0
 10
-11.0651
 20
5.98555
 11
-11.3385
 21
6.00757
  0
LINE
  8
0
 10
-11.3385
 20
6.00757
 11
-11.6128
 21
6.04427
  0
LINE
  8
0
 10
-11.6128
 20
6.04427
 11
-11.8879
 21
6.09563
  0
LINE
  8
0
 10
-11.8879
 20
6.09563
 11
-12.164
 21
6.16168
  0
LINE
  8
0
 10
-12.164
 20
6.16168
 11
-12.441
 21
6.2424
  0
LINE
  8
0
 10
-12.441
 20
6.2424
 11
-12.7188
 21
6.3378
  0
LINE
  8
0
 10
-12.7188
 20
6.3378
 11
-12.9985
 21
6.44827
  0
LINE
  8
0
 10
-12.9985
 20
6.44827
 11
-13.2809
 21
6.57413
  0
LINE
  8
0
 10
-13.2809
 20
6.57413
 11
-13.5659
 21
6.71536
  0
LINE
  8
0
 10
-13.5659
 20
6.71536
 11
-13.8537
 21
6.87199
  0
LINE
  8
0
 10
-13.8537
 20
6.87199
 11
-14.1442
 21
7.04402
  0
LINE
  8
0
 10
-14.1442
 20
7.04402
 11
-14.4373
 21
7.23143
  0
LINE
  8
0
 10
-14.4373
 20
7.23143
 11
-14.7332
 21
7.43422
  0
LINE
  8
0
 10
-14.7332
 20
7.43422
 11
-14.7332
 21
4.74686
  0
LINE
  8
0
 10
-14.7332
 20
4.74686
 11
-14.4699
 21
4.62076
  0
LINE
  8
0
 10
-14.4699
 20
4.62076
 11
-14.2039
 21
4.50383
  0
LINE
  8
0
 10
-14.2039
 20
4.50383
 11
-13.9352
 21
4.39604
  0
LINE
  8
0
 10
-13.9352
 20
4.39604
 11
-13.6639
 21
4.29741
  0
LINE
  8
0
 10
-13.6639
 20
4.29741
 11
-13.3898
 21
4.20793
  0
LINE
  8
0
 10
-13.3898
 20
4.20793
 11
-13.113
 21
4.12759
  0
LINE
  8
0
 10
-13.113
 20
4.12759
 11
-12.8335
 21
4.05643
  0
LINE
  8
0
 10
-12.8335
 20
4.05643
 11
-12.5527
 21
3.99458
  0
LINE
  8
0
 10
-12.5527
 20
3.99458
 11
-12.2721
 21
3.94226
  0
LINE
  8
0
 10
-12.2721
 20
3.94226
 11
-11.9917
 21
3.89944
  0
LINE
  8
0
 10
-11.9917
 20
3.89944
 11
-11.7115
 21
3.86615
  0
LINE
  8
0
 10
-11.7115
 20
3.86615
 11
-11.4315
 21
3.84236
  0
LINE
  8
0
 10
-11.4315
 20
3.84236
 11
-11.1516
 21
3.82809
  0
LINE
  8
0
 10
-11.1516
 20
3.82809
 11
-10.8719
 21
3.82333
  0
LINE
  8
0
 10
-10.8719
 20
3.82333
 11
-10.2164
 21
3.8434
  0
LINE
  8
0
 10
-11.1343
 20
4.32787
 11
-11.3979
 21
4.34131
  0
LINE
  8
0
 10
-11.3979
 20
4.34131
 11
-11.6607
 21
4.36363
  0
LINE
  8
0
 10
-11.6607
 20
4.36363
 11
-11.9242
 21
4.39494
  0
LINE
  8
0
 10
-11.9242
 20
4.39494
 11
-12.1886
 21
4.4353
  0
LINE
  8
0
 10
-12.1886
 20
4.4353
 11
-12.4532
 21
4.48463
  0
LINE
  8
0
 10
-12.4532
 20
4.48463
 11
-12.7179
 21
4.54295
  0
LINE
  8
0
 10
-12.7179
 20
4.54295
 11
-12.9818
 21
4.61015
  0
LINE
  8
0
 10
-12.9818
 20
4.61015
 11
-13.2424
 21
4.68581
  0
LINE
  8
0
 10
-13.2424
 20
4.68581
 11
-13.5008
 21
4.77014
  0
LINE
  8
0
 10
-13.5008
 20
4.77014
 11
-13.7568
 21
4.86317
  0
LINE
  8
0
 10
-13.7568
 20
4.86317
 11
-14.0103
 21
4.96487
  0
LINE
  8
0
 10
-14.0103
 20
4.96487
 11
-14.2332
 21
5.06287
  0
LINE
  8
0
 10
-14.2332
 20
5.06287
 11
-14.2332
 21
6.51564
  0
LINE
  8
0
 10
-14.2332
 20
6.51564
 11
-14.1085
 21
6.44179
  0
LINE
  8
0
 10
-14.1085
 20
6.44179
 11
-14.0927
 21
6.43283
  0
LINE
  8
0
 10
-14.0927
 20
6.43283
 11
-13.805
 21
6.2762
  0
LINE
  8
0
 10
-13.805
 20
6.2762
 11
-13.7879
 21
6.26733
  0
LINE
  8
0
 10
-13.7879
 20
6.26733
 11
-13.5028
 21
6.1261
  0
LINE
  8
0
 10
-13.5028
 20
6.1261
 11
-13.4844
 21
6.11743
  0
LINE
  8
0
 10
-13.4844
 20
6.11743
 11
-13.2021
 21
5.99158
  0
LINE
  8
0
 10
-13.2021
 20
5.99158
 11
-13.1822
 21
5.98325
  0
LINE
  8
0
 10
-13.1822
 20
5.98325
 11
-12.9025
 21
5.87277
  0
LINE
  8
0
 10
-12.9025
 20
5.87277
 11
-12.8812
 21
5.8649
  0
LINE
  8
0
 10
-12.8812
 20
5.8649
 11
-12.6033
 21
5.7695
  0
LINE
  8
0
 10
-12.6033
 20
5.7695
 11
-12.5809
 21
5.76237
  0
LINE
  8
0
 10
-12.5809
 20
5.76237
 11
-12.3039
 21
5.68166
  0
LINE
  8
0
 10
-12.3039
 20
5.68166
 11
-12.2804
 21
5.6754
  0
LINE
  8
0
 10
-12.2804
 20
5.6754
 11
-12.0043
 21
5.60934
  0
LINE
  8
0
 10
-12.0043
 20
5.60934
 11
-11.9797
 21
5.60411
  0
LINE
  8
0
 10
-11.9797
 20
5.60411
 11
-11.7045
 21
5.55275
  0
LINE
  8
0
 10
-11.7045
 20
5.55275
 11
-11.6791
 21
5.54868
  0
LINE
  8
0
 10
-11.6791
 20
5.54868
 11
-11.4048
 21
5.51198
  0
LINE
  8
0
 10
-11.4048
 20
5.51198
 11
-11.3786
 21
5.50919
  0
LINE
  8
0
 10
-11.3786
 20
5.50919
 11
-11.1053
 21
5.48717
  0
LINE
  8
0
 10
-11.1053
 20
5.48717
 11
-11.0786
 21
5.48573
  0
LINE
  8
0
 10
-11.0786
 20
5.48573
 11
-10.8061
 21
5.47839
  0
LINE
  8
0
 10
-10.8061
 20
5.47839
 11
-10.7759
 21
5.47849
  0
LINE
  8
0
 10
-10.7759
 20
5.47849
 11
-10.5102
 21
5.48738
  0
LINE
  8
0
 10
-10.5102
 20
5.48738
 11
-10.4734
 21
5.48997
  0
LINE
  8
0
 10
-10.4734
 20
5.48997
 11
-10.2253
 21
5.51665
  0
LINE
  8
0
 10
-10.2253
 20
5.51665
 11
-10.1841
 21
5.52283
  0
LINE
  8
0
 10
-10.1841
 20
5.52283
 11
-9.95364
 21
5.56728
  0
LINE
  8
0
 10
-9.95364
 20
5.56728
 11
-9.90797
 21
5.57832
  0
LINE
  8
0
 10
-9.90797
 20
5.57832
 11
-9.69514
 21
5.64056
  0
LINE
  8
0
 10
-9.69514
 20
5.64056
 11
-9.64584
 21
5.65784
  0
LINE
  8
0
 10
-9.64584
 20
5.65784
 11
-9.45065
 21
5.73785
  0
LINE
  8
0
 10
-9.45065
 20
5.73785
 11
-9.39908
 21
5.76253
  0
LINE
  8
0
 10
-9.39908
 20
5.76253
 11
-9.22153
 21
5.86032
  0
LINE
  8
0
 10
-9.22153
 20
5.86032
 11
-9.16989
 21
5.89302
  0
LINE
  8
0
 10
-9.16989
 20
5.89302
 11
-9.00996
 21
6.00859
  0
LINE
  8
0
 10
-9.00996
 20
6.00859
 11
-8.96082
 21
6.04912
  0
LINE
  8
0
 10
-8.96082
 20
6.04912
 11
-8.82048
 21
6.18071
  0
LINE
  8
0
 10
-8.82048
 20
6.18071
 11
-8.77483
 21
6.22968
  0
LINE
  8
0
 10
-8.77483
 20
6.22968
 11
-8.65608
 21
6.37546
  0
LINE
  8
0
 10
-8.65608
 20
6.37546
 11
-8.61638
 21
6.4317
  0
LINE
  8
0
 10
-8.61638
 20
6.4317
 11
-8.51923
 21
6.59169
  0
LINE
  8
0
 10
-8.51923
 20
6.59169
 11
-8.48793
 21
6.65216
  0
LINE
  8
0
 10
-8.48793
 20
6.65216
 11
-8.41235
 21
6.82631
  0
LINE
  8
0
 10
-8.41235
 20
6.82631
 11
-8.39037
 21
6.88763
  0
LINE
  8
0
 10
-8.39037
 20
6.88763
 11
-8.3364
 21
7.07599
  0
LINE
  8
0
 10
-8.3364
 20
7.07599
 11
-8.32332
 21
7.13475
  0
LINE
  8
0
 10
-8.32332
 20
7.13475
 11
-8.29092
 21
7.3373
  0
LINE
  8
0
 10
-8.29092
 20
7.3373
 11
-8.28528
 21
7.3914
  0
LINE
  8
0
 10
-8.28528
 20
7.3914
 11
-8.27449
 21
7.60812
  0
LINE
  8
0
 10
-8.27449
 20
7.60812
 11
-8.27434
 21
7.65471
  0
LINE
  8
0
 10
-8.27434
 20
7.65471
 11
-8.28154
 21
7.82024
  0
LINE
  8
0
 10
-8.28154
 20
7.82024
 11
-8.28558
 21
7.86554
  0
LINE
  8
0
 10
-8.28558
 20
7.86554
 11
-8.30717
 21
8.02513
  0
LINE
  8
0
 10
-8.30717
 20
8.02513
 11
-8.31583
 21
8.0721
  0
LINE
  8
0
 10
-8.31583
 20
8.0721
 11
-8.35181
 21
8.22575
  0
LINE
  8
0
 10
-8.35181
 20
8.22575
 11
-8.3654
 21
8.27315
  0
LINE
  8
0
 10
-8.3654
 20
8.27315
 11
-8.41579
 21
8.42088
  0
LINE
  8
0
 10
-8.41579
 20
8.42088
 11
-8.43423
 21
8.46725
  0
LINE
  8
0
 10
-8.43423
 20
8.46725
 11
-8.49902
 21
8.60907
  0
LINE
  8
0
 10
-8.49902
 20
8.60907
 11
-8.52179
 21
8.653
  0
LINE
  8
0
 10
-8.52179
 20
8.653
 11
-8.60095
 21
8.78888
  0
LINE
  8
0
 10
-8.60095
 20
8.78888
 11
-8.62723
 21
8.82936
  0
LINE
  8
0
 10
-8.62723
 20
8.82936
 11
-8.72081
 21
8.95932
  0
LINE
  8
0
 10
-8.72081
 20
8.95932
 11
-8.74944
 21
8.99544
  0
LINE
  8
0
 10
-8.74944
 20
8.99544
 11
-8.85664
 21
9.11859
  0
LINE
  8
0
 10
-8.85664
 20
9.11859
 11
-8.88737
 21
9.15088
  0
LINE
  8
0
 10
-8.88737
 20
9.15088
 11
-9.00754
 21
9.26631
  0
LINE
  8
0
 10
-9.00754
 20
9.26631
 11
-9.03946
 21
9.29446
  0
LINE
  8
0
 10
-9.03946
 20
9.29446
 11
-9.17259
 21
9.40216
  0
LINE
  8
0
 10
-9.17259
 20
9.40216
 11
-9.20465
 21
9.42604
  0
LINE
  8
0
 10
-9.20465
 20
9.42604
 11
-9.35072
 21
9.52602
  0
LINE
  8
0
 10
-9.35072
 20
9.52602
 11
-9.38228
 21
9.54593
  0
LINE
  8
0
 10
-9.38228
 20
9.54593
 11
-9.54132
 21
9.63817
  0
LINE
  8
0
 10
-9.54132
 20
9.63817
 11
-9.5717
 21
9.6544
  0
LINE
  8
0
 10
-9.5717
 20
9.6544
 11
-9.7437
 21
9.73891
  0
LINE
  8
0
 10
-9.7437
 20
9.73891
 11
-9.77248
 21
9.75194
  0
LINE
  8
0
 10
-9.77248
 20
9.75194
 11
-9.95744
 21
9.82872
  0
LINE
  8
0
 10
-9.95744
 20
9.82872
 11
-9.97168
 21
9.83438
  0
LINE
  8
0
 10
-9.97168
 20
9.83438
 11
-11.2454
 21
10.3179
  0
LINE
  8
0
 10
-11.2454
 20
10.3179
 11
-11.7669
 21
10.528
  0
LINE
  8
0
 10
-11.7669
 20
10.528
 11
-12.2298
 21
10.7374
  0
LINE
  8
0
 10
-12.2298
 20
10.7374
 11
-12.6375
 21
10.9467
  0
LINE
  8
0
 10
-12.6375
 20
10.9467
 11
-12.9895
 21
11.155
  0
LINE
  8
0
 10
-12.9895
 20
11.155
 11
-13.2847
 21
11.3599
  0
LINE
  8
0
 10
-13.2847
 20
11.3599
 11
-13.5231
 21
11.559
  0
LINE
  8
0
 10
-13.5231
 20
11.559
 11
-13.7076
 21
11.7512
  0
LINE
  8
0
 10
-13.7076
 20
11.7512
 11
-13.8563
 21
11.9502
  0
LINE
  8
0
 10
-13.8563
 20
11.9502
 11
-13.9837
 21
12.1707
  0
LINE
  8
0
 10
-13.9837
 20
12.1707
 11
-14.0896
 21
12.414
  0
LINE
  8
0
 10
-14.0896
 20
12.414
 11
-14.1738
 21
12.6822
  0
LINE
  8
0
 10
-14.1738
 20
12.6822
 11
-14.2352
 21
12.9766
  0
LINE
  8
0
 10
-14.2352
 20
12.9766
 11
-14.273
 21
13.2981
  0
LINE
  8
0
 10
-14.273
 20
13.2981
 11
-14.2857
 21
13.6437
  0
LINE
  8
0
 10
-14.2857
 20
13.6437
 11
-14.2645
 21
14.0933
  0
LINE
  8
0
 10
-14.2645
 20
14.0933
 11
-14.2024
 21
14.5046
  0
LINE
  8
0
 10
-14.2024
 20
14.5046
 11
-14.1009
 21
14.8808
  0
LINE
  8
0
 10
-14.1009
 20
14.8808
 11
-13.9611
 21
15.2242
  0
LINE
  8
0
 10
-13.9611
 20
15.2242
 11
-13.7829
 21
15.5381
  0
LINE
  8
0
 10
-13.7829
 20
15.5381
 11
-13.5654
 21
15.825
  0
LINE
  8
0
 10
-13.5654
 20
15.825
 11
-13.3062
 21
16.0877
  0
LINE
  8
0
 10
-13.3062
 20
16.0877
 11
-13.0102
 21
16.3208
  0
LINE
  8
0
 10
-13.0102
 20
16.3208
 11
-12.6819
 21
16.5194
  0
LINE
  8
0
 10
-12.6819
 20
16.5194
 11
-12.3196
 21
16.6836
  0
LINE
  8
0
 10
-12.3196
 20
16.6836
 11
-11.9208
 21
16.8134
  0
LINE
  8
0
 10
-11.9208
 20
16.8134
 11
-11.4838
 21
16.9076
  0
LINE
  8
0
 10
-11.4838
 20
16.9076
 11
-11.0078
 21
16.965
  0
LINE
  8
0
 10
-11.0078
 20
16.965
 11
-10.4876
 21
16.9846
  0
LINE
  8
0
 10
-10.4876
 20
16.9846
 11
-10.2498
 21
16.9807
  0
LINE
  8
0
 10
-10.2498
 20
16.9807
 11
-10.0066
 21
16.9688
  0
LINE
  8
0
 10
-10.0066
 20
16.9688
 11
-9.76329
 21
16.9489
  0
LINE
  8
0
 10
-9.76329
 20
16.9489
 11
-9.52016
 21
16.921
  0
LINE
  8
0
 10
-9.52016
 20
16.921
 11
-9.27632
 21
16.885
  0
LINE
  8
0
 10
-9.27632
 20
16.885
 11
-9.03276
 21
16.8412
  0
LINE
  8
0
 10
-9.03276
 20
16.8412
 11
-8.7883
 21
16.7891
  0
LINE
  8
0
 10
-8.7883
 20
16.7891
 11
-8.54454
 21
16.7294
  0
LINE
  8
0
 10
-8.54454
 20
16.7294
 11
-8.30013
 21
16.6616
  0
LINE
  8
0
 10
-8.30013
 20
16.6616
 11
-8.05655
 21
16.5861
  0
LINE
  8
0
 10
-8.05655
 20
16.5861
 11
-7.8139
 21
16.5031
  0
LINE
  8
0
 10
-7.8139
 20
16.5031
 11
-7.57066
 21
16.4119
  0
LINE
  8
0
 10
-7.57066
 20
16.4119
 11
-7.37846
 21
16.3335
  0
LINE
  8
0
 10
-7.37846
 20
16.3335
 11
-7.37846
 21
15.0252
  0
LINE
  8
0
 10
-7.37846
 20
15.0252
 11
-7.61081
 21
15.1479
  0
LINE
  8
0
 10
-7.61081
 20
15.1479
 11
-7.62843
 21
15.1568
  0
LINE
  8
0
 10
-7.62843
 20
15.1568
 11
-7.87257
 21
15.2736
  0
LINE
  8
0
 10
-7.87257
 20
15.2736
 11
-7.89105
 21
15.282
  0
LINE
  8
0
 10
-7.89105
 20
15.282
 11
-8.13628
 21
15.3873
  0
LINE
  8
0
 10
-8.13628
 20
15.3873
 11
-8.15562
 21
15.3951
  0
LINE
  8
0
 10
-8.15562
 20
15.3951
 11
-8.40193
 21
15.4889
  0
LINE
  8
0
 10
-8.40193
 20
15.4889
 11
-8.42244
 21
15.4962
  0
LINE
  8
0
 10
-8.42244
 20
15.4962
 11
-8.6689
 21
15.578
  0
LINE
  8
0
 10
-8.6689
 20
15.578
 11
-8.69083
 21
15.5847
  0
LINE
  8
0
 10
-8.69083
 20
15.5847
 11
-8.93657
 21
15.6539
  0
LINE
  8
0
 10
-8.93657
 20
15.6539
 11
-8.95955
 21
15.6598
  0
LINE
  8
0
 10
-8.95955
 20
15.6598
 11
-9.20457
 21
15.7164
  0
LINE
  8
0
 10
-9.20457
 20
15.7164
 11
-9.22842
 21
15.7213
  0
LINE
  8
0
 10
-9.22842
 20
15.7213
 11
-9.47273
 21
15.7653
  0
LINE
  8
0
 10
-9.47273
 20
15.7653
 11
-9.49741
 21
15.7691
  0
LINE
  8
0
 10
-9.49741
 20
15.7691
 11
-9.741
 21
15.8006
  0
LINE
  8
0
 10
-9.741
 20
15.8006
 11
-9.76628
 21
15.8032
  0
LINE
  8
0
 10
-9.76628
 20
15.8032
 11
-10.0092
 21
15.8221
  0
LINE
  8
0
 10
-10.0092
 20
15.8221
 11
-10.0349
 21
15.8234
  0
LINE
  8
0
 10
-10.0349
 20
15.8234
 11
-10.2771
 21
15.8297
  0
LINE
  8
0
 10
-10.2771
 20
15.8297
 11
-10.3049
 21
15.8297
  0
LINE
  8
0
 10
-10.3049
 20
15.8297
 11
-10.5654
 21
15.8219
  0
LINE
  8
0
 10
-10.5654
 20
15.8219
 11
-10.5982
 21
15.8199
  0
LINE
  8
0
 10
-10.5982
 20
15.8199
 11
-10.8408
 21
15.7966
  0
LINE
  8
0
 10
-10.8408
 20
15.7966
 11
-10.878
 21
15.7917
  0
LINE
  8
0
 10
-10.878
 20
15.7917
 11
-11.1025
 21
15.753
  0
LINE
  8
0
 10
-11.1025
 20
15.753
 11
-11.1445
 21
15.7439
  0
LINE
  8
0
 10
-11.1445
 20
15.7439
 11
-11.3511
 21
15.6897
  0
LINE
  8
0
 10
-11.3511
 20
15.6897
 11
-11.3974
 21
15.6751
  0
LINE
  8
0
 10
-11.3974
 20
15.6751
 11
-11.586
 21
15.6055
  0
LINE
  8
0
 10
-11.586
 20
15.6055
 11
-11.636
 21
15.5838
  0
LINE
  8
0
 10
-11.636
 20
15.5838
 11
-11.8066
 21
15.4987
  0
LINE
  8
0
 10
-11.8066
 20
15.4987
 11
-11.8586
 21
15.4687
  0
LINE
  8
0
 10
-11.8586
 20
15.4687
 11
-12.0112
 21
15.3681
  0
LINE
  8
0
 10
-12.0112
 20
15.3681
 11
-12.0625
 21
15.3293
  0
LINE
  8
0
 10
-12.0625
 20
15.3293
 11
-12.1958
 21
15.2144
  0
LINE
  8
0
 10
-12.1958
 20
15.2144
 11
-12.2447
 21
15.1658
  0
LINE
  8
0
 10
-12.2447
 20
15.1658
 11
-12.3575
 21
15.0376
  0
LINE
  8
0
 10
-12.3575
 20
15.0376
 11
-12.4009
 21
14.9804
  0
LINE
  8
0
 10
-12.4009
 20
14.9804
 11
-12.4932
 21
14.8388
  0
LINE
  8
0
 10
-12.4932
 20
14.8388
 11
-12.528
 21
14.776
  0
LINE
  8
0
 10
-12.528
 20
14.776
 11
-12.5997
 21
14.6211
  0
LINE
  8
0
 10
-12.5997
 20
14.6211
 11
-12.6244
 21
14.5566
  0
LINE
  8
0
 10
-12.6244
 20
14.5566
 11
-12.6756
 21
14.3884
  0
LINE
  8
0
 10
-12.6756
 20
14.3884
 11
-12.6903
 21
14.3262
  0
LINE
  8
0
 10
-12.6903
 20
14.3262
 11
-12.7211
 21
14.1446
  0
LINE
  8
0
 10
-12.7211
 20
14.1446
 11
-12.7274
 21
14.0874
  0
LINE
  8
0
 10
-12.7274
 20
14.0874
 11
-12.7377
 21
13.8925
  0
LINE
  8
0
 10
-12.7377
 20
13.8925
 11
-12.7378
 21
13.8418
  0
LINE
  8
0
 10
-12.7378
 20
13.8418
 11
-12.7303
 21
13.6894
  0
LINE
  8
0
 10
-12.7303
 20
13.6894
 11
-12.725
 21
13.6373
  0
LINE
  8
0
 10
-12.725
 20
13.6373
 11
-12.7026
 21
13.4927
  0
LINE
  8
0
 10
-12.7026
 20
13.4927
 11
-12.6909
 21
13.4377
  0
LINE
  8
0
 10
-12.6909
 20
13.4377
 11
-12.6535
 21
13.3008
  0
LINE
  8
0
 10
-12.6535
 20
13.3008
 11
-12.6347
 21
13.2448
  0
LINE
  8
0
 10
-12.6347
 20
13.2448
 11
-12.5824
 21
13.1157
  0
LINE
  8
0
 10
-12.5824
 20
13.1157
 11
-12.5564
 21
13.0611
  0
LINE
  8
0
 10
-12.5564
 20
13.0611
 11
-12.4892
 21
12.9397
  0
LINE
  8
0
 10
-12.4892
 20
12.9397
 11
-12.457
 21
12.889
  0
LINE
  8
0
 10
-12.457
 20
12.889
 11
-12.3748
 21
12.7754
  0
LINE
  8
0
 10
-12.3748
 20
12.7754
 11
-12.3382
 21
12.7304
  0
LINE
  8
0
 10
-12.3382
 20
12.7304
 11
-12.2412
 21
12.6245
  0
LINE
  8
0
 10
-12.2412
 20
12.6245
 11
-12.1979
 21
12.5827
  0
LINE
  8
0
 10
-12.1979
 20
12.5827
 11
-12.0771
 21
12.4791
  0
LINE
  8
0
 10
-12.0771
 20
12.4791
 11
-12.0371
 21
12.4482
  0
LINE
  8
0
 10
-12.0371
 20
12.4482
 11
-11.8837
 21
12.3416
  0
LINE
  8
0
 10
-11.8837
 20
12.3416
 11
-11.8524
 21
12.3215
  0
LINE
  8
0
 10
-11.8524
 20
12.3215
 11
-11.6665
 21
12.2119
  0
LINE
  8
0
 10
-11.6665
 20
12.2119
 11
-11.6417
 21
12.1982
  0
LINE
  8
0
 10
-11.6417
 20
12.1982
 11
-11.4232
 21
12.0855
  0
LINE
  8
0
 10
-11.4232
 20
12.0855
 11
-11.4034
 21
12.0758
  0
LINE
  8
0
 10
-11.4034
 20
12.0758
 11
-11.1523
 21
11.96
  0
LINE
  8
0
 10
-11.1523
 20
11.96
 11
-11.1362
 21
11.9529
  0
LINE
  8
0
 10
-11.1362
 20
11.9529
 11
-10.8525
 21
11.834
  0
LINE
  8
0
 10
-10.8525
 20
11.834
 11
-10.8392
 21
11.8286
  0
LINE
  8
0
 10
-10.8392
 20
11.8286
 11
-10.523
 21
11.7067
  0
LINE
  8
0
 10
-10.523
 20
11.7067
 11
-9.4045
 21
11.2835
  0
LINE
  8
0
 10
-9.4045
 20
11.2835
 11
-8.98643
 21
11.1167
  0
LINE
  8
0
 10
-8.98643
 20
11.1167
 11
-8.6136
 21
10.9411
  0
LINE
  8
0
 10
-8.6136
 20
10.9411
 11
-8.27686
 21
10.7535
  0
LINE
  8
0
 10
-8.27686
 20
10.7535
 11
-7.97633
 21
10.555
  0
LINE
  8
0
 10
-7.97633
 20
10.555
 11
-7.71115
 21
10.3461
  0
LINE
  8
0
 10
-7.71115
 20
10.3461
 11
-7.48027
 21
10.1274
  0
LINE
  8
0
 10
-7.48027
 20
10.1274
 11
-7.28227
 21
9.8989
  0
LINE
  8
0
 10
-7.28227
 20
9.8989
 11
-7.11374
 21
9.65744
  0
LINE
  8
0
 10
-7.11374
 20
9.65744
 11
-6.97076
 21
9.39793
  0
LINE
  8
0
 10
-6.97076
 20
9.39793
 11
-6.85297
 21
9.11903
  0
LINE
  8
0
 10
-6.85297
 20
9.11903
 11
-6.76031
 21
8.81921
  0
LINE
  8
0
 10
-6.76031
 20
8.81921
 11
-6.69312
 21
8.49683
  0
LINE
  8
0
 10
-6.69312
 20
8.49683
 11
-6.65216
 21
8.15108
  0
LINE
  8
0
 10
-6.65216
 20
8.15108
 11
-6.6384
 21
7.78374
  0
LINE
  8
0
 10
-6.6384
 20
7.78374
 11
-6.66046
 21
7.27956
  0
LINE
  8
0
 10
-6.66046
 20
7.27956
 11
-6.72519
 21
6.82365
  0
LINE
  8
0
 10
-6.72519
 20
6.82365
 11
-6.83058
 21
6.4144
  0
LINE
  8
0
 10
-6.83058
 20
6.4144
 11
-6.97469
 21
6.05008
  0
LINE
  8
0
 10
-6.97469
 20
6.05008
 11
-7.1564
 21
5.72734
  0
LINE
  8
0
 10
-7.1564
 20
5.72734
 11
-7.37634
 21
5.44206
  0
LINE
  8
0
 10
-7.37634
 20
5.44206
 11
-7.63657
 21
5.19081
  0
LINE
  8
0
 10
-7.63657
 20
5.19081
 11
-7.94182
 21
4.97017
  0
LINE
  8
0
 10
-7.94182
 20
4.97017
 11
-8.29628
 21
4.77933
  0
LINE
  8
0
 10
-8.29628
 20
4.77933
 11
-8.70328
 21
4.61923
  0
LINE
  8
0
 10
-8.70328
 20
4.61923
 11
-9.16383
 21
4.49196
  0
LINE
  8
0
 10
-9.16383
 20
4.49196
 11
-9.67915
 21
4.3992
  0
LINE
  8
0
 10
-9.67915
 20
4.3992
 11
-10.2488
 21
4.34265
  0
LINE
  8
0
 10
-10.2488
 20
4.34265
 11
-10.8755
 21
4.32347
  0
LINE
  8
0
 10
-10.8755
 20
4.32347
 11
-11.1343
 21
4.32787
  0
LINE
  8
0
 10
12.326
 20
3.82657
 11
12.5358
 21
3.83624
  0
LINE
  8
0
 10
12.5358
 20
3.83624
 11
12.7427
 21
3.85237
  0
LINE
  8
0
 10
12.7427
 20
3.85237
 11
12.9467
 21
3.87495
  0
LINE
  8
0
 10
12.9467
 20
3.87495
 11
13.1478
 21
3.90399
  0
LINE
  8
0
 10
13.1478
 20
3.90399
 11
13.3461
 21
3.93948
  0
LINE
  8
0
 10
13.3461
 20
3.93948
 11
13.5415
 21
3.98141
  0
LINE
  8
0
 10
13.5415
 20
3.98141
 11
13.7342
 21
4.02982
  0
LINE
  8
0
 10
13.7342
 20
4.02982
 11
13.9243
 21
4.08466
  0
LINE
  8
0
 10
13.9243
 20
4.08466
 11
14.112
 21
4.14595
  0
LINE
  8
0
 10
14.112
 20
4.14595
 11
14.2971
 21
4.2137
  0
LINE
  8
0
 10
14.2971
 20
4.2137
 11
14.4798
 21
4.2879
  0
LINE
  8
0
 10
14.4798
 20
4.2879
 11
14.6599
 21
4.36855
  0
LINE
  8
0
 10
14.6599
 20
4.36855
 11
14.8374
 21
4.45566
  0
LINE
  8
0
 10
14.8374
 20
4.45566
 11
14.8374
 21
7.35101
  0
LINE
  8
0
 10
14.8374
 20
7.35101
 11
14.6468
 21
7.18152
  0
LINE
  8
0
 10
14.6468
 20
7.18152
 11
14.4578
 21
7.0255
  0
LINE
  8
0
 10
14.4578
 20
7.0255
 11
14.2704
 21
6.88297
  0
LINE
  8
0
 10
14.2704
 20
6.88297
 11
14.0846
 21
6.75391
  0
LINE
  8
0
 10
14.0846
 20
6.75391
 11
13.9005
 21
6.63834
  0
LINE
  8
0
 10
13.9005
 20
6.63834
 11
13.718
 21
6.53625
  0
LINE
  8
0
 10
13.718
 20
6.53625
 11
13.537
 21
6.44765
  0
LINE
  8
0
 10
13.537
 20
6.44765
 11
13.3562
 21
6.37167
  0
LINE
  8
0
 10
13.3562
 20
6.37167
 11
13.1736
 21
6.30737
  0
LINE
  8
0
 10
13.1736
 20
6.30737
 11
12.9895
 21
6.25478
  0
LINE
  8
0
 10
12.9895
 20
6.25478
 11
12.8038
 21
6.21387
  0
LINE
  8
0
 10
12.8038
 20
6.21387
 11
12.6164
 21
6.18463
  0
LINE
  8
0
 10
12.6164
 20
6.18463
 11
12.4274
 21
6.1671
  0
LINE
  8
0
 10
12.4274
 20
6.1671
 11
12.2368
 21
6.16125
  0
LINE
  8
0
 10
12.2368
 20
6.16125
 11
11.8431
 21
6.18439
  0
LINE
  8
0
 10
11.8431
 20
6.18439
 11
11.478
 21
6.25375
  0
LINE
  8
0
 10
11.478
 20
6.25375
 11
11.1414
 21
6.36937
  0
LINE
  8
0
 10
11.1414
 20
6.36937
 11
10.8335
 21
6.53125
  0
LINE
  8
0
 10
10.8335
 20
6.53125
 11
10.5542
 21
6.73936
  0
LINE
  8
0
 10
10.5542
 20
6.73936
 11
10.3035
 21
6.99373
  0
LINE
  8
0
 10
10.3035
 20
6.99373
 11
10.0814
 21
7.29434
  0
LINE
  8
0
 10
10.0814
 20
7.29434
 11
9.88844
 21
7.64034
  0
LINE
  8
0
 10
9.88844
 20
7.64034
 11
9.72519
 21
8.03078
  0
LINE
  8
0
 10
9.72519
 20
8.03078
 11
9.59161
 21
8.46565
  0
LINE
  8
0
 10
9.59161
 20
8.46565
 11
9.48773
 21
8.94499
  0
LINE
  8
0
 10
9.48773
 20
8.94499
 11
9.41351
 21
9.46877
  0
LINE
  8
0
 10
9.41351
 20
9.46877
 11
9.369
 21
10.037
  0
LINE
  8
0
 10
9.369
 20
10.037
 11
9.35416
 21
10.6496
  0
LINE
  8
0
 10
9.35416
 20
10.6496
 11
9.369
 21
11.2646
  0
LINE
  8
0
 10
9.369
 20
11.2646
 11
9.41351
 21
11.8348
  0
LINE
  8
0
 10
9.41351
 20
11.8348
 11
9.48773
 21
12.3602
  0
LINE
  8
0
 10
9.48773
 20
12.3602
 11
9.59161
 21
12.8408
  0
LINE
  8
0
 10
9.59161
 20
12.8408
 11
9.72519
 21
13.2765
  0
LINE
  8
0
 10
9.72519
 20
13.2765
 11
9.88844
 21
13.6675
  0
LINE
  8
0
 10
9.88844
 20
13.6675
 11
10.0814
 21
14.0136
  0
LINE
  8
0
 10
10.0814
 20
14.0136
 11
10.3035
 21
14.3143
  0
LINE
  8
0
 10
10.3035
 20
14.3143
 11
10.5542
 21
14.5687
  0
LINE
  8
0
 10
10.5542
 20
14.5687
 11
10.8335
 21
14.7768
  0
LINE
  8
0
 10
10.8335
 20
14.7768
 11
11.1414
 21
14.9387
  0
LINE
  8
0
 10
11.1414
 20
14.9387
 11
11.478
 21
15.0543
  0
LINE
  8
0
 10
11.478
 20
15.0543
 11
11.8431
 21
15.1237
  0
LINE
  8
0
 10
11.8431
 20
15.1237
 11
12.2368
 21
15.1468
  0
LINE
  8
0
 10
12.2368
 20
15.1468
 11
12.4274
 21
15.141
  0
LINE
  8
0
 10
12.4274
 20
15.141
 11
12.6164
 21
15.1235
  0
LINE
  8
0
 10
12.6164
 20
15.1235
 11
12.8038
 21
15.0942
  0
LINE
  8
0
 10
12.8038
 20
15.0942
 11
12.9895
 21
15.0533
  0
LINE
  8
0
 10
12.9895
 20
15.0533
 11
13.1736
 21
15.0007
  0
LINE
  8
0
 10
13.1736
 20
15.0007
 11
13.3562
 21
14.9363
  0
LINE
  8
0
 10
13.3562
 20
14.9363
 11
13.537
 21
14.8603
  0
LINE
  8
0
 10
13.537
 20
14.8603
 11
13.718
 21
14.7718
  0
LINE
  8
0
 10
13.718
 20
14.7718
 11
13.9005
 21
14.6697
  0
LINE
  8
0
 10
13.9005
 20
14.6697
 11
14.0846
 21
14.5542
  0
LINE
  8
0
 10
14.0846
 20
14.5542
 11
14.2704
 21
14.4251
  0
LINE
  8
0
 10
14.2704
 20
14.4251
 11
14.4578
 21
14.2826
  0
LINE
  8
0
 10
14.4578
 20
14.2826
 11
14.6468
 21
14.1266
  0
LINE
  8
0
 10
14.6468
 20
14.1266
 11
14.8374
 21
13.9571
  0
LINE
  8
0
 10
14.8374
 20
13.9571
 11
14.8374
 21
16.8524
  0
LINE
  8
0
 10
14.8374
 20
16.8524
 11
14.6644
 21
16.9395
  0
LINE
  8
0
 10
14.6644
 20
16.9395
 11
14.4877
 21
17.0202
  0
LINE
  8
0
 10
14.4877
 20
17.0202
 11
14.3074
 21
17.0944
  0
LINE
  8
0
 10
14.3074
 20
17.0944
 11
14.1235
 21
17.1622
  0
LINE
  8
0
 10
14.1235
 20
17.1622
 11
13.9361
 21
17.2234
  0
LINE
  8
0
 10
13.9361
 20
17.2234
 11
13.745
 21
17.2783
  0
LINE
  8
0
 10
13.745
 20
17.2783
 11
13.5503
 21
17.3267
  0
LINE
  8
0
 10
13.5503
 20
17.3267
 11
13.3526
 21
17.3686
  0
LINE
  8
0
 10
13.3526
 20
17.3686
 11
13.1524
 21
17.4041
  0
LINE
  8
0
 10
13.1524
 20
17.4041
 11
12.9496
 21
17.4332
  0
LINE
  8
0
 10
12.9496
 20
17.4332
 11
12.7443
 21
17.4557
  0
LINE
  8
0
 10
12.7443
 20
17.4557
 11
12.5365
 21
17.4719
  0
LINE
  8
0
 10
12.5365
 20
17.4719
 11
12.3262
 21
17.4815
  0
LINE
  8
0
 10
12.3262
 20
17.4815
 11
12.1134
 21
17.4848
  0
LINE
  8
0
 10
12.1134
 20
17.4848
 11
11.3785
 21
17.4489
  0
LINE
  8
0
 10
11.3785
 20
17.4489
 11
10.695
 21
17.3415
  0
LINE
  8
0
 10
10.695
 20
17.3415
 11
10.063
 21
17.1624
  0
LINE
  8
0
 10
10.063
 20
17.1624
 11
9.48244
 21
16.9117
  0
LINE
  8
0
 10
9.48244
 20
16.9117
 11
8.95334
 21
16.5893
  0
LINE
  8
0
 10
8.95334
 20
16.5893
 11
8.47568
 21
16.1953
  0
LINE
  8
0
 10
8.47568
 20
16.1953
 11
8.04947
 21
15.7296
  0
LINE
  8
0
 10
8.04947
 20
15.7296
 11
7.67761
 21
15.1962
  0
LINE
  8
0
 10
7.67761
 20
15.1962
 11
7.36295
 21
14.5986
  0
LINE
  8
0
 10
7.36295
 20
14.5986
 11
7.1055
 21
13.937
  0
LINE
  8
0
 10
7.1055
 20
13.937
 11
6.90526
 21
13.2113
  0
LINE
  8
0
 10
6.90526
 20
13.2113
 11
6.76224
 21
12.4215
  0
LINE
  8
0
 10
6.76224
 20
12.4215
 11
6.67642
 21
11.5676
  0
LINE
  8
0
 10
6.67642
 20
11.5676
 11
6.64781
 21
10.6496
  0
LINE
  8
0
 10
6.64781
 20
10.6496
 11
6.67642
 21
9.73402
  0
LINE
  8
0
 10
6.67642
 20
9.73402
 11
6.76224
 21
8.88211
  0
LINE
  8
0
 10
6.76224
 20
8.88211
 11
6.90526
 21
8.09393
  0
LINE
  8
0
 10
6.90526
 20
8.09393
 11
7.1055
 21
7.36946
  0
LINE
  8
0
 10
7.1055
 20
7.36946
 11
7.36295
 21
6.70869
  0
LINE
  8
0
 10
7.36295
 20
6.70869
 11
7.67761
 21
6.11166
  0
LINE
  8
0
 10
7.67761
 20
6.11166
 11
8.04947
 21
5.57834
  0
LINE
  8
0
 10
8.04947
 20
5.57834
 11
8.47568
 21
5.11273
  0
LINE
  8
0
 10
8.47568
 20
5.11273
 11
8.95334
 21
4.71875
  0
LINE
  8
0
 10
8.95334
 20
4.71875
 11
9.48244
 21
4.39639
  0
LINE
  8
0
 10
9.48244
 20
4.39639
 11
10.063
 21
4.14569
  0
LINE
  8
0
 10
10.063
 20
4.14569
 11
10.695
 21
3.9666
  0
LINE
  8
0
 10
10.695
 20
3.9666
 11
11.3785
 21
3.85916
  0
LINE
  8
0
 10
11.3785
 20
3.85916
 11
12.1134
 21
3.82333
  0
LINE
  8
0
 10
12.1134
 20
3.82333
 11
12.326
 21
3.82657
  0
LINE
  8
0
 10
11.4296
 20
4.35727
 11
10.8025
 21
4.45584
  0
LINE
  8
0
 10
10.8025
 20
4.45584
 11
10.231
 21
4.61778
  0
LINE
  8
0
 10
10.231
 20
4.61778
 11
9.71269
 21
4.8416
  0
LINE
  8
0
 10
9.71269
 20
4.8416
 11
9.244
 21
5.12714
  0
LINE
  8
0
 10
9.244
 20
5.12714
 11
8.82085
 21
5.47617
  0
LINE
  8
0
 10
8.82085
 20
5.47617
 11
8.44061
 21
5.89156
  0
LINE
  8
0
 10
8.44061
 20
5.89156
 11
8.1055
 21
6.37218
  0
LINE
  8
0
 10
8.1055
 20
6.37218
 11
7.81851
 21
6.91669
  0
LINE
  8
0
 10
7.81851
 20
6.91669
 11
7.58067
 21
7.52713
  0
LINE
  8
0
 10
7.58067
 20
7.52713
 11
7.39316
 21
8.20554
  0
LINE
  8
0
 10
7.39316
 20
8.20554
 11
7.25775
 21
8.95181
  0
LINE
  8
0
 10
7.25775
 20
8.95181
 11
7.17564
 21
9.76692
  0
LINE
  8
0
 10
7.17564
 20
9.76692
 11
7.14806
 21
10.6496
  0
LINE
  8
0
 10
7.14806
 20
10.6496
 11
7.17564
 21
11.5347
  0
LINE
  8
0
 10
7.17564
 20
11.5347
 11
7.25775
 21
12.3518
  0
LINE
  8
0
 10
7.25775
 20
12.3518
 11
7.39325
 21
13.1
  0
LINE
  8
0
 10
7.39325
 20
13.1
 11
7.58073
 21
13.7795
  0
LINE
  8
0
 10
7.58073
 20
13.7795
 11
7.81859
 21
14.3908
  0
LINE
  8
0
 10
7.81859
 20
14.3908
 11
8.10556
 21
14.9357
  0
LINE
  8
0
 10
8.10556
 20
14.9357
 11
8.44069
 21
15.4165
  0
LINE
  8
0
 10
8.44069
 20
15.4165
 11
8.82088
 21
15.8319
  0
LINE
  8
0
 10
8.82088
 20
15.8319
 11
9.244
 21
16.1809
  0
LINE
  8
0
 10
9.244
 20
16.1809
 11
9.71274
 21
16.4665
  0
LINE
  8
0
 10
9.71274
 20
16.4665
 11
10.2309
 21
16.6903
  0
LINE
  8
0
 10
10.2309
 20
16.6903
 11
10.8025
 21
16.8522
  0
LINE
  8
0
 10
10.8025
 20
16.8522
 11
11.4296
 21
16.9508
  0
LINE
  8
0
 10
11.4296
 20
16.9508
 11
12.1218
 21
16.9846
  0
LINE
  8
0
 10
12.1218
 20
16.9846
 11
12.311
 21
16.9817
  0
LINE
  8
0
 10
12.311
 20
16.9817
 11
12.5054
 21
16.9728
  0
LINE
  8
0
 10
12.5054
 20
16.9728
 11
12.698
 21
16.9578
  0
LINE
  8
0
 10
12.698
 20
16.9578
 11
12.8866
 21
16.9371
  0
LINE
  8
0
 10
12.8866
 20
16.9371
 11
13.0733
 21
16.9103
  0
LINE
  8
0
 10
13.0733
 20
16.9103
 11
13.2568
 21
16.8778
  0
LINE
  8
0
 10
13.2568
 20
16.8778
 11
13.4382
 21
16.8393
  0
LINE
  8
0
 10
13.4382
 20
16.8393
 11
13.6156
 21
16.7952
  0
LINE
  8
0
 10
13.6156
 20
16.7952
 11
13.7894
 21
16.7454
  0
LINE
  8
0
 10
13.7894
 20
16.7454
 11
13.9597
 21
16.6897
  0
LINE
  8
0
 10
13.9597
 20
16.6897
 11
14.1256
 21
16.6285
  0
LINE
  8
0
 10
14.1256
 20
16.6285
 11
14.2887
 21
16.5614
  0
LINE
  8
0
 10
14.2887
 20
16.5614
 11
14.3374
 21
16.5392
  0
LINE
  8
0
 10
14.3374
 20
16.5392
 11
14.3374
 21
14.9858
  0
LINE
  8
0
 10
14.3374
 20
14.9858
 11
14.1662
 21
15.0932
  0
LINE
  8
0
 10
14.1662
 20
15.0932
 11
14.1445
 21
15.1061
  0
LINE
  8
0
 10
14.1445
 20
15.1061
 11
13.962
 21
15.2082
  0
LINE
  8
0
 10
13.962
 20
15.2082
 11
13.9378
 21
15.2208
  0
LINE
  8
0
 10
13.9378
 20
15.2208
 11
13.7569
 21
15.3094
  0
LINE
  8
0
 10
13.7569
 20
15.3094
 11
13.7308
 21
15.3213
  0
LINE
  8
0
 10
13.7308
 20
15.3213
 11
13.5499
 21
15.3973
  0
LINE
  8
0
 10
13.5499
 20
15.3973
 11
13.5223
 21
15.4079
  0
LINE
  8
0
 10
13.5223
 20
15.4079
 11
13.3398
 21
15.4722
  0
LINE
  8
0
 10
13.3398
 20
15.4722
 11
13.3111
 21
15.4814
  0
LINE
  8
0
 10
13.3111
 20
15.4814
 11
13.1269
 21
15.534
  0
LINE
  8
0
 10
13.1269
 20
15.534
 11
13.0971
 21
15.5416
  0
LINE
  8
0
 10
13.0971
 20
15.5416
 11
12.9114
 21
15.5825
  0
LINE
  8
0
 10
12.9114
 20
15.5825
 11
12.8809
 21
15.5882
  0
LINE
  8
0
 10
12.8809
 20
15.5882
 11
12.6935
 21
15.6175
  0
LINE
  8
0
 10
12.6935
 20
15.6175
 11
12.6626
 21
15.6213
  0
LINE
  8
0
 10
12.6626
 20
15.6213
 11
12.4736
 21
15.6389
  0
LINE
  8
0
 10
12.4736
 20
15.6389
 11
12.4427
 21
15.6408
  0
LINE
  8
0
 10
12.4427
 20
15.6408
 11
12.2521
 21
15.6466
  0
LINE
  8
0
 10
12.2521
 20
15.6466
 11
12.2075
 21
15.646
  0
LINE
  8
0
 10
12.2075
 20
15.646
 11
11.8138
 21
15.6229
  0
LINE
  8
0
 10
11.8138
 20
15.6229
 11
11.7497
 21
15.6149
  0
LINE
  8
0
 10
11.7497
 20
15.6149
 11
11.3846
 21
15.5455
  0
LINE
  8
0
 10
11.3846
 20
15.5455
 11
11.3155
 21
15.5272
  0
LINE
  8
0
 10
11.3155
 20
15.5272
 11
10.979
 21
15.4116
  0
LINE
  8
0
 10
10.979
 20
15.4116
 11
10.9088
 21
15.3813
  0
LINE
  8
0
 10
10.9088
 20
15.3813
 11
10.6008
 21
15.2194
  0
LINE
  8
0
 10
10.6008
 20
15.2194
 11
10.5348
 21
15.1777
  0
LINE
  8
0
 10
10.5348
 20
15.1777
 11
10.2554
 21
14.9696
  0
LINE
  8
0
 10
10.2554
 20
14.9696
 11
10.1981
 21
14.9196
  0
LINE
  8
0
 10
10.1981
 20
14.9196
 11
9.94737
 21
14.6652
  0
LINE
  8
0
 10
9.94737
 20
14.6652
 11
9.90134
 21
14.6114
  0
LINE
  8
0
 10
9.90134
 20
14.6114
 11
9.67921
 21
14.3107
  0
LINE
  8
0
 10
9.67921
 20
14.3107
 11
9.64464
 21
14.2571
  0
LINE
  8
0
 10
9.64464
 20
14.2571
 11
9.45171
 21
13.9109
  0
LINE
  8
0
 10
9.45171
 20
13.9109
 11
9.42705
 21
13.8602
  0
LINE
  8
0
 10
9.42705
 20
13.8602
 11
9.26379
 21
13.4692
  0
LINE
  8
0
 10
9.26379
 20
13.4692
 11
9.24715
 21
13.4231
  0
LINE
  8
0
 10
9.24715
 20
13.4231
 11
9.11357
 21
12.9873
  0
LINE
  8
0
 10
9.11357
 20
12.9873
 11
9.10291
 21
12.9464
  0
LINE
  8
0
 10
9.10291
 20
12.9464
 11
8.99902
 21
12.4658
  0
LINE
  8
0
 10
8.99902
 20
12.4658
 11
8.99265
 21
12.4301
  0
LINE
  8
0
 10
8.99265
 20
12.4301
 11
8.91843
 21
11.9048
  0
LINE
  8
0
 10
8.91843
 20
11.9048
 11
8.91502
 21
11.8737
  0
LINE
  8
0
 10
8.91502
 20
11.8737
 11
8.87051
 21
11.3035
  0
LINE
  8
0
 10
8.87051
 20
11.3035
 11
8.86916
 21
11.2767
  0
LINE
  8
0
 10
8.86916
 20
11.2767
 11
8.85431
 21
10.6617
  0
LINE
  8
0
 10
8.85431
 20
10.6617
 11
8.85431
 21
10.6375
  0
LINE
  8
0
 10
8.85431
 20
10.6375
 11
8.86916
 21
10.0249
  0
LINE
  8
0
 10
8.86916
 20
10.0249
 11
8.87053
 21
9.99792
  0
LINE
  8
0
 10
8.87053
 20
9.99792
 11
8.91504
 21
9.42972
  0
LINE
  8
0
 10
8.91504
 20
9.42972
 11
8.91846
 21
9.39862
  0
LINE
  8
0
 10
8.91846
 20
9.39862
 11
8.99268
 21
8.87485
  0
LINE
  8
0
 10
8.99268
 20
8.87485
 11
8.99907
 21
8.8391
  0
LINE
  8
0
 10
8.99907
 20
8.8391
 11
9.10295
 21
8.35976
  0
LINE
  8
0
 10
9.10295
 20
8.35976
 11
9.11365
 21
8.31885
  0
LINE
  8
0
 10
9.11365
 20
8.31885
 11
9.24722
 21
7.88397
  0
LINE
  8
0
 10
9.24722
 20
7.88397
 11
9.26389
 21
7.83789
  0
LINE
  8
0
 10
9.26389
 20
7.83789
 11
9.42714
 21
7.44745
  0
LINE
  8
0
 10
9.42714
 20
7.44745
 11
9.45175
 21
7.39682
  0
LINE
  8
0
 10
9.45175
 20
7.39682
 11
9.64468
 21
7.05083
  0
LINE
  8
0
 10
9.64468
 20
7.05083
 11
9.67924
 21
6.99721
  0
LINE
  8
0
 10
9.67924
 20
6.99721
 11
9.90137
 21
6.69659
  0
LINE
  8
0
 10
9.90137
 20
6.69659
 11
9.94739
 21
6.64275
  0
LINE
  8
0
 10
9.94739
 20
6.64275
 11
10.1981
 21
6.38838
  0
LINE
  8
0
 10
10.1981
 20
6.38838
 11
10.2555
 21
6.33842
  0
LINE
  8
0
 10
10.2555
 20
6.33842
 11
10.5348
 21
6.13031
  0
LINE
  8
0
 10
10.5348
 20
6.13031
 11
10.6008
 21
6.08868
  0
LINE
  8
0
 10
10.6008
 20
6.08868
 11
10.9088
 21
5.9268
  0
LINE
  8
0
 10
10.9088
 20
5.9268
 11
10.979
 21
5.8965
  0
LINE
  8
0
 10
10.979
 20
5.8965
 11
11.3155
 21
5.78088
  0
LINE
  8
0
 10
11.3155
 20
5.78088
 11
11.3846
 21
5.76254
  0
LINE
  8
0
 10
11.3846
 20
5.76254
 11
11.7497
 21
5.69318
  0
LINE
  8
0
 10
11.7497
 20
5.69318
 11
11.8137
 21
5.68524
  0
LINE
  8
0
 10
11.8137
 20
5.68524
 11
12.2074
 21
5.66211
  0
LINE
  8
0
 10
12.2074
 20
5.66211
 11
12.2521
 21
5.66148
  0
LINE
  8
0
 10
12.2521
 20
5.66148
 11
12.4427
 21
5.66733
  0
LINE
  8
0
 10
12.4427
 20
5.66733
 11
12.4736
 21
5.66924
  0
LINE
  8
0
 10
12.4736
 20
5.66924
 11
12.6626
 21
5.68677
  0
LINE
  8
0
 10
12.6626
 20
5.68677
 11
12.6935
 21
5.69061
  0
LINE
  8
0
 10
12.6935
 20
5.69061
 11
12.8809
 21
5.71985
  0
LINE
  8
0
 10
12.8809
 20
5.71985
 11
12.9113
 21
5.72557
  0
LINE
  8
0
 10
12.9113
 20
5.72557
 11
13.0971
 21
5.76648
  0
LINE
  8
0
 10
13.0971
 20
5.76648
 11
13.1268
 21
5.774
  0
LINE
  8
0
 10
13.1268
 20
5.774
 11
13.311
 21
5.8266
  0
LINE
  8
0
 10
13.311
 20
5.8266
 11
13.3398
 21
5.83578
  0
LINE
  8
0
 10
13.3398
 20
5.83578
 11
13.5223
 21
5.90009
  0
LINE
  8
0
 10
13.5223
 20
5.90009
 11
13.5498
 21
5.91069
  0
LINE
  8
0
 10
13.5498
 20
5.91069
 11
13.7307
 21
5.98666
  0
LINE
  8
0
 10
13.7307
 20
5.98666
 11
13.757
 21
5.99861
  0
LINE
  8
0
 10
13.757
 20
5.99861
 11
13.9379
 21
6.08722
  0
LINE
  8
0
 10
13.9379
 20
6.08722
 11
13.962
 21
6.09987
  0
LINE
  8
0
 10
13.962
 20
6.09987
 11
14.1445
 21
6.20195
  0
LINE
  8
0
 10
14.1445
 20
6.20195
 11
14.1663
 21
6.21483
  0
LINE
  8
0
 10
14.1663
 20
6.21483
 11
14.3374
 21
6.32225
  0
LINE
  8
0
 10
14.3374
 20
6.32225
 11
14.3374
 21
4.77202
  0
LINE
  8
0
 10
14.3374
 20
4.77202
 11
14.2835
 21
4.74786
  0
LINE
  8
0
 10
14.2835
 20
4.74786
 11
14.1168
 21
4.68015
  0
LINE
  8
0
 10
14.1168
 20
4.68015
 11
13.9487
 21
4.61861
  0
LINE
  8
0
 10
13.9487
 20
4.61861
 11
13.7772
 21
4.56259
  0
LINE
  8
0
 10
13.7772
 20
4.56259
 11
13.604
 21
4.51266
  0
LINE
  8
0
 10
13.604
 20
4.51266
 11
13.4279
 21
4.46841
  0
LINE
  8
0
 10
13.4279
 20
4.46841
 11
13.2497
 21
4.43018
  0
LINE
  8
0
 10
13.2497
 20
4.43018
 11
13.0682
 21
4.39767
  0
LINE
  8
0
 10
13.0682
 20
4.39767
 11
12.8834
 21
4.371
  0
LINE
  8
0
 10
12.8834
 20
4.371
 11
12.6958
 21
4.35023
  0
LINE
  8
0
 10
12.6958
 20
4.35023
 11
12.5047
 21
4.33534
  0
LINE
  8
0
 10
12.5047
 20
4.33534
 11
12.3107
 21
4.32639
  0
LINE
  8
0
 10
12.3107
 20
4.32639
 11
12.1218
 21
4.32352
  0
LINE
  8
0
 10
12.1218
 20
4.32352
 11
11.4296
 21
4.35727
  0
LINE
  8
0
 10
-20.4765
 20
3.85861
 11
-19.8904
 21
3.96445
  0
LINE
  8
0
 10
-19.8904
 20
3.96445
 11
-19.3503
 21
4.14084
  0
LINE
  8
0
 10
-19.3503
 20
4.14084
 11
-18.856
 21
4.38779
  0
LINE
  8
0
 10
-18.856
 20
4.38779
 11
-18.4075
 21
4.70528
  0
LINE
  8
0
 10
-18.4075
 20
4.70528
 11
-18.005
 21
5.09334
  0
LINE
  8
0
 10
-18.005
 20
5.09334
 11
-17.6483
 21
5.55194
  0
LINE
  8
0
 10
-17.6483
 20
5.55194
 11
-17.3384
 21
6.07932
  0
LINE
  8
0
 10
-17.3384
 20
6.07932
 11
-17.0762
 21
6.67365
  0
LINE
  8
0
 10
-17.0762
 20
6.67365
 11
-16.8617
 21
7.33493
  0
LINE
  8
0
 10
-16.8617
 20
7.33493
 11
-16.6948
 21
8.06317
  0
LINE
  8
0
 10
-16.6948
 20
8.06317
 11
-16.5756
 21
8.85837
  0
LINE
  8
0
 10
-16.5756
 20
8.85837
 11
-16.5041
 21
9.72052
  0
LINE
  8
0
 10
-16.5041
 20
9.72052
 11
-16.4803
 21
10.6496
  0
LINE
  8
0
 10
-16.4803
 20
10.6496
 11
-16.5041
 21
11.5811
  0
LINE
  8
0
 10
-16.5041
 20
11.5811
 11
-16.5756
 21
12.4452
  0
LINE
  8
0
 10
-16.5756
 20
12.4452
 11
-16.6948
 21
13.2421
  0
LINE
  8
0
 10
-16.6948
 20
13.2421
 11
-16.8617
 21
13.9716
  0
LINE
  8
0
 10
-16.8617
 20
13.9716
 11
-17.0762
 21
14.6337
  0
LINE
  8
0
 10
-17.0762
 20
14.6337
 11
-17.3384
 21
15.2286
  0
LINE
  8
0
 10
-17.3384
 20
15.2286
 11
-17.6483
 21
15.7561
  0
LINE
  8
0
 10
-17.6483
 20
15.7561
 11
-18.005
 21
16.2148
  0
LINE
  8
0
 10
-18.005
 20
16.2148
 11
-18.4075
 21
16.6028
  0
LINE
  8
0
 10
-18.4075
 20
16.6028
 11
-18.856
 21
16.9203
  0
LINE
  8
0
 10
-18.856
 20
16.9203
 11
-19.3503
 21
17.1673
  0
LINE
  8
0
 10
-19.3503
 20
17.1673
 11
-19.8904
 21
17.3437
  0
LINE
  8
0
 10
-19.8904
 20
17.3437
 11
-20.4765
 21
17.4495
  0
LINE
  8
0
 10
-20.4765
 20
17.4495
 11
-21.1084
 21
17.4848
  0
LINE
  8
0
 10
-21.1084
 20
17.4848
 11
-21.738
 21
17.4495
  0
LINE
  8
0
 10
-21.738
 20
17.4495
 11
-22.3221
 21
17.3437
  0
LINE
  8
0
 10
-22.3221
 20
17.3437
 11
-22.8607
 21
17.1673
  0
LINE
  8
0
 10
-22.8607
 20
17.1673
 11
-23.3538
 21
16.9203
  0
LINE
  8
0
 10
-23.3538
 20
16.9203
 11
-23.8013
 21
16.6028
  0
LINE
  8
0
 10
-23.8013
 20
16.6028
 11
-24.2033
 21
16.2148
  0
LINE
  8
0
 10
-24.2033
 20
16.2148
 11
-24.5598
 21
15.7561
  0
LINE
  8
0
 10
-24.5598
 20
15.7561
 11
-24.8697
 21
15.2286
  0
LINE
  8
0
 10
-24.8697
 20
15.2286
 11
-25.1319
 21
14.6337
  0
LINE
  8
0
 10
-25.1319
 20
14.6337
 11
-25.3464
 21
13.9716
  0
LINE
  8
0
 10
-25.3464
 20
13.9716
 11
-25.5133
 21
13.2421
  0
LINE
  8
0
 10
-25.5133
 20
13.2421
 11
-25.6325
 21
12.4452
  0
LINE
  8
0
 10
-25.6325
 20
12.4452
 11
-25.704
 21
11.5811
  0
LINE
  8
0
 10
-25.704
 20
11.5811
 11
-25.7278
 21
10.6496
  0
LINE
  8
0
 10
-25.7278
 20
10.6496
 11
-25.704
 21
9.72052
  0
LINE
  8
0
 10
-25.704
 20
9.72052
 11
-25.6325
 21
8.85837
  0
LINE
  8
0
 10
-25.6325
 20
8.85837
 11
-25.5133
 21
8.06317
  0
LINE
  8
0
 10
-25.5133
 20
8.06317
 11
-25.3464
 21
7.33493
  0
LINE
  8
0
 10
-25.3464
 20
7.33493
 11
-25.1319
 21
6.67365
  0
LINE
  8
0
 10
-25.1319
 20
6.67365
 11
-24.8697
 21
6.07932
  0
LINE
  8
0
 10
-24.8697
 20
6.07932
 11
-24.5598
 21
5.55194
  0
LINE
  8
0
 10
-24.5598
 20
5.55194
 11
-24.2033
 21
5.09334
  0
LINE
  8
0
 10
-24.2033
 20
5.09334
 11
-23.8013
 21
4.70528
  0
LINE
  8
0
 10
-23.8013
 20
4.70528
 11
-23.3538
 21
4.38779
  0
LINE
  8
0
 10
-23.3538
 20
4.38779
 11
-22.8607
 21
4.14084
  0
LINE
  8
0
 10
-22.8607
 20
4.14084
 11
-22.3221
 21
3.96445
  0
LINE
  8
0
 10
-22.3221
 20
3.96445
 11
-21.738
 21
3.85861
  0
LINE
  8
0
 10
-21.738
 20
3.85861
 11
-21.1084
 21
3.82333
  0
LINE
  8
0
 10
-21.1084
 20
3.82333
 11
-20.4765
 21
3.85861
  0
LINE
  8
0
 10
-21.6793
 20
4.35611
 11
-22.1992
 21
4.45032
  0
LINE
  8
0
 10
-22.1992
 20
4.45032
 11
-22.6698
 21
4.60446
  0
LINE
  8
0
 10
-22.6698
 20
4.60446
 11
-23.0956
 21
4.81772
  0
LINE
  8
0
 10
-23.0956
 20
4.81772
 11
-23.4812
 21
5.09125
  0
LINE
  8
0
 10
-23.4812
 20
5.09125
 11
-23.8304
 21
5.42833
  0
LINE
  8
0
 10
-23.8304
 20
5.42833
 11
-24.1451
 21
5.83319
  0
LINE
  8
0
 10
-24.1451
 20
5.83319
 11
-24.4239
 21
6.30768
  0
LINE
  8
0
 10
-24.4239
 20
6.30768
 11
-24.6642
 21
6.85216
  0
LINE
  8
0
 10
-24.6642
 20
6.85216
 11
-24.864
 21
7.46825
  0
LINE
  8
0
 10
-24.864
 20
7.46825
 11
-25.0217
 21
8.15617
  0
LINE
  8
0
 10
-25.0217
 20
8.15617
 11
-25.1356
 21
8.91612
  0
LINE
  8
0
 10
-25.1356
 20
8.91612
 11
-25.2045
 21
9.7477
  0
LINE
  8
0
 10
-25.2045
 20
9.7477
 11
-25.2277
 21
10.6497
  0
LINE
  8
0
 10
-25.2277
 20
10.6497
 11
-25.2045
 21
11.5541
  0
LINE
  8
0
 10
-25.2045
 20
11.5541
 11
-25.1356
 21
12.3876
  0
LINE
  8
0
 10
-25.1356
 20
12.3876
 11
-25.0217
 21
13.1491
  0
LINE
  8
0
 10
-25.0217
 20
13.1491
 11
-24.864
 21
13.8385
  0
LINE
  8
0
 10
-24.864
 20
13.8385
 11
-24.6641
 21
14.4555
  0
LINE
  8
0
 10
-24.6641
 20
14.4555
 11
-24.4239
 21
15.0003
  0
LINE
  8
0
 10
-24.4239
 20
15.0003
 11
-24.1451
 21
15.475
  0
LINE
  8
0
 10
-24.1451
 20
15.475
 11
-23.8304
 21
15.8798
  0
LINE
  8
0
 10
-23.8304
 20
15.8798
 11
-23.4812
 21
16.2168
  0
LINE
  8
0
 10
-23.4812
 20
16.2168
 11
-23.0957
 21
16.4904
  0
LINE
  8
0
 10
-23.0957
 20
16.4904
 11
-22.6698
 21
16.7036
  0
LINE
  8
0
 10
-22.6698
 20
16.7036
 11
-22.1992
 21
16.8578
  0
LINE
  8
0
 10
-22.1992
 20
16.8578
 11
-21.6793
 21
16.952
  0
LINE
  8
0
 10
-21.6793
 20
16.952
 11
-21.1083
 21
16.984
  0
LINE
  8
0
 10
-21.1083
 20
16.984
 11
-20.5351
 21
16.952
  0
LINE
  8
0
 10
-20.5351
 20
16.952
 11
-20.013
 21
16.8577
  0
LINE
  8
0
 10
-20.013
 20
16.8577
 11
-19.5406
 21
16.7034
  0
LINE
  8
0
 10
-19.5406
 20
16.7034
 11
-19.1137
 21
16.4901
  0
LINE
  8
0
 10
-19.1137
 20
16.4901
 11
-18.7274
 21
16.2166
  0
LINE
  8
0
 10
-18.7274
 20
16.2166
 11
-18.3778
 21
15.8796
  0
LINE
  8
0
 10
-18.3778
 20
15.8796
 11
-18.063
 21
15.4749
  0
LINE
  8
0
 10
-18.063
 20
15.4749
 11
-17.7842
 21
15.0003
  0
LINE
  8
0
 10
-17.7842
 20
15.0003
 11
-17.5441
 21
14.4555
  0
LINE
  8
0
 10
-17.5441
 20
14.4555
 11
-17.3442
 21
13.8385
  0
LINE
  8
0
 10
-17.3442
 20
13.8385
 11
-17.1865
 21
13.1491
  0
LINE
  8
0
 10
-17.1865
 20
13.1491
 11
-17.0726
 21
12.3876
  0
LINE
  8
0
 10
-17.0726
 20
12.3876
 11
-17.0036
 21
11.5541
  0
LINE
  8
0
 10
-17.0036
 20
11.5541
 11
-16.9804
 21
10.6497
  0
LINE
  8
0
 10
-16.9804
 20
10.6497
 11
-17.0036
 21
9.74773
  0
LINE
  8
0
 10
-17.0036
 20
9.74773
 11
-17.0726
 21
8.91611
  0
LINE
  8
0
 10
-17.0726
 20
8.91611
 11
-17.1865
 21
8.15617
  0
LINE
  8
0
 10
-17.1865
 20
8.15617
 11
-17.3441
 21
7.46825
  0
LINE
  8
0
 10
-17.3441
 20
7.46825
 11
-17.544
 21
6.85216
  0
LINE
  8
0
 10
-17.544
 20
6.85216
 11
-17.7842
 21
6.30763
  0
LINE
  8
0
 10
-17.7842
 20
6.30763
 11
-18.063
 21
5.83319
  0
LINE
  8
0
 10
-18.063
 20
5.83319
 11
-18.3777
 21
5.42854
  0
LINE
  8
0
 10
-18.3777
 20
5.42854
 11
-18.7273
 21
5.09154
  0
LINE
  8
0
 10
-18.7273
 20
5.09154
 11
-19.1137
 21
4.81793
  0
LINE
  8
0
 10
-19.1137
 20
4.81793
 11
-19.5406
 21
4.60466
  0
LINE
  8
0
 10
-19.5406
 20
4.60466
 11
-20.0131
 21
4.45038
  0
LINE
  8
0
 10
-20.0131
 20
4.45038
 11
-20.535
 21
4.35612
  0
LINE
  8
0
 10
-20.535
 20
4.35612
 11
-21.1083
 21
4.32411
  0
LINE
  8
0
 10
-21.1083
 20
4.32411
 11
-21.6793
 21
4.35611
  0
LINE
  8
0
 10
-20.7933
 20
5.68448
 11
-20.7083
 21
5.69861
  0
LINE
  8
0
 10
-20.7083
 20
5.69861
 11
-20.4546
 21
5.76366
  0
LINE
  8
0
 10
-20.4546
 20
5.76366
 11
-20.3666
 21
5.79524
  0
LINE
  8
0
 10
-20.3666
 20
5.79524
 11
-20.1353
 21
5.90367
  0
LINE
  8
0
 10
-20.1353
 20
5.90367
 11
-20.1067
 21
5.91818
  0
LINE
  8
0
 10
-20.1067
 20
5.91818
 11
-20.0537
 21
5.95181
  0
LINE
  8
0
 10
-20.0537
 20
5.95181
 11
-19.8447
 21
6.10359
  0
LINE
  8
0
 10
-19.8447
 20
6.10359
 11
-19.7771
 21
6.16252
  0
LINE
  8
0
 10
-19.7771
 20
6.16252
 11
-19.5904
 21
6.35767
  0
LINE
  8
0
 10
-19.5904
 20
6.35767
 11
-19.54
 21
6.41956
  0
LINE
  8
0
 10
-19.54
 20
6.41956
 11
-19.3756
 21
6.65808
  0
LINE
  8
0
 10
-19.3756
 20
6.65808
 11
-19.3408
 21
6.71677
  0
LINE
  8
0
 10
-19.3408
 20
6.71677
 11
-19.1987
 21
6.99866
  0
LINE
  8
0
 10
-19.1987
 20
6.99866
 11
-19.176
 21
7.05089
  0
LINE
  8
0
 10
-19.176
 20
7.05089
 11
-19.0543
 21
7.38103
  0
LINE
  8
0
 10
-19.0543
 20
7.38103
 11
-19.0406
 21
7.42419
  0
LINE
  8
0
 10
-19.0406
 20
7.42419
 11
-18.9377
 21
7.80743
  0
LINE
  8
0
 10
-18.9377
 20
7.80743
 11
-18.9296
 21
7.84238
  0
LINE
  8
0
 10
-18.9296
 20
7.84238
 11
-18.8454
 21
8.2787
  0
LINE
  8
0
 10
-18.8454
 20
8.2787
 11
-18.8408
 21
8.30713
  0
LINE
  8
0
 10
-18.8408
 20
8.30713
 11
-18.7753
 21
8.79654
  0
LINE
  8
0
 10
-18.7753
 20
8.79654
 11
-18.7727
 21
8.81992
  0
LINE
  8
0
 10
-18.7727
 20
8.81992
 11
-18.7259
 21
9.36243
  0
LINE
  8
0
 10
-18.7259
 20
9.36243
 11
-18.7246
 21
9.38184
  0
LINE
  8
0
 10
-18.7246
 20
9.38184
 11
-18.6965
 21
9.97742
  0
LINE
  8
0
 10
-18.6965
 20
9.97742
 11
-18.696
 21
9.99376
  0
LINE
  8
0
 10
-18.696
 20
9.99376
 11
-18.6867
 21
10.6424
  0
LINE
  8
0
 10
-18.6867
 20
10.6424
 11
-18.6867
 21
10.6568
  0
LINE
  8
0
 10
-18.6867
 20
10.6568
 11
-18.696
 21
11.3078
  0
LINE
  8
0
 10
-18.696
 20
11.3078
 11
-18.6965
 21
11.3241
  0
LINE
  8
0
 10
-18.6965
 20
11.3241
 11
-18.7246
 21
11.9217
  0
LINE
  8
0
 10
-18.7246
 20
11.9217
 11
-18.7259
 21
11.941
  0
LINE
  8
0
 10
-18.7259
 20
11.941
 11
-18.7727
 21
12.4852
  0
LINE
  8
0
 10
-18.7727
 20
12.4852
 11
-18.7752
 21
12.5085
  0
LINE
  8
0
 10
-18.7752
 20
12.5085
 11
-18.8407
 21
12.9991
  0
LINE
  8
0
 10
-18.8407
 20
12.9991
 11
-18.8454
 21
13.0275
  0
LINE
  8
0
 10
-18.8454
 20
13.0275
 11
-18.9296
 21
13.4648
  0
LINE
  8
0
 10
-18.9296
 20
13.4648
 11
-18.9376
 21
13.4997
  0
LINE
  8
0
 10
-18.9376
 20
13.4997
 11
-19.0406
 21
13.8835
  0
LINE
  8
0
 10
-19.0406
 20
13.8835
 11
-19.0543
 21
13.9267
  0
LINE
  8
0
 10
-19.0543
 20
13.9267
 11
-19.1759
 21
14.257
  0
LINE
  8
0
 10
-19.1759
 20
14.257
 11
-19.1987
 21
14.3093
  0
LINE
  8
0
 10
-19.1987
 20
14.3093
 11
-19.3408
 21
14.5912
  0
LINE
  8
0
 10
-19.3408
 20
14.5912
 11
-19.3756
 21
14.6499
  0
LINE
  8
0
 10
-19.3756
 20
14.6499
 11
-19.54
 21
14.8884
  0
LINE
  8
0
 10
-19.54
 20
14.8884
 11
-19.5904
 21
14.9503
  0
LINE
  8
0
 10
-19.5904
 20
14.9503
 11
-19.7771
 21
15.1455
  0
LINE
  8
0
 10
-19.7771
 20
15.1455
 11
-19.8446
 21
15.2045
  0
LINE
  8
0
 10
-19.8446
 20
15.2045
 11
-20.0537
 21
15.3562
  0
LINE
  8
0
 10
-20.0537
 20
15.3562
 11
-20.0802
 21
15.3742
  0
LINE
  8
0
 10
-20.0802
 20
15.3742
 11
-20.1352
 21
15.4044
  0
LINE
  8
0
 10
-20.1352
 20
15.4044
 11
-20.3666
 21
15.5128
  0
LINE
  8
0
 10
-20.3666
 20
15.5128
 11
-20.4546
 21
15.5444
  0
LINE
  8
0
 10
-20.4546
 20
15.5444
 11
-20.7083
 21
15.6095
  0
LINE
  8
0
 10
-20.7083
 20
15.6095
 11
-20.7933
 21
15.6236
  0
LINE
  8
0
 10
-20.7933
 20
15.6236
 11
-21.0692
 21
15.6453
  0
LINE
  8
0
 10
-21.0692
 20
15.6453
 11
-21.1479
 21
15.6453
  0
LINE
  8
0
 10
-21.1479
 20
15.6453
 11
-21.4216
 21
15.6236
  0
LINE
  8
0
 10
-21.4216
 20
15.6236
 11
-21.5072
 21
15.6093
  0
LINE
  8
0
 10
-21.5072
 20
15.6093
 11
-21.7589
 21
15.5442
  0
LINE
  8
0
 10
-21.7589
 20
15.5442
 11
-21.8472
 21
15.5123
  0
LINE
  8
0
 10
-21.8472
 20
15.5123
 11
-22.077
 21
15.4038
  0
LINE
  8
0
 10
-22.077
 20
15.4038
 11
-22.1055
 21
15.3892
  0
LINE
  8
0
 10
-22.1055
 20
15.3892
 11
-22.1585
 21
15.3554
  0
LINE
  8
0
 10
-22.1585
 20
15.3554
 11
-22.3663
 21
15.2036
  0
LINE
  8
0
 10
-22.3663
 20
15.2036
 11
-22.4334
 21
15.1447
  0
LINE
  8
0
 10
-22.4334
 20
15.1447
 11
-22.6193
 21
14.9495
  0
LINE
  8
0
 10
-22.6193
 20
14.9495
 11
-22.6693
 21
14.8879
  0
LINE
  8
0
 10
-22.6693
 20
14.8879
 11
-22.8332
 21
14.6493
  0
LINE
  8
0
 10
-22.8332
 20
14.6493
 11
-22.8677
 21
14.591
  0
LINE
  8
0
 10
-22.8677
 20
14.591
 11
-23.0097
 21
14.3091
  0
LINE
  8
0
 10
-23.0097
 20
14.3091
 11
-23.0323
 21
14.257
  0
LINE
  8
0
 10
-23.0323
 20
14.257
 11
-23.1539
 21
13.9267
  0
LINE
  8
0
 10
-23.1539
 20
13.9267
 11
-23.1677
 21
13.8834
  0
LINE
  8
0
 10
-23.1677
 20
13.8834
 11
-23.2706
 21
13.4997
  0
LINE
  8
0
 10
-23.2706
 20
13.4997
 11
-23.2786
 21
13.4647
  0
LINE
  8
0
 10
-23.2786
 20
13.4647
 11
-23.3628
 21
13.0275
  0
LINE
  8
0
 10
-23.3628
 20
13.0275
 11
-23.3674
 21
12.9991
  0
LINE
  8
0
 10
-23.3674
 20
12.9991
 11
-23.4329
 21
12.5085
  0
LINE
  8
0
 10
-23.4329
 20
12.5085
 11
-23.4355
 21
12.4852
  0
LINE
  8
0
 10
-23.4355
 20
12.4852
 11
-23.4823
 21
11.941
  0
LINE
  8
0
 10
-23.4823
 20
11.941
 11
-23.4835
 21
11.9217
  0
LINE
  8
0
 10
-23.4835
 20
11.9217
 11
-23.5116
 21
11.3241
  0
LINE
  8
0
 10
-23.5116
 20
11.3241
 11
-23.5121
 21
11.3078
  0
LINE
  8
0
 10
-23.5121
 20
11.3078
 11
-23.5215
 21
10.6568
  0
LINE
  8
0
 10
-23.5215
 20
10.6568
 11
-23.5215
 21
10.6424
  0
LINE
  8
0
 10
-23.5215
 20
10.6424
 11
-23.5121
 21
9.99376
  0
LINE
  8
0
 10
-23.5121
 20
9.99376
 11
-23.5116
 21
9.97743
  0
LINE
  8
0
 10
-23.5116
 20
9.97743
 11
-23.4835
 21
9.38185
  0
LINE
  8
0
 10
-23.4835
 20
9.38185
 11
-23.4822
 21
9.36243
  0
LINE
  8
0
 10
-23.4822
 20
9.36243
 11
-23.4355
 21
8.81992
  0
LINE
  8
0
 10
-23.4355
 20
8.81992
 11
-23.4329
 21
8.79657
  0
LINE
  8
0
 10
-23.4329
 20
8.79657
 11
-23.3674
 21
8.30716
  0
LINE
  8
0
 10
-23.3674
 20
8.30716
 11
-23.3628
 21
8.27872
  0
LINE
  8
0
 10
-23.3628
 20
8.27872
 11
-23.2786
 21
7.84239
  0
LINE
  8
0
 10
-23.2786
 20
7.84239
 11
-23.2705
 21
7.80746
  0
LINE
  8
0
 10
-23.2705
 20
7.80746
 11
-23.1676
 21
7.42422
  0
LINE
  8
0
 10
-23.1676
 20
7.42422
 11
-23.1539
 21
7.38109
  0
LINE
  8
0
 10
-23.1539
 20
7.38109
 11
-23.0323
 21
7.05095
  0
LINE
  8
0
 10
-23.0323
 20
7.05095
 11
-23.0097
 21
6.99884
  0
LINE
  8
0
 10
-23.0097
 20
6.99884
 11
-22.8677
 21
6.71695
  0
LINE
  8
0
 10
-22.8677
 20
6.71695
 11
-22.8332
 21
6.65868
  0
LINE
  8
0
 10
-22.8332
 20
6.65868
 11
-22.6693
 21
6.42015
  0
LINE
  8
0
 10
-22.6693
 20
6.42015
 11
-22.6193
 21
6.35849
  0
LINE
  8
0
 10
-22.6193
 20
6.35849
 11
-22.4334
 21
6.16335
  0
LINE
  8
0
 10
-22.4334
 20
6.16335
 11
-22.3663
 21
6.10442
  0
LINE
  8
0
 10
-22.3663
 20
6.10442
 11
-22.1584
 21
5.95264
  0
LINE
  8
0
 10
-22.1584
 20
5.95264
 11
-22.1319
 21
5.93454
  0
LINE
  8
0
 10
-22.1319
 20
5.93454
 11
-22.0769
 21
5.90424
  0
LINE
  8
0
 10
-22.0769
 20
5.90424
 11
-21.8472
 21
5.79581
  0
LINE
  8
0
 10
-21.8472
 20
5.79581
 11
-21.7589
 21
5.76389
  0
LINE
  8
0
 10
-21.7589
 20
5.76389
 11
-21.5072
 21
5.69884
  0
LINE
  8
0
 10
-21.5072
 20
5.69884
 11
-21.4216
 21
5.68449
  0
LINE
  8
0
 10
-21.4216
 20
5.68449
 11
-21.1479
 21
5.66281
  0
LINE
  8
0
 10
-21.1479
 20
5.66281
 11
-21.0692
 21
5.6628
  0
LINE
  8
0
 10
-21.0692
 20
5.6628
 11
-20.7933
 21
5.68448
  0
LINE
  8
0
 10
-21.3821
 20
6.18294
 11
-21.6338
 21
6.24799
  0
LINE
  8
0
 10
-21.6338
 20
6.24799
 11
-21.8635
 21
6.35641
  0
LINE
  8
0
 10
-21.8635
 20
6.35641
 11
-22.0714
 21
6.50819
  0
LINE
  8
0
 10
-22.0714
 20
6.50819
 11
-22.2572
 21
6.70334
  0
LINE
  8
0
 10
-22.2572
 20
6.70334
 11
-22.4211
 21
6.94186
  0
LINE
  8
0
 10
-22.4211
 20
6.94186
 11
-22.5631
 21
7.22375
  0
LINE
  8
0
 10
-22.5631
 20
7.22375
 11
-22.6847
 21
7.55389
  0
LINE
  8
0
 10
-22.6847
 20
7.55389
 11
-22.7876
 21
7.93713
  0
LINE
  8
0
 10
-22.7876
 20
7.93713
 11
-22.8718
 21
8.37346
  0
LINE
  8
0
 10
-22.8718
 20
8.37346
 11
-22.9373
 21
8.86287
  0
LINE
  8
0
 10
-22.9373
 20
8.86287
 11
-22.9841
 21
9.40538
  0
LINE
  8
0
 10
-22.9841
 20
9.40538
 11
-23.0121
 21
10.001
  0
LINE
  8
0
 10
-23.0121
 20
10.001
 11
-23.0215
 21
10.6496
  0
LINE
  8
0
 10
-23.0215
 20
10.6496
 11
-23.0121
 21
11.3006
  0
LINE
  8
0
 10
-23.0121
 20
11.3006
 11
-22.9841
 21
11.8982
  0
LINE
  8
0
 10
-22.9841
 20
11.8982
 11
-22.9373
 21
12.4423
  0
LINE
  8
0
 10
-22.9373
 20
12.4423
 11
-22.8718
 21
12.933
  0
LINE
  8
0
 10
-22.8718
 20
12.933
 11
-22.7876
 21
13.3702
  0
LINE
  8
0
 10
-22.7876
 20
13.3702
 11
-22.6847
 21
13.7539
  0
LINE
  8
0
 10
-22.6847
 20
13.7539
 11
-22.5631
 21
14.0842
  0
LINE
  8
0
 10
-22.5631
 20
14.0842
 11
-22.4211
 21
14.3661
  0
LINE
  8
0
 10
-22.4211
 20
14.3661
 11
-22.2572
 21
14.6047
  0
LINE
  8
0
 10
-22.2572
 20
14.6047
 11
-22.0714
 21
14.7999
  0
LINE
  8
0
 10
-22.0714
 20
14.7999
 11
-21.8635
 21
14.9517
  0
LINE
  8
0
 10
-21.8635
 20
14.9517
 11
-21.6338
 21
15.0601
  0
LINE
  8
0
 10
-21.6338
 20
15.0601
 11
-21.3821
 21
15.1252
  0
LINE
  8
0
 10
-21.3821
 20
15.1252
 11
-21.1084
 21
15.1468
  0
LINE
  8
0
 10
-21.1084
 20
15.1468
 11
-20.8325
 21
15.1252
  0
LINE
  8
0
 10
-20.8325
 20
15.1252
 11
-20.5788
 21
15.0601
  0
LINE
  8
0
 10
-20.5788
 20
15.0601
 11
-20.3475
 21
14.9517
  0
LINE
  8
0
 10
-20.3475
 20
14.9517
 11
-20.1384
 21
14.7999
  0
LINE
  8
0
 10
-20.1384
 20
14.7999
 11
-19.9517
 21
14.6047
  0
LINE
  8
0
 10
-19.9517
 20
14.6047
 11
-19.7873
 21
14.3661
  0
LINE
  8
0
 10
-19.7873
 20
14.3661
 11
-19.6451
 21
14.0842
  0
LINE
  8
0
 10
-19.6451
 20
14.0842
 11
-19.5235
 21
13.7539
  0
LINE
  8
0
 10
-19.5235
 20
13.7539
 11
-19.4206
 21
13.3702
  0
LINE
  8
0
 10
-19.4206
 20
13.3702
 11
-19.3363
 21
12.933
  0
LINE
  8
0
 10
-19.3363
 20
12.933
 11
-19.2708
 21
12.4423
  0
LINE
  8
0
 10
-19.2708
 20
12.4423
 11
-19.2241
 21
11.8982
  0
LINE
  8
0
 10
-19.2241
 20
11.8982
 11
-19.196
 21
11.3006
  0
LINE
  8
0
 10
-19.196
 20
11.3006
 11
-19.1866
 21
10.6496
  0
LINE
  8
0
 10
-19.1866
 20
10.6496
 11
-19.196
 21
10.001
  0
LINE
  8
0
 10
-19.196
 20
10.001
 11
-19.2241
 21
9.40538
  0
LINE
  8
0
 10
-19.2241
 20
9.40538
 11
-19.2708
 21
8.86287
  0
LINE
  8
0
 10
-19.2708
 20
8.86287
 11
-19.3363
 21
8.37346
  0
LINE
  8
0
 10
-19.3363
 20
8.37346
 11
-19.4206
 21
7.93713
  0
LINE
  8
0
 10
-19.4206
 20
7.93713
 11
-19.5235
 21
7.55389
  0
LINE
  8
0
 10
-19.5235
 20
7.55389
 11
-19.6451
 21
7.22375
  0
LINE
  8
0
 10
-19.6451
 20
7.22375
 11
-19.7873
 21
6.94186
  0
LINE
  8
0
 10
-19.7873
 20
6.94186
 11
-19.9517
 21
6.70334
  0
LINE
  8
0
 10
-19.9517
 20
6.70334
 11
-20.1384
 21
6.50819
  0
LINE
  8
0
 10
-20.1384
 20
6.50819
 11
-20.3475
 21
6.35641
  0
LINE
  8
0
 10
-20.3475
 20
6.35641
 11
-20.5788
 21
6.24799
  0
LINE
  8
0
 10
-20.5788
 20
6.24799
 11
-20.8325
 21
6.18294
  0
LINE
  8
0
 10
-20.8325
 20
6.18294
 11
-21.1084
 21
6.16125
  0
LINE
  8
0
 10
-21.1084
 20
6.16125
 11
-21.3821
 21
6.18294
  0
LINE
  8
0
 10
-1.49942
 20
9.93854
 11
1.75356
 21
9.93854
  0
LINE
  8
0
 10
1.75356
 20
9.93854
 11
1.75356
 21
4.08125
  0
LINE
  8
0
 10
1.75356
 20
4.08125
 11
4.3542
 21
4.08125
  0
LINE
  8
0
 10
4.3542
 20
4.08125
 11
4.3542
 21
17.2435
  0
LINE
  8
0
 10
4.3542
 20
17.2435
 11
1.75356
 21
17.2435
  0
LINE
  8
0
 10
1.75356
 20
17.2435
 11
1.75356
 21
12.2265
  0
LINE
  8
0
 10
1.75356
 20
12.2265
 11
-1.49942
 21
12.2265
  0
LINE
  8
0
 10
-1.49942
 20
12.2265
 11
-1.49942
 21
17.2435
  0
LINE
  8
0
 10
-1.49942
 20
17.2435
 11
-4.10008
 21
17.2435
  0
LINE
  8
0
 10
-4.10008
 20
17.2435
 11
-4.10008
 21
4.08125
  0
LINE
  8
0
 10
-4.10008
 20
4.08125
 11
-1.49942
 21
4.08125
  0
LINE
  8
0
 10
-1.49942
 20
4.08125
 11
-1.49942
 21
9.93854
  0
LINE
  8
0
 10
-3.60008
 20
4.58125
 11
-3.60008
 21
16.7435
  0
LINE
  8
0
 10
-3.60008
 20
16.7435
 11
-1.99942
 21
16.7435
  0
LINE
  8
0
 10
-1.99942
 20
16.7435
 11
-1.99942
 21
12.2265
  0
LINE
  8
0
 10
-1.99942
 20
12.2265
 11
-1.99057
 21
12.1328
  0
LINE
  8
0
 10
-1.99057
 20
12.1328
 11
-1.97495
 21
12.072
  0
LINE
  8
0
 10
-1.97495
 20
12.072
 11
-1.95183
 21
12.0136
  0
LINE
  8
0
 10
-1.95183
 20
12.0136
 11
-1.92159
 21
11.9586
  0
LINE
  8
0
 10
-1.92159
 20
11.9586
 11
-1.88467
 21
11.9078
  0
LINE
  8
0
 10
-1.88467
 20
11.9078
 11
-1.84169
 21
11.862
  0
LINE
  8
0
 10
-1.84169
 20
11.862
 11
-1.79332
 21
11.822
  0
LINE
  8
0
 10
-1.79332
 20
11.822
 11
-1.7403
 21
11.7884
  0
LINE
  8
0
 10
-1.7403
 20
11.7884
 11
-1.68349
 21
11.7616
  0
LINE
  8
0
 10
-1.68349
 20
11.7616
 11
-1.62376
 21
11.7422
  0
LINE
  8
0
 10
-1.62376
 20
11.7422
 11
-1.56209
 21
11.7305
  0
LINE
  8
0
 10
-1.56209
 20
11.7305
 11
-1.49942
 21
11.7265
  0
LINE
  8
0
 10
-1.49942
 20
11.7265
 11
1.75356
 21
11.7265
  0
LINE
  8
0
 10
1.75356
 20
11.7265
 11
1.84724
 21
11.7354
  0
LINE
  8
0
 10
1.84724
 20
11.7354
 11
1.90807
 21
11.751
  0
LINE
  8
0
 10
1.90807
 20
11.751
 11
1.96645
 21
11.7741
  0
LINE
  8
0
 10
1.96645
 20
11.7741
 11
2.02147
 21
11.8044
  0
LINE
  8
0
 10
2.02147
 20
11.8044
 11
2.07227
 21
11.8413
  0
LINE
  8
0
 10
2.07227
 20
11.8413
 11
2.11804
 21
11.8842
  0
LINE
  8
0
 10
2.11804
 20
11.8842
 11
2.15807
 21
11.9326
  0
LINE
  8
0
 10
2.15807
 20
11.9326
 11
2.19171
 21
11.9856
  0
LINE
  8
0
 10
2.19171
 20
11.9856
 11
2.21844
 21
12.0424
  0
LINE
  8
0
 10
2.21844
 20
12.0424
 11
2.23785
 21
12.1022
  0
LINE
  8
0
 10
2.23785
 20
12.1022
 11
2.24962
 21
12.1638
  0
LINE
  8
0
 10
2.24962
 20
12.1638
 11
2.25356
 21
12.2265
  0
LINE
  8
0
 10
2.25356
 20
12.2265
 11
2.25356
 21
16.7435
  0
LINE
  8
0
 10
2.25356
 20
16.7435
 11
3.8542
 21
16.7435
  0
LINE
  8
0
 10
3.8542
 20
16.7435
 11
3.8542
 21
4.58125
  0
LINE
  8
0
 10
3.8542
 20
4.58125
 11
2.25356
 21
4.58125
  0
LINE
  8
0
 10
2.25356
 20
4.58125
 11
2.25356
 21
9.93854
  0
LINE
  8
0
 10
2.25356
 20
9.93854
 11
2.24471
 21
10.0322
  0
LINE
  8
0
 10
2.24471
 20
10.0322
 11
2.22908
 21
10.093
  0
LINE
  8
0
 10
2.22908
 20
10.093
 11
2.20596
 21
10.1514
  0
LINE
  8
0
 10
2.20596
 20
10.1514
 11
2.17572
 21
10.2065
  0
LINE
  8
0
 10
2.17572
 20
10.2065
 11
2.13881
 21
10.2572
  0
LINE
  8
0
 10
2.13881
 20
10.2572
 11
2.09583
 21
10.303
  0
LINE
  8
0
 10
2.09583
 20
10.303
 11
2.04745
 21
10.343
  0
LINE
  8
0
 10
2.04745
 20
10.343
 11
1.99443
 21
10.3767
  0
LINE
  8
0
 10
1.99443
 20
10.3767
 11
1.93762
 21
10.4034
  0
LINE
  8
0
 10
1.93762
 20
10.4034
 11
1.8779
 21
10.4228
  0
LINE
  8
0
 10
1.8779
 20
10.4228
 11
1.81622
 21
10.4346
  0
LINE
  8
0
 10
1.81622
 20
10.4346
 11
1.75356
 21
10.4385
  0
LINE
  8
0
 10
1.75356
 20
10.4385
 11
-1.49942
 21
10.4385
  0
LINE
  8
0
 10
-1.49942
 20
10.4385
 11
-1.59311
 21
10.4297
  0
LINE
  8
0
 10
-1.59311
 20
10.4297
 11
-1.65393
 21
10.4141
  0
LINE
  8
0
 10
-1.65393
 20
10.4141
 11
-1.71231
 21
10.3909
  0
LINE
  8
0
 10
-1.71231
 20
10.3909
 11
-1.76733
 21
10.3607
  0
LINE
  8
0
 10
-1.76733
 20
10.3607
 11
-1.81813
 21
10.3238
  0
LINE
  8
0
 10
-1.81813
 20
10.3238
 11
-1.86391
 21
10.2808
  0
LINE
  8
0
 10
-1.86391
 20
10.2808
 11
-1.90393
 21
10.2324
  0
LINE
  8
0
 10
-1.90393
 20
10.2324
 11
-1.93758
 21
10.1794
  0
LINE
  8
0
 10
-1.93758
 20
10.1794
 11
-1.96431
 21
10.1226
  0
LINE
  8
0
 10
-1.96431
 20
10.1226
 11
-1.98372
 21
10.0629
  0
LINE
  8
0
 10
-1.98372
 20
10.0629
 11
-1.99548
 21
10.0012
  0
LINE
  8
0
 10
-1.99548
 20
10.0012
 11
-1.99942
 21
9.93854
  0
LINE
  8
0
 10
-1.99942
 20
9.93854
 11
-1.99942
 21
4.58125
  0
LINE
  8
0
 10
-1.99942
 20
4.58125
 11
-3.60008
 21
4.58125
  0
LINE
  8
0
 10
24.1395
 20
10.5542
 11
18.5769
 21
10.5542
  0
LINE
  8
0
 10
18.5769
 20
10.5542
 11
18.5769
 21
7.99165
  0
LINE
  8
0
 10
18.5769
 20
7.99165
 11
24.1395
 21
7.99165
  0
LINE
  8
0
 10
24.1395
 20
7.99165
 11
24.1395
 21
10.5542
  0
LINE
  8
0
 10
19.0769
 20
8.49165
 11
19.0769
 21
10.0542
  0
LINE
  8
0
 10
19.0769
 20
10.0542
 11
23.6395
 21
10.0542
  0
LINE
  8
0
 10
23.6395
 20
10.0542
 11
23.6395
 21
8.49165
  0
LINE
  8
0
 10
23.6395
 20
8.49165
 11
19.0769
 21
8.49165
  0
LINE
  8
0
 10
-2.3105
 20
-6.38388
 11
-0.899994
 21
-12.1429
  0
LINE
  8
0
 10
-0.899994
 20
-12.1429
 11
1.17168
 21
-12.1429
  0
LINE
  8
0
 10
1.17168
 20
-12.1429
 11
2.56462
 21
-6.38388
  0
LINE
  8
0
 10
2.56462
 20
-6.38388
 11
2.56462
 21
-16.9269
  0
LINE
  8
0
 10
2.56462
 20
-16.9269
 11
4.80374
 21
-16.9269
  0
LINE
  8
0
 10
4.80374
 20
-16.9269
 11
4.80374
 21
-3.76465
  0
LINE
  8
0
 10
4.80374
 20
-3.76465
 11
1.68295
 21
-3.76465
  0
LINE
  8
0
 10
1.68295
 20
-3.76465
 11
0.122696
 21
-9.5412
  0
LINE
  8
0
 10
0.122696
 20
-9.5412
 11
-1.44652
 21
-3.76465
  0
LINE
  8
0
 10
-1.44652
 20
-3.76465
 11
-4.54962
 21
-3.76465
  0
LINE
  8
0
 10
-4.54962
 20
-3.76465
 11
-4.54962
 21
-16.9269
  0
LINE
  8
0
 10
-4.54962
 20
-16.9269
 11
-2.3105
 21
-16.9269
  0
LINE
  8
0
 10
-2.3105
 20
-16.9269
 11
-2.3105
 21
-6.38388
  0
LINE
  8
0
 10
-4.04962
 20
-16.4269
 11
-4.04962
 21
-4.26465
  0
LINE
  8
0
 10
-4.04962
 20
-4.26465
 11
-1.82881
 21
-4.26465
  0
LINE
  8
0
 10
-1.82881
 20
-4.26465
 11
-0.359818
 21
-9.67227
  0
LINE
  8
0
 10
-0.359818
 20
-9.67227
 11
-0.344452
 21
-9.71945
  0
LINE
  8
0
 10
-0.344452
 20
-9.71945
 11
-0.318436
 21
-9.7766
  0
LINE
  8
0
 10
-0.318436
 20
-9.7766
 11
-0.285446
 21
-9.83002
  0
LINE
  8
0
 10
-0.285446
 20
-9.83002
 11
-0.246033
 21
-9.87889
  0
LINE
  8
0
 10
-0.246033
 20
-9.87889
 11
-0.200806
 21
-9.92245
  0
LINE
  8
0
 10
-0.200806
 20
-9.92245
 11
-0.150467
 21
-9.95999
  0
LINE
  8
0
 10
-0.150467
 20
-9.95999
 11
-0.0958252
 21
-9.99092
  0
LINE
  8
0
 10
-0.0958252
 20
-9.99092
 11
-0.037735
 21
-10.0148
  0
LINE
  8
0
 10
-0.037735
 20
-10.0148
 11
0.0228882
 21
-10.0311
  0
LINE
  8
0
 10
0.0228882
 20
-10.0311
 11
0.085083
 21
-10.0398
  0
LINE
  8
0
 10
0.085083
 20
-10.0398
 11
0.147858
 21
-10.0406
  0
LINE
  8
0
 10
0.147858
 20
-10.0406
 11
0.210251
 21
-10.0335
  0
LINE
  8
0
 10
0.210251
 20
-10.0335
 11
0.271255
 21
-10.0186
  0
LINE
  8
0
 10
0.271255
 20
-10.0186
 11
0.329926
 21
-9.99623
  0
LINE
  8
0
 10
0.329926
 20
-9.99623
 11
0.385315
 21
-9.96667
  0
LINE
  8
0
 10
0.385315
 20
-9.96667
 11
0.436569
 21
-9.9304
  0
LINE
  8
0
 10
0.436569
 20
-9.9304
 11
0.48288
 21
-9.888
  0
LINE
  8
0
 10
0.48288
 20
-9.888
 11
0.523499
 21
-9.84012
  0
LINE
  8
0
 10
0.523499
 20
-9.84012
 11
0.557816
 21
-9.78752
  0
LINE
  8
0
 10
0.557816
 20
-9.78752
 11
0.585251
 21
-9.73105
  0
LINE
  8
0
 10
0.585251
 20
-9.73105
 11
0.605392
 21
-9.67159
  0
LINE
  8
0
 10
0.605392
 20
-9.67159
 11
2.06581
 21
-4.26465
  0
LINE
  8
0
 10
2.06581
 20
-4.26465
 11
4.30374
 21
-4.26465
  0
LINE
  8
0
 10
4.30374
 20
-4.26465
 11
4.30374
 21
-16.4269
  0
LINE
  8
0
 10
4.30374
 20
-16.4269
 11
3.06462
 21
-16.4269
  0
LINE
  8
0
 10
3.06462
 20
-16.4269
 11
3.06462
 21
-6.38388
  0
LINE
  8
0
 10
3.06462
 20
-6.38388
 11
3.05975
 21
-6.31427
  0
LINE
  8
0
 10
3.05975
 20
-6.31427
 11
3.04712
 21
-6.25276
  0
LINE
  8
0
 10
3.04712
 20
-6.25276
 11
3.02689
 21
-6.19333
  0
LINE
  8
0
 10
3.02689
 20
-6.19333
 11
2.99936
 21
-6.13689
  0
LINE
  8
0
 10
2.99936
 20
-6.13689
 11
2.96497
 21
-6.08435
  0
LINE
  8
0
 10
2.96497
 20
-6.08435
 11
2.92427
 21
-6.03653
  0
LINE
  8
0
 10
2.92427
 20
-6.03653
 11
2.8779
 21
-5.9942
  0
LINE
  8
0
 10
2.8779
 20
-5.9942
 11
2.8266
 21
-5.95801
  0
LINE
  8
0
 10
2.8266
 20
-5.95801
 11
2.77115
 21
-5.92853
  0
LINE
  8
0
 10
2.77115
 20
-5.92853
 11
2.71245
 21
-5.90623
  0
LINE
  8
0
 10
2.71245
 20
-5.90623
 11
2.65143
 21
-5.89148
  0
LINE
  8
0
 10
2.65143
 20
-5.89148
 11
2.58902
 21
-5.88448
  0
LINE
  8
0
 10
2.58902
 20
-5.88448
 11
2.52623
 21
-5.88536
  0
LINE
  8
0
 10
2.52623
 20
-5.88536
 11
2.46405
 21
-5.8941
  0
LINE
  8
0
 10
2.46405
 20
-5.8941
 11
2.40346
 21
-5.91057
  0
LINE
  8
0
 10
2.40346
 20
-5.91057
 11
2.34541
 21
-5.93449
  0
LINE
  8
0
 10
2.34541
 20
-5.93449
 11
2.29082
 21
-5.96552
  0
LINE
  8
0
 10
2.29082
 20
-5.96552
 11
2.24054
 21
-6.00313
  0
LINE
  8
0
 10
2.24054
 20
-6.00313
 11
2.19537
 21
-6.04675
  0
LINE
  8
0
 10
2.19537
 20
-6.04675
 11
2.15604
 21
-6.09569
  0
LINE
  8
0
 10
2.15604
 20
-6.09569
 11
2.12314
 21
-6.14917
  0
LINE
  8
0
 10
2.12314
 20
-6.14917
 11
2.0972
 21
-6.20634
  0
LINE
  8
0
 10
2.0972
 20
-6.20634
 11
2.07863
 21
-6.26633
  0
LINE
  8
0
 10
2.07863
 20
-6.26633
 11
0.778183
 21
-11.6429
  0
LINE
  8
0
 10
0.778183
 20
-11.6429
 11
-0.507675
 21
-11.6429
  0
LINE
  8
0
 10
-0.507675
 20
-11.6429
 11
-1.82486
 21
-6.26494
  0
LINE
  8
0
 10
-1.82486
 20
-6.26494
 11
-1.84561
 21
-6.19981
  0
LINE
  8
0
 10
-1.84561
 20
-6.19981
 11
-1.87234
 21
-6.14301
  0
LINE
  8
0
 10
-1.87234
 20
-6.14301
 11
-1.90599
 21
-6.08998
  0
LINE
  8
0
 10
-1.90599
 20
-6.08998
 11
-1.94601
 21
-6.04161
  0
LINE
  8
0
 10
-1.94601
 20
-6.04161
 11
-1.99179
 21
-5.99863
  0
LINE
  8
0
 10
-1.99179
 20
-5.99863
 11
-2.04259
 21
-5.96172
  0
LINE
  8
0
 10
-2.04259
 20
-5.96172
 11
-2.09761
 21
-5.93147
  0
LINE
  8
0
 10
-2.09761
 20
-5.93147
 11
-2.15599
 21
-5.90836
  0
LINE
  8
0
 10
-2.15599
 20
-5.90836
 11
-2.21681
 21
-5.89273
  0
LINE
  8
0
 10
-2.21681
 20
-5.89273
 11
-2.2791
 21
-5.88487
  0
LINE
  8
0
 10
-2.2791
 20
-5.88487
 11
-2.3419
 21
-5.88487
  0
LINE
  8
0
 10
-2.3419
 20
-5.88487
 11
-2.40419
 21
-5.89273
  0
LINE
  8
0
 10
-2.40419
 20
-5.89273
 11
-2.46501
 21
-5.90836
  0
LINE
  8
0
 10
-2.46501
 20
-5.90836
 11
-2.52339
 21
-5.93147
  0
LINE
  8
0
 10
-2.52339
 20
-5.93147
 11
-2.57841
 21
-5.96172
  0
LINE
  8
0
 10
-2.57841
 20
-5.96172
 11
-2.62921
 21
-5.99863
  0
LINE
  8
0
 10
-2.62921
 20
-5.99863
 11
-2.67499
 21
-6.04161
  0
LINE
  8
0
 10
-2.67499
 20
-6.04161
 11
-2.71501
 21
-6.08998
  0
LINE
  8
0
 10
-2.71501
 20
-6.08998
 11
-2.74866
 21
-6.14301
  0
LINE
  8
0
 10
-2.74866
 20
-6.14301
 11
-2.77539
 21
-6.19981
  0
LINE
  8
0
 10
-2.77539
 20
-6.19981
 11
-2.7948
 21
-6.25954
  0
LINE
  8
0
 10
-2.7948
 20
-6.25954
 11
-2.80656
 21
-6.32121
  0
LINE
  8
0
 10
-2.80656
 20
-6.32121
 11
-2.8105
 21
-6.38388
  0
LINE
  8
0
 10
-2.8105
 20
-6.38388
 11
-2.8105
 21
-16.4269
  0
LINE
  8
0
 10
-2.8105
 20
-16.4269
 11
-4.04962
 21
-16.4269
  0
LINE
  8
0
 10
-12.2384
 20
-13.6738
 11
-8.75618
 21
-13.6738
  0
LINE
  8
0
 10
-8.75618
 20
-13.6738
 11
-7.94524
 21
-16.9269
  0
LINE
  8
0
 10
-7.94524
 20
-16.9269
 11
-5.34459
 21
-16.9269
  0
LINE
  8
0
 10
-5.34459
 20
-16.9269
 11
-8.89723
 21
-3.76465
  0
LINE
  8
0
 10
-8.89723
 20
-3.76465
 11
-12.0798
 21
-3.76465
  0
LINE
  8
0
 10
-12.0798
 20
-3.76465
 11
-15.6324
 21
-16.9269
  0
LINE
  8
0
 10
-15.6324
 20
-16.9269
 11
-13.0318
 21
-16.9269
  0
LINE
  8
0
 10
-13.0318
 20
-16.9269
 11
-12.2384
 21
-13.6738
  0
LINE
  8
0
 10
-14.9796
 20
-16.4269
 11
-11.6968
 21
-4.26465
  0
LINE
  8
0
 10
-11.6968
 20
-4.26465
 11
-9.28017
 21
-4.26465
  0
LINE
  8
0
 10
-9.28017
 20
-4.26465
 11
-5.99744
 21
-16.4269
  0
LINE
  8
0
 10
-5.99744
 20
-16.4269
 11
-7.55458
 21
-16.4269
  0
LINE
  8
0
 10
-7.55458
 20
-16.4269
 11
-8.27103
 21
-13.5528
  0
LINE
  8
0
 10
-8.27103
 20
-13.5528
 11
-8.28065
 21
-13.5192
  0
LINE
  8
0
 10
-8.28065
 20
-13.5192
 11
-8.30377
 21
-13.4609
  0
LINE
  8
0
 10
-8.30377
 20
-13.4609
 11
-8.33401
 21
-13.4058
  0
LINE
  8
0
 10
-8.33401
 20
-13.4058
 11
-8.37093
 21
-13.355
  0
LINE
  8
0
 10
-8.37093
 20
-13.355
 11
-8.41391
 21
-13.3093
  0
LINE
  8
0
 10
-8.41391
 20
-13.3093
 11
-8.46228
 21
-13.2692
  0
LINE
  8
0
 10
-8.46228
 20
-13.2692
 11
-8.5153
 21
-13.2356
  0
LINE
  8
0
 10
-8.5153
 20
-13.2356
 11
-8.57211
 21
-13.2089
  0
LINE
  8
0
 10
-8.57211
 20
-13.2089
 11
-8.63184
 21
-13.1895
  0
LINE
  8
0
 10
-8.63184
 20
-13.1895
 11
-8.69351
 21
-13.1777
  0
LINE
  8
0
 10
-8.69351
 20
-13.1777
 11
-8.75618
 21
-13.1738
  0
LINE
  8
0
 10
-8.75618
 20
-13.1738
 11
-12.2384
 21
-13.1738
  0
LINE
  8
0
 10
-12.2384
 20
-13.1738
 11
-12.2758
 21
-13.1752
  0
LINE
  8
0
 10
-12.2758
 20
-13.1752
 11
-12.338
 21
-13.1838
  0
LINE
  8
0
 10
-12.338
 20
-13.1838
 11
-12.3986
 21
-13.2001
  0
LINE
  8
0
 10
-12.3986
 20
-13.2001
 11
-12.4567
 21
-13.224
  0
LINE
  8
0
 10
-12.4567
 20
-13.224
 11
-12.5114
 21
-13.2549
  0
LINE
  8
0
 10
-12.5114
 20
-13.2549
 11
-12.5617
 21
-13.2924
  0
LINE
  8
0
 10
-12.5617
 20
-13.2924
 11
-12.607
 21
-13.3359
  0
LINE
  8
0
 10
-12.607
 20
-13.3359
 11
-12.6464
 21
-13.3848
  0
LINE
  8
0
 10
-12.6464
 20
-13.3848
 11
-12.6794
 21
-13.4382
  0
LINE
  8
0
 10
-12.6794
 20
-13.4382
 11
-12.7054
 21
-13.4953
  0
LINE
  8
0
 10
-12.7054
 20
-13.4953
 11
-12.7241
 21
-13.5553
  0
LINE
  8
0
 10
-12.7241
 20
-13.5553
 11
-13.4245
 21
-16.4269
  0
LINE
  8
0
 10
-13.4245
 20
-16.4269
 11
-14.9796
 21
-16.4269
  0
LINE
  8
0
 10
-9.17798
 20
-12.0289
 11
-9.11678
 21
-12.0149
  0
LINE
  8
0
 10
-9.11678
 20
-12.0149
 11
-9.0578
 21
-11.9933
  0
LINE
  8
0
 10
-9.0578
 20
-11.9933
 11
-9.002
 21
-11.9646
  0
LINE
  8
0
 10
-9.002
 20
-11.9646
 11
-8.95026
 21
-11.929
  0
LINE
  8
0
 10
-8.95026
 20
-11.929
 11
-8.90337
 21
-11.8872
  0
LINE
  8
0
 10
-8.90337
 20
-11.8872
 11
-8.86209
 21
-11.8399
  0
LINE
  8
0
 10
-8.86209
 20
-11.8399
 11
-8.82707
 21
-11.7878
  0
LINE
  8
0
 10
-8.82707
 20
-11.7878
 11
-8.79886
 21
-11.7317
  0
LINE
  8
0
 10
-8.79886
 20
-11.7317
 11
-8.77789
 21
-11.6725
  0
LINE
  8
0
 10
-8.77789
 20
-11.6725
 11
-8.76451
 21
-11.6112
  0
LINE
  8
0
 10
-8.76451
 20
-11.6112
 11
-8.75893
 21
-11.5486
  0
LINE
  8
0
 10
-8.75893
 20
-11.5486
 11
-8.76123
 21
-11.4859
  0
LINE
  8
0
 10
-8.76123
 20
-11.4859
 11
-8.77138
 21
-11.4239
  0
LINE
  8
0
 10
-8.77138
 20
-11.4239
 11
-10.0055
 21
-6.03464
  0
LINE
  8
0
 10
-10.0055
 20
-6.03464
 11
-10.0333
 21
-5.94934
  0
LINE
  8
0
 10
-10.0333
 20
-5.94934
 11
-10.0616
 21
-5.8933
  0
LINE
  8
0
 10
-10.0616
 20
-5.8933
 11
-10.0967
 21
-5.84123
  0
LINE
  8
0
 10
-10.0967
 20
-5.84123
 11
-10.138
 21
-5.79398
  0
LINE
  8
0
 10
-10.138
 20
-5.79398
 11
-10.185
 21
-5.75229
  0
LINE
  8
0
 10
-10.185
 20
-5.75229
 11
-10.2368
 21
-5.7168
  0
LINE
  8
0
 10
-10.2368
 20
-5.7168
 11
-10.2926
 21
-5.6881
  0
LINE
  8
0
 10
-10.2926
 20
-5.6881
 11
-10.3516
 21
-5.66661
  0
LINE
  8
0
 10
-10.3516
 20
-5.66661
 11
-10.4128
 21
-5.65268
  0
LINE
  8
0
 10
-10.4128
 20
-5.65268
 11
-10.4753
 21
-5.64655
  0
LINE
  8
0
 10
-10.4753
 20
-5.64655
 11
-10.5381
 21
-5.64828
  0
LINE
  8
0
 10
-10.5381
 20
-5.64828
 11
-10.6001
 21
-5.65788
  0
LINE
  8
0
 10
-10.6001
 20
-5.65788
 11
-10.6605
 21
-5.67519
  0
LINE
  8
0
 10
-10.6605
 20
-5.67519
 11
-10.7182
 21
-5.69991
  0
LINE
  8
0
 10
-10.7182
 20
-5.69991
 11
-10.7724
 21
-5.73167
  0
LINE
  8
0
 10
-10.7724
 20
-5.73167
 11
-10.8221
 21
-5.76997
  0
LINE
  8
0
 10
-10.8221
 20
-5.76997
 11
-10.8667
 21
-5.81421
  0
LINE
  8
0
 10
-10.8667
 20
-5.81421
 11
-10.9054
 21
-5.86369
  0
LINE
  8
0
 10
-10.9054
 20
-5.86369
 11
-10.9375
 21
-5.91762
  0
LINE
  8
0
 10
-10.9375
 20
-5.91762
 11
-10.9627
 21
-5.97514
  0
LINE
  8
0
 10
-10.9627
 20
-5.97514
 11
-10.9804
 21
-6.03539
  0
LINE
  8
0
 10
-10.9804
 20
-6.03539
 11
-12.2058
 21
-11.4247
  0
LINE
  8
0
 10
-12.2058
 20
-11.4247
 11
-12.2172
 21
-11.5041
  0
LINE
  8
0
 10
-12.2172
 20
-11.5041
 11
-12.2172
 21
-11.5669
  0
LINE
  8
0
 10
-12.2172
 20
-11.5669
 11
-12.2094
 21
-11.6292
  0
LINE
  8
0
 10
-12.2094
 20
-11.6292
 11
-12.1938
 21
-11.69
  0
LINE
  8
0
 10
-12.1938
 20
-11.69
 11
-12.1706
 21
-11.7484
  0
LINE
  8
0
 10
-12.1706
 20
-11.7484
 11
-12.1404
 21
-11.8034
  0
LINE
  8
0
 10
-12.1404
 20
-11.8034
 11
-12.1035
 21
-11.8542
  0
LINE
  8
0
 10
-12.1035
 20
-11.8542
 11
-12.0605
 21
-11.9
  0
LINE
  8
0
 10
-12.0605
 20
-11.9
 11
-12.0121
 21
-11.94
  0
LINE
  8
0
 10
-12.0121
 20
-11.94
 11
-11.9591
 21
-11.9737
  0
LINE
  8
0
 10
-11.9591
 20
-11.9737
 11
-11.9023
 21
-12.0004
  0
LINE
  8
0
 10
-11.9023
 20
-12.0004
 11
-11.8426
 21
-12.0198
  0
LINE
  8
0
 10
-11.8426
 20
-12.0198
 11
-11.7809
 21
-12.0316
  0
LINE
  8
0
 10
-11.7809
 20
-12.0316
 11
-11.7182
 21
-12.0355
  0
LINE
  8
0
 10
-11.7182
 20
-12.0355
 11
-9.25876
 21
-12.0355
  0
LINE
  8
0
 10
-9.25876
 20
-12.0355
 11
-9.17798
 21
-12.0289
  0
LINE
  8
0
 10
-11.7182
 20
-11.5355
 11
-10.4929
 21
-6.14624
  0
LINE
  8
0
 10
-10.4929
 20
-6.14624
 11
-9.25876
 21
-11.5355
  0
LINE
  8
0
 10
-9.25876
 20
-11.5355
 11
-11.7182
 21
-11.5355
  0
LINE
  8
0
 10
9.33647
 20
-12.0014
 11
10.3063
 21
-12.0014
  0
LINE
  8
0
 10
10.3063
 20
-12.0014
 11
11.0533
 21
-11.9816
  0
LINE
  8
0
 10
11.0533
 20
-11.9816
 11
11.738
 21
-11.9222
  0
LINE
  8
0
 10
11.738
 20
-11.9222
 11
12.3602
 21
-11.8233
  0
LINE
  8
0
 10
12.3602
 20
-11.8233
 11
12.92
 21
-11.6847
  0
LINE
  8
0
 10
12.92
 20
-11.6847
 11
13.4173
 21
-11.5065
  0
LINE
  8
0
 10
13.4173
 20
-11.5065
 11
13.8522
 21
-11.2887
  0
LINE
  8
0
 10
13.8522
 20
-11.2887
 11
14.2247
 21
-11.0314
  0
LINE
  8
0
 10
14.2247
 20
-11.0314
 11
14.5417
 21
-10.7296
  0
LINE
  8
0
 10
14.5417
 20
-10.7296
 11
14.8098
 21
-10.3784
  0
LINE
  8
0
 10
14.8098
 20
-10.3784
 11
15.0292
 21
-9.97798
  0
LINE
  8
0
 10
15.0292
 20
-9.97798
 11
15.1999
 21
-9.52823
  0
LINE
  8
0
 10
15.1999
 20
-9.52823
 11
15.3218
 21
-9.02914
  0
LINE
  8
0
 10
15.3218
 20
-9.02914
 11
15.3949
 21
-8.48074
  0
LINE
  8
0
 10
15.3949
 20
-8.48074
 11
15.4193
 21
-7.88304
  0
LINE
  8
0
 10
15.4193
 20
-7.88304
 11
15.3949
 21
-7.28534
  0
LINE
  8
0
 10
15.3949
 20
-7.28534
 11
15.3218
 21
-6.73694
  0
LINE
  8
0
 10
15.3218
 20
-6.73694
 11
15.1999
 21
-6.23787
  0
LINE
  8
0
 10
15.1999
 20
-6.23787
 11
15.0292
 21
-5.7881
  0
LINE
  8
0
 10
15.0292
 20
-5.7881
 11
14.8098
 21
-5.38765
  0
LINE
  8
0
 10
14.8098
 20
-5.38765
 11
14.5417
 21
-5.03651
  0
LINE
  8
0
 10
14.5417
 20
-5.03651
 11
14.2247
 21
-4.7347
  0
LINE
  8
0
 10
14.2247
 20
-4.7347
 11
13.8522
 21
-4.47734
  0
LINE
  8
0
 10
13.8522
 20
-4.47734
 11
13.4173
 21
-4.25957
  0
LINE
  8
0
 10
13.4173
 20
-4.25957
 11
12.92
 21
-4.08139
  0
LINE
  8
0
 10
12.92
 20
-4.08139
 11
12.3602
 21
-3.94281
  0
LINE
  8
0
 10
12.3602
 20
-3.94281
 11
11.738
 21
-3.84383
  0
LINE
  8
0
 10
11.738
 20
-3.84383
 11
11.0533
 21
-3.78444
  0
LINE
  8
0
 10
11.0533
 20
-3.78444
 11
10.3063
 21
-3.76465
  0
LINE
  8
0
 10
10.3063
 20
-3.76465
 11
6.73596
 21
-3.76465
  0
LINE
  8
0
 10
6.73596
 20
-3.76465
 11
6.73596
 21
-16.9269
  0
LINE
  8
0
 10
6.73596
 20
-16.9269
 11
9.33647
 21
-16.9269
  0
LINE
  8
0
 10
9.33647
 20
-16.9269
 11
9.33647
 21
-12.0014
  0
LINE
  8
0
 10
7.23596
 20
-16.4269
 11
7.23596
 21
-4.26465
  0
LINE
  8
0
 10
7.23596
 20
-4.26465
 11
10.2994
 21
-4.26465
  0
LINE
  8
0
 10
10.2994
 20
-4.26465
 11
11.0253
 21
-4.28387
  0
LINE
  8
0
 10
11.0253
 20
-4.28387
 11
11.677
 21
-4.34041
  0
LINE
  8
0
 10
11.677
 20
-4.34041
 11
12.2606
 21
-4.43326
  0
LINE
  8
0
 10
12.2606
 20
-4.43326
 11
12.7752
 21
-4.56065
  0
LINE
  8
0
 10
12.7752
 20
-4.56065
 11
13.2204
 21
-4.72014
  0
LINE
  8
0
 10
13.2204
 20
-4.72014
 11
13.5969
 21
-4.90866
  0
LINE
  8
0
 10
13.5969
 20
-4.90866
 11
13.9083
 21
-5.12381
  0
LINE
  8
0
 10
13.9083
 20
-5.12381
 11
14.1682
 21
-5.37134
  0
LINE
  8
0
 10
14.1682
 20
-5.37134
 11
14.3895
 21
-5.66112
  0
LINE
  8
0
 10
14.3895
 20
-5.66112
 11
14.5741
 21
-5.99788
  0
LINE
  8
0
 10
14.5741
 20
-5.99788
 11
14.7215
 21
-6.38647
  0
LINE
  8
0
 10
14.7215
 20
-6.38647
 11
14.8297
 21
-6.82959
  0
LINE
  8
0
 10
14.8297
 20
-6.82959
 11
14.8963
 21
-7.32857
  0
LINE
  8
0
 10
14.8963
 20
-7.32857
 11
14.9189
 21
-7.88304
  0
LINE
  8
0
 10
14.9189
 20
-7.88304
 11
14.8963
 21
-8.43752
  0
LINE
  8
0
 10
14.8963
 20
-8.43752
 11
14.8297
 21
-8.93649
  0
LINE
  8
0
 10
14.8297
 20
-8.93649
 11
14.7215
 21
-9.37959
  0
LINE
  8
0
 10
14.7215
 20
-9.37959
 11
14.574
 21
-9.76823
  0
LINE
  8
0
 10
14.574
 20
-9.76823
 11
14.3895
 21
-10.105
  0
LINE
  8
0
 10
14.3895
 20
-10.105
 11
14.1683
 21
-10.3947
  0
LINE
  8
0
 10
14.1683
 20
-10.3947
 11
13.9083
 21
-10.6423
  0
LINE
  8
0
 10
13.9083
 20
-10.6423
 11
13.5969
 21
-10.8574
  0
LINE
  8
0
 10
13.5969
 20
-10.8574
 11
13.2204
 21
-11.0459
  0
LINE
  8
0
 10
13.2204
 20
-11.0459
 11
12.7752
 21
-11.2054
  0
LINE
  8
0
 10
12.7752
 20
-11.2054
 11
12.2606
 21
-11.3328
  0
LINE
  8
0
 10
12.2606
 20
-11.3328
 11
11.677
 21
-11.4257
  0
LINE
  8
0
 10
11.677
 20
-11.4257
 11
11.0251
 21
-11.4822
  0
LINE
  8
0
 10
11.0251
 20
-11.4822
 11
10.2999
 21
-11.5014
  0
LINE
  8
0
 10
10.2999
 20
-11.5014
 11
9.33647
 21
-11.5014
  0
LINE
  8
0
 10
9.33647
 20
-11.5014
 11
9.24278
 21
-11.5103
  0
LINE
  8
0
 10
9.24278
 20
-11.5103
 11
9.18196
 21
-11.5259
  0
LINE
  8
0
 10
9.18196
 20
-11.5259
 11
9.12358
 21
-11.549
  0
LINE
  8
0
 10
9.12358
 20
-11.549
 11
9.06856
 21
-11.5793
  0
LINE
  8
0
 10
9.06856
 20
-11.5793
 11
9.01776
 21
-11.6162
  0
LINE
  8
0
 10
9.01776
 20
-11.6162
 11
8.97198
 21
-11.6592
  0
LINE
  8
0
 10
8.97198
 20
-11.6592
 11
8.93196
 21
-11.7075
  0
LINE
  8
0
 10
8.93196
 20
-11.7075
 11
8.89832
 21
-11.7606
  0
LINE
  8
0
 10
8.89832
 20
-11.7606
 11
8.87158
 21
-11.8174
  0
LINE
  8
0
 10
8.87158
 20
-11.8174
 11
8.85217
 21
-11.8771
  0
LINE
  8
0
 10
8.85217
 20
-11.8771
 11
8.84041
 21
-11.9388
  0
LINE
  8
0
 10
8.84041
 20
-11.9388
 11
8.83647
 21
-12.0014
  0
LINE
  8
0
 10
8.83647
 20
-12.0014
 11
8.83647
 21
-16.4269
  0
LINE
  8
0
 10
8.83647
 20
-16.4269
 11
7.23596
 21
-16.4269
  0
LINE
  8
0
 10
10.4158
 20
-10.3131
 11
10.7655
 21
-10.3043
  0
LINE
  8
0
 10
10.7655
 20
-10.3043
 11
10.7943
 21
-10.3028
  0
LINE
  8
0
 10
10.7943
 20
-10.3028
 11
11.1128
 21
-10.2763
  0
LINE
  8
0
 10
11.1128
 20
-10.2763
 11
11.1472
 21
-10.2723
  0
LINE
  8
0
 10
11.1472
 20
-10.2723
 11
11.4346
 21
-10.2282
  0
LINE
  8
0
 10
11.4346
 20
-10.2282
 11
11.4759
 21
-10.2201
  0
LINE
  8
0
 10
11.4759
 20
-10.2201
 11
11.7322
 21
-10.1584
  0
LINE
  8
0
 10
11.7322
 20
-10.1584
 11
11.7813
 21
-10.1439
  0
LINE
  8
0
 10
11.7813
 20
-10.1439
 11
12.0065
 21
-10.0645
  0
LINE
  8
0
 10
12.0065
 20
-10.0645
 11
12.0638
 21
-10.0402
  0
LINE
  8
0
 10
12.0638
 20
-10.0402
 11
12.2578
 21
-9.94328
  0
LINE
  8
0
 10
12.2578
 20
-9.94328
 11
12.322
 21
-9.90497
  0
LINE
  8
0
 10
12.322
 20
-9.90497
 11
12.4849
 21
-9.79039
  0
LINE
  8
0
 10
12.4849
 20
-9.79039
 11
12.5502
 21
-9.73561
  0
LINE
  8
0
 10
12.5502
 20
-9.73561
 11
12.687
 21
-9.59927
  0
LINE
  8
0
 10
12.687
 20
-9.59927
 11
12.7411
 21
-9.53551
  0
LINE
  8
0
 10
12.7411
 20
-9.53551
 11
12.8569
 21
-9.37326
  0
LINE
  8
0
 10
12.8569
 20
-9.37326
 11
12.8964
 21
-9.30768
  0
LINE
  8
0
 10
12.8964
 20
-9.30768
 11
12.9912
 21
-9.11952
  0
LINE
  8
0
 10
12.9912
 20
-9.11952
 11
13.0173
 21
-9.0574
  0
LINE
  8
0
 10
13.0173
 20
-9.0574
 11
13.091
 21
-8.84335
  0
LINE
  8
0
 10
13.091
 20
-8.84335
 11
13.1066
 21
-8.78775
  0
LINE
  8
0
 10
13.1066
 20
-8.78775
 11
13.1593
 21
-8.54779
  0
LINE
  8
0
 10
13.1593
 20
-8.54779
 11
13.1674
 21
-8.49963
  0
LINE
  8
0
 10
13.1674
 20
-8.49963
 11
13.1989
 21
-8.23376
  0
LINE
  8
0
 10
13.1989
 20
-8.23376
 11
13.2021
 21
-8.19284
  0
LINE
  8
0
 10
13.2021
 20
-8.19284
 11
13.2126
 21
-7.90108
  0
LINE
  8
0
 10
13.2126
 20
-7.90108
 11
13.2126
 21
-7.86501
  0
LINE
  8
0
 10
13.2126
 20
-7.86501
 11
13.2021
 21
-7.57324
  0
LINE
  8
0
 10
13.2021
 20
-7.57324
 11
13.1989
 21
-7.53232
  0
LINE
  8
0
 10
13.1989
 20
-7.53232
 11
13.1674
 21
-7.26645
  0
LINE
  8
0
 10
13.1674
 20
-7.26645
 11
13.1593
 21
-7.21829
  0
LINE
  8
0
 10
13.1593
 20
-7.21829
 11
13.1066
 21
-6.97833
  0
LINE
  8
0
 10
13.1066
 20
-6.97833
 11
13.091
 21
-6.92273
  0
LINE
  8
0
 10
13.091
 20
-6.92273
 11
13.0173
 21
-6.70868
  0
LINE
  8
0
 10
13.0173
 20
-6.70868
 11
12.9912
 21
-6.64656
  0
LINE
  8
0
 10
12.9912
 20
-6.64656
 11
12.8964
 21
-6.4584
  0
LINE
  8
0
 10
12.8964
 20
-6.4584
 11
12.8569
 21
-6.39282
  0
LINE
  8
0
 10
12.8569
 20
-6.39282
 11
12.7411
 21
-6.23058
  0
LINE
  8
0
 10
12.7411
 20
-6.23058
 11
12.687
 21
-6.16681
  0
LINE
  8
0
 10
12.687
 20
-6.16681
 11
12.5502
 21
-6.03047
  0
LINE
  8
0
 10
12.5502
 20
-6.03047
 11
12.4849
 21
-5.97569
  0
LINE
  8
0
 10
12.4849
 20
-5.97569
 11
12.322
 21
-5.86111
  0
LINE
  8
0
 10
12.322
 20
-5.86111
 11
12.2578
 21
-5.8228
  0
LINE
  8
0
 10
12.2578
 20
-5.8228
 11
12.0638
 21
-5.72586
  0
LINE
  8
0
 10
12.0638
 20
-5.72586
 11
12.0065
 21
-5.70155
  0
LINE
  8
0
 10
12.0065
 20
-5.70155
 11
11.7813
 21
-5.62222
  0
LINE
  8
0
 10
11.7813
 20
-5.62222
 11
11.7322
 21
-5.6077
  0
LINE
  8
0
 10
11.7322
 20
-5.6077
 11
11.4759
 21
-5.54601
  0
LINE
  8
0
 10
11.4759
 20
-5.54601
 11
11.4346
 21
-5.53789
  0
LINE
  8
0
 10
11.4346
 20
-5.53789
 11
11.1472
 21
-5.49382
  0
LINE
  8
0
 10
11.1472
 20
-5.49382
 11
11.1128
 21
-5.48976
  0
LINE
  8
0
 10
11.1128
 20
-5.48976
 11
10.7943
 21
-5.46332
  0
LINE
  8
0
 10
10.7943
 20
-5.46332
 11
10.7655
 21
-5.46176
  0
LINE
  8
0
 10
10.7655
 20
-5.46176
 11
10.4158
 21
-5.45296
  0
LINE
  8
0
 10
10.4158
 20
-5.45296
 11
10.4033
 21
-5.4528
  0
LINE
  8
0
 10
10.4033
 20
-5.4528
 11
9.33647
 21
-5.4528
  0
LINE
  8
0
 10
9.33647
 20
-5.4528
 11
9.24278
 21
-5.46165
  0
LINE
  8
0
 10
9.24278
 20
-5.46165
 11
9.18196
 21
-5.47728
  0
LINE
  8
0
 10
9.18196
 20
-5.47728
 11
9.12358
 21
-5.5004
  0
LINE
  8
0
 10
9.12358
 20
-5.5004
 11
9.06856
 21
-5.53064
  0
LINE
  8
0
 10
9.06856
 20
-5.53064
 11
9.01776
 21
-5.56755
  0
LINE
  8
0
 10
9.01776
 20
-5.56755
 11
8.97198
 21
-5.61053
  0
LINE
  8
0
 10
8.97198
 20
-5.61053
 11
8.93196
 21
-5.65891
  0
LINE
  8
0
 10
8.93196
 20
-5.65891
 11
8.89832
 21
-5.71193
  0
LINE
  8
0
 10
8.89832
 20
-5.71193
 11
8.87158
 21
-5.76874
  0
LINE
  8
0
 10
8.87158
 20
-5.76874
 11
8.85217
 21
-5.82846
  0
LINE
  8
0
 10
8.85217
 20
-5.82846
 11
8.84041
 21
-5.89014
  0
LINE
  8
0
 10
8.84041
 20
-5.89014
 11
8.83647
 21
-5.9528
  0
LINE
  8
0
 10
8.83647
 20
-5.9528
 11
8.83647
 21
-9.81328
  0
LINE
  8
0
 10
8.83647
 20
-9.81328
 11
8.84532
 21
-9.90697
  0
LINE
  8
0
 10
8.84532
 20
-9.90697
 11
8.86095
 21
-9.96779
  0
LINE
  8
0
 10
8.86095
 20
-9.96779
 11
8.88406
 21
-10.0262
  0
LINE
  8
0
 10
8.88406
 20
-10.0262
 11
8.91431
 21
-10.0812
  0
LINE
  8
0
 10
8.91431
 20
-10.0812
 11
8.95122
 21
-10.132
  0
LINE
  8
0
 10
8.95122
 20
-10.132
 11
8.9942
 21
-10.1778
  0
LINE
  8
0
 10
8.9942
 20
-10.1778
 11
9.04257
 21
-10.2178
  0
LINE
  8
0
 10
9.04257
 20
-10.2178
 11
9.0956
 21
-10.2514
  0
LINE
  8
0
 10
9.0956
 20
-10.2514
 11
9.1524
 21
-10.2782
  0
LINE
  8
0
 10
9.1524
 20
-10.2782
 11
9.21213
 21
-10.2976
  0
LINE
  8
0
 10
9.21213
 20
-10.2976
 11
9.2738
 21
-10.3093
  0
LINE
  8
0
 10
9.2738
 20
-10.3093
 11
9.33647
 21
-10.3133
  0
LINE
  8
0
 10
9.33647
 20
-10.3133
 11
10.4033
 21
-10.3133
  0
LINE
  8
0
 10
10.4033
 20
-10.3133
 11
10.4158
 21
-10.3131
  0
LINE
  8
0
 10
9.33647
 20
-9.81328
 11
9.33647
 21
-5.9528
  0
LINE
  8
0
 10
9.33647
 20
-5.9528
 11
10.4033
 21
-5.9528
  0
LINE
  8
0
 10
10.4033
 20
-5.9528
 11
10.7529
 21
-5.96161
  0
LINE
  8
0
 10
10.7529
 20
-5.96161
 11
11.0715
 21
-5.98805
  0
LINE
  8
0
 10
11.0715
 20
-5.98805
 11
11.3589
 21
-6.03212
  0
LINE
  8
0
 10
11.3589
 20
-6.03212
 11
11.6152
 21
-6.09381
  0
LINE
  8
0
 10
11.6152
 20
-6.09381
 11
11.8403
 21
-6.17314
  0
LINE
  8
0
 10
11.8403
 20
-6.17314
 11
12.0343
 21
-6.27008
  0
LINE
  8
0
 10
12.0343
 20
-6.27008
 11
12.1973
 21
-6.38466
  0
LINE
  8
0
 10
12.1973
 20
-6.38466
 11
12.3341
 21
-6.521
  0
LINE
  8
0
 10
12.3341
 20
-6.521
 11
12.4498
 21
-6.68324
  0
LINE
  8
0
 10
12.4498
 20
-6.68324
 11
12.5446
 21
-6.8714
  0
LINE
  8
0
 10
12.5446
 20
-6.8714
 11
12.6182
 21
-7.08545
  0
LINE
  8
0
 10
12.6182
 20
-7.08545
 11
12.6709
 21
-7.32541
  0
LINE
  8
0
 10
12.6709
 20
-7.32541
 11
12.7024
 21
-7.59128
  0
LINE
  8
0
 10
12.7024
 20
-7.59128
 11
12.713
 21
-7.88304
  0
LINE
  8
0
 10
12.713
 20
-7.88304
 11
12.7024
 21
-8.1748
  0
LINE
  8
0
 10
12.7024
 20
-8.1748
 11
12.6709
 21
-8.44067
  0
LINE
  8
0
 10
12.6709
 20
-8.44067
 11
12.6182
 21
-8.68063
  0
LINE
  8
0
 10
12.6182
 20
-8.68063
 11
12.5446
 21
-8.89468
  0
LINE
  8
0
 10
12.5446
 20
-8.89468
 11
12.4498
 21
-9.08284
  0
LINE
  8
0
 10
12.4498
 20
-9.08284
 11
12.3341
 21
-9.24509
  0
LINE
  8
0
 10
12.3341
 20
-9.24509
 11
12.1973
 21
-9.38142
  0
LINE
  8
0
 10
12.1973
 20
-9.38142
 11
12.0343
 21
-9.496
  0
LINE
  8
0
 10
12.0343
 20
-9.496
 11
11.8403
 21
-9.59294
  0
LINE
  8
0
 10
11.8403
 20
-9.59294
 11
11.6152
 21
-9.67227
  0
LINE
  8
0
 10
11.6152
 20
-9.67227
 11
11.3589
 21
-9.73396
  0
LINE
  8
0
 10
11.3589
 20
-9.73396
 11
11.0715
 21
-9.77803
  0
LINE
  8
0
 10
11.0715
 20
-9.77803
 11
10.7529
 21
-9.80447
  0
LINE
  8
0
 10
10.7529
 20
-9.80447
 11
10.4033
 21
-9.81328
  0
LINE
  8
0
 10
10.4033
 20
-9.81328
 11
9.33647
 21
-9.81328
  0
ENDSEC
  0
SECTION
  2
OBJECTS
  0
DICTIONARY
  0
ENDSEC
  0
EOF
