<?xml version="1.0" standalone="no"?>
<!DOCTYPE svg PUBLIC "-//W3C//DTD SVG 1.1//EN" "http://www.w3.org/Graphics/SVG/1.1/DTD/svg11.dtd">
<svg width="51mm" height="35mm" viewBox="-26 -18 51 35" xmlns="http://www.w3.org/2000/svg" version="1.1">
<title>OpenSCAD Model</title>
<path d="
M 11.0147,-3.8434 L 11.6211,-3.90359 L 12.1783,-4.00391 L 12.6865,-4.14433 L 13.1455,-4.32491 L 13.5554,-4.54559
 L 13.9162,-4.8064 L 14.2285,-5.10788 L 14.4927,-5.45056 L 14.7088,-5.83446 L 14.877,-6.25955 L 14.9971,-6.72586
 L 15.0691,-7.23338 L 15.0931,-7.7821 L 15.0779,-8.19 L 15.032,-8.57738 L 14.9555,-8.94424 L 14.8485,-9.2906
 L 14.7108,-9.61646 L 14.5426,-9.92178 L 14.3438,-10.2066 L 14.1126,-10.4734 L 13.8473,-10.7248 L 13.5477,-10.9607
 L 13.214,-11.1812 L 12.8461,-11.3861 L 12.444,-11.5756 L 12.0077,-11.7496 L 10.888,-12.1732 L 10.5718,-12.2952
 L 10.2882,-12.414 L 10.0372,-12.5298 L 9.81866,-12.6425 L 9.63274,-12.7522 L 9.47937,-12.8588 L 9.35858,-12.9623
 L 9.26152,-13.0682 L 9.1794,-13.1819 L 9.11221,-13.3033 L 9.05995,-13.4324 L 9.02261,-13.5692 L 9.00023,-13.7139
 L 8.99275,-13.8662 L 9.00301,-14.0611 L 9.03377,-14.2426 L 9.08504,-14.4109 L 9.15681,-14.5658 L 9.24911,-14.7074
 L 9.36191,-14.8357 L 9.49521,-14.9507 L 9.6478,-15.0513 L 9.81837,-15.1364 L 10.0069,-15.2061 L 10.2135,-15.2602
 L 10.438,-15.2989 L 10.6806,-15.3221 L 10.9411,-15.3299 L 11.1832,-15.3236 L 11.4261,-15.3047 L 11.6697,-15.2733
 L 11.914,-15.2292 L 12.159,-15.1726 L 12.4048,-15.1034 L 12.6512,-15.0217 L 12.8975,-14.9278 L 13.1427,-14.8225
 L 13.3869,-14.7057 L 13.63,-14.5774 L 13.8719,-14.4376 L 14.1128,-14.2863 L 14.3527,-14.1235 L 14.3527,-16.6611
 L 14.0979,-16.7734 L 13.8424,-16.8776 L 13.5862,-16.9737 L 13.3293,-17.0616 L 13.0717,-17.1414 L 12.8133,-17.2131
 L 12.5542,-17.2766 L 12.2948,-17.3318 L 12.0354,-17.3786 L 11.776,-17.4168 L 11.5166,-17.4465 L 11.2571,-17.4678
 L 10.9977,-17.4805 L 10.7383,-17.4848 L 10.1839,-17.4639 L 9.66452,-17.4012 L 9.18001,-17.2968 L 8.73039,-17.1505
 L 8.31567,-16.9625 L 7.93587,-16.7327 L 7.59097,-16.4611 L 7.28694,-16.153 L 7.02968,-15.8136 L 6.8192,-15.4428
 L 6.6555,-15.0407 L 6.53856,-14.6073 L 6.4684,-14.1425 L 6.44502,-13.6464 L 6.45923,-13.2597 L 6.50186,-12.8962
 L 6.57292,-12.5559 L 6.67241,-12.2389 L 6.80032,-11.9451 L 6.95667,-11.6745 L 7.14142,-11.4272 L 7.3663,-11.193
 L 7.64301,-10.9619 L 7.97151,-10.7338 L 8.35184,-10.5088 L 8.78398,-10.2869 L 9.26793,-10.068 L 9.8037,-9.85222
 L 11.082,-9.36693 L 11.2669,-9.29015 L 11.4389,-9.20564 L 11.598,-9.1134 L 11.7441,-9.01343 L 11.8772,-8.90573
 L 11.9974,-8.7903 L 12.1046,-8.66714 L 12.1981,-8.53719 L 12.2773,-8.40131 L 12.3421,-8.25949 L 12.3925,-8.11176
 L 12.4285,-7.9581 L 12.4501,-7.79851 L 12.4573,-7.63298 L 12.4465,-7.41626 L 12.4141,-7.21371 L 12.3601,-7.02536
 L 12.2845,-6.85121 L 12.1874,-6.69122 L 12.0686,-6.54544 L 11.9283,-6.41385 L 11.7684,-6.29828 L 11.5908,-6.20049
 L 11.3956,-6.12047 L 11.1828,-6.05823 L 10.9523,-6.01378 L 10.7042,-5.98711 L 10.4385,-5.97821 L 10.166,-5.98555
 L 9.89262,-6.00757 L 9.61835,-6.04427 L 9.34317,-6.09563 L 9.06711,-6.16168 L 8.79015,-6.2424 L 8.51227,-6.3378
 L 8.23262,-6.44827 L 7.95026,-6.57413 L 7.66519,-6.71536 L 7.37743,-6.87199 L 7.08696,-7.04402 L 6.79379,-7.23143
 L 6.49792,-7.43422 L 6.49792,-4.74686 L 6.7612,-4.62076 L 7.02719,-4.50383 L 7.29587,-4.39604 L 7.56726,-4.29741
 L 7.84134,-4.20793 L 8.11813,-4.12759 L 8.39761,-4.05643 L 8.67839,-3.99458 L 8.959,-3.94226 L 9.2394,-3.89944
 L 9.51962,-3.86615 L 9.79967,-3.84236 L 10.0795,-3.82809 L 10.3592,-3.82333 z
M 10.0964,-4.32788 L 9.83359,-4.34128 L 9.57043,-4.36363 L 9.3069,-4.39494 L 9.04245,-4.43532 L 8.77805,-4.48462
 L 8.51318,-4.54295 L 8.2493,-4.61015 L 7.98868,-4.68581 L 7.73033,-4.77014 L 7.4745,-4.86311 L 7.22108,-4.96478
 L 6.99792,-5.06288 L 6.99792,-6.51564 L 7.12263,-6.44179 L 7.1384,-6.43283 L 7.42616,-6.2762 L 7.44322,-6.26733
 L 7.72829,-6.1261 L 7.7467,-6.11743 L 8.02907,-5.99158 L 8.04892,-5.98325 L 8.32857,-5.87277 L 8.34991,-5.8649
 L 8.62779,-5.7695 L 8.65024,-5.76237 L 8.9272,-5.68166 L 8.95076,-5.67542 L 9.22682,-5.60936 L 9.25143,-5.60411
 L 9.52661,-5.55275 L 9.55203,-5.54868 L 9.82631,-5.51198 L 9.85248,-5.50919 L 10.1259,-5.48717 L 10.1525,-5.48573
 L 10.425,-5.47839 L 10.4552,-5.47849 L 10.7209,-5.48738 L 10.7577,-5.48997 L 11.0058,-5.51665 L 11.047,-5.52283
 L 11.2775,-5.56728 L 11.3232,-5.57832 L 11.536,-5.64056 L 11.5853,-5.65784 L 11.7805,-5.73785 L 11.832,-5.76253
 L 12.0096,-5.86032 L 12.0612,-5.89304 L 12.2212,-6.00861 L 12.2703,-6.04912 L 12.4106,-6.18071 L 12.4563,-6.22964
 L 12.575,-6.37543 L 12.6147,-6.4317 L 12.7119,-6.59169 L 12.7432,-6.65219 L 12.8188,-6.82634 L 12.8407,-6.8876
 L 12.8947,-7.07596 L 12.9078,-7.13478 L 12.9402,-7.33733 L 12.9458,-7.39137 L 12.9566,-7.60809 L 12.9568,-7.65471
 L 12.9496,-7.82024 L 12.9455,-7.86554 L 12.924,-8.02513 L 12.9153,-8.07214 L 12.8793,-8.2258 L 12.8657,-8.27315
 L 12.8153,-8.42088 L 12.7969,-8.46722 L 12.7321,-8.60904 L 12.7093,-8.65305 L 12.6301,-8.78893 L 12.6039,-8.82933
 L 12.5103,-8.95929 L 12.4817,-8.99544 L 12.3745,-9.11859 L 12.3437,-9.15089 L 12.2235,-9.26633 L 12.1917,-9.29445
 L 12.0585,-9.40215 L 12.0264,-9.42606 L 11.8804,-9.52603 L 11.8488,-9.54593 L 11.6898,-9.63817 L 11.6594,-9.6544
 L 11.4874,-9.73891 L 11.4586,-9.75194 L 11.2737,-9.82872 L 11.2594,-9.83438 L 9.98572,-10.3179 L 9.46426,-10.528
 L 9.0013,-10.7374 L 8.59367,-10.9467 L 8.24173,-11.1549 L 7.9464,-11.3599 L 7.70798,-11.5591 L 7.52345,-11.7512
 L 7.37483,-11.9502 L 7.24747,-12.1706 L 7.14151,-12.414 L 7.05734,-12.6822 L 6.99586,-12.9766 L 6.95816,-13.298
 L 6.94547,-13.6438 L 6.96664,-14.0933 L 7.02872,-14.5045 L 7.13023,-14.8808 L 7.27,-15.2241 L 7.44818,-15.538
 L 7.66574,-15.8251 L 7.92487,-16.0876 L 8.22102,-16.3208 L 8.54913,-16.5194 L 8.91156,-16.6837 L 9.31035,-16.8134
 L 9.7473,-16.9076 L 10.2233,-16.965 L 10.7436,-16.9846 L 10.9813,-16.9807 L 11.2245,-16.9688 L 11.4678,-16.9489
 L 11.711,-16.921 L 11.9548,-16.885 L 12.1983,-16.8412 L 12.4429,-16.7891 L 12.6869,-16.7293 L 12.9306,-16.6617
 L 13.1746,-16.5861 L 13.4172,-16.5031 L 13.6604,-16.4119 L 13.8527,-16.3335 L 13.8527,-15.0252 L 13.6203,-15.1479
 L 13.6027,-15.1568 L 13.3585,-15.2736 L 13.3401,-15.282 L 13.0948,-15.3873 L 13.0755,-15.3951 L 12.8292,-15.4889
 L 12.8087,-15.4962 L 12.5622,-15.578 L 12.5403,-15.5847 L 12.2946,-15.6539 L 12.2716,-15.6598 L 12.0266,-15.7164
 L 12.0027,-15.7213 L 11.7584,-15.7653 L 11.7337,-15.7691 L 11.4901,-15.8006 L 11.4648,-15.8032 L 11.222,-15.8221
 L 11.1962,-15.8234 L 10.954,-15.8297 L 10.9262,-15.8297 L 10.6657,-15.8219 L 10.6329,-15.8199 L 10.3904,-15.7966
 L 10.3531,-15.7917 L 10.1286,-15.753 L 10.0866,-15.7439 L 9.88007,-15.6897 L 9.83369,-15.6751 L 9.64514,-15.6054
 L 9.59511,-15.5838 L 9.42453,-15.4987 L 9.37254,-15.4687 L 9.21996,-15.3681 L 9.16867,-15.3293 L 9.03537,-15.2144
 L 8.98639,-15.1658 L 8.8736,-15.0376 L 8.83025,-14.9805 L 8.73795,-14.8389 L 8.70314,-14.776 L 8.63136,-14.6211
 L 8.60675,-14.5566 L 8.55548,-14.3884 L 8.54079,-14.3262 L 8.51003,-14.1446 L 8.50369,-14.0874 L 8.49344,-13.8925
 L 8.49335,-13.8417 L 8.50082,-13.6894 L 8.50612,-13.6374 L 8.5285,-13.4928 L 8.54024,-13.4376 L 8.57758,-13.3008
 L 8.59647,-13.2448 L 8.64873,-13.1157 L 8.67474,-13.0611 L 8.74193,-12.9397 L 8.77414,-12.889 L 8.85626,-12.7754
 L 8.89293,-12.7304 L 8.98999,-12.6245 L 9.03319,-12.5827 L 9.15398,-12.4792 L 9.194,-12.4482 L 9.34737,-12.3416
 L 9.37872,-12.3215 L 9.56465,-12.2119 L 9.58945,-12.1982 L 9.80795,-12.0854 L 9.82774,-12.0758 L 10.0788,-11.96
 L 10.095,-11.9529 L 10.3786,-11.834 L 10.3919,-11.8286 L 10.7111,-11.7056 L 11.8266,-11.2835 L 12.2448,-11.1167
 L 12.6176,-10.941 L 12.9542,-10.7535 L 13.2547,-10.5551 L 13.52,-10.3461 L 13.7508,-10.1275 L 13.9488,-9.89894
 L 14.1174,-9.65735 L 14.2604,-9.39793 L 14.3782,-9.11903 L 14.4708,-8.81921 L 14.538,-8.49683 L 14.579,-8.15108
 L 14.5927,-7.78374 L 14.5707,-7.27956 L 14.5059,-6.82356 L 14.4005,-6.41443 L 14.2565,-6.05008 L 14.0747,-5.72731
 L 13.8549,-5.44217 L 13.5945,-5.19081 L 13.2893,-4.9702 L 12.9346,-4.77924 L 12.528,-4.61928 L 12.0673,-4.49196
 L 11.552,-4.3992 L 10.9823,-4.34265 L 10.3556,-4.32347 z
M -2.3105,-14.6242 L -0.899994,-8.86526 L 1.17168,-8.86526 L 2.56462,-14.6242 L 2.56462,-4.08125 L 4.80374,-4.08125
 L 4.80374,-17.2435 L 1.68295,-17.2435 L 0.122696,-11.4669 L -1.44652,-17.2435 L -4.54962,-17.2435 L -4.54962,-4.08125
 L -2.3105,-4.08125 z
M -4.04962,-4.58125 L -4.04962,-16.7435 L -1.82881,-16.7435 L -0.359818,-11.3359 L -0.344452,-11.2887 L -0.318436,-11.2315
 L -0.285446,-11.1781 L -0.246033,-11.1292 L -0.200806,-11.0857 L -0.150467,-11.0481 L -0.0958252,-11.0172 L -0.037735,-10.9934
 L 0.0228882,-10.977 L 0.085083,-10.9684 L 0.147858,-10.9676 L 0.210251,-10.9747 L 0.271255,-10.9895 L 0.329926,-11.0119
 L 0.385315,-11.0415 L 0.436569,-11.0777 L 0.48288,-11.1201 L 0.523499,-11.168 L 0.557816,-11.2206 L 0.585251,-11.2771
 L 0.605392,-11.3365 L 2.06581,-16.7435 L 4.30374,-16.7435 L 4.30374,-4.58125 L 3.06462,-4.58125 L 3.06462,-14.6242
 L 3.05975,-14.6938 L 3.04712,-14.7554 L 3.02689,-14.8148 L 2.99936,-14.8712 L 2.96497,-14.9238 L 2.92427,-14.9716
 L 2.8779,-15.0139 L 2.8266,-15.0501 L 2.77115,-15.0796 L 2.71245,-15.1019 L 2.65143,-15.1166 L 2.58902,-15.1236
 L 2.52623,-15.1228 L 2.46407,-15.114 L 2.40346,-15.0975 L 2.34541,-15.0736 L 2.29082,-15.0426 L 2.24054,-15.005
 L 2.19537,-14.9614 L 2.15604,-14.9124 L 2.12314,-14.8589 L 2.0972,-14.8018 L 2.07863,-14.7418 L 0.778183,-9.36526
 L -0.507675,-9.36526 L -1.82486,-14.7432 L -1.84561,-14.8083 L -1.87234,-14.8651 L -1.90599,-14.9181 L -1.94601,-14.9665
 L -1.99179,-15.0095 L -2.04259,-15.0464 L -2.09761,-15.0766 L -2.15599,-15.0998 L -2.21681,-15.1154 L -2.2791,-15.1232
 L -2.3419,-15.1232 L -2.40419,-15.1154 L -2.46501,-15.0998 L -2.52339,-15.0766 L -2.57841,-15.0464 L -2.62921,-15.0095
 L -2.67499,-14.9665 L -2.71501,-14.9181 L -2.74866,-14.8651 L -2.77539,-14.8083 L -2.7948,-14.7486 L -2.80656,-14.6869
 L -2.8105,-14.6242 L -2.8105,-4.58125 z
M -6.56998,-17.2435 L -14.407,-17.2435 L -14.407,-14.9555 L -11.7888,-14.9555 L -11.7888,-6.36926 L -14.407,-6.36926
 L -14.407,-4.08125 L -6.56998,-4.08125 L -6.56998,-6.36926 L -9.18817,-6.36926 L -9.18817,-14.9555 L -6.56998,-14.9555
 z
M -9.67932,-6.27557 L -9.6637,-6.21475 L -9.64058,-6.15637 L -9.61034,-6.10135 L -9.57343,-6.05055 L -9.53044,-6.00478
 L -9.48207,-5.96475 L -9.42905,-5.93111 L -9.37224,-5.90437 L -9.31252,-5.88496 L -9.25084,-5.8732 L -9.18817,-5.86926
 L -7.06998,-5.86926 L -7.06998,-4.58125 L -13.907,-4.58125 L -13.907,-5.86926 L -11.7888,-5.86926 L -11.6951,-5.87811
 L -11.6343,-5.89374 L -11.5759,-5.91685 L -11.5209,-5.9471 L -11.4701,-5.98401 L -11.4243,-6.02699 L -11.3843,-6.07536
 L -11.3507,-6.12839 L -11.3239,-6.1852 L -11.3045,-6.24492 L -11.2928,-6.30659 L -11.2888,-6.36926 L -11.2888,-14.9555
 L -11.2977,-15.0492 L -11.3133,-15.11 L -11.3364,-15.1684 L -11.3667,-15.2234 L -11.4036,-15.2742 L -11.4465,-15.32
 L -11.4949,-15.36 L -11.5479,-15.3936 L -11.6048,-15.4204 L -11.6645,-15.4398 L -11.7262,-15.4515 L -11.7888,-15.4555
 L -13.907,-15.4555 L -13.907,-16.7435 L -7.06998,-16.7435 L -7.06998,-15.4555 L -9.18817,-15.4555 L -9.28186,-15.4466
 L -9.34268,-15.431 L -9.40106,-15.4079 L -9.45609,-15.3776 L -9.50688,-15.3407 L -9.55266,-15.2977 L -9.59268,-15.2494
 L -9.62633,-15.1964 L -9.65306,-15.1395 L -9.67247,-15.0798 L -9.68423,-15.0181 L -9.68817,-14.9555 L -9.68817,-6.36926
 z
M -21.3544,-3.84447 L -20.7721,-3.90784 L -20.2432,-4.01346 L -19.7678,-4.16132 L -19.3458,-4.35143 L -18.9773,-4.58379
 L -18.6622,-4.8584 L -18.3944,-5.18208 L -18.1678,-5.56168 L -17.9824,-5.99719 L -17.8382,-6.4886 L -17.7352,-7.03593
 L -17.6734,-7.63918 L -17.6528,-8.29832 L -17.6528,-17.2435 L -23.4358,-17.2435 L -23.4358,-14.9555 L -20.2534,-14.9555
 L -20.2534,-8.29832 L -20.2631,-7.99158 L -20.2923,-7.70961 L -20.3409,-7.45239 L -20.4089,-7.21996 L -20.4963,-7.01228
 L -20.6032,-6.82938 L -20.7295,-6.67125 L -20.8766,-6.53595 L -21.0461,-6.42146 L -21.2379,-6.32779 L -21.452,-6.25493
 L -21.6884,-6.2029 L -21.9471,-6.17166 L -22.2281,-6.16125 L -22.4772,-6.16949 L -22.7257,-6.19423 L -22.9737,-6.23544
 L -23.2212,-6.29315 L -23.4681,-6.36734 L -23.7145,-6.45801 L -23.9604,-6.56517 L -24.2038,-6.68814 L -24.4432,-6.82616
 L -24.6784,-6.97923 L -24.9095,-7.14735 L -25.1364,-7.33054 L -25.3593,-7.52876 L -25.5779,-7.74205 L -25.5779,-4.73022
 L -25.3138,-4.60641 L -25.0501,-4.49161 L -24.787,-4.38577 L -24.5244,-4.28893 L -24.2624,-4.20105 L -24.0009,-4.12216
 L -23.74,-4.05226 L -23.4808,-3.99153 L -23.2247,-3.94014 L -22.9717,-3.89809 L -22.7217,-3.86539 L -22.4747,-3.84203
 L -22.2309,-3.828 L -21.9901,-3.82333 z
M -22.2117,-4.32773 L -22.437,-4.34068 L -22.6656,-4.3623 L -22.898,-4.3927 L -23.1345,-4.43201 L -23.3747,-4.48021
 L -23.6183,-4.53729 L -23.8641,-4.60313 L -24.1108,-4.67755 L -24.3585,-4.76062 L -24.6071,-4.85234 L -24.8569,-4.9528
 L -25.0779,-5.04907 L -25.0779,-6.65158 L -24.9725,-6.57491 L -24.9511,-6.56017 L -24.7159,-6.40709 L -24.693,-6.39301
 L -24.4536,-6.25499 L -24.4292,-6.24184 L -24.1858,-6.11887 L -24.1601,-6.10683 L -23.9143,-5.99966 L -23.8872,-5.98877
 L -23.6408,-5.8981 L -23.612,-5.88849 L -23.365,-5.8143 L -23.3347,-5.80621 L -23.0873,-5.7485 L -23.0557,-5.7422
 L -22.8077,-5.70099 L -22.7752,-5.69669 L -22.5267,-5.67195 L -22.4937,-5.66977 L -22.2446,-5.66153 L -22.2096,-5.66159
 L -21.9286,-5.672 L -21.8872,-5.67526 L -21.6284,-5.7065 L -21.5809,-5.71458 L -21.3445,-5.76662 L -21.2909,-5.78159
 L -21.0768,-5.85445 L -21.0185,-5.87851 L -20.8267,-5.97218 L -20.7662,-6.00714 L -20.5967,-6.12163 L -20.5382,-6.16786
 L -20.3911,-6.30316 L -20.3388,-6.35921 L -20.2125,-6.51733 L -20.1715,-6.57713 L -20.0646,-6.76004 L -20.0355,-6.81827
 L -19.948,-7.02594 L -19.929,-7.07954 L -19.861,-7.31198 L -19.8495,-7.35959 L -19.8009,-7.61681 L -19.7949,-7.6582
 L -19.7658,-7.94017 L -19.7634,-7.97574 L -19.7536,-8.28249 L -19.7534,-8.29832 L -19.7534,-14.9555 L -19.7623,-15.0492
 L -19.7779,-15.11 L -19.801,-15.1684 L -19.8312,-15.2234 L -19.8681,-15.2742 L -19.9111,-15.32 L -19.9595,-15.36
 L -20.0125,-15.3936 L -20.0693,-15.4204 L -20.1291,-15.4398 L -20.1907,-15.4515 L -20.2534,-15.4555 L -22.9358,-15.4555
 L -22.9358,-16.7435 L -18.1528,-16.7435 L -18.1528,-8.30614 L -18.1726,-7.67244 L -18.2304,-7.10788 L -18.325,-6.60547
 L -18.4539,-6.16614 L -18.6145,-5.78876 L -18.804,-5.47131 L -19.0215,-5.20853 L -19.2767,-4.98611 L -19.583,-4.79298
 L -19.9454,-4.62971 L -20.3669,-4.49864 L -20.8481,-4.40251 L -21.3898,-4.34357 L -21.9935,-4.3235 z
M 24.1395,-10.5542 L 18.5769,-10.5542 L 18.5769,-7.99165 L 24.1395,-7.99165 z
M 19.0769,-8.49165 L 19.0769,-10.0542 L 23.6395,-10.0542 L 23.6395,-8.49165 z
M -12.115,11.0696 L -8.862,11.0696 L -8.862,16.9269 L -6.26135,16.9269 L -6.26135,3.76465 L -8.862,3.76465
 L -8.862,8.7816 L -12.115,8.7816 L -12.115,3.76465 L -14.7156,3.76465 L -14.7156,16.9269 L -12.115,16.9269
 z
M -14.2156,16.4269 L -14.2156,4.26465 L -12.615,4.26465 L -12.615,8.7816 L -12.6061,8.87529 L -12.5905,8.93611
 L -12.5674,8.99449 L -12.5372,9.04951 L -12.5002,9.10031 L -12.4573,9.14609 L -12.4089,9.18611 L -12.3559,9.21976
 L -12.2991,9.24649 L -12.2393,9.2659 L -12.1777,9.27766 L -12.115,9.2816 L -8.862,9.2816 L -8.76831,9.27275
 L -8.70749,9.25713 L -8.64911,9.23401 L -8.59409,9.20377 L -8.54329,9.16685 L -8.49751,9.12387 L -8.45749,9.0755
 L -8.42384,9.02248 L -8.39711,8.96567 L -8.3777,8.90594 L -8.36594,8.84427 L -8.362,8.7816 L -8.362,4.26465
 L -6.76135,4.26465 L -6.76135,16.4269 L -8.362,16.4269 L -8.362,11.0696 L -8.37085,10.9759 L -8.38647,10.9151
 L -8.40959,10.8567 L -8.43983,10.8017 L -8.47675,10.7509 L -8.51973,10.7051 L -8.5681,10.6651 L -8.62112,10.6314
 L -8.67793,10.6047 L -8.73766,10.5853 L -8.79933,10.5735 L -8.862,10.5696 L -12.115,10.5696 L -12.2087,10.5784
 L -12.2695,10.5941 L -12.3279,10.6172 L -12.3829,10.6474 L -12.4337,10.6843 L -12.4795,10.7273 L -12.5195,10.7757
 L -12.5531,10.8287 L -12.5799,10.8855 L -12.5993,10.9452 L -12.6111,11.0069 L -12.615,11.0696 L -12.615,16.4269
 z
M 9.33647,12.0014 L 10.3063,12.0014 L 11.0533,11.9816 L 11.738,11.9222 L 12.3602,11.8233 L 12.92,11.6847
 L 13.4173,11.5065 L 13.8522,11.2887 L 14.2247,11.0314 L 14.5417,10.7296 L 14.8098,10.3784 L 15.0292,9.97798
 L 15.1999,9.52823 L 15.3218,9.02914 L 15.3949,8.48074 L 15.4193,7.88304 L 15.3949,7.28534 L 15.3218,6.73694
 L 15.1999,6.23787 L 15.0292,5.7881 L 14.8098,5.38765 L 14.5417,5.03651 L 14.2247,4.7347 L 13.8522,4.47734
 L 13.4173,4.25957 L 12.92,4.08139 L 12.3602,3.94281 L 11.738,3.84383 L 11.0533,3.78444 L 10.3063,3.76465
 L 6.73596,3.76465 L 6.73596,16.9269 L 9.33647,16.9269 z
M 7.23596,16.4269 L 7.23596,4.26465 L 10.2994,4.26465 L 11.0253,4.28387 L 11.677,4.34041 L 12.2606,4.43326
 L 12.7752,4.56065 L 13.2204,4.72014 L 13.5969,4.90866 L 13.9083,5.12381 L 14.1682,5.37134 L 14.3895,5.66112
 L 14.5741,5.99788 L 14.7215,6.38647 L 14.8297,6.82959 L 14.8963,7.32857 L 14.9189,7.88304 L 14.8963,8.43752
 L 14.8297,8.93649 L 14.7215,9.37959 L 14.574,9.76823 L 14.3895,10.105 L 14.1683,10.3947 L 13.9083,10.6423
 L 13.5969,10.8574 L 13.2204,11.0459 L 12.7752,11.2054 L 12.2606,11.3328 L 11.677,11.4257 L 11.0251,11.4822
 L 10.2999,11.5014 L 9.33647,11.5014 L 9.24278,11.5103 L 9.18196,11.5259 L 9.12358,11.549 L 9.06856,11.5793
 L 9.01776,11.6162 L 8.97198,11.6592 L 8.93196,11.7075 L 8.89832,11.7606 L 8.87158,11.8174 L 8.85217,11.8771
 L 8.84041,11.9388 L 8.83647,12.0014 L 8.83647,16.4269 z
M 10.4158,10.3131 L 10.7655,10.3043 L 10.7943,10.3028 L 11.1128,10.2763 L 11.1472,10.2723 L 11.4346,10.2282
 L 11.4759,10.2201 L 11.7322,10.1584 L 11.7813,10.1439 L 12.0065,10.0645 L 12.0638,10.0402 L 12.2578,9.94328
 L 12.322,9.90497 L 12.4849,9.79039 L 12.5502,9.73561 L 12.687,9.59927 L 12.7411,9.53551 L 12.8569,9.37326
 L 12.8964,9.30768 L 12.9912,9.11952 L 13.0173,9.0574 L 13.091,8.84335 L 13.1066,8.78775 L 13.1593,8.54779
 L 13.1674,8.49963 L 13.1989,8.23376 L 13.2021,8.19284 L 13.2126,7.90108 L 13.2126,7.86501 L 13.2021,7.57324
 L 13.1989,7.53232 L 13.1674,7.26645 L 13.1593,7.21829 L 13.1066,6.97833 L 13.091,6.92273 L 13.0173,6.70868
 L 12.9912,6.64656 L 12.8964,6.4584 L 12.8569,6.39282 L 12.7411,6.23058 L 12.687,6.16681 L 12.5502,6.03047
 L 12.4849,5.97569 L 12.322,5.86111 L 12.2578,5.8228 L 12.0638,5.72586 L 12.0065,5.70155 L 11.7813,5.62222
 L 11.7322,5.6077 L 11.4759,5.54601 L 11.4346,5.53789 L 11.1472,5.49382 L 11.1128,5.48976 L 10.7943,5.46332
 L 10.7655,5.46176 L 10.4158,5.45296 L 10.4033,5.4528 L 9.33647,5.4528 L 9.24278,5.46165 L 9.18196,5.47728
 L 9.12358,5.5004 L 9.06856,5.53064 L 9.01776,5.56755 L 8.97198,5.61053 L 8.93196,5.65891 L 8.89832,5.71193
 L 8.87158,5.76874 L 8.85217,5.82846 L 8.84041,5.89014 L 8.83647,5.9528 L 8.83647,9.81328 L 8.84532,9.90697
 L 8.86095,9.96779 L 8.88406,10.0262 L 8.91431,10.0812 L 8.95122,10.132 L 8.9942,10.1778 L 9.04257,10.2178
 L 9.0956,10.2514 L 9.1524,10.2782 L 9.21213,10.2976 L 9.2738,10.3093 L 9.33647,10.3133 L 10.4033,10.3133
 z
M 9.33647,9.81328 L 9.33647,5.9528 L 10.4033,5.9528 L 10.7529,5.96161 L 11.0715,5.98805 L 11.3589,6.03212
 L 11.6152,6.09381 L 11.8403,6.17314 L 12.0343,6.27008 L 12.1973,6.38466 L 12.3341,6.521 L 12.4498,6.68324
 L 12.5446,6.8714 L 12.6182,7.08545 L 12.6709,7.32541 L 12.7024,7.59128 L 12.713,7.88304 L 12.7024,8.1748
 L 12.6709,8.44067 L 12.6182,8.68063 L 12.5446,8.89468 L 12.4498,9.08284 L 12.3341,9.24509 L 12.1973,9.38142
 L 12.0343,9.496 L 11.8403,9.59294 L 11.6152,9.67227 L 11.3589,9.73396 L 11.0715,9.77803 L 10.7529,9.80447
 L 10.4033,9.81328 z
M 3.84277,8.89809 L -1.22617,8.89809 L -1.22617,6.05264 L 4.37175,6.05264 L 4.37175,3.76465 L -3.82669,3.76465
 L -3.82669,16.9269 L 4.37175,16.9269 L 4.37175,14.6389 L -1.22617,14.6389 L -1.22617,11.1861 L 3.84277,11.1861
 z
M -1.71732,14.7326 L -1.70169,14.7934 L -1.67857,14.8518 L -1.64833,14.9068 L -1.61142,14.9576 L -1.56844,15.0034
 L -1.52007,15.0434 L -1.46704,15.077 L -1.41023,15.1038 L -1.35051,15.1232 L -1.28883,15.1349 L -1.22617,15.1389
 L 3.87175,15.1389 L 3.87175,16.4269 L -3.32669,16.4269 L -3.32669,4.26465 L 3.87175,4.26465 L 3.87175,5.55264
 L -1.22617,5.55264 L -1.31985,5.56149 L -1.38068,5.57712 L -1.43906,5.60023 L -1.49408,5.63048 L -1.54488,5.66739
 L -1.59065,5.71037 L -1.63068,5.75874 L -1.66432,5.81177 L -1.69106,5.86858 L -1.71046,5.9283 L -1.72223,5.98997
 L -1.72617,6.05264 L -1.72617,8.89809 L -1.71732,8.99178 L -1.70169,9.0526 L -1.67857,9.11098 L -1.64833,9.166
 L -1.61142,9.2168 L -1.56844,9.26257 L -1.52007,9.3026 L -1.46704,9.33624 L -1.41023,9.36298 L -1.35051,9.38239
 L -1.28883,9.39415 L -1.22617,9.39809 L 3.34277,9.39809 L 3.34277,10.6861 L -1.22617,10.6861 L -1.31985,10.6949
 L -1.38068,10.7105 L -1.43906,10.7337 L -1.49408,10.7639 L -1.54488,10.8008 L -1.59065,10.8438 L -1.63068,10.8922
 L -1.66432,10.9452 L -1.69106,11.002 L -1.71046,11.0617 L -1.72223,11.1234 L -1.72617,11.1861 L -1.72617,14.6389
 z
" stroke="black" fill="lightgray" stroke-width="0.5"/>
</svg>
