  0
SECTION
  2
BLOCKS
  0
ENDSEC
  0
SECTION
  2
ENTITIES
  0
LINE
  8
0
 10
11.0147
 20
3.8434
 11
11.6211
 21
3.90359
  0
LINE
  8
0
 10
11.6211
 20
3.90359
 11
12.1783
 21
4.00391
  0
LINE
  8
0
 10
12.1783
 20
4.00391
 11
12.6865
 21
4.14433
  0
LINE
  8
0
 10
12.6865
 20
4.14433
 11
13.1455
 21
4.32491
  0
LINE
  8
0
 10
13.1455
 20
4.32491
 11
13.5554
 21
4.54559
  0
LINE
  8
0
 10
13.5554
 20
4.54559
 11
13.9162
 21
4.8064
  0
LINE
  8
0
 10
13.9162
 20
4.8064
 11
14.2285
 21
5.10788
  0
LINE
  8
0
 10
14.2285
 20
5.10788
 11
14.4927
 21
5.45056
  0
LINE
  8
0
 10
14.4927
 20
5.45056
 11
14.7088
 21
5.83446
  0
LINE
  8
0
 10
14.7088
 20
5.83446
 11
14.877
 21
6.25955
  0
LINE
  8
0
 10
14.877
 20
6.25955
 11
14.9971
 21
6.72586
  0
LINE
  8
0
 10
14.9971
 20
6.72586
 11
15.0691
 21
7.23338
  0
LINE
  8
0
 10
15.0691
 20
7.23338
 11
15.0931
 21
7.7821
  0
LINE
  8
0
 10
15.0931
 20
7.7821
 11
15.0779
 21
8.19
  0
LINE
  8
0
 10
15.0779
 20
8.19
 11
15.032
 21
8.57738
  0
LINE
  8
0
 10
15.032
 20
8.57738
 11
14.9555
 21
8.94424
  0
LINE
  8
0
 10
14.9555
 20
8.94424
 11
14.8485
 21
9.2906
  0
LINE
  8
0
 10
14.8485
 20
9.2906
 11
14.7108
 21
9.61646
  0
LINE
  8
0
 10
14.7108
 20
9.61646
 11
14.5426
 21
9.92178
  0
LINE
  8
0
 10
14.5426
 20
9.92178
 11
14.3438
 21
10.2066
  0
LINE
  8
0
 10
14.3438
 20
10.2066
 11
14.1126
 21
10.4734
  0
LINE
  8
0
 10
14.1126
 20
10.4734
 11
13.8473
 21
10.7248
  0
LINE
  8
0
 10
13.8473
 20
10.7248
 11
13.5477
 21
10.9607
  0
LINE
  8
0
 10
13.5477
 20
10.9607
 11
13.214
 21
11.1812
  0
LINE
  8
0
 10
13.214
 20
11.1812
 11
12.8461
 21
11.3861
  0
LINE
  8
0
 10
12.8461
 20
11.3861
 11
12.444
 21
11.5756
  0
LINE
  8
0
 10
12.444
 20
11.5756
 11
12.0077
 21
11.7496
  0
LINE
  8
0
 10
12.0077
 20
11.7496
 11
10.888
 21
12.1732
  0
LINE
  8
0
 10
10.888
 20
12.1732
 11
10.5718
 21
12.2952
  0
LINE
  8
0
 10
10.5718
 20
12.2952
 11
10.2882
 21
12.414
  0
LINE
  8
0
 10
10.2882
 20
12.414
 11
10.0372
 21
12.5298
  0
LINE
  8
0
 10
10.0372
 20
12.5298
 11
9.81866
 21
12.6425
  0
LINE
  8
0
 10
9.81866
 20
12.6425
 11
9.63274
 21
12.7522
  0
LINE
  8
0
 10
9.63274
 20
12.7522
 11
9.47937
 21
12.8588
  0
LINE
  8
0
 10
9.47937
 20
12.8588
 11
9.35858
 21
12.9623
  0
LINE
  8
0
 10
9.35858
 20
12.9623
 11
9.26152
 21
13.0682
  0
LINE
  8
0
 10
9.26152
 20
13.0682
 11
9.1794
 21
13.1819
  0
LINE
  8
0
 10
9.1794
 20
13.1819
 11
9.11221
 21
13.3033
  0
LINE
  8
0
 10
9.11221
 20
13.3033
 11
9.05995
 21
13.4324
  0
LINE
  8
0
 10
9.05995
 20
13.4324
 11
9.02261
 21
13.5692
  0
LINE
  8
0
 10
9.02261
 20
13.5692
 11
9.00023
 21
13.7139
  0
LINE
  8
0
 10
9.00023
 20
13.7139
 11
8.99275
 21
13.8662
  0
LINE
  8
0
 10
8.99275
 20
13.8662
 11
9.00301
 21
14.0611
  0
LINE
  8
0
 10
9.00301
 20
14.0611
 11
9.03377
 21
14.2426
  0
LINE
  8
0
 10
9.03377
 20
14.2426
 11
9.08504
 21
14.4109
  0
LINE
  8
0
 10
9.08504
 20
14.4109
 11
9.15681
 21
14.5658
  0
LINE
  8
0
 10
9.15681
 20
14.5658
 11
9.24911
 21
14.7074
  0
LINE
  8
0
 10
9.24911
 20
14.7074
 11
9.36191
 21
14.8357
  0
LINE
  8
0
 10
9.36191
 20
14.8357
 11
9.49521
 21
14.9507
  0
LINE
  8
0
 10
9.49521
 20
14.9507
 11
9.6478
 21
15.0513
  0
LINE
  8
0
 10
9.6478
 20
15.0513
 11
9.81837
 21
15.1364
  0
LINE
  8
0
 10
9.81837
 20
15.1364
 11
10.0069
 21
15.2061
  0
LINE
  8
0
 10
10.0069
 20
15.2061
 11
10.2135
 21
15.2602
  0
LINE
  8
0
 10
10.2135
 20
15.2602
 11
10.438
 21
15.2989
  0
LINE
  8
0
 10
10.438
 20
15.2989
 11
10.6806
 21
15.3221
  0
LINE
  8
0
 10
10.6806
 20
15.3221
 11
10.9411
 21
15.3299
  0
LINE
  8
0
 10
10.9411
 20
15.3299
 11
11.1832
 21
15.3236
  0
LINE
  8
0
 10
11.1832
 20
15.3236
 11
11.4261
 21
15.3047
  0
LINE
  8
0
 10
11.4261
 20
15.3047
 11
11.6697
 21
15.2733
  0
LINE
  8
0
 10
11.6697
 20
15.2733
 11
11.914
 21
15.2292
  0
LINE
  8
0
 10
11.914
 20
15.2292
 11
12.159
 21
15.1726
  0
LINE
  8
0
 10
12.159
 20
15.1726
 11
12.4048
 21
15.1034
  0
LINE
  8
0
 10
12.4048
 20
15.1034
 11
12.6512
 21
15.0217
  0
LINE
  8
0
 10
12.6512
 20
15.0217
 11
12.8975
 21
14.9278
  0
LINE
  8
0
 10
12.8975
 20
14.9278
 11
13.1427
 21
14.8225
  0
LINE
  8
0
 10
13.1427
 20
14.8225
 11
13.3869
 21
14.7057
  0
LINE
  8
0
 10
13.3869
 20
14.7057
 11
13.63
 21
14.5774
  0
LINE
  8
0
 10
13.63
 20
14.5774
 11
13.8719
 21
14.4376
  0
LINE
  8
0
 10
13.8719
 20
14.4376
 11
14.1128
 21
14.2863
  0
LINE
  8
0
 10
14.1128
 20
14.2863
 11
14.3527
 21
14.1235
  0
LINE
  8
0
 10
14.3527
 20
14.1235
 11
14.3527
 21
16.6611
  0
LINE
  8
0
 10
14.3527
 20
16.6611
 11
14.0979
 21
16.7734
  0
LINE
  8
0
 10
14.0979
 20
16.7734
 11
13.8424
 21
16.8776
  0
LINE
  8
0
 10
13.8424
 20
16.8776
 11
13.5862
 21
16.9737
  0
LINE
  8
0
 10
13.5862
 20
16.9737
 11
13.3293
 21
17.0616
  0
LINE
  8
0
 10
13.3293
 20
17.0616
 11
13.0717
 21
17.1414
  0
LINE
  8
0
 10
13.0717
 20
17.1414
 11
12.8133
 21
17.2131
  0
LINE
  8
0
 10
12.8133
 20
17.2131
 11
12.5542
 21
17.2766
  0
LINE
  8
0
 10
12.5542
 20
17.2766
 11
12.2948
 21
17.3318
  0
LINE
  8
0
 10
12.2948
 20
17.3318
 11
12.0354
 21
17.3786
  0
LINE
  8
0
 10
12.0354
 20
17.3786
 11
11.776
 21
17.4168
  0
LINE
  8
0
 10
11.776
 20
17.4168
 11
11.5166
 21
17.4465
  0
LINE
  8
0
 10
11.5166
 20
17.4465
 11
11.2571
 21
17.4678
  0
LINE
  8
0
 10
11.2571
 20
17.4678
 11
10.9977
 21
17.4805
  0
LINE
  8
0
 10
10.9977
 20
17.4805
 11
10.7383
 21
17.4848
  0
LINE
  8
0
 10
10.7383
 20
17.4848
 11
10.1839
 21
17.4639
  0
LINE
  8
0
 10
10.1839
 20
17.4639
 11
9.66452
 21
17.4012
  0
LINE
  8
0
 10
9.66452
 20
17.4012
 11
9.18001
 21
17.2968
  0
LINE
  8
0
 10
9.18001
 20
17.2968
 11
8.73039
 21
17.1505
  0
LINE
  8
0
 10
8.73039
 20
17.1505
 11
8.31567
 21
16.9625
  0
LINE
  8
0
 10
8.31567
 20
16.9625
 11
7.93587
 21
16.7327
  0
LINE
  8
0
 10
7.93587
 20
16.7327
 11
7.59097
 21
16.4611
  0
LINE
  8
0
 10
7.59097
 20
16.4611
 11
7.28694
 21
16.153
  0
LINE
  8
0
 10
7.28694
 20
16.153
 11
7.02968
 21
15.8136
  0
LINE
  8
0
 10
7.02968
 20
15.8136
 11
6.8192
 21
15.4428
  0
LINE
  8
0
 10
6.8192
 20
15.4428
 11
6.6555
 21
15.0407
  0
LINE
  8
0
 10
6.6555
 20
15.0407
 11
6.53856
 21
14.6073
  0
LINE
  8
0
 10
6.53856
 20
14.6073
 11
6.4684
 21
14.1425
  0
LINE
  8
0
 10
6.4684
 20
14.1425
 11
6.44502
 21
13.6464
  0
LINE
  8
0
 10
6.44502
 20
13.6464
 11
6.45923
 21
13.2597
  0
LINE
  8
0
 10
6.45923
 20
13.2597
 11
6.50186
 21
12.8962
  0
LINE
  8
0
 10
6.50186
 20
12.8962
 11
6.57292
 21
12.5559
  0
LINE
  8
0
 10
6.57292
 20
12.5559
 11
6.67241
 21
12.2389
  0
LINE
  8
0
 10
6.67241
 20
12.2389
 11
6.80032
 21
11.9451
  0
LINE
  8
0
 10
6.80032
 20
11.9451
 11
6.95667
 21
11.6745
  0
LINE
  8
0
 10
6.95667
 20
11.6745
 11
7.14142
 21
11.4272
  0
LINE
  8
0
 10
7.14142
 20
11.4272
 11
7.3663
 21
11.193
  0
LINE
  8
0
 10
7.3663
 20
11.193
 11
7.64301
 21
10.9619
  0
LINE
  8
0
 10
7.64301
 20
10.9619
 11
7.97151
 21
10.7338
  0
LINE
  8
0
 10
7.97151
 20
10.7338
 11
8.35184
 21
10.5088
  0
LINE
  8
0
 10
8.35184
 20
10.5088
 11
8.78398
 21
10.2869
  0
LINE
  8
0
 10
8.78398
 20
10.2869
 11
9.26793
 21
10.068
  0
LINE
  8
0
 10
9.26793
 20
10.068
 11
9.8037
 21
9.85222
  0
LINE
  8
0
 10
9.8037
 20
9.85222
 11
11.082
 21
9.36693
  0
LINE
  8
0
 10
11.082
 20
9.36693
 11
11.2669
 21
9.29015
  0
LINE
  8
0
 10
11.2669
 20
9.29015
 11
11.4389
 21
9.20564
  0
LINE
  8
0
 10
11.4389
 20
9.20564
 11
11.598
 21
9.1134
  0
LINE
  8
0
 10
11.598
 20
9.1134
 11
11.7441
 21
9.01343
  0
LINE
  8
0
 10
11.7441
 20
9.01343
 11
11.8772
 21
8.90573
  0
LINE
  8
0
 10
11.8772
 20
8.90573
 11
11.9974
 21
8.7903
  0
LINE
  8
0
 10
11.9974
 20
8.7903
 11
12.1046
 21
8.66714
  0
LINE
  8
0
 10
12.1046
 20
8.66714
 11
12.1981
 21
8.53719
  0
LINE
  8
0
 10
12.1981
 20
8.53719
 11
12.2773
 21
8.40131
  0
LINE
  8
0
 10
12.2773
 20
8.40131
 11
12.3421
 21
8.25949
  0
LINE
  8
0
 10
12.3421
 20
8.25949
 11
12.3925
 21
8.11176
  0
LINE
  8
0
 10
12.3925
 20
8.11176
 11
12.4285
 21
7.9581
  0
LINE
  8
0
 10
12.4285
 20
7.9581
 11
12.4501
 21
7.79851
  0
LINE
  8
0
 10
12.4501
 20
7.79851
 11
12.4573
 21
7.63298
  0
LINE
  8
0
 10
12.4573
 20
7.63298
 11
12.4465
 21
7.41626
  0
LINE
  8
0
 10
12.4465
 20
7.41626
 11
12.4141
 21
7.21371
  0
LINE
  8
0
 10
12.4141
 20
7.21371
 11
12.3601
 21
7.02536
  0
LINE
  8
0
 10
12.3601
 20
7.02536
 11
12.2845
 21
6.85121
  0
LINE
  8
0
 10
12.2845
 20
6.85121
 11
12.1874
 21
6.69122
  0
LINE
  8
0
 10
12.1874
 20
6.69122
 11
12.0686
 21
6.54544
  0
LINE
  8
0
 10
12.0686
 20
6.54544
 11
11.9283
 21
6.41385
  0
LINE
  8
0
 10
11.9283
 20
6.41385
 11
11.7684
 21
6.29828
  0
LINE
  8
0
 10
11.7684
 20
6.29828
 11
11.5908
 21
6.20049
  0
LINE
  8
0
 10
11.5908
 20
6.20049
 11
11.3956
 21
6.12047
  0
LINE
  8
0
 10
11.3956
 20
6.12047
 11
11.1828
 21
6.05823
  0
LINE
  8
0
 10
11.1828
 20
6.05823
 11
10.9523
 21
6.01378
  0
LINE
  8
0
 10
10.9523
 20
6.01378
 11
10.7042
 21
5.98711
  0
LINE
  8
0
 10
10.7042
 20
5.98711
 11
10.4385
 21
5.97821
  0
LINE
  8
0
 10
10.4385
 20
5.97821
 11
10.166
 21
5.98555
  0
LINE
  8
0
 10
10.166
 20
5.98555
 11
9.89262
 21
6.00757
  0
LINE
  8
0
 10
9.89262
 20
6.00757
 11
9.61835
 21
6.04427
  0
LINE
  8
0
 10
9.61835
 20
6.04427
 11
9.34317
 21
6.09563
  0
LINE
  8
0
 10
9.34317
 20
6.09563
 11
9.06711
 21
6.16168
  0
LINE
  8
0
 10
9.06711
 20
6.16168
 11
8.79015
 21
6.2424
  0
LINE
  8
0
 10
8.79015
 20
6.2424
 11
8.51227
 21
6.3378
  0
LINE
  8
0
 10
8.51227
 20
6.3378
 11
8.23262
 21
6.44827
  0
LINE
  8
0
 10
8.23262
 20
6.44827
 11
7.95026
 21
6.57413
  0
LINE
  8
0
 10
7.95026
 20
6.57413
 11
7.66519
 21
6.71536
  0
LINE
  8
0
 10
7.66519
 20
6.71536
 11
7.37743
 21
6.87199
  0
LINE
  8
0
 10
7.37743
 20
6.87199
 11
7.08696
 21
7.04402
  0
LINE
  8
0
 10
7.08696
 20
7.04402
 11
6.79379
 21
7.23143
  0
LINE
  8
0
 10
6.79379
 20
7.23143
 11
6.49792
 21
7.43422
  0
LINE
  8
0
 10
6.49792
 20
7.43422
 11
6.49792
 21
4.74686
  0
LINE
  8
0
 10
6.49792
 20
4.74686
 11
6.7612
 21
4.62076
  0
LINE
  8
0
 10
6.7612
 20
4.62076
 11
7.02719
 21
4.50383
  0
LINE
  8
0
 10
7.02719
 20
4.50383
 11
7.29587
 21
4.39604
  0
LINE
  8
0
 10
7.29587
 20
4.39604
 11
7.56726
 21
4.29741
  0
LINE
  8
0
 10
7.56726
 20
4.29741
 11
7.84134
 21
4.20793
  0
LINE
  8
0
 10
7.84134
 20
4.20793
 11
8.11813
 21
4.12759
  0
LINE
  8
0
 10
8.11813
 20
4.12759
 11
8.39761
 21
4.05643
  0
LINE
  8
0
 10
8.39761
 20
4.05643
 11
8.67839
 21
3.99458
  0
LINE
  8
0
 10
8.67839
 20
3.99458
 11
8.959
 21
3.94226
  0
LINE
  8
0
 10
8.959
 20
3.94226
 11
9.2394
 21
3.89944
  0
LINE
  8
0
 10
9.2394
 20
3.89944
 11
9.51962
 21
3.86615
  0
LINE
  8
0
 10
9.51962
 20
3.86615
 11
9.79967
 21
3.84236
  0
LINE
  8
0
 10
9.79967
 20
3.84236
 11
10.0795
 21
3.82809
  0
LINE
  8
0
 10
10.0795
 20
3.82809
 11
10.3592
 21
3.82333
  0
LINE
  8
0
 10
10.3592
 20
3.82333
 11
11.0147
 21
3.8434
  0
LINE
  8
0
 10
10.0964
 20
4.32788
 11
9.83359
 21
4.34128
  0
LINE
  8
0
 10
9.83359
 20
4.34128
 11
9.57043
 21
4.36363
  0
LINE
  8
0
 10
9.57043
 20
4.36363
 11
9.3069
 21
4.39494
  0
LINE
  8
0
 10
9.3069
 20
4.39494
 11
9.04245
 21
4.43532
  0
LINE
  8
0
 10
9.04245
 20
4.43532
 11
8.77805
 21
4.48462
  0
LINE
  8
0
 10
8.77805
 20
4.48462
 11
8.51318
 21
4.54295
  0
LINE
  8
0
 10
8.51318
 20
4.54295
 11
8.2493
 21
4.61015
  0
LINE
  8
0
 10
8.2493
 20
4.61015
 11
7.98868
 21
4.68581
  0
LINE
  8
0
 10
7.98868
 20
4.68581
 11
7.73033
 21
4.77014
  0
LINE
  8
0
 10
7.73033
 20
4.77014
 11
7.4745
 21
4.86311
  0
LINE
  8
0
 10
7.4745
 20
4.86311
 11
7.22108
 21
4.96478
  0
LINE
  8
0
 10
7.22108
 20
4.96478
 11
6.99792
 21
5.06288
  0
LINE
  8
0
 10
6.99792
 20
5.06288
 11
6.99792
 21
6.51564
  0
LINE
  8
0
 10
6.99792
 20
6.51564
 11
7.12263
 21
6.44179
  0
LINE
  8
0
 10
7.12263
 20
6.44179
 11
7.1384
 21
6.43283
  0
LINE
  8
0
 10
7.1384
 20
6.43283
 11
7.42616
 21
6.2762
  0
LINE
  8
0
 10
7.42616
 20
6.2762
 11
7.44322
 21
6.26733
  0
LINE
  8
0
 10
7.44322
 20
6.26733
 11
7.72829
 21
6.1261
  0
LINE
  8
0
 10
7.72829
 20
6.1261
 11
7.7467
 21
6.11743
  0
LINE
  8
0
 10
7.7467
 20
6.11743
 11
8.02907
 21
5.99158
  0
LINE
  8
0
 10
8.02907
 20
5.99158
 11
8.04892
 21
5.98325
  0
LINE
  8
0
 10
8.04892
 20
5.98325
 11
8.32857
 21
5.87277
  0
LINE
  8
0
 10
8.32857
 20
5.87277
 11
8.34991
 21
5.8649
  0
LINE
  8
0
 10
8.34991
 20
5.8649
 11
8.62779
 21
5.7695
  0
LINE
  8
0
 10
8.62779
 20
5.7695
 11
8.65024
 21
5.76237
  0
LINE
  8
0
 10
8.65024
 20
5.76237
 11
8.9272
 21
5.68166
  0
LINE
  8
0
 10
8.9272
 20
5.68166
 11
8.95076
 21
5.67542
  0
LINE
  8
0
 10
8.95076
 20
5.67542
 11
9.22682
 21
5.60936
  0
LINE
  8
0
 10
9.22682
 20
5.60936
 11
9.25143
 21
5.60411
  0
LINE
  8
0
 10
9.25143
 20
5.60411
 11
9.52661
 21
5.55275
  0
LINE
  8
0
 10
9.52661
 20
5.55275
 11
9.55203
 21
5.54868
  0
LINE
  8
0
 10
9.55203
 20
5.54868
 11
9.82631
 21
5.51198
  0
LINE
  8
0
 10
9.82631
 20
5.51198
 11
9.85248
 21
5.50919
  0
LINE
  8
0
 10
9.85248
 20
5.50919
 11
10.1259
 21
5.48717
  0
LINE
  8
0
 10
10.1259
 20
5.48717
 11
10.1525
 21
5.48573
  0
LINE
  8
0
 10
10.1525
 20
5.48573
 11
10.425
 21
5.47839
  0
LINE
  8
0
 10
10.425
 20
5.47839
 11
10.4552
 21
5.47849
  0
LINE
  8
0
 10
10.4552
 20
5.47849
 11
10.7209
 21
5.48738
  0
LINE
  8
0
 10
10.7209
 20
5.48738
 11
10.7577
 21
5.48997
  0
LINE
  8
0
 10
10.7577
 20
5.48997
 11
11.0058
 21
5.51665
  0
LINE
  8
0
 10
11.0058
 20
5.51665
 11
11.047
 21
5.52283
  0
LINE
  8
0
 10
11.047
 20
5.52283
 11
11.2775
 21
5.56728
  0
LINE
  8
0
 10
11.2775
 20
5.56728
 11
11.3232
 21
5.57832
  0
LINE
  8
0
 10
11.3232
 20
5.57832
 11
11.536
 21
5.64056
  0
LINE
  8
0
 10
11.536
 20
5.64056
 11
11.5853
 21
5.65784
  0
LINE
  8
0
 10
11.5853
 20
5.65784
 11
11.7805
 21
5.73785
  0
LINE
  8
0
 10
11.7805
 20
5.73785
 11
11.832
 21
5.76253
  0
LINE
  8
0
 10
11.832
 20
5.76253
 11
12.0096
 21
5.86032
  0
LINE
  8
0
 10
12.0096
 20
5.86032
 11
12.0612
 21
5.89304
  0
LINE
  8
0
 10
12.0612
 20
5.89304
 11
12.2212
 21
6.00861
  0
LINE
  8
0
 10
12.2212
 20
6.00861
 11
12.2703
 21
6.04912
  0
LINE
  8
0
 10
12.2703
 20
6.04912
 11
12.4106
 21
6.18071
  0
LINE
  8
0
 10
12.4106
 20
6.18071
 11
12.4563
 21
6.22964
  0
LINE
  8
0
 10
12.4563
 20
6.22964
 11
12.575
 21
6.37543
  0
LINE
  8
0
 10
12.575
 20
6.37543
 11
12.6147
 21
6.4317
  0
LINE
  8
0
 10
12.6147
 20
6.4317
 11
12.7119
 21
6.59169
  0
LINE
  8
0
 10
12.7119
 20
6.59169
 11
12.7432
 21
6.65219
  0
LINE
  8
0
 10
12.7432
 20
6.65219
 11
12.8188
 21
6.82634
  0
LINE
  8
0
 10
12.8188
 20
6.82634
 11
12.8407
 21
6.8876
  0
LINE
  8
0
 10
12.8407
 20
6.8876
 11
12.8947
 21
7.07596
  0
LINE
  8
0
 10
12.8947
 20
7.07596
 11
12.9078
 21
7.13478
  0
LINE
  8
0
 10
12.9078
 20
7.13478
 11
12.9402
 21
7.33733
  0
LINE
  8
0
 10
12.9402
 20
7.33733
 11
12.9458
 21
7.39137
  0
LINE
  8
0
 10
12.9458
 20
7.39137
 11
12.9566
 21
7.60809
  0
LINE
  8
0
 10
12.9566
 20
7.60809
 11
12.9568
 21
7.65471
  0
LINE
  8
0
 10
12.9568
 20
7.65471
 11
12.9496
 21
7.82024
  0
LINE
  8
0
 10
12.9496
 20
7.82024
 11
12.9455
 21
7.86554
  0
LINE
  8
0
 10
12.9455
 20
7.86554
 11
12.924
 21
8.02513
  0
LINE
  8
0
 10
12.924
 20
8.02513
 11
12.9153
 21
8.07214
  0
LINE
  8
0
 10
12.9153
 20
8.07214
 11
12.8793
 21
8.2258
  0
LINE
  8
0
 10
12.8793
 20
8.2258
 11
12.8657
 21
8.27315
  0
LINE
  8
0
 10
12.8657
 20
8.27315
 11
12.8153
 21
8.42088
  0
LINE
  8
0
 10
12.8153
 20
8.42088
 11
12.7969
 21
8.46722
  0
LINE
  8
0
 10
12.7969
 20
8.46722
 11
12.7321
 21
8.60904
  0
LINE
  8
0
 10
12.7321
 20
8.60904
 11
12.7093
 21
8.65305
  0
LINE
  8
0
 10
12.7093
 20
8.65305
 11
12.6301
 21
8.78893
  0
LINE
  8
0
 10
12.6301
 20
8.78893
 11
12.6039
 21
8.82933
  0
LINE
  8
0
 10
12.6039
 20
8.82933
 11
12.5103
 21
8.95929
  0
LINE
  8
0
 10
12.5103
 20
8.95929
 11
12.4817
 21
8.99544
  0
LINE
  8
0
 10
12.4817
 20
8.99544
 11
12.3745
 21
9.11859
  0
LINE
  8
0
 10
12.3745
 20
9.11859
 11
12.3437
 21
9.15089
  0
LINE
  8
0
 10
12.3437
 20
9.15089
 11
12.2235
 21
9.26633
  0
LINE
  8
0
 10
12.2235
 20
9.26633
 11
12.1917
 21
9.29445
  0
LINE
  8
0
 10
12.1917
 20
9.29445
 11
12.0585
 21
9.40215
  0
LINE
  8
0
 10
12.0585
 20
9.40215
 11
12.0264
 21
9.42606
  0
LINE
  8
0
 10
12.0264
 20
9.42606
 11
11.8804
 21
9.52603
  0
LINE
  8
0
 10
11.8804
 20
9.52603
 11
11.8488
 21
9.54593
  0
LINE
  8
0
 10
11.8488
 20
9.54593
 11
11.6898
 21
9.63817
  0
LINE
  8
0
 10
11.6898
 20
9.63817
 11
11.6594
 21
9.6544
  0
LINE
  8
0
 10
11.6594
 20
9.6544
 11
11.4874
 21
9.73891
  0
LINE
  8
0
 10
11.4874
 20
9.73891
 11
11.4586
 21
9.75194
  0
LINE
  8
0
 10
11.4586
 20
9.75194
 11
11.2737
 21
9.82872
  0
LINE
  8
0
 10
11.2737
 20
9.82872
 11
11.2594
 21
9.83438
  0
LINE
  8
0
 10
11.2594
 20
9.83438
 11
9.98572
 21
10.3179
  0
LINE
  8
0
 10
9.98572
 20
10.3179
 11
9.46426
 21
10.528
  0
LINE
  8
0
 10
9.46426
 20
10.528
 11
9.0013
 21
10.7374
  0
LINE
  8
0
 10
9.0013
 20
10.7374
 11
8.59367
 21
10.9467
  0
LINE
  8
0
 10
8.59367
 20
10.9467
 11
8.24173
 21
11.1549
  0
LINE
  8
0
 10
8.24173
 20
11.1549
 11
7.9464
 21
11.3599
  0
LINE
  8
0
 10
7.9464
 20
11.3599
 11
7.70798
 21
11.5591
  0
LINE
  8
0
 10
7.70798
 20
11.5591
 11
7.52345
 21
11.7512
  0
LINE
  8
0
 10
7.52345
 20
11.7512
 11
7.37483
 21
11.9502
  0
LINE
  8
0
 10
7.37483
 20
11.9502
 11
7.24747
 21
12.1706
  0
LINE
  8
0
 10
7.24747
 20
12.1706
 11
7.14151
 21
12.414
  0
LINE
  8
0
 10
7.14151
 20
12.414
 11
7.05734
 21
12.6822
  0
LINE
  8
0
 10
7.05734
 20
12.6822
 11
6.99586
 21
12.9766
  0
LINE
  8
0
 10
6.99586
 20
12.9766
 11
6.95816
 21
13.298
  0
LINE
  8
0
 10
6.95816
 20
13.298
 11
6.94547
 21
13.6438
  0
LINE
  8
0
 10
6.94547
 20
13.6438
 11
6.96664
 21
14.0933
  0
LINE
  8
0
 10
6.96664
 20
14.0933
 11
7.02872
 21
14.5045
  0
LINE
  8
0
 10
7.02872
 20
14.5045
 11
7.13023
 21
14.8808
  0
LINE
  8
0
 10
7.13023
 20
14.8808
 11
7.27
 21
15.2241
  0
LINE
  8
0
 10
7.27
 20
15.2241
 11
7.44818
 21
15.538
  0
LINE
  8
0
 10
7.44818
 20
15.538
 11
7.66574
 21
15.8251
  0
LINE
  8
0
 10
7.66574
 20
15.8251
 11
7.92487
 21
16.0876
  0
LINE
  8
0
 10
7.92487
 20
16.0876
 11
8.22102
 21
16.3208
  0
LINE
  8
0
 10
8.22102
 20
16.3208
 11
8.54913
 21
16.5194
  0
LINE
  8
0
 10
8.54913
 20
16.5194
 11
8.91156
 21
16.6837
  0
LINE
  8
0
 10
8.91156
 20
16.6837
 11
9.31035
 21
16.8134
  0
LINE
  8
0
 10
9.31035
 20
16.8134
 11
9.7473
 21
16.9076
  0
LINE
  8
0
 10
9.7473
 20
16.9076
 11
10.2233
 21
16.965
  0
LINE
  8
0
 10
10.2233
 20
16.965
 11
10.7436
 21
16.9846
  0
LINE
  8
0
 10
10.7436
 20
16.9846
 11
10.9813
 21
16.9807
  0
LINE
  8
0
 10
10.9813
 20
16.9807
 11
11.2245
 21
16.9688
  0
LINE
  8
0
 10
11.2245
 20
16.9688
 11
11.4678
 21
16.9489
  0
LINE
  8
0
 10
11.4678
 20
16.9489
 11
11.711
 21
16.921
  0
LINE
  8
0
 10
11.711
 20
16.921
 11
11.9548
 21
16.885
  0
LINE
  8
0
 10
11.9548
 20
16.885
 11
12.1983
 21
16.8412
  0
LINE
  8
0
 10
12.1983
 20
16.8412
 11
12.4429
 21
16.7891
  0
LINE
  8
0
 10
12.4429
 20
16.7891
 11
12.6869
 21
16.7293
  0
LINE
  8
0
 10
12.6869
 20
16.7293
 11
12.9306
 21
16.6617
  0
LINE
  8
0
 10
12.9306
 20
16.6617
 11
13.1746
 21
16.5861
  0
LINE
  8
0
 10
13.1746
 20
16.5861
 11
13.4172
 21
16.5031
  0
LINE
  8
0
 10
13.4172
 20
16.5031
 11
13.6604
 21
16.4119
  0
LINE
  8
0
 10
13.6604
 20
16.4119
 11
13.8527
 21
16.3335
  0
LINE
  8
0
 10
13.8527
 20
16.3335
 11
13.8527
 21
15.0252
  0
LINE
  8
0
 10
13.8527
 20
15.0252
 11
13.6203
 21
15.1479
  0
LINE
  8
0
 10
13.6203
 20
15.1479
 11
13.6027
 21
15.1568
  0
LINE
  8
0
 10
13.6027
 20
15.1568
 11
13.3585
 21
15.2736
  0
LINE
  8
0
 10
13.3585
 20
15.2736
 11
13.3401
 21
15.282
  0
LINE
  8
0
 10
13.3401
 20
15.282
 11
13.0948
 21
15.3873
  0
LINE
  8
0
 10
13.0948
 20
15.3873
 11
13.0755
 21
15.3951
  0
LINE
  8
0
 10
13.0755
 20
15.3951
 11
12.8292
 21
15.4889
  0
LINE
  8
0
 10
12.8292
 20
15.4889
 11
12.8087
 21
15.4962
  0
LINE
  8
0
 10
12.8087
 20
15.4962
 11
12.5622
 21
15.578
  0
LINE
  8
0
 10
12.5622
 20
15.578
 11
12.5403
 21
15.5847
  0
LINE
  8
0
 10
12.5403
 20
15.5847
 11
12.2946
 21
15.6539
  0
LINE
  8
0
 10
12.2946
 20
15.6539
 11
12.2716
 21
15.6598
  0
LINE
  8
0
 10
12.2716
 20
15.6598
 11
12.0266
 21
15.7164
  0
LINE
  8
0
 10
12.0266
 20
15.7164
 11
12.0027
 21
15.7213
  0
LINE
  8
0
 10
12.0027
 20
15.7213
 11
11.7584
 21
15.7653
  0
LINE
  8
0
 10
11.7584
 20
15.7653
 11
11.7337
 21
15.7691
  0
LINE
  8
0
 10
11.7337
 20
15.7691
 11
11.4901
 21
15.8006
  0
LINE
  8
0
 10
11.4901
 20
15.8006
 11
11.4648
 21
15.8032
  0
LINE
  8
0
 10
11.4648
 20
15.8032
 11
11.222
 21
15.8221
  0
LINE
  8
0
 10
11.222
 20
15.8221
 11
11.1962
 21
15.8234
  0
LINE
  8
0
 10
11.1962
 20
15.8234
 11
10.954
 21
15.8297
  0
LINE
  8
0
 10
10.954
 20
15.8297
 11
10.9262
 21
15.8297
  0
LINE
  8
0
 10
10.9262
 20
15.8297
 11
10.6657
 21
15.8219
  0
LINE
  8
0
 10
10.6657
 20
15.8219
 11
10.6329
 21
15.8199
  0
LINE
  8
0
 10
10.6329
 20
15.8199
 11
10.3904
 21
15.7966
  0
LINE
  8
0
 10
10.3904
 20
15.7966
 11
10.3531
 21
15.7917
  0
LINE
  8
0
 10
10.3531
 20
15.7917
 11
10.1286
 21
15.753
  0
LINE
  8
0
 10
10.1286
 20
15.753
 11
10.0866
 21
15.7439
  0
LINE
  8
0
 10
10.0866
 20
15.7439
 11
9.88007
 21
15.6897
  0
LINE
  8
0
 10
9.88007
 20
15.6897
 11
9.83369
 21
15.6751
  0
LINE
  8
0
 10
9.83369
 20
15.6751
 11
9.64514
 21
15.6054
  0
LINE
  8
0
 10
9.64514
 20
15.6054
 11
9.59511
 21
15.5838
  0
LINE
  8
0
 10
9.59511
 20
15.5838
 11
9.42453
 21
15.4987
  0
LINE
  8
0
 10
9.42453
 20
15.4987
 11
9.37254
 21
15.4687
  0
LINE
  8
0
 10
9.37254
 20
15.4687
 11
9.21996
 21
15.3681
  0
LINE
  8
0
 10
9.21996
 20
15.3681
 11
9.16867
 21
15.3293
  0
LINE
  8
0
 10
9.16867
 20
15.3293
 11
9.03537
 21
15.2144
  0
LINE
  8
0
 10
9.03537
 20
15.2144
 11
8.98639
 21
15.1658
  0
LINE
  8
0
 10
8.98639
 20
15.1658
 11
8.8736
 21
15.0376
  0
LINE
  8
0
 10
8.8736
 20
15.0376
 11
8.83025
 21
14.9805
  0
LINE
  8
0
 10
8.83025
 20
14.9805
 11
8.73795
 21
14.8389
  0
LINE
  8
0
 10
8.73795
 20
14.8389
 11
8.70314
 21
14.776
  0
LINE
  8
0
 10
8.70314
 20
14.776
 11
8.63136
 21
14.6211
  0
LINE
  8
0
 10
8.63136
 20
14.6211
 11
8.60675
 21
14.5566
  0
LINE
  8
0
 10
8.60675
 20
14.5566
 11
8.55548
 21
14.3884
  0
LINE
  8
0
 10
8.55548
 20
14.3884
 11
8.54079
 21
14.3262
  0
LINE
  8
0
 10
8.54079
 20
14.3262
 11
8.51003
 21
14.1446
  0
LINE
  8
0
 10
8.51003
 20
14.1446
 11
8.50369
 21
14.0874
  0
LINE
  8
0
 10
8.50369
 20
14.0874
 11
8.49344
 21
13.8925
  0
LINE
  8
0
 10
8.49344
 20
13.8925
 11
8.49335
 21
13.8417
  0
LINE
  8
0
 10
8.49335
 20
13.8417
 11
8.50082
 21
13.6894
  0
LINE
  8
0
 10
8.50082
 20
13.6894
 11
8.50612
 21
13.6374
  0
LINE
  8
0
 10
8.50612
 20
13.6374
 11
8.5285
 21
13.4928
  0
LINE
  8
0
 10
8.5285
 20
13.4928
 11
8.54024
 21
13.4376
  0
LINE
  8
0
 10
8.54024
 20
13.4376
 11
8.57758
 21
13.3008
  0
LINE
  8
0
 10
8.57758
 20
13.3008
 11
8.59647
 21
13.2448
  0
LINE
  8
0
 10
8.59647
 20
13.2448
 11
8.64873
 21
13.1157
  0
LINE
  8
0
 10
8.64873
 20
13.1157
 11
8.67474
 21
13.0611
  0
LINE
  8
0
 10
8.67474
 20
13.0611
 11
8.74193
 21
12.9397
  0
LINE
  8
0
 10
8.74193
 20
12.9397
 11
8.77414
 21
12.889
  0
LINE
  8
0
 10
8.77414
 20
12.889
 11
8.85626
 21
12.7754
  0
LINE
  8
0
 10
8.85626
 20
12.7754
 11
8.89293
 21
12.7304
  0
LINE
  8
0
 10
8.89293
 20
12.7304
 11
8.98999
 21
12.6245
  0
LINE
  8
0
 10
8.98999
 20
12.6245
 11
9.03319
 21
12.5827
  0
LINE
  8
0
 10
9.03319
 20
12.5827
 11
9.15398
 21
12.4792
  0
LINE
  8
0
 10
9.15398
 20
12.4792
 11
9.194
 21
12.4482
  0
LINE
  8
0
 10
9.194
 20
12.4482
 11
9.34737
 21
12.3416
  0
LINE
  8
0
 10
9.34737
 20
12.3416
 11
9.37872
 21
12.3215
  0
LINE
  8
0
 10
9.37872
 20
12.3215
 11
9.56465
 21
12.2119
  0
LINE
  8
0
 10
9.56465
 20
12.2119
 11
9.58945
 21
12.1982
  0
LINE
  8
0
 10
9.58945
 20
12.1982
 11
9.80795
 21
12.0854
  0
LINE
  8
0
 10
9.80795
 20
12.0854
 11
9.82774
 21
12.0758
  0
LINE
  8
0
 10
9.82774
 20
12.0758
 11
10.0788
 21
11.96
  0
LINE
  8
0
 10
10.0788
 20
11.96
 11
10.095
 21
11.9529
  0
LINE
  8
0
 10
10.095
 20
11.9529
 11
10.3786
 21
11.834
  0
LINE
  8
0
 10
10.3786
 20
11.834
 11
10.3919
 21
11.8286
  0
LINE
  8
0
 10
10.3919
 20
11.8286
 11
10.7111
 21
11.7056
  0
LINE
  8
0
 10
10.7111
 20
11.7056
 11
11.8266
 21
11.2835
  0
LINE
  8
0
 10
11.8266
 20
11.2835
 11
12.2448
 21
11.1167
  0
LINE
  8
0
 10
12.2448
 20
11.1167
 11
12.6176
 21
10.941
  0
LINE
  8
0
 10
12.6176
 20
10.941
 11
12.9542
 21
10.7535
  0
LINE
  8
0
 10
12.9542
 20
10.7535
 11
13.2547
 21
10.5551
  0
LINE
  8
0
 10
13.2547
 20
10.5551
 11
13.52
 21
10.3461
  0
LINE
  8
0
 10
13.52
 20
10.3461
 11
13.7508
 21
10.1275
  0
LINE
  8
0
 10
13.7508
 20
10.1275
 11
13.9488
 21
9.89894
  0
LINE
  8
0
 10
13.9488
 20
9.89894
 11
14.1174
 21
9.65735
  0
LINE
  8
0
 10
14.1174
 20
9.65735
 11
14.2604
 21
9.39793
  0
LINE
  8
0
 10
14.2604
 20
9.39793
 11
14.3782
 21
9.11903
  0
LINE
  8
0
 10
14.3782
 20
9.11903
 11
14.4708
 21
8.81921
  0
LINE
  8
0
 10
14.4708
 20
8.81921
 11
14.538
 21
8.49683
  0
LINE
  8
0
 10
14.538
 20
8.49683
 11
14.579
 21
8.15108
  0
LINE
  8
0
 10
14.579
 20
8.15108
 11
14.5927
 21
7.78374
  0
LINE
  8
0
 10
14.5927
 20
7.78374
 11
14.5707
 21
7.27956
  0
LINE
  8
0
 10
14.5707
 20
7.27956
 11
14.5059
 21
6.82356
  0
LINE
  8
0
 10
14.5059
 20
6.82356
 11
14.4005
 21
6.41443
  0
LINE
  8
0
 10
14.4005
 20
6.41443
 11
14.2565
 21
6.05008
  0
LINE
  8
0
 10
14.2565
 20
6.05008
 11
14.0747
 21
5.72731
  0
LINE
  8
0
 10
14.0747
 20
5.72731
 11
13.8549
 21
5.44217
  0
LINE
  8
0
 10
13.8549
 20
5.44217
 11
13.5945
 21
5.19081
  0
LINE
  8
0
 10
13.5945
 20
5.19081
 11
13.2893
 21
4.9702
  0
LINE
  8
0
 10
13.2893
 20
4.9702
 11
12.9346
 21
4.77924
  0
LINE
  8
0
 10
12.9346
 20
4.77924
 11
12.528
 21
4.61928
  0
LINE
  8
0
 10
12.528
 20
4.61928
 11
12.0673
 21
4.49196
  0
LINE
  8
0
 10
12.0673
 20
4.49196
 11
11.552
 21
4.3992
  0
LINE
  8
0
 10
11.552
 20
4.3992
 11
10.9823
 21
4.34265
  0
LINE
  8
0
 10
10.9823
 20
4.34265
 11
10.3556
 21
4.32347
  0
LINE
  8
0
 10
10.3556
 20
4.32347
 11
10.0964
 21
4.32788
  0
LINE
  8
0
 10
-2.3105
 20
14.6242
 11
-0.899994
 21
8.86526
  0
LINE
  8
0
 10
-0.899994
 20
8.86526
 11
1.17168
 21
8.86526
  0
LINE
  8
0
 10
1.17168
 20
8.86526
 11
2.56462
 21
14.6242
  0
LINE
  8
0
 10
2.56462
 20
14.6242
 11
2.56462
 21
4.08125
  0
LINE
  8
0
 10
2.56462
 20
4.08125
 11
4.80374
 21
4.08125
  0
LINE
  8
0
 10
4.80374
 20
4.08125
 11
4.80374
 21
17.2435
  0
LINE
  8
0
 10
4.80374
 20
17.2435
 11
1.68295
 21
17.2435
  0
LINE
  8
0
 10
1.68295
 20
17.2435
 11
0.122696
 21
11.4669
  0
LINE
  8
0
 10
0.122696
 20
11.4669
 11
-1.44652
 21
17.2435
  0
LINE
  8
0
 10
-1.44652
 20
17.2435
 11
-4.54962
 21
17.2435
  0
LINE
  8
0
 10
-4.54962
 20
17.2435
 11
-4.54962
 21
4.08125
  0
LINE
  8
0
 10
-4.54962
 20
4.08125
 11
-2.3105
 21
4.08125
  0
LINE
  8
0
 10
-2.3105
 20
4.08125
 11
-2.3105
 21
14.6242
  0
LINE
  8
0
 10
-4.04962
 20
4.58125
 11
-4.04962
 21
16.7435
  0
LINE
  8
0
 10
-4.04962
 20
16.7435
 11
-1.82881
 21
16.7435
  0
LINE
  8
0
 10
-1.82881
 20
16.7435
 11
-0.359818
 21
11.3359
  0
LINE
  8
0
 10
-0.359818
 20
11.3359
 11
-0.344452
 21
11.2887
  0
LINE
  8
0
 10
-0.344452
 20
11.2887
 11
-0.318436
 21
11.2315
  0
LINE
  8
0
 10
-0.318436
 20
11.2315
 11
-0.285446
 21
11.1781
  0
LINE
  8
0
 10
-0.285446
 20
11.1781
 11
-0.246033
 21
11.1292
  0
LINE
  8
0
 10
-0.246033
 20
11.1292
 11
-0.200806
 21
11.0857
  0
LINE
  8
0
 10
-0.200806
 20
11.0857
 11
-0.150467
 21
11.0481
  0
LINE
  8
0
 10
-0.150467
 20
11.0481
 11
-0.0958252
 21
11.0172
  0
LINE
  8
0
 10
-0.0958252
 20
11.0172
 11
-0.037735
 21
10.9934
  0
LINE
  8
0
 10
-0.037735
 20
10.9934
 11
0.0228882
 21
10.977
  0
LINE
  8
0
 10
0.0228882
 20
10.977
 11
0.085083
 21
10.9684
  0
LINE
  8
0
 10
0.085083
 20
10.9684
 11
0.147858
 21
10.9676
  0
LINE
  8
0
 10
0.147858
 20
10.9676
 11
0.210251
 21
10.9747
  0
LINE
  8
0
 10
0.210251
 20
10.9747
 11
0.271255
 21
10.9895
  0
LINE
  8
0
 10
0.271255
 20
10.9895
 11
0.329926
 21
11.0119
  0
LINE
  8
0
 10
0.329926
 20
11.0119
 11
0.385315
 21
11.0415
  0
LINE
  8
0
 10
0.385315
 20
11.0415
 11
0.436569
 21
11.0777
  0
LINE
  8
0
 10
0.436569
 20
11.0777
 11
0.48288
 21
11.1201
  0
LINE
  8
0
 10
0.48288
 20
11.1201
 11
0.523499
 21
11.168
  0
LINE
  8
0
 10
0.523499
 20
11.168
 11
0.557816
 21
11.2206
  0
LINE
  8
0
 10
0.557816
 20
11.2206
 11
0.585251
 21
11.2771
  0
LINE
  8
0
 10
0.585251
 20
11.2771
 11
0.605392
 21
11.3365
  0
LINE
  8
0
 10
0.605392
 20
11.3365
 11
2.06581
 21
16.7435
  0
LINE
  8
0
 10
2.06581
 20
16.7435
 11
4.30374
 21
16.7435
  0
LINE
  8
0
 10
4.30374
 20
16.7435
 11
4.30374
 21
4.58125
  0
LINE
  8
0
 10
4.30374
 20
4.58125
 11
3.06462
 21
4.58125
  0
LINE
  8
0
 10
3.06462
 20
4.58125
 11
3.06462
 21
14.6242
  0
LINE
  8
0
 10
3.06462
 20
14.6242
 11
3.05975
 21
14.6938
  0
LINE
  8
0
 10
3.05975
 20
14.6938
 11
3.04712
 21
14.7554
  0
LINE
  8
0
 10
3.04712
 20
14.7554
 11
3.02689
 21
14.8148
  0
LINE
  8
0
 10
3.02689
 20
14.8148
 11
2.99936
 21
14.8712
  0
LINE
  8
0
 10
2.99936
 20
14.8712
 11
2.96497
 21
14.9238
  0
LINE
  8
0
 10
2.96497
 20
14.9238
 11
2.92427
 21
14.9716
  0
LINE
  8
0
 10
2.92427
 20
14.9716
 11
2.8779
 21
15.0139
  0
LINE
  8
0
 10
2.8779
 20
15.0139
 11
2.8266
 21
15.0501
  0
LINE
  8
0
 10
2.8266
 20
15.0501
 11
2.77115
 21
15.0796
  0
LINE
  8
0
 10
2.77115
 20
15.0796
 11
2.71245
 21
15.1019
  0
LINE
  8
0
 10
2.71245
 20
15.1019
 11
2.65143
 21
15.1166
  0
LINE
  8
0
 10
2.65143
 20
15.1166
 11
2.58902
 21
15.1236
  0
LINE
  8
0
 10
2.58902
 20
15.1236
 11
2.52623
 21
15.1228
  0
LINE
  8
0
 10
2.52623
 20
15.1228
 11
2.46407
 21
15.114
  0
LINE
  8
0
 10
2.46407
 20
15.114
 11
2.40346
 21
15.0975
  0
LINE
  8
0
 10
2.40346
 20
15.0975
 11
2.34541
 21
15.0736
  0
LINE
  8
0
 10
2.34541
 20
15.0736
 11
2.29082
 21
15.0426
  0
LINE
  8
0
 10
2.29082
 20
15.0426
 11
2.24054
 21
15.005
  0
LINE
  8
0
 10
2.24054
 20
15.005
 11
2.19537
 21
14.9614
  0
LINE
  8
0
 10
2.19537
 20
14.9614
 11
2.15604
 21
14.9124
  0
LINE
  8
0
 10
2.15604
 20
14.9124
 11
2.12314
 21
14.8589
  0
LINE
  8
0
 10
2.12314
 20
14.8589
 11
2.0972
 21
14.8018
  0
LINE
  8
0
 10
2.0972
 20
14.8018
 11
2.07863
 21
14.7418
  0
LINE
  8
0
 10
2.07863
 20
14.7418
 11
0.778183
 21
9.36526
  0
LINE
  8
0
 10
0.778183
 20
9.36526
 11
-0.507675
 21
9.36526
  0
LINE
  8
0
 10
-0.507675
 20
9.36526
 11
-1.82486
 21
14.7432
  0
LINE
  8
0
 10
-1.82486
 20
14.7432
 11
-1.84561
 21
14.8083
  0
LINE
  8
0
 10
-1.84561
 20
14.8083
 11
-1.87234
 21
14.8651
  0
LINE
  8
0
 10
-1.87234
 20
14.8651
 11
-1.90599
 21
14.9181
  0
LINE
  8
0
 10
-1.90599
 20
14.9181
 11
-1.94601
 21
14.9665
  0
LINE
  8
0
 10
-1.94601
 20
14.9665
 11
-1.99179
 21
15.0095
  0
LINE
  8
0
 10
-1.99179
 20
15.0095
 11
-2.04259
 21
15.0464
  0
LINE
  8
0
 10
-2.04259
 20
15.0464
 11
-2.09761
 21
15.0766
  0
LINE
  8
0
 10
-2.09761
 20
15.0766
 11
-2.15599
 21
15.0998
  0
LINE
  8
0
 10
-2.15599
 20
15.0998
 11
-2.21681
 21
15.1154
  0
LINE
  8
0
 10
-2.21681
 20
15.1154
 11
-2.2791
 21
15.1232
  0
LINE
  8
0
 10
-2.2791
 20
15.1232
 11
-2.3419
 21
15.1232
  0
LINE
  8
0
 10
-2.3419
 20
15.1232
 11
-2.40419
 21
15.1154
  0
LINE
  8
0
 10
-2.40419
 20
15.1154
 11
-2.46501
 21
15.0998
  0
LINE
  8
0
 10
-2.46501
 20
15.0998
 11
-2.52339
 21
15.0766
  0
LINE
  8
0
 10
-2.52339
 20
15.0766
 11
-2.57841
 21
15.0464
  0
LINE
  8
0
 10
-2.57841
 20
15.0464
 11
-2.62921
 21
15.0095
  0
LINE
  8
0
 10
-2.62921
 20
15.0095
 11
-2.67499
 21
14.9665
  0
LINE
  8
0
 10
-2.67499
 20
14.9665
 11
-2.71501
 21
14.9181
  0
LINE
  8
0
 10
-2.71501
 20
14.9181
 11
-2.74866
 21
14.8651
  0
LINE
  8
0
 10
-2.74866
 20
14.8651
 11
-2.77539
 21
14.8083
  0
LINE
  8
0
 10
-2.77539
 20
14.8083
 11
-2.7948
 21
14.7486
  0
LINE
  8
0
 10
-2.7948
 20
14.7486
 11
-2.80656
 21
14.6869
  0
LINE
  8
0
 10
-2.80656
 20
14.6869
 11
-2.8105
 21
14.6242
  0
LINE
  8
0
 10
-2.8105
 20
14.6242
 11
-2.8105
 21
4.58125
  0
LINE
  8
0
 10
-2.8105
 20
4.58125
 11
-4.04962
 21
4.58125
  0
LINE
  8
0
 10
-6.56998
 20
17.2435
 11
-14.407
 21
17.2435
  0
LINE
  8
0
 10
-14.407
 20
17.2435
 11
-14.407
 21
14.9555
  0
LINE
  8
0
 10
-14.407
 20
14.9555
 11
-11.7888
 21
14.9555
  0
LINE
  8
0
 10
-11.7888
 20
14.9555
 11
-11.7888
 21
6.36926
  0
LINE
  8
0
 10
-11.7888
 20
6.36926
 11
-14.407
 21
6.36926
  0
LINE
  8
0
 10
-14.407
 20
6.36926
 11
-14.407
 21
4.08125
  0
LINE
  8
0
 10
-14.407
 20
4.08125
 11
-6.56998
 21
4.08125
  0
LINE
  8
0
 10
-6.56998
 20
4.08125
 11
-6.56998
 21
6.36926
  0
LINE
  8
0
 10
-6.56998
 20
6.36926
 11
-9.18817
 21
6.36926
  0
LINE
  8
0
 10
-9.18817
 20
6.36926
 11
-9.18817
 21
14.9555
  0
LINE
  8
0
 10
-9.18817
 20
14.9555
 11
-6.56998
 21
14.9555
  0
LINE
  8
0
 10
-6.56998
 20
14.9555
 11
-6.56998
 21
17.2435
  0
LINE
  8
0
 10
-9.67932
 20
6.27557
 11
-9.6637
 21
6.21475
  0
LINE
  8
0
 10
-9.6637
 20
6.21475
 11
-9.64058
 21
6.15637
  0
LINE
  8
0
 10
-9.64058
 20
6.15637
 11
-9.61034
 21
6.10135
  0
LINE
  8
0
 10
-9.61034
 20
6.10135
 11
-9.57343
 21
6.05055
  0
LINE
  8
0
 10
-9.57343
 20
6.05055
 11
-9.53044
 21
6.00478
  0
LINE
  8
0
 10
-9.53044
 20
6.00478
 11
-9.48207
 21
5.96475
  0
LINE
  8
0
 10
-9.48207
 20
5.96475
 11
-9.42905
 21
5.93111
  0
LINE
  8
0
 10
-9.42905
 20
5.93111
 11
-9.37224
 21
5.90437
  0
LINE
  8
0
 10
-9.37224
 20
5.90437
 11
-9.31252
 21
5.88496
  0
LINE
  8
0
 10
-9.31252
 20
5.88496
 11
-9.25084
 21
5.8732
  0
LINE
  8
0
 10
-9.25084
 20
5.8732
 11
-9.18817
 21
5.86926
  0
LINE
  8
0
 10
-9.18817
 20
5.86926
 11
-7.06998
 21
5.86926
  0
LINE
  8
0
 10
-7.06998
 20
5.86926
 11
-7.06998
 21
4.58125
  0
LINE
  8
0
 10
-7.06998
 20
4.58125
 11
-13.907
 21
4.58125
  0
LINE
  8
0
 10
-13.907
 20
4.58125
 11
-13.907
 21
5.86926
  0
LINE
  8
0
 10
-13.907
 20
5.86926
 11
-11.7888
 21
5.86926
  0
LINE
  8
0
 10
-11.7888
 20
5.86926
 11
-11.6951
 21
5.87811
  0
LINE
  8
0
 10
-11.6951
 20
5.87811
 11
-11.6343
 21
5.89374
  0
LINE
  8
0
 10
-11.6343
 20
5.89374
 11
-11.5759
 21
5.91685
  0
LINE
  8
0
 10
-11.5759
 20
5.91685
 11
-11.5209
 21
5.9471
  0
LINE
  8
0
 10
-11.5209
 20
5.9471
 11
-11.4701
 21
5.98401
  0
LINE
  8
0
 10
-11.4701
 20
5.98401
 11
-11.4243
 21
6.02699
  0
LINE
  8
0
 10
-11.4243
 20
6.02699
 11
-11.3843
 21
6.07536
  0
LINE
  8
0
 10
-11.3843
 20
6.07536
 11
-11.3507
 21
6.12839
  0
LINE
  8
0
 10
-11.3507
 20
6.12839
 11
-11.3239
 21
6.1852
  0
LINE
  8
0
 10
-11.3239
 20
6.1852
 11
-11.3045
 21
6.24492
  0
LINE
  8
0
 10
-11.3045
 20
6.24492
 11
-11.2928
 21
6.30659
  0
LINE
  8
0
 10
-11.2928
 20
6.30659
 11
-11.2888
 21
6.36926
  0
LINE
  8
0
 10
-11.2888
 20
6.36926
 11
-11.2888
 21
14.9555
  0
LINE
  8
0
 10
-11.2888
 20
14.9555
 11
-11.2977
 21
15.0492
  0
LINE
  8
0
 10
-11.2977
 20
15.0492
 11
-11.3133
 21
15.11
  0
LINE
  8
0
 10
-11.3133
 20
15.11
 11
-11.3364
 21
15.1684
  0
LINE
  8
0
 10
-11.3364
 20
15.1684
 11
-11.3667
 21
15.2234
  0
LINE
  8
0
 10
-11.3667
 20
15.2234
 11
-11.4036
 21
15.2742
  0
LINE
  8
0
 10
-11.4036
 20
15.2742
 11
-11.4465
 21
15.32
  0
LINE
  8
0
 10
-11.4465
 20
15.32
 11
-11.4949
 21
15.36
  0
LINE
  8
0
 10
-11.4949
 20
15.36
 11
-11.5479
 21
15.3936
  0
LINE
  8
0
 10
-11.5479
 20
15.3936
 11
-11.6048
 21
15.4204
  0
LINE
  8
0
 10
-11.6048
 20
15.4204
 11
-11.6645
 21
15.4398
  0
LINE
  8
0
 10
-11.6645
 20
15.4398
 11
-11.7262
 21
15.4515
  0
LINE
  8
0
 10
-11.7262
 20
15.4515
 11
-11.7888
 21
15.4555
  0
LINE
  8
0
 10
-11.7888
 20
15.4555
 11
-13.907
 21
15.4555
  0
LINE
  8
0
 10
-13.907
 20
15.4555
 11
-13.907
 21
16.7435
  0
LINE
  8
0
 10
-13.907
 20
16.7435
 11
-7.06998
 21
16.7435
  0
LINE
  8
0
 10
-7.06998
 20
16.7435
 11
-7.06998
 21
15.4555
  0
LINE
  8
0
 10
-7.06998
 20
15.4555
 11
-9.18817
 21
15.4555
  0
LINE
  8
0
 10
-9.18817
 20
15.4555
 11
-9.28186
 21
15.4466
  0
LINE
  8
0
 10
-9.28186
 20
15.4466
 11
-9.34268
 21
15.431
  0
LINE
  8
0
 10
-9.34268
 20
15.431
 11
-9.40106
 21
15.4079
  0
LINE
  8
0
 10
-9.40106
 20
15.4079
 11
-9.45609
 21
15.3776
  0
LINE
  8
0
 10
-9.45609
 20
15.3776
 11
-9.50688
 21
15.3407
  0
LINE
  8
0
 10
-9.50688
 20
15.3407
 11
-9.55266
 21
15.2977
  0
LINE
  8
0
 10
-9.55266
 20
15.2977
 11
-9.59268
 21
15.2494
  0
LINE
  8
0
 10
-9.59268
 20
15.2494
 11
-9.62633
 21
15.1964
  0
LINE
  8
0
 10
-9.62633
 20
15.1964
 11
-9.65306
 21
15.1395
  0
LINE
  8
0
 10
-9.65306
 20
15.1395
 11
-9.67247
 21
15.0798
  0
LINE
  8
0
 10
-9.67247
 20
15.0798
 11
-9.68423
 21
15.0181
  0
LINE
  8
0
 10
-9.68423
 20
15.0181
 11
-9.68817
 21
14.9555
  0
LINE
  8
0
 10
-9.68817
 20
14.9555
 11
-9.68817
 21
6.36926
  0
LINE
  8
0
 10
-9.68817
 20
6.36926
 11
-9.67932
 21
6.27557
  0
LINE
  8
0
 10
-21.3544
 20
3.84447
 11
-20.7721
 21
3.90784
  0
LINE
  8
0
 10
-20.7721
 20
3.90784
 11
-20.2432
 21
4.01346
  0
LINE
  8
0
 10
-20.2432
 20
4.01346
 11
-19.7678
 21
4.16132
  0
LINE
  8
0
 10
-19.7678
 20
4.16132
 11
-19.3458
 21
4.35143
  0
LINE
  8
0
 10
-19.3458
 20
4.35143
 11
-18.9773
 21
4.58379
  0
LINE
  8
0
 10
-18.9773
 20
4.58379
 11
-18.6622
 21
4.8584
  0
LINE
  8
0
 10
-18.6622
 20
4.8584
 11
-18.3944
 21
5.18208
  0
LINE
  8
0
 10
-18.3944
 20
5.18208
 11
-18.1678
 21
5.56168
  0
LINE
  8
0
 10
-18.1678
 20
5.56168
 11
-17.9824
 21
5.99719
  0
LINE
  8
0
 10
-17.9824
 20
5.99719
 11
-17.8382
 21
6.4886
  0
LINE
  8
0
 10
-17.8382
 20
6.4886
 11
-17.7352
 21
7.03593
  0
LINE
  8
0
 10
-17.7352
 20
7.03593
 11
-17.6734
 21
7.63918
  0
LINE
  8
0
 10
-17.6734
 20
7.63918
 11
-17.6528
 21
8.29832
  0
LINE
  8
0
 10
-17.6528
 20
8.29832
 11
-17.6528
 21
17.2435
  0
LINE
  8
0
 10
-17.6528
 20
17.2435
 11
-23.4358
 21
17.2435
  0
LINE
  8
0
 10
-23.4358
 20
17.2435
 11
-23.4358
 21
14.9555
  0
LINE
  8
0
 10
-23.4358
 20
14.9555
 11
-20.2534
 21
14.9555
  0
LINE
  8
0
 10
-20.2534
 20
14.9555
 11
-20.2534
 21
8.29832
  0
LINE
  8
0
 10
-20.2534
 20
8.29832
 11
-20.2631
 21
7.99158
  0
LINE
  8
0
 10
-20.2631
 20
7.99158
 11
-20.2923
 21
7.70961
  0
LINE
  8
0
 10
-20.2923
 20
7.70961
 11
-20.3409
 21
7.45239
  0
LINE
  8
0
 10
-20.3409
 20
7.45239
 11
-20.4089
 21
7.21996
  0
LINE
  8
0
 10
-20.4089
 20
7.21996
 11
-20.4963
 21
7.01228
  0
LINE
  8
0
 10
-20.4963
 20
7.01228
 11
-20.6032
 21
6.82938
  0
LINE
  8
0
 10
-20.6032
 20
6.82938
 11
-20.7295
 21
6.67125
  0
LINE
  8
0
 10
-20.7295
 20
6.67125
 11
-20.8766
 21
6.53595
  0
LINE
  8
0
 10
-20.8766
 20
6.53595
 11
-21.0461
 21
6.42146
  0
LINE
  8
0
 10
-21.0461
 20
6.42146
 11
-21.2379
 21
6.32779
  0
LINE
  8
0
 10
-21.2379
 20
6.32779
 11
-21.452
 21
6.25493
  0
LINE
  8
0
 10
-21.452
 20
6.25493
 11
-21.6884
 21
6.2029
  0
LINE
  8
0
 10
-21.6884
 20
6.2029
 11
-21.9471
 21
6.17166
  0
LINE
  8
0
 10
-21.9471
 20
6.17166
 11
-22.2281
 21
6.16125
  0
LINE
  8
0
 10
-22.2281
 20
6.16125
 11
-22.4772
 21
6.16949
  0
LINE
  8
0
 10
-22.4772
 20
6.16949
 11
-22.7257
 21
6.19423
  0
LINE
  8
0
 10
-22.7257
 20
6.19423
 11
-22.9737
 21
6.23544
  0
LINE
  8
0
 10
-22.9737
 20
6.23544
 11
-23.2212
 21
6.29315
  0
LINE
  8
0
 10
-23.2212
 20
6.29315
 11
-23.4681
 21
6.36734
  0
LINE
  8
0
 10
-23.4681
 20
6.36734
 11
-23.7145
 21
6.45801
  0
LINE
  8
0
 10
-23.7145
 20
6.45801
 11
-23.9604
 21
6.56517
  0
LINE
  8
0
 10
-23.9604
 20
6.56517
 11
-24.2038
 21
6.68814
  0
LINE
  8
0
 10
-24.2038
 20
6.68814
 11
-24.4432
 21
6.82616
  0
LINE
  8
0
 10
-24.4432
 20
6.82616
 11
-24.6784
 21
6.97923
  0
LINE
  8
0
 10
-24.6784
 20
6.97923
 11
-24.9095
 21
7.14735
  0
LINE
  8
0
 10
-24.9095
 20
7.14735
 11
-25.1364
 21
7.33054
  0
LINE
  8
0
 10
-25.1364
 20
7.33054
 11
-25.3593
 21
7.52876
  0
LINE
  8
0
 10
-25.3593
 20
7.52876
 11
-25.5779
 21
7.74205
  0
LINE
  8
0
 10
-25.5779
 20
7.74205
 11
-25.5779
 21
4.73022
  0
LINE
  8
0
 10
-25.5779
 20
4.73022
 11
-25.3138
 21
4.60641
  0
LINE
  8
0
 10
-25.3138
 20
4.60641
 11
-25.0501
 21
4.49161
  0
LINE
  8
0
 10
-25.0501
 20
4.49161
 11
-24.787
 21
4.38577
  0
LINE
  8
0
 10
-24.787
 20
4.38577
 11
-24.5244
 21
4.28893
  0
LINE
  8
0
 10
-24.5244
 20
4.28893
 11
-24.2624
 21
4.20105
  0
LINE
  8
0
 10
-24.2624
 20
4.20105
 11
-24.0009
 21
4.12216
  0
LINE
  8
0
 10
-24.0009
 20
4.12216
 11
-23.74
 21
4.05226
  0
LINE
  8
0
 10
-23.74
 20
4.05226
 11
-23.4808
 21
3.99153
  0
LINE
  8
0
 10
-23.4808
 20
3.99153
 11
-23.2247
 21
3.94014
  0
LINE
  8
0
 10
-23.2247
 20
3.94014
 11
-22.9717
 21
3.89809
  0
LINE
  8
0
 10
-22.9717
 20
3.89809
 11
-22.7217
 21
3.86539
  0
LINE
  8
0
 10
-22.7217
 20
3.86539
 11
-22.4747
 21
3.84203
  0
LINE
  8
0
 10
-22.4747
 20
3.84203
 11
-22.2309
 21
3.828
  0
LINE
  8
0
 10
-22.2309
 20
3.828
 11
-21.9901
 21
3.82333
  0
LINE
  8
0
 10
-21.9901
 20
3.82333
 11
-21.3544
 21
3.84447
  0
LINE
  8
0
 10
-22.2117
 20
4.32773
 11
-22.437
 21
4.34068
  0
LINE
  8
0
 10
-22.437
 20
4.34068
 11
-22.6656
 21
4.3623
  0
LINE
  8
0
 10
-22.6656
 20
4.3623
 11
-22.898
 21
4.3927
  0
LINE
  8
0
 10
-22.898
 20
4.3927
 11
-23.1345
 21
4.43201
  0
LINE
  8
0
 10
-23.1345
 20
4.43201
 11
-23.3747
 21
4.48021
  0
LINE
  8
0
 10
-23.3747
 20
4.48021
 11
-23.6183
 21
4.53729
  0
LINE
  8
0
 10
-23.6183
 20
4.53729
 11
-23.8641
 21
4.60313
  0
LINE
  8
0
 10
-23.8641
 20
4.60313
 11
-24.1108
 21
4.67755
  0
LINE
  8
0
 10
-24.1108
 20
4.67755
 11
-24.3585
 21
4.76062
  0
LINE
  8
0
 10
-24.3585
 20
4.76062
 11
-24.6071
 21
4.85234
  0
LINE
  8
0
 10
-24.6071
 20
4.85234
 11
-24.8569
 21
4.9528
  0
LINE
  8
0
 10
-24.8569
 20
4.9528
 11
-25.0779
 21
5.04907
  0
LINE
  8
0
 10
-25.0779
 20
5.04907
 11
-25.0779
 21
6.65158
  0
LINE
  8
0
 10
-25.0779
 20
6.65158
 11
-24.9725
 21
6.57491
  0
LINE
  8
0
 10
-24.9725
 20
6.57491
 11
-24.9511
 21
6.56017
  0
LINE
  8
0
 10
-24.9511
 20
6.56017
 11
-24.7159
 21
6.40709
  0
LINE
  8
0
 10
-24.7159
 20
6.40709
 11
-24.693
 21
6.39301
  0
LINE
  8
0
 10
-24.693
 20
6.39301
 11
-24.4536
 21
6.25499
  0
LINE
  8
0
 10
-24.4536
 20
6.25499
 11
-24.4292
 21
6.24184
  0
LINE
  8
0
 10
-24.4292
 20
6.24184
 11
-24.1858
 21
6.11887
  0
LINE
  8
0
 10
-24.1858
 20
6.11887
 11
-24.1601
 21
6.10683
  0
LINE
  8
0
 10
-24.1601
 20
6.10683
 11
-23.9143
 21
5.99966
  0
LINE
  8
0
 10
-23.9143
 20
5.99966
 11
-23.8872
 21
5.98877
  0
LINE
  8
0
 10
-23.8872
 20
5.98877
 11
-23.6408
 21
5.8981
  0
LINE
  8
0
 10
-23.6408
 20
5.8981
 11
-23.612
 21
5.88849
  0
LINE
  8
0
 10
-23.612
 20
5.88849
 11
-23.365
 21
5.8143
  0
LINE
  8
0
 10
-23.365
 20
5.8143
 11
-23.3347
 21
5.80621
  0
LINE
  8
0
 10
-23.3347
 20
5.80621
 11
-23.0873
 21
5.7485
  0
LINE
  8
0
 10
-23.0873
 20
5.7485
 11
-23.0557
 21
5.7422
  0
LINE
  8
0
 10
-23.0557
 20
5.7422
 11
-22.8077
 21
5.70099
  0
LINE
  8
0
 10
-22.8077
 20
5.70099
 11
-22.7752
 21
5.69669
  0
LINE
  8
0
 10
-22.7752
 20
5.69669
 11
-22.5267
 21
5.67195
  0
LINE
  8
0
 10
-22.5267
 20
5.67195
 11
-22.4937
 21
5.66977
  0
LINE
  8
0
 10
-22.4937
 20
5.66977
 11
-22.2446
 21
5.66153
  0
LINE
  8
0
 10
-22.2446
 20
5.66153
 11
-22.2096
 21
5.66159
  0
LINE
  8
0
 10
-22.2096
 20
5.66159
 11
-21.9286
 21
5.672
  0
LINE
  8
0
 10
-21.9286
 20
5.672
 11
-21.8872
 21
5.67526
  0
LINE
  8
0
 10
-21.8872
 20
5.67526
 11
-21.6284
 21
5.7065
  0
LINE
  8
0
 10
-21.6284
 20
5.7065
 11
-21.5809
 21
5.71458
  0
LINE
  8
0
 10
-21.5809
 20
5.71458
 11
-21.3445
 21
5.76662
  0
LINE
  8
0
 10
-21.3445
 20
5.76662
 11
-21.2909
 21
5.78159
  0
LINE
  8
0
 10
-21.2909
 20
5.78159
 11
-21.0768
 21
5.85445
  0
LINE
  8
0
 10
-21.0768
 20
5.85445
 11
-21.0185
 21
5.87851
  0
LINE
  8
0
 10
-21.0185
 20
5.87851
 11
-20.8267
 21
5.97218
  0
LINE
  8
0
 10
-20.8267
 20
5.97218
 11
-20.7662
 21
6.00714
  0
LINE
  8
0
 10
-20.7662
 20
6.00714
 11
-20.5967
 21
6.12163
  0
LINE
  8
0
 10
-20.5967
 20
6.12163
 11
-20.5382
 21
6.16786
  0
LINE
  8
0
 10
-20.5382
 20
6.16786
 11
-20.3911
 21
6.30316
  0
LINE
  8
0
 10
-20.3911
 20
6.30316
 11
-20.3388
 21
6.35921
  0
LINE
  8
0
 10
-20.3388
 20
6.35921
 11
-20.2125
 21
6.51733
  0
LINE
  8
0
 10
-20.2125
 20
6.51733
 11
-20.1715
 21
6.57713
  0
LINE
  8
0
 10
-20.1715
 20
6.57713
 11
-20.0646
 21
6.76004
  0
LINE
  8
0
 10
-20.0646
 20
6.76004
 11
-20.0355
 21
6.81827
  0
LINE
  8
0
 10
-20.0355
 20
6.81827
 11
-19.948
 21
7.02594
  0
LINE
  8
0
 10
-19.948
 20
7.02594
 11
-19.929
 21
7.07954
  0
LINE
  8
0
 10
-19.929
 20
7.07954
 11
-19.861
 21
7.31198
  0
LINE
  8
0
 10
-19.861
 20
7.31198
 11
-19.8495
 21
7.35959
  0
LINE
  8
0
 10
-19.8495
 20
7.35959
 11
-19.8009
 21
7.61681
  0
LINE
  8
0
 10
-19.8009
 20
7.61681
 11
-19.7949
 21
7.6582
  0
LINE
  8
0
 10
-19.7949
 20
7.6582
 11
-19.7658
 21
7.94017
  0
LINE
  8
0
 10
-19.7658
 20
7.94017
 11
-19.7634
 21
7.97574
  0
LINE
  8
0
 10
-19.7634
 20
7.97574
 11
-19.7536
 21
8.28249
  0
LINE
  8
0
 10
-19.7536
 20
8.28249
 11
-19.7534
 21
8.29832
  0
LINE
  8
0
 10
-19.7534
 20
8.29832
 11
-19.7534
 21
14.9555
  0
LINE
  8
0
 10
-19.7534
 20
14.9555
 11
-19.7623
 21
15.0492
  0
LINE
  8
0
 10
-19.7623
 20
15.0492
 11
-19.7779
 21
15.11
  0
LINE
  8
0
 10
-19.7779
 20
15.11
 11
-19.801
 21
15.1684
  0
LINE
  8
0
 10
-19.801
 20
15.1684
 11
-19.8312
 21
15.2234
  0
LINE
  8
0
 10
-19.8312
 20
15.2234
 11
-19.8681
 21
15.2742
  0
LINE
  8
0
 10
-19.8681
 20
15.2742
 11
-19.9111
 21
15.32
  0
LINE
  8
0
 10
-19.9111
 20
15.32
 11
-19.9595
 21
15.36
  0
LINE
  8
0
 10
-19.9595
 20
15.36
 11
-20.0125
 21
15.3936
  0
LINE
  8
0
 10
-20.0125
 20
15.3936
 11
-20.0693
 21
15.4204
  0
LINE
  8
0
 10
-20.0693
 20
15.4204
 11
-20.1291
 21
15.4398
  0
LINE
  8
0
 10
-20.1291
 20
15.4398
 11
-20.1907
 21
15.4515
  0
LINE
  8
0
 10
-20.1907
 20
15.4515
 11
-20.2534
 21
15.4555
  0
LINE
  8
0
 10
-20.2534
 20
15.4555
 11
-22.9358
 21
15.4555
  0
LINE
  8
0
 10
-22.9358
 20
15.4555
 11
-22.9358
 21
16.7435
  0
LINE
  8
0
 10
-22.9358
 20
16.7435
 11
-18.1528
 21
16.7435
  0
LINE
  8
0
 10
-18.1528
 20
16.7435
 11
-18.1528
 21
8.30614
  0
LINE
  8
0
 10
-18.1528
 20
8.30614
 11
-18.1726
 21
7.67244
  0
LINE
  8
0
 10
-18.1726
 20
7.67244
 11
-18.2304
 21
7.10788
  0
LINE
  8
0
 10
-18.2304
 20
7.10788
 11
-18.325
 21
6.60547
  0
LINE
  8
0
 10
-18.325
 20
6.60547
 11
-18.4539
 21
6.16614
  0
LINE
  8
0
 10
-18.4539
 20
6.16614
 11
-18.6145
 21
5.78876
  0
LINE
  8
0
 10
-18.6145
 20
5.78876
 11
-18.804
 21
5.47131
  0
LINE
  8
0
 10
-18.804
 20
5.47131
 11
-19.0215
 21
5.20853
  0
LINE
  8
0
 10
-19.0215
 20
5.20853
 11
-19.2767
 21
4.98611
  0
LINE
  8
0
 10
-19.2767
 20
4.98611
 11
-19.583
 21
4.79298
  0
LINE
  8
0
 10
-19.583
 20
4.79298
 11
-19.9454
 21
4.62971
  0
LINE
  8
0
 10
-19.9454
 20
4.62971
 11
-20.3669
 21
4.49864
  0
LINE
  8
0
 10
-20.3669
 20
4.49864
 11
-20.8481
 21
4.40251
  0
LINE
  8
0
 10
-20.8481
 20
4.40251
 11
-21.3898
 21
4.34357
  0
LINE
  8
0
 10
-21.3898
 20
4.34357
 11
-21.9935
 21
4.3235
  0
LINE
  8
0
 10
-21.9935
 20
4.3235
 11
-22.2117
 21
4.32773
  0
LINE
  8
0
 10
24.1395
 20
10.5542
 11
18.5769
 21
10.5542
  0
LINE
  8
0
 10
18.5769
 20
10.5542
 11
18.5769
 21
7.99165
  0
LINE
  8
0
 10
18.5769
 20
7.99165
 11
24.1395
 21
7.99165
  0
LINE
  8
0
 10
24.1395
 20
7.99165
 11
24.1395
 21
10.5542
  0
LINE
  8
0
 10
19.0769
 20
8.49165
 11
19.0769
 21
10.0542
  0
LINE
  8
0
 10
19.0769
 20
10.0542
 11
23.6395
 21
10.0542
  0
LINE
  8
0
 10
23.6395
 20
10.0542
 11
23.6395
 21
8.49165
  0
LINE
  8
0
 10
23.6395
 20
8.49165
 11
19.0769
 21
8.49165
  0
LINE
  8
0
 10
-12.115
 20
-11.0696
 11
-8.862
 21
-11.0696
  0
LINE
  8
0
 10
-8.862
 20
-11.0696
 11
-8.862
 21
-16.9269
  0
LINE
  8
0
 10
-8.862
 20
-16.9269
 11
-6.26135
 21
-16.9269
  0
LINE
  8
0
 10
-6.26135
 20
-16.9269
 11
-6.26135
 21
-3.76465
  0
LINE
  8
0
 10
-6.26135
 20
-3.76465
 11
-8.862
 21
-3.76465
  0
LINE
  8
0
 10
-8.862
 20
-3.76465
 11
-8.862
 21
-8.7816
  0
LINE
  8
0
 10
-8.862
 20
-8.7816
 11
-12.115
 21
-8.7816
  0
LINE
  8
0
 10
-12.115
 20
-8.7816
 11
-12.115
 21
-3.76465
  0
LINE
  8
0
 10
-12.115
 20
-3.76465
 11
-14.7156
 21
-3.76465
  0
LINE
  8
0
 10
-14.7156
 20
-3.76465
 11
-14.7156
 21
-16.9269
  0
LINE
  8
0
 10
-14.7156
 20
-16.9269
 11
-12.115
 21
-16.9269
  0
LINE
  8
0
 10
-12.115
 20
-16.9269
 11
-12.115
 21
-11.0696
  0
LINE
  8
0
 10
-14.2156
 20
-16.4269
 11
-14.2156
 21
-4.26465
  0
LINE
  8
0
 10
-14.2156
 20
-4.26465
 11
-12.615
 21
-4.26465
  0
LINE
  8
0
 10
-12.615
 20
-4.26465
 11
-12.615
 21
-8.7816
  0
LINE
  8
0
 10
-12.615
 20
-8.7816
 11
-12.6061
 21
-8.87529
  0
LINE
  8
0
 10
-12.6061
 20
-8.87529
 11
-12.5905
 21
-8.93611
  0
LINE
  8
0
 10
-12.5905
 20
-8.93611
 11
-12.5674
 21
-8.99449
  0
LINE
  8
0
 10
-12.5674
 20
-8.99449
 11
-12.5372
 21
-9.04951
  0
LINE
  8
0
 10
-12.5372
 20
-9.04951
 11
-12.5002
 21
-9.10031
  0
LINE
  8
0
 10
-12.5002
 20
-9.10031
 11
-12.4573
 21
-9.14609
  0
LINE
  8
0
 10
-12.4573
 20
-9.14609
 11
-12.4089
 21
-9.18611
  0
LINE
  8
0
 10
-12.4089
 20
-9.18611
 11
-12.3559
 21
-9.21976
  0
LINE
  8
0
 10
-12.3559
 20
-9.21976
 11
-12.2991
 21
-9.24649
  0
LINE
  8
0
 10
-12.2991
 20
-9.24649
 11
-12.2393
 21
-9.2659
  0
LINE
  8
0
 10
-12.2393
 20
-9.2659
 11
-12.1777
 21
-9.27766
  0
LINE
  8
0
 10
-12.1777
 20
-9.27766
 11
-12.115
 21
-9.2816
  0
LINE
  8
0
 10
-12.115
 20
-9.2816
 11
-8.862
 21
-9.2816
  0
LINE
  8
0
 10
-8.862
 20
-9.2816
 11
-8.76831
 21
-9.27275
  0
LINE
  8
0
 10
-8.76831
 20
-9.27275
 11
-8.70749
 21
-9.25713
  0
LINE
  8
0
 10
-8.70749
 20
-9.25713
 11
-8.64911
 21
-9.23401
  0
LINE
  8
0
 10
-8.64911
 20
-9.23401
 11
-8.59409
 21
-9.20377
  0
LINE
  8
0
 10
-8.59409
 20
-9.20377
 11
-8.54329
 21
-9.16685
  0
LINE
  8
0
 10
-8.54329
 20
-9.16685
 11
-8.49751
 21
-9.12387
  0
LINE
  8
0
 10
-8.49751
 20
-9.12387
 11
-8.45749
 21
-9.0755
  0
LINE
  8
0
 10
-8.45749
 20
-9.0755
 11
-8.42384
 21
-9.02248
  0
LINE
  8
0
 10
-8.42384
 20
-9.02248
 11
-8.39711
 21
-8.96567
  0
LINE
  8
0
 10
-8.39711
 20
-8.96567
 11
-8.3777
 21
-8.90594
  0
LINE
  8
0
 10
-8.3777
 20
-8.90594
 11
-8.36594
 21
-8.84427
  0
LINE
  8
0
 10
-8.36594
 20
-8.84427
 11
-8.362
 21
-8.7816
  0
LINE
  8
0
 10
-8.362
 20
-8.7816
 11
-8.362
 21
-4.26465
  0
LINE
  8
0
 10
-8.362
 20
-4.26465
 11
-6.76135
 21
-4.26465
  0
LINE
  8
0
 10
-6.76135
 20
-4.26465
 11
-6.76135
 21
-16.4269
  0
LINE
  8
0
 10
-6.76135
 20
-16.4269
 11
-8.362
 21
-16.4269
  0
LINE
  8
0
 10
-8.362
 20
-16.4269
 11
-8.362
 21
-11.0696
  0
LINE
  8
0
 10
-8.362
 20
-11.0696
 11
-8.37085
 21
-10.9759
  0
LINE
  8
0
 10
-8.37085
 20
-10.9759
 11
-8.38647
 21
-10.9151
  0
LINE
  8
0
 10
-8.38647
 20
-10.9151
 11
-8.40959
 21
-10.8567
  0
LINE
  8
0
 10
-8.40959
 20
-10.8567
 11
-8.43983
 21
-10.8017
  0
LINE
  8
0
 10
-8.43983
 20
-10.8017
 11
-8.47675
 21
-10.7509
  0
LINE
  8
0
 10
-8.47675
 20
-10.7509
 11
-8.51973
 21
-10.7051
  0
LINE
  8
0
 10
-8.51973
 20
-10.7051
 11
-8.5681
 21
-10.6651
  0
LINE
  8
0
 10
-8.5681
 20
-10.6651
 11
-8.62112
 21
-10.6314
  0
LINE
  8
0
 10
-8.62112
 20
-10.6314
 11
-8.67793
 21
-10.6047
  0
LINE
  8
0
 10
-8.67793
 20
-10.6047
 11
-8.73766
 21
-10.5853
  0
LINE
  8
0
 10
-8.73766
 20
-10.5853
 11
-8.79933
 21
-10.5735
  0
LINE
  8
0
 10
-8.79933
 20
-10.5735
 11
-8.862
 21
-10.5696
  0
LINE
  8
0
 10
-8.862
 20
-10.5696
 11
-12.115
 21
-10.5696
  0
LINE
  8
0
 10
-12.115
 20
-10.5696
 11
-12.2087
 21
-10.5784
  0
LINE
  8
0
 10
-12.2087
 20
-10.5784
 11
-12.2695
 21
-10.5941
  0
LINE
  8
0
 10
-12.2695
 20
-10.5941
 11
-12.3279
 21
-10.6172
  0
LINE
  8
0
 10
-12.3279
 20
-10.6172
 11
-12.3829
 21
-10.6474
  0
LINE
  8
0
 10
-12.3829
 20
-10.6474
 11
-12.4337
 21
-10.6843
  0
LINE
  8
0
 10
-12.4337
 20
-10.6843
 11
-12.4795
 21
-10.7273
  0
LINE
  8
0
 10
-12.4795
 20
-10.7273
 11
-12.5195
 21
-10.7757
  0
LINE
  8
0
 10
-12.5195
 20
-10.7757
 11
-12.5531
 21
-10.8287
  0
LINE
  8
0
 10
-12.5531
 20
-10.8287
 11
-12.5799
 21
-10.8855
  0
LINE
  8
0
 10
-12.5799
 20
-10.8855
 11
-12.5993
 21
-10.9452
  0
LINE
  8
0
 10
-12.5993
 20
-10.9452
 11
-12.6111
 21
-11.0069
  0
LINE
  8
0
 10
-12.6111
 20
-11.0069
 11
-12.615
 21
-11.0696
  0
LINE
  8
0
 10
-12.615
 20
-11.0696
 11
-12.615
 21
-16.4269
  0
LINE
  8
0
 10
-12.615
 20
-16.4269
 11
-14.2156
 21
-16.4269
  0
LINE
  8
0
 10
9.33647
 20
-12.0014
 11
10.3063
 21
-12.0014
  0
LINE
  8
0
 10
10.3063
 20
-12.0014
 11
11.0533
 21
-11.9816
  0
LINE
  8
0
 10
11.0533
 20
-11.9816
 11
11.738
 21
-11.9222
  0
LINE
  8
0
 10
11.738
 20
-11.9222
 11
12.3602
 21
-11.8233
  0
LINE
  8
0
 10
12.3602
 20
-11.8233
 11
12.92
 21
-11.6847
  0
LINE
  8
0
 10
12.92
 20
-11.6847
 11
13.4173
 21
-11.5065
  0
LINE
  8
0
 10
13.4173
 20
-11.5065
 11
13.8522
 21
-11.2887
  0
LINE
  8
0
 10
13.8522
 20
-11.2887
 11
14.2247
 21
-11.0314
  0
LINE
  8
0
 10
14.2247
 20
-11.0314
 11
14.5417
 21
-10.7296
  0
LINE
  8
0
 10
14.5417
 20
-10.7296
 11
14.8098
 21
-10.3784
  0
LINE
  8
0
 10
14.8098
 20
-10.3784
 11
15.0292
 21
-9.97798
  0
LINE
  8
0
 10
15.0292
 20
-9.97798
 11
15.1999
 21
-9.52823
  0
LINE
  8
0
 10
15.1999
 20
-9.52823
 11
15.3218
 21
-9.02914
  0
LINE
  8
0
 10
15.3218
 20
-9.02914
 11
15.3949
 21
-8.48074
  0
LINE
  8
0
 10
15.3949
 20
-8.48074
 11
15.4193
 21
-7.88304
  0
LINE
  8
0
 10
15.4193
 20
-7.88304
 11
15.3949
 21
-7.28534
  0
LINE
  8
0
 10
15.3949
 20
-7.28534
 11
15.3218
 21
-6.73694
  0
LINE
  8
0
 10
15.3218
 20
-6.73694
 11
15.1999
 21
-6.23787
  0
LINE
  8
0
 10
15.1999
 20
-6.23787
 11
15.0292
 21
-5.7881
  0
LINE
  8
0
 10
15.0292
 20
-5.7881
 11
14.8098
 21
-5.38765
  0
LINE
  8
0
 10
14.8098
 20
-5.38765
 11
14.5417
 21
-5.03651
  0
LINE
  8
0
 10
14.5417
 20
-5.03651
 11
14.2247
 21
-4.7347
  0
LINE
  8
0
 10
14.2247
 20
-4.7347
 11
13.8522
 21
-4.47734
  0
LINE
  8
0
 10
13.8522
 20
-4.47734
 11
13.4173
 21
-4.25957
  0
LINE
  8
0
 10
13.4173
 20
-4.25957
 11
12.92
 21
-4.08139
  0
LINE
  8
0
 10
12.92
 20
-4.08139
 11
12.3602
 21
-3.94281
  0
LINE
  8
0
 10
12.3602
 20
-3.94281
 11
11.738
 21
-3.84383
  0
LINE
  8
0
 10
11.738
 20
-3.84383
 11
11.0533
 21
-3.78444
  0
LINE
  8
0
 10
11.0533
 20
-3.78444
 11
10.3063
 21
-3.76465
  0
LINE
  8
0
 10
10.3063
 20
-3.76465
 11
6.73596
 21
-3.76465
  0
LINE
  8
0
 10
6.73596
 20
-3.76465
 11
6.73596
 21
-16.9269
  0
LINE
  8
0
 10
6.73596
 20
-16.9269
 11
9.33647
 21
-16.9269
  0
LINE
  8
0
 10
9.33647
 20
-16.9269
 11
9.33647
 21
-12.0014
  0
LINE
  8
0
 10
7.23596
 20
-16.4269
 11
7.23596
 21
-4.26465
  0
LINE
  8
0
 10
7.23596
 20
-4.26465
 11
10.2994
 21
-4.26465
  0
LINE
  8
0
 10
10.2994
 20
-4.26465
 11
11.0253
 21
-4.28387
  0
LINE
  8
0
 10
11.0253
 20
-4.28387
 11
11.677
 21
-4.34041
  0
LINE
  8
0
 10
11.677
 20
-4.34041
 11
12.2606
 21
-4.43326
  0
LINE
  8
0
 10
12.2606
 20
-4.43326
 11
12.7752
 21
-4.56065
  0
LINE
  8
0
 10
12.7752
 20
-4.56065
 11
13.2204
 21
-4.72014
  0
LINE
  8
0
 10
13.2204
 20
-4.72014
 11
13.5969
 21
-4.90866
  0
LINE
  8
0
 10
13.5969
 20
-4.90866
 11
13.9083
 21
-5.12381
  0
LINE
  8
0
 10
13.9083
 20
-5.12381
 11
14.1682
 21
-5.37134
  0
LINE
  8
0
 10
14.1682
 20
-5.37134
 11
14.3895
 21
-5.66112
  0
LINE
  8
0
 10
14.3895
 20
-5.66112
 11
14.5741
 21
-5.99788
  0
LINE
  8
0
 10
14.5741
 20
-5.99788
 11
14.7215
 21
-6.38647
  0
LINE
  8
0
 10
14.7215
 20
-6.38647
 11
14.8297
 21
-6.82959
  0
LINE
  8
0
 10
14.8297
 20
-6.82959
 11
14.8963
 21
-7.32857
  0
LINE
  8
0
 10
14.8963
 20
-7.32857
 11
14.9189
 21
-7.88304
  0
LINE
  8
0
 10
14.9189
 20
-7.88304
 11
14.8963
 21
-8.43752
  0
LINE
  8
0
 10
14.8963
 20
-8.43752
 11
14.8297
 21
-8.93649
  0
LINE
  8
0
 10
14.8297
 20
-8.93649
 11
14.7215
 21
-9.37959
  0
LINE
  8
0
 10
14.7215
 20
-9.37959
 11
14.574
 21
-9.76823
  0
LINE
  8
0
 10
14.574
 20
-9.76823
 11
14.3895
 21
-10.105
  0
LINE
  8
0
 10
14.3895
 20
-10.105
 11
14.1683
 21
-10.3947
  0
LINE
  8
0
 10
14.1683
 20
-10.3947
 11
13.9083
 21
-10.6423
  0
LINE
  8
0
 10
13.9083
 20
-10.6423
 11
13.5969
 21
-10.8574
  0
LINE
  8
0
 10
13.5969
 20
-10.8574
 11
13.2204
 21
-11.0459
  0
LINE
  8
0
 10
13.2204
 20
-11.0459
 11
12.7752
 21
-11.2054
  0
LINE
  8
0
 10
12.7752
 20
-11.2054
 11
12.2606
 21
-11.3328
  0
LINE
  8
0
 10
12.2606
 20
-11.3328
 11
11.677
 21
-11.4257
  0
LINE
  8
0
 10
11.677
 20
-11.4257
 11
11.0251
 21
-11.4822
  0
LINE
  8
0
 10
11.0251
 20
-11.4822
 11
10.2999
 21
-11.5014
  0
LINE
  8
0
 10
10.2999
 20
-11.5014
 11
9.33647
 21
-11.5014
  0
LINE
  8
0
 10
9.33647
 20
-11.5014
 11
9.24278
 21
-11.5103
  0
LINE
  8
0
 10
9.24278
 20
-11.5103
 11
9.18196
 21
-11.5259
  0
LINE
  8
0
 10
9.18196
 20
-11.5259
 11
9.12358
 21
-11.549
  0
LINE
  8
0
 10
9.12358
 20
-11.549
 11
9.06856
 21
-11.5793
  0
LINE
  8
0
 10
9.06856
 20
-11.5793
 11
9.01776
 21
-11.6162
  0
LINE
  8
0
 10
9.01776
 20
-11.6162
 11
8.97198
 21
-11.6592
  0
LINE
  8
0
 10
8.97198
 20
-11.6592
 11
8.93196
 21
-11.7075
  0
LINE
  8
0
 10
8.93196
 20
-11.7075
 11
8.89832
 21
-11.7606
  0
LINE
  8
0
 10
8.89832
 20
-11.7606
 11
8.87158
 21
-11.8174
  0
LINE
  8
0
 10
8.87158
 20
-11.8174
 11
8.85217
 21
-11.8771
  0
LINE
  8
0
 10
8.85217
 20
-11.8771
 11
8.84041
 21
-11.9388
  0
LINE
  8
0
 10
8.84041
 20
-11.9388
 11
8.83647
 21
-12.0014
  0
LINE
  8
0
 10
8.83647
 20
-12.0014
 11
8.83647
 21
-16.4269
  0
LINE
  8
0
 10
8.83647
 20
-16.4269
 11
7.23596
 21
-16.4269
  0
LINE
  8
0
 10
10.4158
 20
-10.3131
 11
10.7655
 21
-10.3043
  0
LINE
  8
0
 10
10.7655
 20
-10.3043
 11
10.7943
 21
-10.3028
  0
LINE
  8
0
 10
10.7943
 20
-10.3028
 11
11.1128
 21
-10.2763
  0
LINE
  8
0
 10
11.1128
 20
-10.2763
 11
11.1472
 21
-10.2723
  0
LINE
  8
0
 10
11.1472
 20
-10.2723
 11
11.4346
 21
-10.2282
  0
LINE
  8
0
 10
11.4346
 20
-10.2282
 11
11.4759
 21
-10.2201
  0
LINE
  8
0
 10
11.4759
 20
-10.2201
 11
11.7322
 21
-10.1584
  0
LINE
  8
0
 10
11.7322
 20
-10.1584
 11
11.7813
 21
-10.1439
  0
LINE
  8
0
 10
11.7813
 20
-10.1439
 11
12.0065
 21
-10.0645
  0
LINE
  8
0
 10
12.0065
 20
-10.0645
 11
12.0638
 21
-10.0402
  0
LINE
  8
0
 10
12.0638
 20
-10.0402
 11
12.2578
 21
-9.94328
  0
LINE
  8
0
 10
12.2578
 20
-9.94328
 11
12.322
 21
-9.90497
  0
LINE
  8
0
 10
12.322
 20
-9.90497
 11
12.4849
 21
-9.79039
  0
LINE
  8
0
 10
12.4849
 20
-9.79039
 11
12.5502
 21
-9.73561
  0
LINE
  8
0
 10
12.5502
 20
-9.73561
 11
12.687
 21
-9.59927
  0
LINE
  8
0
 10
12.687
 20
-9.59927
 11
12.7411
 21
-9.53551
  0
LINE
  8
0
 10
12.7411
 20
-9.53551
 11
12.8569
 21
-9.37326
  0
LINE
  8
0
 10
12.8569
 20
-9.37326
 11
12.8964
 21
-9.30768
  0
LINE
  8
0
 10
12.8964
 20
-9.30768
 11
12.9912
 21
-9.11952
  0
LINE
  8
0
 10
12.9912
 20
-9.11952
 11
13.0173
 21
-9.0574
  0
LINE
  8
0
 10
13.0173
 20
-9.0574
 11
13.091
 21
-8.84335
  0
LINE
  8
0
 10
13.091
 20
-8.84335
 11
13.1066
 21
-8.78775
  0
LINE
  8
0
 10
13.1066
 20
-8.78775
 11
13.1593
 21
-8.54779
  0
LINE
  8
0
 10
13.1593
 20
-8.54779
 11
13.1674
 21
-8.49963
  0
LINE
  8
0
 10
13.1674
 20
-8.49963
 11
13.1989
 21
-8.23376
  0
LINE
  8
0
 10
13.1989
 20
-8.23376
 11
13.2021
 21
-8.19284
  0
LINE
  8
0
 10
13.2021
 20
-8.19284
 11
13.2126
 21
-7.90108
  0
LINE
  8
0
 10
13.2126
 20
-7.90108
 11
13.2126
 21
-7.86501
  0
LINE
  8
0
 10
13.2126
 20
-7.86501
 11
13.2021
 21
-7.57324
  0
LINE
  8
0
 10
13.2021
 20
-7.57324
 11
13.1989
 21
-7.53232
  0
LINE
  8
0
 10
13.1989
 20
-7.53232
 11
13.1674
 21
-7.26645
  0
LINE
  8
0
 10
13.1674
 20
-7.26645
 11
13.1593
 21
-7.21829
  0
LINE
  8
0
 10
13.1593
 20
-7.21829
 11
13.1066
 21
-6.97833
  0
LINE
  8
0
 10
13.1066
 20
-6.97833
 11
13.091
 21
-6.92273
  0
LINE
  8
0
 10
13.091
 20
-6.92273
 11
13.0173
 21
-6.70868
  0
LINE
  8
0
 10
13.0173
 20
-6.70868
 11
12.9912
 21
-6.64656
  0
LINE
  8
0
 10
12.9912
 20
-6.64656
 11
12.8964
 21
-6.4584
  0
LINE
  8
0
 10
12.8964
 20
-6.4584
 11
12.8569
 21
-6.39282
  0
LINE
  8
0
 10
12.8569
 20
-6.39282
 11
12.7411
 21
-6.23058
  0
LINE
  8
0
 10
12.7411
 20
-6.23058
 11
12.687
 21
-6.16681
  0
LINE
  8
0
 10
12.687
 20
-6.16681
 11
12.5502
 21
-6.03047
  0
LINE
  8
0
 10
12.5502
 20
-6.03047
 11
12.4849
 21
-5.97569
  0
LINE
  8
0
 10
12.4849
 20
-5.97569
 11
12.322
 21
-5.86111
  0
LINE
  8
0
 10
12.322
 20
-5.86111
 11
12.2578
 21
-5.8228
  0
LINE
  8
0
 10
12.2578
 20
-5.8228
 11
12.0638
 21
-5.72586
  0
LINE
  8
0
 10
12.0638
 20
-5.72586
 11
12.0065
 21
-5.70155
  0
LINE
  8
0
 10
12.0065
 20
-5.70155
 11
11.7813
 21
-5.62222
  0
LINE
  8
0
 10
11.7813
 20
-5.62222
 11
11.7322
 21
-5.6077
  0
LINE
  8
0
 10
11.7322
 20
-5.6077
 11
11.4759
 21
-5.54601
  0
LINE
  8
0
 10
11.4759
 20
-5.54601
 11
11.4346
 21
-5.53789
  0
LINE
  8
0
 10
11.4346
 20
-5.53789
 11
11.1472
 21
-5.49382
  0
LINE
  8
0
 10
11.1472
 20
-5.49382
 11
11.1128
 21
-5.48976
  0
LINE
  8
0
 10
11.1128
 20
-5.48976
 11
10.7943
 21
-5.46332
  0
LINE
  8
0
 10
10.7943
 20
-5.46332
 11
10.7655
 21
-5.46176
  0
LINE
  8
0
 10
10.7655
 20
-5.46176
 11
10.4158
 21
-5.45296
  0
LINE
  8
0
 10
10.4158
 20
-5.45296
 11
10.4033
 21
-5.4528
  0
LINE
  8
0
 10
10.4033
 20
-5.4528
 11
9.33647
 21
-5.4528
  0
LINE
  8
0
 10
9.33647
 20
-5.4528
 11
9.24278
 21
-5.46165
  0
LINE
  8
0
 10
9.24278
 20
-5.46165
 11
9.18196
 21
-5.47728
  0
LINE
  8
0
 10
9.18196
 20
-5.47728
 11
9.12358
 21
-5.5004
  0
LINE
  8
0
 10
9.12358
 20
-5.5004
 11
9.06856
 21
-5.53064
  0
LINE
  8
0
 10
9.06856
 20
-5.53064
 11
9.01776
 21
-5.56755
  0
LINE
  8
0
 10
9.01776
 20
-5.56755
 11
8.97198
 21
-5.61053
  0
LINE
  8
0
 10
8.97198
 20
-5.61053
 11
8.93196
 21
-5.65891
  0
LINE
  8
0
 10
8.93196
 20
-5.65891
 11
8.89832
 21
-5.71193
  0
LINE
  8
0
 10
8.89832
 20
-5.71193
 11
8.87158
 21
-5.76874
  0
LINE
  8
0
 10
8.87158
 20
-5.76874
 11
8.85217
 21
-5.82846
  0
LINE
  8
0
 10
8.85217
 20
-5.82846
 11
8.84041
 21
-5.89014
  0
LINE
  8
0
 10
8.84041
 20
-5.89014
 11
8.83647
 21
-5.9528
  0
LINE
  8
0
 10
8.83647
 20
-5.9528
 11
8.83647
 21
-9.81328
  0
LINE
  8
0
 10
8.83647
 20
-9.81328
 11
8.84532
 21
-9.90697
  0
LINE
  8
0
 10
8.84532
 20
-9.90697
 11
8.86095
 21
-9.96779
  0
LINE
  8
0
 10
8.86095
 20
-9.96779
 11
8.88406
 21
-10.0262
  0
LINE
  8
0
 10
8.88406
 20
-10.0262
 11
8.91431
 21
-10.0812
  0
LINE
  8
0
 10
8.91431
 20
-10.0812
 11
8.95122
 21
-10.132
  0
LINE
  8
0
 10
8.95122
 20
-10.132
 11
8.9942
 21
-10.1778
  0
LINE
  8
0
 10
8.9942
 20
-10.1778
 11
9.04257
 21
-10.2178
  0
LINE
  8
0
 10
9.04257
 20
-10.2178
 11
9.0956
 21
-10.2514
  0
LINE
  8
0
 10
9.0956
 20
-10.2514
 11
9.1524
 21
-10.2782
  0
LINE
  8
0
 10
9.1524
 20
-10.2782
 11
9.21213
 21
-10.2976
  0
LINE
  8
0
 10
9.21213
 20
-10.2976
 11
9.2738
 21
-10.3093
  0
LINE
  8
0
 10
9.2738
 20
-10.3093
 11
9.33647
 21
-10.3133
  0
LINE
  8
0
 10
9.33647
 20
-10.3133
 11
10.4033
 21
-10.3133
  0
LINE
  8
0
 10
10.4033
 20
-10.3133
 11
10.4158
 21
-10.3131
  0
LINE
  8
0
 10
9.33647
 20
-9.81328
 11
9.33647
 21
-5.9528
  0
LINE
  8
0
 10
9.33647
 20
-5.9528
 11
10.4033
 21
-5.9528
  0
LINE
  8
0
 10
10.4033
 20
-5.9528
 11
10.7529
 21
-5.96161
  0
LINE
  8
0
 10
10.7529
 20
-5.96161
 11
11.0715
 21
-5.98805
  0
LINE
  8
0
 10
11.0715
 20
-5.98805
 11
11.3589
 21
-6.03212
  0
LINE
  8
0
 10
11.3589
 20
-6.03212
 11
11.6152
 21
-6.09381
  0
LINE
  8
0
 10
11.6152
 20
-6.09381
 11
11.8403
 21
-6.17314
  0
LINE
  8
0
 10
11.8403
 20
-6.17314
 11
12.0343
 21
-6.27008
  0
LINE
  8
0
 10
12.0343
 20
-6.27008
 11
12.1973
 21
-6.38466
  0
LINE
  8
0
 10
12.1973
 20
-6.38466
 11
12.3341
 21
-6.521
  0
LINE
  8
0
 10
12.3341
 20
-6.521
 11
12.4498
 21
-6.68324
  0
LINE
  8
0
 10
12.4498
 20
-6.68324
 11
12.5446
 21
-6.8714
  0
LINE
  8
0
 10
12.5446
 20
-6.8714
 11
12.6182
 21
-7.08545
  0
LINE
  8
0
 10
12.6182
 20
-7.08545
 11
12.6709
 21
-7.32541
  0
LINE
  8
0
 10
12.6709
 20
-7.32541
 11
12.7024
 21
-7.59128
  0
LINE
  8
0
 10
12.7024
 20
-7.59128
 11
12.713
 21
-7.88304
  0
LINE
  8
0
 10
12.713
 20
-7.88304
 11
12.7024
 21
-8.1748
  0
LINE
  8
0
 10
12.7024
 20
-8.1748
 11
12.6709
 21
-8.44067
  0
LINE
  8
0
 10
12.6709
 20
-8.44067
 11
12.6182
 21
-8.68063
  0
LINE
  8
0
 10
12.6182
 20
-8.68063
 11
12.5446
 21
-8.89468
  0
LINE
  8
0
 10
12.5446
 20
-8.89468
 11
12.4498
 21
-9.08284
  0
LINE
  8
0
 10
12.4498
 20
-9.08284
 11
12.3341
 21
-9.24509
  0
LINE
  8
0
 10
12.3341
 20
-9.24509
 11
12.1973
 21
-9.38142
  0
LINE
  8
0
 10
12.1973
 20
-9.38142
 11
12.0343
 21
-9.496
  0
LINE
  8
0
 10
12.0343
 20
-9.496
 11
11.8403
 21
-9.59294
  0
LINE
  8
0
 10
11.8403
 20
-9.59294
 11
11.6152
 21
-9.67227
  0
LINE
  8
0
 10
11.6152
 20
-9.67227
 11
11.3589
 21
-9.73396
  0
LINE
  8
0
 10
11.3589
 20
-9.73396
 11
11.0715
 21
-9.77803
  0
LINE
  8
0
 10
11.0715
 20
-9.77803
 11
10.7529
 21
-9.80447
  0
LINE
  8
0
 10
10.7529
 20
-9.80447
 11
10.4033
 21
-9.81328
  0
LINE
  8
0
 10
10.4033
 20
-9.81328
 11
9.33647
 21
-9.81328
  0
LINE
  8
0
 10
3.84277
 20
-8.89809
 11
-1.22617
 21
-8.89809
  0
LINE
  8
0
 10
-1.22617
 20
-8.89809
 11
-1.22617
 21
-6.05264
  0
LINE
  8
0
 10
-1.22617
 20
-6.05264
 11
4.37175
 21
-6.05264
  0
LINE
  8
0
 10
4.37175
 20
-6.05264
 11
4.37175
 21
-3.76465
  0
LINE
  8
0
 10
4.37175
 20
-3.76465
 11
-3.82669
 21
-3.76465
  0
LINE
  8
0
 10
-3.82669
 20
-3.76465
 11
-3.82669
 21
-16.9269
  0
LINE
  8
0
 10
-3.82669
 20
-16.9269
 11
4.37175
 21
-16.9269
  0
LINE
  8
0
 10
4.37175
 20
-16.9269
 11
4.37175
 21
-14.6389
  0
LINE
  8
0
 10
4.37175
 20
-14.6389
 11
-1.22617
 21
-14.6389
  0
LINE
  8
0
 10
-1.22617
 20
-14.6389
 11
-1.22617
 21
-11.1861
  0
LINE
  8
0
 10
-1.22617
 20
-11.1861
 11
3.84277
 21
-11.1861
  0
LINE
  8
0
 10
3.84277
 20
-11.1861
 11
3.84277
 21
-8.89809
  0
LINE
  8
0
 10
-1.71732
 20
-14.7326
 11
-1.70169
 21
-14.7934
  0
LINE
  8
0
 10
-1.70169
 20
-14.7934
 11
-1.67857
 21
-14.8518
  0
LINE
  8
0
 10
-1.67857
 20
-14.8518
 11
-1.64833
 21
-14.9068
  0
LINE
  8
0
 10
-1.64833
 20
-14.9068
 11
-1.61142
 21
-14.9576
  0
LINE
  8
0
 10
-1.61142
 20
-14.9576
 11
-1.56844
 21
-15.0034
  0
LINE
  8
0
 10
-1.56844
 20
-15.0034
 11
-1.52007
 21
-15.0434
  0
LINE
  8
0
 10
-1.52007
 20
-15.0434
 11
-1.46704
 21
-15.077
  0
LINE
  8
0
 10
-1.46704
 20
-15.077
 11
-1.41023
 21
-15.1038
  0
LINE
  8
0
 10
-1.41023
 20
-15.1038
 11
-1.35051
 21
-15.1232
  0
LINE
  8
0
 10
-1.35051
 20
-15.1232
 11
-1.28883
 21
-15.1349
  0
LINE
  8
0
 10
-1.28883
 20
-15.1349
 11
-1.22617
 21
-15.1389
  0
LINE
  8
0
 10
-1.22617
 20
-15.1389
 11
3.87175
 21
-15.1389
  0
LINE
  8
0
 10
3.87175
 20
-15.1389
 11
3.87175
 21
-16.4269
  0
LINE
  8
0
 10
3.87175
 20
-16.4269
 11
-3.32669
 21
-16.4269
  0
LINE
  8
0
 10
-3.32669
 20
-16.4269
 11
-3.32669
 21
-4.26465
  0
LINE
  8
0
 10
-3.32669
 20
-4.26465
 11
3.87175
 21
-4.26465
  0
LINE
  8
0
 10
3.87175
 20
-4.26465
 11
3.87175
 21
-5.55264
  0
LINE
  8
0
 10
3.87175
 20
-5.55264
 11
-1.22617
 21
-5.55264
  0
LINE
  8
0
 10
-1.22617
 20
-5.55264
 11
-1.31985
 21
-5.56149
  0
LINE
  8
0
 10
-1.31985
 20
-5.56149
 11
-1.38068
 21
-5.57712
  0
LINE
  8
0
 10
-1.38068
 20
-5.57712
 11
-1.43906
 21
-5.60023
  0
LINE
  8
0
 10
-1.43906
 20
-5.60023
 11
-1.49408
 21
-5.63048
  0
LINE
  8
0
 10
-1.49408
 20
-5.63048
 11
-1.54488
 21
-5.66739
  0
LINE
  8
0
 10
-1.54488
 20
-5.66739
 11
-1.59065
 21
-5.71037
  0
LINE
  8
0
 10
-1.59065
 20
-5.71037
 11
-1.63068
 21
-5.75874
  0
LINE
  8
0
 10
-1.63068
 20
-5.75874
 11
-1.66432
 21
-5.81177
  0
LINE
  8
0
 10
-1.66432
 20
-5.81177
 11
-1.69106
 21
-5.86858
  0
LINE
  8
0
 10
-1.69106
 20
-5.86858
 11
-1.71046
 21
-5.9283
  0
LINE
  8
0
 10
-1.71046
 20
-5.9283
 11
-1.72223
 21
-5.98997
  0
LINE
  8
0
 10
-1.72223
 20
-5.98997
 11
-1.72617
 21
-6.05264
  0
LINE
  8
0
 10
-1.72617
 20
-6.05264
 11
-1.72617
 21
-8.89809
  0
LINE
  8
0
 10
-1.72617
 20
-8.89809
 11
-1.71732
 21
-8.99178
  0
LINE
  8
0
 10
-1.71732
 20
-8.99178
 11
-1.70169
 21
-9.0526
  0
LINE
  8
0
 10
-1.70169
 20
-9.0526
 11
-1.67857
 21
-9.11098
  0
LINE
  8
0
 10
-1.67857
 20
-9.11098
 11
-1.64833
 21
-9.166
  0
LINE
  8
0
 10
-1.64833
 20
-9.166
 11
-1.61142
 21
-9.2168
  0
LINE
  8
0
 10
-1.61142
 20
-9.2168
 11
-1.56844
 21
-9.26257
  0
LINE
  8
0
 10
-1.56844
 20
-9.26257
 11
-1.52007
 21
-9.3026
  0
LINE
  8
0
 10
-1.52007
 20
-9.3026
 11
-1.46704
 21
-9.33624
  0
LINE
  8
0
 10
-1.46704
 20
-9.33624
 11
-1.41023
 21
-9.36298
  0
LINE
  8
0
 10
-1.41023
 20
-9.36298
 11
-1.35051
 21
-9.38239
  0
LINE
  8
0
 10
-1.35051
 20
-9.38239
 11
-1.28883
 21
-9.39415
  0
LINE
  8
0
 10
-1.28883
 20
-9.39415
 11
-1.22617
 21
-9.39809
  0
LINE
  8
0
 10
-1.22617
 20
-9.39809
 11
3.34277
 21
-9.39809
  0
LINE
  8
0
 10
3.34277
 20
-9.39809
 11
3.34277
 21
-10.6861
  0
LINE
  8
0
 10
3.34277
 20
-10.6861
 11
-1.22617
 21
-10.6861
  0
LINE
  8
0
 10
-1.22617
 20
-10.6861
 11
-1.31985
 21
-10.6949
  0
LINE
  8
0
 10
-1.31985
 20
-10.6949
 11
-1.38068
 21
-10.7105
  0
LINE
  8
0
 10
-1.38068
 20
-10.7105
 11
-1.43906
 21
-10.7337
  0
LINE
  8
0
 10
-1.43906
 20
-10.7337
 11
-1.49408
 21
-10.7639
  0
LINE
  8
0
 10
-1.49408
 20
-10.7639
 11
-1.54488
 21
-10.8008
  0
LINE
  8
0
 10
-1.54488
 20
-10.8008
 11
-1.59065
 21
-10.8438
  0
LINE
  8
0
 10
-1.59065
 20
-10.8438
 11
-1.63068
 21
-10.8922
  0
LINE
  8
0
 10
-1.63068
 20
-10.8922
 11
-1.66432
 21
-10.9452
  0
LINE
  8
0
 10
-1.66432
 20
-10.9452
 11
-1.69106
 21
-11.002
  0
LINE
  8
0
 10
-1.69106
 20
-11.002
 11
-1.71046
 21
-11.0617
  0
LINE
  8
0
 10
-1.71046
 20
-11.0617
 11
-1.72223
 21
-11.1234
  0
LINE
  8
0
 10
-1.72223
 20
-11.1234
 11
-1.72617
 21
-11.1861
  0
LINE
  8
0
 10
-1.72617
 20
-11.1861
 11
-1.72617
 21
-14.6389
  0
LINE
  8
0
 10
-1.72617
 20
-14.6389
 11
-1.71732
 21
-14.7326
  0
ENDSEC
  0
SECTION
  2
OBJECTS
  0
DICTIONARY
  0
ENDSEC
  0
EOF
