<?xml version="1.0" standalone="no"?>
<!DOCTYPE svg PUBLIC "-//W3C//DTD SVG 1.1//EN" "http://www.w3.org/Graphics/SVG/1.1/DTD/svg11.dtd">
<svg width="51mm" height="35mm" viewBox="-26 -18 51 35" xmlns="http://www.w3.org/2000/svg" version="1.1">
<title>OpenSCAD Model</title>
<path d="
M -20.832,-3.8434 L -20.2256,-3.90359 L -19.6684,-4.00391 L -19.1602,-4.14433 L -18.7012,-4.32491 L -18.2912,-4.54559
 L -17.9304,-4.8064 L -17.6182,-5.10788 L -17.354,-5.45056 L -17.1378,-5.83446 L -16.9697,-6.25955 L -16.8496,-6.72586
 L -16.7776,-7.23338 L -16.7536,-7.7821 L -16.7688,-8.19 L -16.8147,-8.57738 L -16.8912,-8.94424 L -16.9982,-9.2906
 L -17.1358,-9.61646 L -17.3041,-9.92178 L -17.5029,-10.2066 L -17.7341,-10.4734 L -17.9994,-10.7248 L -18.299,-10.9607
 L -18.6327,-11.1812 L -19.0006,-11.3861 L -19.4027,-11.5756 L -19.839,-11.7496 L -20.9587,-12.1732 L -21.2748,-12.2952
 L -21.5585,-12.414 L -21.8095,-12.5298 L -22.028,-12.6425 L -22.2139,-12.7522 L -22.3673,-12.8588 L -22.4881,-12.9623
 L -22.5852,-13.0682 L -22.6673,-13.1819 L -22.7345,-13.3033 L -22.7867,-13.4324 L -22.8241,-13.5692 L -22.8465,-13.7139
 L -22.8539,-13.8662 L -22.8437,-14.0611 L -22.8129,-14.2426 L -22.7616,-14.4109 L -22.6899,-14.5658 L -22.5976,-14.7074
 L -22.4848,-14.8357 L -22.3515,-14.9507 L -22.1989,-15.0513 L -22.0283,-15.1364 L -21.8398,-15.2061 L -21.6332,-15.2602
 L -21.4087,-15.2989 L -21.1661,-15.3221 L -20.9056,-15.3299 L -20.6635,-15.3236 L -20.4206,-15.3047 L -20.177,-15.2733
 L -19.9327,-15.2292 L -19.6877,-15.1726 L -19.4419,-15.1034 L -19.1955,-15.0217 L -18.9492,-14.9278 L -18.7039,-14.8225
 L -18.4598,-14.7057 L -18.2167,-14.5774 L -17.9747,-14.4376 L -17.7338,-14.2863 L -17.494,-14.1235 L -17.494,-16.6611
 L -17.7488,-16.7734 L -18.0043,-16.8776 L -18.2605,-16.9737 L -18.5174,-17.0616 L -18.775,-17.1414 L -19.0334,-17.2131
 L -19.2924,-17.2766 L -19.5518,-17.3318 L -19.8113,-17.3786 L -20.0707,-17.4168 L -20.3301,-17.4465 L -20.5895,-17.4678
 L -20.849,-17.4805 L -21.1084,-17.4848 L -21.6628,-17.4639 L -22.1822,-17.4012 L -22.6667,-17.2968 L -23.1163,-17.1505
 L -23.531,-16.9625 L -23.9108,-16.7327 L -24.2557,-16.4611 L -24.5598,-16.153 L -24.817,-15.8136 L -25.0275,-15.4428
 L -25.1912,-15.0407 L -25.3081,-14.6073 L -25.3783,-14.1425 L -25.4017,-13.6464 L -25.3875,-13.2597 L -25.3448,-12.8962
 L -25.2738,-12.5559 L -25.1743,-12.2389 L -25.0464,-11.9451 L -24.89,-11.6745 L -24.7053,-11.4272 L -24.4804,-11.193
 L -24.2037,-10.9619 L -23.8752,-10.7338 L -23.4948,-10.5088 L -23.0627,-10.2869 L -22.5788,-10.068 L -22.043,-9.85222
 L -20.7647,-9.36693 L -20.5797,-9.29015 L -20.4077,-9.20564 L -20.2487,-9.1134 L -20.1026,-9.01343 L -19.9695,-8.90573
 L -19.8493,-8.7903 L -19.7421,-8.66714 L -19.6485,-8.53719 L -19.5694,-8.40131 L -19.5046,-8.25949 L -19.4542,-8.11176
 L -19.4182,-7.9581 L -19.3966,-7.79851 L -19.3894,-7.63298 L -19.4002,-7.41626 L -19.4326,-7.21371 L -19.4866,-7.02536
 L -19.5621,-6.85121 L -19.6593,-6.69122 L -19.7781,-6.54544 L -19.9184,-6.41385 L -20.0783,-6.29828 L -20.2559,-6.20049
 L -20.4511,-6.12047 L -20.6639,-6.05823 L -20.8943,-6.01378 L -21.1425,-5.98711 L -21.4082,-5.97821 L -21.6807,-5.98555
 L -21.9541,-6.00757 L -22.2283,-6.04427 L -22.5035,-6.09563 L -22.7796,-6.16168 L -23.0565,-6.2424 L -23.3344,-6.3378
 L -23.6141,-6.44827 L -23.8964,-6.57413 L -24.1815,-6.71536 L -24.4693,-6.87199 L -24.7597,-7.04402 L -25.0529,-7.23143
 L -25.3488,-7.43422 L -25.3488,-4.74686 L -25.0855,-4.62076 L -24.8195,-4.50383 L -24.5508,-4.39604 L -24.2794,-4.29741
 L -24.0053,-4.20793 L -23.7286,-4.12759 L -23.4491,-4.05643 L -23.1683,-3.99458 L -22.8877,-3.94226 L -22.6073,-3.89944
 L -22.3271,-3.86615 L -22.047,-3.84236 L -21.7672,-3.82809 L -21.4875,-3.82333 z
M -21.7503,-4.32788 L -22.0131,-4.34128 L -22.2762,-4.36363 L -22.5398,-4.39494 L -22.8042,-4.4353 L -23.0687,-4.48463
 L -23.3335,-4.54295 L -23.5974,-4.61015 L -23.858,-4.68581 L -24.1163,-4.77014 L -24.3722,-4.86311 L -24.6256,-4.96478
 L -24.8488,-5.06288 L -24.8488,-6.51564 L -24.724,-6.44179 L -24.7083,-6.43285 L -24.4205,-6.27621 L -24.4035,-6.26733
 L -24.1184,-6.1261 L -24.1,-6.11743 L -23.8176,-5.99158 L -23.7978,-5.98325 L -23.5181,-5.87277 L -23.4968,-5.8649
 L -23.2189,-5.7695 L -23.1964,-5.76237 L -22.9195,-5.68166 L -22.8959,-5.67542 L -22.6199,-5.60936 L -22.5952,-5.60411
 L -22.3201,-5.55275 L -22.2946,-5.54868 L -22.0204,-5.51198 L -21.9942,-5.50919 L -21.7208,-5.48717 L -21.6941,-5.48573
 L -21.4217,-5.47839 L -21.3915,-5.47849 L -21.1257,-5.48738 L -21.089,-5.48997 L -20.8409,-5.51665 L -20.7997,-5.52283
 L -20.5692,-5.56728 L -20.5235,-5.57832 L -20.3107,-5.64056 L -20.2614,-5.65784 L -20.0662,-5.73785 L -20.0147,-5.76251
 L -19.8371,-5.86031 L -19.7854,-5.89304 L -19.6255,-6.00861 L -19.5764,-6.04912 L -19.4361,-6.18071 L -19.3904,-6.22968
 L -19.2717,-6.37546 L -19.232,-6.43167 L -19.1348,-6.59166 L -19.1035,-6.65219 L -19.0279,-6.82634 L -19.0059,-6.88763
 L -18.952,-7.07599 L -18.9389,-7.13475 L -18.9065,-7.3373 L -18.9008,-7.3914 L -18.8901,-7.60812 L -18.8899,-7.65466
 L -18.8971,-7.82019 L -18.9011,-7.86554 L -18.9227,-8.02513 L -18.9314,-8.07214 L -18.9674,-8.2258 L -18.981,-8.27315
 L -19.0314,-8.42088 L -19.0498,-8.46722 L -19.1146,-8.60904 L -19.1374,-8.65305 L -19.2165,-8.78893 L -19.2428,-8.82933
 L -19.3363,-8.95929 L -19.365,-8.99547 L -19.4722,-9.11862 L -19.5029,-9.15088 L -19.6231,-9.26631 L -19.655,-9.29445
 L -19.7881,-9.40215 L -19.8202,-9.42606 L -19.9663,-9.52603 L -19.9978,-9.54593 L -20.1569,-9.63817 L -20.1873,-9.6544
 L -20.3593,-9.73891 L -20.388,-9.75194 L -20.573,-9.82872 L -20.5872,-9.83438 L -21.861,-10.3179 L -22.3821,-10.5279
 L -22.8455,-10.7374 L -23.2531,-10.9467 L -23.6049,-11.1549 L -23.9003,-11.3599 L -24.1387,-11.5591 L -24.3232,-11.7512
 L -24.4718,-11.9502 L -24.5992,-12.1706 L -24.7052,-12.414 L -24.7893,-12.6822 L -24.8508,-12.9766 L -24.8885,-13.298
 L -24.9012,-13.6438 L -24.88,-14.0933 L -24.818,-14.5046 L -24.7165,-14.8808 L -24.5767,-15.2242 L -24.3985,-15.5381
 L -24.181,-15.825 L -23.9218,-16.0877 L -23.6257,-16.3208 L -23.2975,-16.5194 L -22.9352,-16.6836 L -22.5363,-16.8134
 L -22.0994,-16.9076 L -21.6234,-16.965 L -21.1031,-16.9846 L -20.8654,-16.9807 L -20.6221,-16.9688 L -20.3788,-16.9489
 L -20.1357,-16.921 L -19.8919,-16.885 L -19.6484,-16.8412 L -19.4038,-16.7891 L -19.1601,-16.7294 L -18.9157,-16.6616
 L -18.6721,-16.5861 L -18.4295,-16.5031 L -18.1862,-16.4119 L -17.994,-16.3335 L -17.994,-15.0253 L -18.2263,-15.1479
 L -18.244,-15.1568 L -18.4882,-15.2736 L -18.5066,-15.282 L -18.7518,-15.3873 L -18.7712,-15.3951 L -19.0175,-15.4889
 L -19.038,-15.4962 L -19.2845,-15.578 L -19.3064,-15.5847 L -19.5521,-15.6539 L -19.5751,-15.6598 L -19.8201,-15.7164
 L -19.844,-15.7213 L -20.0883,-15.7653 L -20.113,-15.7691 L -20.3566,-15.8006 L -20.3819,-15.8032 L -20.6247,-15.8221
 L -20.6505,-15.8234 L -20.8927,-15.8297 L -20.9205,-15.8297 L -21.181,-15.8219 L -21.2138,-15.8199 L -21.4563,-15.7966
 L -21.4935,-15.7917 L -21.7181,-15.753 L -21.7601,-15.7439 L -21.9666,-15.6897 L -22.013,-15.6751 L -22.2015,-15.6055
 L -22.2516,-15.5838 L -22.4222,-15.4987 L -22.4741,-15.4687 L -22.6267,-15.3681 L -22.678,-15.3293 L -22.8113,-15.2144
 L -22.8603,-15.1658 L -22.9731,-15.0376 L -23.0165,-14.9804 L -23.1087,-14.8388 L -23.1435,-14.776 L -23.2153,-14.6211
 L -23.2399,-14.5566 L -23.2912,-14.3884 L -23.3059,-14.3262 L -23.3367,-14.1446 L -23.343,-14.0874 L -23.3532,-13.8925
 L -23.3533,-13.8418 L -23.3459,-13.6894 L -23.3406,-13.6373 L -23.3182,-13.4927 L -23.3064,-13.4377 L -23.2691,-13.3008
 L -23.2502,-13.2448 L -23.198,-13.1157 L -23.1719,-13.0611 L -23.1047,-12.9397 L -23.0725,-12.889 L -22.9904,-12.7754
 L -22.9538,-12.7304 L -22.8567,-12.6245 L -22.8135,-12.5827 L -22.6927,-12.4791 L -22.6527,-12.4482 L -22.4993,-12.3416
 L -22.468,-12.3215 L -22.282,-12.2119 L -22.2572,-12.1982 L -22.0388,-12.0855 L -22.0189,-12.0758 L -21.7679,-11.96
 L -21.7517,-11.9529 L -21.4681,-11.834 L -21.4548,-11.8286 L -21.1386,-11.7067 L -20.0201,-11.2835 L -19.6019,-11.1167
 L -19.2291,-10.941 L -18.8926,-10.7536 L -18.5919,-10.555 L -18.3267,-10.3461 L -18.0958,-10.1274 L -17.8979,-9.89896
 L -17.7292,-9.65735 L -17.5863,-9.39789 L -17.4686,-9.11917 L -17.3758,-8.81911 L -17.3087,-8.49681 L -17.2677,-8.15112
 L -17.254,-7.78374 L -17.276,-7.27956 L -17.3408,-6.82365 L -17.4462,-6.41434 L -17.5902,-6.05008 L -17.7719,-5.72739
 L -17.9919,-5.44206 L -18.2521,-5.19084 L -18.5574,-4.9702 L -18.912,-4.7793 L -19.3188,-4.61923 L -19.7794,-4.49196
 L -20.2947,-4.3992 L -20.8644,-4.34265 L -21.4911,-4.32347 z
M 0.771149,-3.84818 L 1.36685,-3.92267 L 1.90964,-4.04683 L 2.39954,-4.22066 L 2.83653,-4.44415 L 3.22063,-4.71732
 L 3.55183,-5.04013 L 3.83487,-5.41771 L 4.07434,-5.85501 L 4.27028,-6.35205 L 4.42268,-6.90884 L 4.53154,-7.52538
 L 4.59685,-8.20166 L 4.61862,-8.93767 L 4.61862,-17.2435 L 2.01797,-17.2435 L 2.01797,-8.2852 L 2.00771,-8.01178
 L 1.97694,-7.75583 L 1.92566,-7.51732 L 1.85387,-7.29626 L 1.76155,-7.09267 L 1.64873,-6.90651 L 1.5154,-6.73781
 L 1.36392,-6.58926 L 1.19662,-6.46356 L 1.01349,-6.36072 L 0.814529,-6.28073 L 0.599747,-6.2236 L 0.369141,-6.18933
 L 0.122696,-6.1779 L -0.123764,-6.18933 L -0.354416,-6.2236 L -0.569229,-6.28073 L -0.768219,-6.36072 L -0.951385,-6.46356
 L -1.11873,-6.58926 L -1.27023,-6.73781 L -1.40353,-6.90651 L -1.51633,-7.09267 L -1.60863,-7.29626 L -1.6804,-7.51732
 L -1.73167,-7.75583 L -1.76244,-8.01178 L -1.77269,-8.2852 L -1.77269,-17.2435 L -4.37334,-17.2435 L -4.37334,-8.93767
 L -4.35147,-8.20166 L -4.2859,-7.52538 L -4.17661,-6.90884 L -4.02361,-6.35205 L -3.82687,-5.85501 L -3.58643,-5.41771
 L -3.30226,-5.04013 L -2.97006,-4.71732 L -2.58551,-4.44415 L -2.14861,-4.22066 L -1.65935,-4.04683 L -1.11772,-3.92267
 L -0.523743,-3.84818 L 0.122574,-3.82333 z
M -0.483032,-4.34698 L -1.03041,-4.41563 L -1.51941,-4.52773 L -1.95015,-4.68077 L -2.32556,-4.8728 L -2.64917,-5.10268
 L -2.92603,-5.37172 L -3.16547,-5.68987 L -3.37357,-6.06833 L -3.54868,-6.51076 L -3.68832,-7.01897 L -3.79015,-7.59328
 L -3.85217,-8.23312 L -3.87334,-8.94533 L -3.87334,-16.7435 L -2.27269,-16.7435 L -2.27269,-8.2852 L -2.27234,-8.26646
 L -2.26208,-7.99304 L -2.25887,-7.95212 L -2.2281,-7.69617 L -2.2205,-7.65076 L -2.16924,-7.41225 L -2.15596,-7.3629
 L -2.08418,-7.14185 L -2.06401,-7.08981 L -1.97171,-6.88622 L -1.94395,-6.83357 L -1.83116,-6.64742 L -1.79584,-6.59653
 L -1.66254,-6.42783 L -1.62029,-6.38078 L -1.46878,-6.23224 L -1.41902,-6.18948 L -1.25168,-6.06378 L -1.19618,-6.02759
 L -1.01302,-5.92474 L -0.954697,-5.89679 L -0.755707,-5.8168 L -0.697739,-5.79753 L -0.482925,-5.7404 L -0.427902,-5.72903
 L -0.19725,-5.69476 L -0.146927,-5.68987 L 0.0995331,-5.67844 L 0.145859,-5.67844 L 0.392303,-5.68987 L 0.442642,-5.69476
 L 0.673248,-5.72903 L 0.728271,-5.7404 L 0.943054,-5.79753 L 1.00104,-5.81682 L 1.2,-5.8968 L 1.25832,-5.92476
 L 1.44145,-6.0276 L 1.49698,-6.06383 L 1.66428,-6.18953 L 1.714,-6.23227 L 1.86548,-6.38081 L 1.90767,-6.42778
 L 2.041,-6.59648 L 2.07632,-6.64735 L 2.18915,-6.83351 L 2.21693,-6.88618 L 2.30925,-7.08978 L 2.32942,-7.14182
 L 2.40121,-7.36287 L 2.41449,-7.41222 L 2.46577,-7.65073 L 2.47337,-7.69617 L 2.50414,-7.95212 L 2.50735,-7.99301
 L 2.51762,-8.26643 L 2.51797,-8.2852 L 2.51797,-16.7435 L 4.11862,-16.7435 L 4.11862,-8.94524 L 4.09755,-8.23299
 L 4.03575,-7.59303 L 3.93431,-7.01848 L 3.7952,-6.51025 L 3.62071,-6.06764 L 3.41339,-5.68904 L 3.17506,-5.37111
 L 2.89931,-5.10234 L 2.57651,-4.87277 L 2.20126,-4.68086 L 1.76976,-4.52776 L 1.27989,-4.4157 L 0.730438,-4.34698
 L 0.12265,-4.3237 z
M -9.18817,-14.9721 L -5.84705,-14.9721 L -5.84705,-17.2435 L -15.13,-17.2435 L -15.13,-14.9721 L -11.7888,-14.9721
 L -11.7888,-4.08125 L -9.18817,-4.08125 z
M -11.2888,-4.58125 L -11.2888,-14.9721 L -11.2977,-15.0658 L -11.3133,-15.1266 L -11.3364,-15.185 L -11.3667,-15.24
 L -11.4036,-15.2908 L -11.4465,-15.3366 L -11.4949,-15.3766 L -11.5479,-15.4103 L -11.6048,-15.437 L -11.6645,-15.4564
 L -11.7262,-15.4682 L -11.7888,-15.4721 L -14.63,-15.4721 L -14.63,-16.7435 L -6.34705,-16.7435 L -6.34705,-15.4721
 L -9.18817,-15.4721 L -9.28186,-15.4633 L -9.34268,-15.4476 L -9.40106,-15.4245 L -9.45609,-15.3943 L -9.50688,-15.3574
 L -9.55266,-15.3144 L -9.59268,-15.266 L -9.62633,-15.213 L -9.65306,-15.1562 L -9.67247,-15.0965 L -9.68423,-15.0348
 L -9.68817,-14.9721 L -9.68817,-4.58125 z
M 8.99275,-7.33438 L 12.4749,-7.33438 L 13.2859,-4.08125 L 15.8865,-4.08125 L 12.3339,-17.2435 L 9.15135,-17.2435
 L 5.59871,-4.08125 L 8.19937,-4.08125 z
M 6.25156,-4.58125 L 9.53429,-16.7435 L 11.951,-16.7435 L 15.2337,-4.58125 L 13.6765,-4.58125 L 12.9601,-7.45532
 L 12.9505,-7.48889 L 12.9273,-7.54727 L 12.8971,-7.60229 L 12.8602,-7.65309 L 12.8172,-7.69887 L 12.7688,-7.73889
 L 12.7158,-7.77254 L 12.659,-7.79927 L 12.5993,-7.81868 L 12.5376,-7.83044 L 12.4749,-7.83438 L 8.99275,-7.83438
 L 8.95531,-7.83298 L 8.89311,-7.82436 L 8.83249,-7.808 L 8.7744,-7.78418 L 8.71974,-7.75327 L 8.6694,-7.71574
 L 8.62415,-7.67221 L 8.58472,-7.62335 L 8.55171,-7.56993 L 8.52567,-7.5128 L 8.50699,-7.45285 L 7.80666,-4.58125
 z
M 12.0531,-8.97919 L 12.1143,-8.99319 L 12.1733,-9.01477 L 12.2291,-9.04356 L 12.2809,-9.07913 L 12.3277,-9.1209
 L 12.369,-9.16821 L 12.404,-9.22034 L 12.4323,-9.27643 L 12.4532,-9.33562 L 12.4666,-9.39696 L 12.4722,-9.4595
 L 12.4699,-9.52225 L 12.4597,-9.58421 L 11.2256,-14.9735 L 11.1979,-15.0588 L 11.1696,-15.1148 L 11.1345,-15.1669
 L 11.0931,-15.2141 L 11.0462,-15.2558 L 10.9944,-15.2913 L 10.9385,-15.32 L 10.8795,-15.3415 L 10.8183,-15.3554
 L 10.7558,-15.3616 L 10.693,-15.3598 L 10.631,-15.3502 L 10.5706,-15.3329 L 10.5129,-15.3082 L 10.4587,-15.2764
 L 10.409,-15.2381 L 10.3644,-15.1939 L 10.3258,-15.1444 L 10.2936,-15.0905 L 10.2684,-15.033 L 10.2507,-14.9727
 L 9.02533,-9.58347 L 9.01387,-9.50401 L 9.01387,-9.44121 L 9.02173,-9.37892 L 9.03735,-9.3181 L 9.06047,-9.25972
 L 9.09071,-9.2047 L 9.12762,-9.1539 L 9.17061,-9.10812 L 9.21898,-9.0681 L 9.272,-9.03445 L 9.32881,-9.00772
 L 9.38853,-8.98831 L 9.45021,-8.97655 L 9.51288,-8.97261 L 11.9724,-8.97261 z
M 9.51288,-9.47261 L 10.7383,-14.8619 L 11.9724,-9.47261 z
M 24.1395,-10.5542 L 18.5769,-10.5542 L 18.5769,-7.99165 L 24.1395,-7.99165 z
M 19.0769,-8.49165 L 19.0769,-10.0542 L 23.6395,-10.0542 L 23.6395,-8.49165 z
M 6.73517,6.036 L 10.0763,6.036 L 10.0763,3.76465 L 0.793381,3.76465 L 0.793381,6.036 L 4.13451,6.036
 L 4.13451,16.9269 L 6.73517,16.9269 z
M 4.63451,16.4269 L 4.63451,6.036 L 4.62566,5.94231 L 4.61003,5.88148 L 4.58691,5.8231 L 4.55667,5.76808
 L 4.51976,5.71729 L 4.47678,5.67151 L 4.42841,5.63148 L 4.37538,5.59784 L 4.31857,5.57111 L 4.25885,5.5517
 L 4.19717,5.53993 L 4.13451,5.536 L 1.29338,5.536 L 1.29338,4.26465 L 9.57629,4.26465 L 9.57629,5.536
 L 6.73517,5.536 L 6.64148,5.54485 L 6.58066,5.56047 L 6.52228,5.58359 L 6.46725,5.61383 L 6.41646,5.65074
 L 6.37068,5.69373 L 6.33066,5.7421 L 6.29701,5.79512 L 6.27028,5.85193 L 6.25087,5.91165 L 6.23911,5.97333
 L 6.23517,6.036 L 6.23517,16.4269 z
M -6.84244,11.7269 L -6.01382,11.7269 L -5.74934,11.7573 L -5.49495,11.8485 L -5.25064,12.0005 L -5.01639,12.2132
 L -4.79224,12.4868 L -4.57814,12.8212 L -4.37413,13.2164 L -4.34227,13.2847 L -4.31221,13.3488 L -4.28397,13.4085
 L -4.25752,13.4639 L -4.23288,13.515 L -4.21004,13.5617 L -4.18901,13.6042 L -2.6021,16.9269 L 0.25412,16.9269
 L -2.12617,12.194 L -2.24193,11.9682 L -2.35248,11.7645 L -2.45782,11.583 L -2.55794,11.4236 L -2.65285,11.2864
 L -2.74252,11.1713 L -2.827,11.0783 L -2.9109,11.0006 L -2.99893,10.9314 L -3.09113,10.8707 L -3.18745,10.8184
 L -3.28793,10.7745 L -3.39255,10.7391 L -3.50131,10.7122 L -3.15807,10.6537 L -2.83855,10.569 L -2.54279,10.458
 L -2.27078,10.3207 L -2.02251,10.1572 L -1.79797,9.96735 L -1.5972,9.75127 L -1.42178,9.5107 L -1.27336,9.24744
 L -1.15192,8.9615 L -1.05746,8.65291 L -0.98999,8.32162 L -0.949509,7.96768 L -0.93602,7.59106 L -0.958603,7.03474
 L -1.02634,6.52448 L -1.13924,6.06026 L -1.2973,5.64211 L -1.50052,5.27 L -1.7489,4.94397 L -2.04245,4.66399
 L -2.38777,4.42538 L -2.79156,4.2235 L -3.25383,4.0583 L -3.77458,3.92982 L -4.35379,3.83806 L -4.99149,3.78299
 L -5.68765,3.76465 L -9.44308,3.76465 L -9.44308,16.9269 L -6.84244,16.9269 z
M -8.94308,16.4269 L -8.94308,4.26465 L -5.69444,4.26465 L -5.01938,4.28244 L -4.41455,4.33467 L -3.87379,4.42033
 L -3.39824,4.53767 L -2.98822,4.68419 L -2.64294,4.85681 L -2.35905,5.05298 L -2.12268,5.27843 L -1.92119,5.54292
 L -1.75272,5.85139 L -1.61783,6.20822 L -1.51848,6.61674 L -1.45726,7.07787 L -1.43639,7.59225 L -1.44849,7.93021
 L -1.48428,8.24318 L -1.54263,8.52965 L -1.62236,8.79015 L -1.72263,9.0262 L -1.84299,9.23969 L -1.9837,9.43268
 L -2.1438,9.60497 L -2.32243,9.756 L -2.52184,9.88734 L -2.74391,9.99942 L -2.99077,10.0921 L -3.26448,10.1647
 L -3.5853,10.2193 L -3.62988,10.229 L -3.68942,10.249 L -3.746,10.2762 L -3.79872,10.3103 L -3.84676,10.3507
 L -3.88933,10.3969 L -3.9258,10.448 L -3.95557,10.5033 L -3.97816,10.5619 L -3.99326,10.6228 L -4.00058,10.6852
 L -4.00003,10.748 L -3.99162,10.8102 L -3.97548,10.8709 L -3.95184,10.929 L -3.92113,10.9838 L -3.88377,11.0343
 L -3.84039,11.0797 L -3.79166,11.1193 L -3.73836,11.1525 L -3.6813,11.1787 L -3.62143,11.1976 L -3.53293,11.2195
 L -3.46844,11.2413 L -3.407,11.2681 L -3.34845,11.2999 L -3.2916,11.3373 L -3.23582,11.3812 L -3.18239,11.4307
 L -3.12544,11.4933 L -3.05594,11.5826 L -2.97554,11.6988 L -2.88585,11.8416 L -2.78848,12.0094 L -2.68407,12.2017
 L -2.57217,12.42 L -0.557007,16.4269 L -2.28679,16.4269 L -3.73782,13.3887 L -3.74094,13.3823 L -3.76076,13.3423
 L -3.78253,13.2977 L -3.80717,13.2466 L -3.83275,13.1931 L -3.85962,13.1363 L -3.88966,13.0723 L -3.92096,13.0051
 L -3.92984,12.987 L -4.13385,12.5919 L -4.15706,12.5516 L -4.37115,12.2172 L -4.40547,12.17 L -4.62962,11.8964
 L -4.68021,11.8431 L -4.91446,11.6304 L -4.98651,11.5759 L -5.23082,11.4239 L -5.26855,11.4027 L -5.32622,11.3778
 L -5.58061,11.2866 L -5.63045,11.2716 L -5.69226,11.2605 L -5.95674,11.2301 L -6.01382,11.2269 L -6.84244,11.2269
 L -6.93613,11.2357 L -6.99695,11.2513 L -7.05533,11.2745 L -7.11035,11.3047 L -7.16115,11.3416 L -7.20692,11.3846
 L -7.24695,11.433 L -7.28059,11.486 L -7.30733,11.5428 L -7.32674,11.6025 L -7.3385,11.6642 L -7.34244,11.7269
 L -7.34244,16.4269 z
M -5.60246,10.0385 L -5.31003,10.03 L -5.27701,10.0279 L -5.00922,10.0023 L -4.97037,9.99702 L -4.72723,9.95433
 L -4.68175,9.94414 L -4.46324,9.88435 L -4.41087,9.86687 L -4.21704,9.78999 L -4.15868,9.76236 L -3.98947,9.66843
 L -3.9276,9.62781 L -3.78305,9.51678 L -3.72325,9.46266 L -3.60046,9.332 L -3.55139,9.2708 L -3.44749,9.11804
 L -3.41124,9.05542 L -3.32623,8.88054 L -3.30191,8.82104 L -3.23579,8.62405 L -3.22104,8.57031 L -3.17381,8.35121
 L -3.166,8.3042 L -3.13766,8.063 L -3.13457,8.0226 L -3.12512,7.75928 L -3.12512,7.72356 L -3.13449,7.46033
 L -3.13753,7.42027 L -3.16559,7.17934 L -3.17329,7.13258 L -3.22006,6.91396 L -3.2347,6.86034 L -3.30019,6.664
 L -3.32439,6.60451 L -3.40857,6.43047 L -3.44485,6.36755 L -3.54776,6.21581 L -3.59718,6.15407 L -3.7188,6.02463
 L -3.77927,5.96997 L -3.92282,5.86008 L -3.98546,5.81917 L -4.15421,5.7262 L -4.21289,5.69865 L -4.40683,5.62257
 L -4.45908,5.60533 L -4.67821,5.54616 L -4.72336,5.53618 L -4.96767,5.49393 L -5.00603,5.48882 L -5.27553,5.46346
 L -5.30803,5.46146 L -5.60272,5.453 L -5.61707,5.4528 L -6.84244,5.4528 L -6.93613,5.46165 L -6.99695,5.47728
 L -7.05533,5.5004 L -7.11035,5.53064 L -7.16115,5.56755 L -7.20692,5.61053 L -7.24695,5.65891 L -7.28059,5.71193
 L -7.30733,5.76874 L -7.32674,5.82846 L -7.3385,5.89014 L -7.34244,5.9528 L -7.34244,9.53873 L -7.33359,9.63242
 L -7.31796,9.69324 L -7.29485,9.75162 L -7.2646,9.80664 L -7.22769,9.85744 L -7.18471,9.90321 L -7.13634,9.94324
 L -7.08331,9.97688 L -7.0265,10.0036 L -6.96678,10.023 L -6.90511,10.0348 L -6.84244,10.0387 L -5.61707,10.0387
 z
M -6.84244,9.53873 L -6.84244,5.9528 L -5.61707,5.9528 L -5.32237,5.96126 L -5.05287,5.98662 L -4.80856,6.02887
 L -4.58943,6.08804 L -4.39549,6.16412 L -4.22675,6.2571 L -4.08319,6.36699 L -3.96158,6.49643 L -3.85867,6.64818
 L -3.77449,6.82222 L -3.709,7.01855 L -3.66223,7.23718 L -3.63417,7.47812 L -3.6248,7.74135 L -3.63425,8.00467
 L -3.66258,8.24586 L -3.70981,8.46497 L -3.77592,8.66196 L -3.86093,8.83684 L -3.96483,8.98959 L -4.08762,9.12025
 L -4.23216,9.23128 L -4.40137,9.32521 L -4.5952,9.40208 L -4.81371,9.46187 L -5.05684,9.50456 L -5.32463,9.53018
 L -5.61707,9.53873 z
" stroke="black" fill="lightgray" stroke-width="0.5"/>
</svg>
