  0
SECTION
  2
BLOCKS
  0
ENDSEC
  0
SECTION
  2
ENTITIES
  0
LINE
  8
0
 10
-20.832
 20
3.8434
 11
-20.2256
 21
3.90359
  0
LINE
  8
0
 10
-20.2256
 20
3.90359
 11
-19.6684
 21
4.00391
  0
LINE
  8
0
 10
-19.6684
 20
4.00391
 11
-19.1602
 21
4.14433
  0
LINE
  8
0
 10
-19.1602
 20
4.14433
 11
-18.7012
 21
4.32491
  0
LINE
  8
0
 10
-18.7012
 20
4.32491
 11
-18.2912
 21
4.54559
  0
LINE
  8
0
 10
-18.2912
 20
4.54559
 11
-17.9304
 21
4.8064
  0
LINE
  8
0
 10
-17.9304
 20
4.8064
 11
-17.6182
 21
5.10788
  0
LINE
  8
0
 10
-17.6182
 20
5.10788
 11
-17.354
 21
5.45056
  0
LINE
  8
0
 10
-17.354
 20
5.45056
 11
-17.1378
 21
5.83446
  0
LINE
  8
0
 10
-17.1378
 20
5.83446
 11
-16.9697
 21
6.25955
  0
LINE
  8
0
 10
-16.9697
 20
6.25955
 11
-16.8496
 21
6.72586
  0
LINE
  8
0
 10
-16.8496
 20
6.72586
 11
-16.7776
 21
7.23338
  0
LINE
  8
0
 10
-16.7776
 20
7.23338
 11
-16.7536
 21
7.7821
  0
LINE
  8
0
 10
-16.7536
 20
7.7821
 11
-16.7688
 21
8.19
  0
LINE
  8
0
 10
-16.7688
 20
8.19
 11
-16.8147
 21
8.57738
  0
LINE
  8
0
 10
-16.8147
 20
8.57738
 11
-16.8912
 21
8.94424
  0
LINE
  8
0
 10
-16.8912
 20
8.94424
 11
-16.9982
 21
9.2906
  0
LINE
  8
0
 10
-16.9982
 20
9.2906
 11
-17.1358
 21
9.61646
  0
LINE
  8
0
 10
-17.1358
 20
9.61646
 11
-17.3041
 21
9.92178
  0
LINE
  8
0
 10
-17.3041
 20
9.92178
 11
-17.5029
 21
10.2066
  0
LINE
  8
0
 10
-17.5029
 20
10.2066
 11
-17.7341
 21
10.4734
  0
LINE
  8
0
 10
-17.7341
 20
10.4734
 11
-17.9994
 21
10.7248
  0
LINE
  8
0
 10
-17.9994
 20
10.7248
 11
-18.299
 21
10.9607
  0
LINE
  8
0
 10
-18.299
 20
10.9607
 11
-18.6327
 21
11.1812
  0
LINE
  8
0
 10
-18.6327
 20
11.1812
 11
-19.0006
 21
11.3861
  0
LINE
  8
0
 10
-19.0006
 20
11.3861
 11
-19.4027
 21
11.5756
  0
LINE
  8
0
 10
-19.4027
 20
11.5756
 11
-19.839
 21
11.7496
  0
LINE
  8
0
 10
-19.839
 20
11.7496
 11
-20.9587
 21
12.1732
  0
LINE
  8
0
 10
-20.9587
 20
12.1732
 11
-21.2748
 21
12.2952
  0
LINE
  8
0
 10
-21.2748
 20
12.2952
 11
-21.5585
 21
12.414
  0
LINE
  8
0
 10
-21.5585
 20
12.414
 11
-21.8095
 21
12.5298
  0
LINE
  8
0
 10
-21.8095
 20
12.5298
 11
-22.028
 21
12.6425
  0
LINE
  8
0
 10
-22.028
 20
12.6425
 11
-22.2139
 21
12.7522
  0
LINE
  8
0
 10
-22.2139
 20
12.7522
 11
-22.3673
 21
12.8588
  0
LINE
  8
0
 10
-22.3673
 20
12.8588
 11
-22.4881
 21
12.9623
  0
LINE
  8
0
 10
-22.4881
 20
12.9623
 11
-22.5852
 21
13.0682
  0
LINE
  8
0
 10
-22.5852
 20
13.0682
 11
-22.6673
 21
13.1819
  0
LINE
  8
0
 10
-22.6673
 20
13.1819
 11
-22.7345
 21
13.3033
  0
LINE
  8
0
 10
-22.7345
 20
13.3033
 11
-22.7867
 21
13.4324
  0
LINE
  8
0
 10
-22.7867
 20
13.4324
 11
-22.8241
 21
13.5692
  0
LINE
  8
0
 10
-22.8241
 20
13.5692
 11
-22.8465
 21
13.7139
  0
LINE
  8
0
 10
-22.8465
 20
13.7139
 11
-22.8539
 21
13.8662
  0
LINE
  8
0
 10
-22.8539
 20
13.8662
 11
-22.8437
 21
14.0611
  0
LINE
  8
0
 10
-22.8437
 20
14.0611
 11
-22.8129
 21
14.2426
  0
LINE
  8
0
 10
-22.8129
 20
14.2426
 11
-22.7616
 21
14.4109
  0
LINE
  8
0
 10
-22.7616
 20
14.4109
 11
-22.6899
 21
14.5658
  0
LINE
  8
0
 10
-22.6899
 20
14.5658
 11
-22.5976
 21
14.7074
  0
LINE
  8
0
 10
-22.5976
 20
14.7074
 11
-22.4848
 21
14.8357
  0
LINE
  8
0
 10
-22.4848
 20
14.8357
 11
-22.3515
 21
14.9507
  0
LINE
  8
0
 10
-22.3515
 20
14.9507
 11
-22.1989
 21
15.0513
  0
LINE
  8
0
 10
-22.1989
 20
15.0513
 11
-22.0283
 21
15.1364
  0
LINE
  8
0
 10
-22.0283
 20
15.1364
 11
-21.8398
 21
15.2061
  0
LINE
  8
0
 10
-21.8398
 20
15.2061
 11
-21.6332
 21
15.2602
  0
LINE
  8
0
 10
-21.6332
 20
15.2602
 11
-21.4087
 21
15.2989
  0
LINE
  8
0
 10
-21.4087
 20
15.2989
 11
-21.1661
 21
15.3221
  0
LINE
  8
0
 10
-21.1661
 20
15.3221
 11
-20.9056
 21
15.3299
  0
LINE
  8
0
 10
-20.9056
 20
15.3299
 11
-20.6635
 21
15.3236
  0
LINE
  8
0
 10
-20.6635
 20
15.3236
 11
-20.4206
 21
15.3047
  0
LINE
  8
0
 10
-20.4206
 20
15.3047
 11
-20.177
 21
15.2733
  0
LINE
  8
0
 10
-20.177
 20
15.2733
 11
-19.9327
 21
15.2292
  0
LINE
  8
0
 10
-19.9327
 20
15.2292
 11
-19.6877
 21
15.1726
  0
LINE
  8
0
 10
-19.6877
 20
15.1726
 11
-19.4419
 21
15.1034
  0
LINE
  8
0
 10
-19.4419
 20
15.1034
 11
-19.1955
 21
15.0217
  0
LINE
  8
0
 10
-19.1955
 20
15.0217
 11
-18.9492
 21
14.9278
  0
LINE
  8
0
 10
-18.9492
 20
14.9278
 11
-18.7039
 21
14.8225
  0
LINE
  8
0
 10
-18.7039
 20
14.8225
 11
-18.4598
 21
14.7057
  0
LINE
  8
0
 10
-18.4598
 20
14.7057
 11
-18.2167
 21
14.5774
  0
LINE
  8
0
 10
-18.2167
 20
14.5774
 11
-17.9747
 21
14.4376
  0
LINE
  8
0
 10
-17.9747
 20
14.4376
 11
-17.7338
 21
14.2863
  0
LINE
  8
0
 10
-17.7338
 20
14.2863
 11
-17.494
 21
14.1235
  0
LINE
  8
0
 10
-17.494
 20
14.1235
 11
-17.494
 21
16.6611
  0
LINE
  8
0
 10
-17.494
 20
16.6611
 11
-17.7488
 21
16.7734
  0
LINE
  8
0
 10
-17.7488
 20
16.7734
 11
-18.0043
 21
16.8776
  0
LINE
  8
0
 10
-18.0043
 20
16.8776
 11
-18.2605
 21
16.9737
  0
LINE
  8
0
 10
-18.2605
 20
16.9737
 11
-18.5174
 21
17.0616
  0
LINE
  8
0
 10
-18.5174
 20
17.0616
 11
-18.775
 21
17.1414
  0
LINE
  8
0
 10
-18.775
 20
17.1414
 11
-19.0334
 21
17.2131
  0
LINE
  8
0
 10
-19.0334
 20
17.2131
 11
-19.2924
 21
17.2766
  0
LINE
  8
0
 10
-19.2924
 20
17.2766
 11
-19.5518
 21
17.3318
  0
LINE
  8
0
 10
-19.5518
 20
17.3318
 11
-19.8113
 21
17.3786
  0
LINE
  8
0
 10
-19.8113
 20
17.3786
 11
-20.0707
 21
17.4168
  0
LINE
  8
0
 10
-20.0707
 20
17.4168
 11
-20.3301
 21
17.4465
  0
LINE
  8
0
 10
-20.3301
 20
17.4465
 11
-20.5895
 21
17.4678
  0
LINE
  8
0
 10
-20.5895
 20
17.4678
 11
-20.849
 21
17.4805
  0
LINE
  8
0
 10
-20.849
 20
17.4805
 11
-21.1084
 21
17.4848
  0
LINE
  8
0
 10
-21.1084
 20
17.4848
 11
-21.6628
 21
17.4639
  0
LINE
  8
0
 10
-21.6628
 20
17.4639
 11
-22.1822
 21
17.4012
  0
LINE
  8
0
 10
-22.1822
 20
17.4012
 11
-22.6667
 21
17.2968
  0
LINE
  8
0
 10
-22.6667
 20
17.2968
 11
-23.1163
 21
17.1505
  0
LINE
  8
0
 10
-23.1163
 20
17.1505
 11
-23.531
 21
16.9625
  0
LINE
  8
0
 10
-23.531
 20
16.9625
 11
-23.9108
 21
16.7327
  0
LINE
  8
0
 10
-23.9108
 20
16.7327
 11
-24.2557
 21
16.4611
  0
LINE
  8
0
 10
-24.2557
 20
16.4611
 11
-24.5598
 21
16.153
  0
LINE
  8
0
 10
-24.5598
 20
16.153
 11
-24.817
 21
15.8136
  0
LINE
  8
0
 10
-24.817
 20
15.8136
 11
-25.0275
 21
15.4428
  0
LINE
  8
0
 10
-25.0275
 20
15.4428
 11
-25.1912
 21
15.0407
  0
LINE
  8
0
 10
-25.1912
 20
15.0407
 11
-25.3081
 21
14.6073
  0
LINE
  8
0
 10
-25.3081
 20
14.6073
 11
-25.3783
 21
14.1425
  0
LINE
  8
0
 10
-25.3783
 20
14.1425
 11
-25.4017
 21
13.6464
  0
LINE
  8
0
 10
-25.4017
 20
13.6464
 11
-25.3875
 21
13.2597
  0
LINE
  8
0
 10
-25.3875
 20
13.2597
 11
-25.3448
 21
12.8962
  0
LINE
  8
0
 10
-25.3448
 20
12.8962
 11
-25.2738
 21
12.5559
  0
LINE
  8
0
 10
-25.2738
 20
12.5559
 11
-25.1743
 21
12.2389
  0
LINE
  8
0
 10
-25.1743
 20
12.2389
 11
-25.0464
 21
11.9451
  0
LINE
  8
0
 10
-25.0464
 20
11.9451
 11
-24.89
 21
11.6745
  0
LINE
  8
0
 10
-24.89
 20
11.6745
 11
-24.7053
 21
11.4272
  0
LINE
  8
0
 10
-24.7053
 20
11.4272
 11
-24.4804
 21
11.193
  0
LINE
  8
0
 10
-24.4804
 20
11.193
 11
-24.2037
 21
10.9619
  0
LINE
  8
0
 10
-24.2037
 20
10.9619
 11
-23.8752
 21
10.7338
  0
LINE
  8
0
 10
-23.8752
 20
10.7338
 11
-23.4948
 21
10.5088
  0
LINE
  8
0
 10
-23.4948
 20
10.5088
 11
-23.0627
 21
10.2869
  0
LINE
  8
0
 10
-23.0627
 20
10.2869
 11
-22.5788
 21
10.068
  0
LINE
  8
0
 10
-22.5788
 20
10.068
 11
-22.043
 21
9.85222
  0
LINE
  8
0
 10
-22.043
 20
9.85222
 11
-20.7647
 21
9.36693
  0
LINE
  8
0
 10
-20.7647
 20
9.36693
 11
-20.5797
 21
9.29015
  0
LINE
  8
0
 10
-20.5797
 20
9.29015
 11
-20.4077
 21
9.20564
  0
LINE
  8
0
 10
-20.4077
 20
9.20564
 11
-20.2487
 21
9.1134
  0
LINE
  8
0
 10
-20.2487
 20
9.1134
 11
-20.1026
 21
9.01343
  0
LINE
  8
0
 10
-20.1026
 20
9.01343
 11
-19.9695
 21
8.90573
  0
LINE
  8
0
 10
-19.9695
 20
8.90573
 11
-19.8493
 21
8.7903
  0
LINE
  8
0
 10
-19.8493
 20
8.7903
 11
-19.7421
 21
8.66714
  0
LINE
  8
0
 10
-19.7421
 20
8.66714
 11
-19.6485
 21
8.53719
  0
LINE
  8
0
 10
-19.6485
 20
8.53719
 11
-19.5694
 21
8.40131
  0
LINE
  8
0
 10
-19.5694
 20
8.40131
 11
-19.5046
 21
8.25949
  0
LINE
  8
0
 10
-19.5046
 20
8.25949
 11
-19.4542
 21
8.11176
  0
LINE
  8
0
 10
-19.4542
 20
8.11176
 11
-19.4182
 21
7.9581
  0
LINE
  8
0
 10
-19.4182
 20
7.9581
 11
-19.3966
 21
7.79851
  0
LINE
  8
0
 10
-19.3966
 20
7.79851
 11
-19.3894
 21
7.63298
  0
LINE
  8
0
 10
-19.3894
 20
7.63298
 11
-19.4002
 21
7.41626
  0
LINE
  8
0
 10
-19.4002
 20
7.41626
 11
-19.4326
 21
7.21371
  0
LINE
  8
0
 10
-19.4326
 20
7.21371
 11
-19.4866
 21
7.02536
  0
LINE
  8
0
 10
-19.4866
 20
7.02536
 11
-19.5621
 21
6.85121
  0
LINE
  8
0
 10
-19.5621
 20
6.85121
 11
-19.6593
 21
6.69122
  0
LINE
  8
0
 10
-19.6593
 20
6.69122
 11
-19.7781
 21
6.54544
  0
LINE
  8
0
 10
-19.7781
 20
6.54544
 11
-19.9184
 21
6.41385
  0
LINE
  8
0
 10
-19.9184
 20
6.41385
 11
-20.0783
 21
6.29828
  0
LINE
  8
0
 10
-20.0783
 20
6.29828
 11
-20.2559
 21
6.20049
  0
LINE
  8
0
 10
-20.2559
 20
6.20049
 11
-20.4511
 21
6.12047
  0
LINE
  8
0
 10
-20.4511
 20
6.12047
 11
-20.6639
 21
6.05823
  0
LINE
  8
0
 10
-20.6639
 20
6.05823
 11
-20.8943
 21
6.01378
  0
LINE
  8
0
 10
-20.8943
 20
6.01378
 11
-21.1425
 21
5.98711
  0
LINE
  8
0
 10
-21.1425
 20
5.98711
 11
-21.4082
 21
5.97821
  0
LINE
  8
0
 10
-21.4082
 20
5.97821
 11
-21.6807
 21
5.98555
  0
LINE
  8
0
 10
-21.6807
 20
5.98555
 11
-21.9541
 21
6.00757
  0
LINE
  8
0
 10
-21.9541
 20
6.00757
 11
-22.2283
 21
6.04427
  0
LINE
  8
0
 10
-22.2283
 20
6.04427
 11
-22.5035
 21
6.09563
  0
LINE
  8
0
 10
-22.5035
 20
6.09563
 11
-22.7796
 21
6.16168
  0
LINE
  8
0
 10
-22.7796
 20
6.16168
 11
-23.0565
 21
6.2424
  0
LINE
  8
0
 10
-23.0565
 20
6.2424
 11
-23.3344
 21
6.3378
  0
LINE
  8
0
 10
-23.3344
 20
6.3378
 11
-23.6141
 21
6.44827
  0
LINE
  8
0
 10
-23.6141
 20
6.44827
 11
-23.8964
 21
6.57413
  0
LINE
  8
0
 10
-23.8964
 20
6.57413
 11
-24.1815
 21
6.71536
  0
LINE
  8
0
 10
-24.1815
 20
6.71536
 11
-24.4693
 21
6.87199
  0
LINE
  8
0
 10
-24.4693
 20
6.87199
 11
-24.7597
 21
7.04402
  0
LINE
  8
0
 10
-24.7597
 20
7.04402
 11
-25.0529
 21
7.23143
  0
LINE
  8
0
 10
-25.0529
 20
7.23143
 11
-25.3488
 21
7.43422
  0
LINE
  8
0
 10
-25.3488
 20
7.43422
 11
-25.3488
 21
4.74686
  0
LINE
  8
0
 10
-25.3488
 20
4.74686
 11
-25.0855
 21
4.62076
  0
LINE
  8
0
 10
-25.0855
 20
4.62076
 11
-24.8195
 21
4.50383
  0
LINE
  8
0
 10
-24.8195
 20
4.50383
 11
-24.5508
 21
4.39604
  0
LINE
  8
0
 10
-24.5508
 20
4.39604
 11
-24.2794
 21
4.29741
  0
LINE
  8
0
 10
-24.2794
 20
4.29741
 11
-24.0053
 21
4.20793
  0
LINE
  8
0
 10
-24.0053
 20
4.20793
 11
-23.7286
 21
4.12759
  0
LINE
  8
0
 10
-23.7286
 20
4.12759
 11
-23.4491
 21
4.05643
  0
LINE
  8
0
 10
-23.4491
 20
4.05643
 11
-23.1683
 21
3.99458
  0
LINE
  8
0
 10
-23.1683
 20
3.99458
 11
-22.8877
 21
3.94226
  0
LINE
  8
0
 10
-22.8877
 20
3.94226
 11
-22.6073
 21
3.89944
  0
LINE
  8
0
 10
-22.6073
 20
3.89944
 11
-22.3271
 21
3.86615
  0
LINE
  8
0
 10
-22.3271
 20
3.86615
 11
-22.047
 21
3.84236
  0
LINE
  8
0
 10
-22.047
 20
3.84236
 11
-21.7672
 21
3.82809
  0
LINE
  8
0
 10
-21.7672
 20
3.82809
 11
-21.4875
 21
3.82333
  0
LINE
  8
0
 10
-21.4875
 20
3.82333
 11
-20.832
 21
3.8434
  0
LINE
  8
0
 10
-21.7503
 20
4.32788
 11
-22.0131
 21
4.34128
  0
LINE
  8
0
 10
-22.0131
 20
4.34128
 11
-22.2762
 21
4.36363
  0
LINE
  8
0
 10
-22.2762
 20
4.36363
 11
-22.5398
 21
4.39494
  0
LINE
  8
0
 10
-22.5398
 20
4.39494
 11
-22.8042
 21
4.4353
  0
LINE
  8
0
 10
-22.8042
 20
4.4353
 11
-23.0687
 21
4.48463
  0
LINE
  8
0
 10
-23.0687
 20
4.48463
 11
-23.3335
 21
4.54295
  0
LINE
  8
0
 10
-23.3335
 20
4.54295
 11
-23.5974
 21
4.61015
  0
LINE
  8
0
 10
-23.5974
 20
4.61015
 11
-23.858
 21
4.68581
  0
LINE
  8
0
 10
-23.858
 20
4.68581
 11
-24.1163
 21
4.77014
  0
LINE
  8
0
 10
-24.1163
 20
4.77014
 11
-24.3722
 21
4.86311
  0
LINE
  8
0
 10
-24.3722
 20
4.86311
 11
-24.6256
 21
4.96478
  0
LINE
  8
0
 10
-24.6256
 20
4.96478
 11
-24.8488
 21
5.06288
  0
LINE
  8
0
 10
-24.8488
 20
5.06288
 11
-24.8488
 21
6.51564
  0
LINE
  8
0
 10
-24.8488
 20
6.51564
 11
-24.724
 21
6.44179
  0
LINE
  8
0
 10
-24.724
 20
6.44179
 11
-24.7083
 21
6.43285
  0
LINE
  8
0
 10
-24.7083
 20
6.43285
 11
-24.4205
 21
6.27621
  0
LINE
  8
0
 10
-24.4205
 20
6.27621
 11
-24.4035
 21
6.26733
  0
LINE
  8
0
 10
-24.4035
 20
6.26733
 11
-24.1184
 21
6.1261
  0
LINE
  8
0
 10
-24.1184
 20
6.1261
 11
-24.1
 21
6.11743
  0
LINE
  8
0
 10
-24.1
 20
6.11743
 11
-23.8176
 21
5.99158
  0
LINE
  8
0
 10
-23.8176
 20
5.99158
 11
-23.7978
 21
5.98325
  0
LINE
  8
0
 10
-23.7978
 20
5.98325
 11
-23.5181
 21
5.87277
  0
LINE
  8
0
 10
-23.5181
 20
5.87277
 11
-23.4968
 21
5.8649
  0
LINE
  8
0
 10
-23.4968
 20
5.8649
 11
-23.2189
 21
5.7695
  0
LINE
  8
0
 10
-23.2189
 20
5.7695
 11
-23.1964
 21
5.76237
  0
LINE
  8
0
 10
-23.1964
 20
5.76237
 11
-22.9195
 21
5.68166
  0
LINE
  8
0
 10
-22.9195
 20
5.68166
 11
-22.8959
 21
5.67542
  0
LINE
  8
0
 10
-22.8959
 20
5.67542
 11
-22.6199
 21
5.60936
  0
LINE
  8
0
 10
-22.6199
 20
5.60936
 11
-22.5952
 21
5.60411
  0
LINE
  8
0
 10
-22.5952
 20
5.60411
 11
-22.3201
 21
5.55275
  0
LINE
  8
0
 10
-22.3201
 20
5.55275
 11
-22.2946
 21
5.54868
  0
LINE
  8
0
 10
-22.2946
 20
5.54868
 11
-22.0204
 21
5.51198
  0
LINE
  8
0
 10
-22.0204
 20
5.51198
 11
-21.9942
 21
5.50919
  0
LINE
  8
0
 10
-21.9942
 20
5.50919
 11
-21.7208
 21
5.48717
  0
LINE
  8
0
 10
-21.7208
 20
5.48717
 11
-21.6941
 21
5.48573
  0
LINE
  8
0
 10
-21.6941
 20
5.48573
 11
-21.4217
 21
5.47839
  0
LINE
  8
0
 10
-21.4217
 20
5.47839
 11
-21.3915
 21
5.47849
  0
LINE
  8
0
 10
-21.3915
 20
5.47849
 11
-21.1257
 21
5.48738
  0
LINE
  8
0
 10
-21.1257
 20
5.48738
 11
-21.089
 21
5.48997
  0
LINE
  8
0
 10
-21.089
 20
5.48997
 11
-20.8409
 21
5.51665
  0
LINE
  8
0
 10
-20.8409
 20
5.51665
 11
-20.7997
 21
5.52283
  0
LINE
  8
0
 10
-20.7997
 20
5.52283
 11
-20.5692
 21
5.56728
  0
LINE
  8
0
 10
-20.5692
 20
5.56728
 11
-20.5235
 21
5.57832
  0
LINE
  8
0
 10
-20.5235
 20
5.57832
 11
-20.3107
 21
5.64056
  0
LINE
  8
0
 10
-20.3107
 20
5.64056
 11
-20.2614
 21
5.65784
  0
LINE
  8
0
 10
-20.2614
 20
5.65784
 11
-20.0662
 21
5.73785
  0
LINE
  8
0
 10
-20.0662
 20
5.73785
 11
-20.0147
 21
5.76251
  0
LINE
  8
0
 10
-20.0147
 20
5.76251
 11
-19.8371
 21
5.86031
  0
LINE
  8
0
 10
-19.8371
 20
5.86031
 11
-19.7854
 21
5.89304
  0
LINE
  8
0
 10
-19.7854
 20
5.89304
 11
-19.6255
 21
6.00861
  0
LINE
  8
0
 10
-19.6255
 20
6.00861
 11
-19.5764
 21
6.04912
  0
LINE
  8
0
 10
-19.5764
 20
6.04912
 11
-19.4361
 21
6.18071
  0
LINE
  8
0
 10
-19.4361
 20
6.18071
 11
-19.3904
 21
6.22968
  0
LINE
  8
0
 10
-19.3904
 20
6.22968
 11
-19.2717
 21
6.37546
  0
LINE
  8
0
 10
-19.2717
 20
6.37546
 11
-19.232
 21
6.43167
  0
LINE
  8
0
 10
-19.232
 20
6.43167
 11
-19.1348
 21
6.59166
  0
LINE
  8
0
 10
-19.1348
 20
6.59166
 11
-19.1035
 21
6.65219
  0
LINE
  8
0
 10
-19.1035
 20
6.65219
 11
-19.0279
 21
6.82634
  0
LINE
  8
0
 10
-19.0279
 20
6.82634
 11
-19.0059
 21
6.88763
  0
LINE
  8
0
 10
-19.0059
 20
6.88763
 11
-18.952
 21
7.07599
  0
LINE
  8
0
 10
-18.952
 20
7.07599
 11
-18.9389
 21
7.13475
  0
LINE
  8
0
 10
-18.9389
 20
7.13475
 11
-18.9065
 21
7.3373
  0
LINE
  8
0
 10
-18.9065
 20
7.3373
 11
-18.9008
 21
7.3914
  0
LINE
  8
0
 10
-18.9008
 20
7.3914
 11
-18.8901
 21
7.60812
  0
LINE
  8
0
 10
-18.8901
 20
7.60812
 11
-18.8899
 21
7.65466
  0
LINE
  8
0
 10
-18.8899
 20
7.65466
 11
-18.8971
 21
7.82019
  0
LINE
  8
0
 10
-18.8971
 20
7.82019
 11
-18.9011
 21
7.86554
  0
LINE
  8
0
 10
-18.9011
 20
7.86554
 11
-18.9227
 21
8.02513
  0
LINE
  8
0
 10
-18.9227
 20
8.02513
 11
-18.9314
 21
8.07214
  0
LINE
  8
0
 10
-18.9314
 20
8.07214
 11
-18.9674
 21
8.2258
  0
LINE
  8
0
 10
-18.9674
 20
8.2258
 11
-18.981
 21
8.27315
  0
LINE
  8
0
 10
-18.981
 20
8.27315
 11
-19.0314
 21
8.42088
  0
LINE
  8
0
 10
-19.0314
 20
8.42088
 11
-19.0498
 21
8.46722
  0
LINE
  8
0
 10
-19.0498
 20
8.46722
 11
-19.1146
 21
8.60904
  0
LINE
  8
0
 10
-19.1146
 20
8.60904
 11
-19.1374
 21
8.65305
  0
LINE
  8
0
 10
-19.1374
 20
8.65305
 11
-19.2165
 21
8.78893
  0
LINE
  8
0
 10
-19.2165
 20
8.78893
 11
-19.2428
 21
8.82933
  0
LINE
  8
0
 10
-19.2428
 20
8.82933
 11
-19.3363
 21
8.95929
  0
LINE
  8
0
 10
-19.3363
 20
8.95929
 11
-19.365
 21
8.99547
  0
LINE
  8
0
 10
-19.365
 20
8.99547
 11
-19.4722
 21
9.11862
  0
LINE
  8
0
 10
-19.4722
 20
9.11862
 11
-19.5029
 21
9.15088
  0
LINE
  8
0
 10
-19.5029
 20
9.15088
 11
-19.6231
 21
9.26631
  0
LINE
  8
0
 10
-19.6231
 20
9.26631
 11
-19.655
 21
9.29445
  0
LINE
  8
0
 10
-19.655
 20
9.29445
 11
-19.7881
 21
9.40215
  0
LINE
  8
0
 10
-19.7881
 20
9.40215
 11
-19.8202
 21
9.42606
  0
LINE
  8
0
 10
-19.8202
 20
9.42606
 11
-19.9663
 21
9.52603
  0
LINE
  8
0
 10
-19.9663
 20
9.52603
 11
-19.9978
 21
9.54593
  0
LINE
  8
0
 10
-19.9978
 20
9.54593
 11
-20.1569
 21
9.63817
  0
LINE
  8
0
 10
-20.1569
 20
9.63817
 11
-20.1873
 21
9.6544
  0
LINE
  8
0
 10
-20.1873
 20
9.6544
 11
-20.3593
 21
9.73891
  0
LINE
  8
0
 10
-20.3593
 20
9.73891
 11
-20.388
 21
9.75194
  0
LINE
  8
0
 10
-20.388
 20
9.75194
 11
-20.573
 21
9.82872
  0
LINE
  8
0
 10
-20.573
 20
9.82872
 11
-20.5872
 21
9.83438
  0
LINE
  8
0
 10
-20.5872
 20
9.83438
 11
-21.861
 21
10.3179
  0
LINE
  8
0
 10
-21.861
 20
10.3179
 11
-22.3821
 21
10.5279
  0
LINE
  8
0
 10
-22.3821
 20
10.5279
 11
-22.8455
 21
10.7374
  0
LINE
  8
0
 10
-22.8455
 20
10.7374
 11
-23.2531
 21
10.9467
  0
LINE
  8
0
 10
-23.2531
 20
10.9467
 11
-23.6049
 21
11.1549
  0
LINE
  8
0
 10
-23.6049
 20
11.1549
 11
-23.9003
 21
11.3599
  0
LINE
  8
0
 10
-23.9003
 20
11.3599
 11
-24.1387
 21
11.5591
  0
LINE
  8
0
 10
-24.1387
 20
11.5591
 11
-24.3232
 21
11.7512
  0
LINE
  8
0
 10
-24.3232
 20
11.7512
 11
-24.4718
 21
11.9502
  0
LINE
  8
0
 10
-24.4718
 20
11.9502
 11
-24.5992
 21
12.1706
  0
LINE
  8
0
 10
-24.5992
 20
12.1706
 11
-24.7052
 21
12.414
  0
LINE
  8
0
 10
-24.7052
 20
12.414
 11
-24.7893
 21
12.6822
  0
LINE
  8
0
 10
-24.7893
 20
12.6822
 11
-24.8508
 21
12.9766
  0
LINE
  8
0
 10
-24.8508
 20
12.9766
 11
-24.8885
 21
13.298
  0
LINE
  8
0
 10
-24.8885
 20
13.298
 11
-24.9012
 21
13.6438
  0
LINE
  8
0
 10
-24.9012
 20
13.6438
 11
-24.88
 21
14.0933
  0
LINE
  8
0
 10
-24.88
 20
14.0933
 11
-24.818
 21
14.5046
  0
LINE
  8
0
 10
-24.818
 20
14.5046
 11
-24.7165
 21
14.8808
  0
LINE
  8
0
 10
-24.7165
 20
14.8808
 11
-24.5767
 21
15.2242
  0
LINE
  8
0
 10
-24.5767
 20
15.2242
 11
-24.3985
 21
15.5381
  0
LINE
  8
0
 10
-24.3985
 20
15.5381
 11
-24.181
 21
15.825
  0
LINE
  8
0
 10
-24.181
 20
15.825
 11
-23.9218
 21
16.0877
  0
LINE
  8
0
 10
-23.9218
 20
16.0877
 11
-23.6257
 21
16.3208
  0
LINE
  8
0
 10
-23.6257
 20
16.3208
 11
-23.2975
 21
16.5194
  0
LINE
  8
0
 10
-23.2975
 20
16.5194
 11
-22.9352
 21
16.6836
  0
LINE
  8
0
 10
-22.9352
 20
16.6836
 11
-22.5363
 21
16.8134
  0
LINE
  8
0
 10
-22.5363
 20
16.8134
 11
-22.0994
 21
16.9076
  0
LINE
  8
0
 10
-22.0994
 20
16.9076
 11
-21.6234
 21
16.965
  0
LINE
  8
0
 10
-21.6234
 20
16.965
 11
-21.1031
 21
16.9846
  0
LINE
  8
0
 10
-21.1031
 20
16.9846
 11
-20.8654
 21
16.9807
  0
LINE
  8
0
 10
-20.8654
 20
16.9807
 11
-20.6221
 21
16.9688
  0
LINE
  8
0
 10
-20.6221
 20
16.9688
 11
-20.3788
 21
16.9489
  0
LINE
  8
0
 10
-20.3788
 20
16.9489
 11
-20.1357
 21
16.921
  0
LINE
  8
0
 10
-20.1357
 20
16.921
 11
-19.8919
 21
16.885
  0
LINE
  8
0
 10
-19.8919
 20
16.885
 11
-19.6484
 21
16.8412
  0
LINE
  8
0
 10
-19.6484
 20
16.8412
 11
-19.4038
 21
16.7891
  0
LINE
  8
0
 10
-19.4038
 20
16.7891
 11
-19.1601
 21
16.7294
  0
LINE
  8
0
 10
-19.1601
 20
16.7294
 11
-18.9157
 21
16.6616
  0
LINE
  8
0
 10
-18.9157
 20
16.6616
 11
-18.6721
 21
16.5861
  0
LINE
  8
0
 10
-18.6721
 20
16.5861
 11
-18.4295
 21
16.5031
  0
LINE
  8
0
 10
-18.4295
 20
16.5031
 11
-18.1862
 21
16.4119
  0
LINE
  8
0
 10
-18.1862
 20
16.4119
 11
-17.994
 21
16.3335
  0
LINE
  8
0
 10
-17.994
 20
16.3335
 11
-17.994
 21
15.0253
  0
LINE
  8
0
 10
-17.994
 20
15.0253
 11
-18.2263
 21
15.1479
  0
LINE
  8
0
 10
-18.2263
 20
15.1479
 11
-18.244
 21
15.1568
  0
LINE
  8
0
 10
-18.244
 20
15.1568
 11
-18.4882
 21
15.2736
  0
LINE
  8
0
 10
-18.4882
 20
15.2736
 11
-18.5066
 21
15.282
  0
LINE
  8
0
 10
-18.5066
 20
15.282
 11
-18.7518
 21
15.3873
  0
LINE
  8
0
 10
-18.7518
 20
15.3873
 11
-18.7712
 21
15.3951
  0
LINE
  8
0
 10
-18.7712
 20
15.3951
 11
-19.0175
 21
15.4889
  0
LINE
  8
0
 10
-19.0175
 20
15.4889
 11
-19.038
 21
15.4962
  0
LINE
  8
0
 10
-19.038
 20
15.4962
 11
-19.2845
 21
15.578
  0
LINE
  8
0
 10
-19.2845
 20
15.578
 11
-19.3064
 21
15.5847
  0
LINE
  8
0
 10
-19.3064
 20
15.5847
 11
-19.5521
 21
15.6539
  0
LINE
  8
0
 10
-19.5521
 20
15.6539
 11
-19.5751
 21
15.6598
  0
LINE
  8
0
 10
-19.5751
 20
15.6598
 11
-19.8201
 21
15.7164
  0
LINE
  8
0
 10
-19.8201
 20
15.7164
 11
-19.844
 21
15.7213
  0
LINE
  8
0
 10
-19.844
 20
15.7213
 11
-20.0883
 21
15.7653
  0
LINE
  8
0
 10
-20.0883
 20
15.7653
 11
-20.113
 21
15.7691
  0
LINE
  8
0
 10
-20.113
 20
15.7691
 11
-20.3566
 21
15.8006
  0
LINE
  8
0
 10
-20.3566
 20
15.8006
 11
-20.3819
 21
15.8032
  0
LINE
  8
0
 10
-20.3819
 20
15.8032
 11
-20.6247
 21
15.8221
  0
LINE
  8
0
 10
-20.6247
 20
15.8221
 11
-20.6505
 21
15.8234
  0
LINE
  8
0
 10
-20.6505
 20
15.8234
 11
-20.8927
 21
15.8297
  0
LINE
  8
0
 10
-20.8927
 20
15.8297
 11
-20.9205
 21
15.8297
  0
LINE
  8
0
 10
-20.9205
 20
15.8297
 11
-21.181
 21
15.8219
  0
LINE
  8
0
 10
-21.181
 20
15.8219
 11
-21.2138
 21
15.8199
  0
LINE
  8
0
 10
-21.2138
 20
15.8199
 11
-21.4563
 21
15.7966
  0
LINE
  8
0
 10
-21.4563
 20
15.7966
 11
-21.4935
 21
15.7917
  0
LINE
  8
0
 10
-21.4935
 20
15.7917
 11
-21.7181
 21
15.753
  0
LINE
  8
0
 10
-21.7181
 20
15.753
 11
-21.7601
 21
15.7439
  0
LINE
  8
0
 10
-21.7601
 20
15.7439
 11
-21.9666
 21
15.6897
  0
LINE
  8
0
 10
-21.9666
 20
15.6897
 11
-22.013
 21
15.6751
  0
LINE
  8
0
 10
-22.013
 20
15.6751
 11
-22.2015
 21
15.6055
  0
LINE
  8
0
 10
-22.2015
 20
15.6055
 11
-22.2516
 21
15.5838
  0
LINE
  8
0
 10
-22.2516
 20
15.5838
 11
-22.4222
 21
15.4987
  0
LINE
  8
0
 10
-22.4222
 20
15.4987
 11
-22.4741
 21
15.4687
  0
LINE
  8
0
 10
-22.4741
 20
15.4687
 11
-22.6267
 21
15.3681
  0
LINE
  8
0
 10
-22.6267
 20
15.3681
 11
-22.678
 21
15.3293
  0
LINE
  8
0
 10
-22.678
 20
15.3293
 11
-22.8113
 21
15.2144
  0
LINE
  8
0
 10
-22.8113
 20
15.2144
 11
-22.8603
 21
15.1658
  0
LINE
  8
0
 10
-22.8603
 20
15.1658
 11
-22.9731
 21
15.0376
  0
LINE
  8
0
 10
-22.9731
 20
15.0376
 11
-23.0165
 21
14.9804
  0
LINE
  8
0
 10
-23.0165
 20
14.9804
 11
-23.1087
 21
14.8388
  0
LINE
  8
0
 10
-23.1087
 20
14.8388
 11
-23.1435
 21
14.776
  0
LINE
  8
0
 10
-23.1435
 20
14.776
 11
-23.2153
 21
14.6211
  0
LINE
  8
0
 10
-23.2153
 20
14.6211
 11
-23.2399
 21
14.5566
  0
LINE
  8
0
 10
-23.2399
 20
14.5566
 11
-23.2912
 21
14.3884
  0
LINE
  8
0
 10
-23.2912
 20
14.3884
 11
-23.3059
 21
14.3262
  0
LINE
  8
0
 10
-23.3059
 20
14.3262
 11
-23.3367
 21
14.1446
  0
LINE
  8
0
 10
-23.3367
 20
14.1446
 11
-23.343
 21
14.0874
  0
LINE
  8
0
 10
-23.343
 20
14.0874
 11
-23.3532
 21
13.8925
  0
LINE
  8
0
 10
-23.3532
 20
13.8925
 11
-23.3533
 21
13.8418
  0
LINE
  8
0
 10
-23.3533
 20
13.8418
 11
-23.3459
 21
13.6894
  0
LINE
  8
0
 10
-23.3459
 20
13.6894
 11
-23.3406
 21
13.6373
  0
LINE
  8
0
 10
-23.3406
 20
13.6373
 11
-23.3182
 21
13.4927
  0
LINE
  8
0
 10
-23.3182
 20
13.4927
 11
-23.3064
 21
13.4377
  0
LINE
  8
0
 10
-23.3064
 20
13.4377
 11
-23.2691
 21
13.3008
  0
LINE
  8
0
 10
-23.2691
 20
13.3008
 11
-23.2502
 21
13.2448
  0
LINE
  8
0
 10
-23.2502
 20
13.2448
 11
-23.198
 21
13.1157
  0
LINE
  8
0
 10
-23.198
 20
13.1157
 11
-23.1719
 21
13.0611
  0
LINE
  8
0
 10
-23.1719
 20
13.0611
 11
-23.1047
 21
12.9397
  0
LINE
  8
0
 10
-23.1047
 20
12.9397
 11
-23.0725
 21
12.889
  0
LINE
  8
0
 10
-23.0725
 20
12.889
 11
-22.9904
 21
12.7754
  0
LINE
  8
0
 10
-22.9904
 20
12.7754
 11
-22.9538
 21
12.7304
  0
LINE
  8
0
 10
-22.9538
 20
12.7304
 11
-22.8567
 21
12.6245
  0
LINE
  8
0
 10
-22.8567
 20
12.6245
 11
-22.8135
 21
12.5827
  0
LINE
  8
0
 10
-22.8135
 20
12.5827
 11
-22.6927
 21
12.4791
  0
LINE
  8
0
 10
-22.6927
 20
12.4791
 11
-22.6527
 21
12.4482
  0
LINE
  8
0
 10
-22.6527
 20
12.4482
 11
-22.4993
 21
12.3416
  0
LINE
  8
0
 10
-22.4993
 20
12.3416
 11
-22.468
 21
12.3215
  0
LINE
  8
0
 10
-22.468
 20
12.3215
 11
-22.282
 21
12.2119
  0
LINE
  8
0
 10
-22.282
 20
12.2119
 11
-22.2572
 21
12.1982
  0
LINE
  8
0
 10
-22.2572
 20
12.1982
 11
-22.0388
 21
12.0855
  0
LINE
  8
0
 10
-22.0388
 20
12.0855
 11
-22.0189
 21
12.0758
  0
LINE
  8
0
 10
-22.0189
 20
12.0758
 11
-21.7679
 21
11.96
  0
LINE
  8
0
 10
-21.7679
 20
11.96
 11
-21.7517
 21
11.9529
  0
LINE
  8
0
 10
-21.7517
 20
11.9529
 11
-21.4681
 21
11.834
  0
LINE
  8
0
 10
-21.4681
 20
11.834
 11
-21.4548
 21
11.8286
  0
LINE
  8
0
 10
-21.4548
 20
11.8286
 11
-21.1386
 21
11.7067
  0
LINE
  8
0
 10
-21.1386
 20
11.7067
 11
-20.0201
 21
11.2835
  0
LINE
  8
0
 10
-20.0201
 20
11.2835
 11
-19.6019
 21
11.1167
  0
LINE
  8
0
 10
-19.6019
 20
11.1167
 11
-19.2291
 21
10.941
  0
LINE
  8
0
 10
-19.2291
 20
10.941
 11
-18.8926
 21
10.7536
  0
LINE
  8
0
 10
-18.8926
 20
10.7536
 11
-18.5919
 21
10.555
  0
LINE
  8
0
 10
-18.5919
 20
10.555
 11
-18.3267
 21
10.3461
  0
LINE
  8
0
 10
-18.3267
 20
10.3461
 11
-18.0958
 21
10.1274
  0
LINE
  8
0
 10
-18.0958
 20
10.1274
 11
-17.8979
 21
9.89896
  0
LINE
  8
0
 10
-17.8979
 20
9.89896
 11
-17.7292
 21
9.65735
  0
LINE
  8
0
 10
-17.7292
 20
9.65735
 11
-17.5863
 21
9.39789
  0
LINE
  8
0
 10
-17.5863
 20
9.39789
 11
-17.4686
 21
9.11917
  0
LINE
  8
0
 10
-17.4686
 20
9.11917
 11
-17.3758
 21
8.81911
  0
LINE
  8
0
 10
-17.3758
 20
8.81911
 11
-17.3087
 21
8.49681
  0
LINE
  8
0
 10
-17.3087
 20
8.49681
 11
-17.2677
 21
8.15112
  0
LINE
  8
0
 10
-17.2677
 20
8.15112
 11
-17.254
 21
7.78374
  0
LINE
  8
0
 10
-17.254
 20
7.78374
 11
-17.276
 21
7.27956
  0
LINE
  8
0
 10
-17.276
 20
7.27956
 11
-17.3408
 21
6.82365
  0
LINE
  8
0
 10
-17.3408
 20
6.82365
 11
-17.4462
 21
6.41434
  0
LINE
  8
0
 10
-17.4462
 20
6.41434
 11
-17.5902
 21
6.05008
  0
LINE
  8
0
 10
-17.5902
 20
6.05008
 11
-17.7719
 21
5.72739
  0
LINE
  8
0
 10
-17.7719
 20
5.72739
 11
-17.9919
 21
5.44206
  0
LINE
  8
0
 10
-17.9919
 20
5.44206
 11
-18.2521
 21
5.19084
  0
LINE
  8
0
 10
-18.2521
 20
5.19084
 11
-18.5574
 21
4.9702
  0
LINE
  8
0
 10
-18.5574
 20
4.9702
 11
-18.912
 21
4.7793
  0
LINE
  8
0
 10
-18.912
 20
4.7793
 11
-19.3188
 21
4.61923
  0
LINE
  8
0
 10
-19.3188
 20
4.61923
 11
-19.7794
 21
4.49196
  0
LINE
  8
0
 10
-19.7794
 20
4.49196
 11
-20.2947
 21
4.3992
  0
LINE
  8
0
 10
-20.2947
 20
4.3992
 11
-20.8644
 21
4.34265
  0
LINE
  8
0
 10
-20.8644
 20
4.34265
 11
-21.4911
 21
4.32347
  0
LINE
  8
0
 10
-21.4911
 20
4.32347
 11
-21.7503
 21
4.32788
  0
LINE
  8
0
 10
0.771149
 20
3.84818
 11
1.36685
 21
3.92267
  0
LINE
  8
0
 10
1.36685
 20
3.92267
 11
1.90964
 21
4.04683
  0
LINE
  8
0
 10
1.90964
 20
4.04683
 11
2.39954
 21
4.22066
  0
LINE
  8
0
 10
2.39954
 20
4.22066
 11
2.83653
 21
4.44415
  0
LINE
  8
0
 10
2.83653
 20
4.44415
 11
3.22063
 21
4.71732
  0
LINE
  8
0
 10
3.22063
 20
4.71732
 11
3.55183
 21
5.04013
  0
LINE
  8
0
 10
3.55183
 20
5.04013
 11
3.83487
 21
5.41771
  0
LINE
  8
0
 10
3.83487
 20
5.41771
 11
4.07434
 21
5.85501
  0
LINE
  8
0
 10
4.07434
 20
5.85501
 11
4.27028
 21
6.35205
  0
LINE
  8
0
 10
4.27028
 20
6.35205
 11
4.42268
 21
6.90884
  0
LINE
  8
0
 10
4.42268
 20
6.90884
 11
4.53154
 21
7.52538
  0
LINE
  8
0
 10
4.53154
 20
7.52538
 11
4.59685
 21
8.20166
  0
LINE
  8
0
 10
4.59685
 20
8.20166
 11
4.61862
 21
8.93767
  0
LINE
  8
0
 10
4.61862
 20
8.93767
 11
4.61862
 21
17.2435
  0
LINE
  8
0
 10
4.61862
 20
17.2435
 11
2.01797
 21
17.2435
  0
LINE
  8
0
 10
2.01797
 20
17.2435
 11
2.01797
 21
8.2852
  0
LINE
  8
0
 10
2.01797
 20
8.2852
 11
2.00771
 21
8.01178
  0
LINE
  8
0
 10
2.00771
 20
8.01178
 11
1.97694
 21
7.75583
  0
LINE
  8
0
 10
1.97694
 20
7.75583
 11
1.92566
 21
7.51732
  0
LINE
  8
0
 10
1.92566
 20
7.51732
 11
1.85387
 21
7.29626
  0
LINE
  8
0
 10
1.85387
 20
7.29626
 11
1.76155
 21
7.09267
  0
LINE
  8
0
 10
1.76155
 20
7.09267
 11
1.64873
 21
6.90651
  0
LINE
  8
0
 10
1.64873
 20
6.90651
 11
1.5154
 21
6.73781
  0
LINE
  8
0
 10
1.5154
 20
6.73781
 11
1.36392
 21
6.58926
  0
LINE
  8
0
 10
1.36392
 20
6.58926
 11
1.19662
 21
6.46356
  0
LINE
  8
0
 10
1.19662
 20
6.46356
 11
1.01349
 21
6.36072
  0
LINE
  8
0
 10
1.01349
 20
6.36072
 11
0.814529
 21
6.28073
  0
LINE
  8
0
 10
0.814529
 20
6.28073
 11
0.599747
 21
6.2236
  0
LINE
  8
0
 10
0.599747
 20
6.2236
 11
0.369141
 21
6.18933
  0
LINE
  8
0
 10
0.369141
 20
6.18933
 11
0.122696
 21
6.1779
  0
LINE
  8
0
 10
0.122696
 20
6.1779
 11
-0.123764
 21
6.18933
  0
LINE
  8
0
 10
-0.123764
 20
6.18933
 11
-0.354416
 21
6.2236
  0
LINE
  8
0
 10
-0.354416
 20
6.2236
 11
-0.569229
 21
6.28073
  0
LINE
  8
0
 10
-0.569229
 20
6.28073
 11
-0.768219
 21
6.36072
  0
LINE
  8
0
 10
-0.768219
 20
6.36072
 11
-0.951385
 21
6.46356
  0
LINE
  8
0
 10
-0.951385
 20
6.46356
 11
-1.11873
 21
6.58926
  0
LINE
  8
0
 10
-1.11873
 20
6.58926
 11
-1.27023
 21
6.73781
  0
LINE
  8
0
 10
-1.27023
 20
6.73781
 11
-1.40353
 21
6.90651
  0
LINE
  8
0
 10
-1.40353
 20
6.90651
 11
-1.51633
 21
7.09267
  0
LINE
  8
0
 10
-1.51633
 20
7.09267
 11
-1.60863
 21
7.29626
  0
LINE
  8
0
 10
-1.60863
 20
7.29626
 11
-1.6804
 21
7.51732
  0
LINE
  8
0
 10
-1.6804
 20
7.51732
 11
-1.73167
 21
7.75583
  0
LINE
  8
0
 10
-1.73167
 20
7.75583
 11
-1.76244
 21
8.01178
  0
LINE
  8
0
 10
-1.76244
 20
8.01178
 11
-1.77269
 21
8.2852
  0
LINE
  8
0
 10
-1.77269
 20
8.2852
 11
-1.77269
 21
17.2435
  0
LINE
  8
0
 10
-1.77269
 20
17.2435
 11
-4.37334
 21
17.2435
  0
LINE
  8
0
 10
-4.37334
 20
17.2435
 11
-4.37334
 21
8.93767
  0
LINE
  8
0
 10
-4.37334
 20
8.93767
 11
-4.35147
 21
8.20166
  0
LINE
  8
0
 10
-4.35147
 20
8.20166
 11
-4.2859
 21
7.52538
  0
LINE
  8
0
 10
-4.2859
 20
7.52538
 11
-4.17661
 21
6.90884
  0
LINE
  8
0
 10
-4.17661
 20
6.90884
 11
-4.02361
 21
6.35205
  0
LINE
  8
0
 10
-4.02361
 20
6.35205
 11
-3.82687
 21
5.85501
  0
LINE
  8
0
 10
-3.82687
 20
5.85501
 11
-3.58643
 21
5.41771
  0
LINE
  8
0
 10
-3.58643
 20
5.41771
 11
-3.30226
 21
5.04013
  0
LINE
  8
0
 10
-3.30226
 20
5.04013
 11
-2.97006
 21
4.71732
  0
LINE
  8
0
 10
-2.97006
 20
4.71732
 11
-2.58551
 21
4.44415
  0
LINE
  8
0
 10
-2.58551
 20
4.44415
 11
-2.14861
 21
4.22066
  0
LINE
  8
0
 10
-2.14861
 20
4.22066
 11
-1.65935
 21
4.04683
  0
LINE
  8
0
 10
-1.65935
 20
4.04683
 11
-1.11772
 21
3.92267
  0
LINE
  8
0
 10
-1.11772
 20
3.92267
 11
-0.523743
 21
3.84818
  0
LINE
  8
0
 10
-0.523743
 20
3.84818
 11
0.122574
 21
3.82333
  0
LINE
  8
0
 10
0.122574
 20
3.82333
 11
0.771149
 21
3.84818
  0
LINE
  8
0
 10
-0.483032
 20
4.34698
 11
-1.03041
 21
4.41563
  0
LINE
  8
0
 10
-1.03041
 20
4.41563
 11
-1.51941
 21
4.52773
  0
LINE
  8
0
 10
-1.51941
 20
4.52773
 11
-1.95015
 21
4.68077
  0
LINE
  8
0
 10
-1.95015
 20
4.68077
 11
-2.32556
 21
4.8728
  0
LINE
  8
0
 10
-2.32556
 20
4.8728
 11
-2.64917
 21
5.10268
  0
LINE
  8
0
 10
-2.64917
 20
5.10268
 11
-2.92603
 21
5.37172
  0
LINE
  8
0
 10
-2.92603
 20
5.37172
 11
-3.16547
 21
5.68987
  0
LINE
  8
0
 10
-3.16547
 20
5.68987
 11
-3.37357
 21
6.06833
  0
LINE
  8
0
 10
-3.37357
 20
6.06833
 11
-3.54868
 21
6.51076
  0
LINE
  8
0
 10
-3.54868
 20
6.51076
 11
-3.68832
 21
7.01897
  0
LINE
  8
0
 10
-3.68832
 20
7.01897
 11
-3.79015
 21
7.59328
  0
LINE
  8
0
 10
-3.79015
 20
7.59328
 11
-3.85217
 21
8.23312
  0
LINE
  8
0
 10
-3.85217
 20
8.23312
 11
-3.87334
 21
8.94533
  0
LINE
  8
0
 10
-3.87334
 20
8.94533
 11
-3.87334
 21
16.7435
  0
LINE
  8
0
 10
-3.87334
 20
16.7435
 11
-2.27269
 21
16.7435
  0
LINE
  8
0
 10
-2.27269
 20
16.7435
 11
-2.27269
 21
8.2852
  0
LINE
  8
0
 10
-2.27269
 20
8.2852
 11
-2.27234
 21
8.26646
  0
LINE
  8
0
 10
-2.27234
 20
8.26646
 11
-2.26208
 21
7.99304
  0
LINE
  8
0
 10
-2.26208
 20
7.99304
 11
-2.25887
 21
7.95212
  0
LINE
  8
0
 10
-2.25887
 20
7.95212
 11
-2.2281
 21
7.69617
  0
LINE
  8
0
 10
-2.2281
 20
7.69617
 11
-2.2205
 21
7.65076
  0
LINE
  8
0
 10
-2.2205
 20
7.65076
 11
-2.16924
 21
7.41225
  0
LINE
  8
0
 10
-2.16924
 20
7.41225
 11
-2.15596
 21
7.3629
  0
LINE
  8
0
 10
-2.15596
 20
7.3629
 11
-2.08418
 21
7.14185
  0
LINE
  8
0
 10
-2.08418
 20
7.14185
 11
-2.06401
 21
7.08981
  0
LINE
  8
0
 10
-2.06401
 20
7.08981
 11
-1.97171
 21
6.88622
  0
LINE
  8
0
 10
-1.97171
 20
6.88622
 11
-1.94395
 21
6.83357
  0
LINE
  8
0
 10
-1.94395
 20
6.83357
 11
-1.83116
 21
6.64742
  0
LINE
  8
0
 10
-1.83116
 20
6.64742
 11
-1.79584
 21
6.59653
  0
LINE
  8
0
 10
-1.79584
 20
6.59653
 11
-1.66254
 21
6.42783
  0
LINE
  8
0
 10
-1.66254
 20
6.42783
 11
-1.62029
 21
6.38078
  0
LINE
  8
0
 10
-1.62029
 20
6.38078
 11
-1.46878
 21
6.23224
  0
LINE
  8
0
 10
-1.46878
 20
6.23224
 11
-1.41902
 21
6.18948
  0
LINE
  8
0
 10
-1.41902
 20
6.18948
 11
-1.25168
 21
6.06378
  0
LINE
  8
0
 10
-1.25168
 20
6.06378
 11
-1.19618
 21
6.02759
  0
LINE
  8
0
 10
-1.19618
 20
6.02759
 11
-1.01302
 21
5.92474
  0
LINE
  8
0
 10
-1.01302
 20
5.92474
 11
-0.954697
 21
5.89679
  0
LINE
  8
0
 10
-0.954697
 20
5.89679
 11
-0.755707
 21
5.8168
  0
LINE
  8
0
 10
-0.755707
 20
5.8168
 11
-0.697739
 21
5.79753
  0
LINE
  8
0
 10
-0.697739
 20
5.79753
 11
-0.482925
 21
5.7404
  0
LINE
  8
0
 10
-0.482925
 20
5.7404
 11
-0.427902
 21
5.72903
  0
LINE
  8
0
 10
-0.427902
 20
5.72903
 11
-0.19725
 21
5.69476
  0
LINE
  8
0
 10
-0.19725
 20
5.69476
 11
-0.146927
 21
5.68987
  0
LINE
  8
0
 10
-0.146927
 20
5.68987
 11
0.0995331
 21
5.67844
  0
LINE
  8
0
 10
0.0995331
 20
5.67844
 11
0.145859
 21
5.67844
  0
LINE
  8
0
 10
0.145859
 20
5.67844
 11
0.392303
 21
5.68987
  0
LINE
  8
0
 10
0.392303
 20
5.68987
 11
0.442642
 21
5.69476
  0
LINE
  8
0
 10
0.442642
 20
5.69476
 11
0.673248
 21
5.72903
  0
LINE
  8
0
 10
0.673248
 20
5.72903
 11
0.728271
 21
5.7404
  0
LINE
  8
0
 10
0.728271
 20
5.7404
 11
0.943054
 21
5.79753
  0
LINE
  8
0
 10
0.943054
 20
5.79753
 11
1.00104
 21
5.81682
  0
LINE
  8
0
 10
1.00104
 20
5.81682
 11
1.2
 21
5.8968
  0
LINE
  8
0
 10
1.2
 20
5.8968
 11
1.25832
 21
5.92476
  0
LINE
  8
0
 10
1.25832
 20
5.92476
 11
1.44145
 21
6.0276
  0
LINE
  8
0
 10
1.44145
 20
6.0276
 11
1.49698
 21
6.06383
  0
LINE
  8
0
 10
1.49698
 20
6.06383
 11
1.66428
 21
6.18953
  0
LINE
  8
0
 10
1.66428
 20
6.18953
 11
1.714
 21
6.23227
  0
LINE
  8
0
 10
1.714
 20
6.23227
 11
1.86548
 21
6.38081
  0
LINE
  8
0
 10
1.86548
 20
6.38081
 11
1.90767
 21
6.42778
  0
LINE
  8
0
 10
1.90767
 20
6.42778
 11
2.041
 21
6.59648
  0
LINE
  8
0
 10
2.041
 20
6.59648
 11
2.07632
 21
6.64735
  0
LINE
  8
0
 10
2.07632
 20
6.64735
 11
2.18915
 21
6.83351
  0
LINE
  8
0
 10
2.18915
 20
6.83351
 11
2.21693
 21
6.88618
  0
LINE
  8
0
 10
2.21693
 20
6.88618
 11
2.30925
 21
7.08978
  0
LINE
  8
0
 10
2.30925
 20
7.08978
 11
2.32942
 21
7.14182
  0
LINE
  8
0
 10
2.32942
 20
7.14182
 11
2.40121
 21
7.36287
  0
LINE
  8
0
 10
2.40121
 20
7.36287
 11
2.41449
 21
7.41222
  0
LINE
  8
0
 10
2.41449
 20
7.41222
 11
2.46577
 21
7.65073
  0
LINE
  8
0
 10
2.46577
 20
7.65073
 11
2.47337
 21
7.69617
  0
LINE
  8
0
 10
2.47337
 20
7.69617
 11
2.50414
 21
7.95212
  0
LINE
  8
0
 10
2.50414
 20
7.95212
 11
2.50735
 21
7.99301
  0
LINE
  8
0
 10
2.50735
 20
7.99301
 11
2.51762
 21
8.26643
  0
LINE
  8
0
 10
2.51762
 20
8.26643
 11
2.51797
 21
8.2852
  0
LINE
  8
0
 10
2.51797
 20
8.2852
 11
2.51797
 21
16.7435
  0
LINE
  8
0
 10
2.51797
 20
16.7435
 11
4.11862
 21
16.7435
  0
LINE
  8
0
 10
4.11862
 20
16.7435
 11
4.11862
 21
8.94524
  0
LINE
  8
0
 10
4.11862
 20
8.94524
 11
4.09755
 21
8.23299
  0
LINE
  8
0
 10
4.09755
 20
8.23299
 11
4.03575
 21
7.59303
  0
LINE
  8
0
 10
4.03575
 20
7.59303
 11
3.93431
 21
7.01848
  0
LINE
  8
0
 10
3.93431
 20
7.01848
 11
3.7952
 21
6.51025
  0
LINE
  8
0
 10
3.7952
 20
6.51025
 11
3.62071
 21
6.06764
  0
LINE
  8
0
 10
3.62071
 20
6.06764
 11
3.41339
 21
5.68904
  0
LINE
  8
0
 10
3.41339
 20
5.68904
 11
3.17506
 21
5.37111
  0
LINE
  8
0
 10
3.17506
 20
5.37111
 11
2.89931
 21
5.10234
  0
LINE
  8
0
 10
2.89931
 20
5.10234
 11
2.57651
 21
4.87277
  0
LINE
  8
0
 10
2.57651
 20
4.87277
 11
2.20126
 21
4.68086
  0
LINE
  8
0
 10
2.20126
 20
4.68086
 11
1.76976
 21
4.52776
  0
LINE
  8
0
 10
1.76976
 20
4.52776
 11
1.27989
 21
4.4157
  0
LINE
  8
0
 10
1.27989
 20
4.4157
 11
0.730438
 21
4.34698
  0
LINE
  8
0
 10
0.730438
 20
4.34698
 11
0.12265
 21
4.3237
  0
LINE
  8
0
 10
0.12265
 20
4.3237
 11
-0.483032
 21
4.34698
  0
LINE
  8
0
 10
-9.18817
 20
14.9721
 11
-5.84705
 21
14.9721
  0
LINE
  8
0
 10
-5.84705
 20
14.9721
 11
-5.84705
 21
17.2435
  0
LINE
  8
0
 10
-5.84705
 20
17.2435
 11
-15.13
 21
17.2435
  0
LINE
  8
0
 10
-15.13
 20
17.2435
 11
-15.13
 21
14.9721
  0
LINE
  8
0
 10
-15.13
 20
14.9721
 11
-11.7888
 21
14.9721
  0
LINE
  8
0
 10
-11.7888
 20
14.9721
 11
-11.7888
 21
4.08125
  0
LINE
  8
0
 10
-11.7888
 20
4.08125
 11
-9.18817
 21
4.08125
  0
LINE
  8
0
 10
-9.18817
 20
4.08125
 11
-9.18817
 21
14.9721
  0
LINE
  8
0
 10
-11.2888
 20
4.58125
 11
-11.2888
 21
14.9721
  0
LINE
  8
0
 10
-11.2888
 20
14.9721
 11
-11.2977
 21
15.0658
  0
LINE
  8
0
 10
-11.2977
 20
15.0658
 11
-11.3133
 21
15.1266
  0
LINE
  8
0
 10
-11.3133
 20
15.1266
 11
-11.3364
 21
15.185
  0
LINE
  8
0
 10
-11.3364
 20
15.185
 11
-11.3667
 21
15.24
  0
LINE
  8
0
 10
-11.3667
 20
15.24
 11
-11.4036
 21
15.2908
  0
LINE
  8
0
 10
-11.4036
 20
15.2908
 11
-11.4465
 21
15.3366
  0
LINE
  8
0
 10
-11.4465
 20
15.3366
 11
-11.4949
 21
15.3766
  0
LINE
  8
0
 10
-11.4949
 20
15.3766
 11
-11.5479
 21
15.4103
  0
LINE
  8
0
 10
-11.5479
 20
15.4103
 11
-11.6048
 21
15.437
  0
LINE
  8
0
 10
-11.6048
 20
15.437
 11
-11.6645
 21
15.4564
  0
LINE
  8
0
 10
-11.6645
 20
15.4564
 11
-11.7262
 21
15.4682
  0
LINE
  8
0
 10
-11.7262
 20
15.4682
 11
-11.7888
 21
15.4721
  0
LINE
  8
0
 10
-11.7888
 20
15.4721
 11
-14.63
 21
15.4721
  0
LINE
  8
0
 10
-14.63
 20
15.4721
 11
-14.63
 21
16.7435
  0
LINE
  8
0
 10
-14.63
 20
16.7435
 11
-6.34705
 21
16.7435
  0
LINE
  8
0
 10
-6.34705
 20
16.7435
 11
-6.34705
 21
15.4721
  0
LINE
  8
0
 10
-6.34705
 20
15.4721
 11
-9.18817
 21
15.4721
  0
LINE
  8
0
 10
-9.18817
 20
15.4721
 11
-9.28186
 21
15.4633
  0
LINE
  8
0
 10
-9.28186
 20
15.4633
 11
-9.34268
 21
15.4476
  0
LINE
  8
0
 10
-9.34268
 20
15.4476
 11
-9.40106
 21
15.4245
  0
LINE
  8
0
 10
-9.40106
 20
15.4245
 11
-9.45609
 21
15.3943
  0
LINE
  8
0
 10
-9.45609
 20
15.3943
 11
-9.50688
 21
15.3574
  0
LINE
  8
0
 10
-9.50688
 20
15.3574
 11
-9.55266
 21
15.3144
  0
LINE
  8
0
 10
-9.55266
 20
15.3144
 11
-9.59268
 21
15.266
  0
LINE
  8
0
 10
-9.59268
 20
15.266
 11
-9.62633
 21
15.213
  0
LINE
  8
0
 10
-9.62633
 20
15.213
 11
-9.65306
 21
15.1562
  0
LINE
  8
0
 10
-9.65306
 20
15.1562
 11
-9.67247
 21
15.0965
  0
LINE
  8
0
 10
-9.67247
 20
15.0965
 11
-9.68423
 21
15.0348
  0
LINE
  8
0
 10
-9.68423
 20
15.0348
 11
-9.68817
 21
14.9721
  0
LINE
  8
0
 10
-9.68817
 20
14.9721
 11
-9.68817
 21
4.58125
  0
LINE
  8
0
 10
-9.68817
 20
4.58125
 11
-11.2888
 21
4.58125
  0
LINE
  8
0
 10
8.99275
 20
7.33438
 11
12.4749
 21
7.33438
  0
LINE
  8
0
 10
12.4749
 20
7.33438
 11
13.2859
 21
4.08125
  0
LINE
  8
0
 10
13.2859
 20
4.08125
 11
15.8865
 21
4.08125
  0
LINE
  8
0
 10
15.8865
 20
4.08125
 11
12.3339
 21
17.2435
  0
LINE
  8
0
 10
12.3339
 20
17.2435
 11
9.15135
 21
17.2435
  0
LINE
  8
0
 10
9.15135
 20
17.2435
 11
5.59871
 21
4.08125
  0
LINE
  8
0
 10
5.59871
 20
4.08125
 11
8.19937
 21
4.08125
  0
LINE
  8
0
 10
8.19937
 20
4.08125
 11
8.99275
 21
7.33438
  0
LINE
  8
0
 10
6.25156
 20
4.58125
 11
9.53429
 21
16.7435
  0
LINE
  8
0
 10
9.53429
 20
16.7435
 11
11.951
 21
16.7435
  0
LINE
  8
0
 10
11.951
 20
16.7435
 11
15.2337
 21
4.58125
  0
LINE
  8
0
 10
15.2337
 20
4.58125
 11
13.6765
 21
4.58125
  0
LINE
  8
0
 10
13.6765
 20
4.58125
 11
12.9601
 21
7.45532
  0
LINE
  8
0
 10
12.9601
 20
7.45532
 11
12.9505
 21
7.48889
  0
LINE
  8
0
 10
12.9505
 20
7.48889
 11
12.9273
 21
7.54727
  0
LINE
  8
0
 10
12.9273
 20
7.54727
 11
12.8971
 21
7.60229
  0
LINE
  8
0
 10
12.8971
 20
7.60229
 11
12.8602
 21
7.65309
  0
LINE
  8
0
 10
12.8602
 20
7.65309
 11
12.8172
 21
7.69887
  0
LINE
  8
0
 10
12.8172
 20
7.69887
 11
12.7688
 21
7.73889
  0
LINE
  8
0
 10
12.7688
 20
7.73889
 11
12.7158
 21
7.77254
  0
LINE
  8
0
 10
12.7158
 20
7.77254
 11
12.659
 21
7.79927
  0
LINE
  8
0
 10
12.659
 20
7.79927
 11
12.5993
 21
7.81868
  0
LINE
  8
0
 10
12.5993
 20
7.81868
 11
12.5376
 21
7.83044
  0
LINE
  8
0
 10
12.5376
 20
7.83044
 11
12.4749
 21
7.83438
  0
LINE
  8
0
 10
12.4749
 20
7.83438
 11
8.99275
 21
7.83438
  0
LINE
  8
0
 10
8.99275
 20
7.83438
 11
8.95531
 21
7.83298
  0
LINE
  8
0
 10
8.95531
 20
7.83298
 11
8.89311
 21
7.82436
  0
LINE
  8
0
 10
8.89311
 20
7.82436
 11
8.83249
 21
7.808
  0
LINE
  8
0
 10
8.83249
 20
7.808
 11
8.7744
 21
7.78418
  0
LINE
  8
0
 10
8.7744
 20
7.78418
 11
8.71974
 21
7.75327
  0
LINE
  8
0
 10
8.71974
 20
7.75327
 11
8.6694
 21
7.71574
  0
LINE
  8
0
 10
8.6694
 20
7.71574
 11
8.62415
 21
7.67221
  0
LINE
  8
0
 10
8.62415
 20
7.67221
 11
8.58472
 21
7.62335
  0
LINE
  8
0
 10
8.58472
 20
7.62335
 11
8.55171
 21
7.56993
  0
LINE
  8
0
 10
8.55171
 20
7.56993
 11
8.52567
 21
7.5128
  0
LINE
  8
0
 10
8.52567
 20
7.5128
 11
8.50699
 21
7.45285
  0
LINE
  8
0
 10
8.50699
 20
7.45285
 11
7.80666
 21
4.58125
  0
LINE
  8
0
 10
7.80666
 20
4.58125
 11
6.25156
 21
4.58125
  0
LINE
  8
0
 10
12.0531
 20
8.97919
 11
12.1143
 21
8.99319
  0
LINE
  8
0
 10
12.1143
 20
8.99319
 11
12.1733
 21
9.01477
  0
LINE
  8
0
 10
12.1733
 20
9.01477
 11
12.2291
 21
9.04356
  0
LINE
  8
0
 10
12.2291
 20
9.04356
 11
12.2809
 21
9.07913
  0
LINE
  8
0
 10
12.2809
 20
9.07913
 11
12.3277
 21
9.1209
  0
LINE
  8
0
 10
12.3277
 20
9.1209
 11
12.369
 21
9.16821
  0
LINE
  8
0
 10
12.369
 20
9.16821
 11
12.404
 21
9.22034
  0
LINE
  8
0
 10
12.404
 20
9.22034
 11
12.4323
 21
9.27643
  0
LINE
  8
0
 10
12.4323
 20
9.27643
 11
12.4532
 21
9.33562
  0
LINE
  8
0
 10
12.4532
 20
9.33562
 11
12.4666
 21
9.39696
  0
LINE
  8
0
 10
12.4666
 20
9.39696
 11
12.4722
 21
9.4595
  0
LINE
  8
0
 10
12.4722
 20
9.4595
 11
12.4699
 21
9.52225
  0
LINE
  8
0
 10
12.4699
 20
9.52225
 11
12.4597
 21
9.58421
  0
LINE
  8
0
 10
12.4597
 20
9.58421
 11
11.2256
 21
14.9735
  0
LINE
  8
0
 10
11.2256
 20
14.9735
 11
11.1979
 21
15.0588
  0
LINE
  8
0
 10
11.1979
 20
15.0588
 11
11.1696
 21
15.1148
  0
LINE
  8
0
 10
11.1696
 20
15.1148
 11
11.1345
 21
15.1669
  0
LINE
  8
0
 10
11.1345
 20
15.1669
 11
11.0931
 21
15.2141
  0
LINE
  8
0
 10
11.0931
 20
15.2141
 11
11.0462
 21
15.2558
  0
LINE
  8
0
 10
11.0462
 20
15.2558
 11
10.9944
 21
15.2913
  0
LINE
  8
0
 10
10.9944
 20
15.2913
 11
10.9385
 21
15.32
  0
LINE
  8
0
 10
10.9385
 20
15.32
 11
10.8795
 21
15.3415
  0
LINE
  8
0
 10
10.8795
 20
15.3415
 11
10.8183
 21
15.3554
  0
LINE
  8
0
 10
10.8183
 20
15.3554
 11
10.7558
 21
15.3616
  0
LINE
  8
0
 10
10.7558
 20
15.3616
 11
10.693
 21
15.3598
  0
LINE
  8
0
 10
10.693
 20
15.3598
 11
10.631
 21
15.3502
  0
LINE
  8
0
 10
10.631
 20
15.3502
 11
10.5706
 21
15.3329
  0
LINE
  8
0
 10
10.5706
 20
15.3329
 11
10.5129
 21
15.3082
  0
LINE
  8
0
 10
10.5129
 20
15.3082
 11
10.4587
 21
15.2764
  0
LINE
  8
0
 10
10.4587
 20
15.2764
 11
10.409
 21
15.2381
  0
LINE
  8
0
 10
10.409
 20
15.2381
 11
10.3644
 21
15.1939
  0
LINE
  8
0
 10
10.3644
 20
15.1939
 11
10.3258
 21
15.1444
  0
LINE
  8
0
 10
10.3258
 20
15.1444
 11
10.2936
 21
15.0905
  0
LINE
  8
0
 10
10.2936
 20
15.0905
 11
10.2684
 21
15.033
  0
LINE
  8
0
 10
10.2684
 20
15.033
 11
10.2507
 21
14.9727
  0
LINE
  8
0
 10
10.2507
 20
14.9727
 11
9.02533
 21
9.58347
  0
LINE
  8
0
 10
9.02533
 20
9.58347
 11
9.01387
 21
9.50401
  0
LINE
  8
0
 10
9.01387
 20
9.50401
 11
9.01387
 21
9.44121
  0
LINE
  8
0
 10
9.01387
 20
9.44121
 11
9.02173
 21
9.37892
  0
LINE
  8
0
 10
9.02173
 20
9.37892
 11
9.03735
 21
9.3181
  0
LINE
  8
0
 10
9.03735
 20
9.3181
 11
9.06047
 21
9.25972
  0
LINE
  8
0
 10
9.06047
 20
9.25972
 11
9.09071
 21
9.2047
  0
LINE
  8
0
 10
9.09071
 20
9.2047
 11
9.12762
 21
9.1539
  0
LINE
  8
0
 10
9.12762
 20
9.1539
 11
9.17061
 21
9.10812
  0
LINE
  8
0
 10
9.17061
 20
9.10812
 11
9.21898
 21
9.0681
  0
LINE
  8
0
 10
9.21898
 20
9.0681
 11
9.272
 21
9.03445
  0
LINE
  8
0
 10
9.272
 20
9.03445
 11
9.32881
 21
9.00772
  0
LINE
  8
0
 10
9.32881
 20
9.00772
 11
9.38853
 21
8.98831
  0
LINE
  8
0
 10
9.38853
 20
8.98831
 11
9.45021
 21
8.97655
  0
LINE
  8
0
 10
9.45021
 20
8.97655
 11
9.51288
 21
8.97261
  0
LINE
  8
0
 10
9.51288
 20
8.97261
 11
11.9724
 21
8.97261
  0
LINE
  8
0
 10
11.9724
 20
8.97261
 11
12.0531
 21
8.97919
  0
LINE
  8
0
 10
9.51288
 20
9.47261
 11
10.7383
 21
14.8619
  0
LINE
  8
0
 10
10.7383
 20
14.8619
 11
11.9724
 21
9.47261
  0
LINE
  8
0
 10
11.9724
 20
9.47261
 11
9.51288
 21
9.47261
  0
LINE
  8
0
 10
24.1395
 20
10.5542
 11
18.5769
 21
10.5542
  0
LINE
  8
0
 10
18.5769
 20
10.5542
 11
18.5769
 21
7.99165
  0
LINE
  8
0
 10
18.5769
 20
7.99165
 11
24.1395
 21
7.99165
  0
LINE
  8
0
 10
24.1395
 20
7.99165
 11
24.1395
 21
10.5542
  0
LINE
  8
0
 10
19.0769
 20
8.49165
 11
19.0769
 21
10.0542
  0
LINE
  8
0
 10
19.0769
 20
10.0542
 11
23.6395
 21
10.0542
  0
LINE
  8
0
 10
23.6395
 20
10.0542
 11
23.6395
 21
8.49165
  0
LINE
  8
0
 10
23.6395
 20
8.49165
 11
19.0769
 21
8.49165
  0
LINE
  8
0
 10
6.73517
 20
-6.036
 11
10.0763
 21
-6.036
  0
LINE
  8
0
 10
10.0763
 20
-6.036
 11
10.0763
 21
-3.76465
  0
LINE
  8
0
 10
10.0763
 20
-3.76465
 11
0.793381
 21
-3.76465
  0
LINE
  8
0
 10
0.793381
 20
-3.76465
 11
0.793381
 21
-6.036
  0
LINE
  8
0
 10
0.793381
 20
-6.036
 11
4.13451
 21
-6.036
  0
LINE
  8
0
 10
4.13451
 20
-6.036
 11
4.13451
 21
-16.9269
  0
LINE
  8
0
 10
4.13451
 20
-16.9269
 11
6.73517
 21
-16.9269
  0
LINE
  8
0
 10
6.73517
 20
-16.9269
 11
6.73517
 21
-6.036
  0
LINE
  8
0
 10
4.63451
 20
-16.4269
 11
4.63451
 21
-6.036
  0
LINE
  8
0
 10
4.63451
 20
-6.036
 11
4.62566
 21
-5.94231
  0
LINE
  8
0
 10
4.62566
 20
-5.94231
 11
4.61003
 21
-5.88148
  0
LINE
  8
0
 10
4.61003
 20
-5.88148
 11
4.58691
 21
-5.8231
  0
LINE
  8
0
 10
4.58691
 20
-5.8231
 11
4.55667
 21
-5.76808
  0
LINE
  8
0
 10
4.55667
 20
-5.76808
 11
4.51976
 21
-5.71729
  0
LINE
  8
0
 10
4.51976
 20
-5.71729
 11
4.47678
 21
-5.67151
  0
LINE
  8
0
 10
4.47678
 20
-5.67151
 11
4.42841
 21
-5.63148
  0
LINE
  8
0
 10
4.42841
 20
-5.63148
 11
4.37538
 21
-5.59784
  0
LINE
  8
0
 10
4.37538
 20
-5.59784
 11
4.31857
 21
-5.57111
  0
LINE
  8
0
 10
4.31857
 20
-5.57111
 11
4.25885
 21
-5.5517
  0
LINE
  8
0
 10
4.25885
 20
-5.5517
 11
4.19717
 21
-5.53993
  0
LINE
  8
0
 10
4.19717
 20
-5.53993
 11
4.13451
 21
-5.536
  0
LINE
  8
0
 10
4.13451
 20
-5.536
 11
1.29338
 21
-5.536
  0
LINE
  8
0
 10
1.29338
 20
-5.536
 11
1.29338
 21
-4.26465
  0
LINE
  8
0
 10
1.29338
 20
-4.26465
 11
9.57629
 21
-4.26465
  0
LINE
  8
0
 10
9.57629
 20
-4.26465
 11
9.57629
 21
-5.536
  0
LINE
  8
0
 10
9.57629
 20
-5.536
 11
6.73517
 21
-5.536
  0
LINE
  8
0
 10
6.73517
 20
-5.536
 11
6.64148
 21
-5.54485
  0
LINE
  8
0
 10
6.64148
 20
-5.54485
 11
6.58066
 21
-5.56047
  0
LINE
  8
0
 10
6.58066
 20
-5.56047
 11
6.52228
 21
-5.58359
  0
LINE
  8
0
 10
6.52228
 20
-5.58359
 11
6.46725
 21
-5.61383
  0
LINE
  8
0
 10
6.46725
 20
-5.61383
 11
6.41646
 21
-5.65074
  0
LINE
  8
0
 10
6.41646
 20
-5.65074
 11
6.37068
 21
-5.69373
  0
LINE
  8
0
 10
6.37068
 20
-5.69373
 11
6.33066
 21
-5.7421
  0
LINE
  8
0
 10
6.33066
 20
-5.7421
 11
6.29701
 21
-5.79512
  0
LINE
  8
0
 10
6.29701
 20
-5.79512
 11
6.27028
 21
-5.85193
  0
LINE
  8
0
 10
6.27028
 20
-5.85193
 11
6.25087
 21
-5.91165
  0
LINE
  8
0
 10
6.25087
 20
-5.91165
 11
6.23911
 21
-5.97333
  0
LINE
  8
0
 10
6.23911
 20
-5.97333
 11
6.23517
 21
-6.036
  0
LINE
  8
0
 10
6.23517
 20
-6.036
 11
6.23517
 21
-16.4269
  0
LINE
  8
0
 10
6.23517
 20
-16.4269
 11
4.63451
 21
-16.4269
  0
LINE
  8
0
 10
-6.84244
 20
-11.7269
 11
-6.01382
 21
-11.7269
  0
LINE
  8
0
 10
-6.01382
 20
-11.7269
 11
-5.74934
 21
-11.7573
  0
LINE
  8
0
 10
-5.74934
 20
-11.7573
 11
-5.49495
 21
-11.8485
  0
LINE
  8
0
 10
-5.49495
 20
-11.8485
 11
-5.25064
 21
-12.0005
  0
LINE
  8
0
 10
-5.25064
 20
-12.0005
 11
-5.01639
 21
-12.2132
  0
LINE
  8
0
 10
-5.01639
 20
-12.2132
 11
-4.79224
 21
-12.4868
  0
LINE
  8
0
 10
-4.79224
 20
-12.4868
 11
-4.57814
 21
-12.8212
  0
LINE
  8
0
 10
-4.57814
 20
-12.8212
 11
-4.37413
 21
-13.2164
  0
LINE
  8
0
 10
-4.37413
 20
-13.2164
 11
-4.34227
 21
-13.2847
  0
LINE
  8
0
 10
-4.34227
 20
-13.2847
 11
-4.31221
 21
-13.3488
  0
LINE
  8
0
 10
-4.31221
 20
-13.3488
 11
-4.28397
 21
-13.4085
  0
LINE
  8
0
 10
-4.28397
 20
-13.4085
 11
-4.25752
 21
-13.4639
  0
LINE
  8
0
 10
-4.25752
 20
-13.4639
 11
-4.23288
 21
-13.515
  0
LINE
  8
0
 10
-4.23288
 20
-13.515
 11
-4.21004
 21
-13.5617
  0
LINE
  8
0
 10
-4.21004
 20
-13.5617
 11
-4.18901
 21
-13.6042
  0
LINE
  8
0
 10
-4.18901
 20
-13.6042
 11
-2.6021
 21
-16.9269
  0
LINE
  8
0
 10
-2.6021
 20
-16.9269
 11
0.25412
 21
-16.9269
  0
LINE
  8
0
 10
0.25412
 20
-16.9269
 11
-2.12617
 21
-12.194
  0
LINE
  8
0
 10
-2.12617
 20
-12.194
 11
-2.24193
 21
-11.9682
  0
LINE
  8
0
 10
-2.24193
 20
-11.9682
 11
-2.35248
 21
-11.7645
  0
LINE
  8
0
 10
-2.35248
 20
-11.7645
 11
-2.45782
 21
-11.583
  0
LINE
  8
0
 10
-2.45782
 20
-11.583
 11
-2.55794
 21
-11.4236
  0
LINE
  8
0
 10
-2.55794
 20
-11.4236
 11
-2.65285
 21
-11.2864
  0
LINE
  8
0
 10
-2.65285
 20
-11.2864
 11
-2.74252
 21
-11.1713
  0
LINE
  8
0
 10
-2.74252
 20
-11.1713
 11
-2.827
 21
-11.0783
  0
LINE
  8
0
 10
-2.827
 20
-11.0783
 11
-2.9109
 21
-11.0006
  0
LINE
  8
0
 10
-2.9109
 20
-11.0006
 11
-2.99893
 21
-10.9314
  0
LINE
  8
0
 10
-2.99893
 20
-10.9314
 11
-3.09113
 21
-10.8707
  0
LINE
  8
0
 10
-3.09113
 20
-10.8707
 11
-3.18745
 21
-10.8184
  0
LINE
  8
0
 10
-3.18745
 20
-10.8184
 11
-3.28793
 21
-10.7745
  0
LINE
  8
0
 10
-3.28793
 20
-10.7745
 11
-3.39255
 21
-10.7391
  0
LINE
  8
0
 10
-3.39255
 20
-10.7391
 11
-3.50131
 21
-10.7122
  0
LINE
  8
0
 10
-3.50131
 20
-10.7122
 11
-3.15807
 21
-10.6537
  0
LINE
  8
0
 10
-3.15807
 20
-10.6537
 11
-2.83855
 21
-10.569
  0
LINE
  8
0
 10
-2.83855
 20
-10.569
 11
-2.54279
 21
-10.458
  0
LINE
  8
0
 10
-2.54279
 20
-10.458
 11
-2.27078
 21
-10.3207
  0
LINE
  8
0
 10
-2.27078
 20
-10.3207
 11
-2.02251
 21
-10.1572
  0
LINE
  8
0
 10
-2.02251
 20
-10.1572
 11
-1.79797
 21
-9.96735
  0
LINE
  8
0
 10
-1.79797
 20
-9.96735
 11
-1.5972
 21
-9.75127
  0
LINE
  8
0
 10
-1.5972
 20
-9.75127
 11
-1.42178
 21
-9.5107
  0
LINE
  8
0
 10
-1.42178
 20
-9.5107
 11
-1.27336
 21
-9.24744
  0
LINE
  8
0
 10
-1.27336
 20
-9.24744
 11
-1.15192
 21
-8.9615
  0
LINE
  8
0
 10
-1.15192
 20
-8.9615
 11
-1.05746
 21
-8.65291
  0
LINE
  8
0
 10
-1.05746
 20
-8.65291
 11
-0.98999
 21
-8.32162
  0
LINE
  8
0
 10
-0.98999
 20
-8.32162
 11
-0.949509
 21
-7.96768
  0
LINE
  8
0
 10
-0.949509
 20
-7.96768
 11
-0.93602
 21
-7.59106
  0
LINE
  8
0
 10
-0.93602
 20
-7.59106
 11
-0.958603
 21
-7.03474
  0
LINE
  8
0
 10
-0.958603
 20
-7.03474
 11
-1.02634
 21
-6.52448
  0
LINE
  8
0
 10
-1.02634
 20
-6.52448
 11
-1.13924
 21
-6.06026
  0
LINE
  8
0
 10
-1.13924
 20
-6.06026
 11
-1.2973
 21
-5.64211
  0
LINE
  8
0
 10
-1.2973
 20
-5.64211
 11
-1.50052
 21
-5.27
  0
LINE
  8
0
 10
-1.50052
 20
-5.27
 11
-1.7489
 21
-4.94397
  0
LINE
  8
0
 10
-1.7489
 20
-4.94397
 11
-2.04245
 21
-4.66399
  0
LINE
  8
0
 10
-2.04245
 20
-4.66399
 11
-2.38777
 21
-4.42538
  0
LINE
  8
0
 10
-2.38777
 20
-4.42538
 11
-2.79156
 21
-4.2235
  0
LINE
  8
0
 10
-2.79156
 20
-4.2235
 11
-3.25383
 21
-4.0583
  0
LINE
  8
0
 10
-3.25383
 20
-4.0583
 11
-3.77458
 21
-3.92982
  0
LINE
  8
0
 10
-3.77458
 20
-3.92982
 11
-4.35379
 21
-3.83806
  0
LINE
  8
0
 10
-4.35379
 20
-3.83806
 11
-4.99149
 21
-3.78299
  0
LINE
  8
0
 10
-4.99149
 20
-3.78299
 11
-5.68765
 21
-3.76465
  0
LINE
  8
0
 10
-5.68765
 20
-3.76465
 11
-9.44308
 21
-3.76465
  0
LINE
  8
0
 10
-9.44308
 20
-3.76465
 11
-9.44308
 21
-16.9269
  0
LINE
  8
0
 10
-9.44308
 20
-16.9269
 11
-6.84244
 21
-16.9269
  0
LINE
  8
0
 10
-6.84244
 20
-16.9269
 11
-6.84244
 21
-11.7269
  0
LINE
  8
0
 10
-8.94308
 20
-16.4269
 11
-8.94308
 21
-4.26465
  0
LINE
  8
0
 10
-8.94308
 20
-4.26465
 11
-5.69444
 21
-4.26465
  0
LINE
  8
0
 10
-5.69444
 20
-4.26465
 11
-5.01938
 21
-4.28244
  0
LINE
  8
0
 10
-5.01938
 20
-4.28244
 11
-4.41455
 21
-4.33467
  0
LINE
  8
0
 10
-4.41455
 20
-4.33467
 11
-3.87379
 21
-4.42033
  0
LINE
  8
0
 10
-3.87379
 20
-4.42033
 11
-3.39824
 21
-4.53767
  0
LINE
  8
0
 10
-3.39824
 20
-4.53767
 11
-2.98822
 21
-4.68419
  0
LINE
  8
0
 10
-2.98822
 20
-4.68419
 11
-2.64294
 21
-4.85681
  0
LINE
  8
0
 10
-2.64294
 20
-4.85681
 11
-2.35905
 21
-5.05298
  0
LINE
  8
0
 10
-2.35905
 20
-5.05298
 11
-2.12268
 21
-5.27843
  0
LINE
  8
0
 10
-2.12268
 20
-5.27843
 11
-1.92119
 21
-5.54292
  0
LINE
  8
0
 10
-1.92119
 20
-5.54292
 11
-1.75272
 21
-5.85139
  0
LINE
  8
0
 10
-1.75272
 20
-5.85139
 11
-1.61783
 21
-6.20822
  0
LINE
  8
0
 10
-1.61783
 20
-6.20822
 11
-1.51848
 21
-6.61674
  0
LINE
  8
0
 10
-1.51848
 20
-6.61674
 11
-1.45726
 21
-7.07787
  0
LINE
  8
0
 10
-1.45726
 20
-7.07787
 11
-1.43639
 21
-7.59225
  0
LINE
  8
0
 10
-1.43639
 20
-7.59225
 11
-1.44849
 21
-7.93021
  0
LINE
  8
0
 10
-1.44849
 20
-7.93021
 11
-1.48428
 21
-8.24318
  0
LINE
  8
0
 10
-1.48428
 20
-8.24318
 11
-1.54263
 21
-8.52965
  0
LINE
  8
0
 10
-1.54263
 20
-8.52965
 11
-1.62236
 21
-8.79015
  0
LINE
  8
0
 10
-1.62236
 20
-8.79015
 11
-1.72263
 21
-9.0262
  0
LINE
  8
0
 10
-1.72263
 20
-9.0262
 11
-1.84299
 21
-9.23969
  0
LINE
  8
0
 10
-1.84299
 20
-9.23969
 11
-1.9837
 21
-9.43268
  0
LINE
  8
0
 10
-1.9837
 20
-9.43268
 11
-2.1438
 21
-9.60497
  0
LINE
  8
0
 10
-2.1438
 20
-9.60497
 11
-2.32243
 21
-9.756
  0
LINE
  8
0
 10
-2.32243
 20
-9.756
 11
-2.52184
 21
-9.88734
  0
LINE
  8
0
 10
-2.52184
 20
-9.88734
 11
-2.74391
 21
-9.99942
  0
LINE
  8
0
 10
-2.74391
 20
-9.99942
 11
-2.99077
 21
-10.0921
  0
LINE
  8
0
 10
-2.99077
 20
-10.0921
 11
-3.26448
 21
-10.1647
  0
LINE
  8
0
 10
-3.26448
 20
-10.1647
 11
-3.5853
 21
-10.2193
  0
LINE
  8
0
 10
-3.5853
 20
-10.2193
 11
-3.62988
 21
-10.229
  0
LINE
  8
0
 10
-3.62988
 20
-10.229
 11
-3.68942
 21
-10.249
  0
LINE
  8
0
 10
-3.68942
 20
-10.249
 11
-3.746
 21
-10.2762
  0
LINE
  8
0
 10
-3.746
 20
-10.2762
 11
-3.79872
 21
-10.3103
  0
LINE
  8
0
 10
-3.79872
 20
-10.3103
 11
-3.84676
 21
-10.3507
  0
LINE
  8
0
 10
-3.84676
 20
-10.3507
 11
-3.88933
 21
-10.3969
  0
LINE
  8
0
 10
-3.88933
 20
-10.3969
 11
-3.9258
 21
-10.448
  0
LINE
  8
0
 10
-3.9258
 20
-10.448
 11
-3.95557
 21
-10.5033
  0
LINE
  8
0
 10
-3.95557
 20
-10.5033
 11
-3.97816
 21
-10.5619
  0
LINE
  8
0
 10
-3.97816
 20
-10.5619
 11
-3.99326
 21
-10.6228
  0
LINE
  8
0
 10
-3.99326
 20
-10.6228
 11
-4.00058
 21
-10.6852
  0
LINE
  8
0
 10
-4.00058
 20
-10.6852
 11
-4.00003
 21
-10.748
  0
LINE
  8
0
 10
-4.00003
 20
-10.748
 11
-3.99162
 21
-10.8102
  0
LINE
  8
0
 10
-3.99162
 20
-10.8102
 11
-3.97548
 21
-10.8709
  0
LINE
  8
0
 10
-3.97548
 20
-10.8709
 11
-3.95184
 21
-10.929
  0
LINE
  8
0
 10
-3.95184
 20
-10.929
 11
-3.92113
 21
-10.9838
  0
LINE
  8
0
 10
-3.92113
 20
-10.9838
 11
-3.88377
 21
-11.0343
  0
LINE
  8
0
 10
-3.88377
 20
-11.0343
 11
-3.84039
 21
-11.0797
  0
LINE
  8
0
 10
-3.84039
 20
-11.0797
 11
-3.79166
 21
-11.1193
  0
LINE
  8
0
 10
-3.79166
 20
-11.1193
 11
-3.73836
 21
-11.1525
  0
LINE
  8
0
 10
-3.73836
 20
-11.1525
 11
-3.6813
 21
-11.1787
  0
LINE
  8
0
 10
-3.6813
 20
-11.1787
 11
-3.62143
 21
-11.1976
  0
LINE
  8
0
 10
-3.62143
 20
-11.1976
 11
-3.53293
 21
-11.2195
  0
LINE
  8
0
 10
-3.53293
 20
-11.2195
 11
-3.46844
 21
-11.2413
  0
LINE
  8
0
 10
-3.46844
 20
-11.2413
 11
-3.407
 21
-11.2681
  0
LINE
  8
0
 10
-3.407
 20
-11.2681
 11
-3.34845
 21
-11.2999
  0
LINE
  8
0
 10
-3.34845
 20
-11.2999
 11
-3.2916
 21
-11.3373
  0
LINE
  8
0
 10
-3.2916
 20
-11.3373
 11
-3.23582
 21
-11.3812
  0
LINE
  8
0
 10
-3.23582
 20
-11.3812
 11
-3.18239
 21
-11.4307
  0
LINE
  8
0
 10
-3.18239
 20
-11.4307
 11
-3.12544
 21
-11.4933
  0
LINE
  8
0
 10
-3.12544
 20
-11.4933
 11
-3.05594
 21
-11.5826
  0
LINE
  8
0
 10
-3.05594
 20
-11.5826
 11
-2.97554
 21
-11.6988
  0
LINE
  8
0
 10
-2.97554
 20
-11.6988
 11
-2.88585
 21
-11.8416
  0
LINE
  8
0
 10
-2.88585
 20
-11.8416
 11
-2.78848
 21
-12.0094
  0
LINE
  8
0
 10
-2.78848
 20
-12.0094
 11
-2.68407
 21
-12.2017
  0
LINE
  8
0
 10
-2.68407
 20
-12.2017
 11
-2.57217
 21
-12.42
  0
LINE
  8
0
 10
-2.57217
 20
-12.42
 11
-0.557007
 21
-16.4269
  0
LINE
  8
0
 10
-0.557007
 20
-16.4269
 11
-2.28679
 21
-16.4269
  0
LINE
  8
0
 10
-2.28679
 20
-16.4269
 11
-3.73782
 21
-13.3887
  0
LINE
  8
0
 10
-3.73782
 20
-13.3887
 11
-3.74094
 21
-13.3823
  0
LINE
  8
0
 10
-3.74094
 20
-13.3823
 11
-3.76076
 21
-13.3423
  0
LINE
  8
0
 10
-3.76076
 20
-13.3423
 11
-3.78253
 21
-13.2977
  0
LINE
  8
0
 10
-3.78253
 20
-13.2977
 11
-3.80717
 21
-13.2466
  0
LINE
  8
0
 10
-3.80717
 20
-13.2466
 11
-3.83275
 21
-13.1931
  0
LINE
  8
0
 10
-3.83275
 20
-13.1931
 11
-3.85962
 21
-13.1363
  0
LINE
  8
0
 10
-3.85962
 20
-13.1363
 11
-3.88966
 21
-13.0723
  0
LINE
  8
0
 10
-3.88966
 20
-13.0723
 11
-3.92096
 21
-13.0051
  0
LINE
  8
0
 10
-3.92096
 20
-13.0051
 11
-3.92984
 21
-12.987
  0
LINE
  8
0
 10
-3.92984
 20
-12.987
 11
-4.13385
 21
-12.5919
  0
LINE
  8
0
 10
-4.13385
 20
-12.5919
 11
-4.15706
 21
-12.5516
  0
LINE
  8
0
 10
-4.15706
 20
-12.5516
 11
-4.37115
 21
-12.2172
  0
LINE
  8
0
 10
-4.37115
 20
-12.2172
 11
-4.40547
 21
-12.17
  0
LINE
  8
0
 10
-4.40547
 20
-12.17
 11
-4.62962
 21
-11.8964
  0
LINE
  8
0
 10
-4.62962
 20
-11.8964
 11
-4.68021
 21
-11.8431
  0
LINE
  8
0
 10
-4.68021
 20
-11.8431
 11
-4.91446
 21
-11.6304
  0
LINE
  8
0
 10
-4.91446
 20
-11.6304
 11
-4.98651
 21
-11.5759
  0
LINE
  8
0
 10
-4.98651
 20
-11.5759
 11
-5.23082
 21
-11.4239
  0
LINE
  8
0
 10
-5.23082
 20
-11.4239
 11
-5.26855
 21
-11.4027
  0
LINE
  8
0
 10
-5.26855
 20
-11.4027
 11
-5.32622
 21
-11.3778
  0
LINE
  8
0
 10
-5.32622
 20
-11.3778
 11
-5.58061
 21
-11.2866
  0
LINE
  8
0
 10
-5.58061
 20
-11.2866
 11
-5.63045
 21
-11.2716
  0
LINE
  8
0
 10
-5.63045
 20
-11.2716
 11
-5.69226
 21
-11.2605
  0
LINE
  8
0
 10
-5.69226
 20
-11.2605
 11
-5.95674
 21
-11.2301
  0
LINE
  8
0
 10
-5.95674
 20
-11.2301
 11
-6.01382
 21
-11.2269
  0
LINE
  8
0
 10
-6.01382
 20
-11.2269
 11
-6.84244
 21
-11.2269
  0
LINE
  8
0
 10
-6.84244
 20
-11.2269
 11
-6.93613
 21
-11.2357
  0
LINE
  8
0
 10
-6.93613
 20
-11.2357
 11
-6.99695
 21
-11.2513
  0
LINE
  8
0
 10
-6.99695
 20
-11.2513
 11
-7.05533
 21
-11.2745
  0
LINE
  8
0
 10
-7.05533
 20
-11.2745
 11
-7.11035
 21
-11.3047
  0
LINE
  8
0
 10
-7.11035
 20
-11.3047
 11
-7.16115
 21
-11.3416
  0
LINE
  8
0
 10
-7.16115
 20
-11.3416
 11
-7.20692
 21
-11.3846
  0
LINE
  8
0
 10
-7.20692
 20
-11.3846
 11
-7.24695
 21
-11.433
  0
LINE
  8
0
 10
-7.24695
 20
-11.433
 11
-7.28059
 21
-11.486
  0
LINE
  8
0
 10
-7.28059
 20
-11.486
 11
-7.30733
 21
-11.5428
  0
LINE
  8
0
 10
-7.30733
 20
-11.5428
 11
-7.32674
 21
-11.6025
  0
LINE
  8
0
 10
-7.32674
 20
-11.6025
 11
-7.3385
 21
-11.6642
  0
LINE
  8
0
 10
-7.3385
 20
-11.6642
 11
-7.34244
 21
-11.7269
  0
LINE
  8
0
 10
-7.34244
 20
-11.7269
 11
-7.34244
 21
-16.4269
  0
LINE
  8
0
 10
-7.34244
 20
-16.4269
 11
-8.94308
 21
-16.4269
  0
LINE
  8
0
 10
-5.60246
 20
-10.0385
 11
-5.31003
 21
-10.03
  0
LINE
  8
0
 10
-5.31003
 20
-10.03
 11
-5.27701
 21
-10.0279
  0
LINE
  8
0
 10
-5.27701
 20
-10.0279
 11
-5.00922
 21
-10.0023
  0
LINE
  8
0
 10
-5.00922
 20
-10.0023
 11
-4.97037
 21
-9.99702
  0
LINE
  8
0
 10
-4.97037
 20
-9.99702
 11
-4.72723
 21
-9.95433
  0
LINE
  8
0
 10
-4.72723
 20
-9.95433
 11
-4.68175
 21
-9.94414
  0
LINE
  8
0
 10
-4.68175
 20
-9.94414
 11
-4.46324
 21
-9.88435
  0
LINE
  8
0
 10
-4.46324
 20
-9.88435
 11
-4.41087
 21
-9.86687
  0
LINE
  8
0
 10
-4.41087
 20
-9.86687
 11
-4.21704
 21
-9.78999
  0
LINE
  8
0
 10
-4.21704
 20
-9.78999
 11
-4.15868
 21
-9.76236
  0
LINE
  8
0
 10
-4.15868
 20
-9.76236
 11
-3.98947
 21
-9.66843
  0
LINE
  8
0
 10
-3.98947
 20
-9.66843
 11
-3.9276
 21
-9.62781
  0
LINE
  8
0
 10
-3.9276
 20
-9.62781
 11
-3.78305
 21
-9.51678
  0
LINE
  8
0
 10
-3.78305
 20
-9.51678
 11
-3.72325
 21
-9.46266
  0
LINE
  8
0
 10
-3.72325
 20
-9.46266
 11
-3.60046
 21
-9.332
  0
LINE
  8
0
 10
-3.60046
 20
-9.332
 11
-3.55139
 21
-9.2708
  0
LINE
  8
0
 10
-3.55139
 20
-9.2708
 11
-3.44749
 21
-9.11804
  0
LINE
  8
0
 10
-3.44749
 20
-9.11804
 11
-3.41124
 21
-9.05542
  0
LINE
  8
0
 10
-3.41124
 20
-9.05542
 11
-3.32623
 21
-8.88054
  0
LINE
  8
0
 10
-3.32623
 20
-8.88054
 11
-3.30191
 21
-8.82104
  0
LINE
  8
0
 10
-3.30191
 20
-8.82104
 11
-3.23579
 21
-8.62405
  0
LINE
  8
0
 10
-3.23579
 20
-8.62405
 11
-3.22104
 21
-8.57031
  0
LINE
  8
0
 10
-3.22104
 20
-8.57031
 11
-3.17381
 21
-8.35121
  0
LINE
  8
0
 10
-3.17381
 20
-8.35121
 11
-3.166
 21
-8.3042
  0
LINE
  8
0
 10
-3.166
 20
-8.3042
 11
-3.13766
 21
-8.063
  0
LINE
  8
0
 10
-3.13766
 20
-8.063
 11
-3.13457
 21
-8.0226
  0
LINE
  8
0
 10
-3.13457
 20
-8.0226
 11
-3.12512
 21
-7.75928
  0
LINE
  8
0
 10
-3.12512
 20
-7.75928
 11
-3.12512
 21
-7.72356
  0
LINE
  8
0
 10
-3.12512
 20
-7.72356
 11
-3.13449
 21
-7.46033
  0
LINE
  8
0
 10
-3.13449
 20
-7.46033
 11
-3.13753
 21
-7.42027
  0
LINE
  8
0
 10
-3.13753
 20
-7.42027
 11
-3.16559
 21
-7.17934
  0
LINE
  8
0
 10
-3.16559
 20
-7.17934
 11
-3.17329
 21
-7.13258
  0
LINE
  8
0
 10
-3.17329
 20
-7.13258
 11
-3.22006
 21
-6.91396
  0
LINE
  8
0
 10
-3.22006
 20
-6.91396
 11
-3.2347
 21
-6.86034
  0
LINE
  8
0
 10
-3.2347
 20
-6.86034
 11
-3.30019
 21
-6.664
  0
LINE
  8
0
 10
-3.30019
 20
-6.664
 11
-3.32439
 21
-6.60451
  0
LINE
  8
0
 10
-3.32439
 20
-6.60451
 11
-3.40857
 21
-6.43047
  0
LINE
  8
0
 10
-3.40857
 20
-6.43047
 11
-3.44485
 21
-6.36755
  0
LINE
  8
0
 10
-3.44485
 20
-6.36755
 11
-3.54776
 21
-6.21581
  0
LINE
  8
0
 10
-3.54776
 20
-6.21581
 11
-3.59718
 21
-6.15407
  0
LINE
  8
0
 10
-3.59718
 20
-6.15407
 11
-3.7188
 21
-6.02463
  0
LINE
  8
0
 10
-3.7188
 20
-6.02463
 11
-3.77927
 21
-5.96997
  0
LINE
  8
0
 10
-3.77927
 20
-5.96997
 11
-3.92282
 21
-5.86008
  0
LINE
  8
0
 10
-3.92282
 20
-5.86008
 11
-3.98546
 21
-5.81917
  0
LINE
  8
0
 10
-3.98546
 20
-5.81917
 11
-4.15421
 21
-5.7262
  0
LINE
  8
0
 10
-4.15421
 20
-5.7262
 11
-4.21289
 21
-5.69865
  0
LINE
  8
0
 10
-4.21289
 20
-5.69865
 11
-4.40683
 21
-5.62257
  0
LINE
  8
0
 10
-4.40683
 20
-5.62257
 11
-4.45908
 21
-5.60533
  0
LINE
  8
0
 10
-4.45908
 20
-5.60533
 11
-4.67821
 21
-5.54616
  0
LINE
  8
0
 10
-4.67821
 20
-5.54616
 11
-4.72336
 21
-5.53618
  0
LINE
  8
0
 10
-4.72336
 20
-5.53618
 11
-4.96767
 21
-5.49393
  0
LINE
  8
0
 10
-4.96767
 20
-5.49393
 11
-5.00603
 21
-5.48882
  0
LINE
  8
0
 10
-5.00603
 20
-5.48882
 11
-5.27553
 21
-5.46346
  0
LINE
  8
0
 10
-5.27553
 20
-5.46346
 11
-5.30803
 21
-5.46146
  0
LINE
  8
0
 10
-5.30803
 20
-5.46146
 11
-5.60272
 21
-5.453
  0
LINE
  8
0
 10
-5.60272
 20
-5.453
 11
-5.61707
 21
-5.4528
  0
LINE
  8
0
 10
-5.61707
 20
-5.4528
 11
-6.84244
 21
-5.4528
  0
LINE
  8
0
 10
-6.84244
 20
-5.4528
 11
-6.93613
 21
-5.46165
  0
LINE
  8
0
 10
-6.93613
 20
-5.46165
 11
-6.99695
 21
-5.47728
  0
LINE
  8
0
 10
-6.99695
 20
-5.47728
 11
-7.05533
 21
-5.5004
  0
LINE
  8
0
 10
-7.05533
 20
-5.5004
 11
-7.11035
 21
-5.53064
  0
LINE
  8
0
 10
-7.11035
 20
-5.53064
 11
-7.16115
 21
-5.56755
  0
LINE
  8
0
 10
-7.16115
 20
-5.56755
 11
-7.20692
 21
-5.61053
  0
LINE
  8
0
 10
-7.20692
 20
-5.61053
 11
-7.24695
 21
-5.65891
  0
LINE
  8
0
 10
-7.24695
 20
-5.65891
 11
-7.28059
 21
-5.71193
  0
LINE
  8
0
 10
-7.28059
 20
-5.71193
 11
-7.30733
 21
-5.76874
  0
LINE
  8
0
 10
-7.30733
 20
-5.76874
 11
-7.32674
 21
-5.82846
  0
LINE
  8
0
 10
-7.32674
 20
-5.82846
 11
-7.3385
 21
-5.89014
  0
LINE
  8
0
 10
-7.3385
 20
-5.89014
 11
-7.34244
 21
-5.9528
  0
LINE
  8
0
 10
-7.34244
 20
-5.9528
 11
-7.34244
 21
-9.53873
  0
LINE
  8
0
 10
-7.34244
 20
-9.53873
 11
-7.33359
 21
-9.63242
  0
LINE
  8
0
 10
-7.33359
 20
-9.63242
 11
-7.31796
 21
-9.69324
  0
LINE
  8
0
 10
-7.31796
 20
-9.69324
 11
-7.29485
 21
-9.75162
  0
LINE
  8
0
 10
-7.29485
 20
-9.75162
 11
-7.2646
 21
-9.80664
  0
LINE
  8
0
 10
-7.2646
 20
-9.80664
 11
-7.22769
 21
-9.85744
  0
LINE
  8
0
 10
-7.22769
 20
-9.85744
 11
-7.18471
 21
-9.90321
  0
LINE
  8
0
 10
-7.18471
 20
-9.90321
 11
-7.13634
 21
-9.94324
  0
LINE
  8
0
 10
-7.13634
 20
-9.94324
 11
-7.08331
 21
-9.97688
  0
LINE
  8
0
 10
-7.08331
 20
-9.97688
 11
-7.0265
 21
-10.0036
  0
LINE
  8
0
 10
-7.0265
 20
-10.0036
 11
-6.96678
 21
-10.023
  0
LINE
  8
0
 10
-6.96678
 20
-10.023
 11
-6.90511
 21
-10.0348
  0
LINE
  8
0
 10
-6.90511
 20
-10.0348
 11
-6.84244
 21
-10.0387
  0
LINE
  8
0
 10
-6.84244
 20
-10.0387
 11
-5.61707
 21
-10.0387
  0
LINE
  8
0
 10
-5.61707
 20
-10.0387
 11
-5.60246
 21
-10.0385
  0
LINE
  8
0
 10
-6.84244
 20
-9.53873
 11
-6.84244
 21
-5.9528
  0
LINE
  8
0
 10
-6.84244
 20
-5.9528
 11
-5.61707
 21
-5.9528
  0
LINE
  8
0
 10
-5.61707
 20
-5.9528
 11
-5.32237
 21
-5.96126
  0
LINE
  8
0
 10
-5.32237
 20
-5.96126
 11
-5.05287
 21
-5.98662
  0
LINE
  8
0
 10
-5.05287
 20
-5.98662
 11
-4.80856
 21
-6.02887
  0
LINE
  8
0
 10
-4.80856
 20
-6.02887
 11
-4.58943
 21
-6.08804
  0
LINE
  8
0
 10
-4.58943
 20
-6.08804
 11
-4.39549
 21
-6.16412
  0
LINE
  8
0
 10
-4.39549
 20
-6.16412
 11
-4.22675
 21
-6.2571
  0
LINE
  8
0
 10
-4.22675
 20
-6.2571
 11
-4.08319
 21
-6.36699
  0
LINE
  8
0
 10
-4.08319
 20
-6.36699
 11
-3.96158
 21
-6.49643
  0
LINE
  8
0
 10
-3.96158
 20
-6.49643
 11
-3.85867
 21
-6.64818
  0
LINE
  8
0
 10
-3.85867
 20
-6.64818
 11
-3.77449
 21
-6.82222
  0
LINE
  8
0
 10
-3.77449
 20
-6.82222
 11
-3.709
 21
-7.01855
  0
LINE
  8
0
 10
-3.709
 20
-7.01855
 11
-3.66223
 21
-7.23718
  0
LINE
  8
0
 10
-3.66223
 20
-7.23718
 11
-3.63417
 21
-7.47812
  0
LINE
  8
0
 10
-3.63417
 20
-7.47812
 11
-3.6248
 21
-7.74135
  0
LINE
  8
0
 10
-3.6248
 20
-7.74135
 11
-3.63425
 21
-8.00467
  0
LINE
  8
0
 10
-3.63425
 20
-8.00467
 11
-3.66258
 21
-8.24586
  0
LINE
  8
0
 10
-3.66258
 20
-8.24586
 11
-3.70981
 21
-8.46497
  0
LINE
  8
0
 10
-3.70981
 20
-8.46497
 11
-3.77592
 21
-8.66196
  0
LINE
  8
0
 10
-3.77592
 20
-8.66196
 11
-3.86093
 21
-8.83684
  0
LINE
  8
0
 10
-3.86093
 20
-8.83684
 11
-3.96483
 21
-8.98959
  0
LINE
  8
0
 10
-3.96483
 20
-8.98959
 11
-4.08762
 21
-9.12025
  0
LINE
  8
0
 10
-4.08762
 20
-9.12025
 11
-4.23216
 21
-9.23128
  0
LINE
  8
0
 10
-4.23216
 20
-9.23128
 11
-4.40137
 21
-9.32521
  0
LINE
  8
0
 10
-4.40137
 20
-9.32521
 11
-4.5952
 21
-9.40208
  0
LINE
  8
0
 10
-4.5952
 20
-9.40208
 11
-4.81371
 21
-9.46187
  0
LINE
  8
0
 10
-4.81371
 20
-9.46187
 11
-5.05684
 21
-9.50456
  0
LINE
  8
0
 10
-5.05684
 20
-9.50456
 11
-5.32463
 21
-9.53018
  0
LINE
  8
0
 10
-5.32463
 20
-9.53018
 11
-5.61707
 21
-9.53873
  0
LINE
  8
0
 10
-5.61707
 20
-9.53873
 11
-6.84244
 21
-9.53873
  0
ENDSEC
  0
SECTION
  2
OBJECTS
  0
DICTIONARY
  0
ENDSEC
  0
EOF
