<?xml version="1.0" standalone="no"?>
<!DOCTYPE svg PUBLIC "-//W3C//DTD SVG 1.1//EN" "http://www.w3.org/Graphics/SVG/1.1/DTD/svg11.dtd">
<svg width="43mm" height="14mm" viewBox="-21 -7 43 14" xmlns="http://www.w3.org/2000/svg" version="1.1">
<title>OpenSCAD Model</title>
<path d="
M 7.01828,6.67343 L 7.22804,6.66376 L 7.43494,6.64763 L 7.63893,6.62505 L 7.84006,6.59601 L 8.03831,6.56052
 L 8.23367,6.51859 L 8.42638,6.47018 L 8.61655,6.41534 L 8.80421,6.35405 L 8.98935,6.2863 L 9.17197,6.2121
 L 9.35207,6.13145 L 9.52965,6.04434 L 9.52965,3.14899 L 9.33902,3.31848 L 9.15001,3.4745 L 8.96262,3.61703
 L 8.77686,3.74609 L 8.5927,3.86166 L 8.41017,3.96375 L 8.22925,4.05235 L 8.04837,4.12833 L 7.86588,4.19263
 L 7.68175,4.24522 L 7.49599,4.28613 L 7.30861,4.31537 L 7.11961,4.3329 L 6.92899,4.33875 L 6.53528,4.31561
 L 6.17017,4.24625 L 5.83365,4.13063 L 5.52574,3.96875 L 5.24641,3.76064 L 4.99571,3.50627 L 4.77359,3.20566
 L 4.58066,2.85966 L 4.4174,2.46922 L 4.28383,2.03435 L 4.17995,1.55501 L 4.10574,1.03123 L 4.06122,0.463028
 L 4.04637,-0.149628 L 4.06122,-0.764633 L 4.10574,-1.33482 L 4.17995,-1.8602 L 4.28383,-2.34077 L 4.4174,-2.77654
 L 4.58066,-3.1675 L 4.77359,-3.51363 L 4.99571,-3.81429 L 5.24641,-4.06868 L 5.52574,-4.27681 L 5.83365,-4.43871
 L 6.17017,-4.55434 L 6.53528,-4.62372 L 6.92899,-4.64684 L 7.11961,-4.64099 L 7.30861,-4.62346 L 7.49599,-4.59422
 L 7.68175,-4.55328 L 7.86588,-4.50066 L 8.04837,-4.43634 L 8.22925,-4.36032 L 8.41017,-4.27176 L 8.5927,-4.16969
 L 8.77686,-4.05415 L 8.96262,-3.92511 L 9.15001,-3.78259 L 9.33902,-3.62659 L 9.52965,-3.45708 L 9.52965,-6.35245
 L 9.35658,-6.43954 L 9.1799,-6.5202 L 8.99963,-6.59441 L 8.81575,-6.66216 L 8.62828,-6.72345 L 8.43719,-6.77829
 L 8.24251,-6.82668 L 8.0448,-6.86862 L 7.84457,-6.90411 L 7.64183,-6.93315 L 7.43655,-6.95573 L 7.22876,-6.97186
 L 7.01845,-6.98154 L 6.80562,-6.98476 L 6.07069,-6.94894 L 5.38724,-6.84149 L 4.75522,-6.66238 L 4.17465,-6.41165
 L 3.64555,-6.08929 L 3.16789,-5.69528 L 2.7417,-5.22963 L 2.36983,-4.69617 L 2.05516,-4.09862 L 1.79771,-3.43698
 L 1.59747,-2.71126 L 1.45445,-1.92146 L 1.36864,-1.06758 L 1.34003,-0.149628 L 1.36864,0.765976 L 1.45445,1.61789
 L 1.59747,2.40607 L 1.79771,3.13054 L 2.05516,3.79131 L 2.36983,4.38834 L 2.7417,4.92166 L 3.16789,5.38727
 L 3.64555,5.78125 L 4.17465,6.10361 L 4.75522,6.35431 L 5.38724,6.5334 L 6.07069,6.64084 L 6.80562,6.67667
 z
M 6.1218,6.14273 L 5.49471,6.04416 L 4.92319,5.88222 L 4.40491,5.6584 L 3.93622,5.37286 L 3.51306,5.02383
 L 3.13287,4.60849 L 2.79767,4.12775 L 2.51073,3.58331 L 2.27289,2.97287 L 2.08537,2.29446 L 1.94997,1.54819
 L 1.86786,0.733078 L 1.84027,-0.149628 L 1.86786,-1.03467 L 1.94997,-1.85178 L 2.08546,-2.59999 L 2.27295,-3.27946
 L 2.5108,-3.89078 L 2.79779,-4.43576 L 3.1329,-4.91647 L 3.51309,-5.33188 L 3.93622,-5.68089 L 4.40495,-5.96649
 L 4.92314,-6.19028 L 5.49472,-6.35225 L 6.1218,-6.45084 L 6.81404,-6.48457 L 7.00323,-6.48172 L 7.1976,-6.47278
 L 7.39023,-6.45782 L 7.57878,-6.43707 L 7.76552,-6.41034 L 7.94899,-6.37781 L 8.13039,-6.33932 L 8.30786,-6.29521
 L 8.48157,-6.24536 L 8.65196,-6.18965 L 8.81784,-6.12854 L 8.9807,-6.06151 L 9.02965,-6.03915 L 9.02965,-4.48581
 L 8.85843,-4.59323 L 8.83673,-4.60609 L 8.65421,-4.70816 L 8.63,-4.72084 L 8.44908,-4.8094 L 8.42297,-4.82126
 L 8.2421,-4.89728 L 8.21457,-4.90791 L 8.03207,-4.97223 L 8.00328,-4.9814 L 7.81915,-5.03403 L 7.78935,-5.04156
 L 7.60359,-5.0825 L 7.57307,-5.08824 L 7.3857,-5.11748 L 7.3548,-5.12132 L 7.1658,-5.13885 L 7.13493,-5.14076
 L 6.94431,-5.14661 L 6.89967,-5.14598 L 6.50597,-5.12286 L 6.44194,-5.11493 L 6.07683,-5.04555 L 6.00769,-5.02721
 L 5.67117,-4.91158 L 5.60095,-4.88126 L 5.29305,-4.71936 L 5.22701,-4.67775 L 4.94768,-4.46962 L 4.89029,-4.41963
 L 4.63959,-4.16524 L 4.59355,-4.11139 L 4.37143,-3.81073 L 4.33685,-3.75706 L 4.14392,-3.41093 L 4.11926,-3.36015
 L 3.95601,-2.96919 L 3.93936,-2.92307 L 3.80579,-2.4873 L 3.79512,-2.44641 L 3.69124,-1.96584 L 3.68486,-1.93013
 L 3.61066,-1.40475 L 3.60725,-1.37375 L 3.56273,-0.803558 L 3.56137,-0.776703 L 3.54652,-0.161697 L 3.54652,-0.137512
 L 3.56137,0.475143 L 3.56274,0.50209 L 3.60727,1.0703 L 3.61069,1.10136 L 3.68489,1.62514 L 3.69128,1.6609
 L 3.79517,2.14024 L 3.80586,2.18115 L 3.93944,2.61603 L 3.9561,2.66211 L 4.11935,3.05255 L 4.14397,3.10318
 L 4.3369,3.44917 L 4.37146,3.50279 L 4.59358,3.80341 L 4.6396,3.85725 L 4.8903,4.11162 L 4.94768,4.16159
 L 5.22701,4.36971 L 5.29306,4.41132 L 5.60097,4.5732 L 5.67119,4.6035 L 6.00771,4.71912 L 6.07684,4.73746
 L 6.44196,4.80682 L 6.50595,4.81476 L 6.89966,4.83789 L 6.94431,4.83852 L 7.13493,4.83267 L 7.1658,4.83076
 L 7.3548,4.81323 L 7.3857,4.80939 L 7.57307,4.78015 L 7.60352,4.77443 L 7.78928,4.73352 L 7.81908,4.726
 L 8.0032,4.6734 L 8.03203,4.66422 L 8.21452,4.59991 L 8.242,4.58931 L 8.42288,4.51334 L 8.44917,4.50139
 L 8.6301,4.41278 L 8.65424,4.40013 L 8.83676,4.29805 L 8.85847,4.28517 L 9.02965,4.17775 L 9.02965,5.72798
 L 8.97571,5.75214 L 8.80905,5.81985 L 8.64091,5.88139 L 8.46938,5.93741 L 8.29623,5.98734 L 8.12016,6.03157
 L 7.94176,6.06985 L 7.76047,6.10231 L 7.57559,6.129 L 7.38805,6.14977 L 7.19693,6.16466 L 7.00294,6.17361
 L 6.81403,6.17648 z
M 14.2476,1.95779 L 15.4024,0.494385 L 18.5232,6.41875 L 21.4147,6.41875 L 17.1127,-1.55974 L 21.2649,-6.74348
 L 18.3205,-6.74348 L 14.2476,-1.54205 L 14.2476,-6.74348 L 11.647,-6.74348 L 11.647,6.41875 L 14.2476,6.41875
 z
M 12.147,5.91875 L 12.147,-6.24348 L 13.7476,-6.24348 L 13.7476,-1.54205 L 13.7496,-1.49728 L 13.7592,-1.43521
 L 13.7764,-1.37483 L 13.8011,-1.31709 L 13.8328,-1.26291 L 13.8711,-1.21312 L 13.9153,-1.16852 L 13.9647,-1.12981
 L 14.0186,-1.0976 L 14.0761,-1.07239 L 14.1363,-1.0546 L 14.1983,-1.04449 L 14.261,-1.04224 L 14.3236,-1.04785
 L 14.3849,-1.06128 L 14.4441,-1.08228 L 14.5002,-1.11052 L 14.5523,-1.14558 L 14.5996,-1.18689 L 14.6413,-1.2338
 L 18.5641,-6.24348 L 20.2238,-6.24348 L 16.7225,-1.87233 L 16.6765,-1.80417 L 16.6493,-1.74757 L 16.6294,-1.68802
 L 16.6172,-1.62645 L 16.6127,-1.56381 L 16.6161,-1.50111 L 16.6274,-1.43935 L 16.6463,-1.37947 L 16.6726,-1.32243
 L 20.577,5.91875 L 18.825,5.91875 L 15.8448,0.261353 L 15.8183,0.216797 L 15.7802,0.16687 L 15.7362,0.122101
 L 15.6869,0.0832062 L 15.6331,0.0507812 L 15.5757,0.0253754 L 15.5155,0.00735474 L 15.4536,-0.00299072 L 15.3909,-0.00547791
 L 15.3283,-9.15527e-05 L 15.2669,0.013092 L 15.2077,0.0338745 L 15.1515,0.0619049 L 15.0993,0.0967712 L 15.0518,0.137894
 L 15.0099,0.184647 L 13.8551,1.64806 L 13.8095,1.71692 L 13.7827,1.77373 L 13.7633,1.83345 L 13.7516,1.89513
 L 13.7476,1.95779 L 13.7476,5.91875 z
M -1.26219,-6.74348 L -9.09924,-6.74348 L -9.09924,-4.45547 L -6.48103,-4.45547 L -6.48103,4.13074 L -9.09924,4.13074
 L -9.09924,6.41875 L -1.26219,6.41875 L -1.26219,4.13074 L -3.88039,4.13074 L -3.88039,-4.45547 L -1.26219,-4.45547
 z
M -4.37154,4.22443 L -4.35591,4.28525 L -4.33279,4.34363 L -4.30255,4.39865 L -4.26564,4.44945 L -4.22266,4.49522
 L -4.17429,4.53525 L -4.12126,4.56889 L -4.06445,4.59563 L -4.00473,4.61504 L -3.94305,4.6268 L -3.88039,4.63074
 L -1.76219,4.63074 L -1.76219,5.91875 L -8.59924,5.91875 L -8.59924,4.63074 L -6.48103,4.63074 L -6.38734,4.62189
 L -6.32652,4.60626 L -6.26814,4.58315 L -6.21312,4.5529 L -6.16232,4.51599 L -6.11655,4.47301 L -6.07652,4.42464
 L -6.04288,4.37161 L -6.01614,4.3148 L -5.99673,4.25508 L -5.98497,4.19341 L -5.98103,4.13074 L -5.98103,-4.45547
 L -5.98988,-4.54916 L -6.00551,-4.60999 L -6.02863,-4.66837 L -6.05887,-4.72339 L -6.09578,-4.77419 L -6.13876,-4.81996
 L -6.18713,-4.85999 L -6.24016,-4.89363 L -6.29697,-4.92036 L -6.35669,-4.93977 L -6.41837,-4.95154 L -6.48103,-4.95547
 L -8.59924,-4.95547 L -8.59924,-6.24348 L -1.76219,-6.24348 L -1.76219,-4.95547 L -3.88039,-4.95547 L -3.97408,-4.94662
 L -4.0349,-4.931 L -4.09328,-4.90788 L -4.1483,-4.87764 L -4.1991,-4.84073 L -4.24487,-4.79774 L -4.2849,-4.74937
 L -4.31854,-4.69635 L -4.34528,-4.63954 L -4.36469,-4.57982 L -4.37645,-4.51814 L -4.38039,-4.45547 L -4.38039,4.13074
 z
M -17.89,-3.14651 L -14.205,6.41875 L -11.4281,6.41875 L -11.4281,-6.74348 L -13.7202,-6.74348 L -13.7202,2.82178
 L -17.3875,-6.74348 L -20.182,-6.74348 L -20.182,6.41875 L -17.89,6.41875 z
M -19.682,5.91875 L -19.682,-6.24348 L -17.7313,-6.24348 L -14.1871,3.00078 L -14.1584,3.06265 L -14.1248,3.11568
 L -14.0847,3.16405 L -14.039,3.20703 L -13.9882,3.24394 L -13.9331,3.27419 L -13.8748,3.2973 L -13.8139,3.31293
 L -13.7516,3.32079 L -13.6888,3.32079 L -13.6266,3.31293 L -13.5657,3.2973 L -13.5074,3.27419 L -13.4523,3.24394
 L -13.4015,3.20703 L -13.3558,3.16405 L -13.3157,3.11568 L -13.2821,3.06265 L -13.2554,3.00584 L -13.2359,2.94612
 L -13.2242,2.88445 L -13.2202,2.82178 L -13.2202,-6.24348 L -11.9281,-6.24348 L -11.9281,5.91875 L -13.8618,5.91875
 L -17.4234,-3.32626 L -17.4518,-3.38739 L -17.4855,-3.44041 L -17.5255,-3.48878 L -17.5713,-3.53177 L -17.6221,-3.56868
 L -17.6771,-3.59892 L -17.7355,-3.62204 L -17.7963,-3.63766 L -17.8586,-3.64552 L -17.9214,-3.64552 L -17.9837,-3.63766
 L -18.0445,-3.62204 L -18.1029,-3.59892 L -18.1579,-3.56868 L -18.2087,-3.53177 L -18.2545,-3.48878 L -18.2945,-3.44041
 L -18.3282,-3.38739 L -18.3549,-3.33058 L -18.3743,-3.27086 L -18.3861,-3.20918 L -18.39,-3.14651 L -18.39,5.91875
 z
" stroke="black" fill="lightgray" stroke-width="0.5"/>
</svg>
