  0
SECTION
  2
BLOCKS
  0
ENDSEC
  0
SECTION
  2
ENTITIES
  0
LINE
  8
0
 10
7.01828
 20
-6.67343
 11
7.22804
 21
-6.66376
  0
LINE
  8
0
 10
7.22804
 20
-6.66376
 11
7.43494
 21
-6.64763
  0
LINE
  8
0
 10
7.43494
 20
-6.64763
 11
7.63893
 21
-6.62505
  0
LINE
  8
0
 10
7.63893
 20
-6.62505
 11
7.84006
 21
-6.59601
  0
LINE
  8
0
 10
7.84006
 20
-6.59601
 11
8.03831
 21
-6.56052
  0
LINE
  8
0
 10
8.03831
 20
-6.56052
 11
8.23367
 21
-6.51859
  0
LINE
  8
0
 10
8.23367
 20
-6.51859
 11
8.42638
 21
-6.47018
  0
LINE
  8
0
 10
8.42638
 20
-6.47018
 11
8.61655
 21
-6.41534
  0
LINE
  8
0
 10
8.61655
 20
-6.41534
 11
8.80421
 21
-6.35405
  0
LINE
  8
0
 10
8.80421
 20
-6.35405
 11
8.98935
 21
-6.2863
  0
LINE
  8
0
 10
8.98935
 20
-6.2863
 11
9.17197
 21
-6.2121
  0
LINE
  8
0
 10
9.17197
 20
-6.2121
 11
9.35207
 21
-6.13145
  0
LINE
  8
0
 10
9.35207
 20
-6.13145
 11
9.52965
 21
-6.04434
  0
LINE
  8
0
 10
9.52965
 20
-6.04434
 11
9.52965
 21
-3.14899
  0
LINE
  8
0
 10
9.52965
 20
-3.14899
 11
9.33902
 21
-3.31848
  0
LINE
  8
0
 10
9.33902
 20
-3.31848
 11
9.15001
 21
-3.4745
  0
LINE
  8
0
 10
9.15001
 20
-3.4745
 11
8.96262
 21
-3.61703
  0
LINE
  8
0
 10
8.96262
 20
-3.61703
 11
8.77686
 21
-3.74609
  0
LINE
  8
0
 10
8.77686
 20
-3.74609
 11
8.5927
 21
-3.86166
  0
LINE
  8
0
 10
8.5927
 20
-3.86166
 11
8.41017
 21
-3.96375
  0
LINE
  8
0
 10
8.41017
 20
-3.96375
 11
8.22925
 21
-4.05235
  0
LINE
  8
0
 10
8.22925
 20
-4.05235
 11
8.04837
 21
-4.12833
  0
LINE
  8
0
 10
8.04837
 20
-4.12833
 11
7.86588
 21
-4.19263
  0
LINE
  8
0
 10
7.86588
 20
-4.19263
 11
7.68175
 21
-4.24522
  0
LINE
  8
0
 10
7.68175
 20
-4.24522
 11
7.49599
 21
-4.28613
  0
LINE
  8
0
 10
7.49599
 20
-4.28613
 11
7.30861
 21
-4.31537
  0
LINE
  8
0
 10
7.30861
 20
-4.31537
 11
7.11961
 21
-4.3329
  0
LINE
  8
0
 10
7.11961
 20
-4.3329
 11
6.92899
 21
-4.33875
  0
LINE
  8
0
 10
6.92899
 20
-4.33875
 11
6.53528
 21
-4.31561
  0
LINE
  8
0
 10
6.53528
 20
-4.31561
 11
6.17017
 21
-4.24625
  0
LINE
  8
0
 10
6.17017
 20
-4.24625
 11
5.83365
 21
-4.13063
  0
LINE
  8
0
 10
5.83365
 20
-4.13063
 11
5.52574
 21
-3.96875
  0
LINE
  8
0
 10
5.52574
 20
-3.96875
 11
5.24641
 21
-3.76064
  0
LINE
  8
0
 10
5.24641
 20
-3.76064
 11
4.99571
 21
-3.50627
  0
LINE
  8
0
 10
4.99571
 20
-3.50627
 11
4.77359
 21
-3.20566
  0
LINE
  8
0
 10
4.77359
 20
-3.20566
 11
4.58066
 21
-2.85966
  0
LINE
  8
0
 10
4.58066
 20
-2.85966
 11
4.4174
 21
-2.46922
  0
LINE
  8
0
 10
4.4174
 20
-2.46922
 11
4.28383
 21
-2.03435
  0
LINE
  8
0
 10
4.28383
 20
-2.03435
 11
4.17995
 21
-1.55501
  0
LINE
  8
0
 10
4.17995
 20
-1.55501
 11
4.10574
 21
-1.03123
  0
LINE
  8
0
 10
4.10574
 20
-1.03123
 11
4.06122
 21
-0.463028
  0
LINE
  8
0
 10
4.06122
 20
-0.463028
 11
4.04637
 21
0.149628
  0
LINE
  8
0
 10
4.04637
 20
0.149628
 11
4.06122
 21
0.764633
  0
LINE
  8
0
 10
4.06122
 20
0.764633
 11
4.10574
 21
1.33482
  0
LINE
  8
0
 10
4.10574
 20
1.33482
 11
4.17995
 21
1.8602
  0
LINE
  8
0
 10
4.17995
 20
1.8602
 11
4.28383
 21
2.34077
  0
LINE
  8
0
 10
4.28383
 20
2.34077
 11
4.4174
 21
2.77654
  0
LINE
  8
0
 10
4.4174
 20
2.77654
 11
4.58066
 21
3.1675
  0
LINE
  8
0
 10
4.58066
 20
3.1675
 11
4.77359
 21
3.51363
  0
LINE
  8
0
 10
4.77359
 20
3.51363
 11
4.99571
 21
3.81429
  0
LINE
  8
0
 10
4.99571
 20
3.81429
 11
5.24641
 21
4.06868
  0
LINE
  8
0
 10
5.24641
 20
4.06868
 11
5.52574
 21
4.27681
  0
LINE
  8
0
 10
5.52574
 20
4.27681
 11
5.83365
 21
4.43871
  0
LINE
  8
0
 10
5.83365
 20
4.43871
 11
6.17017
 21
4.55434
  0
LINE
  8
0
 10
6.17017
 20
4.55434
 11
6.53528
 21
4.62372
  0
LINE
  8
0
 10
6.53528
 20
4.62372
 11
6.92899
 21
4.64684
  0
LINE
  8
0
 10
6.92899
 20
4.64684
 11
7.11961
 21
4.64099
  0
LINE
  8
0
 10
7.11961
 20
4.64099
 11
7.30861
 21
4.62346
  0
LINE
  8
0
 10
7.30861
 20
4.62346
 11
7.49599
 21
4.59422
  0
LINE
  8
0
 10
7.49599
 20
4.59422
 11
7.68175
 21
4.55328
  0
LINE
  8
0
 10
7.68175
 20
4.55328
 11
7.86588
 21
4.50066
  0
LINE
  8
0
 10
7.86588
 20
4.50066
 11
8.04837
 21
4.43634
  0
LINE
  8
0
 10
8.04837
 20
4.43634
 11
8.22925
 21
4.36032
  0
LINE
  8
0
 10
8.22925
 20
4.36032
 11
8.41017
 21
4.27176
  0
LINE
  8
0
 10
8.41017
 20
4.27176
 11
8.5927
 21
4.16969
  0
LINE
  8
0
 10
8.5927
 20
4.16969
 11
8.77686
 21
4.05415
  0
LINE
  8
0
 10
8.77686
 20
4.05415
 11
8.96262
 21
3.92511
  0
LINE
  8
0
 10
8.96262
 20
3.92511
 11
9.15001
 21
3.78259
  0
LINE
  8
0
 10
9.15001
 20
3.78259
 11
9.33902
 21
3.62659
  0
LINE
  8
0
 10
9.33902
 20
3.62659
 11
9.52965
 21
3.45708
  0
LINE
  8
0
 10
9.52965
 20
3.45708
 11
9.52965
 21
6.35245
  0
LINE
  8
0
 10
9.52965
 20
6.35245
 11
9.35658
 21
6.43954
  0
LINE
  8
0
 10
9.35658
 20
6.43954
 11
9.1799
 21
6.5202
  0
LINE
  8
0
 10
9.1799
 20
6.5202
 11
8.99963
 21
6.59441
  0
LINE
  8
0
 10
8.99963
 20
6.59441
 11
8.81575
 21
6.66216
  0
LINE
  8
0
 10
8.81575
 20
6.66216
 11
8.62828
 21
6.72345
  0
LINE
  8
0
 10
8.62828
 20
6.72345
 11
8.43719
 21
6.77829
  0
LINE
  8
0
 10
8.43719
 20
6.77829
 11
8.24251
 21
6.82668
  0
LINE
  8
0
 10
8.24251
 20
6.82668
 11
8.0448
 21
6.86862
  0
LINE
  8
0
 10
8.0448
 20
6.86862
 11
7.84457
 21
6.90411
  0
LINE
  8
0
 10
7.84457
 20
6.90411
 11
7.64183
 21
6.93315
  0
LINE
  8
0
 10
7.64183
 20
6.93315
 11
7.43655
 21
6.95573
  0
LINE
  8
0
 10
7.43655
 20
6.95573
 11
7.22876
 21
6.97186
  0
LINE
  8
0
 10
7.22876
 20
6.97186
 11
7.01845
 21
6.98154
  0
LINE
  8
0
 10
7.01845
 20
6.98154
 11
6.80562
 21
6.98476
  0
LINE
  8
0
 10
6.80562
 20
6.98476
 11
6.07069
 21
6.94894
  0
LINE
  8
0
 10
6.07069
 20
6.94894
 11
5.38724
 21
6.84149
  0
LINE
  8
0
 10
5.38724
 20
6.84149
 11
4.75522
 21
6.66238
  0
LINE
  8
0
 10
4.75522
 20
6.66238
 11
4.17465
 21
6.41165
  0
LINE
  8
0
 10
4.17465
 20
6.41165
 11
3.64555
 21
6.08929
  0
LINE
  8
0
 10
3.64555
 20
6.08929
 11
3.16789
 21
5.69528
  0
LINE
  8
0
 10
3.16789
 20
5.69528
 11
2.7417
 21
5.22963
  0
LINE
  8
0
 10
2.7417
 20
5.22963
 11
2.36983
 21
4.69617
  0
LINE
  8
0
 10
2.36983
 20
4.69617
 11
2.05516
 21
4.09862
  0
LINE
  8
0
 10
2.05516
 20
4.09862
 11
1.79771
 21
3.43698
  0
LINE
  8
0
 10
1.79771
 20
3.43698
 11
1.59747
 21
2.71126
  0
LINE
  8
0
 10
1.59747
 20
2.71126
 11
1.45445
 21
1.92146
  0
LINE
  8
0
 10
1.45445
 20
1.92146
 11
1.36864
 21
1.06758
  0
LINE
  8
0
 10
1.36864
 20
1.06758
 11
1.34003
 21
0.149628
  0
LINE
  8
0
 10
1.34003
 20
0.149628
 11
1.36864
 21
-0.765976
  0
LINE
  8
0
 10
1.36864
 20
-0.765976
 11
1.45445
 21
-1.61789
  0
LINE
  8
0
 10
1.45445
 20
-1.61789
 11
1.59747
 21
-2.40607
  0
LINE
  8
0
 10
1.59747
 20
-2.40607
 11
1.79771
 21
-3.13054
  0
LINE
  8
0
 10
1.79771
 20
-3.13054
 11
2.05516
 21
-3.79131
  0
LINE
  8
0
 10
2.05516
 20
-3.79131
 11
2.36983
 21
-4.38834
  0
LINE
  8
0
 10
2.36983
 20
-4.38834
 11
2.7417
 21
-4.92166
  0
LINE
  8
0
 10
2.7417
 20
-4.92166
 11
3.16789
 21
-5.38727
  0
LINE
  8
0
 10
3.16789
 20
-5.38727
 11
3.64555
 21
-5.78125
  0
LINE
  8
0
 10
3.64555
 20
-5.78125
 11
4.17465
 21
-6.10361
  0
LINE
  8
0
 10
4.17465
 20
-6.10361
 11
4.75522
 21
-6.35431
  0
LINE
  8
0
 10
4.75522
 20
-6.35431
 11
5.38724
 21
-6.5334
  0
LINE
  8
0
 10
5.38724
 20
-6.5334
 11
6.07069
 21
-6.64084
  0
LINE
  8
0
 10
6.07069
 20
-6.64084
 11
6.80562
 21
-6.67667
  0
LINE
  8
0
 10
6.80562
 20
-6.67667
 11
7.01828
 21
-6.67343
  0
LINE
  8
0
 10
6.1218
 20
-6.14273
 11
5.49471
 21
-6.04416
  0
LINE
  8
0
 10
5.49471
 20
-6.04416
 11
4.92319
 21
-5.88222
  0
LINE
  8
0
 10
4.92319
 20
-5.88222
 11
4.40491
 21
-5.6584
  0
LINE
  8
0
 10
4.40491
 20
-5.6584
 11
3.93622
 21
-5.37286
  0
LINE
  8
0
 10
3.93622
 20
-5.37286
 11
3.51306
 21
-5.02383
  0
LINE
  8
0
 10
3.51306
 20
-5.02383
 11
3.13287
 21
-4.60849
  0
LINE
  8
0
 10
3.13287
 20
-4.60849
 11
2.79767
 21
-4.12775
  0
LINE
  8
0
 10
2.79767
 20
-4.12775
 11
2.51073
 21
-3.58331
  0
LINE
  8
0
 10
2.51073
 20
-3.58331
 11
2.27289
 21
-2.97287
  0
LINE
  8
0
 10
2.27289
 20
-2.97287
 11
2.08537
 21
-2.29446
  0
LINE
  8
0
 10
2.08537
 20
-2.29446
 11
1.94997
 21
-1.54819
  0
LINE
  8
0
 10
1.94997
 20
-1.54819
 11
1.86786
 21
-0.733078
  0
LINE
  8
0
 10
1.86786
 20
-0.733078
 11
1.84027
 21
0.149628
  0
LINE
  8
0
 10
1.84027
 20
0.149628
 11
1.86786
 21
1.03467
  0
LINE
  8
0
 10
1.86786
 20
1.03467
 11
1.94997
 21
1.85178
  0
LINE
  8
0
 10
1.94997
 20
1.85178
 11
2.08546
 21
2.59999
  0
LINE
  8
0
 10
2.08546
 20
2.59999
 11
2.27295
 21
3.27946
  0
LINE
  8
0
 10
2.27295
 20
3.27946
 11
2.5108
 21
3.89078
  0
LINE
  8
0
 10
2.5108
 20
3.89078
 11
2.79779
 21
4.43576
  0
LINE
  8
0
 10
2.79779
 20
4.43576
 11
3.1329
 21
4.91647
  0
LINE
  8
0
 10
3.1329
 20
4.91647
 11
3.51309
 21
5.33188
  0
LINE
  8
0
 10
3.51309
 20
5.33188
 11
3.93622
 21
5.68089
  0
LINE
  8
0
 10
3.93622
 20
5.68089
 11
4.40495
 21
5.96649
  0
LINE
  8
0
 10
4.40495
 20
5.96649
 11
4.92314
 21
6.19028
  0
LINE
  8
0
 10
4.92314
 20
6.19028
 11
5.49472
 21
6.35225
  0
LINE
  8
0
 10
5.49472
 20
6.35225
 11
6.1218
 21
6.45084
  0
LINE
  8
0
 10
6.1218
 20
6.45084
 11
6.81404
 21
6.48457
  0
LINE
  8
0
 10
6.81404
 20
6.48457
 11
7.00323
 21
6.48172
  0
LINE
  8
0
 10
7.00323
 20
6.48172
 11
7.1976
 21
6.47278
  0
LINE
  8
0
 10
7.1976
 20
6.47278
 11
7.39023
 21
6.45782
  0
LINE
  8
0
 10
7.39023
 20
6.45782
 11
7.57878
 21
6.43707
  0
LINE
  8
0
 10
7.57878
 20
6.43707
 11
7.76552
 21
6.41034
  0
LINE
  8
0
 10
7.76552
 20
6.41034
 11
7.94899
 21
6.37781
  0
LINE
  8
0
 10
7.94899
 20
6.37781
 11
8.13039
 21
6.33932
  0
LINE
  8
0
 10
8.13039
 20
6.33932
 11
8.30786
 21
6.29521
  0
LINE
  8
0
 10
8.30786
 20
6.29521
 11
8.48157
 21
6.24536
  0
LINE
  8
0
 10
8.48157
 20
6.24536
 11
8.65196
 21
6.18965
  0
LINE
  8
0
 10
8.65196
 20
6.18965
 11
8.81784
 21
6.12854
  0
LINE
  8
0
 10
8.81784
 20
6.12854
 11
8.9807
 21
6.06151
  0
LINE
  8
0
 10
8.9807
 20
6.06151
 11
9.02965
 21
6.03915
  0
LINE
  8
0
 10
9.02965
 20
6.03915
 11
9.02965
 21
4.48581
  0
LINE
  8
0
 10
9.02965
 20
4.48581
 11
8.85843
 21
4.59323
  0
LINE
  8
0
 10
8.85843
 20
4.59323
 11
8.83673
 21
4.60609
  0
LINE
  8
0
 10
8.83673
 20
4.60609
 11
8.65421
 21
4.70816
  0
LINE
  8
0
 10
8.65421
 20
4.70816
 11
8.63
 21
4.72084
  0
LINE
  8
0
 10
8.63
 20
4.72084
 11
8.44908
 21
4.8094
  0
LINE
  8
0
 10
8.44908
 20
4.8094
 11
8.42297
 21
4.82126
  0
LINE
  8
0
 10
8.42297
 20
4.82126
 11
8.2421
 21
4.89728
  0
LINE
  8
0
 10
8.2421
 20
4.89728
 11
8.21457
 21
4.90791
  0
LINE
  8
0
 10
8.21457
 20
4.90791
 11
8.03207
 21
4.97223
  0
LINE
  8
0
 10
8.03207
 20
4.97223
 11
8.00328
 21
4.9814
  0
LINE
  8
0
 10
8.00328
 20
4.9814
 11
7.81915
 21
5.03403
  0
LINE
  8
0
 10
7.81915
 20
5.03403
 11
7.78935
 21
5.04156
  0
LINE
  8
0
 10
7.78935
 20
5.04156
 11
7.60359
 21
5.0825
  0
LINE
  8
0
 10
7.60359
 20
5.0825
 11
7.57307
 21
5.08824
  0
LINE
  8
0
 10
7.57307
 20
5.08824
 11
7.3857
 21
5.11748
  0
LINE
  8
0
 10
7.3857
 20
5.11748
 11
7.3548
 21
5.12132
  0
LINE
  8
0
 10
7.3548
 20
5.12132
 11
7.1658
 21
5.13885
  0
LINE
  8
0
 10
7.1658
 20
5.13885
 11
7.13493
 21
5.14076
  0
LINE
  8
0
 10
7.13493
 20
5.14076
 11
6.94431
 21
5.14661
  0
LINE
  8
0
 10
6.94431
 20
5.14661
 11
6.89967
 21
5.14598
  0
LINE
  8
0
 10
6.89967
 20
5.14598
 11
6.50597
 21
5.12286
  0
LINE
  8
0
 10
6.50597
 20
5.12286
 11
6.44194
 21
5.11493
  0
LINE
  8
0
 10
6.44194
 20
5.11493
 11
6.07683
 21
5.04555
  0
LINE
  8
0
 10
6.07683
 20
5.04555
 11
6.00769
 21
5.02721
  0
LINE
  8
0
 10
6.00769
 20
5.02721
 11
5.67117
 21
4.91158
  0
LINE
  8
0
 10
5.67117
 20
4.91158
 11
5.60095
 21
4.88126
  0
LINE
  8
0
 10
5.60095
 20
4.88126
 11
5.29305
 21
4.71936
  0
LINE
  8
0
 10
5.29305
 20
4.71936
 11
5.22701
 21
4.67775
  0
LINE
  8
0
 10
5.22701
 20
4.67775
 11
4.94768
 21
4.46962
  0
LINE
  8
0
 10
4.94768
 20
4.46962
 11
4.89029
 21
4.41963
  0
LINE
  8
0
 10
4.89029
 20
4.41963
 11
4.63959
 21
4.16524
  0
LINE
  8
0
 10
4.63959
 20
4.16524
 11
4.59355
 21
4.11139
  0
LINE
  8
0
 10
4.59355
 20
4.11139
 11
4.37143
 21
3.81073
  0
LINE
  8
0
 10
4.37143
 20
3.81073
 11
4.33685
 21
3.75706
  0
LINE
  8
0
 10
4.33685
 20
3.75706
 11
4.14392
 21
3.41093
  0
LINE
  8
0
 10
4.14392
 20
3.41093
 11
4.11926
 21
3.36015
  0
LINE
  8
0
 10
4.11926
 20
3.36015
 11
3.95601
 21
2.96919
  0
LINE
  8
0
 10
3.95601
 20
2.96919
 11
3.93936
 21
2.92307
  0
LINE
  8
0
 10
3.93936
 20
2.92307
 11
3.80579
 21
2.4873
  0
LINE
  8
0
 10
3.80579
 20
2.4873
 11
3.79512
 21
2.44641
  0
LINE
  8
0
 10
3.79512
 20
2.44641
 11
3.69124
 21
1.96584
  0
LINE
  8
0
 10
3.69124
 20
1.96584
 11
3.68486
 21
1.93013
  0
LINE
  8
0
 10
3.68486
 20
1.93013
 11
3.61066
 21
1.40475
  0
LINE
  8
0
 10
3.61066
 20
1.40475
 11
3.60725
 21
1.37375
  0
LINE
  8
0
 10
3.60725
 20
1.37375
 11
3.56273
 21
0.803558
  0
LINE
  8
0
 10
3.56273
 20
0.803558
 11
3.56137
 21
0.776703
  0
LINE
  8
0
 10
3.56137
 20
0.776703
 11
3.54652
 21
0.161697
  0
LINE
  8
0
 10
3.54652
 20
0.161697
 11
3.54652
 21
0.137512
  0
LINE
  8
0
 10
3.54652
 20
0.137512
 11
3.56137
 21
-0.475143
  0
LINE
  8
0
 10
3.56137
 20
-0.475143
 11
3.56274
 21
-0.50209
  0
LINE
  8
0
 10
3.56274
 20
-0.50209
 11
3.60727
 21
-1.0703
  0
LINE
  8
0
 10
3.60727
 20
-1.0703
 11
3.61069
 21
-1.10136
  0
LINE
  8
0
 10
3.61069
 20
-1.10136
 11
3.68489
 21
-1.62514
  0
LINE
  8
0
 10
3.68489
 20
-1.62514
 11
3.69128
 21
-1.6609
  0
LINE
  8
0
 10
3.69128
 20
-1.6609
 11
3.79517
 21
-2.14024
  0
LINE
  8
0
 10
3.79517
 20
-2.14024
 11
3.80586
 21
-2.18115
  0
LINE
  8
0
 10
3.80586
 20
-2.18115
 11
3.93944
 21
-2.61603
  0
LINE
  8
0
 10
3.93944
 20
-2.61603
 11
3.9561
 21
-2.66211
  0
LINE
  8
0
 10
3.9561
 20
-2.66211
 11
4.11935
 21
-3.05255
  0
LINE
  8
0
 10
4.11935
 20
-3.05255
 11
4.14397
 21
-3.10318
  0
LINE
  8
0
 10
4.14397
 20
-3.10318
 11
4.3369
 21
-3.44917
  0
LINE
  8
0
 10
4.3369
 20
-3.44917
 11
4.37146
 21
-3.50279
  0
LINE
  8
0
 10
4.37146
 20
-3.50279
 11
4.59358
 21
-3.80341
  0
LINE
  8
0
 10
4.59358
 20
-3.80341
 11
4.6396
 21
-3.85725
  0
LINE
  8
0
 10
4.6396
 20
-3.85725
 11
4.8903
 21
-4.11162
  0
LINE
  8
0
 10
4.8903
 20
-4.11162
 11
4.94768
 21
-4.16159
  0
LINE
  8
0
 10
4.94768
 20
-4.16159
 11
5.22701
 21
-4.36971
  0
LINE
  8
0
 10
5.22701
 20
-4.36971
 11
5.29306
 21
-4.41132
  0
LINE
  8
0
 10
5.29306
 20
-4.41132
 11
5.60097
 21
-4.5732
  0
LINE
  8
0
 10
5.60097
 20
-4.5732
 11
5.67119
 21
-4.6035
  0
LINE
  8
0
 10
5.67119
 20
-4.6035
 11
6.00771
 21
-4.71912
  0
LINE
  8
0
 10
6.00771
 20
-4.71912
 11
6.07684
 21
-4.73746
  0
LINE
  8
0
 10
6.07684
 20
-4.73746
 11
6.44196
 21
-4.80682
  0
LINE
  8
0
 10
6.44196
 20
-4.80682
 11
6.50595
 21
-4.81476
  0
LINE
  8
0
 10
6.50595
 20
-4.81476
 11
6.89966
 21
-4.83789
  0
LINE
  8
0
 10
6.89966
 20
-4.83789
 11
6.94431
 21
-4.83852
  0
LINE
  8
0
 10
6.94431
 20
-4.83852
 11
7.13493
 21
-4.83267
  0
LINE
  8
0
 10
7.13493
 20
-4.83267
 11
7.1658
 21
-4.83076
  0
LINE
  8
0
 10
7.1658
 20
-4.83076
 11
7.3548
 21
-4.81323
  0
LINE
  8
0
 10
7.3548
 20
-4.81323
 11
7.3857
 21
-4.80939
  0
LINE
  8
0
 10
7.3857
 20
-4.80939
 11
7.57307
 21
-4.78015
  0
LINE
  8
0
 10
7.57307
 20
-4.78015
 11
7.60352
 21
-4.77443
  0
LINE
  8
0
 10
7.60352
 20
-4.77443
 11
7.78928
 21
-4.73352
  0
LINE
  8
0
 10
7.78928
 20
-4.73352
 11
7.81908
 21
-4.726
  0
LINE
  8
0
 10
7.81908
 20
-4.726
 11
8.0032
 21
-4.6734
  0
LINE
  8
0
 10
8.0032
 20
-4.6734
 11
8.03203
 21
-4.66422
  0
LINE
  8
0
 10
8.03203
 20
-4.66422
 11
8.21452
 21
-4.59991
  0
LINE
  8
0
 10
8.21452
 20
-4.59991
 11
8.242
 21
-4.58931
  0
LINE
  8
0
 10
8.242
 20
-4.58931
 11
8.42288
 21
-4.51334
  0
LINE
  8
0
 10
8.42288
 20
-4.51334
 11
8.44917
 21
-4.50139
  0
LINE
  8
0
 10
8.44917
 20
-4.50139
 11
8.6301
 21
-4.41278
  0
LINE
  8
0
 10
8.6301
 20
-4.41278
 11
8.65424
 21
-4.40013
  0
LINE
  8
0
 10
8.65424
 20
-4.40013
 11
8.83676
 21
-4.29805
  0
LINE
  8
0
 10
8.83676
 20
-4.29805
 11
8.85847
 21
-4.28517
  0
LINE
  8
0
 10
8.85847
 20
-4.28517
 11
9.02965
 21
-4.17775
  0
LINE
  8
0
 10
9.02965
 20
-4.17775
 11
9.02965
 21
-5.72798
  0
LINE
  8
0
 10
9.02965
 20
-5.72798
 11
8.97571
 21
-5.75214
  0
LINE
  8
0
 10
8.97571
 20
-5.75214
 11
8.80905
 21
-5.81985
  0
LINE
  8
0
 10
8.80905
 20
-5.81985
 11
8.64091
 21
-5.88139
  0
LINE
  8
0
 10
8.64091
 20
-5.88139
 11
8.46938
 21
-5.93741
  0
LINE
  8
0
 10
8.46938
 20
-5.93741
 11
8.29623
 21
-5.98734
  0
LINE
  8
0
 10
8.29623
 20
-5.98734
 11
8.12016
 21
-6.03157
  0
LINE
  8
0
 10
8.12016
 20
-6.03157
 11
7.94176
 21
-6.06985
  0
LINE
  8
0
 10
7.94176
 20
-6.06985
 11
7.76047
 21
-6.10231
  0
LINE
  8
0
 10
7.76047
 20
-6.10231
 11
7.57559
 21
-6.129
  0
LINE
  8
0
 10
7.57559
 20
-6.129
 11
7.38805
 21
-6.14977
  0
LINE
  8
0
 10
7.38805
 20
-6.14977
 11
7.19693
 21
-6.16466
  0
LINE
  8
0
 10
7.19693
 20
-6.16466
 11
7.00294
 21
-6.17361
  0
LINE
  8
0
 10
7.00294
 20
-6.17361
 11
6.81403
 21
-6.17648
  0
LINE
  8
0
 10
6.81403
 20
-6.17648
 11
6.1218
 21
-6.14273
  0
LINE
  8
0
 10
14.2476
 20
-1.95779
 11
15.4024
 21
-0.494385
  0
LINE
  8
0
 10
15.4024
 20
-0.494385
 11
18.5232
 21
-6.41875
  0
LINE
  8
0
 10
18.5232
 20
-6.41875
 11
21.4147
 21
-6.41875
  0
LINE
  8
0
 10
21.4147
 20
-6.41875
 11
17.1127
 21
1.55974
  0
LINE
  8
0
 10
17.1127
 20
1.55974
 11
21.2649
 21
6.74348
  0
LINE
  8
0
 10
21.2649
 20
6.74348
 11
18.3205
 21
6.74348
  0
LINE
  8
0
 10
18.3205
 20
6.74348
 11
14.2476
 21
1.54205
  0
LINE
  8
0
 10
14.2476
 20
1.54205
 11
14.2476
 21
6.74348
  0
LINE
  8
0
 10
14.2476
 20
6.74348
 11
11.647
 21
6.74348
  0
LINE
  8
0
 10
11.647
 20
6.74348
 11
11.647
 21
-6.41875
  0
LINE
  8
0
 10
11.647
 20
-6.41875
 11
14.2476
 21
-6.41875
  0
LINE
  8
0
 10
14.2476
 20
-6.41875
 11
14.2476
 21
-1.95779
  0
LINE
  8
0
 10
12.147
 20
-5.91875
 11
12.147
 21
6.24348
  0
LINE
  8
0
 10
12.147
 20
6.24348
 11
13.7476
 21
6.24348
  0
LINE
  8
0
 10
13.7476
 20
6.24348
 11
13.7476
 21
1.54205
  0
LINE
  8
0
 10
13.7476
 20
1.54205
 11
13.7496
 21
1.49728
  0
LINE
  8
0
 10
13.7496
 20
1.49728
 11
13.7592
 21
1.43521
  0
LINE
  8
0
 10
13.7592
 20
1.43521
 11
13.7764
 21
1.37483
  0
LINE
  8
0
 10
13.7764
 20
1.37483
 11
13.8011
 21
1.31709
  0
LINE
  8
0
 10
13.8011
 20
1.31709
 11
13.8328
 21
1.26291
  0
LINE
  8
0
 10
13.8328
 20
1.26291
 11
13.8711
 21
1.21312
  0
LINE
  8
0
 10
13.8711
 20
1.21312
 11
13.9153
 21
1.16852
  0
LINE
  8
0
 10
13.9153
 20
1.16852
 11
13.9647
 21
1.12981
  0
LINE
  8
0
 10
13.9647
 20
1.12981
 11
14.0186
 21
1.0976
  0
LINE
  8
0
 10
14.0186
 20
1.0976
 11
14.0761
 21
1.07239
  0
LINE
  8
0
 10
14.0761
 20
1.07239
 11
14.1363
 21
1.0546
  0
LINE
  8
0
 10
14.1363
 20
1.0546
 11
14.1983
 21
1.04449
  0
LINE
  8
0
 10
14.1983
 20
1.04449
 11
14.261
 21
1.04224
  0
LINE
  8
0
 10
14.261
 20
1.04224
 11
14.3236
 21
1.04785
  0
LINE
  8
0
 10
14.3236
 20
1.04785
 11
14.3849
 21
1.06128
  0
LINE
  8
0
 10
14.3849
 20
1.06128
 11
14.4441
 21
1.08228
  0
LINE
  8
0
 10
14.4441
 20
1.08228
 11
14.5002
 21
1.11052
  0
LINE
  8
0
 10
14.5002
 20
1.11052
 11
14.5523
 21
1.14558
  0
LINE
  8
0
 10
14.5523
 20
1.14558
 11
14.5996
 21
1.18689
  0
LINE
  8
0
 10
14.5996
 20
1.18689
 11
14.6413
 21
1.2338
  0
LINE
  8
0
 10
14.6413
 20
1.2338
 11
18.5641
 21
6.24348
  0
LINE
  8
0
 10
18.5641
 20
6.24348
 11
20.2238
 21
6.24348
  0
LINE
  8
0
 10
20.2238
 20
6.24348
 11
16.7225
 21
1.87233
  0
LINE
  8
0
 10
16.7225
 20
1.87233
 11
16.6765
 21
1.80417
  0
LINE
  8
0
 10
16.6765
 20
1.80417
 11
16.6493
 21
1.74757
  0
LINE
  8
0
 10
16.6493
 20
1.74757
 11
16.6294
 21
1.68802
  0
LINE
  8
0
 10
16.6294
 20
1.68802
 11
16.6172
 21
1.62645
  0
LINE
  8
0
 10
16.6172
 20
1.62645
 11
16.6127
 21
1.56381
  0
LINE
  8
0
 10
16.6127
 20
1.56381
 11
16.6161
 21
1.50111
  0
LINE
  8
0
 10
16.6161
 20
1.50111
 11
16.6274
 21
1.43935
  0
LINE
  8
0
 10
16.6274
 20
1.43935
 11
16.6463
 21
1.37947
  0
LINE
  8
0
 10
16.6463
 20
1.37947
 11
16.6726
 21
1.32243
  0
LINE
  8
0
 10
16.6726
 20
1.32243
 11
20.577
 21
-5.91875
  0
LINE
  8
0
 10
20.577
 20
-5.91875
 11
18.825
 21
-5.91875
  0
LINE
  8
0
 10
18.825
 20
-5.91875
 11
15.8448
 21
-0.261353
  0
LINE
  8
0
 10
15.8448
 20
-0.261353
 11
15.8183
 21
-0.216797
  0
LINE
  8
0
 10
15.8183
 20
-0.216797
 11
15.7802
 21
-0.16687
  0
LINE
  8
0
 10
15.7802
 20
-0.16687
 11
15.7362
 21
-0.122101
  0
LINE
  8
0
 10
15.7362
 20
-0.122101
 11
15.6869
 21
-0.0832062
  0
LINE
  8
0
 10
15.6869
 20
-0.0832062
 11
15.6331
 21
-0.0507812
  0
LINE
  8
0
 10
15.6331
 20
-0.0507812
 11
15.5757
 21
-0.0253754
  0
LINE
  8
0
 10
15.5757
 20
-0.0253754
 11
15.5155
 21
-0.00735474
  0
LINE
  8
0
 10
15.5155
 20
-0.00735474
 11
15.4536
 21
0.00299072
  0
LINE
  8
0
 10
15.4536
 20
0.00299072
 11
15.3909
 21
0.00547791
  0
LINE
  8
0
 10
15.3909
 20
0.00547791
 11
15.3283
 21
9.15527e-05
  0
LINE
  8
0
 10
15.3283
 20
9.15527e-05
 11
15.2669
 21
-0.013092
  0
LINE
  8
0
 10
15.2669
 20
-0.013092
 11
15.2077
 21
-0.0338745
  0
LINE
  8
0
 10
15.2077
 20
-0.0338745
 11
15.1515
 21
-0.0619049
  0
LINE
  8
0
 10
15.1515
 20
-0.0619049
 11
15.0993
 21
-0.0967712
  0
LINE
  8
0
 10
15.0993
 20
-0.0967712
 11
15.0518
 21
-0.137894
  0
LINE
  8
0
 10
15.0518
 20
-0.137894
 11
15.0099
 21
-0.184647
  0
LINE
  8
0
 10
15.0099
 20
-0.184647
 11
13.8551
 21
-1.64806
  0
LINE
  8
0
 10
13.8551
 20
-1.64806
 11
13.8095
 21
-1.71692
  0
LINE
  8
0
 10
13.8095
 20
-1.71692
 11
13.7827
 21
-1.77373
  0
LINE
  8
0
 10
13.7827
 20
-1.77373
 11
13.7633
 21
-1.83345
  0
LINE
  8
0
 10
13.7633
 20
-1.83345
 11
13.7516
 21
-1.89513
  0
LINE
  8
0
 10
13.7516
 20
-1.89513
 11
13.7476
 21
-1.95779
  0
LINE
  8
0
 10
13.7476
 20
-1.95779
 11
13.7476
 21
-5.91875
  0
LINE
  8
0
 10
13.7476
 20
-5.91875
 11
12.147
 21
-5.91875
  0
LINE
  8
0
 10
-1.26219
 20
6.74348
 11
-9.09924
 21
6.74348
  0
LINE
  8
0
 10
-9.09924
 20
6.74348
 11
-9.09924
 21
4.45547
  0
LINE
  8
0
 10
-9.09924
 20
4.45547
 11
-6.48103
 21
4.45547
  0
LINE
  8
0
 10
-6.48103
 20
4.45547
 11
-6.48103
 21
-4.13074
  0
LINE
  8
0
 10
-6.48103
 20
-4.13074
 11
-9.09924
 21
-4.13074
  0
LINE
  8
0
 10
-9.09924
 20
-4.13074
 11
-9.09924
 21
-6.41875
  0
LINE
  8
0
 10
-9.09924
 20
-6.41875
 11
-1.26219
 21
-6.41875
  0
LINE
  8
0
 10
-1.26219
 20
-6.41875
 11
-1.26219
 21
-4.13074
  0
LINE
  8
0
 10
-1.26219
 20
-4.13074
 11
-3.88039
 21
-4.13074
  0
LINE
  8
0
 10
-3.88039
 20
-4.13074
 11
-3.88039
 21
4.45547
  0
LINE
  8
0
 10
-3.88039
 20
4.45547
 11
-1.26219
 21
4.45547
  0
LINE
  8
0
 10
-1.26219
 20
4.45547
 11
-1.26219
 21
6.74348
  0
LINE
  8
0
 10
-4.37154
 20
-4.22443
 11
-4.35591
 21
-4.28525
  0
LINE
  8
0
 10
-4.35591
 20
-4.28525
 11
-4.33279
 21
-4.34363
  0
LINE
  8
0
 10
-4.33279
 20
-4.34363
 11
-4.30255
 21
-4.39865
  0
LINE
  8
0
 10
-4.30255
 20
-4.39865
 11
-4.26564
 21
-4.44945
  0
LINE
  8
0
 10
-4.26564
 20
-4.44945
 11
-4.22266
 21
-4.49522
  0
LINE
  8
0
 10
-4.22266
 20
-4.49522
 11
-4.17429
 21
-4.53525
  0
LINE
  8
0
 10
-4.17429
 20
-4.53525
 11
-4.12126
 21
-4.56889
  0
LINE
  8
0
 10
-4.12126
 20
-4.56889
 11
-4.06445
 21
-4.59563
  0
LINE
  8
0
 10
-4.06445
 20
-4.59563
 11
-4.00473
 21
-4.61504
  0
LINE
  8
0
 10
-4.00473
 20
-4.61504
 11
-3.94305
 21
-4.6268
  0
LINE
  8
0
 10
-3.94305
 20
-4.6268
 11
-3.88039
 21
-4.63074
  0
LINE
  8
0
 10
-3.88039
 20
-4.63074
 11
-1.76219
 21
-4.63074
  0
LINE
  8
0
 10
-1.76219
 20
-4.63074
 11
-1.76219
 21
-5.91875
  0
LINE
  8
0
 10
-1.76219
 20
-5.91875
 11
-8.59924
 21
-5.91875
  0
LINE
  8
0
 10
-8.59924
 20
-5.91875
 11
-8.59924
 21
-4.63074
  0
LINE
  8
0
 10
-8.59924
 20
-4.63074
 11
-6.48103
 21
-4.63074
  0
LINE
  8
0
 10
-6.48103
 20
-4.63074
 11
-6.38734
 21
-4.62189
  0
LINE
  8
0
 10
-6.38734
 20
-4.62189
 11
-6.32652
 21
-4.60626
  0
LINE
  8
0
 10
-6.32652
 20
-4.60626
 11
-6.26814
 21
-4.58315
  0
LINE
  8
0
 10
-6.26814
 20
-4.58315
 11
-6.21312
 21
-4.5529
  0
LINE
  8
0
 10
-6.21312
 20
-4.5529
 11
-6.16232
 21
-4.51599
  0
LINE
  8
0
 10
-6.16232
 20
-4.51599
 11
-6.11655
 21
-4.47301
  0
LINE
  8
0
 10
-6.11655
 20
-4.47301
 11
-6.07652
 21
-4.42464
  0
LINE
  8
0
 10
-6.07652
 20
-4.42464
 11
-6.04288
 21
-4.37161
  0
LINE
  8
0
 10
-6.04288
 20
-4.37161
 11
-6.01614
 21
-4.3148
  0
LINE
  8
0
 10
-6.01614
 20
-4.3148
 11
-5.99673
 21
-4.25508
  0
LINE
  8
0
 10
-5.99673
 20
-4.25508
 11
-5.98497
 21
-4.19341
  0
LINE
  8
0
 10
-5.98497
 20
-4.19341
 11
-5.98103
 21
-4.13074
  0
LINE
  8
0
 10
-5.98103
 20
-4.13074
 11
-5.98103
 21
4.45547
  0
LINE
  8
0
 10
-5.98103
 20
4.45547
 11
-5.98988
 21
4.54916
  0
LINE
  8
0
 10
-5.98988
 20
4.54916
 11
-6.00551
 21
4.60999
  0
LINE
  8
0
 10
-6.00551
 20
4.60999
 11
-6.02863
 21
4.66837
  0
LINE
  8
0
 10
-6.02863
 20
4.66837
 11
-6.05887
 21
4.72339
  0
LINE
  8
0
 10
-6.05887
 20
4.72339
 11
-6.09578
 21
4.77419
  0
LINE
  8
0
 10
-6.09578
 20
4.77419
 11
-6.13876
 21
4.81996
  0
LINE
  8
0
 10
-6.13876
 20
4.81996
 11
-6.18713
 21
4.85999
  0
LINE
  8
0
 10
-6.18713
 20
4.85999
 11
-6.24016
 21
4.89363
  0
LINE
  8
0
 10
-6.24016
 20
4.89363
 11
-6.29697
 21
4.92036
  0
LINE
  8
0
 10
-6.29697
 20
4.92036
 11
-6.35669
 21
4.93977
  0
LINE
  8
0
 10
-6.35669
 20
4.93977
 11
-6.41837
 21
4.95154
  0
LINE
  8
0
 10
-6.41837
 20
4.95154
 11
-6.48103
 21
4.95547
  0
LINE
  8
0
 10
-6.48103
 20
4.95547
 11
-8.59924
 21
4.95547
  0
LINE
  8
0
 10
-8.59924
 20
4.95547
 11
-8.59924
 21
6.24348
  0
LINE
  8
0
 10
-8.59924
 20
6.24348
 11
-1.76219
 21
6.24348
  0
LINE
  8
0
 10
-1.76219
 20
6.24348
 11
-1.76219
 21
4.95547
  0
LINE
  8
0
 10
-1.76219
 20
4.95547
 11
-3.88039
 21
4.95547
  0
LINE
  8
0
 10
-3.88039
 20
4.95547
 11
-3.97408
 21
4.94662
  0
LINE
  8
0
 10
-3.97408
 20
4.94662
 11
-4.0349
 21
4.931
  0
LINE
  8
0
 10
-4.0349
 20
4.931
 11
-4.09328
 21
4.90788
  0
LINE
  8
0
 10
-4.09328
 20
4.90788
 11
-4.1483
 21
4.87764
  0
LINE
  8
0
 10
-4.1483
 20
4.87764
 11
-4.1991
 21
4.84073
  0
LINE
  8
0
 10
-4.1991
 20
4.84073
 11
-4.24487
 21
4.79774
  0
LINE
  8
0
 10
-4.24487
 20
4.79774
 11
-4.2849
 21
4.74937
  0
LINE
  8
0
 10
-4.2849
 20
4.74937
 11
-4.31854
 21
4.69635
  0
LINE
  8
0
 10
-4.31854
 20
4.69635
 11
-4.34528
 21
4.63954
  0
LINE
  8
0
 10
-4.34528
 20
4.63954
 11
-4.36469
 21
4.57982
  0
LINE
  8
0
 10
-4.36469
 20
4.57982
 11
-4.37645
 21
4.51814
  0
LINE
  8
0
 10
-4.37645
 20
4.51814
 11
-4.38039
 21
4.45547
  0
LINE
  8
0
 10
-4.38039
 20
4.45547
 11
-4.38039
 21
-4.13074
  0
LINE
  8
0
 10
-4.38039
 20
-4.13074
 11
-4.37154
 21
-4.22443
  0
LINE
  8
0
 10
-17.89
 20
3.14651
 11
-14.205
 21
-6.41875
  0
LINE
  8
0
 10
-14.205
 20
-6.41875
 11
-11.4281
 21
-6.41875
  0
LINE
  8
0
 10
-11.4281
 20
-6.41875
 11
-11.4281
 21
6.74348
  0
LINE
  8
0
 10
-11.4281
 20
6.74348
 11
-13.7202
 21
6.74348
  0
LINE
  8
0
 10
-13.7202
 20
6.74348
 11
-13.7202
 21
-2.82178
  0
LINE
  8
0
 10
-13.7202
 20
-2.82178
 11
-17.3875
 21
6.74348
  0
LINE
  8
0
 10
-17.3875
 20
6.74348
 11
-20.182
 21
6.74348
  0
LINE
  8
0
 10
-20.182
 20
6.74348
 11
-20.182
 21
-6.41875
  0
LINE
  8
0
 10
-20.182
 20
-6.41875
 11
-17.89
 21
-6.41875
  0
LINE
  8
0
 10
-17.89
 20
-6.41875
 11
-17.89
 21
3.14651
  0
LINE
  8
0
 10
-19.682
 20
-5.91875
 11
-19.682
 21
6.24348
  0
LINE
  8
0
 10
-19.682
 20
6.24348
 11
-17.7313
 21
6.24348
  0
LINE
  8
0
 10
-17.7313
 20
6.24348
 11
-14.1871
 21
-3.00078
  0
LINE
  8
0
 10
-14.1871
 20
-3.00078
 11
-14.1584
 21
-3.06265
  0
LINE
  8
0
 10
-14.1584
 20
-3.06265
 11
-14.1248
 21
-3.11568
  0
LINE
  8
0
 10
-14.1248
 20
-3.11568
 11
-14.0847
 21
-3.16405
  0
LINE
  8
0
 10
-14.0847
 20
-3.16405
 11
-14.039
 21
-3.20703
  0
LINE
  8
0
 10
-14.039
 20
-3.20703
 11
-13.9882
 21
-3.24394
  0
LINE
  8
0
 10
-13.9882
 20
-3.24394
 11
-13.9331
 21
-3.27419
  0
LINE
  8
0
 10
-13.9331
 20
-3.27419
 11
-13.8748
 21
-3.2973
  0
LINE
  8
0
 10
-13.8748
 20
-3.2973
 11
-13.8139
 21
-3.31293
  0
LINE
  8
0
 10
-13.8139
 20
-3.31293
 11
-13.7516
 21
-3.32079
  0
LINE
  8
0
 10
-13.7516
 20
-3.32079
 11
-13.6888
 21
-3.32079
  0
LINE
  8
0
 10
-13.6888
 20
-3.32079
 11
-13.6266
 21
-3.31293
  0
LINE
  8
0
 10
-13.6266
 20
-3.31293
 11
-13.5657
 21
-3.2973
  0
LINE
  8
0
 10
-13.5657
 20
-3.2973
 11
-13.5074
 21
-3.27419
  0
LINE
  8
0
 10
-13.5074
 20
-3.27419
 11
-13.4523
 21
-3.24394
  0
LINE
  8
0
 10
-13.4523
 20
-3.24394
 11
-13.4015
 21
-3.20703
  0
LINE
  8
0
 10
-13.4015
 20
-3.20703
 11
-13.3558
 21
-3.16405
  0
LINE
  8
0
 10
-13.3558
 20
-3.16405
 11
-13.3157
 21
-3.11568
  0
LINE
  8
0
 10
-13.3157
 20
-3.11568
 11
-13.2821
 21
-3.06265
  0
LINE
  8
0
 10
-13.2821
 20
-3.06265
 11
-13.2554
 21
-3.00584
  0
LINE
  8
0
 10
-13.2554
 20
-3.00584
 11
-13.2359
 21
-2.94612
  0
LINE
  8
0
 10
-13.2359
 20
-2.94612
 11
-13.2242
 21
-2.88445
  0
LINE
  8
0
 10
-13.2242
 20
-2.88445
 11
-13.2202
 21
-2.82178
  0
LINE
  8
0
 10
-13.2202
 20
-2.82178
 11
-13.2202
 21
6.24348
  0
LINE
  8
0
 10
-13.2202
 20
6.24348
 11
-11.9281
 21
6.24348
  0
LINE
  8
0
 10
-11.9281
 20
6.24348
 11
-11.9281
 21
-5.91875
  0
LINE
  8
0
 10
-11.9281
 20
-5.91875
 11
-13.8618
 21
-5.91875
  0
LINE
  8
0
 10
-13.8618
 20
-5.91875
 11
-17.4234
 21
3.32626
  0
LINE
  8
0
 10
-17.4234
 20
3.32626
 11
-17.4518
 21
3.38739
  0
LINE
  8
0
 10
-17.4518
 20
3.38739
 11
-17.4855
 21
3.44041
  0
LINE
  8
0
 10
-17.4855
 20
3.44041
 11
-17.5255
 21
3.48878
  0
LINE
  8
0
 10
-17.5255
 20
3.48878
 11
-17.5713
 21
3.53177
  0
LINE
  8
0
 10
-17.5713
 20
3.53177
 11
-17.6221
 21
3.56868
  0
LINE
  8
0
 10
-17.6221
 20
3.56868
 11
-17.6771
 21
3.59892
  0
LINE
  8
0
 10
-17.6771
 20
3.59892
 11
-17.7355
 21
3.62204
  0
LINE
  8
0
 10
-17.7355
 20
3.62204
 11
-17.7963
 21
3.63766
  0
LINE
  8
0
 10
-17.7963
 20
3.63766
 11
-17.8586
 21
3.64552
  0
LINE
  8
0
 10
-17.8586
 20
3.64552
 11
-17.9214
 21
3.64552
  0
LINE
  8
0
 10
-17.9214
 20
3.64552
 11
-17.9837
 21
3.63766
  0
LINE
  8
0
 10
-17.9837
 20
3.63766
 11
-18.0445
 21
3.62204
  0
LINE
  8
0
 10
-18.0445
 20
3.62204
 11
-18.1029
 21
3.59892
  0
LINE
  8
0
 10
-18.1029
 20
3.59892
 11
-18.1579
 21
3.56868
  0
LINE
  8
0
 10
-18.1579
 20
3.56868
 11
-18.2087
 21
3.53177
  0
LINE
  8
0
 10
-18.2087
 20
3.53177
 11
-18.2545
 21
3.48878
  0
LINE
  8
0
 10
-18.2545
 20
3.48878
 11
-18.2945
 21
3.44041
  0
LINE
  8
0
 10
-18.2945
 20
3.44041
 11
-18.3282
 21
3.38739
  0
LINE
  8
0
 10
-18.3282
 20
3.38739
 11
-18.3549
 21
3.33058
  0
LINE
  8
0
 10
-18.3549
 20
3.33058
 11
-18.3743
 21
3.27086
  0
LINE
  8
0
 10
-18.3743
 20
3.27086
 11
-18.3861
 21
3.20918
  0
LINE
  8
0
 10
-18.3861
 20
3.20918
 11
-18.39
 21
3.14651
  0
LINE
  8
0
 10
-18.39
 20
3.14651
 11
-18.39
 21
-5.91875
  0
LINE
  8
0
 10
-18.39
 20
-5.91875
 11
-19.682
 21
-5.91875
  0
ENDSEC
  0
SECTION
  2
OBJECTS
  0
DICTIONARY
  0
ENDSEC
  0
EOF
