  0
SECTION
  2
BLOCKS
  0
ENDSEC
  0
SECTION
  2
ENTITIES
  0
LINE
  8
0
 10
-6.93057
 20
-3.04781
 11
-3.44839
 21
-3.04781
  0
LINE
  8
0
 10
-3.44839
 20
-3.04781
 11
-2.63745
 21
-6.30093
  0
LINE
  8
0
 10
-2.63745
 20
-6.30093
 11
-0.0368042
 21
-6.30093
  0
LINE
  8
0
 10
-0.0368042
 20
-6.30093
 11
-3.58945
 21
6.8613
  0
LINE
  8
0
 10
-3.58945
 20
6.8613
 11
-6.77197
 21
6.8613
  0
LINE
  8
0
 10
-6.77197
 20
6.8613
 11
-10.3246
 21
-6.30093
  0
LINE
  8
0
 10
-10.3246
 20
-6.30093
 11
-7.72397
 21
-6.30093
  0
LINE
  8
0
 10
-7.72397
 20
-6.30093
 11
-6.93057
 21
-3.04781
  0
LINE
  8
0
 10
-9.67177
 20
-5.80093
 11
-6.38904
 21
6.3613
  0
LINE
  8
0
 10
-6.38904
 20
6.3613
 11
-3.97238
 21
6.3613
  0
LINE
  8
0
 10
-3.97238
 20
6.3613
 11
-0.689651
 21
-5.80093
  0
LINE
  8
0
 10
-0.689651
 20
-5.80093
 11
-2.2468
 21
-5.80093
  0
LINE
  8
0
 10
-2.2468
 20
-5.80093
 11
-2.96324
 21
-2.92686
  0
LINE
  8
0
 10
-2.96324
 20
-2.92686
 11
-2.97287
 21
-2.8933
  0
LINE
  8
0
 10
-2.97287
 20
-2.8933
 11
-2.99599
 21
-2.83492
  0
LINE
  8
0
 10
-2.99599
 20
-2.83492
 11
-3.02623
 21
-2.77989
  0
LINE
  8
0
 10
-3.02623
 20
-2.77989
 11
-3.06314
 21
-2.7291
  0
LINE
  8
0
 10
-3.06314
 20
-2.7291
 11
-3.10612
 21
-2.68332
  0
LINE
  8
0
 10
-3.10612
 20
-2.68332
 11
-3.1545
 21
-2.6433
  0
LINE
  8
0
 10
-3.1545
 20
-2.6433
 11
-3.20752
 21
-2.60965
  0
LINE
  8
0
 10
-3.20752
 20
-2.60965
 11
-3.26433
 21
-2.58292
  0
LINE
  8
0
 10
-3.26433
 20
-2.58292
 11
-3.32405
 21
-2.56351
  0
LINE
  8
0
 10
-3.32405
 20
-2.56351
 11
-3.38573
 21
-2.55174
  0
LINE
  8
0
 10
-3.38573
 20
-2.55174
 11
-3.44839
 21
-2.54781
  0
LINE
  8
0
 10
-3.44839
 20
-2.54781
 11
-6.93057
 21
-2.54781
  0
LINE
  8
0
 10
-6.93057
 20
-2.54781
 11
-6.968
 21
-2.54921
  0
LINE
  8
0
 10
-6.968
 20
-2.54921
 11
-7.0302
 21
-2.55783
  0
LINE
  8
0
 10
-7.0302
 20
-2.55783
 11
-7.09084
 21
-2.57419
  0
LINE
  8
0
 10
-7.09084
 20
-2.57419
 11
-7.14893
 21
-2.59801
  0
LINE
  8
0
 10
-7.14893
 20
-2.59801
 11
-7.20358
 21
-2.62892
  0
LINE
  8
0
 10
-7.20358
 20
-2.62892
 11
-7.25392
 21
-2.66644
  0
LINE
  8
0
 10
-7.25392
 20
-2.66644
 11
-7.29918
 21
-2.70998
  0
LINE
  8
0
 10
-7.29918
 20
-2.70998
 11
-7.33861
 21
-2.75883
  0
LINE
  8
0
 10
-7.33861
 20
-2.75883
 11
-7.37161
 21
-2.81226
  0
LINE
  8
0
 10
-7.37161
 20
-2.81226
 11
-7.39766
 21
-2.86938
  0
LINE
  8
0
 10
-7.39766
 20
-2.86938
 11
-7.41634
 21
-2.92934
  0
LINE
  8
0
 10
-7.41634
 20
-2.92934
 11
-8.11668
 21
-5.80093
  0
LINE
  8
0
 10
-8.11668
 20
-5.80093
 11
-9.67177
 21
-5.80093
  0
LINE
  8
0
 10
-3.87019
 20
-1.403
 11
-3.80899
 21
-1.38899
  0
LINE
  8
0
 10
-3.80899
 20
-1.38899
 11
-3.75002
 21
-1.36742
  0
LINE
  8
0
 10
-3.75002
 20
-1.36742
 11
-3.69421
 21
-1.33862
  0
LINE
  8
0
 10
-3.69421
 20
-1.33862
 11
-3.64247
 21
-1.30305
  0
LINE
  8
0
 10
-3.64247
 20
-1.30305
 11
-3.59558
 21
-1.26129
  0
LINE
  8
0
 10
-3.59558
 20
-1.26129
 11
-3.55431
 21
-1.21397
  0
LINE
  8
0
 10
-3.55431
 20
-1.21397
 11
-3.51929
 21
-1.16185
  0
LINE
  8
0
 10
-3.51929
 20
-1.16185
 11
-3.49107
 21
-1.10576
  0
LINE
  8
0
 10
-3.49107
 20
-1.10576
 11
-3.47011
 21
-1.04657
  0
LINE
  8
0
 10
-3.47011
 20
-1.04657
 11
-3.45673
 21
-0.985229
  0
LINE
  8
0
 10
-3.45673
 20
-0.985229
 11
-3.45114
 21
-0.922684
  0
LINE
  8
0
 10
-3.45114
 20
-0.922684
 11
-3.45345
 21
-0.85994
  0
LINE
  8
0
 10
-3.45345
 20
-0.85994
 11
-3.46359
 21
-0.797974
  0
LINE
  8
0
 10
-3.46359
 20
-0.797974
 11
-4.69769
 21
4.59129
  0
LINE
  8
0
 10
-4.69769
 20
4.59129
 11
-4.72548
 21
4.67659
  0
LINE
  8
0
 10
-4.72548
 20
4.67659
 11
-4.75377
 21
4.73264
  0
LINE
  8
0
 10
-4.75377
 20
4.73264
 11
-4.78888
 21
4.7847
  0
LINE
  8
0
 10
-4.78888
 20
4.7847
 11
-4.83023
 21
4.83195
  0
LINE
  8
0
 10
-4.83023
 20
4.83195
 11
-4.87718
 21
4.87364
  0
LINE
  8
0
 10
-4.87718
 20
4.87364
 11
-4.92899
 21
4.90913
  0
LINE
  8
0
 10
-4.92899
 20
4.90913
 11
-4.98482
 21
4.93784
  0
LINE
  8
0
 10
-4.98482
 20
4.93784
 11
-5.04382
 21
4.95932
  0
LINE
  8
0
 10
-5.04382
 20
4.95932
 11
-5.10506
 21
4.97325
  0
LINE
  8
0
 10
-5.10506
 20
4.97325
 11
-5.16754
 21
4.97939
  0
LINE
  8
0
 10
-5.16754
 20
4.97939
 11
-5.2303
 21
4.97765
  0
LINE
  8
0
 10
-5.2303
 20
4.97765
 11
-5.29236
 21
4.96805
  0
LINE
  8
0
 10
-5.29236
 20
4.96805
 11
-5.35272
 21
4.95074
  0
LINE
  8
0
 10
-5.35272
 20
4.95074
 11
-5.41043
 21
4.92603
  0
LINE
  8
0
 10
-5.41043
 20
4.92603
 11
-5.4646
 21
4.89426
  0
LINE
  8
0
 10
-5.4646
 20
4.89426
 11
-5.51436
 21
4.85596
  0
LINE
  8
0
 10
-5.51436
 20
4.85596
 11
-5.55891
 21
4.81172
  0
LINE
  8
0
 10
-5.55891
 20
4.81172
 11
-5.59758
 21
4.76224
  0
LINE
  8
0
 10
-5.59758
 20
4.76224
 11
-5.62975
 21
4.70831
  0
LINE
  8
0
 10
-5.62975
 20
4.70831
 11
-5.65489
 21
4.65079
  0
LINE
  8
0
 10
-5.65489
 20
4.65079
 11
-5.67262
 21
4.59055
  0
LINE
  8
0
 10
-5.67262
 20
4.59055
 11
-6.89799
 21
-0.798721
  0
LINE
  8
0
 10
-6.89799
 20
-0.798721
 11
-6.90945
 21
-0.878174
  0
LINE
  8
0
 10
-6.90945
 20
-0.878174
 11
-6.90945
 21
-0.940979
  0
LINE
  8
0
 10
-6.90945
 20
-0.940979
 11
-6.9016
 21
-1.00327
  0
LINE
  8
0
 10
-6.9016
 20
-1.00327
 11
-6.88597
 21
-1.06409
  0
LINE
  8
0
 10
-6.88597
 20
-1.06409
 11
-6.86285
 21
-1.12247
  0
LINE
  8
0
 10
-6.86285
 20
-1.12247
 11
-6.83261
 21
-1.17749
  0
LINE
  8
0
 10
-6.83261
 20
-1.17749
 11
-6.7957
 21
-1.22829
  0
LINE
  8
0
 10
-6.7957
 20
-1.22829
 11
-6.75272
 21
-1.27406
  0
LINE
  8
0
 10
-6.75272
 20
-1.27406
 11
-6.70435
 21
-1.31409
  0
LINE
  8
0
 10
-6.70435
 20
-1.31409
 11
-6.65132
 21
-1.34773
  0
LINE
  8
0
 10
-6.65132
 20
-1.34773
 11
-6.59451
 21
-1.37447
  0
LINE
  8
0
 10
-6.59451
 20
-1.37447
 11
-6.53479
 21
-1.39388
  0
LINE
  8
0
 10
-6.53479
 20
-1.39388
 11
-6.47311
 21
-1.40564
  0
LINE
  8
0
 10
-6.47311
 20
-1.40564
 11
-6.41045
 21
-1.40958
  0
LINE
  8
0
 10
-6.41045
 20
-1.40958
 11
-3.95097
 21
-1.40958
  0
LINE
  8
0
 10
-3.95097
 20
-1.40958
 11
-3.87019
 21
-1.403
  0
LINE
  8
0
 10
-6.41045
 20
-0.909576
 11
-5.18507
 21
4.47969
  0
LINE
  8
0
 10
-5.18507
 20
4.47969
 11
-3.95097
 21
-0.909576
  0
LINE
  8
0
 10
-3.95097
 20
-0.909576
 11
-6.41045
 21
-0.909576
  0
LINE
  8
0
 10
20.7623
 20
-4.01292
 11
15.1998
 21
-4.01292
  0
LINE
  8
0
 10
15.1998
 20
-4.01292
 11
15.1998
 21
6.8613
  0
LINE
  8
0
 10
15.1998
 20
6.8613
 11
12.5991
 21
6.8613
  0
LINE
  8
0
 10
12.5991
 20
6.8613
 11
12.5991
 21
-6.30093
  0
LINE
  8
0
 10
12.5991
 20
-6.30093
 11
20.7623
 21
-6.30093
  0
LINE
  8
0
 10
20.7623
 20
-6.30093
 11
20.7623
 21
-4.01292
  0
LINE
  8
0
 10
13.0991
 20
-5.80093
 11
13.0991
 21
6.3613
  0
LINE
  8
0
 10
13.0991
 20
6.3613
 11
14.6998
 21
6.3613
  0
LINE
  8
0
 10
14.6998
 20
6.3613
 11
14.6998
 21
-4.01292
  0
LINE
  8
0
 10
14.6998
 20
-4.01292
 11
14.7086
 21
-4.10661
  0
LINE
  8
0
 10
14.7086
 20
-4.10661
 11
14.7242
 21
-4.16743
  0
LINE
  8
0
 10
14.7242
 20
-4.16743
 11
14.7473
 21
-4.22581
  0
LINE
  8
0
 10
14.7473
 20
-4.22581
 11
14.7776
 21
-4.28084
  0
LINE
  8
0
 10
14.7776
 20
-4.28084
 11
14.8145
 21
-4.33163
  0
LINE
  8
0
 10
14.8145
 20
-4.33163
 11
14.8575
 21
-4.37741
  0
LINE
  8
0
 10
14.8575
 20
-4.37741
 11
14.9059
 21
-4.41743
  0
LINE
  8
0
 10
14.9059
 20
-4.41743
 11
14.9589
 21
-4.45108
  0
LINE
  8
0
 10
14.9589
 20
-4.45108
 11
15.0157
 21
-4.47781
  0
LINE
  8
0
 10
15.0157
 20
-4.47781
 11
15.0754
 21
-4.49722
  0
LINE
  8
0
 10
15.0754
 20
-4.49722
 11
15.1371
 21
-4.50899
  0
LINE
  8
0
 10
15.1371
 20
-4.50899
 11
15.1998
 21
-4.51292
  0
LINE
  8
0
 10
15.1998
 20
-4.51292
 11
20.2623
 21
-4.51292
  0
LINE
  8
0
 10
20.2623
 20
-4.51292
 11
20.2623
 21
-5.80093
  0
LINE
  8
0
 10
20.2623
 20
-5.80093
 11
13.0991
 21
-5.80093
  0
LINE
  8
0
 10
-17.2024
 20
-1.37549
 11
-16.2326
 21
-1.37549
  0
LINE
  8
0
 10
-16.2326
 20
-1.37549
 11
-15.4855
 21
-1.3557
  0
LINE
  8
0
 10
-15.4855
 20
-1.3557
 11
-14.8009
 21
-1.2963
  0
LINE
  8
0
 10
-14.8009
 20
-1.2963
 11
-14.1787
 21
-1.19731
  0
LINE
  8
0
 10
-14.1787
 20
-1.19731
 11
-13.6189
 21
-1.05873
  0
LINE
  8
0
 10
-13.6189
 20
-1.05873
 11
-13.1216
 21
-0.880554
  0
LINE
  8
0
 10
-13.1216
 20
-0.880554
 11
-12.6866
 21
-0.662796
  0
LINE
  8
0
 10
-12.6866
 20
-0.662796
 11
-12.3142
 21
-0.405426
  0
LINE
  8
0
 10
-12.3142
 20
-0.405426
 11
-11.9972
 21
-0.103607
  0
LINE
  8
0
 10
-11.9972
 20
-0.103607
 11
-11.7291
 21
0.247498
  0
LINE
  8
0
 10
-11.7291
 20
0.247498
 11
-11.5097
 21
0.647949
  0
LINE
  8
0
 10
-11.5097
 20
0.647949
 11
-11.339
 21
1.09772
  0
LINE
  8
0
 10
-11.339
 20
1.09772
 11
-11.2171
 21
1.59679
  0
LINE
  8
0
 10
-11.2171
 20
1.59679
 11
-11.144
 21
2.14519
  0
LINE
  8
0
 10
-11.144
 20
2.14519
 11
-11.1196
 21
2.74289
  0
LINE
  8
0
 10
-11.1196
 20
2.74289
 11
-11.144
 21
3.34061
  0
LINE
  8
0
 10
-11.144
 20
3.34061
 11
-11.2171
 21
3.88899
  0
LINE
  8
0
 10
-11.2171
 20
3.88899
 11
-11.339
 21
4.38808
  0
LINE
  8
0
 10
-11.339
 20
4.38808
 11
-11.5097
 21
4.83783
  0
LINE
  8
0
 10
-11.5097
 20
4.83783
 11
-11.7291
 21
5.23828
  0
LINE
  8
0
 10
-11.7291
 20
5.23828
 11
-11.9972
 21
5.58942
  0
LINE
  8
0
 10
-11.9972
 20
5.58942
 11
-12.3142
 21
5.89124
  0
LINE
  8
0
 10
-12.3142
 20
5.89124
 11
-12.6866
 21
6.14861
  0
LINE
  8
0
 10
-12.6866
 20
6.14861
 11
-13.1216
 21
6.36636
  0
LINE
  8
0
 10
-13.1216
 20
6.36636
 11
-13.6189
 21
6.54454
  0
LINE
  8
0
 10
-13.6189
 20
6.54454
 11
-14.1787
 21
6.68312
  0
LINE
  8
0
 10
-14.1787
 20
6.68312
 11
-14.8009
 21
6.7821
  0
LINE
  8
0
 10
-14.8009
 20
6.7821
 11
-15.4855
 21
6.84149
  0
LINE
  8
0
 10
-15.4855
 20
6.84149
 11
-16.2326
 21
6.8613
  0
LINE
  8
0
 10
-16.2326
 20
6.8613
 11
-19.8029
 21
6.8613
  0
LINE
  8
0
 10
-19.8029
 20
6.8613
 11
-19.8029
 21
-6.30093
  0
LINE
  8
0
 10
-19.8029
 20
-6.30093
 11
-17.2024
 21
-6.30093
  0
LINE
  8
0
 10
-17.2024
 20
-6.30093
 11
-17.2024
 21
-1.37549
  0
LINE
  8
0
 10
-19.3029
 20
-5.80093
 11
-19.3029
 21
6.3613
  0
LINE
  8
0
 10
-19.3029
 20
6.3613
 11
-16.239
 21
6.3613
  0
LINE
  8
0
 10
-16.239
 20
6.3613
 11
-15.5138
 21
6.34207
  0
LINE
  8
0
 10
-15.5138
 20
6.34207
 11
-14.8619
 21
6.28552
  0
LINE
  8
0
 10
-14.8619
 20
6.28552
 11
-14.2783
 21
6.19267
  0
LINE
  8
0
 10
-14.2783
 20
6.19267
 11
-13.7637
 21
6.06528
  0
LINE
  8
0
 10
-13.7637
 20
6.06528
 11
-13.3185
 21
5.90581
  0
LINE
  8
0
 10
-13.3185
 20
5.90581
 11
-12.9419
 21
5.71725
  0
LINE
  8
0
 10
-12.9419
 20
5.71725
 11
-12.6306
 21
5.50214
  0
LINE
  8
0
 10
-12.6306
 20
5.50214
 11
-12.3707
 21
5.25459
  0
LINE
  8
0
 10
-12.3707
 20
5.25459
 11
-12.1494
 21
4.96481
  0
LINE
  8
0
 10
-12.1494
 20
4.96481
 11
-11.9649
 21
4.62808
  0
LINE
  8
0
 10
-11.9649
 20
4.62808
 11
-11.8174
 21
4.23941
  0
LINE
  8
0
 10
-11.8174
 20
4.23941
 11
-11.7092
 21
3.79639
  0
LINE
  8
0
 10
-11.7092
 20
3.79639
 11
-11.6426
 21
3.29735
  0
LINE
  8
0
 10
-11.6426
 20
3.29735
 11
-11.62
 21
2.74289
  0
LINE
  8
0
 10
-11.62
 20
2.74289
 11
-11.6426
 21
2.18845
  0
LINE
  8
0
 10
-11.6426
 20
2.18845
 11
-11.7092
 21
1.68939
  0
LINE
  8
0
 10
-11.7092
 20
1.68939
 11
-11.8174
 21
1.24634
  0
LINE
  8
0
 10
-11.8174
 20
1.24634
 11
-11.9648
 21
0.857727
  0
LINE
  8
0
 10
-11.9648
 20
0.857727
 11
-12.1494
 21
0.520966
  0
LINE
  8
0
 10
-12.1494
 20
0.520966
 11
-12.3707
 21
0.231247
  0
LINE
  8
0
 10
-12.3707
 20
0.231247
 11
-12.6306
 21
-0.0163269
  0
LINE
  8
0
 10
-12.6306
 20
-0.0163269
 11
-12.9419
 21
-0.231445
  0
LINE
  8
0
 10
-12.9419
 20
-0.231445
 11
-13.3185
 21
-0.419998
  0
LINE
  8
0
 10
-13.3185
 20
-0.419998
 11
-13.7637
 21
-0.579468
  0
LINE
  8
0
 10
-13.7637
 20
-0.579468
 11
-14.2783
 21
-0.706863
  0
LINE
  8
0
 10
-14.2783
 20
-0.706863
 11
-14.8619
 21
-0.799713
  0
LINE
  8
0
 10
-14.8619
 20
-0.799713
 11
-15.5136
 21
-0.856262
  0
LINE
  8
0
 10
-15.5136
 20
-0.856262
 11
-16.2395
 21
-0.875488
  0
LINE
  8
0
 10
-16.2395
 20
-0.875488
 11
-17.2024
 21
-0.875488
  0
LINE
  8
0
 10
-17.2024
 20
-0.875488
 11
-17.2961
 21
-0.884338
  0
LINE
  8
0
 10
-17.2961
 20
-0.884338
 11
-17.3569
 21
-0.899963
  0
LINE
  8
0
 10
-17.3569
 20
-0.899963
 11
-17.4153
 21
-0.92308
  0
LINE
  8
0
 10
-17.4153
 20
-0.92308
 11
-17.4703
 21
-0.953323
  0
LINE
  8
0
 10
-17.4703
 20
-0.953323
 11
-17.5211
 21
-0.990234
  0
LINE
  8
0
 10
-17.5211
 20
-0.990234
 11
-17.5669
 21
-1.03322
  0
LINE
  8
0
 10
-17.5669
 20
-1.03322
 11
-17.6069
 21
-1.08159
  0
LINE
  8
0
 10
-17.6069
 20
-1.08159
 11
-17.6406
 21
-1.13461
  0
LINE
  8
0
 10
-17.6406
 20
-1.13461
 11
-17.6673
 21
-1.19142
  0
LINE
  8
0
 10
-17.6673
 20
-1.19142
 11
-17.6867
 21
-1.25114
  0
LINE
  8
0
 10
-17.6867
 20
-1.25114
 11
-17.6985
 21
-1.31282
  0
LINE
  8
0
 10
-17.6985
 20
-1.31282
 11
-17.7024
 21
-1.37549
  0
LINE
  8
0
 10
-17.7024
 20
-1.37549
 11
-17.7024
 21
-5.80093
  0
LINE
  8
0
 10
-17.7024
 20
-5.80093
 11
-19.3029
 21
-5.80093
  0
LINE
  8
0
 10
-16.123
 20
0.312805
 11
-15.7734
 21
0.321625
  0
LINE
  8
0
 10
-15.7734
 20
0.321625
 11
-15.7446
 21
0.323181
  0
LINE
  8
0
 10
-15.7446
 20
0.323181
 11
-15.4261
 21
0.349625
  0
LINE
  8
0
 10
-15.4261
 20
0.349625
 11
-15.3917
 21
0.353699
  0
LINE
  8
0
 10
-15.3917
 20
0.353699
 11
-15.1043
 21
0.397766
  0
LINE
  8
0
 10
-15.1043
 20
0.397766
 11
-15.063
 21
0.405869
  0
LINE
  8
0
 10
-15.063
 20
0.405869
 11
-14.8067
 21
0.46756
  0
LINE
  8
0
 10
-14.8067
 20
0.46756
 11
-14.7576
 21
0.482086
  0
LINE
  8
0
 10
-14.7576
 20
0.482086
 11
-14.5325
 21
0.561401
  0
LINE
  8
0
 10
-14.5325
 20
0.561401
 11
-14.4751
 21
0.585709
  0
LINE
  8
0
 10
-14.4751
 20
0.585709
 11
-14.2811
 21
0.682663
  0
LINE
  8
0
 10
-14.2811
 20
0.682663
 11
-14.2169
 21
0.720978
  0
LINE
  8
0
 10
-14.2169
 20
0.720978
 11
-14.054
 21
0.835556
  0
LINE
  8
0
 10
-14.054
 20
0.835556
 11
-13.9887
 21
0.890335
  0
LINE
  8
0
 10
-13.9887
 20
0.890335
 11
-13.8519
 21
1.02667
  0
LINE
  8
0
 10
-13.8519
 20
1.02667
 11
-13.7978
 21
1.09044
  0
LINE
  8
0
 10
-13.7978
 20
1.09044
 11
-13.682
 21
1.25269
  0
LINE
  8
0
 10
-13.682
 20
1.25269
 11
-13.6425
 21
1.31825
  0
LINE
  8
0
 10
-13.6425
 20
1.31825
 11
-13.5477
 21
1.50639
  0
LINE
  8
0
 10
-13.5477
 20
1.50639
 11
-13.5215
 21
1.56854
  0
LINE
  8
0
 10
-13.5215
 20
1.56854
 11
-13.4479
 21
1.78261
  0
LINE
  8
0
 10
-13.4479
 20
1.78261
 11
-13.4323
 21
1.8382
  0
LINE
  8
0
 10
-13.4323
 20
1.8382
 11
-13.3796
 21
2.07814
  0
LINE
  8
0
 10
-13.3796
 20
2.07814
 11
-13.3715
 21
2.1263
  0
LINE
  8
0
 10
-13.3715
 20
2.1263
 11
-13.34
 21
2.39217
  0
LINE
  8
0
 10
-13.34
 20
2.39217
 11
-13.3368
 21
2.43309
  0
LINE
  8
0
 10
-13.3368
 20
2.43309
 11
-13.3262
 21
2.72485
  0
LINE
  8
0
 10
-13.3262
 20
2.72485
 11
-13.3262
 21
2.76093
  0
LINE
  8
0
 10
-13.3262
 20
2.76093
 11
-13.3368
 21
3.0527
  0
LINE
  8
0
 10
-13.3368
 20
3.0527
 11
-13.34
 21
3.09363
  0
LINE
  8
0
 10
-13.34
 20
3.09363
 11
-13.3715
 21
3.35948
  0
LINE
  8
0
 10
-13.3715
 20
3.35948
 11
-13.3796
 21
3.40764
  0
LINE
  8
0
 10
-13.3796
 20
3.40764
 11
-13.4323
 21
3.6476
  0
LINE
  8
0
 10
-13.4323
 20
3.6476
 11
-13.4479
 21
3.7032
  0
LINE
  8
0
 10
-13.4479
 20
3.7032
 11
-13.5215
 21
3.91725
  0
LINE
  8
0
 10
-13.5215
 20
3.91725
 11
-13.5477
 21
3.97937
  0
LINE
  8
0
 10
-13.5477
 20
3.97937
 11
-13.6425
 21
4.16753
  0
LINE
  8
0
 10
-13.6425
 20
4.16753
 11
-13.682
 21
4.23311
  0
LINE
  8
0
 10
-13.682
 20
4.23311
 11
-13.7978
 21
4.39536
  0
LINE
  8
0
 10
-13.7978
 20
4.39536
 11
-13.8519
 21
4.45912
  0
LINE
  8
0
 10
-13.8519
 20
4.45912
 11
-13.9887
 21
4.59546
  0
LINE
  8
0
 10
-13.9887
 20
4.59546
 11
-14.054
 21
4.65024
  0
LINE
  8
0
 10
-14.054
 20
4.65024
 11
-14.2169
 21
4.76482
  0
LINE
  8
0
 10
-14.2169
 20
4.76482
 11
-14.2811
 21
4.80313
  0
LINE
  8
0
 10
-14.2811
 20
4.80313
 11
-14.4751
 21
4.90009
  0
LINE
  8
0
 10
-14.4751
 20
4.90009
 11
-14.5325
 21
4.92439
  0
LINE
  8
0
 10
-14.5325
 20
4.92439
 11
-14.7576
 21
5.00371
  0
LINE
  8
0
 10
-14.7576
 20
5.00371
 11
-14.8067
 21
5.01823
  0
LINE
  8
0
 10
-14.8067
 20
5.01823
 11
-15.063
 21
5.07993
  0
LINE
  8
0
 10
-15.063
 20
5.07993
 11
-15.1043
 21
5.08803
  0
LINE
  8
0
 10
-15.1043
 20
5.08803
 11
-15.3917
 21
5.1321
  0
LINE
  8
0
 10
-15.3917
 20
5.1321
 11
-15.4261
 21
5.13617
  0
LINE
  8
0
 10
-15.4261
 20
5.13617
 11
-15.7446
 21
5.16261
  0
LINE
  8
0
 10
-15.7446
 20
5.16261
 11
-15.7734
 21
5.16417
  0
LINE
  8
0
 10
-15.7734
 20
5.16417
 11
-16.123
 21
5.17299
  0
LINE
  8
0
 10
-16.123
 20
5.17299
 11
-16.1357
 21
5.17314
  0
LINE
  8
0
 10
-16.1357
 20
5.17314
 11
-17.2024
 21
5.17314
  0
LINE
  8
0
 10
-17.2024
 20
5.17314
 11
-17.2961
 21
5.16429
  0
LINE
  8
0
 10
-17.2961
 20
5.16429
 11
-17.3569
 21
5.14867
  0
LINE
  8
0
 10
-17.3569
 20
5.14867
 11
-17.4153
 21
5.12555
  0
LINE
  8
0
 10
-17.4153
 20
5.12555
 11
-17.4703
 21
5.09531
  0
LINE
  8
0
 10
-17.4703
 20
5.09531
 11
-17.5211
 21
5.0584
  0
LINE
  8
0
 10
-17.5211
 20
5.0584
 11
-17.5669
 21
5.01541
  0
LINE
  8
0
 10
-17.5669
 20
5.01541
 11
-17.6069
 21
4.96704
  0
LINE
  8
0
 10
-17.6069
 20
4.96704
 11
-17.6406
 21
4.91402
  0
LINE
  8
0
 10
-17.6406
 20
4.91402
 11
-17.6673
 21
4.85721
  0
LINE
  8
0
 10
-17.6673
 20
4.85721
 11
-17.6867
 21
4.79749
  0
LINE
  8
0
 10
-17.6867
 20
4.79749
 11
-17.6985
 21
4.73581
  0
LINE
  8
0
 10
-17.6985
 20
4.73581
 11
-17.7024
 21
4.67314
  0
LINE
  8
0
 10
-17.7024
 20
4.67314
 11
-17.7024
 21
0.812653
  0
LINE
  8
0
 10
-17.7024
 20
0.812653
 11
-17.6936
 21
0.718964
  0
LINE
  8
0
 10
-17.6936
 20
0.718964
 11
-17.6779
 21
0.658142
  0
LINE
  8
0
 10
-17.6779
 20
0.658142
 11
-17.6548
 21
0.599762
  0
LINE
  8
0
 10
-17.6548
 20
0.599762
 11
-17.6246
 21
0.544739
  0
LINE
  8
0
 10
-17.6246
 20
0.544739
 11
-17.5877
 21
0.493942
  0
LINE
  8
0
 10
-17.5877
 20
0.493942
 11
-17.5447
 21
0.448166
  0
LINE
  8
0
 10
-17.5447
 20
0.448166
 11
-17.4963
 21
0.408142
  0
LINE
  8
0
 10
-17.4963
 20
0.408142
 11
-17.4433
 21
0.374496
  0
LINE
  8
0
 10
-17.4433
 20
0.374496
 11
-17.3865
 21
0.347763
  0
LINE
  8
0
 10
-17.3865
 20
0.347763
 11
-17.3268
 21
0.328354
  0
LINE
  8
0
 10
-17.3268
 20
0.328354
 11
-17.2651
 21
0.316589
  0
LINE
  8
0
 10
-17.2651
 20
0.316589
 11
-17.2024
 21
0.312653
  0
LINE
  8
0
 10
-17.2024
 20
0.312653
 11
-16.1357
 21
0.312653
  0
LINE
  8
0
 10
-16.1357
 20
0.312653
 11
-16.123
 21
0.312805
  0
LINE
  8
0
 10
-17.2024
 20
0.812653
 11
-17.2024
 21
4.67314
  0
LINE
  8
0
 10
-17.2024
 20
4.67314
 11
-16.1357
 21
4.67314
  0
LINE
  8
0
 10
-16.1357
 20
4.67314
 11
-15.786
 21
4.66432
  0
LINE
  8
0
 10
-15.786
 20
4.66432
 11
-15.4674
 21
4.63788
  0
LINE
  8
0
 10
-15.4674
 20
4.63788
 11
-15.18
 21
4.59381
  0
LINE
  8
0
 10
-15.18
 20
4.59381
 11
-14.9238
 21
4.53212
  0
LINE
  8
0
 10
-14.9238
 20
4.53212
 11
-14.6986
 21
4.4528
  0
LINE
  8
0
 10
-14.6986
 20
4.4528
 11
-14.5045
 21
4.35585
  0
LINE
  8
0
 10
-14.5045
 20
4.35585
 11
-14.3416
 21
4.24127
  0
LINE
  8
0
 10
-14.3416
 20
4.24127
 11
-14.2048
 21
4.10493
  0
LINE
  8
0
 10
-14.2048
 20
4.10493
 11
-14.0891
 21
3.94269
  0
LINE
  8
0
 10
-14.0891
 20
3.94269
 11
-13.9943
 21
3.75453
  0
LINE
  8
0
 10
-13.9943
 20
3.75453
 11
-13.9207
 21
3.54048
  0
LINE
  8
0
 10
-13.9207
 20
3.54048
 11
-13.868
 21
3.30052
  0
LINE
  8
0
 10
-13.868
 20
3.30052
 11
-13.8365
 21
3.03467
  0
LINE
  8
0
 10
-13.8365
 20
3.03467
 11
-13.8259
 21
2.74289
  0
LINE
  8
0
 10
-13.8259
 20
2.74289
 11
-13.8365
 21
2.45113
  0
LINE
  8
0
 10
-13.8365
 20
2.45113
 11
-13.868
 21
2.18526
  0
LINE
  8
0
 10
-13.868
 20
2.18526
 11
-13.9207
 21
1.94531
  0
LINE
  8
0
 10
-13.9207
 20
1.94531
 11
-13.9943
 21
1.73125
  0
LINE
  8
0
 10
-13.9943
 20
1.73125
 11
-14.0891
 21
1.54311
  0
LINE
  8
0
 10
-14.0891
 20
1.54311
 11
-14.2048
 21
1.38086
  0
LINE
  8
0
 10
-14.2048
 20
1.38086
 11
-14.3416
 21
1.24452
  0
LINE
  8
0
 10
-14.3416
 20
1.24452
 11
-14.5045
 21
1.12994
  0
LINE
  8
0
 10
-14.5045
 20
1.12994
 11
-14.6986
 21
1.03299
  0
LINE
  8
0
 10
-14.6986
 20
1.03299
 11
-14.9238
 21
0.953674
  0
LINE
  8
0
 10
-14.9238
 20
0.953674
 11
-15.18
 21
0.891983
  0
LINE
  8
0
 10
-15.18
 20
0.891983
 11
-15.4674
 21
0.847916
  0
LINE
  8
0
 10
-15.4674
 20
0.847916
 11
-15.786
 21
0.821472
  0
LINE
  8
0
 10
-15.786
 20
0.821472
 11
-16.1357
 21
0.812653
  0
LINE
  8
0
 10
-16.1357
 20
0.812653
 11
-17.2024
 21
0.812653
  0
LINE
  8
0
 10
6.07893
 20
-6.53401
 11
6.67462
 21
-6.45952
  0
LINE
  8
0
 10
6.67462
 20
-6.45952
 11
7.21742
 21
-6.33536
  0
LINE
  8
0
 10
7.21742
 20
-6.33536
 11
7.70732
 21
-6.16153
  0
LINE
  8
0
 10
7.70732
 20
-6.16153
 11
8.14432
 21
-5.93803
  0
LINE
  8
0
 10
8.14432
 20
-5.93803
 11
8.52841
 21
-5.66487
  0
LINE
  8
0
 10
8.52841
 20
-5.66487
 11
8.85962
 21
-5.34206
  0
LINE
  8
0
 10
8.85962
 20
-5.34206
 11
9.14264
 21
-4.96448
  0
LINE
  8
0
 10
9.14264
 20
-4.96448
 11
9.38213
 21
-4.52718
  0
LINE
  8
0
 10
9.38213
 20
-4.52718
 11
9.57806
 21
-4.03014
  0
LINE
  8
0
 10
9.57806
 20
-4.03014
 11
9.73047
 21
-3.47334
  0
LINE
  8
0
 10
9.73047
 20
-3.47334
 11
9.83932
 21
-2.85681
  0
LINE
  8
0
 10
9.83932
 20
-2.85681
 11
9.90463
 21
-2.18054
  0
LINE
  8
0
 10
9.90463
 20
-2.18054
 11
9.92641
 21
-1.44452
  0
LINE
  8
0
 10
9.92641
 20
-1.44452
 11
9.92641
 21
6.8613
  0
LINE
  8
0
 10
9.92641
 20
6.8613
 11
7.32576
 21
6.8613
  0
LINE
  8
0
 10
7.32576
 20
6.8613
 11
7.32576
 21
-2.09698
  0
LINE
  8
0
 10
7.32576
 20
-2.09698
 11
7.31549
 21
-2.37041
  0
LINE
  8
0
 10
7.31549
 20
-2.37041
 11
7.28473
 21
-2.62636
  0
LINE
  8
0
 10
7.28473
 20
-2.62636
 11
7.23344
 21
-2.86487
  0
LINE
  8
0
 10
7.23344
 20
-2.86487
 11
7.16165
 21
-3.08592
  0
LINE
  8
0
 10
7.16165
 20
-3.08592
 11
7.06934
 21
-3.28952
  0
LINE
  8
0
 10
7.06934
 20
-3.28952
 11
6.95651
 21
-3.47568
  0
LINE
  8
0
 10
6.95651
 20
-3.47568
 11
6.82317
 21
-3.64438
  0
LINE
  8
0
 10
6.82317
 20
-3.64438
 11
6.67171
 21
-3.79292
  0
LINE
  8
0
 10
6.67171
 20
-3.79292
 11
6.50439
 21
-3.91862
  0
LINE
  8
0
 10
6.50439
 20
-3.91862
 11
6.32127
 21
-4.02147
  0
LINE
  8
0
 10
6.32127
 20
-4.02147
 11
6.12231
 21
-4.10146
  0
LINE
  8
0
 10
6.12231
 20
-4.10146
 11
5.90753
 21
-4.15858
  0
LINE
  8
0
 10
5.90753
 20
-4.15858
 11
5.67693
 21
-4.19286
  0
LINE
  8
0
 10
5.67693
 20
-4.19286
 11
5.43048
 21
-4.20428
  0
LINE
  8
0
 10
5.43048
 20
-4.20428
 11
5.18401
 21
-4.19286
  0
LINE
  8
0
 10
5.18401
 20
-4.19286
 11
4.95335
 21
-4.15858
  0
LINE
  8
0
 10
4.95335
 20
-4.15858
 11
4.73854
 21
-4.10146
  0
LINE
  8
0
 10
4.73854
 20
-4.10146
 11
4.53954
 21
-4.02147
  0
LINE
  8
0
 10
4.53954
 20
-4.02147
 11
4.35638
 21
-3.91862
  0
LINE
  8
0
 10
4.35638
 20
-3.91862
 11
4.18904
 21
-3.79292
  0
LINE
  8
0
 10
4.18904
 20
-3.79292
 11
4.03754
 21
-3.64438
  0
LINE
  8
0
 10
4.03754
 20
-3.64438
 11
3.90424
 21
-3.47568
  0
LINE
  8
0
 10
3.90424
 20
-3.47568
 11
3.79143
 21
-3.28952
  0
LINE
  8
0
 10
3.79143
 20
-3.28952
 11
3.69914
 21
-3.08592
  0
LINE
  8
0
 10
3.69914
 20
-3.08592
 11
3.62737
 21
-2.86487
  0
LINE
  8
0
 10
3.62737
 20
-2.86487
 11
3.5761
 21
-2.62636
  0
LINE
  8
0
 10
3.5761
 20
-2.62636
 11
3.54533
 21
-2.37041
  0
LINE
  8
0
 10
3.54533
 20
-2.37041
 11
3.53508
 21
-2.09698
  0
LINE
  8
0
 10
3.53508
 20
-2.09698
 11
3.53508
 21
6.8613
  0
LINE
  8
0
 10
3.53508
 20
6.8613
 11
0.934433
 21
6.8613
  0
LINE
  8
0
 10
0.934433
 20
6.8613
 11
0.934433
 21
-1.44452
  0
LINE
  8
0
 10
0.934433
 20
-1.44452
 11
0.956284
 21
-2.18054
  0
LINE
  8
0
 10
0.956284
 20
-2.18054
 11
1.02187
 21
-2.85681
  0
LINE
  8
0
 10
1.02187
 20
-2.85681
 11
1.13116
 21
-3.47334
  0
LINE
  8
0
 10
1.13116
 20
-3.47334
 11
1.28416
 21
-4.03014
  0
LINE
  8
0
 10
1.28416
 20
-4.03014
 11
1.4809
 21
-4.52718
  0
LINE
  8
0
 10
1.4809
 20
-4.52718
 11
1.72134
 21
-4.96448
  0
LINE
  8
0
 10
1.72134
 20
-4.96448
 11
2.00551
 21
-5.34206
  0
LINE
  8
0
 10
2.00551
 20
-5.34206
 11
2.33771
 21
-5.66487
  0
LINE
  8
0
 10
2.33771
 20
-5.66487
 11
2.72226
 21
-5.93803
  0
LINE
  8
0
 10
2.72226
 20
-5.93803
 11
3.15916
 21
-6.16153
  0
LINE
  8
0
 10
3.15916
 20
-6.16153
 11
3.64842
 21
-6.33536
  0
LINE
  8
0
 10
3.64842
 20
-6.33536
 11
4.19005
 21
-6.45952
  0
LINE
  8
0
 10
4.19005
 20
-6.45952
 11
4.78403
 21
-6.53401
  0
LINE
  8
0
 10
4.78403
 20
-6.53401
 11
5.43036
 21
-6.55885
  0
LINE
  8
0
 10
5.43036
 20
-6.55885
 11
6.07893
 21
-6.53401
  0
LINE
  8
0
 10
4.82474
 20
-6.0352
 11
4.27736
 21
-5.96655
  0
LINE
  8
0
 10
4.27736
 20
-5.96655
 11
3.78836
 21
-5.85446
  0
LINE
  8
0
 10
3.78836
 20
-5.85446
 11
3.35762
 21
-5.70142
  0
LINE
  8
0
 10
3.35762
 20
-5.70142
 11
2.98221
 21
-5.50938
  0
LINE
  8
0
 10
2.98221
 20
-5.50938
 11
2.6586
 21
-5.27951
  0
LINE
  8
0
 10
2.6586
 20
-5.27951
 11
2.38174
 21
-5.01047
  0
LINE
  8
0
 10
2.38174
 20
-5.01047
 11
2.1423
 21
-4.69232
  0
LINE
  8
0
 10
2.1423
 20
-4.69232
 11
1.9342
 21
-4.31386
  0
LINE
  8
0
 10
1.9342
 20
-4.31386
 11
1.75909
 21
-3.87143
  0
LINE
  8
0
 10
1.75909
 20
-3.87143
 11
1.61945
 21
-3.36322
  0
LINE
  8
0
 10
1.61945
 20
-3.36322
 11
1.51762
 21
-2.78893
  0
LINE
  8
0
 10
1.51762
 20
-2.78893
 11
1.45558
 21
-2.14905
  0
LINE
  8
0
 10
1.45558
 20
-2.14905
 11
1.43443
 21
-1.43689
  0
LINE
  8
0
 10
1.43443
 20
-1.43689
 11
1.43443
 21
6.3613
  0
LINE
  8
0
 10
1.43443
 20
6.3613
 11
3.03508
 21
6.3613
  0
LINE
  8
0
 10
3.03508
 20
6.3613
 11
3.03508
 21
-2.09698
  0
LINE
  8
0
 10
3.03508
 20
-2.09698
 11
3.03543
 21
-2.11572
  0
LINE
  8
0
 10
3.03543
 20
-2.11572
 11
3.04568
 21
-2.38914
  0
LINE
  8
0
 10
3.04568
 20
-2.38914
 11
3.0489
 21
-2.43007
  0
LINE
  8
0
 10
3.0489
 20
-2.43007
 11
3.07967
 21
-2.68602
  0
LINE
  8
0
 10
3.07967
 20
-2.68602
 11
3.08727
 21
-2.73143
  0
LINE
  8
0
 10
3.08727
 20
-2.73143
 11
3.13853
 21
-2.96994
  0
LINE
  8
0
 10
3.13853
 20
-2.96994
 11
3.15181
 21
-3.01929
  0
LINE
  8
0
 10
3.15181
 20
-3.01929
 11
3.22359
 21
-3.24034
  0
LINE
  8
0
 10
3.22359
 20
-3.24034
 11
3.24374
 21
-3.29234
  0
LINE
  8
0
 10
3.24374
 20
-3.29234
 11
3.33603
 21
-3.49594
  0
LINE
  8
0
 10
3.33603
 20
-3.49594
 11
3.36382
 21
-3.54865
  0
LINE
  8
0
 10
3.36382
 20
-3.54865
 11
3.47662
 21
-3.7348
  0
LINE
  8
0
 10
3.47662
 20
-3.7348
 11
3.51193
 21
-3.78566
  0
LINE
  8
0
 10
3.51193
 20
-3.78566
 11
3.64523
 21
-3.95436
  0
LINE
  8
0
 10
3.64523
 20
-3.95436
 11
3.68748
 21
-4.0014
  0
LINE
  8
0
 10
3.68748
 20
-4.0014
 11
3.83899
 21
-4.14995
  0
LINE
  8
0
 10
3.83899
 20
-4.14995
 11
3.88875
 21
-4.1927
  0
LINE
  8
0
 10
3.88875
 20
-4.1927
 11
4.05609
 21
-4.31841
  0
LINE
  8
0
 10
4.05609
 20
-4.31841
 11
4.11157
 21
-4.3546
  0
LINE
  8
0
 10
4.11157
 20
-4.3546
 11
4.29472
 21
-4.45744
  0
LINE
  8
0
 10
4.29472
 20
-4.45744
 11
4.35307
 21
-4.4854
  0
LINE
  8
0
 10
4.35307
 20
-4.4854
 11
4.55208
 21
-4.56538
  0
LINE
  8
0
 10
4.55208
 20
-4.56538
 11
4.61003
 21
-4.58466
  0
LINE
  8
0
 10
4.61003
 20
-4.58466
 11
4.82484
 21
-4.64178
  0
LINE
  8
0
 10
4.82484
 20
-4.64178
 11
4.87987
 21
-4.65315
  0
LINE
  8
0
 10
4.87987
 20
-4.65315
 11
5.11052
 21
-4.68742
  0
LINE
  8
0
 10
5.11052
 20
-4.68742
 11
5.16084
 21
-4.69232
  0
LINE
  8
0
 10
5.16084
 20
-4.69232
 11
5.40732
 21
-4.70375
  0
LINE
  8
0
 10
5.40732
 20
-4.70375
 11
5.45364
 21
-4.70375
  0
LINE
  8
0
 10
5.45364
 20
-4.70375
 11
5.70009
 21
-4.69232
  0
LINE
  8
0
 10
5.70009
 20
-4.69232
 11
5.75043
 21
-4.68742
  0
LINE
  8
0
 10
5.75043
 20
-4.68742
 11
5.98103
 21
-4.65315
  0
LINE
  8
0
 10
5.98103
 20
-4.65315
 11
6.03606
 21
-4.64178
  0
LINE
  8
0
 10
6.03606
 20
-4.64178
 11
6.25084
 21
-4.58466
  0
LINE
  8
0
 10
6.25084
 20
-4.58466
 11
6.30882
 21
-4.56537
  0
LINE
  8
0
 10
6.30882
 20
-4.56537
 11
6.50778
 21
-4.48538
  0
LINE
  8
0
 10
6.50778
 20
-4.48538
 11
6.56612
 21
-4.45743
  0
LINE
  8
0
 10
6.56612
 20
-4.45743
 11
6.74924
 21
-4.35458
  0
LINE
  8
0
 10
6.74924
 20
-4.35458
 11
6.80473
 21
-4.31837
  0
LINE
  8
0
 10
6.80473
 20
-4.31837
 11
6.97205
 21
-4.19267
  0
LINE
  8
0
 10
6.97205
 20
-4.19267
 11
7.0218
 21
-4.14989
  0
LINE
  8
0
 10
7.0218
 20
-4.14989
 11
7.17326
 21
-4.00134
  0
LINE
  8
0
 10
7.17326
 20
-4.00134
 11
7.21542
 21
-3.95444
  0
LINE
  8
0
 10
7.21542
 20
-3.95444
 11
7.34877
 21
-3.78574
  0
LINE
  8
0
 10
7.34877
 20
-3.78574
 11
7.38411
 21
-3.73483
  0
LINE
  8
0
 10
7.38411
 20
-3.73483
 11
7.49693
 21
-3.54868
  0
LINE
  8
0
 10
7.49693
 20
-3.54868
 11
7.52472
 21
-3.496
  0
LINE
  8
0
 10
7.52472
 20
-3.496
 11
7.61703
 21
-3.2924
  0
LINE
  8
0
 10
7.61703
 20
-3.2924
 11
7.63721
 21
-3.24037
  0
LINE
  8
0
 10
7.63721
 20
-3.24037
 11
7.709
 21
-3.01932
  0
LINE
  8
0
 10
7.709
 20
-3.01932
 11
7.72227
 21
-2.96997
  0
LINE
  8
0
 10
7.72227
 20
-2.96997
 11
7.77356
 21
-2.73146
  0
LINE
  8
0
 10
7.77356
 20
-2.73146
 11
7.78116
 21
-2.68602
  0
LINE
  8
0
 10
7.78116
 20
-2.68602
 11
7.81192
 21
-2.43007
  0
LINE
  8
0
 10
7.81192
 20
-2.43007
 11
7.81514
 21
-2.38918
  0
LINE
  8
0
 10
7.81514
 20
-2.38918
 11
7.82541
 21
-2.11575
  0
LINE
  8
0
 10
7.82541
 20
-2.11575
 11
7.82576
 21
-2.09698
  0
LINE
  8
0
 10
7.82576
 20
-2.09698
 11
7.82576
 21
6.3613
  0
LINE
  8
0
 10
7.82576
 20
6.3613
 11
9.42641
 21
6.3613
  0
LINE
  8
0
 10
9.42641
 20
6.3613
 11
9.42641
 21
-1.43695
  0
LINE
  8
0
 10
9.42641
 20
-1.43695
 11
9.40533
 21
-2.14922
  0
LINE
  8
0
 10
9.40533
 20
-2.14922
 11
9.34354
 21
-2.78915
  0
LINE
  8
0
 10
9.34354
 20
-2.78915
 11
9.2421
 21
-3.36371
  0
LINE
  8
0
 10
9.2421
 20
-3.36371
 11
9.10298
 21
-3.87193
  0
LINE
  8
0
 10
9.10298
 20
-3.87193
 11
8.92848
 21
-4.31459
  0
LINE
  8
0
 10
8.92848
 20
-4.31459
 11
8.72122
 21
-4.69304
  0
LINE
  8
0
 10
8.72122
 20
-4.69304
 11
8.48279
 21
-5.01114
  0
LINE
  8
0
 10
8.48279
 20
-5.01114
 11
8.20709
 21
-5.27985
  0
LINE
  8
0
 10
8.20709
 20
-5.27985
 11
7.88429
 21
-5.50941
  0
LINE
  8
0
 10
7.88429
 20
-5.50941
 11
7.50905
 21
-5.70132
  0
LINE
  8
0
 10
7.50905
 20
-5.70132
 11
7.07755
 21
-5.85443
  0
LINE
  8
0
 10
7.07755
 20
-5.85443
 11
6.58766
 21
-5.96649
  0
LINE
  8
0
 10
6.58766
 20
-5.96649
 11
6.03822
 21
-6.0352
  0
LINE
  8
0
 10
6.03822
 20
-6.0352
 11
5.43042
 21
-6.05849
  0
LINE
  8
0
 10
5.43042
 20
-6.05849
 11
4.82474
 21
-6.0352
  0
ENDSEC
  0
SECTION
  2
OBJECTS
  0
DICTIONARY
  0
ENDSEC
  0
EOF
