<?xml version="1.0" standalone="no"?>
<!DOCTYPE svg PUBLIC "-//W3C//DTD SVG 1.1//EN" "http://www.w3.org/Graphics/SVG/1.1/DTD/svg11.dtd">
<svg width="41mm" height="14mm" viewBox="-20 -7 41 14" xmlns="http://www.w3.org/2000/svg" version="1.1">
<title>OpenSCAD Model</title>
<path d="
M -6.93057,3.04781 L -3.44839,3.04781 L -2.63745,6.30093 L -0.0368042,6.30093 L -3.58945,-6.8613 L -6.77197,-6.8613
 L -10.3246,6.30093 L -7.72397,6.30093 z
M -9.67177,5.80093 L -6.38904,-6.3613 L -3.97238,-6.3613 L -0.689651,5.80093 L -2.2468,5.80093 L -2.96324,2.92686
 L -2.97287,2.8933 L -2.99599,2.83492 L -3.02623,2.77989 L -3.06314,2.7291 L -3.10612,2.68332 L -3.1545,2.6433
 L -3.20752,2.60965 L -3.26433,2.58292 L -3.32405,2.56351 L -3.38573,2.55174 L -3.44839,2.54781 L -6.93057,2.54781
 L -6.968,2.54921 L -7.0302,2.55783 L -7.09084,2.57419 L -7.14893,2.59801 L -7.20358,2.62892 L -7.25392,2.66644
 L -7.29918,2.70998 L -7.33861,2.75883 L -7.37161,2.81226 L -7.39766,2.86938 L -7.41634,2.92934 L -8.11668,5.80093
 z
M -3.87019,1.403 L -3.80899,1.38899 L -3.75002,1.36742 L -3.69421,1.33862 L -3.64247,1.30305 L -3.59558,1.26129
 L -3.55431,1.21397 L -3.51929,1.16185 L -3.49107,1.10576 L -3.47011,1.04657 L -3.45673,0.985229 L -3.45114,0.922684
 L -3.45345,0.85994 L -3.46359,0.797974 L -4.69769,-4.59129 L -4.72548,-4.67659 L -4.75377,-4.73264 L -4.78888,-4.7847
 L -4.83023,-4.83195 L -4.87718,-4.87364 L -4.92899,-4.90913 L -4.98482,-4.93784 L -5.04382,-4.95932 L -5.10506,-4.97325
 L -5.16754,-4.97939 L -5.2303,-4.97765 L -5.29236,-4.96805 L -5.35272,-4.95074 L -5.41043,-4.92603 L -5.4646,-4.89426
 L -5.51436,-4.85596 L -5.55891,-4.81172 L -5.59758,-4.76224 L -5.62975,-4.70831 L -5.65489,-4.65079 L -5.67262,-4.59055
 L -6.89799,0.798721 L -6.90945,0.878174 L -6.90945,0.940979 L -6.9016,1.00327 L -6.88597,1.06409 L -6.86285,1.12247
 L -6.83261,1.17749 L -6.7957,1.22829 L -6.75272,1.27406 L -6.70435,1.31409 L -6.65132,1.34773 L -6.59451,1.37447
 L -6.53479,1.39388 L -6.47311,1.40564 L -6.41045,1.40958 L -3.95097,1.40958 z
M -6.41045,0.909576 L -5.18507,-4.47969 L -3.95097,0.909576 z
M 20.7623,4.01292 L 15.1998,4.01292 L 15.1998,-6.8613 L 12.5991,-6.8613 L 12.5991,6.30093 L 20.7623,6.30093
 z
M 13.0991,5.80093 L 13.0991,-6.3613 L 14.6998,-6.3613 L 14.6998,4.01292 L 14.7086,4.10661 L 14.7242,4.16743
 L 14.7473,4.22581 L 14.7776,4.28084 L 14.8145,4.33163 L 14.8575,4.37741 L 14.9059,4.41743 L 14.9589,4.45108
 L 15.0157,4.47781 L 15.0754,4.49722 L 15.1371,4.50899 L 15.1998,4.51292 L 20.2623,4.51292 L 20.2623,5.80093
 z
M -17.2024,1.37549 L -16.2326,1.37549 L -15.4855,1.3557 L -14.8009,1.2963 L -14.1787,1.19731 L -13.6189,1.05873
 L -13.1216,0.880554 L -12.6866,0.662796 L -12.3142,0.405426 L -11.9972,0.103607 L -11.7291,-0.247498 L -11.5097,-0.647949
 L -11.339,-1.09772 L -11.2171,-1.59679 L -11.144,-2.14519 L -11.1196,-2.74289 L -11.144,-3.34061 L -11.2171,-3.88899
 L -11.339,-4.38808 L -11.5097,-4.83783 L -11.7291,-5.23828 L -11.9972,-5.58942 L -12.3142,-5.89124 L -12.6866,-6.14861
 L -13.1216,-6.36636 L -13.6189,-6.54454 L -14.1787,-6.68312 L -14.8009,-6.7821 L -15.4855,-6.84149 L -16.2326,-6.8613
 L -19.8029,-6.8613 L -19.8029,6.30093 L -17.2024,6.30093 z
M -19.3029,5.80093 L -19.3029,-6.3613 L -16.239,-6.3613 L -15.5138,-6.34207 L -14.8619,-6.28552 L -14.2783,-6.19267
 L -13.7637,-6.06528 L -13.3185,-5.90581 L -12.9419,-5.71725 L -12.6306,-5.50214 L -12.3707,-5.25459 L -12.1494,-4.96481
 L -11.9649,-4.62808 L -11.8174,-4.23941 L -11.7092,-3.79639 L -11.6426,-3.29735 L -11.62,-2.74289 L -11.6426,-2.18845
 L -11.7092,-1.68939 L -11.8174,-1.24634 L -11.9648,-0.857727 L -12.1494,-0.520966 L -12.3707,-0.231247 L -12.6306,0.0163269
 L -12.9419,0.231445 L -13.3185,0.419998 L -13.7637,0.579468 L -14.2783,0.706863 L -14.8619,0.799713 L -15.5136,0.856262
 L -16.2395,0.875488 L -17.2024,0.875488 L -17.2961,0.884338 L -17.3569,0.899963 L -17.4153,0.92308 L -17.4703,0.953323
 L -17.5211,0.990234 L -17.5669,1.03322 L -17.6069,1.08159 L -17.6406,1.13461 L -17.6673,1.19142 L -17.6867,1.25114
 L -17.6985,1.31282 L -17.7024,1.37549 L -17.7024,5.80093 z
M -16.123,-0.312805 L -15.7734,-0.321625 L -15.7446,-0.323181 L -15.4261,-0.349625 L -15.3917,-0.353699 L -15.1043,-0.397766
 L -15.063,-0.405869 L -14.8067,-0.46756 L -14.7576,-0.482086 L -14.5325,-0.561401 L -14.4751,-0.585709 L -14.2811,-0.682663
 L -14.2169,-0.720978 L -14.054,-0.835556 L -13.9887,-0.890335 L -13.8519,-1.02667 L -13.7978,-1.09044 L -13.682,-1.25269
 L -13.6425,-1.31825 L -13.5477,-1.50639 L -13.5215,-1.56854 L -13.4479,-1.78261 L -13.4323,-1.8382 L -13.3796,-2.07814
 L -13.3715,-2.1263 L -13.34,-2.39217 L -13.3368,-2.43309 L -13.3262,-2.72485 L -13.3262,-2.76093 L -13.3368,-3.0527
 L -13.34,-3.09363 L -13.3715,-3.35948 L -13.3796,-3.40764 L -13.4323,-3.6476 L -13.4479,-3.7032 L -13.5215,-3.91725
 L -13.5477,-3.97937 L -13.6425,-4.16753 L -13.682,-4.23311 L -13.7978,-4.39536 L -13.8519,-4.45912 L -13.9887,-4.59546
 L -14.054,-4.65024 L -14.2169,-4.76482 L -14.2811,-4.80313 L -14.4751,-4.90009 L -14.5325,-4.92439 L -14.7576,-5.00371
 L -14.8067,-5.01823 L -15.063,-5.07993 L -15.1043,-5.08803 L -15.3917,-5.1321 L -15.4261,-5.13617 L -15.7446,-5.16261
 L -15.7734,-5.16417 L -16.123,-5.17299 L -16.1357,-5.17314 L -17.2024,-5.17314 L -17.2961,-5.16429 L -17.3569,-5.14867
 L -17.4153,-5.12555 L -17.4703,-5.09531 L -17.5211,-5.0584 L -17.5669,-5.01541 L -17.6069,-4.96704 L -17.6406,-4.91402
 L -17.6673,-4.85721 L -17.6867,-4.79749 L -17.6985,-4.73581 L -17.7024,-4.67314 L -17.7024,-0.812653 L -17.6936,-0.718964
 L -17.6779,-0.658142 L -17.6548,-0.599762 L -17.6246,-0.544739 L -17.5877,-0.493942 L -17.5447,-0.448166 L -17.4963,-0.408142
 L -17.4433,-0.374496 L -17.3865,-0.347763 L -17.3268,-0.328354 L -17.2651,-0.316589 L -17.2024,-0.312653 L -16.1357,-0.312653
 z
M -17.2024,-0.812653 L -17.2024,-4.67314 L -16.1357,-4.67314 L -15.786,-4.66432 L -15.4674,-4.63788 L -15.18,-4.59381
 L -14.9238,-4.53212 L -14.6986,-4.4528 L -14.5045,-4.35585 L -14.3416,-4.24127 L -14.2048,-4.10493 L -14.0891,-3.94269
 L -13.9943,-3.75453 L -13.9207,-3.54048 L -13.868,-3.30052 L -13.8365,-3.03467 L -13.8259,-2.74289 L -13.8365,-2.45113
 L -13.868,-2.18526 L -13.9207,-1.94531 L -13.9943,-1.73125 L -14.0891,-1.54311 L -14.2048,-1.38086 L -14.3416,-1.24452
 L -14.5045,-1.12994 L -14.6986,-1.03299 L -14.9238,-0.953674 L -15.18,-0.891983 L -15.4674,-0.847916 L -15.786,-0.821472
 L -16.1357,-0.812653 z
M 6.07893,6.53401 L 6.67462,6.45952 L 7.21742,6.33536 L 7.70732,6.16153 L 8.14432,5.93803 L 8.52841,5.66487
 L 8.85962,5.34206 L 9.14264,4.96448 L 9.38213,4.52718 L 9.57806,4.03014 L 9.73047,3.47334 L 9.83932,2.85681
 L 9.90463,2.18054 L 9.92641,1.44452 L 9.92641,-6.8613 L 7.32576,-6.8613 L 7.32576,2.09698 L 7.31549,2.37041
 L 7.28473,2.62636 L 7.23344,2.86487 L 7.16165,3.08592 L 7.06934,3.28952 L 6.95651,3.47568 L 6.82317,3.64438
 L 6.67171,3.79292 L 6.50439,3.91862 L 6.32127,4.02147 L 6.12231,4.10146 L 5.90753,4.15858 L 5.67693,4.19286
 L 5.43048,4.20428 L 5.18401,4.19286 L 4.95335,4.15858 L 4.73854,4.10146 L 4.53954,4.02147 L 4.35638,3.91862
 L 4.18904,3.79292 L 4.03754,3.64438 L 3.90424,3.47568 L 3.79143,3.28952 L 3.69914,3.08592 L 3.62737,2.86487
 L 3.5761,2.62636 L 3.54533,2.37041 L 3.53508,2.09698 L 3.53508,-6.8613 L 0.934433,-6.8613 L 0.934433,1.44452
 L 0.956284,2.18054 L 1.02187,2.85681 L 1.13116,3.47334 L 1.28416,4.03014 L 1.4809,4.52718 L 1.72134,4.96448
 L 2.00551,5.34206 L 2.33771,5.66487 L 2.72226,5.93803 L 3.15916,6.16153 L 3.64842,6.33536 L 4.19005,6.45952
 L 4.78403,6.53401 L 5.43036,6.55885 z
M 4.82474,6.0352 L 4.27736,5.96655 L 3.78836,5.85446 L 3.35762,5.70142 L 2.98221,5.50938 L 2.6586,5.27951
 L 2.38174,5.01047 L 2.1423,4.69232 L 1.9342,4.31386 L 1.75909,3.87143 L 1.61945,3.36322 L 1.51762,2.78893
 L 1.45558,2.14905 L 1.43443,1.43689 L 1.43443,-6.3613 L 3.03508,-6.3613 L 3.03508,2.09698 L 3.03543,2.11572
 L 3.04568,2.38914 L 3.0489,2.43007 L 3.07967,2.68602 L 3.08727,2.73143 L 3.13853,2.96994 L 3.15181,3.01929
 L 3.22359,3.24034 L 3.24374,3.29234 L 3.33603,3.49594 L 3.36382,3.54865 L 3.47662,3.7348 L 3.51193,3.78566
 L 3.64523,3.95436 L 3.68748,4.0014 L 3.83899,4.14995 L 3.88875,4.1927 L 4.05609,4.31841 L 4.11157,4.3546
 L 4.29472,4.45744 L 4.35307,4.4854 L 4.55208,4.56538 L 4.61003,4.58466 L 4.82484,4.64178 L 4.87987,4.65315
 L 5.11052,4.68742 L 5.16084,4.69232 L 5.40732,4.70375 L 5.45364,4.70375 L 5.70009,4.69232 L 5.75043,4.68742
 L 5.98103,4.65315 L 6.03606,4.64178 L 6.25084,4.58466 L 6.30882,4.56537 L 6.50778,4.48538 L 6.56612,4.45743
 L 6.74924,4.35458 L 6.80473,4.31837 L 6.97205,4.19267 L 7.0218,4.14989 L 7.17326,4.00134 L 7.21542,3.95444
 L 7.34877,3.78574 L 7.38411,3.73483 L 7.49693,3.54868 L 7.52472,3.496 L 7.61703,3.2924 L 7.63721,3.24037
 L 7.709,3.01932 L 7.72227,2.96997 L 7.77356,2.73146 L 7.78116,2.68602 L 7.81192,2.43007 L 7.81514,2.38918
 L 7.82541,2.11575 L 7.82576,2.09698 L 7.82576,-6.3613 L 9.42641,-6.3613 L 9.42641,1.43695 L 9.40533,2.14922
 L 9.34354,2.78915 L 9.2421,3.36371 L 9.10298,3.87193 L 8.92848,4.31459 L 8.72122,4.69304 L 8.48279,5.01114
 L 8.20709,5.27985 L 7.88429,5.50941 L 7.50905,5.70132 L 7.07755,5.85443 L 6.58766,5.96649 L 6.03822,6.0352
 L 5.43042,6.05849 z
" stroke="black" fill="lightgray" stroke-width="0.5"/>
</svg>
