<?xml version="1.0" standalone="no"?>
<!DOCTYPE svg PUBLIC "-//W3C//DTD SVG 1.1//EN" "http://www.w3.org/Graphics/SVG/1.1/DTD/svg11.dtd">
<svg width="52mm" height="14mm" viewBox="-26 -7 52 14" xmlns="http://www.w3.org/2000/svg" version="1.1">
<title>OpenSCAD Model</title>
<path d="
M 19.2645,-3.13838 L 22.9494,6.42686 L 25.7264,6.42686 L 25.7264,-6.73535 L 23.4342,-6.73535 L 23.4342,2.8299
 L 19.7669,-6.73535 L 16.9724,-6.73535 L 16.9724,6.42686 L 19.2645,6.42686 z
M 17.4724,5.92686 L 17.4724,-6.23535 L 19.4231,-6.23535 L 22.9674,3.0089 L 22.9961,3.07077 L 23.0297,3.12379
 L 23.0697,3.17216 L 23.1155,3.21515 L 23.1663,3.25206 L 23.2213,3.2823 L 23.2797,3.30542 L 23.3405,3.32104
 L 23.4028,3.3289 L 23.4656,3.3289 L 23.5279,3.32104 L 23.5887,3.30542 L 23.6471,3.2823 L 23.7021,3.25206
 L 23.7529,3.21515 L 23.7987,3.17216 L 23.8387,3.12379 L 23.8724,3.07077 L 23.8991,3.01396 L 23.9185,2.95424
 L 23.9303,2.89256 L 23.9342,2.8299 L 23.9342,-6.23535 L 25.2264,-6.23535 L 25.2264,5.92686 L 23.2926,5.92686
 L 19.731,-3.31813 L 19.7026,-3.37926 L 19.669,-3.43228 L 19.629,-3.48065 L 19.5832,-3.52364 L 19.5324,-3.56055
 L 19.4774,-3.59079 L 19.419,-3.61391 L 19.3582,-3.62953 L 19.2959,-3.63739 L 19.2331,-3.63739 L 19.1708,-3.62953
 L 19.11,-3.61391 L 19.0516,-3.59079 L 18.9966,-3.56055 L 18.9458,-3.52364 L 18.9,-3.48065 L 18.86,-3.43228
 L 18.8263,-3.37926 L 18.7996,-3.32245 L 18.7802,-3.26273 L 18.7684,-3.20105 L 18.7645,-3.13838 L 18.7645,5.92686
 z
M 14.9873,4.13887 L 9.38939,4.13887 L 9.38939,0.686066 L 14.4583,0.686066 L 14.4583,-1.60191 L 9.38939,-1.60191
 L 9.38939,-4.44736 L 14.9873,-4.44736 L 14.9873,-6.73535 L 6.78886,-6.73535 L 6.78886,6.42686 L 14.9873,6.42686
 z
M 7.28886,5.92686 L 7.28886,-6.23535 L 14.4873,-6.23535 L 14.4873,-4.94736 L 9.38939,-4.94736 L 9.2957,-4.93851
 L 9.23488,-4.92288 L 9.1765,-4.89977 L 9.12148,-4.86952 L 9.07068,-4.83261 L 9.0249,-4.78963 L 8.98488,-4.74126
 L 8.95123,-4.68823 L 8.9245,-4.63142 L 8.90509,-4.5717 L 8.89333,-4.51003 L 8.88939,-4.44736 L 8.88939,-1.60191
 L 8.89824,-1.50822 L 8.91386,-1.4474 L 8.93698,-1.38902 L 8.96722,-1.334 L 9.00414,-1.2832 L 9.04712,-1.23743
 L 9.09549,-1.1974 L 9.14851,-1.16376 L 9.20532,-1.13702 L 9.26505,-1.11761 L 9.32672,-1.10585 L 9.38939,-1.10191
 L 13.9583,-1.10191 L 13.9583,0.186066 L 9.38939,0.186066 L 9.2957,0.194916 L 9.23488,0.210541 L 9.1765,0.233658
 L 9.12148,0.263901 L 9.07068,0.300812 L 9.0249,0.343796 L 8.98488,0.392166 L 8.95123,0.44519 L 8.9245,0.501999
 L 8.90509,0.561722 L 8.89333,0.623398 L 8.88939,0.686066 L 8.88939,4.13887 L 8.89824,4.23256 L 8.91386,4.29338
 L 8.93698,4.35176 L 8.96722,4.40678 L 9.00414,4.45758 L 9.04712,4.50336 L 9.09549,4.54338 L 9.14851,4.57703
 L 9.20532,4.60376 L 9.26505,4.62317 L 9.32672,4.63493 L 9.38939,4.63887 L 14.4873,4.63887 L 14.4873,5.92686
 z
M 4.83897,4.13887 L -0.723587,4.13887 L -0.723587,-6.73535 L -3.32423,-6.73535 L -3.32423,6.42686 L 4.83897,6.42686
 z
M -2.82423,5.92686 L -2.82423,-6.23535 L -1.22359,-6.23535 L -1.22359,4.13887 L -1.21474,4.23256 L -1.19911,4.29338
 L -1.17599,4.35176 L -1.14575,4.40678 L -1.10884,4.45758 L -1.06586,4.50336 L -1.01749,4.54338 L -0.964462,4.57703
 L -0.907654,4.60376 L -0.847931,4.62317 L -0.786255,4.63493 L -0.723587,4.63887 L 4.33897,4.63887 L 4.33897,5.92686
 z
M -22.7306,0.56958 L -19.4776,0.56958 L -19.4776,6.42686 L -16.8769,6.42686 L -16.8769,-6.73535 L -19.4776,-6.73535
 L -19.4776,-1.7184 L -22.7306,-1.7184 L -22.7306,-6.73535 L -25.3312,-6.73535 L -25.3312,6.42686 L -22.7306,6.42686
 z
M -24.8312,5.92686 L -24.8312,-6.23535 L -23.2306,-6.23535 L -23.2306,-1.7184 L -23.2217,-1.62471 L -23.2061,-1.56389
 L -23.183,-1.50551 L -23.1527,-1.45049 L -23.1158,-1.39969 L -23.0728,-1.35391 L -23.0245,-1.31389 L -22.9714,-1.28024
 L -22.9146,-1.25351 L -22.8549,-1.2341 L -22.7932,-1.22234 L -22.7306,-1.2184 L -19.4776,-1.2184 L -19.3839,-1.22725
 L -19.3231,-1.24287 L -19.2647,-1.26599 L -19.2097,-1.29623 L -19.1589,-1.33315 L -19.1131,-1.37613 L -19.0731,-1.4245
 L -19.0394,-1.47752 L -19.0127,-1.53433 L -18.9933,-1.59406 L -18.9815,-1.65573 L -18.9776,-1.7184 L -18.9776,-6.23535
 L -17.3769,-6.23535 L -17.3769,5.92686 L -18.9776,5.92686 L -18.9776,0.56958 L -18.9864,0.475891 L -19.002,0.41507
 L -19.0252,0.356689 L -19.0554,0.301666 L -19.0923,0.25087 L -19.1353,0.205093 L -19.1837,0.16507 L -19.2367,0.131424
 L -19.2935,0.104691 L -19.3532,0.0852814 L -19.4149,0.0735168 L -19.4776,0.0695801 L -22.7306,0.0695801 L -22.8242,0.0784302
 L -22.8851,0.0940552 L -22.9435,0.117172 L -22.9985,0.147415 L -23.0493,0.184326 L -23.095,0.22731 L -23.1351,0.275681
 L -23.1687,0.328705 L -23.1954,0.385513 L -23.2149,0.445236 L -23.2266,0.506912 L -23.2306,0.56958 L -23.2306,5.92686
 z
M -6.2438,4.13887 L -11.8417,4.13887 L -11.8417,0.686066 L -6.77277,0.686066 L -6.77277,-1.60191 L -11.8417,-1.60191
 L -11.8417,-4.44736 L -6.2438,-4.44736 L -6.2438,-6.73535 L -14.4422,-6.73535 L -14.4422,6.42686 L -6.2438,6.42686
 z
M -13.9422,5.92686 L -13.9422,-6.23535 L -6.7438,-6.23535 L -6.7438,-4.94736 L -11.8417,-4.94736 L -11.9354,-4.93851
 L -11.9962,-4.92288 L -12.0546,-4.89977 L -12.1096,-4.86952 L -12.1604,-4.83261 L -12.2062,-4.78963 L -12.2462,-4.74126
 L -12.2799,-4.68823 L -12.3066,-4.63142 L -12.326,-4.5717 L -12.3378,-4.51003 L -12.3417,-4.44736 L -12.3417,-1.60191
 L -12.3329,-1.50822 L -12.3173,-1.4474 L -12.2941,-1.38902 L -12.2639,-1.334 L -12.227,-1.2832 L -12.184,-1.23743
 L -12.1356,-1.1974 L -12.0826,-1.16376 L -12.0258,-1.13702 L -11.9661,-1.11761 L -11.9044,-1.10585 L -11.8417,-1.10191
 L -7.27277,-1.10191 L -7.27277,0.186066 L -11.8417,0.186066 L -11.9354,0.194916 L -11.9962,0.210541 L -12.0546,0.233658
 L -12.1096,0.263901 L -12.1604,0.300812 L -12.2062,0.343796 L -12.2462,0.392166 L -12.2799,0.44519 L -12.3066,0.501999
 L -12.326,0.561722 L -12.3378,0.623398 L -12.3417,0.686066 L -12.3417,4.13887 L -12.3329,4.23256 L -12.3173,4.29338
 L -12.2941,4.35176 L -12.2639,4.40678 L -12.227,4.45758 L -12.184,4.50336 L -12.1356,4.54338 L -12.0826,4.57703
 L -12.0258,4.60376 L -11.9661,4.62317 L -11.9044,4.63493 L -11.8417,4.63887 L -6.7438,4.63887 L -6.7438,5.92686
 z
" stroke="black" fill="lightgray" stroke-width="0.5"/>
</svg>
