  0
SECTION
  2
BLOCKS
  0
ENDSEC
  0
SECTION
  2
ENTITIES
  0
LINE
  8
0
 10
19.2645
 20
3.13838
 11
22.9494
 21
-6.42686
  0
LINE
  8
0
 10
22.9494
 20
-6.42686
 11
25.7264
 21
-6.42686
  0
LINE
  8
0
 10
25.7264
 20
-6.42686
 11
25.7264
 21
6.73535
  0
LINE
  8
0
 10
25.7264
 20
6.73535
 11
23.4342
 21
6.73535
  0
LINE
  8
0
 10
23.4342
 20
6.73535
 11
23.4342
 21
-2.8299
  0
LINE
  8
0
 10
23.4342
 20
-2.8299
 11
19.7669
 21
6.73535
  0
LINE
  8
0
 10
19.7669
 20
6.73535
 11
16.9724
 21
6.73535
  0
LINE
  8
0
 10
16.9724
 20
6.73535
 11
16.9724
 21
-6.42686
  0
LINE
  8
0
 10
16.9724
 20
-6.42686
 11
19.2645
 21
-6.42686
  0
LINE
  8
0
 10
19.2645
 20
-6.42686
 11
19.2645
 21
3.13838
  0
LINE
  8
0
 10
17.4724
 20
-5.92686
 11
17.4724
 21
6.23535
  0
LINE
  8
0
 10
17.4724
 20
6.23535
 11
19.4231
 21
6.23535
  0
LINE
  8
0
 10
19.4231
 20
6.23535
 11
22.9674
 21
-3.0089
  0
LINE
  8
0
 10
22.9674
 20
-3.0089
 11
22.9961
 21
-3.07077
  0
LINE
  8
0
 10
22.9961
 20
-3.07077
 11
23.0297
 21
-3.12379
  0
LINE
  8
0
 10
23.0297
 20
-3.12379
 11
23.0697
 21
-3.17216
  0
LINE
  8
0
 10
23.0697
 20
-3.17216
 11
23.1155
 21
-3.21515
  0
LINE
  8
0
 10
23.1155
 20
-3.21515
 11
23.1663
 21
-3.25206
  0
LINE
  8
0
 10
23.1663
 20
-3.25206
 11
23.2213
 21
-3.2823
  0
LINE
  8
0
 10
23.2213
 20
-3.2823
 11
23.2797
 21
-3.30542
  0
LINE
  8
0
 10
23.2797
 20
-3.30542
 11
23.3405
 21
-3.32104
  0
LINE
  8
0
 10
23.3405
 20
-3.32104
 11
23.4028
 21
-3.3289
  0
LINE
  8
0
 10
23.4028
 20
-3.3289
 11
23.4656
 21
-3.3289
  0
LINE
  8
0
 10
23.4656
 20
-3.3289
 11
23.5279
 21
-3.32104
  0
LINE
  8
0
 10
23.5279
 20
-3.32104
 11
23.5887
 21
-3.30542
  0
LINE
  8
0
 10
23.5887
 20
-3.30542
 11
23.6471
 21
-3.2823
  0
LINE
  8
0
 10
23.6471
 20
-3.2823
 11
23.7021
 21
-3.25206
  0
LINE
  8
0
 10
23.7021
 20
-3.25206
 11
23.7529
 21
-3.21515
  0
LINE
  8
0
 10
23.7529
 20
-3.21515
 11
23.7987
 21
-3.17216
  0
LINE
  8
0
 10
23.7987
 20
-3.17216
 11
23.8387
 21
-3.12379
  0
LINE
  8
0
 10
23.8387
 20
-3.12379
 11
23.8724
 21
-3.07077
  0
LINE
  8
0
 10
23.8724
 20
-3.07077
 11
23.8991
 21
-3.01396
  0
LINE
  8
0
 10
23.8991
 20
-3.01396
 11
23.9185
 21
-2.95424
  0
LINE
  8
0
 10
23.9185
 20
-2.95424
 11
23.9303
 21
-2.89256
  0
LINE
  8
0
 10
23.9303
 20
-2.89256
 11
23.9342
 21
-2.8299
  0
LINE
  8
0
 10
23.9342
 20
-2.8299
 11
23.9342
 21
6.23535
  0
LINE
  8
0
 10
23.9342
 20
6.23535
 11
25.2264
 21
6.23535
  0
LINE
  8
0
 10
25.2264
 20
6.23535
 11
25.2264
 21
-5.92686
  0
LINE
  8
0
 10
25.2264
 20
-5.92686
 11
23.2926
 21
-5.92686
  0
LINE
  8
0
 10
23.2926
 20
-5.92686
 11
19.731
 21
3.31813
  0
LINE
  8
0
 10
19.731
 20
3.31813
 11
19.7026
 21
3.37926
  0
LINE
  8
0
 10
19.7026
 20
3.37926
 11
19.669
 21
3.43228
  0
LINE
  8
0
 10
19.669
 20
3.43228
 11
19.629
 21
3.48065
  0
LINE
  8
0
 10
19.629
 20
3.48065
 11
19.5832
 21
3.52364
  0
LINE
  8
0
 10
19.5832
 20
3.52364
 11
19.5324
 21
3.56055
  0
LINE
  8
0
 10
19.5324
 20
3.56055
 11
19.4774
 21
3.59079
  0
LINE
  8
0
 10
19.4774
 20
3.59079
 11
19.419
 21
3.61391
  0
LINE
  8
0
 10
19.419
 20
3.61391
 11
19.3582
 21
3.62953
  0
LINE
  8
0
 10
19.3582
 20
3.62953
 11
19.2959
 21
3.63739
  0
LINE
  8
0
 10
19.2959
 20
3.63739
 11
19.2331
 21
3.63739
  0
LINE
  8
0
 10
19.2331
 20
3.63739
 11
19.1708
 21
3.62953
  0
LINE
  8
0
 10
19.1708
 20
3.62953
 11
19.11
 21
3.61391
  0
LINE
  8
0
 10
19.11
 20
3.61391
 11
19.0516
 21
3.59079
  0
LINE
  8
0
 10
19.0516
 20
3.59079
 11
18.9966
 21
3.56055
  0
LINE
  8
0
 10
18.9966
 20
3.56055
 11
18.9458
 21
3.52364
  0
LINE
  8
0
 10
18.9458
 20
3.52364
 11
18.9
 21
3.48065
  0
LINE
  8
0
 10
18.9
 20
3.48065
 11
18.86
 21
3.43228
  0
LINE
  8
0
 10
18.86
 20
3.43228
 11
18.8263
 21
3.37926
  0
LINE
  8
0
 10
18.8263
 20
3.37926
 11
18.7996
 21
3.32245
  0
LINE
  8
0
 10
18.7996
 20
3.32245
 11
18.7802
 21
3.26273
  0
LINE
  8
0
 10
18.7802
 20
3.26273
 11
18.7684
 21
3.20105
  0
LINE
  8
0
 10
18.7684
 20
3.20105
 11
18.7645
 21
3.13838
  0
LINE
  8
0
 10
18.7645
 20
3.13838
 11
18.7645
 21
-5.92686
  0
LINE
  8
0
 10
18.7645
 20
-5.92686
 11
17.4724
 21
-5.92686
  0
LINE
  8
0
 10
14.9873
 20
-4.13887
 11
9.38939
 21
-4.13887
  0
LINE
  8
0
 10
9.38939
 20
-4.13887
 11
9.38939
 21
-0.686066
  0
LINE
  8
0
 10
9.38939
 20
-0.686066
 11
14.4583
 21
-0.686066
  0
LINE
  8
0
 10
14.4583
 20
-0.686066
 11
14.4583
 21
1.60191
  0
LINE
  8
0
 10
14.4583
 20
1.60191
 11
9.38939
 21
1.60191
  0
LINE
  8
0
 10
9.38939
 20
1.60191
 11
9.38939
 21
4.44736
  0
LINE
  8
0
 10
9.38939
 20
4.44736
 11
14.9873
 21
4.44736
  0
LINE
  8
0
 10
14.9873
 20
4.44736
 11
14.9873
 21
6.73535
  0
LINE
  8
0
 10
14.9873
 20
6.73535
 11
6.78886
 21
6.73535
  0
LINE
  8
0
 10
6.78886
 20
6.73535
 11
6.78886
 21
-6.42686
  0
LINE
  8
0
 10
6.78886
 20
-6.42686
 11
14.9873
 21
-6.42686
  0
LINE
  8
0
 10
14.9873
 20
-6.42686
 11
14.9873
 21
-4.13887
  0
LINE
  8
0
 10
7.28886
 20
-5.92686
 11
7.28886
 21
6.23535
  0
LINE
  8
0
 10
7.28886
 20
6.23535
 11
14.4873
 21
6.23535
  0
LINE
  8
0
 10
14.4873
 20
6.23535
 11
14.4873
 21
4.94736
  0
LINE
  8
0
 10
14.4873
 20
4.94736
 11
9.38939
 21
4.94736
  0
LINE
  8
0
 10
9.38939
 20
4.94736
 11
9.2957
 21
4.93851
  0
LINE
  8
0
 10
9.2957
 20
4.93851
 11
9.23488
 21
4.92288
  0
LINE
  8
0
 10
9.23488
 20
4.92288
 11
9.1765
 21
4.89977
  0
LINE
  8
0
 10
9.1765
 20
4.89977
 11
9.12148
 21
4.86952
  0
LINE
  8
0
 10
9.12148
 20
4.86952
 11
9.07068
 21
4.83261
  0
LINE
  8
0
 10
9.07068
 20
4.83261
 11
9.0249
 21
4.78963
  0
LINE
  8
0
 10
9.0249
 20
4.78963
 11
8.98488
 21
4.74126
  0
LINE
  8
0
 10
8.98488
 20
4.74126
 11
8.95123
 21
4.68823
  0
LINE
  8
0
 10
8.95123
 20
4.68823
 11
8.9245
 21
4.63142
  0
LINE
  8
0
 10
8.9245
 20
4.63142
 11
8.90509
 21
4.5717
  0
LINE
  8
0
 10
8.90509
 20
4.5717
 11
8.89333
 21
4.51003
  0
LINE
  8
0
 10
8.89333
 20
4.51003
 11
8.88939
 21
4.44736
  0
LINE
  8
0
 10
8.88939
 20
4.44736
 11
8.88939
 21
1.60191
  0
LINE
  8
0
 10
8.88939
 20
1.60191
 11
8.89824
 21
1.50822
  0
LINE
  8
0
 10
8.89824
 20
1.50822
 11
8.91386
 21
1.4474
  0
LINE
  8
0
 10
8.91386
 20
1.4474
 11
8.93698
 21
1.38902
  0
LINE
  8
0
 10
8.93698
 20
1.38902
 11
8.96722
 21
1.334
  0
LINE
  8
0
 10
8.96722
 20
1.334
 11
9.00414
 21
1.2832
  0
LINE
  8
0
 10
9.00414
 20
1.2832
 11
9.04712
 21
1.23743
  0
LINE
  8
0
 10
9.04712
 20
1.23743
 11
9.09549
 21
1.1974
  0
LINE
  8
0
 10
9.09549
 20
1.1974
 11
9.14851
 21
1.16376
  0
LINE
  8
0
 10
9.14851
 20
1.16376
 11
9.20532
 21
1.13702
  0
LINE
  8
0
 10
9.20532
 20
1.13702
 11
9.26505
 21
1.11761
  0
LINE
  8
0
 10
9.26505
 20
1.11761
 11
9.32672
 21
1.10585
  0
LINE
  8
0
 10
9.32672
 20
1.10585
 11
9.38939
 21
1.10191
  0
LINE
  8
0
 10
9.38939
 20
1.10191
 11
13.9583
 21
1.10191
  0
LINE
  8
0
 10
13.9583
 20
1.10191
 11
13.9583
 21
-0.186066
  0
LINE
  8
0
 10
13.9583
 20
-0.186066
 11
9.38939
 21
-0.186066
  0
LINE
  8
0
 10
9.38939
 20
-0.186066
 11
9.2957
 21
-0.194916
  0
LINE
  8
0
 10
9.2957
 20
-0.194916
 11
9.23488
 21
-0.210541
  0
LINE
  8
0
 10
9.23488
 20
-0.210541
 11
9.1765
 21
-0.233658
  0
LINE
  8
0
 10
9.1765
 20
-0.233658
 11
9.12148
 21
-0.263901
  0
LINE
  8
0
 10
9.12148
 20
-0.263901
 11
9.07068
 21
-0.300812
  0
LINE
  8
0
 10
9.07068
 20
-0.300812
 11
9.0249
 21
-0.343796
  0
LINE
  8
0
 10
9.0249
 20
-0.343796
 11
8.98488
 21
-0.392166
  0
LINE
  8
0
 10
8.98488
 20
-0.392166
 11
8.95123
 21
-0.44519
  0
LINE
  8
0
 10
8.95123
 20
-0.44519
 11
8.9245
 21
-0.501999
  0
LINE
  8
0
 10
8.9245
 20
-0.501999
 11
8.90509
 21
-0.561722
  0
LINE
  8
0
 10
8.90509
 20
-0.561722
 11
8.89333
 21
-0.623398
  0
LINE
  8
0
 10
8.89333
 20
-0.623398
 11
8.88939
 21
-0.686066
  0
LINE
  8
0
 10
8.88939
 20
-0.686066
 11
8.88939
 21
-4.13887
  0
LINE
  8
0
 10
8.88939
 20
-4.13887
 11
8.89824
 21
-4.23256
  0
LINE
  8
0
 10
8.89824
 20
-4.23256
 11
8.91386
 21
-4.29338
  0
LINE
  8
0
 10
8.91386
 20
-4.29338
 11
8.93698
 21
-4.35176
  0
LINE
  8
0
 10
8.93698
 20
-4.35176
 11
8.96722
 21
-4.40678
  0
LINE
  8
0
 10
8.96722
 20
-4.40678
 11
9.00414
 21
-4.45758
  0
LINE
  8
0
 10
9.00414
 20
-4.45758
 11
9.04712
 21
-4.50336
  0
LINE
  8
0
 10
9.04712
 20
-4.50336
 11
9.09549
 21
-4.54338
  0
LINE
  8
0
 10
9.09549
 20
-4.54338
 11
9.14851
 21
-4.57703
  0
LINE
  8
0
 10
9.14851
 20
-4.57703
 11
9.20532
 21
-4.60376
  0
LINE
  8
0
 10
9.20532
 20
-4.60376
 11
9.26505
 21
-4.62317
  0
LINE
  8
0
 10
9.26505
 20
-4.62317
 11
9.32672
 21
-4.63493
  0
LINE
  8
0
 10
9.32672
 20
-4.63493
 11
9.38939
 21
-4.63887
  0
LINE
  8
0
 10
9.38939
 20
-4.63887
 11
14.4873
 21
-4.63887
  0
LINE
  8
0
 10
14.4873
 20
-4.63887
 11
14.4873
 21
-5.92686
  0
LINE
  8
0
 10
14.4873
 20
-5.92686
 11
7.28886
 21
-5.92686
  0
LINE
  8
0
 10
4.83897
 20
-4.13887
 11
-0.723587
 21
-4.13887
  0
LINE
  8
0
 10
-0.723587
 20
-4.13887
 11
-0.723587
 21
6.73535
  0
LINE
  8
0
 10
-0.723587
 20
6.73535
 11
-3.32423
 21
6.73535
  0
LINE
  8
0
 10
-3.32423
 20
6.73535
 11
-3.32423
 21
-6.42686
  0
LINE
  8
0
 10
-3.32423
 20
-6.42686
 11
4.83897
 21
-6.42686
  0
LINE
  8
0
 10
4.83897
 20
-6.42686
 11
4.83897
 21
-4.13887
  0
LINE
  8
0
 10
-2.82423
 20
-5.92686
 11
-2.82423
 21
6.23535
  0
LINE
  8
0
 10
-2.82423
 20
6.23535
 11
-1.22359
 21
6.23535
  0
LINE
  8
0
 10
-1.22359
 20
6.23535
 11
-1.22359
 21
-4.13887
  0
LINE
  8
0
 10
-1.22359
 20
-4.13887
 11
-1.21474
 21
-4.23256
  0
LINE
  8
0
 10
-1.21474
 20
-4.23256
 11
-1.19911
 21
-4.29338
  0
LINE
  8
0
 10
-1.19911
 20
-4.29338
 11
-1.17599
 21
-4.35176
  0
LINE
  8
0
 10
-1.17599
 20
-4.35176
 11
-1.14575
 21
-4.40678
  0
LINE
  8
0
 10
-1.14575
 20
-4.40678
 11
-1.10884
 21
-4.45758
  0
LINE
  8
0
 10
-1.10884
 20
-4.45758
 11
-1.06586
 21
-4.50336
  0
LINE
  8
0
 10
-1.06586
 20
-4.50336
 11
-1.01749
 21
-4.54338
  0
LINE
  8
0
 10
-1.01749
 20
-4.54338
 11
-0.964462
 21
-4.57703
  0
LINE
  8
0
 10
-0.964462
 20
-4.57703
 11
-0.907654
 21
-4.60376
  0
LINE
  8
0
 10
-0.907654
 20
-4.60376
 11
-0.847931
 21
-4.62317
  0
LINE
  8
0
 10
-0.847931
 20
-4.62317
 11
-0.786255
 21
-4.63493
  0
LINE
  8
0
 10
-0.786255
 20
-4.63493
 11
-0.723587
 21
-4.63887
  0
LINE
  8
0
 10
-0.723587
 20
-4.63887
 11
4.33897
 21
-4.63887
  0
LINE
  8
0
 10
4.33897
 20
-4.63887
 11
4.33897
 21
-5.92686
  0
LINE
  8
0
 10
4.33897
 20
-5.92686
 11
-2.82423
 21
-5.92686
  0
LINE
  8
0
 10
-22.7306
 20
-0.56958
 11
-19.4776
 21
-0.56958
  0
LINE
  8
0
 10
-19.4776
 20
-0.56958
 11
-19.4776
 21
-6.42686
  0
LINE
  8
0
 10
-19.4776
 20
-6.42686
 11
-16.8769
 21
-6.42686
  0
LINE
  8
0
 10
-16.8769
 20
-6.42686
 11
-16.8769
 21
6.73535
  0
LINE
  8
0
 10
-16.8769
 20
6.73535
 11
-19.4776
 21
6.73535
  0
LINE
  8
0
 10
-19.4776
 20
6.73535
 11
-19.4776
 21
1.7184
  0
LINE
  8
0
 10
-19.4776
 20
1.7184
 11
-22.7306
 21
1.7184
  0
LINE
  8
0
 10
-22.7306
 20
1.7184
 11
-22.7306
 21
6.73535
  0
LINE
  8
0
 10
-22.7306
 20
6.73535
 11
-25.3312
 21
6.73535
  0
LINE
  8
0
 10
-25.3312
 20
6.73535
 11
-25.3312
 21
-6.42686
  0
LINE
  8
0
 10
-25.3312
 20
-6.42686
 11
-22.7306
 21
-6.42686
  0
LINE
  8
0
 10
-22.7306
 20
-6.42686
 11
-22.7306
 21
-0.56958
  0
LINE
  8
0
 10
-24.8312
 20
-5.92686
 11
-24.8312
 21
6.23535
  0
LINE
  8
0
 10
-24.8312
 20
6.23535
 11
-23.2306
 21
6.23535
  0
LINE
  8
0
 10
-23.2306
 20
6.23535
 11
-23.2306
 21
1.7184
  0
LINE
  8
0
 10
-23.2306
 20
1.7184
 11
-23.2217
 21
1.62471
  0
LINE
  8
0
 10
-23.2217
 20
1.62471
 11
-23.2061
 21
1.56389
  0
LINE
  8
0
 10
-23.2061
 20
1.56389
 11
-23.183
 21
1.50551
  0
LINE
  8
0
 10
-23.183
 20
1.50551
 11
-23.1527
 21
1.45049
  0
LINE
  8
0
 10
-23.1527
 20
1.45049
 11
-23.1158
 21
1.39969
  0
LINE
  8
0
 10
-23.1158
 20
1.39969
 11
-23.0728
 21
1.35391
  0
LINE
  8
0
 10
-23.0728
 20
1.35391
 11
-23.0245
 21
1.31389
  0
LINE
  8
0
 10
-23.0245
 20
1.31389
 11
-22.9714
 21
1.28024
  0
LINE
  8
0
 10
-22.9714
 20
1.28024
 11
-22.9146
 21
1.25351
  0
LINE
  8
0
 10
-22.9146
 20
1.25351
 11
-22.8549
 21
1.2341
  0
LINE
  8
0
 10
-22.8549
 20
1.2341
 11
-22.7932
 21
1.22234
  0
LINE
  8
0
 10
-22.7932
 20
1.22234
 11
-22.7306
 21
1.2184
  0
LINE
  8
0
 10
-22.7306
 20
1.2184
 11
-19.4776
 21
1.2184
  0
LINE
  8
0
 10
-19.4776
 20
1.2184
 11
-19.3839
 21
1.22725
  0
LINE
  8
0
 10
-19.3839
 20
1.22725
 11
-19.3231
 21
1.24287
  0
LINE
  8
0
 10
-19.3231
 20
1.24287
 11
-19.2647
 21
1.26599
  0
LINE
  8
0
 10
-19.2647
 20
1.26599
 11
-19.2097
 21
1.29623
  0
LINE
  8
0
 10
-19.2097
 20
1.29623
 11
-19.1589
 21
1.33315
  0
LINE
  8
0
 10
-19.1589
 20
1.33315
 11
-19.1131
 21
1.37613
  0
LINE
  8
0
 10
-19.1131
 20
1.37613
 11
-19.0731
 21
1.4245
  0
LINE
  8
0
 10
-19.0731
 20
1.4245
 11
-19.0394
 21
1.47752
  0
LINE
  8
0
 10
-19.0394
 20
1.47752
 11
-19.0127
 21
1.53433
  0
LINE
  8
0
 10
-19.0127
 20
1.53433
 11
-18.9933
 21
1.59406
  0
LINE
  8
0
 10
-18.9933
 20
1.59406
 11
-18.9815
 21
1.65573
  0
LINE
  8
0
 10
-18.9815
 20
1.65573
 11
-18.9776
 21
1.7184
  0
LINE
  8
0
 10
-18.9776
 20
1.7184
 11
-18.9776
 21
6.23535
  0
LINE
  8
0
 10
-18.9776
 20
6.23535
 11
-17.3769
 21
6.23535
  0
LINE
  8
0
 10
-17.3769
 20
6.23535
 11
-17.3769
 21
-5.92686
  0
LINE
  8
0
 10
-17.3769
 20
-5.92686
 11
-18.9776
 21
-5.92686
  0
LINE
  8
0
 10
-18.9776
 20
-5.92686
 11
-18.9776
 21
-0.56958
  0
LINE
  8
0
 10
-18.9776
 20
-0.56958
 11
-18.9864
 21
-0.475891
  0
LINE
  8
0
 10
-18.9864
 20
-0.475891
 11
-19.002
 21
-0.41507
  0
LINE
  8
0
 10
-19.002
 20
-0.41507
 11
-19.0252
 21
-0.356689
  0
LINE
  8
0
 10
-19.0252
 20
-0.356689
 11
-19.0554
 21
-0.301666
  0
LINE
  8
0
 10
-19.0554
 20
-0.301666
 11
-19.0923
 21
-0.25087
  0
LINE
  8
0
 10
-19.0923
 20
-0.25087
 11
-19.1353
 21
-0.205093
  0
LINE
  8
0
 10
-19.1353
 20
-0.205093
 11
-19.1837
 21
-0.16507
  0
LINE
  8
0
 10
-19.1837
 20
-0.16507
 11
-19.2367
 21
-0.131424
  0
LINE
  8
0
 10
-19.2367
 20
-0.131424
 11
-19.2935
 21
-0.104691
  0
LINE
  8
0
 10
-19.2935
 20
-0.104691
 11
-19.3532
 21
-0.0852814
  0
LINE
  8
0
 10
-19.3532
 20
-0.0852814
 11
-19.4149
 21
-0.0735168
  0
LINE
  8
0
 10
-19.4149
 20
-0.0735168
 11
-19.4776
 21
-0.0695801
  0
LINE
  8
0
 10
-19.4776
 20
-0.0695801
 11
-22.7306
 21
-0.0695801
  0
LINE
  8
0
 10
-22.7306
 20
-0.0695801
 11
-22.8242
 21
-0.0784302
  0
LINE
  8
0
 10
-22.8242
 20
-0.0784302
 11
-22.8851
 21
-0.0940552
  0
LINE
  8
0
 10
-22.8851
 20
-0.0940552
 11
-22.9435
 21
-0.117172
  0
LINE
  8
0
 10
-22.9435
 20
-0.117172
 11
-22.9985
 21
-0.147415
  0
LINE
  8
0
 10
-22.9985
 20
-0.147415
 11
-23.0493
 21
-0.184326
  0
LINE
  8
0
 10
-23.0493
 20
-0.184326
 11
-23.095
 21
-0.22731
  0
LINE
  8
0
 10
-23.095
 20
-0.22731
 11
-23.1351
 21
-0.275681
  0
LINE
  8
0
 10
-23.1351
 20
-0.275681
 11
-23.1687
 21
-0.328705
  0
LINE
  8
0
 10
-23.1687
 20
-0.328705
 11
-23.1954
 21
-0.385513
  0
LINE
  8
0
 10
-23.1954
 20
-0.385513
 11
-23.2149
 21
-0.445236
  0
LINE
  8
0
 10
-23.2149
 20
-0.445236
 11
-23.2266
 21
-0.506912
  0
LINE
  8
0
 10
-23.2266
 20
-0.506912
 11
-23.2306
 21
-0.56958
  0
LINE
  8
0
 10
-23.2306
 20
-0.56958
 11
-23.2306
 21
-5.92686
  0
LINE
  8
0
 10
-23.2306
 20
-5.92686
 11
-24.8312
 21
-5.92686
  0
LINE
  8
0
 10
-6.2438
 20
-4.13887
 11
-11.8417
 21
-4.13887
  0
LINE
  8
0
 10
-11.8417
 20
-4.13887
 11
-11.8417
 21
-0.686066
  0
LINE
  8
0
 10
-11.8417
 20
-0.686066
 11
-6.77277
 21
-0.686066
  0
LINE
  8
0
 10
-6.77277
 20
-0.686066
 11
-6.77277
 21
1.60191
  0
LINE
  8
0
 10
-6.77277
 20
1.60191
 11
-11.8417
 21
1.60191
  0
LINE
  8
0
 10
-11.8417
 20
1.60191
 11
-11.8417
 21
4.44736
  0
LINE
  8
0
 10
-11.8417
 20
4.44736
 11
-6.2438
 21
4.44736
  0
LINE
  8
0
 10
-6.2438
 20
4.44736
 11
-6.2438
 21
6.73535
  0
LINE
  8
0
 10
-6.2438
 20
6.73535
 11
-14.4422
 21
6.73535
  0
LINE
  8
0
 10
-14.4422
 20
6.73535
 11
-14.4422
 21
-6.42686
  0
LINE
  8
0
 10
-14.4422
 20
-6.42686
 11
-6.2438
 21
-6.42686
  0
LINE
  8
0
 10
-6.2438
 20
-6.42686
 11
-6.2438
 21
-4.13887
  0
LINE
  8
0
 10
-13.9422
 20
-5.92686
 11
-13.9422
 21
6.23535
  0
LINE
  8
0
 10
-13.9422
 20
6.23535
 11
-6.7438
 21
6.23535
  0
LINE
  8
0
 10
-6.7438
 20
6.23535
 11
-6.7438
 21
4.94736
  0
LINE
  8
0
 10
-6.7438
 20
4.94736
 11
-11.8417
 21
4.94736
  0
LINE
  8
0
 10
-11.8417
 20
4.94736
 11
-11.9354
 21
4.93851
  0
LINE
  8
0
 10
-11.9354
 20
4.93851
 11
-11.9962
 21
4.92288
  0
LINE
  8
0
 10
-11.9962
 20
4.92288
 11
-12.0546
 21
4.89977
  0
LINE
  8
0
 10
-12.0546
 20
4.89977
 11
-12.1096
 21
4.86952
  0
LINE
  8
0
 10
-12.1096
 20
4.86952
 11
-12.1604
 21
4.83261
  0
LINE
  8
0
 10
-12.1604
 20
4.83261
 11
-12.2062
 21
4.78963
  0
LINE
  8
0
 10
-12.2062
 20
4.78963
 11
-12.2462
 21
4.74126
  0
LINE
  8
0
 10
-12.2462
 20
4.74126
 11
-12.2799
 21
4.68823
  0
LINE
  8
0
 10
-12.2799
 20
4.68823
 11
-12.3066
 21
4.63142
  0
LINE
  8
0
 10
-12.3066
 20
4.63142
 11
-12.326
 21
4.5717
  0
LINE
  8
0
 10
-12.326
 20
4.5717
 11
-12.3378
 21
4.51003
  0
LINE
  8
0
 10
-12.3378
 20
4.51003
 11
-12.3417
 21
4.44736
  0
LINE
  8
0
 10
-12.3417
 20
4.44736
 11
-12.3417
 21
1.60191
  0
LINE
  8
0
 10
-12.3417
 20
1.60191
 11
-12.3329
 21
1.50822
  0
LINE
  8
0
 10
-12.3329
 20
1.50822
 11
-12.3173
 21
1.4474
  0
LINE
  8
0
 10
-12.3173
 20
1.4474
 11
-12.2941
 21
1.38902
  0
LINE
  8
0
 10
-12.2941
 20
1.38902
 11
-12.2639
 21
1.334
  0
LINE
  8
0
 10
-12.2639
 20
1.334
 11
-12.227
 21
1.2832
  0
LINE
  8
0
 10
-12.227
 20
1.2832
 11
-12.184
 21
1.23743
  0
LINE
  8
0
 10
-12.184
 20
1.23743
 11
-12.1356
 21
1.1974
  0
LINE
  8
0
 10
-12.1356
 20
1.1974
 11
-12.0826
 21
1.16376
  0
LINE
  8
0
 10
-12.0826
 20
1.16376
 11
-12.0258
 21
1.13702
  0
LINE
  8
0
 10
-12.0258
 20
1.13702
 11
-11.9661
 21
1.11761
  0
LINE
  8
0
 10
-11.9661
 20
1.11761
 11
-11.9044
 21
1.10585
  0
LINE
  8
0
 10
-11.9044
 20
1.10585
 11
-11.8417
 21
1.10191
  0
LINE
  8
0
 10
-11.8417
 20
1.10191
 11
-7.27277
 21
1.10191
  0
LINE
  8
0
 10
-7.27277
 20
1.10191
 11
-7.27277
 21
-0.186066
  0
LINE
  8
0
 10
-7.27277
 20
-0.186066
 11
-11.8417
 21
-0.186066
  0
LINE
  8
0
 10
-11.8417
 20
-0.186066
 11
-11.9354
 21
-0.194916
  0
LINE
  8
0
 10
-11.9354
 20
-0.194916
 11
-11.9962
 21
-0.210541
  0
LINE
  8
0
 10
-11.9962
 20
-0.210541
 11
-12.0546
 21
-0.233658
  0
LINE
  8
0
 10
-12.0546
 20
-0.233658
 11
-12.1096
 21
-0.263901
  0
LINE
  8
0
 10
-12.1096
 20
-0.263901
 11
-12.1604
 21
-0.300812
  0
LINE
  8
0
 10
-12.1604
 20
-0.300812
 11
-12.2062
 21
-0.343796
  0
LINE
  8
0
 10
-12.2062
 20
-0.343796
 11
-12.2462
 21
-0.392166
  0
LINE
  8
0
 10
-12.2462
 20
-0.392166
 11
-12.2799
 21
-0.44519
  0
LINE
  8
0
 10
-12.2799
 20
-0.44519
 11
-12.3066
 21
-0.501999
  0
LINE
  8
0
 10
-12.3066
 20
-0.501999
 11
-12.326
 21
-0.561722
  0
LINE
  8
0
 10
-12.326
 20
-0.561722
 11
-12.3378
 21
-0.623398
  0
LINE
  8
0
 10
-12.3378
 20
-0.623398
 11
-12.3417
 21
-0.686066
  0
LINE
  8
0
 10
-12.3417
 20
-0.686066
 11
-12.3417
 21
-4.13887
  0
LINE
  8
0
 10
-12.3417
 20
-4.13887
 11
-12.3329
 21
-4.23256
  0
LINE
  8
0
 10
-12.3329
 20
-4.23256
 11
-12.3173
 21
-4.29338
  0
LINE
  8
0
 10
-12.3173
 20
-4.29338
 11
-12.2941
 21
-4.35176
  0
LINE
  8
0
 10
-12.2941
 20
-4.35176
 11
-12.2639
 21
-4.40678
  0
LINE
  8
0
 10
-12.2639
 20
-4.40678
 11
-12.227
 21
-4.45758
  0
LINE
  8
0
 10
-12.227
 20
-4.45758
 11
-12.184
 21
-4.50336
  0
LINE
  8
0
 10
-12.184
 20
-4.50336
 11
-12.1356
 21
-4.54338
  0
LINE
  8
0
 10
-12.1356
 20
-4.54338
 11
-12.0826
 21
-4.57703
  0
LINE
  8
0
 10
-12.0826
 20
-4.57703
 11
-12.0258
 21
-4.60376
  0
LINE
  8
0
 10
-12.0258
 20
-4.60376
 11
-11.9661
 21
-4.62317
  0
LINE
  8
0
 10
-11.9661
 20
-4.62317
 11
-11.9044
 21
-4.63493
  0
LINE
  8
0
 10
-11.9044
 20
-4.63493
 11
-11.8417
 21
-4.63887
  0
LINE
  8
0
 10
-11.8417
 20
-4.63887
 11
-6.7438
 21
-4.63887
  0
LINE
  8
0
 10
-6.7438
 20
-4.63887
 11
-6.7438
 21
-5.92686
  0
LINE
  8
0
 10
-6.7438
 20
-5.92686
 11
-13.9422
 21
-5.92686
  0
ENDSEC
  0
SECTION
  2
OBJECTS
  0
DICTIONARY
  0
ENDSEC
  0
EOF
