  0
SECTION
  2
BLOCKS
  0
ENDSEC
  0
SECTION
  2
ENTITIES
  0
LINE
  8
0
 10
-22.8539
 20
-3.17375
 11
-19.3717
 21
-3.17375
  0
LINE
  8
0
 10
-19.3717
 20
-3.17375
 11
-18.5608
 21
-6.42686
  0
LINE
  8
0
 10
-18.5608
 20
-6.42686
 11
-15.9602
 21
-6.42686
  0
LINE
  8
0
 10
-15.9602
 20
-6.42686
 11
-19.5128
 21
6.73535
  0
LINE
  8
0
 10
-19.5128
 20
6.73535
 11
-22.6953
 21
6.73535
  0
LINE
  8
0
 10
-22.6953
 20
6.73535
 11
-26.248
 21
-6.42686
  0
LINE
  8
0
 10
-26.248
 20
-6.42686
 11
-23.6473
 21
-6.42686
  0
LINE
  8
0
 10
-23.6473
 20
-6.42686
 11
-22.8539
 21
-3.17375
  0
LINE
  8
0
 10
-25.5951
 20
-5.92686
 11
-22.3124
 21
6.23535
  0
LINE
  8
0
 10
-22.3124
 20
6.23535
 11
-19.8957
 21
6.23535
  0
LINE
  8
0
 10
-19.8957
 20
6.23535
 11
-16.613
 21
-5.92686
  0
LINE
  8
0
 10
-16.613
 20
-5.92686
 11
-18.1702
 21
-5.92686
  0
LINE
  8
0
 10
-18.1702
 20
-5.92686
 11
-18.8866
 21
-3.05281
  0
LINE
  8
0
 10
-18.8866
 20
-3.05281
 11
-18.8962
 21
-3.01924
  0
LINE
  8
0
 10
-18.8962
 20
-3.01924
 11
-18.9193
 21
-2.96086
  0
LINE
  8
0
 10
-18.9193
 20
-2.96086
 11
-18.9496
 21
-2.90584
  0
LINE
  8
0
 10
-18.9496
 20
-2.90584
 11
-18.9865
 21
-2.85504
  0
LINE
  8
0
 10
-18.9865
 20
-2.85504
 11
-19.0295
 21
-2.80927
  0
LINE
  8
0
 10
-19.0295
 20
-2.80927
 11
-19.0779
 21
-2.76924
  0
LINE
  8
0
 10
-19.0779
 20
-2.76924
 11
-19.1309
 21
-2.7356
  0
LINE
  8
0
 10
-19.1309
 20
-2.7356
 11
-19.1877
 21
-2.70886
  0
LINE
  8
0
 10
-19.1877
 20
-2.70886
 11
-19.2474
 21
-2.68945
  0
LINE
  8
0
 10
-19.2474
 20
-2.68945
 11
-19.3091
 21
-2.67769
  0
LINE
  8
0
 10
-19.3091
 20
-2.67769
 11
-19.3717
 21
-2.67375
  0
LINE
  8
0
 10
-19.3717
 20
-2.67375
 11
-22.8539
 21
-2.67375
  0
LINE
  8
0
 10
-22.8539
 20
-2.67375
 11
-22.8914
 21
-2.67516
  0
LINE
  8
0
 10
-22.8914
 20
-2.67516
 11
-22.9536
 21
-2.68378
  0
LINE
  8
0
 10
-22.9536
 20
-2.68378
 11
-23.0142
 21
-2.70013
  0
LINE
  8
0
 10
-23.0142
 20
-2.70013
 11
-23.0723
 21
-2.72395
  0
LINE
  8
0
 10
-23.0723
 20
-2.72395
 11
-23.1269
 21
-2.75487
  0
LINE
  8
0
 10
-23.1269
 20
-2.75487
 11
-23.1773
 21
-2.79239
  0
LINE
  8
0
 10
-23.1773
 20
-2.79239
 11
-23.2225
 21
-2.83592
  0
LINE
  8
0
 10
-23.2225
 20
-2.83592
 11
-23.262
 21
-2.88478
  0
LINE
  8
0
 10
-23.262
 20
-2.88478
 11
-23.295
 21
-2.9382
  0
LINE
  8
0
 10
-23.295
 20
-2.9382
 11
-23.321
 21
-2.99533
  0
LINE
  8
0
 10
-23.321
 20
-2.99533
 11
-23.3397
 21
-3.05528
  0
LINE
  8
0
 10
-23.3397
 20
-3.05528
 11
-24.04
 21
-5.92686
  0
LINE
  8
0
 10
-24.04
 20
-5.92686
 11
-25.5951
 21
-5.92686
  0
LINE
  8
0
 10
-19.7935
 20
-1.52893
 11
-19.7323
 21
-1.51492
  0
LINE
  8
0
 10
-19.7323
 20
-1.51492
 11
-19.6734
 21
-1.49335
  0
LINE
  8
0
 10
-19.6734
 20
-1.49335
 11
-19.6176
 21
-1.46455
  0
LINE
  8
0
 10
-19.6176
 20
-1.46455
 11
-19.5658
 21
-1.42899
  0
LINE
  8
0
 10
-19.5658
 20
-1.42899
 11
-19.5189
 21
-1.38722
  0
LINE
  8
0
 10
-19.5189
 20
-1.38722
 11
-19.4777
 21
-1.3399
  0
LINE
  8
0
 10
-19.4777
 20
-1.3399
 11
-19.4426
 21
-1.28778
  0
LINE
  8
0
 10
-19.4426
 20
-1.28778
 11
-19.4144
 21
-1.23169
  0
LINE
  8
0
 10
-19.4144
 20
-1.23169
 11
-19.3935
 21
-1.1725
  0
LINE
  8
0
 10
-19.3935
 20
-1.1725
 11
-19.3801
 21
-1.11116
  0
LINE
  8
0
 10
-19.3801
 20
-1.11116
 11
-19.3745
 21
-1.04861
  0
LINE
  8
0
 10
-19.3745
 20
-1.04861
 11
-19.3768
 21
-0.98587
  0
LINE
  8
0
 10
-19.3768
 20
-0.98587
 11
-19.3869
 21
-0.923904
  0
LINE
  8
0
 10
-19.3869
 20
-0.923904
 11
-20.621
 21
4.46536
  0
LINE
  8
0
 10
-20.621
 20
4.46536
 11
-20.6488
 21
4.55066
  0
LINE
  8
0
 10
-20.6488
 20
4.55066
 11
-20.6771
 21
4.6067
  0
LINE
  8
0
 10
-20.6771
 20
4.6067
 11
-20.7122
 21
4.65877
  0
LINE
  8
0
 10
-20.7122
 20
4.65877
 11
-20.7536
 21
4.70601
  0
LINE
  8
0
 10
-20.7536
 20
4.70601
 11
-20.8005
 21
4.74771
  0
LINE
  8
0
 10
-20.8005
 20
4.74771
 11
-20.8523
 21
4.7832
  0
LINE
  8
0
 10
-20.8523
 20
4.7832
 11
-20.9082
 21
4.8119
  0
LINE
  8
0
 10
-20.9082
 20
4.8119
 11
-20.9672
 21
4.83339
  0
LINE
  8
0
 10
-20.9672
 20
4.83339
 11
-21.0284
 21
4.84732
  0
LINE
  8
0
 10
-21.0284
 20
4.84732
 11
-21.0909
 21
4.85345
  0
LINE
  8
0
 10
-21.0909
 20
4.85345
 11
-21.1536
 21
4.85172
  0
LINE
  8
0
 10
-21.1536
 20
4.85172
 11
-21.2157
 21
4.84212
  0
LINE
  8
0
 10
-21.2157
 20
4.84212
 11
-21.2761
 21
4.82481
  0
LINE
  8
0
 10
-21.2761
 20
4.82481
 11
-21.3338
 21
4.80009
  0
LINE
  8
0
 10
-21.3338
 20
4.80009
 11
-21.3879
 21
4.76833
  0
LINE
  8
0
 10
-21.3879
 20
4.76833
 11
-21.4377
 21
4.73003
  0
LINE
  8
0
 10
-21.4377
 20
4.73003
 11
-21.4823
 21
4.68579
  0
LINE
  8
0
 10
-21.4823
 20
4.68579
 11
-21.5209
 21
4.63631
  0
LINE
  8
0
 10
-21.5209
 20
4.63631
 11
-21.5531
 21
4.58238
  0
LINE
  8
0
 10
-21.5531
 20
4.58238
 11
-21.5782
 21
4.52486
  0
LINE
  8
0
 10
-21.5782
 20
4.52486
 11
-21.596
 21
4.46461
  0
LINE
  8
0
 10
-21.596
 20
4.46461
 11
-22.8214
 21
-0.924652
  0
LINE
  8
0
 10
-22.8214
 20
-0.924652
 11
-22.8328
 21
-1.0041
  0
LINE
  8
0
 10
-22.8328
 20
-1.0041
 11
-22.8328
 21
-1.06691
  0
LINE
  8
0
 10
-22.8328
 20
-1.06691
 11
-22.825
 21
-1.1292
  0
LINE
  8
0
 10
-22.825
 20
-1.1292
 11
-22.8093
 21
-1.19002
  0
LINE
  8
0
 10
-22.8093
 20
-1.19002
 11
-22.7862
 21
-1.2484
  0
LINE
  8
0
 10
-22.7862
 20
-1.2484
 11
-22.756
 21
-1.30342
  0
LINE
  8
0
 10
-22.756
 20
-1.30342
 11
-22.7191
 21
-1.35422
  0
LINE
  8
0
 10
-22.7191
 20
-1.35422
 11
-22.6761
 21
-1.39999
  0
LINE
  8
0
 10
-22.6761
 20
-1.39999
 11
-22.6277
 21
-1.44002
  0
LINE
  8
0
 10
-22.6277
 20
-1.44002
 11
-22.5747
 21
-1.47366
  0
LINE
  8
0
 10
-22.5747
 20
-1.47366
 11
-22.5179
 21
-1.5004
  0
LINE
  8
0
 10
-22.5179
 20
-1.5004
 11
-22.4581
 21
-1.51981
  0
LINE
  8
0
 10
-22.4581
 20
-1.51981
 11
-22.3965
 21
-1.53157
  0
LINE
  8
0
 10
-22.3965
 20
-1.53157
 11
-22.3338
 21
-1.53551
  0
LINE
  8
0
 10
-22.3338
 20
-1.53551
 11
-19.8743
 21
-1.53551
  0
LINE
  8
0
 10
-19.8743
 20
-1.53551
 11
-19.7935
 21
-1.52893
  0
LINE
  8
0
 10
-22.3338
 20
-1.03551
 11
-21.1084
 21
4.35376
  0
LINE
  8
0
 10
-21.1084
 20
4.35376
 11
-19.8743
 21
-1.03551
  0
LINE
  8
0
 10
-19.8743
 20
-1.03551
 11
-22.3338
 21
-1.03551
  0
LINE
  8
0
 10
-0.429337
 20
-6.39529
 11
0.381851
 21
-6.30057
  0
LINE
  8
0
 10
0.381851
 20
-6.30057
 11
1.11931
 21
-6.1427
  0
LINE
  8
0
 10
1.11931
 20
-6.1427
 11
1.78299
 21
-5.92168
  0
LINE
  8
0
 10
1.78299
 20
-5.92168
 11
2.37291
 21
-5.63751
  0
LINE
  8
0
 10
2.37291
 20
-5.63751
 11
2.88908
 21
-5.29021
  0
LINE
  8
0
 10
2.88908
 20
-5.29021
 11
3.33148
 21
-4.87973
  0
LINE
  8
0
 10
3.33148
 20
-4.87973
 11
3.70805
 21
-4.39781
  0
LINE
  8
0
 10
3.70805
 20
-4.39781
 11
4.02667
 21
-3.83618
  0
LINE
  8
0
 10
4.02667
 20
-3.83618
 11
4.28737
 21
-3.19485
  0
LINE
  8
0
 10
4.28737
 20
-3.19485
 11
4.49013
 21
-2.47382
  0
LINE
  8
0
 10
4.49013
 20
-2.47382
 11
4.63496
 21
-1.67308
  0
LINE
  8
0
 10
4.63496
 20
-1.67308
 11
4.72186
 21
-0.792633
  0
LINE
  8
0
 10
4.72186
 20
-0.792633
 11
4.75082
 21
0.167496
  0
LINE
  8
0
 10
4.75082
 20
0.167496
 11
4.72186
 21
1.12512
  0
LINE
  8
0
 10
4.72186
 20
1.12512
 11
4.63496
 21
2.00302
  0
LINE
  8
0
 10
4.63496
 20
2.00302
 11
4.49013
 21
2.80122
  0
LINE
  8
0
 10
4.49013
 20
2.80122
 11
4.28737
 21
3.51971
  0
LINE
  8
0
 10
4.28737
 20
3.51971
 11
4.02667
 21
4.15849
  0
LINE
  8
0
 10
4.02667
 20
4.15849
 11
3.70805
 21
4.71758
  0
LINE
  8
0
 10
3.70805
 20
4.71758
 11
3.33148
 21
5.19693
  0
LINE
  8
0
 10
3.33148
 20
5.19693
 11
2.88908
 21
5.60509
  0
LINE
  8
0
 10
2.88908
 20
5.60509
 11
2.37291
 21
5.95045
  0
LINE
  8
0
 10
2.37291
 20
5.95045
 11
1.78299
 21
6.23302
  0
LINE
  8
0
 10
1.78299
 20
6.23302
 11
1.11931
 21
6.45279
  0
LINE
  8
0
 10
1.11931
 20
6.45279
 11
0.381851
 21
6.60977
  0
LINE
  8
0
 10
0.381851
 20
6.60977
 11
-0.429337
 21
6.70396
  0
LINE
  8
0
 10
-0.429337
 20
6.70396
 11
-1.3143
 21
6.73535
  0
LINE
  8
0
 10
-1.3143
 20
6.73535
 11
-4.10008
 21
6.73535
  0
LINE
  8
0
 10
-4.10008
 20
6.73535
 11
-4.10008
 21
-6.42686
  0
LINE
  8
0
 10
-4.10008
 20
-6.42686
 11
-1.3143
 21
-6.42686
  0
LINE
  8
0
 10
-1.3143
 20
-6.42686
 11
-0.429337
 21
-6.39529
  0
LINE
  8
0
 10
-3.60008
 20
-5.92686
 11
-3.60008
 21
6.23535
  0
LINE
  8
0
 10
-3.60008
 20
6.23535
 11
-1.32298
 21
6.23535
  0
LINE
  8
0
 10
-1.32298
 20
6.23535
 11
-0.467133
 21
6.205
  0
LINE
  8
0
 10
-0.467133
 20
6.205
 11
0.300751
 21
6.11583
  0
LINE
  8
0
 10
0.300751
 20
6.11583
 11
0.988251
 21
5.96948
  0
LINE
  8
0
 10
0.988251
 20
5.96948
 11
1.59567
 21
5.76834
  0
LINE
  8
0
 10
1.59567
 20
5.76834
 11
2.12463
 21
5.51497
  0
LINE
  8
0
 10
2.12463
 20
5.51497
 11
2.57863
 21
5.21121
  0
LINE
  8
0
 10
2.57863
 20
5.21121
 11
2.96301
 21
4.85658
  0
LINE
  8
0
 10
2.96301
 20
4.85658
 11
3.29201
 21
4.43777
  0
LINE
  8
0
 10
3.29201
 20
4.43777
 11
3.57607
 21
3.93936
  0
LINE
  8
0
 10
3.57607
 20
3.93936
 11
3.81383
 21
3.35677
  0
LINE
  8
0
 10
3.81383
 20
3.35677
 11
4.00241
 21
2.68852
  0
LINE
  8
0
 10
4.00241
 20
2.68852
 11
4.13939
 21
1.93364
  0
LINE
  8
0
 10
4.13939
 20
1.93364
 11
4.22261
 21
1.09282
  0
LINE
  8
0
 10
4.22261
 20
1.09282
 11
4.2506
 21
0.16745
  0
LINE
  8
0
 10
4.2506
 20
0.16745
 11
4.22261
 21
-0.760376
  0
LINE
  8
0
 10
4.22261
 20
-0.760376
 11
4.13934
 21
-1.60397
  0
LINE
  8
0
 10
4.13934
 20
-1.60397
 11
4.00235
 21
-2.36136
  0
LINE
  8
0
 10
4.00235
 20
-2.36136
 11
3.81361
 21
-3.03253
  0
LINE
  8
0
 10
3.81361
 20
-3.03253
 11
3.57571
 21
-3.61778
  0
LINE
  8
0
 10
3.57571
 20
-3.61778
 11
3.29137
 21
-4.11902
  0
LINE
  8
0
 10
3.29137
 20
-4.11902
 11
2.96213
 21
-4.54036
  0
LINE
  8
0
 10
2.96213
 20
-4.54036
 11
2.57759
 21
-4.89714
  0
LINE
  8
0
 10
2.57759
 20
-4.89714
 11
2.1236
 21
-5.20261
  0
LINE
  8
0
 10
2.1236
 20
-5.20261
 11
1.59465
 21
-5.4574
  0
LINE
  8
0
 10
1.59465
 20
-5.4574
 11
0.987595
 21
-5.65958
  0
LINE
  8
0
 10
0.987595
 20
-5.65958
 11
0.300385
 21
-5.80669
  0
LINE
  8
0
 10
0.300385
 20
-5.80669
 11
-0.467377
 21
-5.89633
  0
LINE
  8
0
 10
-0.467377
 20
-5.89633
 11
-1.32314
 21
-5.92686
  0
LINE
  8
0
 10
-1.32314
 20
-5.92686
 11
-3.60008
 21
-5.92686
  0
LINE
  8
0
 10
-0.770767
 20
-4.58008
 11
-0.350479
 21
-4.56038
  0
LINE
  8
0
 10
-0.350479
 20
-4.56038
 11
-0.297913
 21
-4.55511
  0
LINE
  8
0
 10
-0.297913
 20
-4.55511
 11
0.08638
 21
-4.49603
  0
LINE
  8
0
 10
0.08638
 20
-4.49603
 11
0.146423
 21
-4.48299
  0
LINE
  8
0
 10
0.146423
 20
-4.48299
 11
0.494751
 21
-4.38452
  0
LINE
  8
0
 10
0.494751
 20
-4.38452
 11
0.560623
 21
-4.36081
  0
LINE
  8
0
 10
0.560623
 20
-4.36081
 11
0.872955
 21
-4.22296
  0
LINE
  8
0
 10
0.872955
 20
-4.22296
 11
0.94101
 21
-4.1864
  0
LINE
  8
0
 10
0.94101
 20
-4.1864
 11
1.21736
 21
-4.00916
  0
LINE
  8
0
 10
1.21736
 20
-4.00916
 11
1.28217
 21
-3.9597
  0
LINE
  8
0
 10
1.28217
 20
-3.9597
 11
1.52252
 21
-3.74307
  0
LINE
  8
0
 10
1.52252
 20
-3.74307
 11
1.57854
 21
-3.68359
  0
LINE
  8
0
 10
1.57854
 20
-3.68359
 11
1.78291
 21
-3.42757
  0
LINE
  8
0
 10
1.78291
 20
-3.42757
 11
1.82645
 21
-3.36339
  0
LINE
  8
0
 10
1.82645
 20
-3.36339
 11
1.99951
 21
-3.06003
  0
LINE
  8
0
 10
1.99951
 20
-3.06003
 11
2.02809
 21
-3.00133
  0
LINE
  8
0
 10
2.02809
 20
-3.00133
 11
2.17455
 21
-2.64276
  0
LINE
  8
0
 10
2.17455
 20
-2.64276
 11
2.19194
 21
-2.59276
  0
LINE
  8
0
 10
2.19194
 20
-2.59276
 11
2.31175
 21
-2.17896
  0
LINE
  8
0
 10
2.31175
 20
-2.17896
 11
2.3219
 21
-2.13734
  0
LINE
  8
0
 10
2.3219
 20
-2.13734
 11
2.41508
 21
-1.66832
  0
LINE
  8
0
 10
2.41508
 20
-1.66832
 11
2.42068
 21
-1.63387
  0
LINE
  8
0
 10
2.42068
 20
-1.63387
 11
2.48726
 21
-1.10962
  0
LINE
  8
0
 10
2.48726
 20
-1.10962
 11
2.49005
 21
-1.08101
  0
LINE
  8
0
 10
2.49005
 20
-1.08101
 11
2.52998
 21
-0.501556
  0
LINE
  8
0
 10
2.52998
 20
-0.501556
 11
2.53107
 21
-0.477676
  0
LINE
  8
0
 10
2.53107
 20
-0.477676
 11
2.54439
 21
0.156998
  0
LINE
  8
0
 10
2.54439
 20
0.156998
 11
2.54439
 21
0.17807
  0
LINE
  8
0
 10
2.54439
 20
0.17807
 11
2.53107
 21
0.807938
  0
LINE
  8
0
 10
2.53107
 20
0.807938
 11
2.52997
 21
0.831985
  0
LINE
  8
0
 10
2.52997
 20
0.831985
 11
2.49004
 21
1.40718
  0
LINE
  8
0
 10
2.49004
 20
1.40718
 11
2.4872
 21
1.43599
  0
LINE
  8
0
 10
2.4872
 20
1.43599
 11
2.42062
 21
1.95651
  0
LINE
  8
0
 10
2.42062
 20
1.95651
 11
2.41495
 21
1.99115
  0
LINE
  8
0
 10
2.41495
 20
1.99115
 11
2.32176
 21
2.457
  0
LINE
  8
0
 10
2.32176
 20
2.457
 11
2.31152
 21
2.49881
  0
LINE
  8
0
 10
2.31152
 20
2.49881
 11
2.19171
 21
2.90997
  0
LINE
  8
0
 10
2.19171
 20
2.90997
 11
2.17416
 21
2.9601
  0
LINE
  8
0
 10
2.17416
 20
2.9601
 11
2.02771
 21
3.31659
  0
LINE
  8
0
 10
2.02771
 20
3.31659
 11
1.99898
 21
3.37529
  0
LINE
  8
0
 10
1.99898
 20
3.37529
 11
1.82591
 21
3.67712
  0
LINE
  8
0
 10
1.82591
 20
3.67712
 11
1.78223
 21
3.74121
  0
LINE
  8
0
 10
1.78223
 20
3.74121
 11
1.57785
 21
3.99609
  0
LINE
  8
0
 10
1.57785
 20
3.99609
 11
1.5217
 21
4.05545
  0
LINE
  8
0
 10
1.5217
 20
4.05545
 11
1.28134
 21
4.27112
  0
LINE
  8
0
 10
1.28134
 20
4.27112
 11
1.21649
 21
4.32039
  0
LINE
  8
0
 10
1.21649
 20
4.32039
 11
0.94014
 21
4.49684
  0
LINE
  8
0
 10
0.94014
 20
4.49684
 11
0.872208
 21
4.53319
  0
LINE
  8
0
 10
0.872208
 20
4.53319
 11
0.559875
 21
4.67043
  0
LINE
  8
0
 10
0.559875
 20
4.67043
 11
0.494202
 21
4.69395
  0
LINE
  8
0
 10
0.494202
 20
4.69395
 11
0.145874
 21
4.79199
  0
LINE
  8
0
 10
0.145874
 20
4.79199
 11
0.0860443
 21
4.80495
  0
LINE
  8
0
 10
0.0860443
 20
4.80495
 11
-0.298248
 21
4.86375
  0
LINE
  8
0
 10
-0.298248
 20
4.86375
 11
-0.350586
 21
4.86896
  0
LINE
  8
0
 10
-0.350586
 20
4.86896
 11
-0.770874
 21
4.88857
  0
LINE
  8
0
 10
-0.770874
 20
4.88857
 11
-0.794174
 21
4.88911
  0
LINE
  8
0
 10
-0.794174
 20
4.88911
 11
-1.49942
 21
4.88911
  0
LINE
  8
0
 10
-1.49942
 20
4.88911
 11
-1.59311
 21
4.88026
  0
LINE
  8
0
 10
-1.59311
 20
4.88026
 11
-1.65393
 21
4.86464
  0
LINE
  8
0
 10
-1.65393
 20
4.86464
 11
-1.71231
 21
4.84152
  0
LINE
  8
0
 10
-1.71231
 20
4.84152
 11
-1.76733
 21
4.81128
  0
LINE
  8
0
 10
-1.76733
 20
4.81128
 11
-1.81813
 21
4.77437
  0
LINE
  8
0
 10
-1.81813
 20
4.77437
 11
-1.86391
 21
4.73138
  0
LINE
  8
0
 10
-1.86391
 20
4.73138
 11
-1.90393
 21
4.68301
  0
LINE
  8
0
 10
-1.90393
 20
4.68301
 11
-1.93758
 21
4.62999
  0
LINE
  8
0
 10
-1.93758
 20
4.62999
 11
-1.96431
 21
4.57318
  0
LINE
  8
0
 10
-1.96431
 20
4.57318
 11
-1.98372
 21
4.51346
  0
LINE
  8
0
 10
-1.98372
 20
4.51346
 11
-1.99548
 21
4.45178
  0
LINE
  8
0
 10
-1.99548
 20
4.45178
 11
-1.99942
 21
4.38911
  0
LINE
  8
0
 10
-1.99942
 20
4.38911
 11
-1.99942
 21
-4.08063
  0
LINE
  8
0
 10
-1.99942
 20
-4.08063
 11
-1.99057
 21
-4.17432
  0
LINE
  8
0
 10
-1.99057
 20
-4.17432
 11
-1.97495
 21
-4.23514
  0
LINE
  8
0
 10
-1.97495
 20
-4.23514
 11
-1.95183
 21
-4.29352
  0
LINE
  8
0
 10
-1.95183
 20
-4.29352
 11
-1.92159
 21
-4.34854
  0
LINE
  8
0
 10
-1.92159
 20
-4.34854
 11
-1.88467
 21
-4.39934
  0
LINE
  8
0
 10
-1.88467
 20
-4.39934
 11
-1.84169
 21
-4.44511
  0
LINE
  8
0
 10
-1.84169
 20
-4.44511
 11
-1.79332
 21
-4.48514
  0
LINE
  8
0
 10
-1.79332
 20
-4.48514
 11
-1.7403
 21
-4.51878
  0
LINE
  8
0
 10
-1.7403
 20
-4.51878
 11
-1.68349
 21
-4.54552
  0
LINE
  8
0
 10
-1.68349
 20
-4.54552
 11
-1.62376
 21
-4.56493
  0
LINE
  8
0
 10
-1.62376
 20
-4.56493
 11
-1.56209
 21
-4.57669
  0
LINE
  8
0
 10
-1.56209
 20
-4.57669
 11
-1.49942
 21
-4.58063
  0
LINE
  8
0
 10
-1.49942
 20
-4.58063
 11
-0.794174
 21
-4.58063
  0
LINE
  8
0
 10
-0.794174
 20
-4.58063
 11
-0.770767
 21
-4.58008
  0
LINE
  8
0
 10
-1.49942
 20
-4.08063
 11
-1.49942
 21
4.38911
  0
LINE
  8
0
 10
-1.49942
 20
4.38911
 11
-0.794174
 21
4.38911
  0
LINE
  8
0
 10
-0.794174
 20
4.38911
 11
-0.373886
 21
4.36951
  0
LINE
  8
0
 10
-0.373886
 20
4.36951
 11
0.0104065
 21
4.3107
  0
LINE
  8
0
 10
0.0104065
 20
4.3107
 11
0.358734
 21
4.21266
  0
LINE
  8
0
 10
0.358734
 20
4.21266
 11
0.671066
 21
4.07542
  0
LINE
  8
0
 10
0.671066
 20
4.07542
 11
0.947418
 21
3.89897
  0
LINE
  8
0
 10
0.947418
 20
3.89897
 11
1.18777
 21
3.6833
  0
LINE
  8
0
 10
1.18777
 20
3.6833
 11
1.39215
 21
3.42842
  0
LINE
  8
0
 10
1.39215
 20
3.42842
 11
1.56522
 21
3.12659
  0
LINE
  8
0
 10
1.56522
 20
3.12659
 11
1.71167
 21
2.7701
  0
LINE
  8
0
 10
1.71167
 20
2.7701
 11
1.83148
 21
2.35893
  0
LINE
  8
0
 10
1.83148
 20
2.35893
 11
1.92467
 21
1.89308
  0
LINE
  8
0
 10
1.92467
 20
1.89308
 11
1.99124
 21
1.37256
  0
LINE
  8
0
 10
1.99124
 20
1.37256
 11
2.03117
 21
0.797363
  0
LINE
  8
0
 10
2.03117
 20
0.797363
 11
2.04449
 21
0.167496
  0
LINE
  8
0
 10
2.04449
 20
0.167496
 11
2.03117
 21
-0.467178
  0
LINE
  8
0
 10
2.03117
 20
-0.467178
 11
1.99124
 21
-1.04663
  0
LINE
  8
0
 10
1.99124
 20
-1.04663
 11
1.92467
 21
-1.57088
  0
LINE
  8
0
 10
1.92467
 20
-1.57088
 11
1.83148
 21
-2.0399
  0
LINE
  8
0
 10
1.83148
 20
-2.0399
 11
1.71167
 21
-2.4537
  0
LINE
  8
0
 10
1.71167
 20
-2.4537
 11
1.56522
 21
-2.81227
  0
LINE
  8
0
 10
1.56522
 20
-2.81227
 11
1.39215
 21
-3.11563
  0
LINE
  8
0
 10
1.39215
 20
-3.11563
 11
1.18777
 21
-3.37166
  0
LINE
  8
0
 10
1.18777
 20
-3.37166
 11
0.947418
 21
-3.58829
  0
LINE
  8
0
 10
0.947418
 20
-3.58829
 11
0.671066
 21
-3.76553
  0
LINE
  8
0
 10
0.671066
 20
-3.76553
 11
0.358734
 21
-3.90338
  0
LINE
  8
0
 10
0.358734
 20
-3.90338
 11
0.0104065
 21
-4.00185
  0
LINE
  8
0
 10
0.0104065
 20
-4.00185
 11
-0.373886
 21
-4.06093
  0
LINE
  8
0
 10
-0.373886
 20
-4.06093
 11
-0.794174
 21
-4.08063
  0
LINE
  8
0
 10
-0.794174
 20
-4.08063
 11
-1.49942
 21
-4.08063
  0
LINE
  8
0
 10
-12.5822
 20
3.13838
 11
-8.89723
 21
-6.42686
  0
LINE
  8
0
 10
-8.89723
 20
-6.42686
 11
-6.1203
 21
-6.42686
  0
LINE
  8
0
 10
-6.1203
 20
-6.42686
 11
-6.1203
 21
6.73535
  0
LINE
  8
0
 10
-6.1203
 20
6.73535
 11
-8.41246
 21
6.73535
  0
LINE
  8
0
 10
-8.41246
 20
6.73535
 11
-8.41246
 21
-2.8299
  0
LINE
  8
0
 10
-8.41246
 20
-2.8299
 11
-12.0798
 21
6.73535
  0
LINE
  8
0
 10
-12.0798
 20
6.73535
 11
-14.8742
 21
6.73535
  0
LINE
  8
0
 10
-14.8742
 20
6.73535
 11
-14.8742
 21
-6.42686
  0
LINE
  8
0
 10
-14.8742
 20
-6.42686
 11
-12.5822
 21
-6.42686
  0
LINE
  8
0
 10
-12.5822
 20
-6.42686
 11
-12.5822
 21
3.13838
  0
LINE
  8
0
 10
-14.3742
 20
-5.92686
 11
-14.3742
 21
6.23535
  0
LINE
  8
0
 10
-14.3742
 20
6.23535
 11
-12.4235
 21
6.23535
  0
LINE
  8
0
 10
-12.4235
 20
6.23535
 11
-8.87932
 21
-3.0089
  0
LINE
  8
0
 10
-8.87932
 20
-3.0089
 11
-8.85062
 21
-3.07077
  0
LINE
  8
0
 10
-8.85062
 20
-3.07077
 11
-8.81697
 21
-3.12379
  0
LINE
  8
0
 10
-8.81697
 20
-3.12379
 11
-8.77695
 21
-3.17216
  0
LINE
  8
0
 10
-8.77695
 20
-3.17216
 11
-8.73117
 21
-3.21515
  0
LINE
  8
0
 10
-8.73117
 20
-3.21515
 11
-8.68037
 21
-3.25206
  0
LINE
  8
0
 10
-8.68037
 20
-3.25206
 11
-8.62535
 21
-3.2823
  0
LINE
  8
0
 10
-8.62535
 20
-3.2823
 11
-8.56697
 21
-3.30542
  0
LINE
  8
0
 10
-8.56697
 20
-3.30542
 11
-8.50615
 21
-3.32104
  0
LINE
  8
0
 10
-8.50615
 20
-3.32104
 11
-8.44386
 21
-3.3289
  0
LINE
  8
0
 10
-8.44386
 20
-3.3289
 11
-8.38106
 21
-3.3289
  0
LINE
  8
0
 10
-8.38106
 20
-3.3289
 11
-8.31877
 21
-3.32104
  0
LINE
  8
0
 10
-8.31877
 20
-3.32104
 11
-8.25795
 21
-3.30542
  0
LINE
  8
0
 10
-8.25795
 20
-3.30542
 11
-8.19957
 21
-3.2823
  0
LINE
  8
0
 10
-8.19957
 20
-3.2823
 11
-8.14455
 21
-3.25206
  0
LINE
  8
0
 10
-8.14455
 20
-3.25206
 11
-8.09375
 21
-3.21515
  0
LINE
  8
0
 10
-8.09375
 20
-3.21515
 11
-8.04797
 21
-3.17216
  0
LINE
  8
0
 10
-8.04797
 20
-3.17216
 11
-8.00795
 21
-3.12379
  0
LINE
  8
0
 10
-8.00795
 20
-3.12379
 11
-7.9743
 21
-3.07077
  0
LINE
  8
0
 10
-7.9743
 20
-3.07077
 11
-7.94757
 21
-3.01396
  0
LINE
  8
0
 10
-7.94757
 20
-3.01396
 11
-7.92816
 21
-2.95424
  0
LINE
  8
0
 10
-7.92816
 20
-2.95424
 11
-7.9164
 21
-2.89256
  0
LINE
  8
0
 10
-7.9164
 20
-2.89256
 11
-7.91246
 21
-2.8299
  0
LINE
  8
0
 10
-7.91246
 20
-2.8299
 11
-7.91246
 21
6.23535
  0
LINE
  8
0
 10
-7.91246
 20
6.23535
 11
-6.6203
 21
6.23535
  0
LINE
  8
0
 10
-6.6203
 20
6.23535
 11
-6.6203
 21
-5.92686
  0
LINE
  8
0
 10
-6.6203
 20
-5.92686
 11
-8.55405
 21
-5.92686
  0
LINE
  8
0
 10
-8.55405
 20
-5.92686
 11
-12.1156
 21
3.31813
  0
LINE
  8
0
 10
-12.1156
 20
3.31813
 11
-12.1441
 21
3.37926
  0
LINE
  8
0
 10
-12.1441
 20
3.37926
 11
-12.1777
 21
3.43228
  0
LINE
  8
0
 10
-12.1777
 20
3.43228
 11
-12.2177
 21
3.48065
  0
LINE
  8
0
 10
-12.2177
 20
3.48065
 11
-12.2635
 21
3.52364
  0
LINE
  8
0
 10
-12.2635
 20
3.52364
 11
-12.3143
 21
3.56055
  0
LINE
  8
0
 10
-12.3143
 20
3.56055
 11
-12.3693
 21
3.59079
  0
LINE
  8
0
 10
-12.3693
 20
3.59079
 11
-12.4277
 21
3.61391
  0
LINE
  8
0
 10
-12.4277
 20
3.61391
 11
-12.4885
 21
3.62953
  0
LINE
  8
0
 10
-12.4885
 20
3.62953
 11
-12.5508
 21
3.63739
  0
LINE
  8
0
 10
-12.5508
 20
3.63739
 11
-12.6136
 21
3.63739
  0
LINE
  8
0
 10
-12.6136
 20
3.63739
 11
-12.6759
 21
3.62953
  0
LINE
  8
0
 10
-12.6759
 20
3.62953
 11
-12.7367
 21
3.61391
  0
LINE
  8
0
 10
-12.7367
 20
3.61391
 11
-12.7951
 21
3.59079
  0
LINE
  8
0
 10
-12.7951
 20
3.59079
 11
-12.8501
 21
3.56055
  0
LINE
  8
0
 10
-12.8501
 20
3.56055
 11
-12.9009
 21
3.52364
  0
LINE
  8
0
 10
-12.9009
 20
3.52364
 11
-12.9467
 21
3.48065
  0
LINE
  8
0
 10
-12.9467
 20
3.48065
 11
-12.9867
 21
3.43228
  0
LINE
  8
0
 10
-12.9867
 20
3.43228
 11
-13.0204
 21
3.37926
  0
LINE
  8
0
 10
-13.0204
 20
3.37926
 11
-13.0471
 21
3.32245
  0
LINE
  8
0
 10
-13.0471
 20
3.32245
 11
-13.0665
 21
3.26273
  0
LINE
  8
0
 10
-13.0665
 20
3.26273
 11
-13.0783
 21
3.20105
  0
LINE
  8
0
 10
-13.0783
 20
3.20105
 11
-13.0822
 21
3.13838
  0
LINE
  8
0
 10
-13.0822
 20
3.13838
 11
-13.0822
 21
-5.92686
  0
LINE
  8
0
 10
-13.0822
 20
-5.92686
 11
-14.3742
 21
-5.92686
  0
LINE
  8
0
 10
9.0809
 20
-1.22687
 11
9.90952
 21
-1.22687
  0
LINE
  8
0
 10
9.90952
 20
-1.22687
 11
10.174
 21
-1.25726
  0
LINE
  8
0
 10
10.174
 20
-1.25726
 11
10.4284
 21
-1.34846
  0
LINE
  8
0
 10
10.4284
 20
-1.34846
 11
10.6727
 21
-1.50046
  0
LINE
  8
0
 10
10.6727
 20
-1.50046
 11
10.9069
 21
-1.71324
  0
LINE
  8
0
 10
10.9069
 20
-1.71324
 11
11.1311
 21
-1.98683
  0
LINE
  8
0
 10
11.1311
 20
-1.98683
 11
11.3452
 21
-2.32123
  0
LINE
  8
0
 10
11.3452
 20
-2.32123
 11
11.5492
 21
-2.7164
  0
LINE
  8
0
 10
11.5492
 20
-2.7164
 11
11.5811
 21
-2.78474
  0
LINE
  8
0
 10
11.5811
 20
-2.78474
 11
11.6111
 21
-2.84877
  0
LINE
  8
0
 10
11.6111
 20
-2.84877
 11
11.6394
 21
-2.90849
  0
LINE
  8
0
 10
11.6394
 20
-2.90849
 11
11.6658
 21
-2.96388
  0
LINE
  8
0
 10
11.6658
 20
-2.96388
 11
11.6905
 21
-3.01497
  0
LINE
  8
0
 10
11.6905
 20
-3.01497
 11
11.7133
 21
-3.06174
  0
LINE
  8
0
 10
11.7133
 20
-3.06174
 11
11.7343
 21
-3.1042
  0
LINE
  8
0
 10
11.7343
 20
-3.1042
 11
13.3212
 21
-6.42686
  0
LINE
  8
0
 10
13.3212
 20
-6.42686
 11
16.1775
 21
-6.42686
  0
LINE
  8
0
 10
16.1775
 20
-6.42686
 11
13.7972
 21
-1.69395
  0
LINE
  8
0
 10
13.7972
 20
-1.69395
 11
13.6814
 21
-1.46817
  0
LINE
  8
0
 10
13.6814
 20
-1.46817
 11
13.5708
 21
-1.26451
  0
LINE
  8
0
 10
13.5708
 20
-1.26451
 11
13.4655
 21
-1.08299
  0
LINE
  8
0
 10
13.4655
 20
-1.08299
 11
13.3654
 21
-0.923615
  0
LINE
  8
0
 10
13.3654
 20
-0.923615
 11
13.2705
 21
-0.786377
  0
LINE
  8
0
 10
13.2705
 20
-0.786377
 11
13.1808
 21
-0.671265
  0
LINE
  8
0
 10
13.1808
 20
-0.671265
 11
13.0963
 21
-0.578293
  0
LINE
  8
0
 10
13.0963
 20
-0.578293
 11
13.0124
 21
-0.500626
  0
LINE
  8
0
 10
13.0124
 20
-0.500626
 11
12.9244
 21
-0.431412
  0
LINE
  8
0
 10
12.9244
 20
-0.431412
 11
12.8322
 21
-0.370651
  0
LINE
  8
0
 10
12.8322
 20
-0.370651
 11
12.7359
 21
-0.318359
  0
LINE
  8
0
 10
12.7359
 20
-0.318359
 11
12.6354
 21
-0.274521
  0
LINE
  8
0
 10
12.6354
 20
-0.274521
 11
12.5308
 21
-0.239136
  0
LINE
  8
0
 10
12.5308
 20
-0.239136
 11
12.422
 21
-0.212219
  0
LINE
  8
0
 10
12.422
 20
-0.212219
 11
12.7653
 21
-0.153732
  0
LINE
  8
0
 10
12.7653
 20
-0.153732
 11
13.0848
 21
-0.068985
  0
LINE
  8
0
 10
13.0848
 20
-0.068985
 11
13.3805
 21
0.0420227
  0
LINE
  8
0
 10
13.3805
 20
0.0420227
 11
13.6526
 21
0.179291
  0
LINE
  8
0
 10
13.6526
 20
0.179291
 11
13.9008
 21
0.342834
  0
LINE
  8
0
 10
13.9008
 20
0.342834
 11
14.1254
 21
0.532654
  0
LINE
  8
0
 10
14.1254
 20
0.532654
 11
14.3261
 21
0.748734
  0
LINE
  8
0
 10
14.3261
 20
0.748734
 11
14.5016
 21
0.989304
  0
LINE
  8
0
 10
14.5016
 20
0.989304
 11
14.65
 21
1.25256
  0
LINE
  8
0
 10
14.65
 20
1.25256
 11
14.7714
 21
1.5385
  0
LINE
  8
0
 10
14.7714
 20
1.5385
 11
14.8659
 21
1.84709
  0
LINE
  8
0
 10
14.8659
 20
1.84709
 11
14.9333
 21
2.17838
  0
LINE
  8
0
 10
14.9333
 20
2.17838
 11
14.9738
 21
2.53232
  0
LINE
  8
0
 10
14.9738
 20
2.53232
 11
14.9873
 21
2.90894
  0
LINE
  8
0
 10
14.9873
 20
2.90894
 11
14.9647
 21
3.46526
  0
LINE
  8
0
 10
14.9647
 20
3.46526
 11
14.897
 21
3.97552
  0
LINE
  8
0
 10
14.897
 20
3.97552
 11
14.7841
 21
4.43974
  0
LINE
  8
0
 10
14.7841
 20
4.43974
 11
14.626
 21
4.85789
  0
LINE
  8
0
 10
14.626
 20
4.85789
 11
14.4228
 21
5.23
  0
LINE
  8
0
 10
14.4228
 20
5.23
 11
14.1744
 21
5.55603
  0
LINE
  8
0
 10
14.1744
 20
5.55603
 11
13.8809
 21
5.83601
  0
LINE
  8
0
 10
13.8809
 20
5.83601
 11
13.5356
 21
6.07462
  0
LINE
  8
0
 10
13.5356
 20
6.07462
 11
13.1318
 21
6.2765
  0
LINE
  8
0
 10
13.1318
 20
6.2765
 11
12.6695
 21
6.4417
  0
LINE
  8
0
 10
12.6695
 20
6.4417
 11
12.1488
 21
6.57018
  0
LINE
  8
0
 10
12.1488
 20
6.57018
 11
11.5695
 21
6.66194
  0
LINE
  8
0
 10
11.5695
 20
6.66194
 11
10.9319
 21
6.71701
  0
LINE
  8
0
 10
10.9319
 20
6.71701
 11
10.2357
 21
6.73535
  0
LINE
  8
0
 10
10.2357
 20
6.73535
 11
6.48024
 21
6.73535
  0
LINE
  8
0
 10
6.48024
 20
6.73535
 11
6.48024
 21
-6.42686
  0
LINE
  8
0
 10
6.48024
 20
-6.42686
 11
9.0809
 21
-6.42686
  0
LINE
  8
0
 10
9.0809
 20
-6.42686
 11
9.0809
 21
-1.22687
  0
LINE
  8
0
 10
6.98024
 20
-5.92686
 11
6.98024
 21
6.23535
  0
LINE
  8
0
 10
6.98024
 20
6.23535
 11
10.2289
 21
6.23535
  0
LINE
  8
0
 10
10.2289
 20
6.23535
 11
10.904
 21
6.21756
  0
LINE
  8
0
 10
10.904
 20
6.21756
 11
11.5088
 21
6.16533
  0
LINE
  8
0
 10
11.5088
 20
6.16533
 11
12.0495
 21
6.07967
  0
LINE
  8
0
 10
12.0495
 20
6.07967
 11
12.5251
 21
5.96233
  0
LINE
  8
0
 10
12.5251
 20
5.96233
 11
12.9352
 21
5.8158
  0
LINE
  8
0
 10
12.9352
 20
5.8158
 11
13.2803
 21
5.6432
  0
LINE
  8
0
 10
13.2803
 20
5.6432
 11
13.5643
 21
5.44702
  0
LINE
  8
0
 10
13.5643
 20
5.44702
 11
13.8006
 21
5.22159
  0
LINE
  8
0
 10
13.8006
 20
5.22159
 11
14.0022
 21
4.95705
  0
LINE
  8
0
 10
14.0022
 20
4.95705
 11
14.1706
 21
4.64871
  0
LINE
  8
0
 10
14.1706
 20
4.64871
 11
14.3055
 21
4.29172
  0
LINE
  8
0
 10
14.3055
 20
4.29172
 11
14.4048
 21
3.88327
  0
LINE
  8
0
 10
14.4048
 20
3.88327
 11
14.4661
 21
3.4221
  0
LINE
  8
0
 10
14.4661
 20
3.4221
 11
14.487
 21
2.90776
  0
LINE
  8
0
 10
14.487
 20
2.90776
 11
14.4748
 21
2.56979
  0
LINE
  8
0
 10
14.4748
 20
2.56979
 11
14.439
 21
2.25674
  0
LINE
  8
0
 10
14.439
 20
2.25674
 11
14.3807
 21
1.97041
  0
LINE
  8
0
 10
14.3807
 20
1.97041
 11
14.301
 21
1.70985
  0
LINE
  8
0
 10
14.301
 20
1.70985
 11
14.2007
 21
1.4738
  0
LINE
  8
0
 10
14.2007
 20
1.4738
 11
14.0804
 21
1.26031
  0
LINE
  8
0
 10
14.0804
 20
1.26031
 11
13.9396
 21
1.06732
  0
LINE
  8
0
 10
13.9396
 20
1.06732
 11
13.7795
 21
0.89502
  0
LINE
  8
0
 10
13.7795
 20
0.89502
 11
13.6009
 21
0.744019
  0
LINE
  8
0
 10
13.6009
 20
0.744019
 11
13.4015
 21
0.612656
  0
LINE
  8
0
 10
13.4015
 20
0.612656
 11
13.1794
 21
0.50058
  0
LINE
  8
0
 10
13.1794
 20
0.50058
 11
12.9326
 21
0.407928
  0
LINE
  8
0
 10
12.9326
 20
0.407928
 11
12.6589
 21
0.335342
  0
LINE
  8
0
 10
12.6589
 20
0.335342
 11
12.338
 21
0.28067
  0
LINE
  8
0
 10
12.338
 20
0.28067
 11
12.2935
 21
0.270966
  0
LINE
  8
0
 10
12.2935
 20
0.270966
 11
12.2339
 21
0.251038
  0
LINE
  8
0
 10
12.2339
 20
0.251038
 11
12.1773
 21
0.223816
  0
LINE
  8
0
 10
12.1773
 20
0.223816
 11
12.1246
 21
0.189713
  0
LINE
  8
0
 10
12.1246
 20
0.189713
 11
12.0766
 21
0.149261
  0
LINE
  8
0
 10
12.0766
 20
0.149261
 11
12.034
 21
0.103119
  0
LINE
  8
0
 10
12.034
 20
0.103119
 11
11.9975
 21
0.052002
  0
LINE
  8
0
 10
11.9975
 20
0.052002
 11
11.9678
 21
-0.00328064
  0
LINE
  8
0
 10
11.9678
 20
-0.00328064
 11
11.9452
 21
-0.0618591
  0
LINE
  8
0
 10
11.9452
 20
-0.0618591
 11
11.9301
 21
-0.122818
  0
LINE
  8
0
 10
11.9301
 20
-0.122818
 11
11.9228
 21
-0.185181
  0
LINE
  8
0
 10
11.9228
 20
-0.185181
 11
11.9233
 21
-0.247971
  0
LINE
  8
0
 10
11.9233
 20
-0.247971
 11
11.9317
 21
-0.310196
  0
LINE
  8
0
 10
11.9317
 20
-0.310196
 11
11.9479
 21
-0.370865
  0
LINE
  8
0
 10
11.9479
 20
-0.370865
 11
11.9715
 21
-0.429047
  0
LINE
  8
0
 10
11.9715
 20
-0.429047
 11
12.0022
 21
-0.48381
  0
LINE
  8
0
 10
12.0022
 20
-0.48381
 11
12.0396
 21
-0.534286
  0
LINE
  8
0
 10
12.0396
 20
-0.534286
 11
12.0829
 21
-0.579681
  0
LINE
  8
0
 10
12.0829
 20
-0.579681
 11
12.1317
 21
-0.619278
  0
LINE
  8
0
 10
12.1317
 20
-0.619278
 11
12.185
 21
-0.652451
  0
LINE
  8
0
 10
12.185
 20
-0.652451
 11
12.242
 21
-0.678696
  0
LINE
  8
0
 10
12.242
 20
-0.678696
 11
12.3019
 21
-0.697571
  0
LINE
  8
0
 10
12.3019
 20
-0.697571
 11
12.3904
 21
-0.719467
  0
LINE
  8
0
 10
12.3904
 20
-0.719467
 11
12.4549
 21
-0.741287
  0
LINE
  8
0
 10
12.4549
 20
-0.741287
 11
12.5163
 21
-0.768097
  0
LINE
  8
0
 10
12.5163
 20
-0.768097
 11
12.5748
 21
-0.79985
  0
LINE
  8
0
 10
12.5748
 20
-0.79985
 11
12.6318
 21
-0.837402
  0
LINE
  8
0
 10
12.6318
 20
-0.837402
 11
12.6876
 21
-0.881271
  0
LINE
  8
0
 10
12.6876
 20
-0.881271
 11
12.7408
 21
-0.930542
  0
LINE
  8
0
 10
12.7408
 20
-0.930542
 11
12.7979
 21
-0.993408
  0
LINE
  8
0
 10
12.7979
 20
-0.993408
 11
12.8674
 21
-1.08249
  0
LINE
  8
0
 10
12.8674
 20
-1.08249
 11
12.9478
 21
-1.19882
  0
LINE
  8
0
 10
12.9478
 20
-1.19882
 11
13.0375
 21
-1.34161
  0
LINE
  8
0
 10
13.0375
 20
-1.34161
 11
13.1348
 21
-1.50929
  0
LINE
  8
0
 10
13.1348
 20
-1.50929
 11
13.239
 21
-1.7012
  0
LINE
  8
0
 10
13.239
 20
-1.7012
 11
13.3522
 21
-1.92209
  0
LINE
  8
0
 10
13.3522
 20
-1.92209
 11
15.3663
 21
-5.92686
  0
LINE
  8
0
 10
15.3663
 20
-5.92686
 11
13.6365
 21
-5.92686
  0
LINE
  8
0
 10
13.6365
 20
-5.92686
 11
12.1855
 21
-2.88872
  0
LINE
  8
0
 10
12.1855
 20
-2.88872
 11
12.1823
 21
-2.8822
  0
LINE
  8
0
 10
12.1823
 20
-2.8822
 11
12.1626
 21
-2.84242
  0
LINE
  8
0
 10
12.1626
 20
-2.84242
 11
12.1398
 21
-2.79565
  0
LINE
  8
0
 10
12.1398
 20
-2.79565
 11
12.1162
 21
-2.74664
  0
LINE
  8
0
 10
12.1162
 20
-2.74664
 11
12.0913
 21
-2.69464
  0
LINE
  8
0
 10
12.0913
 20
-2.69464
 11
12.0631
 21
-2.63492
  0
LINE
  8
0
 10
12.0631
 20
-2.63492
 11
12.0337
 21
-2.57234
  0
LINE
  8
0
 10
12.0337
 20
-2.57234
 11
12.0024
 21
-2.50514
  0
LINE
  8
0
 10
12.0024
 20
-2.50514
 11
11.9935
 21
-2.48703
  0
LINE
  8
0
 10
11.9935
 20
-2.48703
 11
11.7895
 21
-2.09186
  0
LINE
  8
0
 10
11.7895
 20
-2.09186
 11
11.7663
 21
-2.05162
  0
LINE
  8
0
 10
11.7663
 20
-2.05162
 11
11.5522
 21
-1.71722
  0
LINE
  8
0
 10
11.5522
 20
-1.71722
 11
11.5179
 21
-1.66994
  0
LINE
  8
0
 10
11.5179
 20
-1.66994
 11
11.2937
 21
-1.39635
  0
LINE
  8
0
 10
11.2937
 20
-1.39635
 11
11.2431
 21
-1.34314
  0
LINE
  8
0
 10
11.2431
 20
-1.34314
 11
11.0089
 21
-1.13036
  0
LINE
  8
0
 10
11.0089
 20
-1.13036
 11
10.9368
 21
-1.07591
  0
LINE
  8
0
 10
10.9368
 20
-1.07591
 11
10.6925
 21
-0.92392
  0
LINE
  8
0
 10
10.6925
 20
-0.92392
 11
10.6548
 21
-0.902664
  0
LINE
  8
0
 10
10.6548
 20
-0.902664
 11
10.5971
 21
-0.877792
  0
LINE
  8
0
 10
10.5971
 20
-0.877792
 11
10.3427
 21
-0.786591
  0
LINE
  8
0
 10
10.3427
 20
-0.786591
 11
10.2929
 21
-0.771606
  0
LINE
  8
0
 10
10.2929
 20
-0.771606
 11
10.2311
 21
-0.760529
  0
LINE
  8
0
 10
10.2311
 20
-0.760529
 11
9.9666
 21
-0.730133
  0
LINE
  8
0
 10
9.9666
 20
-0.730133
 11
9.90952
 21
-0.726868
  0
LINE
  8
0
 10
9.90952
 20
-0.726868
 11
9.0809
 21
-0.726868
  0
LINE
  8
0
 10
9.0809
 20
-0.726868
 11
8.98721
 21
-0.735718
  0
LINE
  8
0
 10
8.98721
 20
-0.735718
 11
8.92639
 21
-0.751343
  0
LINE
  8
0
 10
8.92639
 20
-0.751343
 11
8.86801
 21
-0.77446
  0
LINE
  8
0
 10
8.86801
 20
-0.77446
 11
8.81299
 21
-0.804703
  0
LINE
  8
0
 10
8.81299
 20
-0.804703
 11
8.76219
 21
-0.841614
  0
LINE
  8
0
 10
8.76219
 20
-0.841614
 11
8.71642
 21
-0.884598
  0
LINE
  8
0
 10
8.71642
 20
-0.884598
 11
8.67639
 21
-0.932968
  0
LINE
  8
0
 10
8.67639
 20
-0.932968
 11
8.64275
 21
-0.985992
  0
LINE
  8
0
 10
8.64275
 20
-0.985992
 11
8.61601
 21
-1.0428
  0
LINE
  8
0
 10
8.61601
 20
-1.0428
 11
8.5966
 21
-1.10252
  0
LINE
  8
0
 10
8.5966
 20
-1.10252
 11
8.58484
 21
-1.1642
  0
LINE
  8
0
 10
8.58484
 20
-1.1642
 11
8.5809
 21
-1.22687
  0
LINE
  8
0
 10
8.5809
 20
-1.22687
 11
8.5809
 21
-5.92686
  0
LINE
  8
0
 10
8.5809
 20
-5.92686
 11
6.98024
 21
-5.92686
  0
LINE
  8
0
 10
10.3209
 20
0.461487
 11
10.6133
 21
0.470032
  0
LINE
  8
0
 10
10.6133
 20
0.470032
 11
10.6463
 21
0.472092
  0
LINE
  8
0
 10
10.6463
 20
0.472092
 11
10.9141
 21
0.497711
  0
LINE
  8
0
 10
10.9141
 20
0.497711
 11
10.953
 21
0.502975
  0
LINE
  8
0
 10
10.953
 20
0.502975
 11
11.1961
 21
0.54567
  0
LINE
  8
0
 10
11.1961
 20
0.54567
 11
11.2416
 21
0.555862
  0
LINE
  8
0
 10
11.2416
 20
0.555862
 11
11.4601
 21
0.615646
  0
LINE
  8
0
 10
11.4601
 20
0.615646
 11
11.5125
 21
0.633133
  0
LINE
  8
0
 10
11.5125
 20
0.633133
 11
11.7063
 21
0.710007
  0
LINE
  8
0
 10
11.7063
 20
0.710007
 11
11.7647
 21
0.73764
  0
LINE
  8
0
 10
11.7647
 20
0.73764
 11
11.9339
 21
0.831573
  0
LINE
  8
0
 10
11.9339
 20
0.831573
 11
11.9957
 21
0.872192
  0
LINE
  8
0
 10
11.9957
 20
0.872192
 11
12.1403
 21
0.983215
  0
LINE
  8
0
 10
12.1403
 20
0.983215
 11
12.2001
 21
1.03734
  0
LINE
  8
0
 10
12.2001
 20
1.03734
 11
12.3229
 21
1.168
  0
LINE
  8
0
 10
12.3229
 20
1.168
 11
12.3719
 21
1.2292
  0
LINE
  8
0
 10
12.3719
 20
1.2292
 11
12.4758
 21
1.38196
  0
LINE
  8
0
 10
12.4758
 20
1.38196
 11
12.5121
 21
1.44461
  0
LINE
  8
0
 10
12.5121
 20
1.44461
 11
12.5971
 21
1.61949
  0
LINE
  8
0
 10
12.5971
 20
1.61949
 11
12.6214
 21
1.67896
  0
LINE
  8
0
 10
12.6214
 20
1.67896
 11
12.6875
 21
1.87595
  0
LINE
  8
0
 10
12.6875
 20
1.87595
 11
12.7023
 21
1.92969
  0
LINE
  8
0
 10
12.7023
 20
1.92969
 11
12.7495
 21
2.14879
  0
LINE
  8
0
 10
12.7495
 20
2.14879
 11
12.7573
 21
2.1958
  0
LINE
  8
0
 10
12.7573
 20
2.1958
 11
12.7857
 21
2.437
  0
LINE
  8
0
 10
12.7857
 20
2.437
 11
12.7888
 21
2.4774
  0
LINE
  8
0
 10
12.7888
 20
2.4774
 11
12.7982
 21
2.74072
  0
LINE
  8
0
 10
12.7982
 20
2.74072
 11
12.7982
 21
2.77641
  0
LINE
  8
0
 10
12.7982
 20
2.77641
 11
12.7888
 21
3.03964
  0
LINE
  8
0
 10
12.7888
 20
3.03964
 11
12.7858
 21
3.07973
  0
LINE
  8
0
 10
12.7858
 20
3.07973
 11
12.7578
 21
3.32066
  0
LINE
  8
0
 10
12.7578
 20
3.32066
 11
12.75
 21
3.36742
  0
LINE
  8
0
 10
12.75
 20
3.36742
 11
12.7033
 21
3.58604
  0
LINE
  8
0
 10
12.7033
 20
3.58604
 11
12.6886
 21
3.63966
  0
LINE
  8
0
 10
12.6886
 20
3.63966
 11
12.6232
 21
3.836
  0
LINE
  8
0
 10
12.6232
 20
3.836
 11
12.5989
 21
3.89552
  0
LINE
  8
0
 10
12.5989
 20
3.89552
 11
12.5147
 21
4.06956
  0
LINE
  8
0
 10
12.5147
 20
4.06956
 11
12.4785
 21
4.13242
  0
LINE
  8
0
 10
12.4785
 20
4.13242
 11
12.3756
 21
4.28416
  0
LINE
  8
0
 10
12.3756
 20
4.28416
 11
12.3262
 21
4.34593
  0
LINE
  8
0
 10
12.3262
 20
4.34593
 11
12.2045
 21
4.47537
  0
LINE
  8
0
 10
12.2045
 20
4.47537
 11
12.1441
 21
4.53004
  0
LINE
  8
0
 10
12.1441
 20
4.53004
 11
12.0005
 21
4.63994
  0
LINE
  8
0
 10
12.0005
 20
4.63994
 11
11.9379
 21
4.68083
  0
LINE
  8
0
 10
11.9379
 20
4.68083
 11
11.7691
 21
4.7738
  0
LINE
  8
0
 10
11.7691
 20
4.7738
 11
11.7104
 21
4.80133
  0
LINE
  8
0
 10
11.7104
 20
4.80133
 11
11.5165
 21
4.87741
  0
LINE
  8
0
 10
11.5165
 20
4.87741
 11
11.4643
 21
4.89467
  0
LINE
  8
0
 10
11.4643
 20
4.89467
 11
11.2451
 21
4.95384
  0
LINE
  8
0
 10
11.2451
 20
4.95384
 11
11.2
 21
4.96382
  0
LINE
  8
0
 10
11.2
 20
4.96382
 11
10.9557
 21
5.00607
  0
LINE
  8
0
 10
10.9557
 20
5.00607
 11
10.9173
 21
5.01118
  0
LINE
  8
0
 10
10.9173
 20
5.01118
 11
10.6478
 21
5.03654
  0
LINE
  8
0
 10
10.6478
 20
5.03654
 11
10.6153
 21
5.03854
  0
LINE
  8
0
 10
10.6153
 20
5.03854
 11
10.3206
 21
5.047
  0
LINE
  8
0
 10
10.3206
 20
5.047
 11
10.3063
 21
5.0472
  0
LINE
  8
0
 10
10.3063
 20
5.0472
 11
9.0809
 21
5.0472
  0
LINE
  8
0
 10
9.0809
 20
5.0472
 11
8.98721
 21
5.03835
  0
LINE
  8
0
 10
8.98721
 20
5.03835
 11
8.92639
 21
5.02272
  0
LINE
  8
0
 10
8.92639
 20
5.02272
 11
8.86801
 21
4.9996
  0
LINE
  8
0
 10
8.86801
 20
4.9996
 11
8.81299
 21
4.96936
  0
LINE
  8
0
 10
8.81299
 20
4.96936
 11
8.76219
 21
4.93245
  0
LINE
  8
0
 10
8.76219
 20
4.93245
 11
8.71642
 21
4.88947
  0
LINE
  8
0
 10
8.71642
 20
4.88947
 11
8.67639
 21
4.84109
  0
LINE
  8
0
 10
8.67639
 20
4.84109
 11
8.64275
 21
4.78807
  0
LINE
  8
0
 10
8.64275
 20
4.78807
 11
8.61601
 21
4.73126
  0
LINE
  8
0
 10
8.61601
 20
4.73126
 11
8.5966
 21
4.67154
  0
LINE
  8
0
 10
8.5966
 20
4.67154
 11
8.58484
 21
4.60986
  0
LINE
  8
0
 10
8.58484
 20
4.60986
 11
8.5809
 21
4.5472
  0
LINE
  8
0
 10
8.5809
 20
4.5472
 11
8.5809
 21
0.961273
  0
LINE
  8
0
 10
8.5809
 20
0.961273
 11
8.58975
 21
0.867584
  0
LINE
  8
0
 10
8.58975
 20
0.867584
 11
8.60538
 21
0.806763
  0
LINE
  8
0
 10
8.60538
 20
0.806763
 11
8.62849
 21
0.748383
  0
LINE
  8
0
 10
8.62849
 20
0.748383
 11
8.65874
 21
0.693359
  0
LINE
  8
0
 10
8.65874
 20
0.693359
 11
8.69565
 21
0.642563
  0
LINE
  8
0
 10
8.69565
 20
0.642563
 11
8.73863
 21
0.596786
  0
LINE
  8
0
 10
8.73863
 20
0.596786
 11
8.787
 21
0.556763
  0
LINE
  8
0
 10
8.787
 20
0.556763
 11
8.84003
 21
0.523117
  0
LINE
  8
0
 10
8.84003
 20
0.523117
 11
8.89684
 21
0.496384
  0
LINE
  8
0
 10
8.89684
 20
0.496384
 11
8.95656
 21
0.476974
  0
LINE
  8
0
 10
8.95656
 20
0.476974
 11
9.01823
 21
0.46521
  0
LINE
  8
0
 10
9.01823
 20
0.46521
 11
9.0809
 21
0.461273
  0
LINE
  8
0
 10
9.0809
 20
0.461273
 11
10.3063
 21
0.461273
  0
LINE
  8
0
 10
10.3063
 20
0.461273
 11
10.3209
 21
0.461487
  0
LINE
  8
0
 10
9.0809
 20
0.961273
 11
9.0809
 21
4.5472
  0
LINE
  8
0
 10
9.0809
 20
4.5472
 11
10.3063
 21
4.5472
  0
LINE
  8
0
 10
10.3063
 20
4.5472
 11
10.601
 21
4.53874
  0
LINE
  8
0
 10
10.601
 20
4.53874
 11
10.8705
 21
4.51338
  0
LINE
  8
0
 10
10.8705
 20
4.51338
 11
11.1148
 21
4.47113
  0
LINE
  8
0
 10
11.1148
 20
4.47113
 11
11.3339
 21
4.41196
  0
LINE
  8
0
 10
11.3339
 20
4.41196
 11
11.5278
 21
4.33588
  0
LINE
  8
0
 10
11.5278
 20
4.33588
 11
11.6966
 21
4.2429
  0
LINE
  8
0
 10
11.6966
 20
4.2429
 11
11.8401
 21
4.13301
  0
LINE
  8
0
 10
11.8401
 20
4.13301
 11
11.9618
 21
4.00357
  0
LINE
  8
0
 10
11.9618
 20
4.00357
 11
12.0647
 21
3.85182
  0
LINE
  8
0
 10
12.0647
 20
3.85182
 11
12.1488
 21
3.67778
  0
LINE
  8
0
 10
12.1488
 20
3.67778
 11
12.2143
 21
3.48145
  0
LINE
  8
0
 10
12.2143
 20
3.48145
 11
12.2611
 21
3.26282
  0
LINE
  8
0
 10
12.2611
 20
3.26282
 11
12.2892
 21
3.02188
  0
LINE
  8
0
 10
12.2892
 20
3.02188
 11
12.2985
 21
2.75865
  0
LINE
  8
0
 10
12.2985
 20
2.75865
 11
12.2891
 21
2.49533
  0
LINE
  8
0
 10
12.2891
 20
2.49533
 11
12.2607
 21
2.25414
  0
LINE
  8
0
 10
12.2607
 20
2.25414
 11
12.2135
 21
2.03503
  0
LINE
  8
0
 10
12.2135
 20
2.03503
 11
12.1474
 21
1.83804
  0
LINE
  8
0
 10
12.1474
 20
1.83804
 11
12.0624
 21
1.66316
  0
LINE
  8
0
 10
12.0624
 20
1.66316
 11
11.9585
 21
1.51041
  0
LINE
  8
0
 10
11.9585
 20
1.51041
 11
11.8357
 21
1.37975
  0
LINE
  8
0
 10
11.8357
 20
1.37975
 11
11.6912
 21
1.26872
  0
LINE
  8
0
 10
11.6912
 20
1.26872
 11
11.522
 21
1.17479
  0
LINE
  8
0
 10
11.522
 20
1.17479
 11
11.3281
 21
1.09792
  0
LINE
  8
0
 10
11.3281
 20
1.09792
 11
11.1096
 21
1.03813
  0
LINE
  8
0
 10
11.1096
 20
1.03813
 11
10.8665
 21
0.995438
  0
LINE
  8
0
 10
10.8665
 20
0.995438
 11
10.5987
 21
0.969818
  0
LINE
  8
0
 10
10.5987
 20
0.969818
 11
10.3063
 21
0.961273
  0
LINE
  8
0
 10
10.3063
 20
0.961273
 11
9.0809
 21
0.961273
  0
LINE
  8
0
 10
19.6083
 20
-3.17375
 11
23.0905
 21
-3.17375
  0
LINE
  8
0
 10
23.0905
 20
-3.17375
 11
23.9014
 21
-6.42686
  0
LINE
  8
0
 10
23.9014
 20
-6.42686
 11
26.5021
 21
-6.42686
  0
LINE
  8
0
 10
26.5021
 20
-6.42686
 11
22.9494
 21
6.73535
  0
LINE
  8
0
 10
22.9494
 20
6.73535
 11
19.7669
 21
6.73535
  0
LINE
  8
0
 10
19.7669
 20
6.73535
 11
16.2143
 21
-6.42686
  0
LINE
  8
0
 10
16.2143
 20
-6.42686
 11
18.8149
 21
-6.42686
  0
LINE
  8
0
 10
18.8149
 20
-6.42686
 11
19.6083
 21
-3.17375
  0
LINE
  8
0
 10
16.8671
 20
-5.92686
 11
20.1499
 21
6.23535
  0
LINE
  8
0
 10
20.1499
 20
6.23535
 11
22.5665
 21
6.23535
  0
LINE
  8
0
 10
22.5665
 20
6.23535
 11
25.8492
 21
-5.92686
  0
LINE
  8
0
 10
25.8492
 20
-5.92686
 11
24.2921
 21
-5.92686
  0
LINE
  8
0
 10
24.2921
 20
-5.92686
 11
23.5757
 21
-3.05281
  0
LINE
  8
0
 10
23.5757
 20
-3.05281
 11
23.566
 21
-3.01924
  0
LINE
  8
0
 10
23.566
 20
-3.01924
 11
23.5429
 21
-2.96086
  0
LINE
  8
0
 10
23.5429
 20
-2.96086
 11
23.5127
 21
-2.90584
  0
LINE
  8
0
 10
23.5127
 20
-2.90584
 11
23.4758
 21
-2.85504
  0
LINE
  8
0
 10
23.4758
 20
-2.85504
 11
23.4328
 21
-2.80927
  0
LINE
  8
0
 10
23.4328
 20
-2.80927
 11
23.3844
 21
-2.76924
  0
LINE
  8
0
 10
23.3844
 20
-2.76924
 11
23.3314
 21
-2.7356
  0
LINE
  8
0
 10
23.3314
 20
-2.7356
 11
23.2746
 21
-2.70886
  0
LINE
  8
0
 10
23.2746
 20
-2.70886
 11
23.2148
 21
-2.68945
  0
LINE
  8
0
 10
23.2148
 20
-2.68945
 11
23.1532
 21
-2.67769
  0
LINE
  8
0
 10
23.1532
 20
-2.67769
 11
23.0905
 21
-2.67375
  0
LINE
  8
0
 10
23.0905
 20
-2.67375
 11
19.6083
 21
-2.67375
  0
LINE
  8
0
 10
19.6083
 20
-2.67375
 11
19.5709
 21
-2.67516
  0
LINE
  8
0
 10
19.5709
 20
-2.67516
 11
19.5087
 21
-2.68378
  0
LINE
  8
0
 10
19.5087
 20
-2.68378
 11
19.4481
 21
-2.70013
  0
LINE
  8
0
 10
19.4481
 20
-2.70013
 11
19.39
 21
-2.72395
  0
LINE
  8
0
 10
19.39
 20
-2.72395
 11
19.3353
 21
-2.75487
  0
LINE
  8
0
 10
19.3353
 20
-2.75487
 11
19.285
 21
-2.79239
  0
LINE
  8
0
 10
19.285
 20
-2.79239
 11
19.2397
 21
-2.83592
  0
LINE
  8
0
 10
19.2397
 20
-2.83592
 11
19.2003
 21
-2.88478
  0
LINE
  8
0
 10
19.2003
 20
-2.88478
 11
19.1673
 21
-2.9382
  0
LINE
  8
0
 10
19.1673
 20
-2.9382
 11
19.1412
 21
-2.99533
  0
LINE
  8
0
 10
19.1412
 20
-2.99533
 11
19.1226
 21
-3.05528
  0
LINE
  8
0
 10
19.1226
 20
-3.05528
 11
18.4222
 21
-5.92686
  0
LINE
  8
0
 10
18.4222
 20
-5.92686
 11
16.8671
 21
-5.92686
  0
LINE
  8
0
 10
22.6687
 20
-1.52893
 11
22.7299
 21
-1.51492
  0
LINE
  8
0
 10
22.7299
 20
-1.51492
 11
22.7889
 21
-1.49335
  0
LINE
  8
0
 10
22.7889
 20
-1.49335
 11
22.8447
 21
-1.46455
  0
LINE
  8
0
 10
22.8447
 20
-1.46455
 11
22.8964
 21
-1.42899
  0
LINE
  8
0
 10
22.8964
 20
-1.42899
 11
22.9433
 21
-1.38722
  0
LINE
  8
0
 10
22.9433
 20
-1.38722
 11
22.9846
 21
-1.3399
  0
LINE
  8
0
 10
22.9846
 20
-1.3399
 11
23.0196
 21
-1.28778
  0
LINE
  8
0
 10
23.0196
 20
-1.28778
 11
23.0478
 21
-1.23169
  0
LINE
  8
0
 10
23.0478
 20
-1.23169
 11
23.0688
 21
-1.1725
  0
LINE
  8
0
 10
23.0688
 20
-1.1725
 11
23.0822
 21
-1.11116
  0
LINE
  8
0
 10
23.0822
 20
-1.11116
 11
23.0878
 21
-1.04861
  0
LINE
  8
0
 10
23.0878
 20
-1.04861
 11
23.0854
 21
-0.98587
  0
LINE
  8
0
 10
23.0854
 20
-0.98587
 11
23.0753
 21
-0.923904
  0
LINE
  8
0
 10
23.0753
 20
-0.923904
 11
21.8412
 21
4.46536
  0
LINE
  8
0
 10
21.8412
 20
4.46536
 11
21.8134
 21
4.55066
  0
LINE
  8
0
 10
21.8134
 20
4.55066
 11
21.7851
 21
4.6067
  0
LINE
  8
0
 10
21.7851
 20
4.6067
 11
21.75
 21
4.65877
  0
LINE
  8
0
 10
21.75
 20
4.65877
 11
21.7087
 21
4.70601
  0
LINE
  8
0
 10
21.7087
 20
4.70601
 11
21.6617
 21
4.74771
  0
LINE
  8
0
 10
21.6617
 20
4.74771
 11
21.6099
 21
4.7832
  0
LINE
  8
0
 10
21.6099
 20
4.7832
 11
21.5541
 21
4.8119
  0
LINE
  8
0
 10
21.5541
 20
4.8119
 11
21.4951
 21
4.83339
  0
LINE
  8
0
 10
21.4951
 20
4.83339
 11
21.4339
 21
4.84732
  0
LINE
  8
0
 10
21.4339
 20
4.84732
 11
21.3714
 21
4.85345
  0
LINE
  8
0
 10
21.3714
 20
4.85345
 11
21.3086
 21
4.85172
  0
LINE
  8
0
 10
21.3086
 20
4.85172
 11
21.2466
 21
4.84212
  0
LINE
  8
0
 10
21.2466
 20
4.84212
 11
21.1862
 21
4.82481
  0
LINE
  8
0
 10
21.1862
 20
4.82481
 11
21.1285
 21
4.80009
  0
LINE
  8
0
 10
21.1285
 20
4.80009
 11
21.0743
 21
4.76833
  0
LINE
  8
0
 10
21.0743
 20
4.76833
 11
21.0246
 21
4.73003
  0
LINE
  8
0
 10
21.0246
 20
4.73003
 11
20.98
 21
4.68579
  0
LINE
  8
0
 10
20.98
 20
4.68579
 11
20.9413
 21
4.63631
  0
LINE
  8
0
 10
20.9413
 20
4.63631
 11
20.9092
 21
4.58238
  0
LINE
  8
0
 10
20.9092
 20
4.58238
 11
20.884
 21
4.52486
  0
LINE
  8
0
 10
20.884
 20
4.52486
 11
20.8663
 21
4.46461
  0
LINE
  8
0
 10
20.8663
 20
4.46461
 11
19.6409
 21
-0.924652
  0
LINE
  8
0
 10
19.6409
 20
-0.924652
 11
19.6294
 21
-1.0041
  0
LINE
  8
0
 10
19.6294
 20
-1.0041
 11
19.6294
 21
-1.06691
  0
LINE
  8
0
 10
19.6294
 20
-1.06691
 11
19.6373
 21
-1.1292
  0
LINE
  8
0
 10
19.6373
 20
-1.1292
 11
19.6529
 21
-1.19002
  0
LINE
  8
0
 10
19.6529
 20
-1.19002
 11
19.676
 21
-1.2484
  0
LINE
  8
0
 10
19.676
 20
-1.2484
 11
19.7063
 21
-1.30342
  0
LINE
  8
0
 10
19.7063
 20
-1.30342
 11
19.7432
 21
-1.35422
  0
LINE
  8
0
 10
19.7432
 20
-1.35422
 11
19.7862
 21
-1.39999
  0
LINE
  8
0
 10
19.7862
 20
-1.39999
 11
19.8345
 21
-1.44002
  0
LINE
  8
0
 10
19.8345
 20
-1.44002
 11
19.8876
 21
-1.47366
  0
LINE
  8
0
 10
19.8876
 20
-1.47366
 11
19.9444
 21
-1.5004
  0
LINE
  8
0
 10
19.9444
 20
-1.5004
 11
20.0041
 21
-1.51981
  0
LINE
  8
0
 10
20.0041
 20
-1.51981
 11
20.0658
 21
-1.53157
  0
LINE
  8
0
 10
20.0658
 20
-1.53157
 11
20.1284
 21
-1.53551
  0
LINE
  8
0
 10
20.1284
 20
-1.53551
 11
22.5879
 21
-1.53551
  0
LINE
  8
0
 10
22.5879
 20
-1.53551
 11
22.6687
 21
-1.52893
  0
LINE
  8
0
 10
20.1284
 20
-1.03551
 11
21.3538
 21
4.35376
  0
LINE
  8
0
 10
21.3538
 20
4.35376
 11
22.5879
 21
-1.03551
  0
LINE
  8
0
 10
22.5879
 20
-1.03551
 11
20.1284
 21
-1.03551
  0
ENDSEC
  0
SECTION
  2
OBJECTS
  0
DICTIONARY
  0
ENDSEC
  0
EOF
