<?xml version="1.0" standalone="no"?>
<!DOCTYPE svg PUBLIC "-//W3C//DTD SVG 1.1//EN" "http://www.w3.org/Graphics/SVG/1.1/DTD/svg11.dtd">
<svg width="54mm" height="14mm" viewBox="-27 -7 54 14" xmlns="http://www.w3.org/2000/svg" version="1.1">
<title>OpenSCAD Model</title>
<path d="
M -22.8539,3.17375 L -19.3717,3.17375 L -18.5608,6.42686 L -15.9602,6.42686 L -19.5128,-6.73535 L -22.6953,-6.73535
 L -26.248,6.42686 L -23.6473,6.42686 z
M -25.5951,5.92686 L -22.3124,-6.23535 L -19.8957,-6.23535 L -16.613,5.92686 L -18.1702,5.92686 L -18.8866,3.05281
 L -18.8962,3.01924 L -18.9193,2.96086 L -18.9496,2.90584 L -18.9865,2.85504 L -19.0295,2.80927 L -19.0779,2.76924
 L -19.1309,2.7356 L -19.1877,2.70886 L -19.2474,2.68945 L -19.3091,2.67769 L -19.3717,2.67375 L -22.8539,2.67375
 L -22.8914,2.67516 L -22.9536,2.68378 L -23.0142,2.70013 L -23.0723,2.72395 L -23.1269,2.75487 L -23.1773,2.79239
 L -23.2225,2.83592 L -23.262,2.88478 L -23.295,2.9382 L -23.321,2.99533 L -23.3397,3.05528 L -24.04,5.92686
 z
M -19.7935,1.52893 L -19.7323,1.51492 L -19.6734,1.49335 L -19.6176,1.46455 L -19.5658,1.42899 L -19.5189,1.38722
 L -19.4777,1.3399 L -19.4426,1.28778 L -19.4144,1.23169 L -19.3935,1.1725 L -19.3801,1.11116 L -19.3745,1.04861
 L -19.3768,0.98587 L -19.3869,0.923904 L -20.621,-4.46536 L -20.6488,-4.55066 L -20.6771,-4.6067 L -20.7122,-4.65877
 L -20.7536,-4.70601 L -20.8005,-4.74771 L -20.8523,-4.7832 L -20.9082,-4.8119 L -20.9672,-4.83339 L -21.0284,-4.84732
 L -21.0909,-4.85345 L -21.1536,-4.85172 L -21.2157,-4.84212 L -21.2761,-4.82481 L -21.3338,-4.80009 L -21.3879,-4.76833
 L -21.4377,-4.73003 L -21.4823,-4.68579 L -21.5209,-4.63631 L -21.5531,-4.58238 L -21.5782,-4.52486 L -21.596,-4.46461
 L -22.8214,0.924652 L -22.8328,1.0041 L -22.8328,1.06691 L -22.825,1.1292 L -22.8093,1.19002 L -22.7862,1.2484
 L -22.756,1.30342 L -22.7191,1.35422 L -22.6761,1.39999 L -22.6277,1.44002 L -22.5747,1.47366 L -22.5179,1.5004
 L -22.4581,1.51981 L -22.3965,1.53157 L -22.3338,1.53551 L -19.8743,1.53551 z
M -22.3338,1.03551 L -21.1084,-4.35376 L -19.8743,1.03551 z
M -0.429337,6.39529 L 0.381851,6.30057 L 1.11931,6.1427 L 1.78299,5.92168 L 2.37291,5.63751 L 2.88908,5.29021
 L 3.33148,4.87973 L 3.70805,4.39781 L 4.02667,3.83618 L 4.28737,3.19485 L 4.49013,2.47382 L 4.63496,1.67308
 L 4.72186,0.792633 L 4.75082,-0.167496 L 4.72186,-1.12512 L 4.63496,-2.00302 L 4.49013,-2.80122 L 4.28737,-3.51971
 L 4.02667,-4.15849 L 3.70805,-4.71758 L 3.33148,-5.19693 L 2.88908,-5.60509 L 2.37291,-5.95045 L 1.78299,-6.23302
 L 1.11931,-6.45279 L 0.381851,-6.60977 L -0.429337,-6.70396 L -1.3143,-6.73535 L -4.10008,-6.73535 L -4.10008,6.42686
 L -1.3143,6.42686 z
M -3.60008,5.92686 L -3.60008,-6.23535 L -1.32298,-6.23535 L -0.467133,-6.205 L 0.300751,-6.11583 L 0.988251,-5.96948
 L 1.59567,-5.76834 L 2.12463,-5.51497 L 2.57863,-5.21121 L 2.96301,-4.85658 L 3.29201,-4.43777 L 3.57607,-3.93936
 L 3.81383,-3.35677 L 4.00241,-2.68852 L 4.13939,-1.93364 L 4.22261,-1.09282 L 4.2506,-0.16745 L 4.22261,0.760376
 L 4.13934,1.60397 L 4.00235,2.36136 L 3.81361,3.03253 L 3.57571,3.61778 L 3.29137,4.11902 L 2.96213,4.54036
 L 2.57759,4.89714 L 2.1236,5.20261 L 1.59465,5.4574 L 0.987595,5.65958 L 0.300385,5.80669 L -0.467377,5.89633
 L -1.32314,5.92686 z
M -0.770767,4.58008 L -0.350479,4.56038 L -0.297913,4.55511 L 0.08638,4.49603 L 0.146423,4.48299 L 0.494751,4.38452
 L 0.560623,4.36081 L 0.872955,4.22296 L 0.94101,4.1864 L 1.21736,4.00916 L 1.28217,3.9597 L 1.52252,3.74307
 L 1.57854,3.68359 L 1.78291,3.42757 L 1.82645,3.36339 L 1.99951,3.06003 L 2.02809,3.00133 L 2.17455,2.64276
 L 2.19194,2.59276 L 2.31175,2.17896 L 2.3219,2.13734 L 2.41508,1.66832 L 2.42068,1.63387 L 2.48726,1.10962
 L 2.49005,1.08101 L 2.52998,0.501556 L 2.53107,0.477676 L 2.54439,-0.156998 L 2.54439,-0.17807 L 2.53107,-0.807938
 L 2.52997,-0.831985 L 2.49004,-1.40718 L 2.4872,-1.43599 L 2.42062,-1.95651 L 2.41495,-1.99115 L 2.32176,-2.457
 L 2.31152,-2.49881 L 2.19171,-2.90997 L 2.17416,-2.9601 L 2.02771,-3.31659 L 1.99898,-3.37529 L 1.82591,-3.67712
 L 1.78223,-3.74121 L 1.57785,-3.99609 L 1.5217,-4.05545 L 1.28134,-4.27112 L 1.21649,-4.32039 L 0.94014,-4.49684
 L 0.872208,-4.53319 L 0.559875,-4.67043 L 0.494202,-4.69395 L 0.145874,-4.79199 L 0.0860443,-4.80495 L -0.298248,-4.86375
 L -0.350586,-4.86896 L -0.770874,-4.88857 L -0.794174,-4.88911 L -1.49942,-4.88911 L -1.59311,-4.88026 L -1.65393,-4.86464
 L -1.71231,-4.84152 L -1.76733,-4.81128 L -1.81813,-4.77437 L -1.86391,-4.73138 L -1.90393,-4.68301 L -1.93758,-4.62999
 L -1.96431,-4.57318 L -1.98372,-4.51346 L -1.99548,-4.45178 L -1.99942,-4.38911 L -1.99942,4.08063 L -1.99057,4.17432
 L -1.97495,4.23514 L -1.95183,4.29352 L -1.92159,4.34854 L -1.88467,4.39934 L -1.84169,4.44511 L -1.79332,4.48514
 L -1.7403,4.51878 L -1.68349,4.54552 L -1.62376,4.56493 L -1.56209,4.57669 L -1.49942,4.58063 L -0.794174,4.58063
 z
M -1.49942,4.08063 L -1.49942,-4.38911 L -0.794174,-4.38911 L -0.373886,-4.36951 L 0.0104065,-4.3107 L 0.358734,-4.21266
 L 0.671066,-4.07542 L 0.947418,-3.89897 L 1.18777,-3.6833 L 1.39215,-3.42842 L 1.56522,-3.12659 L 1.71167,-2.7701
 L 1.83148,-2.35893 L 1.92467,-1.89308 L 1.99124,-1.37256 L 2.03117,-0.797363 L 2.04449,-0.167496 L 2.03117,0.467178
 L 1.99124,1.04663 L 1.92467,1.57088 L 1.83148,2.0399 L 1.71167,2.4537 L 1.56522,2.81227 L 1.39215,3.11563
 L 1.18777,3.37166 L 0.947418,3.58829 L 0.671066,3.76553 L 0.358734,3.90338 L 0.0104065,4.00185 L -0.373886,4.06093
 L -0.794174,4.08063 z
M -12.5822,-3.13838 L -8.89723,6.42686 L -6.1203,6.42686 L -6.1203,-6.73535 L -8.41246,-6.73535 L -8.41246,2.8299
 L -12.0798,-6.73535 L -14.8742,-6.73535 L -14.8742,6.42686 L -12.5822,6.42686 z
M -14.3742,5.92686 L -14.3742,-6.23535 L -12.4235,-6.23535 L -8.87932,3.0089 L -8.85062,3.07077 L -8.81697,3.12379
 L -8.77695,3.17216 L -8.73117,3.21515 L -8.68037,3.25206 L -8.62535,3.2823 L -8.56697,3.30542 L -8.50615,3.32104
 L -8.44386,3.3289 L -8.38106,3.3289 L -8.31877,3.32104 L -8.25795,3.30542 L -8.19957,3.2823 L -8.14455,3.25206
 L -8.09375,3.21515 L -8.04797,3.17216 L -8.00795,3.12379 L -7.9743,3.07077 L -7.94757,3.01396 L -7.92816,2.95424
 L -7.9164,2.89256 L -7.91246,2.8299 L -7.91246,-6.23535 L -6.6203,-6.23535 L -6.6203,5.92686 L -8.55405,5.92686
 L -12.1156,-3.31813 L -12.1441,-3.37926 L -12.1777,-3.43228 L -12.2177,-3.48065 L -12.2635,-3.52364 L -12.3143,-3.56055
 L -12.3693,-3.59079 L -12.4277,-3.61391 L -12.4885,-3.62953 L -12.5508,-3.63739 L -12.6136,-3.63739 L -12.6759,-3.62953
 L -12.7367,-3.61391 L -12.7951,-3.59079 L -12.8501,-3.56055 L -12.9009,-3.52364 L -12.9467,-3.48065 L -12.9867,-3.43228
 L -13.0204,-3.37926 L -13.0471,-3.32245 L -13.0665,-3.26273 L -13.0783,-3.20105 L -13.0822,-3.13838 L -13.0822,5.92686
 z
M 9.0809,1.22687 L 9.90952,1.22687 L 10.174,1.25726 L 10.4284,1.34846 L 10.6727,1.50046 L 10.9069,1.71324
 L 11.1311,1.98683 L 11.3452,2.32123 L 11.5492,2.7164 L 11.5811,2.78474 L 11.6111,2.84877 L 11.6394,2.90849
 L 11.6658,2.96388 L 11.6905,3.01497 L 11.7133,3.06174 L 11.7343,3.1042 L 13.3212,6.42686 L 16.1775,6.42686
 L 13.7972,1.69395 L 13.6814,1.46817 L 13.5708,1.26451 L 13.4655,1.08299 L 13.3654,0.923615 L 13.2705,0.786377
 L 13.1808,0.671265 L 13.0963,0.578293 L 13.0124,0.500626 L 12.9244,0.431412 L 12.8322,0.370651 L 12.7359,0.318359
 L 12.6354,0.274521 L 12.5308,0.239136 L 12.422,0.212219 L 12.7653,0.153732 L 13.0848,0.068985 L 13.3805,-0.0420227
 L 13.6526,-0.179291 L 13.9008,-0.342834 L 14.1254,-0.532654 L 14.3261,-0.748734 L 14.5016,-0.989304 L 14.65,-1.25256
 L 14.7714,-1.5385 L 14.8659,-1.84709 L 14.9333,-2.17838 L 14.9738,-2.53232 L 14.9873,-2.90894 L 14.9647,-3.46526
 L 14.897,-3.97552 L 14.7841,-4.43974 L 14.626,-4.85789 L 14.4228,-5.23 L 14.1744,-5.55603 L 13.8809,-5.83601
 L 13.5356,-6.07462 L 13.1318,-6.2765 L 12.6695,-6.4417 L 12.1488,-6.57018 L 11.5695,-6.66194 L 10.9319,-6.71701
 L 10.2357,-6.73535 L 6.48024,-6.73535 L 6.48024,6.42686 L 9.0809,6.42686 z
M 6.98024,5.92686 L 6.98024,-6.23535 L 10.2289,-6.23535 L 10.904,-6.21756 L 11.5088,-6.16533 L 12.0495,-6.07967
 L 12.5251,-5.96233 L 12.9352,-5.8158 L 13.2803,-5.6432 L 13.5643,-5.44702 L 13.8006,-5.22159 L 14.0022,-4.95705
 L 14.1706,-4.64871 L 14.3055,-4.29172 L 14.4048,-3.88327 L 14.4661,-3.4221 L 14.487,-2.90776 L 14.4748,-2.56979
 L 14.439,-2.25674 L 14.3807,-1.97041 L 14.301,-1.70985 L 14.2007,-1.4738 L 14.0804,-1.26031 L 13.9396,-1.06732
 L 13.7795,-0.89502 L 13.6009,-0.744019 L 13.4015,-0.612656 L 13.1794,-0.50058 L 12.9326,-0.407928 L 12.6589,-0.335342
 L 12.338,-0.28067 L 12.2935,-0.270966 L 12.2339,-0.251038 L 12.1773,-0.223816 L 12.1246,-0.189713 L 12.0766,-0.149261
 L 12.034,-0.103119 L 11.9975,-0.052002 L 11.9678,0.00328064 L 11.9452,0.0618591 L 11.9301,0.122818 L 11.9228,0.185181
 L 11.9233,0.247971 L 11.9317,0.310196 L 11.9479,0.370865 L 11.9715,0.429047 L 12.0022,0.48381 L 12.0396,0.534286
 L 12.0829,0.579681 L 12.1317,0.619278 L 12.185,0.652451 L 12.242,0.678696 L 12.3019,0.697571 L 12.3904,0.719467
 L 12.4549,0.741287 L 12.5163,0.768097 L 12.5748,0.79985 L 12.6318,0.837402 L 12.6876,0.881271 L 12.7408,0.930542
 L 12.7979,0.993408 L 12.8674,1.08249 L 12.9478,1.19882 L 13.0375,1.34161 L 13.1348,1.50929 L 13.239,1.7012
 L 13.3522,1.92209 L 15.3663,5.92686 L 13.6365,5.92686 L 12.1855,2.88872 L 12.1823,2.8822 L 12.1626,2.84242
 L 12.1398,2.79565 L 12.1162,2.74664 L 12.0913,2.69464 L 12.0631,2.63492 L 12.0337,2.57234 L 12.0024,2.50514
 L 11.9935,2.48703 L 11.7895,2.09186 L 11.7663,2.05162 L 11.5522,1.71722 L 11.5179,1.66994 L 11.2937,1.39635
 L 11.2431,1.34314 L 11.0089,1.13036 L 10.9368,1.07591 L 10.6925,0.92392 L 10.6548,0.902664 L 10.5971,0.877792
 L 10.3427,0.786591 L 10.2929,0.771606 L 10.2311,0.760529 L 9.9666,0.730133 L 9.90952,0.726868 L 9.0809,0.726868
 L 8.98721,0.735718 L 8.92639,0.751343 L 8.86801,0.77446 L 8.81299,0.804703 L 8.76219,0.841614 L 8.71642,0.884598
 L 8.67639,0.932968 L 8.64275,0.985992 L 8.61601,1.0428 L 8.5966,1.10252 L 8.58484,1.1642 L 8.5809,1.22687
 L 8.5809,5.92686 z
M 10.3209,-0.461487 L 10.6133,-0.470032 L 10.6463,-0.472092 L 10.9141,-0.497711 L 10.953,-0.502975 L 11.1961,-0.54567
 L 11.2416,-0.555862 L 11.4601,-0.615646 L 11.5125,-0.633133 L 11.7063,-0.710007 L 11.7647,-0.73764 L 11.9339,-0.831573
 L 11.9957,-0.872192 L 12.1403,-0.983215 L 12.2001,-1.03734 L 12.3229,-1.168 L 12.3719,-1.2292 L 12.4758,-1.38196
 L 12.5121,-1.44461 L 12.5971,-1.61949 L 12.6214,-1.67896 L 12.6875,-1.87595 L 12.7023,-1.92969 L 12.7495,-2.14879
 L 12.7573,-2.1958 L 12.7857,-2.437 L 12.7888,-2.4774 L 12.7982,-2.74072 L 12.7982,-2.77641 L 12.7888,-3.03964
 L 12.7858,-3.07973 L 12.7578,-3.32066 L 12.75,-3.36742 L 12.7033,-3.58604 L 12.6886,-3.63966 L 12.6232,-3.836
 L 12.5989,-3.89552 L 12.5147,-4.06956 L 12.4785,-4.13242 L 12.3756,-4.28416 L 12.3262,-4.34593 L 12.2045,-4.47537
 L 12.1441,-4.53004 L 12.0005,-4.63994 L 11.9379,-4.68083 L 11.7691,-4.7738 L 11.7104,-4.80133 L 11.5165,-4.87741
 L 11.4643,-4.89467 L 11.2451,-4.95384 L 11.2,-4.96382 L 10.9557,-5.00607 L 10.9173,-5.01118 L 10.6478,-5.03654
 L 10.6153,-5.03854 L 10.3206,-5.047 L 10.3063,-5.0472 L 9.0809,-5.0472 L 8.98721,-5.03835 L 8.92639,-5.02272
 L 8.86801,-4.9996 L 8.81299,-4.96936 L 8.76219,-4.93245 L 8.71642,-4.88947 L 8.67639,-4.84109 L 8.64275,-4.78807
 L 8.61601,-4.73126 L 8.5966,-4.67154 L 8.58484,-4.60986 L 8.5809,-4.5472 L 8.5809,-0.961273 L 8.58975,-0.867584
 L 8.60538,-0.806763 L 8.62849,-0.748383 L 8.65874,-0.693359 L 8.69565,-0.642563 L 8.73863,-0.596786 L 8.787,-0.556763
 L 8.84003,-0.523117 L 8.89684,-0.496384 L 8.95656,-0.476974 L 9.01823,-0.46521 L 9.0809,-0.461273 L 10.3063,-0.461273
 z
M 9.0809,-0.961273 L 9.0809,-4.5472 L 10.3063,-4.5472 L 10.601,-4.53874 L 10.8705,-4.51338 L 11.1148,-4.47113
 L 11.3339,-4.41196 L 11.5278,-4.33588 L 11.6966,-4.2429 L 11.8401,-4.13301 L 11.9618,-4.00357 L 12.0647,-3.85182
 L 12.1488,-3.67778 L 12.2143,-3.48145 L 12.2611,-3.26282 L 12.2892,-3.02188 L 12.2985,-2.75865 L 12.2891,-2.49533
 L 12.2607,-2.25414 L 12.2135,-2.03503 L 12.1474,-1.83804 L 12.0624,-1.66316 L 11.9585,-1.51041 L 11.8357,-1.37975
 L 11.6912,-1.26872 L 11.522,-1.17479 L 11.3281,-1.09792 L 11.1096,-1.03813 L 10.8665,-0.995438 L 10.5987,-0.969818
 L 10.3063,-0.961273 z
M 19.6083,3.17375 L 23.0905,3.17375 L 23.9014,6.42686 L 26.5021,6.42686 L 22.9494,-6.73535 L 19.7669,-6.73535
 L 16.2143,6.42686 L 18.8149,6.42686 z
M 16.8671,5.92686 L 20.1499,-6.23535 L 22.5665,-6.23535 L 25.8492,5.92686 L 24.2921,5.92686 L 23.5757,3.05281
 L 23.566,3.01924 L 23.5429,2.96086 L 23.5127,2.90584 L 23.4758,2.85504 L 23.4328,2.80927 L 23.3844,2.76924
 L 23.3314,2.7356 L 23.2746,2.70886 L 23.2148,2.68945 L 23.1532,2.67769 L 23.0905,2.67375 L 19.6083,2.67375
 L 19.5709,2.67516 L 19.5087,2.68378 L 19.4481,2.70013 L 19.39,2.72395 L 19.3353,2.75487 L 19.285,2.79239
 L 19.2397,2.83592 L 19.2003,2.88478 L 19.1673,2.9382 L 19.1412,2.99533 L 19.1226,3.05528 L 18.4222,5.92686
 z
M 22.6687,1.52893 L 22.7299,1.51492 L 22.7889,1.49335 L 22.8447,1.46455 L 22.8964,1.42899 L 22.9433,1.38722
 L 22.9846,1.3399 L 23.0196,1.28778 L 23.0478,1.23169 L 23.0688,1.1725 L 23.0822,1.11116 L 23.0878,1.04861
 L 23.0854,0.98587 L 23.0753,0.923904 L 21.8412,-4.46536 L 21.8134,-4.55066 L 21.7851,-4.6067 L 21.75,-4.65877
 L 21.7087,-4.70601 L 21.6617,-4.74771 L 21.6099,-4.7832 L 21.5541,-4.8119 L 21.4951,-4.83339 L 21.4339,-4.84732
 L 21.3714,-4.85345 L 21.3086,-4.85172 L 21.2466,-4.84212 L 21.1862,-4.82481 L 21.1285,-4.80009 L 21.0743,-4.76833
 L 21.0246,-4.73003 L 20.98,-4.68579 L 20.9413,-4.63631 L 20.9092,-4.58238 L 20.884,-4.52486 L 20.8663,-4.46461
 L 19.6409,0.924652 L 19.6294,1.0041 L 19.6294,1.06691 L 19.6373,1.1292 L 19.6529,1.19002 L 19.676,1.2484
 L 19.7063,1.30342 L 19.7432,1.35422 L 19.7862,1.39999 L 19.8345,1.44002 L 19.8876,1.47366 L 19.9444,1.5004
 L 20.0041,1.51981 L 20.0658,1.53157 L 20.1284,1.53551 L 22.5879,1.53551 z
M 20.1284,1.03551 L 21.3538,-4.35376 L 22.5879,1.03551 z
" stroke="black" fill="lightgray" stroke-width="0.5"/>
</svg>
