  0
SECTION
  2
BLOCKS
  0
ENDSEC
  0
SECTION
  2
ENTITIES
  0
LINE
  8
0
 10
21.6302
 20
-6.6566
 11
22.2366
 21
-6.59641
  0
LINE
  8
0
 10
22.2366
 20
-6.59641
 11
22.7939
 21
-6.49609
  0
LINE
  8
0
 10
22.7939
 20
-6.49609
 11
23.302
 21
-6.35567
  0
LINE
  8
0
 10
23.302
 20
-6.35567
 11
23.7611
 21
-6.17509
  0
LINE
  8
0
 10
23.7611
 20
-6.17509
 11
24.171
 21
-5.95441
  0
LINE
  8
0
 10
24.171
 20
-5.95441
 11
24.5318
 21
-5.6936
  0
LINE
  8
0
 10
24.5318
 20
-5.6936
 11
24.8441
 21
-5.39212
  0
LINE
  8
0
 10
24.8441
 20
-5.39212
 11
25.1082
 21
-5.04944
  0
LINE
  8
0
 10
25.1082
 20
-5.04944
 11
25.3244
 21
-4.66554
  0
LINE
  8
0
 10
25.3244
 20
-4.66554
 11
25.4925
 21
-4.24045
  0
LINE
  8
0
 10
25.4925
 20
-4.24045
 11
25.6126
 21
-3.77414
  0
LINE
  8
0
 10
25.6126
 20
-3.77414
 11
25.6847
 21
-3.26662
  0
LINE
  8
0
 10
25.6847
 20
-3.26662
 11
25.7087
 21
-2.7179
  0
LINE
  8
0
 10
25.7087
 20
-2.7179
 11
25.6934
 21
-2.31
  0
LINE
  8
0
 10
25.6934
 20
-2.31
 11
25.6475
 21
-1.92262
  0
LINE
  8
0
 10
25.6475
 20
-1.92262
 11
25.5711
 21
-1.55576
  0
LINE
  8
0
 10
25.5711
 20
-1.55576
 11
25.464
 21
-1.2094
  0
LINE
  8
0
 10
25.464
 20
-1.2094
 11
25.3264
 21
-0.883545
  0
LINE
  8
0
 10
25.3264
 20
-0.883545
 11
25.1582
 21
-0.578217
  0
LINE
  8
0
 10
25.1582
 20
-0.578217
 11
24.9594
 21
-0.293396
  0
LINE
  8
0
 10
24.9594
 20
-0.293396
 11
24.7282
 21
-0.0265503
  0
LINE
  8
0
 10
24.7282
 20
-0.0265503
 11
24.4628
 21
0.224823
  0
LINE
  8
0
 10
24.4628
 20
0.224823
 11
24.1633
 21
0.460724
  0
LINE
  8
0
 10
24.1633
 20
0.460724
 11
23.8296
 21
0.681152
  0
LINE
  8
0
 10
23.8296
 20
0.681152
 11
23.4617
 21
0.886093
  0
LINE
  8
0
 10
23.4617
 20
0.886093
 11
23.0596
 21
1.07556
  0
LINE
  8
0
 10
23.0596
 20
1.07556
 11
22.6233
 21
1.24956
  0
LINE
  8
0
 10
22.6233
 20
1.24956
 11
21.5036
 21
1.67322
  0
LINE
  8
0
 10
21.5036
 20
1.67322
 11
21.1874
 21
1.79515
  0
LINE
  8
0
 10
21.1874
 20
1.79515
 11
20.9038
 21
1.91402
  0
LINE
  8
0
 10
20.9038
 20
1.91402
 11
20.6527
 21
2.02982
  0
LINE
  8
0
 10
20.6527
 20
2.02982
 11
20.4342
 21
2.14253
  0
LINE
  8
0
 10
20.4342
 20
2.14253
 11
20.2483
 21
2.2522
  0
LINE
  8
0
 10
20.2483
 20
2.2522
 11
20.0949
 21
2.3588
  0
LINE
  8
0
 10
20.0949
 20
2.3588
 11
19.9741
 21
2.46233
  0
LINE
  8
0
 10
19.9741
 20
2.46233
 11
19.8771
 21
2.56822
  0
LINE
  8
0
 10
19.8771
 20
2.56822
 11
19.795
 21
2.68187
  0
LINE
  8
0
 10
19.795
 20
2.68187
 11
19.7278
 21
2.80325
  0
LINE
  8
0
 10
19.7278
 20
2.80325
 11
19.6755
 21
2.93239
  0
LINE
  8
0
 10
19.6755
 20
2.93239
 11
19.6382
 21
3.06924
  0
LINE
  8
0
 10
19.6382
 20
3.06924
 11
19.6158
 21
3.21387
  0
LINE
  8
0
 10
19.6158
 20
3.21387
 11
19.6083
 21
3.36621
  0
LINE
  8
0
 10
19.6083
 20
3.36621
 11
19.6186
 21
3.5611
  0
LINE
  8
0
 10
19.6186
 20
3.5611
 11
19.6493
 21
3.74265
  0
LINE
  8
0
 10
19.6493
 20
3.74265
 11
19.7006
 21
3.91089
  0
LINE
  8
0
 10
19.7006
 20
3.91089
 11
19.7724
 21
4.06581
  0
LINE
  8
0
 10
19.7724
 20
4.06581
 11
19.8647
 21
4.20741
  0
LINE
  8
0
 10
19.8647
 20
4.20741
 11
19.9775
 21
4.33571
  0
LINE
  8
0
 10
19.9775
 20
4.33571
 11
20.1108
 21
4.45067
  0
LINE
  8
0
 10
20.1108
 20
4.45067
 11
20.2634
 21
4.55128
  0
LINE
  8
0
 10
20.2634
 20
4.55128
 11
20.4339
 21
4.63641
  0
LINE
  8
0
 10
20.4339
 20
4.63641
 11
20.6225
 21
4.70605
  0
LINE
  8
0
 10
20.6225
 20
4.70605
 11
20.8291
 21
4.76024
  0
LINE
  8
0
 10
20.8291
 20
4.76024
 11
21.0536
 21
4.79892
  0
LINE
  8
0
 10
21.0536
 20
4.79892
 11
21.2961
 21
4.82214
  0
LINE
  8
0
 10
21.2961
 20
4.82214
 11
21.5566
 21
4.82988
  0
LINE
  8
0
 10
21.5566
 20
4.82988
 11
21.7988
 21
4.82359
  0
LINE
  8
0
 10
21.7988
 20
4.82359
 11
22.0417
 21
4.80472
  0
LINE
  8
0
 10
22.0417
 20
4.80472
 11
22.2853
 21
4.77327
  0
LINE
  8
0
 10
22.2853
 20
4.77327
 11
22.5296
 21
4.72923
  0
LINE
  8
0
 10
22.5296
 20
4.72923
 11
22.7746
 21
4.67262
  0
LINE
  8
0
 10
22.7746
 20
4.67262
 11
23.0203
 21
4.60342
  0
LINE
  8
0
 10
23.0203
 20
4.60342
 11
23.2668
 21
4.52165
  0
LINE
  8
0
 10
23.2668
 20
4.52165
 11
23.5131
 21
4.42784
  0
LINE
  8
0
 10
23.5131
 20
4.42784
 11
23.7583
 21
4.32253
  0
LINE
  8
0
 10
23.7583
 20
4.32253
 11
24.0025
 21
4.20572
  0
LINE
  8
0
 10
24.0025
 20
4.20572
 11
24.2455
 21
4.07741
  0
LINE
  8
0
 10
24.2455
 20
4.07741
 11
24.4875
 21
3.93759
  0
LINE
  8
0
 10
24.4875
 20
3.93759
 11
24.7284
 21
3.78629
  0
LINE
  8
0
 10
24.7284
 20
3.78629
 11
24.9682
 21
3.62349
  0
LINE
  8
0
 10
24.9682
 20
3.62349
 11
24.9682
 21
6.16109
  0
LINE
  8
0
 10
24.9682
 20
6.16109
 11
24.7135
 21
6.27342
  0
LINE
  8
0
 10
24.7135
 20
6.27342
 11
24.458
 21
6.37762
  0
LINE
  8
0
 10
24.458
 20
6.37762
 11
24.2018
 21
6.47369
  0
LINE
  8
0
 10
24.2018
 20
6.47369
 11
23.9449
 21
6.56163
  0
LINE
  8
0
 10
23.9449
 20
6.56163
 11
23.6872
 21
6.64143
  0
LINE
  8
0
 10
23.6872
 20
6.64143
 11
23.4289
 21
6.7131
  0
LINE
  8
0
 10
23.4289
 20
6.7131
 11
23.1698
 21
6.77663
  0
LINE
  8
0
 10
23.1698
 20
6.77663
 11
22.9104
 21
6.83185
  0
LINE
  8
0
 10
22.9104
 20
6.83185
 11
22.651
 21
6.87857
  0
LINE
  8
0
 10
22.651
 20
6.87857
 11
22.3916
 21
6.91681
  0
LINE
  8
0
 10
22.3916
 20
6.91681
 11
22.1321
 21
6.94653
  0
LINE
  8
0
 10
22.1321
 20
6.94653
 11
21.8727
 21
6.96777
  0
LINE
  8
0
 10
21.8727
 20
6.96777
 11
21.6133
 21
6.98051
  0
LINE
  8
0
 10
21.6133
 20
6.98051
 11
21.3538
 21
6.98476
  0
LINE
  8
0
 10
21.3538
 20
6.98476
 11
20.7995
 21
6.96387
  0
LINE
  8
0
 10
20.7995
 20
6.96387
 11
20.2801
 21
6.9012
  0
LINE
  8
0
 10
20.2801
 20
6.9012
 11
19.7956
 21
6.79675
  0
LINE
  8
0
 10
19.7956
 20
6.79675
 11
19.3459
 21
6.65051
  0
LINE
  8
0
 10
19.3459
 20
6.65051
 11
18.9312
 21
6.46251
  0
LINE
  8
0
 10
18.9312
 20
6.46251
 11
18.5514
 21
6.23271
  0
LINE
  8
0
 10
18.5514
 20
6.23271
 11
18.2065
 21
5.96114
  0
LINE
  8
0
 10
18.2065
 20
5.96114
 11
17.9025
 21
5.65305
  0
LINE
  8
0
 10
17.9025
 20
5.65305
 11
17.6452
 21
5.31361
  0
LINE
  8
0
 10
17.6452
 20
5.31361
 11
17.4348
 21
4.94284
  0
LINE
  8
0
 10
17.4348
 20
4.94284
 11
17.2711
 21
4.54074
  0
LINE
  8
0
 10
17.2711
 20
4.54074
 11
17.1541
 21
4.10728
  0
LINE
  8
0
 10
17.1541
 20
4.10728
 11
17.084
 21
3.6425
  0
LINE
  8
0
 10
17.084
 20
3.6425
 11
17.0606
 21
3.14638
  0
LINE
  8
0
 10
17.0606
 20
3.14638
 11
17.0748
 21
2.75967
  0
LINE
  8
0
 10
17.0748
 20
2.75967
 11
17.1174
 21
2.39619
  0
LINE
  8
0
 10
17.1174
 20
2.39619
 11
17.1885
 21
2.05594
  0
LINE
  8
0
 10
17.1885
 20
2.05594
 11
17.288
 21
1.73891
  0
LINE
  8
0
 10
17.288
 20
1.73891
 11
17.4159
 21
1.4451
  0
LINE
  8
0
 10
17.4159
 20
1.4451
 11
17.5722
 21
1.17451
  0
LINE
  8
0
 10
17.5722
 20
1.17451
 11
17.757
 21
0.927155
  0
LINE
  8
0
 10
17.757
 20
0.927155
 11
17.9819
 21
0.692978
  0
LINE
  8
0
 10
17.9819
 20
0.692978
 11
18.2586
 21
0.461853
  0
LINE
  8
0
 10
18.2586
 20
0.461853
 11
18.5871
 21
0.23381
  0
LINE
  8
0
 10
18.5871
 20
0.23381
 11
18.9674
 21
0.00880432
  0
LINE
  8
0
 10
18.9674
 20
0.00880432
 11
19.3995
 21
-0.213104
  0
LINE
  8
0
 10
19.3995
 20
-0.213104
 11
19.8835
 21
-0.431976
  0
LINE
  8
0
 10
19.8835
 20
-0.431976
 11
20.4193
 21
-0.647781
  0
LINE
  8
0
 10
20.4193
 20
-0.647781
 11
21.6976
 21
-1.13307
  0
LINE
  8
0
 10
21.6976
 20
-1.13307
 11
21.8825
 21
-1.20985
  0
LINE
  8
0
 10
21.8825
 20
-1.20985
 11
22.0545
 21
-1.29436
  0
LINE
  8
0
 10
22.0545
 20
-1.29436
 11
22.2135
 21
-1.3866
  0
LINE
  8
0
 10
22.2135
 20
-1.3866
 11
22.3596
 21
-1.48657
  0
LINE
  8
0
 10
22.3596
 20
-1.48657
 11
22.4928
 21
-1.59427
  0
LINE
  8
0
 10
22.4928
 20
-1.59427
 11
22.6129
 21
-1.7097
  0
LINE
  8
0
 10
22.6129
 20
-1.7097
 11
22.7201
 21
-1.83286
  0
LINE
  8
0
 10
22.7201
 20
-1.83286
 11
22.8137
 21
-1.96281
  0
LINE
  8
0
 10
22.8137
 20
-1.96281
 11
22.8929
 21
-2.09869
  0
LINE
  8
0
 10
22.8929
 20
-2.09869
 11
22.9577
 21
-2.24051
  0
LINE
  8
0
 10
22.9577
 20
-2.24051
 11
23.008
 21
-2.38824
  0
LINE
  8
0
 10
23.008
 20
-2.38824
 11
23.044
 21
-2.5419
  0
LINE
  8
0
 10
23.044
 20
-2.5419
 11
23.0656
 21
-2.70149
  0
LINE
  8
0
 10
23.0656
 20
-2.70149
 11
23.0728
 21
-2.86702
  0
LINE
  8
0
 10
23.0728
 20
-2.86702
 11
23.062
 21
-3.08374
  0
LINE
  8
0
 10
23.062
 20
-3.08374
 11
23.0296
 21
-3.28629
  0
LINE
  8
0
 10
23.0296
 20
-3.28629
 11
22.9757
 21
-3.47464
  0
LINE
  8
0
 10
22.9757
 20
-3.47464
 11
22.9001
 21
-3.64879
  0
LINE
  8
0
 10
22.9001
 20
-3.64879
 11
22.8029
 21
-3.80878
  0
LINE
  8
0
 10
22.8029
 20
-3.80878
 11
22.6842
 21
-3.95456
  0
LINE
  8
0
 10
22.6842
 20
-3.95456
 11
22.5439
 21
-4.08615
  0
LINE
  8
0
 10
22.5439
 20
-4.08615
 11
22.3839
 21
-4.20172
  0
LINE
  8
0
 10
22.3839
 20
-4.20172
 11
22.2064
 21
-4.29951
  0
LINE
  8
0
 10
22.2064
 20
-4.29951
 11
22.0112
 21
-4.37953
  0
LINE
  8
0
 10
22.0112
 20
-4.37953
 11
21.7984
 21
-4.44177
  0
LINE
  8
0
 10
21.7984
 20
-4.44177
 11
21.5679
 21
-4.48622
  0
LINE
  8
0
 10
21.5679
 20
-4.48622
 11
21.3198
 21
-4.51289
  0
LINE
  8
0
 10
21.3198
 20
-4.51289
 11
21.054
 21
-4.52179
  0
LINE
  8
0
 10
21.054
 20
-4.52179
 11
20.7816
 21
-4.51445
  0
LINE
  8
0
 10
20.7816
 20
-4.51445
 11
20.5082
 21
-4.49243
  0
LINE
  8
0
 10
20.5082
 20
-4.49243
 11
20.2339
 21
-4.45573
  0
LINE
  8
0
 10
20.2339
 20
-4.45573
 11
19.9587
 21
-4.40437
  0
LINE
  8
0
 10
19.9587
 20
-4.40437
 11
19.6827
 21
-4.33832
  0
LINE
  8
0
 10
19.6827
 20
-4.33832
 11
19.4057
 21
-4.2576
  0
LINE
  8
0
 10
19.4057
 20
-4.2576
 11
19.1278
 21
-4.1622
  0
LINE
  8
0
 10
19.1278
 20
-4.1622
 11
18.8482
 21
-4.05173
  0
LINE
  8
0
 10
18.8482
 20
-4.05173
 11
18.5658
 21
-3.92587
  0
LINE
  8
0
 10
18.5658
 20
-3.92587
 11
18.2807
 21
-3.78464
  0
LINE
  8
0
 10
18.2807
 20
-3.78464
 11
17.993
 21
-3.62801
  0
LINE
  8
0
 10
17.993
 20
-3.62801
 11
17.7025
 21
-3.45598
  0
LINE
  8
0
 10
17.7025
 20
-3.45598
 11
17.4094
 21
-3.26857
  0
LINE
  8
0
 10
17.4094
 20
-3.26857
 11
17.1135
 21
-3.06578
  0
LINE
  8
0
 10
17.1135
 20
-3.06578
 11
17.1135
 21
-5.75314
  0
LINE
  8
0
 10
17.1135
 20
-5.75314
 11
17.3768
 21
-5.87924
  0
LINE
  8
0
 10
17.3768
 20
-5.87924
 11
17.6428
 21
-5.99617
  0
LINE
  8
0
 10
17.6428
 20
-5.99617
 11
17.9114
 21
-6.10396
  0
LINE
  8
0
 10
17.9114
 20
-6.10396
 11
18.1828
 21
-6.20259
  0
LINE
  8
0
 10
18.1828
 20
-6.20259
 11
18.4569
 21
-6.29207
  0
LINE
  8
0
 10
18.4569
 20
-6.29207
 11
18.7337
 21
-6.37241
  0
LINE
  8
0
 10
18.7337
 20
-6.37241
 11
19.0132
 21
-6.44357
  0
LINE
  8
0
 10
19.0132
 20
-6.44357
 11
19.294
 21
-6.50542
  0
LINE
  8
0
 10
19.294
 20
-6.50542
 11
19.5746
 21
-6.55774
  0
LINE
  8
0
 10
19.5746
 20
-6.55774
 11
19.855
 21
-6.60056
  0
LINE
  8
0
 10
19.855
 20
-6.60056
 11
20.1352
 21
-6.63385
  0
LINE
  8
0
 10
20.1352
 20
-6.63385
 11
20.4152
 21
-6.65764
  0
LINE
  8
0
 10
20.4152
 20
-6.65764
 11
20.6951
 21
-6.67191
  0
LINE
  8
0
 10
20.6951
 20
-6.67191
 11
20.9747
 21
-6.67667
  0
LINE
  8
0
 10
20.9747
 20
-6.67667
 11
21.6302
 21
-6.6566
  0
LINE
  8
0
 10
20.7119
 20
-6.17212
 11
20.4492
 21
-6.15872
  0
LINE
  8
0
 10
20.4492
 20
-6.15872
 11
20.186
 21
-6.13637
  0
LINE
  8
0
 10
20.186
 20
-6.13637
 11
19.9225
 21
-6.10506
  0
LINE
  8
0
 10
19.9225
 20
-6.10506
 11
19.6581
 21
-6.0647
  0
LINE
  8
0
 10
19.6581
 20
-6.0647
 11
19.3935
 21
-6.01537
  0
LINE
  8
0
 10
19.3935
 20
-6.01537
 11
19.1288
 21
-5.95705
  0
LINE
  8
0
 10
19.1288
 20
-5.95705
 11
18.8649
 21
-5.88985
  0
LINE
  8
0
 10
18.8649
 20
-5.88985
 11
18.6042
 21
-5.81419
  0
LINE
  8
0
 10
18.6042
 20
-5.81419
 11
18.3459
 21
-5.72986
  0
LINE
  8
0
 10
18.3459
 20
-5.72986
 11
18.0901
 21
-5.63689
  0
LINE
  8
0
 10
18.0901
 20
-5.63689
 11
17.8367
 21
-5.53522
  0
LINE
  8
0
 10
17.8367
 20
-5.53522
 11
17.6135
 21
-5.43712
  0
LINE
  8
0
 10
17.6135
 20
-5.43712
 11
17.6135
 21
-3.98436
  0
LINE
  8
0
 10
17.6135
 20
-3.98436
 11
17.7382
 21
-4.05821
  0
LINE
  8
0
 10
17.7382
 20
-4.05821
 11
17.754
 21
-4.06715
  0
LINE
  8
0
 10
17.754
 20
-4.06715
 11
18.0417
 21
-4.22379
  0
LINE
  8
0
 10
18.0417
 20
-4.22379
 11
18.0588
 21
-4.23267
  0
LINE
  8
0
 10
18.0588
 20
-4.23267
 11
18.3438
 21
-4.3739
  0
LINE
  8
0
 10
18.3438
 20
-4.3739
 11
18.3623
 21
-4.38257
  0
LINE
  8
0
 10
18.3623
 20
-4.38257
 11
18.6446
 21
-4.50842
  0
LINE
  8
0
 10
18.6446
 20
-4.50842
 11
18.6645
 21
-4.51675
  0
LINE
  8
0
 10
18.6645
 20
-4.51675
 11
18.9441
 21
-4.62723
  0
LINE
  8
0
 10
18.9441
 20
-4.62723
 11
18.9655
 21
-4.6351
  0
LINE
  8
0
 10
18.9655
 20
-4.6351
 11
19.2433
 21
-4.7305
  0
LINE
  8
0
 10
19.2433
 20
-4.7305
 11
19.2658
 21
-4.73763
  0
LINE
  8
0
 10
19.2658
 20
-4.73763
 11
19.5428
 21
-4.81834
  0
LINE
  8
0
 10
19.5428
 20
-4.81834
 11
19.5663
 21
-4.82458
  0
LINE
  8
0
 10
19.5663
 20
-4.82458
 11
19.8424
 21
-4.89064
  0
LINE
  8
0
 10
19.8424
 20
-4.89064
 11
19.867
 21
-4.89589
  0
LINE
  8
0
 10
19.867
 20
-4.89589
 11
20.1422
 21
-4.94725
  0
LINE
  8
0
 10
20.1422
 20
-4.94725
 11
20.1676
 21
-4.95132
  0
LINE
  8
0
 10
20.1676
 20
-4.95132
 11
20.4419
 21
-4.98802
  0
LINE
  8
0
 10
20.4419
 20
-4.98802
 11
20.468
 21
-4.99081
  0
LINE
  8
0
 10
20.468
 20
-4.99081
 11
20.7414
 21
-5.01283
  0
LINE
  8
0
 10
20.7414
 20
-5.01283
 11
20.7681
 21
-5.01427
  0
LINE
  8
0
 10
20.7681
 20
-5.01427
 11
21.0406
 21
-5.02161
  0
LINE
  8
0
 10
21.0406
 20
-5.02161
 11
21.0708
 21
-5.02151
  0
LINE
  8
0
 10
21.0708
 20
-5.02151
 11
21.3365
 21
-5.01262
  0
LINE
  8
0
 10
21.3365
 20
-5.01262
 11
21.3732
 21
-5.01003
  0
LINE
  8
0
 10
21.3732
 20
-5.01003
 11
21.6213
 21
-4.98335
  0
LINE
  8
0
 10
21.6213
 20
-4.98335
 11
21.6626
 21
-4.97717
  0
LINE
  8
0
 10
21.6626
 20
-4.97717
 11
21.8931
 21
-4.93272
  0
LINE
  8
0
 10
21.8931
 20
-4.93272
 11
21.9387
 21
-4.92168
  0
LINE
  8
0
 10
21.9387
 20
-4.92168
 11
22.1515
 21
-4.85944
  0
LINE
  8
0
 10
22.1515
 20
-4.85944
 11
22.2008
 21
-4.84216
  0
LINE
  8
0
 10
22.2008
 20
-4.84216
 11
22.396
 21
-4.76215
  0
LINE
  8
0
 10
22.396
 20
-4.76215
 11
22.4476
 21
-4.73749
  0
LINE
  8
0
 10
22.4476
 20
-4.73749
 11
22.6252
 21
-4.63969
  0
LINE
  8
0
 10
22.6252
 20
-4.63969
 11
22.6768
 21
-4.60696
  0
LINE
  8
0
 10
22.6768
 20
-4.60696
 11
22.8367
 21
-4.49139
  0
LINE
  8
0
 10
22.8367
 20
-4.49139
 11
22.8859
 21
-4.45088
  0
LINE
  8
0
 10
22.8859
 20
-4.45088
 11
23.0262
 21
-4.31929
  0
LINE
  8
0
 10
23.0262
 20
-4.31929
 11
23.0719
 21
-4.27032
  0
LINE
  8
0
 10
23.0719
 20
-4.27032
 11
23.1906
 21
-4.12454
  0
LINE
  8
0
 10
23.1906
 20
-4.12454
 11
23.2303
 21
-4.06833
  0
LINE
  8
0
 10
23.2303
 20
-4.06833
 11
23.3275
 21
-3.90834
  0
LINE
  8
0
 10
23.3275
 20
-3.90834
 11
23.3588
 21
-3.84781
  0
LINE
  8
0
 10
23.3588
 20
-3.84781
 11
23.4343
 21
-3.67366
  0
LINE
  8
0
 10
23.4343
 20
-3.67366
 11
23.4563
 21
-3.6124
  0
LINE
  8
0
 10
23.4563
 20
-3.6124
 11
23.5103
 21
-3.42404
  0
LINE
  8
0
 10
23.5103
 20
-3.42404
 11
23.5234
 21
-3.36522
  0
LINE
  8
0
 10
23.5234
 20
-3.36522
 11
23.5558
 21
-3.16267
  0
LINE
  8
0
 10
23.5558
 20
-3.16267
 11
23.5614
 21
-3.1086
  0
LINE
  8
0
 10
23.5614
 20
-3.1086
 11
23.5722
 21
-2.89188
  0
LINE
  8
0
 10
23.5722
 20
-2.89188
 11
23.5723
 21
-2.84534
  0
LINE
  8
0
 10
23.5723
 20
-2.84534
 11
23.5652
 21
-2.67981
  0
LINE
  8
0
 10
23.5652
 20
-2.67981
 11
23.5611
 21
-2.63446
  0
LINE
  8
0
 10
23.5611
 20
-2.63446
 11
23.5395
 21
-2.47487
  0
LINE
  8
0
 10
23.5395
 20
-2.47487
 11
23.5309
 21
-2.42786
  0
LINE
  8
0
 10
23.5309
 20
-2.42786
 11
23.4949
 21
-2.2742
  0
LINE
  8
0
 10
23.4949
 20
-2.2742
 11
23.4813
 21
-2.22685
  0
LINE
  8
0
 10
23.4813
 20
-2.22685
 11
23.4309
 21
-2.07912
  0
LINE
  8
0
 10
23.4309
 20
-2.07912
 11
23.4125
 21
-2.03278
  0
LINE
  8
0
 10
23.4125
 20
-2.03278
 11
23.3477
 21
-1.89096
  0
LINE
  8
0
 10
23.3477
 20
-1.89096
 11
23.3249
 21
-1.84695
  0
LINE
  8
0
 10
23.3249
 20
-1.84695
 11
23.2457
 21
-1.71107
  0
LINE
  8
0
 10
23.2457
 20
-1.71107
 11
23.2195
 21
-1.67067
  0
LINE
  8
0
 10
23.2195
 20
-1.67067
 11
23.1259
 21
-1.54071
  0
LINE
  8
0
 10
23.1259
 20
-1.54071
 11
23.0972
 21
-1.50453
  0
LINE
  8
0
 10
23.0972
 20
-1.50453
 11
22.99
 21
-1.38138
  0
LINE
  8
0
 10
22.99
 20
-1.38138
 11
22.9593
 21
-1.34912
  0
LINE
  8
0
 10
22.9593
 20
-1.34912
 11
22.8391
 21
-1.23369
  0
LINE
  8
0
 10
22.8391
 20
-1.23369
 11
22.8072
 21
-1.20555
  0
LINE
  8
0
 10
22.8072
 20
-1.20555
 11
22.6741
 21
-1.09785
  0
LINE
  8
0
 10
22.6741
 20
-1.09785
 11
22.642
 21
-1.07394
  0
LINE
  8
0
 10
22.642
 20
-1.07394
 11
22.4959
 21
-0.973969
  0
LINE
  8
0
 10
22.4959
 20
-0.973969
 11
22.4644
 21
-0.954071
  0
LINE
  8
0
 10
22.4644
 20
-0.954071
 11
22.3054
 21
-0.861832
  0
LINE
  8
0
 10
22.3054
 20
-0.861832
 11
22.275
 21
-0.845596
  0
LINE
  8
0
 10
22.275
 20
-0.845596
 11
22.103
 21
-0.761093
  0
LINE
  8
0
 10
22.103
 20
-0.761093
 11
22.0742
 21
-0.748062
  0
LINE
  8
0
 10
22.0742
 20
-0.748062
 11
21.8893
 21
-0.67128
  0
LINE
  8
0
 10
21.8893
 20
-0.67128
 11
21.875
 21
-0.665619
  0
LINE
  8
0
 10
21.875
 20
-0.665619
 11
20.6013
 21
-0.182053
  0
LINE
  8
0
 10
20.6013
 20
-0.182053
 11
20.0801
 21
0.0278625
  0
LINE
  8
0
 10
20.0801
 20
0.0278625
 11
19.6167
 21
0.237427
  0
LINE
  8
0
 10
19.6167
 20
0.237427
 11
19.2091
 21
0.446732
  0
LINE
  8
0
 10
19.2091
 20
0.446732
 11
18.8573
 21
0.654892
  0
LINE
  8
0
 10
18.8573
 20
0.654892
 11
18.562
 21
0.859909
  0
LINE
  8
0
 10
18.562
 20
0.859909
 11
18.3235
 21
1.05905
  0
LINE
  8
0
 10
18.3235
 20
1.05905
 11
18.139
 21
1.25121
  0
LINE
  8
0
 10
18.139
 20
1.25121
 11
17.9904
 21
1.4502
  0
LINE
  8
0
 10
17.9904
 20
1.4502
 11
17.863
 21
1.67064
  0
LINE
  8
0
 10
17.863
 20
1.67064
 11
17.7571
 21
1.914
  0
LINE
  8
0
 10
17.7571
 20
1.914
 11
17.6729
 21
2.18222
  0
LINE
  8
0
 10
17.6729
 20
2.18222
 11
17.6114
 21
2.47658
  0
LINE
  8
0
 10
17.6114
 20
2.47658
 11
17.5737
 21
2.79803
  0
LINE
  8
0
 10
17.5737
 20
2.79803
 11
17.561
 21
3.14375
  0
LINE
  8
0
 10
17.561
 20
3.14375
 11
17.5822
 21
3.59332
  0
LINE
  8
0
 10
17.5822
 20
3.59332
 11
17.6443
 21
4.00456
  0
LINE
  8
0
 10
17.6443
 20
4.00456
 11
17.7458
 21
4.38075
  0
LINE
  8
0
 10
17.7458
 20
4.38075
 11
17.8856
 21
4.72417
  0
LINE
  8
0
 10
17.8856
 20
4.72417
 11
18.0638
 21
5.03801
  0
LINE
  8
0
 10
18.0638
 20
5.03801
 11
18.2813
 21
5.32507
  0
LINE
  8
0
 10
18.2813
 20
5.32507
 11
18.5405
 21
5.58769
  0
LINE
  8
0
 10
18.5405
 20
5.58769
 11
18.8365
 21
5.8208
  0
LINE
  8
0
 10
18.8365
 20
5.8208
 11
19.1648
 21
6.01939
  0
LINE
  8
0
 10
19.1648
 20
6.01939
 11
19.5271
 21
6.18364
  0
LINE
  8
0
 10
19.5271
 20
6.18364
 11
19.9259
 21
6.31337
  0
LINE
  8
0
 10
19.9259
 20
6.31337
 11
20.3629
 21
6.40756
  0
LINE
  8
0
 10
20.3629
 20
6.40756
 11
20.8389
 21
6.465
  0
LINE
  8
0
 10
20.8389
 20
6.465
 11
21.3591
 21
6.4846
  0
LINE
  8
0
 10
21.3591
 20
6.4846
 11
21.5969
 21
6.48071
  0
LINE
  8
0
 10
21.5969
 20
6.48071
 11
21.8401
 21
6.46877
  0
LINE
  8
0
 10
21.8401
 20
6.46877
 11
22.0834
 21
6.44885
  0
LINE
  8
0
 10
22.0834
 20
6.44885
 11
22.3265
 21
6.42099
  0
LINE
  8
0
 10
22.3265
 20
6.42099
 11
22.5704
 21
6.38504
  0
LINE
  8
0
 10
22.5704
 20
6.38504
 11
22.8138
 21
6.3412
  0
LINE
  8
0
 10
22.8138
 20
6.3412
 11
23.0585
 21
6.28912
  0
LINE
  8
0
 10
23.0585
 20
6.28912
 11
23.3021
 21
6.22937
  0
LINE
  8
0
 10
23.3021
 20
6.22937
 11
23.5466
 21
6.16158
  0
LINE
  8
0
 10
23.5466
 20
6.16158
 11
23.7901
 21
6.08612
  0
LINE
  8
0
 10
23.7901
 20
6.08612
 11
24.0328
 21
6.00307
  0
LINE
  8
0
 10
24.0328
 20
6.00307
 11
24.276
 21
5.91187
  0
LINE
  8
0
 10
24.276
 20
5.91187
 11
24.4682
 21
5.83347
  0
LINE
  8
0
 10
24.4682
 20
5.83347
 11
24.4682
 21
4.52525
  0
LINE
  8
0
 10
24.4682
 20
4.52525
 11
24.2359
 21
4.64789
  0
LINE
  8
0
 10
24.2359
 20
4.64789
 11
24.2182
 21
4.65675
  0
LINE
  8
0
 10
24.2182
 20
4.65675
 11
23.9741
 21
4.77356
  0
LINE
  8
0
 10
23.9741
 20
4.77356
 11
23.9556
 21
4.78195
  0
LINE
  8
0
 10
23.9556
 20
4.78195
 11
23.7104
 21
4.88727
  0
LINE
  8
0
 10
23.7104
 20
4.88727
 11
23.6911
 21
4.8951
  0
LINE
  8
0
 10
23.6911
 20
4.8951
 11
23.4447
 21
4.98891
  0
LINE
  8
0
 10
23.4447
 20
4.98891
 11
23.4242
 21
4.99622
  0
LINE
  8
0
 10
23.4242
 20
4.99622
 11
23.1778
 21
5.07799
  0
LINE
  8
0
 10
23.1778
 20
5.07799
 11
23.1559
 21
5.0847
  0
LINE
  8
0
 10
23.1559
 20
5.0847
 11
22.9101
 21
5.1539
  0
LINE
  8
0
 10
22.9101
 20
5.1539
 11
22.8871
 21
5.15979
  0
LINE
  8
0
 10
22.8871
 20
5.15979
 11
22.6421
 21
5.2164
  0
LINE
  8
0
 10
22.6421
 20
5.2164
 11
22.6183
 21
5.2213
  0
LINE
  8
0
 10
22.6183
 20
5.2213
 11
22.374
 21
5.26534
  0
LINE
  8
0
 10
22.374
 20
5.26534
 11
22.3493
 21
5.26915
  0
LINE
  8
0
 10
22.3493
 20
5.26915
 11
22.1057
 21
5.3006
  0
LINE
  8
0
 10
22.1057
 20
5.3006
 11
22.0804
 21
5.30321
  0
LINE
  8
0
 10
22.0804
 20
5.30321
 11
21.8375
 21
5.32208
  0
LINE
  8
0
 10
21.8375
 20
5.32208
 11
21.8118
 21
5.32343
  0
LINE
  8
0
 10
21.8118
 20
5.32343
 11
21.5696
 21
5.32971
  0
LINE
  8
0
 10
21.5696
 20
5.32971
 11
21.5418
 21
5.32967
  0
LINE
  8
0
 10
21.5418
 20
5.32967
 11
21.2813
 21
5.32193
  0
LINE
  8
0
 10
21.2813
 20
5.32193
 11
21.2484
 21
5.31987
  0
LINE
  8
0
 10
21.2484
 20
5.31987
 11
21.0059
 21
5.29665
  0
LINE
  8
0
 10
21.0059
 20
5.29665
 11
20.9687
 21
5.29166
  0
LINE
  8
0
 10
20.9687
 20
5.29166
 11
20.7442
 21
5.25298
  0
LINE
  8
0
 10
20.7442
 20
5.25298
 11
20.7022
 21
5.24388
  0
LINE
  8
0
 10
20.7022
 20
5.24388
 11
20.4956
 21
5.1897
  0
LINE
  8
0
 10
20.4956
 20
5.1897
 11
20.4493
 21
5.17509
  0
LINE
  8
0
 10
20.4493
 20
5.17509
 11
20.2607
 21
5.10545
  0
LINE
  8
0
 10
20.2607
 20
5.10545
 11
20.2106
 21
5.08379
  0
LINE
  8
0
 10
20.2106
 20
5.08379
 11
20.0401
 21
4.99866
  0
LINE
  8
0
 10
20.0401
 20
4.99866
 11
19.9881
 21
4.9687
  0
LINE
  8
0
 10
19.9881
 20
4.9687
 11
19.8355
 21
4.86809
  0
LINE
  8
0
 10
19.8355
 20
4.86809
 11
19.7843
 21
4.82933
  0
LINE
  8
0
 10
19.7843
 20
4.82933
 11
19.6509
 21
4.71437
  0
LINE
  8
0
 10
19.6509
 20
4.71437
 11
19.6019
 21
4.66585
  0
LINE
  8
0
 10
19.6019
 20
4.66585
 11
19.4892
 21
4.53755
  0
LINE
  8
0
 10
19.4892
 20
4.53755
 11
19.4458
 21
4.48041
  0
LINE
  8
0
 10
19.4458
 20
4.48041
 11
19.3535
 21
4.33881
  0
LINE
  8
0
 10
19.3535
 20
4.33881
 11
19.3187
 21
4.276
  0
LINE
  8
0
 10
19.3187
 20
4.276
 11
19.2469
 21
4.12108
  0
LINE
  8
0
 10
19.2469
 20
4.12108
 11
19.2223
 21
4.05664
  0
LINE
  8
0
 10
19.2223
 20
4.05664
 11
19.1711
 21
3.8884
  0
LINE
  8
0
 10
19.1711
 20
3.8884
 11
19.1564
 21
3.82617
  0
LINE
  8
0
 10
19.1564
 20
3.82617
 11
19.1256
 21
3.64462
  0
LINE
  8
0
 10
19.1256
 20
3.64462
 11
19.1193
 21
3.58737
  0
LINE
  8
0
 10
19.1193
 20
3.58737
 11
19.109
 21
3.39249
  0
LINE
  8
0
 10
19.109
 20
3.39249
 11
19.1089
 21
3.34175
  0
LINE
  8
0
 10
19.1089
 20
3.34175
 11
19.1164
 21
3.18941
  0
LINE
  8
0
 10
19.1164
 20
3.18941
 11
19.1217
 21
3.13734
  0
LINE
  8
0
 10
19.1217
 20
3.13734
 11
19.1441
 21
2.99272
  0
LINE
  8
0
 10
19.1441
 20
2.99272
 11
19.1558
 21
2.93768
  0
LINE
  8
0
 10
19.1558
 20
2.93768
 11
19.1931
 21
2.80083
  0
LINE
  8
0
 10
19.1931
 20
2.80083
 11
19.212
 21
2.74481
  0
LINE
  8
0
 10
19.212
 20
2.74481
 11
19.2643
 21
2.61568
  0
LINE
  8
0
 10
19.2643
 20
2.61568
 11
19.2903
 21
2.56108
  0
LINE
  8
0
 10
19.2903
 20
2.56108
 11
19.3575
 21
2.4397
  0
LINE
  8
0
 10
19.3575
 20
2.4397
 11
19.3897
 21
2.38902
  0
LINE
  8
0
 10
19.3897
 20
2.38902
 11
19.4718
 21
2.27538
  0
LINE
  8
0
 10
19.4718
 20
2.27538
 11
19.5085
 21
2.23041
  0
LINE
  8
0
 10
19.5085
 20
2.23041
 11
19.6055
 21
2.12451
  0
LINE
  8
0
 10
19.6055
 20
2.12451
 11
19.6488
 21
2.08267
  0
LINE
  8
0
 10
19.6488
 20
2.08267
 11
19.7696
 21
1.97914
  0
LINE
  8
0
 10
19.7696
 20
1.97914
 11
19.8096
 21
1.94823
  0
LINE
  8
0
 10
19.8096
 20
1.94823
 11
19.9629
 21
1.84163
  0
LINE
  8
0
 10
19.9629
 20
1.84163
 11
19.9943
 21
1.82153
  0
LINE
  8
0
 10
19.9943
 20
1.82153
 11
20.1802
 21
1.71187
  0
LINE
  8
0
 10
20.1802
 20
1.71187
 11
20.205
 21
1.69818
  0
LINE
  8
0
 10
20.205
 20
1.69818
 11
20.4235
 21
1.58546
  0
LINE
  8
0
 10
20.4235
 20
1.58546
 11
20.4433
 21
1.57578
  0
LINE
  8
0
 10
20.4433
 20
1.57578
 11
20.6944
 21
1.45998
  0
LINE
  8
0
 10
20.6944
 20
1.45998
 11
20.7105
 21
1.45288
  0
LINE
  8
0
 10
20.7105
 20
1.45288
 11
20.9941
 21
1.33401
  0
LINE
  8
0
 10
20.9941
 20
1.33401
 11
21.0075
 21
1.32864
  0
LINE
  8
0
 10
21.0075
 20
1.32864
 11
21.3237
 21
1.20671
  0
LINE
  8
0
 10
21.3237
 20
1.20671
 11
22.4422
 21
0.783478
  0
LINE
  8
0
 10
22.4422
 20
0.783478
 11
22.8603
 21
0.616714
  0
LINE
  8
0
 10
22.8603
 20
0.616714
 11
23.2332
 21
0.441025
  0
LINE
  8
0
 10
23.2332
 20
0.441025
 11
23.5697
 21
0.253586
  0
LINE
  8
0
 10
23.5697
 20
0.253586
 11
23.8703
 21
0.0549927
  0
LINE
  8
0
 10
23.8703
 20
0.0549927
 11
24.1355
 21
-0.153854
  0
LINE
  8
0
 10
24.1355
 20
-0.153854
 11
24.3664
 21
-0.372559
  0
LINE
  8
0
 10
24.3664
 20
-0.372559
 11
24.5644
 21
-0.601044
  0
LINE
  8
0
 10
24.5644
 20
-0.601044
 11
24.733
 21
-0.842651
  0
LINE
  8
0
 10
24.733
 20
-0.842651
 11
24.8759
 21
-1.10211
  0
LINE
  8
0
 10
24.8759
 20
-1.10211
 11
24.9937
 21
-1.38083
  0
LINE
  8
0
 10
24.9937
 20
-1.38083
 11
25.0864
 21
-1.68089
  0
LINE
  8
0
 10
25.0864
 20
-1.68089
 11
25.1536
 21
-2.00319
  0
LINE
  8
0
 10
25.1536
 20
-2.00319
 11
25.1945
 21
-2.34888
  0
LINE
  8
0
 10
25.1945
 20
-2.34888
 11
25.2083
 21
-2.71626
  0
LINE
  8
0
 10
25.2083
 20
-2.71626
 11
25.1862
 21
-3.22044
  0
LINE
  8
0
 10
25.1862
 20
-3.22044
 11
25.1215
 21
-3.67635
  0
LINE
  8
0
 10
25.1215
 20
-3.67635
 11
25.0161
 21
-4.08566
  0
LINE
  8
0
 10
25.0161
 20
-4.08566
 11
24.872
 21
-4.44992
  0
LINE
  8
0
 10
24.872
 20
-4.44992
 11
24.6903
 21
-4.77269
  0
LINE
  8
0
 10
24.6903
 20
-4.77269
 11
24.4704
 21
-5.05783
  0
LINE
  8
0
 10
24.4704
 20
-5.05783
 11
24.2101
 21
-5.30919
  0
LINE
  8
0
 10
24.2101
 20
-5.30919
 11
23.9049
 21
-5.5298
  0
LINE
  8
0
 10
23.9049
 20
-5.5298
 11
23.5503
 21
-5.7207
  0
LINE
  8
0
 10
23.5503
 20
-5.7207
 11
23.1434
 21
-5.88077
  0
LINE
  8
0
 10
23.1434
 20
-5.88077
 11
22.6828
 21
-6.00804
  0
LINE
  8
0
 10
22.6828
 20
-6.00804
 11
22.1675
 21
-6.1008
  0
LINE
  8
0
 10
22.1675
 20
-6.1008
 11
21.5979
 21
-6.15735
  0
LINE
  8
0
 10
21.5979
 20
-6.15735
 11
20.9712
 21
-6.17653
  0
LINE
  8
0
 10
20.9712
 20
-6.17653
 11
20.7119
 21
-6.17212
  0
LINE
  8
0
 10
-20.488
 20
-6.40129
 11
-19.838
 21
-6.34897
  0
LINE
  8
0
 10
-19.838
 20
-6.34897
 11
-19.2466
 21
-6.26175
  0
LINE
  8
0
 10
-19.2466
 20
-6.26175
 11
-18.7139
 21
-6.13963
  0
LINE
  8
0
 10
-18.7139
 20
-6.13963
 11
-18.2398
 21
-5.98265
  0
LINE
  8
0
 10
-18.2398
 20
-5.98265
 11
-17.8244
 21
-5.79076
  0
LINE
  8
0
 10
-17.8244
 20
-5.79076
 11
-17.4676
 21
-5.564
  0
LINE
  8
0
 10
-17.4676
 20
-5.564
 11
-17.1636
 21
-5.29839
  0
LINE
  8
0
 10
-17.1636
 20
-5.29839
 11
-16.9063
 21
-4.98997
  0
LINE
  8
0
 10
-16.9063
 20
-4.98997
 11
-16.6958
 21
-4.63878
  0
LINE
  8
0
 10
-16.6958
 20
-4.63878
 11
-16.5321
 21
-4.24478
  0
LINE
  8
0
 10
-16.5321
 20
-4.24478
 11
-16.4151
 21
-3.808
  0
LINE
  8
0
 10
-16.4151
 20
-3.808
 11
-16.3449
 21
-3.32841
  0
LINE
  8
0
 10
-16.3449
 20
-3.32841
 11
-16.3216
 21
-2.80605
  0
LINE
  8
0
 10
-16.3216
 20
-2.80605
 11
-16.3371
 21
-2.37695
  0
LINE
  8
0
 10
-16.3371
 20
-2.37695
 11
-16.3838
 21
-1.97594
  0
LINE
  8
0
 10
-16.3838
 20
-1.97594
 11
-16.4616
 21
-1.60297
  0
LINE
  8
0
 10
-16.4616
 20
-1.60297
 11
-16.5706
 21
-1.25806
  0
LINE
  8
0
 10
-16.5706
 20
-1.25806
 11
-16.7106
 21
-0.941208
  0
LINE
  8
0
 10
-16.7106
 20
-0.941208
 11
-16.8818
 21
-0.65242
  0
LINE
  8
0
 10
-16.8818
 20
-0.65242
 11
-17.0841
 21
-0.391678
  0
LINE
  8
0
 10
-17.0841
 20
-0.391678
 11
-17.3172
 21
-0.159515
  0
LINE
  8
0
 10
-17.3172
 20
-0.159515
 11
-17.5807
 21
0.0435181
  0
LINE
  8
0
 10
-17.5807
 20
0.0435181
 11
-17.8746
 21
0.217407
  0
LINE
  8
0
 10
-17.8746
 20
0.217407
 11
-18.1989
 21
0.362183
  0
LINE
  8
0
 10
-18.1989
 20
0.362183
 11
-18.5536
 21
0.477798
  0
LINE
  8
0
 10
-18.5536
 20
0.477798
 11
-18.9387
 21
0.564301
  0
LINE
  8
0
 10
-18.9387
 20
0.564301
 11
-19.3542
 21
0.621658
  0
LINE
  8
0
 10
-19.3542
 20
0.621658
 11
-19.0064
 21
0.666656
  0
LINE
  8
0
 10
-19.0064
 20
0.666656
 11
-18.6835
 21
0.73613
  0
LINE
  8
0
 10
-18.6835
 20
0.73613
 11
-18.3854
 21
0.830078
  0
LINE
  8
0
 10
-18.3854
 20
0.830078
 11
-18.1121
 21
0.948517
  0
LINE
  8
0
 10
-18.1121
 20
0.948517
 11
-17.8637
 21
1.09142
  0
LINE
  8
0
 10
-17.8637
 20
1.09142
 11
-17.64
 21
1.2588
  0
LINE
  8
0
 10
-17.64
 20
1.2588
 11
-17.4413
 21
1.45067
  0
LINE
  8
0
 10
-17.4413
 20
1.45067
 11
-17.2681
 21
1.66614
  0
LINE
  8
0
 10
-17.2681
 20
1.66614
 11
-17.1217
 21
1.90428
  0
LINE
  8
0
 10
-17.1217
 20
1.90428
 11
-17.0018
 21
2.1651
  0
LINE
  8
0
 10
-17.0018
 20
2.1651
 11
-16.9086
 21
2.44859
  0
LINE
  8
0
 10
-16.9086
 20
2.44859
 11
-16.842
 21
2.75476
  0
LINE
  8
0
 10
-16.842
 20
2.75476
 11
-16.8021
 21
3.0836
  0
LINE
  8
0
 10
-16.8021
 20
3.0836
 11
-16.7888
 21
3.43512
  0
LINE
  8
0
 10
-16.7888
 20
3.43512
 11
-16.8114
 21
3.89204
  0
LINE
  8
0
 10
-16.8114
 20
3.89204
 11
-16.8791
 21
4.31531
  0
LINE
  8
0
 10
-16.8791
 20
4.31531
 11
-16.992
 21
4.70491
  0
LINE
  8
0
 10
-16.992
 20
4.70491
 11
-17.1501
 21
5.06085
  0
LINE
  8
0
 10
-17.1501
 20
5.06085
 11
-17.3533
 21
5.38312
  0
LINE
  8
0
 10
-17.3533
 20
5.38312
 11
-17.6017
 21
5.67174
  0
LINE
  8
0
 10
-17.6017
 20
5.67174
 11
-17.8952
 21
5.9267
  0
LINE
  8
0
 10
-17.8952
 20
5.9267
 11
-18.2335
 21
6.14781
  0
LINE
  8
0
 10
-18.2335
 20
6.14781
 11
-18.6163
 21
6.3349
  0
LINE
  8
0
 10
-18.6163
 20
6.3349
 11
-19.0435
 21
6.48798
  0
LINE
  8
0
 10
-19.0435
 20
6.48798
 11
-19.5151
 21
6.60704
  0
LINE
  8
0
 10
-19.5151
 20
6.60704
 11
-20.0312
 21
6.69209
  0
LINE
  8
0
 10
-20.0312
 20
6.69209
 11
-20.5917
 21
6.74312
  0
LINE
  8
0
 10
-20.5917
 20
6.74312
 11
-21.1967
 21
6.76012
  0
LINE
  8
0
 10
-21.1967
 20
6.76012
 11
-25.4369
 21
6.76012
  0
LINE
  8
0
 10
-25.4369
 20
6.76012
 11
-25.4369
 21
-6.41875
  0
LINE
  8
0
 10
-25.4369
 20
-6.41875
 11
-21.1967
 21
-6.41875
  0
LINE
  8
0
 10
-21.1967
 20
-6.41875
 11
-20.488
 21
-6.40129
  0
LINE
  8
0
 10
-24.9369
 20
-5.91875
 11
-24.9369
 21
6.26012
  0
LINE
  8
0
 10
-24.9369
 20
6.26012
 11
-21.2037
 21
6.26012
  0
LINE
  8
0
 10
-21.2037
 20
6.26012
 11
-20.6214
 21
6.24376
  0
LINE
  8
0
 10
-20.6214
 20
6.24376
 11
-20.0946
 21
6.1958
  0
LINE
  8
0
 10
-20.0946
 20
6.1958
 11
-19.6171
 21
6.1171
  0
LINE
  8
0
 10
-19.6171
 20
6.1171
 11
-19.1893
 21
6.00912
  0
LINE
  8
0
 10
-19.1893
 20
6.00912
 11
-18.811
 21
5.87354
  0
LINE
  8
0
 10
-18.811
 20
5.87354
 11
-18.481
 21
5.71227
  0
LINE
  8
0
 10
-18.481
 20
5.71227
 11
-18.1973
 21
5.52686
  0
LINE
  8
0
 10
-18.1973
 20
5.52686
 11
-17.9569
 21
5.31804
  0
LINE
  8
0
 10
-17.9569
 20
5.31804
 11
-17.7565
 21
5.08508
  0
LINE
  8
0
 10
-17.7565
 20
5.08508
 11
-17.5923
 21
4.82477
  0
LINE
  8
0
 10
-17.5923
 20
4.82477
 11
-17.4628
 21
4.5331
  0
LINE
  8
0
 10
-17.4628
 20
4.5331
 11
-17.3679
 21
4.20581
  0
LINE
  8
0
 10
-17.3679
 20
4.20581
 11
-17.3094
 21
3.84006
  0
LINE
  8
0
 10
-17.3094
 20
3.84006
 11
-17.2892
 21
3.43216
  0
LINE
  8
0
 10
-17.2892
 20
3.43216
 11
-17.3009
 21
3.12341
  0
LINE
  8
0
 10
-17.3009
 20
3.12341
 11
-17.3356
 21
2.8382
  0
LINE
  8
0
 10
-17.3356
 20
2.8382
 11
-17.3917
 21
2.58006
  0
LINE
  8
0
 10
-17.3917
 20
2.58006
 11
-17.468
 21
2.34818
  0
LINE
  8
0
 10
-17.468
 20
2.34818
 11
-17.5634
 21
2.1405
  0
LINE
  8
0
 10
-17.5634
 20
2.1405
 11
-17.6776
 21
1.95483
  0
LINE
  8
0
 10
-17.6776
 20
1.95483
 11
-17.8112
 21
1.7885
  0
LINE
  8
0
 10
-17.8112
 20
1.7885
 11
-17.9648
 21
1.6403
  0
LINE
  8
0
 10
-17.9648
 20
1.6403
 11
-18.1391
 21
1.50978
  0
LINE
  8
0
 10
-18.1391
 20
1.50978
 11
-18.3368
 21
1.39607
  0
LINE
  8
0
 10
-18.3368
 20
1.39607
 11
-18.5605
 21
1.29915
  0
LINE
  8
0
 10
-18.5605
 20
1.29915
 11
-18.8115
 21
1.22003
  0
LINE
  8
0
 10
-18.8115
 20
1.22003
 11
-19.0913
 21
1.15985
  0
LINE
  8
0
 10
-19.0913
 20
1.15985
 11
-19.4184
 21
1.11752
  0
LINE
  8
0
 10
-19.4184
 20
1.11752
 11
-19.473
 21
1.10735
  0
LINE
  8
0
 10
-19.473
 20
1.10735
 11
-19.5329
 21
1.08864
  0
LINE
  8
0
 10
-19.5329
 20
1.08864
 11
-19.59
 21
1.06256
  0
LINE
  8
0
 10
-19.59
 20
1.06256
 11
-19.6434
 21
1.02953
  0
LINE
  8
0
 10
-19.6434
 20
1.02953
 11
-19.6923
 21
0.990051
  0
LINE
  8
0
 10
-19.6923
 20
0.990051
 11
-19.7358
 21
0.944778
  0
LINE
  8
0
 10
-19.7358
 20
0.944778
 11
-19.7733
 21
0.894409
  0
LINE
  8
0
 10
-19.7733
 20
0.894409
 11
-19.8041
 21
0.839737
  0
LINE
  8
0
 10
-19.8041
 20
0.839737
 11
-19.8279
 21
0.781631
  0
LINE
  8
0
 10
-19.8279
 20
0.781631
 11
-19.8442
 21
0.720993
  0
LINE
  8
0
 10
-19.8442
 20
0.720993
 11
-19.8528
 21
0.658798
  0
LINE
  8
0
 10
-19.8528
 20
0.658798
 11
-19.8535
 21
0.596008
  0
LINE
  8
0
 10
-19.8535
 20
0.596008
 11
-19.8464
 21
0.53363
  0
LINE
  8
0
 10
-19.8464
 20
0.53363
 11
-19.8315
 21
0.472641
  0
LINE
  8
0
 10
-19.8315
 20
0.472641
 11
-19.809
 21
0.413986
  0
LINE
  8
0
 10
-19.809
 20
0.413986
 11
-19.7794
 21
0.358627
  0
LINE
  8
0
 10
-19.7794
 20
0.358627
 11
-19.7431
 21
0.307404
  0
LINE
  8
0
 10
-19.7431
 20
0.307404
 11
-19.7007
 21
0.261139
  0
LINE
  8
0
 10
-19.7007
 20
0.261139
 11
-19.6527
 21
0.220566
  0
LINE
  8
0
 10
-19.6527
 20
0.220566
 11
-19.6001
 21
0.18631
  0
LINE
  8
0
 10
-19.6001
 20
0.18631
 11
-19.5436
 21
0.15892
  0
LINE
  8
0
 10
-19.5436
 20
0.15892
 11
-19.4841
 21
0.138824
  0
LINE
  8
0
 10
-19.4841
 20
0.138824
 11
-19.4226
 21
0.126358
  0
LINE
  8
0
 10
-19.4226
 20
0.126358
 11
-19.0278
 21
0.0718536
  0
LINE
  8
0
 10
-19.0278
 20
0.0718536
 11
-18.6863
 21
-0.00485229
  0
LINE
  8
0
 10
-18.6863
 20
-0.00485229
 11
-18.3788
 21
-0.105072
  0
LINE
  8
0
 10
-18.3788
 20
-0.105072
 11
-18.1046
 21
-0.227478
  0
LINE
  8
0
 10
-18.1046
 20
-0.227478
 11
-17.8616
 21
-0.371246
  0
LINE
  8
0
 10
-17.8616
 20
-0.371246
 11
-17.6476
 21
-0.536194
  0
LINE
  8
0
 10
-17.6476
 20
-0.536194
 11
-17.4596
 21
-0.723373
  0
LINE
  8
0
 10
-17.4596
 20
-0.723373
 11
-17.296
 21
-0.93428
  0
LINE
  8
0
 10
-17.296
 20
-0.93428
 11
-17.1559
 21
-1.17061
  0
LINE
  8
0
 10
-17.1559
 20
-1.17061
 11
-17.0391
 21
-1.43491
  0
LINE
  8
0
 10
-17.0391
 20
-1.43491
 11
-16.9459
 21
-1.72974
  0
LINE
  8
0
 10
-16.9459
 20
-1.72974
 11
-16.8779
 21
-2.05609
  0
LINE
  8
0
 10
-16.8779
 20
-2.05609
 11
-16.8361
 21
-2.41501
  0
LINE
  8
0
 10
-16.8361
 20
-2.41501
 11
-16.822
 21
-2.80388
  0
LINE
  8
0
 10
-16.822
 20
-2.80388
 11
-16.8433
 21
-3.28085
  0
LINE
  8
0
 10
-16.8433
 20
-3.28085
 11
-16.9056
 21
-3.70683
  0
LINE
  8
0
 10
-16.9056
 20
-3.70683
 11
-17.0065
 21
-4.08353
  0
LINE
  8
0
 10
-17.0065
 20
-4.08353
 11
-17.1434
 21
-4.41302
  0
LINE
  8
0
 10
-17.1434
 20
-4.41302
 11
-17.3152
 21
-4.69957
  0
LINE
  8
0
 10
-17.3152
 20
-4.69957
 11
-17.5223
 21
-4.94783
  0
LINE
  8
0
 10
-17.5223
 20
-4.94783
 11
-17.7679
 21
-5.16238
  0
LINE
  8
0
 10
-17.7679
 20
-5.16238
 11
-18.0644
 21
-5.35085
  0
LINE
  8
0
 10
-18.0644
 20
-5.35085
 11
-18.4239
 21
-5.51688
  0
LINE
  8
0
 10
-18.4239
 20
-5.51688
 11
-18.8486
 21
-5.65753
  0
LINE
  8
0
 10
-18.8486
 20
-5.65753
 11
-19.3393
 21
-5.77
  0
LINE
  8
0
 10
-19.3393
 20
-5.77
 11
-19.8946
 21
-5.85191
  0
LINE
  8
0
 10
-19.8946
 20
-5.85191
 11
-20.5142
 21
-5.90178
  0
LINE
  8
0
 10
-20.5142
 20
-5.90178
 11
-21.2028
 21
-5.91875
  0
LINE
  8
0
 10
-21.2028
 20
-5.91875
 11
-24.9369
 21
-5.91875
  0
LINE
  8
0
 10
-21.1834
 20
1.12686
 11
-20.9129
 21
1.13406
  0
LINE
  8
0
 10
-20.9129
 20
1.13406
 11
-20.8827
 21
1.13577
  0
LINE
  8
0
 10
-20.8827
 20
1.13577
 11
-20.6354
 21
1.15738
  0
LINE
  8
0
 10
-20.6354
 20
1.15738
 11
-20.5995
 21
1.16182
  0
LINE
  8
0
 10
-20.5995
 20
1.16182
 11
-20.3755
 21
1.19785
  0
LINE
  8
0
 10
-20.3755
 20
1.19785
 11
-20.3331
 21
1.20656
  0
LINE
  8
0
 10
-20.3331
 20
1.20656
 11
-20.1322
 21
1.25697
  0
LINE
  8
0
 10
-20.1322
 20
1.25697
 11
-20.0826
 21
1.27222
  0
LINE
  8
0
 10
-20.0826
 20
1.27222
 11
-19.9049
 21
1.33705
  0
LINE
  8
0
 10
-19.9049
 20
1.33705
 11
-19.8481
 21
1.36188
  0
LINE
  8
0
 10
-19.8481
 20
1.36188
 11
-19.6936
 21
1.4411
  0
LINE
  8
0
 10
-19.6936
 20
1.4411
 11
-19.6314
 21
1.47897
  0
LINE
  8
0
 10
-19.6314
 20
1.47897
 11
-19.5002
 21
1.57262
  0
LINE
  8
0
 10
-19.5002
 20
1.57262
 11
-19.4385
 21
1.62463
  0
LINE
  8
0
 10
-19.4385
 20
1.62463
 11
-19.3274
 21
1.73485
  0
LINE
  8
0
 10
-19.3274
 20
1.73485
 11
-19.2755
 21
1.79518
  0
LINE
  8
0
 10
-19.2755
 20
1.79518
 11
-19.1815
 21
1.9241
  0
LINE
  8
0
 10
-19.1815
 20
1.9241
 11
-19.142
 21
1.98773
  0
LINE
  8
0
 10
-19.142
 20
1.98773
 11
-19.0651
 21
2.13539
  0
LINE
  8
0
 10
-19.0651
 20
2.13539
 11
-19.038
 21
2.19724
  0
LINE
  8
0
 10
-19.038
 20
2.19724
 11
-18.9782
 21
2.36362
  0
LINE
  8
0
 10
-18.9782
 20
2.36362
 11
-18.9615
 21
2.42032
  0
LINE
  8
0
 10
-18.9615
 20
2.42032
 11
-18.9188
 21
2.60542
  0
LINE
  8
0
 10
-18.9188
 20
2.60542
 11
-18.9099
 21
2.65549
  0
LINE
  8
0
 10
-18.9099
 20
2.65549
 11
-18.8842
 21
2.85931
  0
LINE
  8
0
 10
-18.8842
 20
2.85931
 11
-18.8807
 21
2.90256
  0
LINE
  8
0
 10
-18.8807
 20
2.90256
 11
-18.8721
 21
3.12512
  0
LINE
  8
0
 10
-18.8721
 20
3.12512
 11
-18.8721
 21
3.16386
  0
LINE
  8
0
 10
-18.8721
 20
3.16386
 11
-18.8809
 21
3.38672
  0
LINE
  8
0
 10
-18.8809
 20
3.38672
 11
-18.8845
 21
3.43057
  0
LINE
  8
0
 10
-18.8845
 20
3.43057
 11
-18.9107
 21
3.63524
  0
LINE
  8
0
 10
-18.9107
 20
3.63524
 11
-18.9198
 21
3.68576
  0
LINE
  8
0
 10
-18.9198
 20
3.68576
 11
-18.9634
 21
3.87224
  0
LINE
  8
0
 10
-18.9634
 20
3.87224
 11
-18.9803
 21
3.92891
  0
LINE
  8
0
 10
-18.9803
 20
3.92891
 11
-19.0414
 21
4.09718
  0
LINE
  8
0
 10
-19.0414
 20
4.09718
 11
-19.0683
 21
4.15836
  0
LINE
  8
0
 10
-19.0683
 20
4.15836
 11
-19.1469
 21
4.30844
  0
LINE
  8
0
 10
-19.1469
 20
4.30844
 11
-19.1856
 21
4.37091
  0
LINE
  8
0
 10
-19.1856
 20
4.37091
 11
-19.2816
 21
4.50279
  0
LINE
  8
0
 10
-19.2816
 20
4.50279
 11
-19.3319
 21
4.56169
  0
LINE
  8
0
 10
-19.3319
 20
4.56169
 11
-19.4454
 21
4.67538
  0
LINE
  8
0
 10
-19.4454
 20
4.67538
 11
-19.5047
 21
4.72623
  0
LINE
  8
0
 10
-19.5047
 20
4.72623
 11
-19.6379
 21
4.82338
  0
LINE
  8
0
 10
-19.6379
 20
4.82338
 11
-19.6987
 21
4.86133
  0
LINE
  8
0
 10
-19.6987
 20
4.86133
 11
-19.854
 21
4.94354
  0
LINE
  8
0
 10
-19.854
 20
4.94354
 11
-19.9107
 21
4.96916
  0
LINE
  8
0
 10
-19.9107
 20
4.96916
 11
-20.0882
 21
5.03642
  0
LINE
  8
0
 10
-20.0882
 20
5.03642
 11
-20.1386
 21
5.05252
  0
LINE
  8
0
 10
-20.1386
 20
5.05252
 11
-20.3383
 21
5.10484
  0
LINE
  8
0
 10
-20.3383
 20
5.10484
 11
-20.3819
 21
5.11423
  0
LINE
  8
0
 10
-20.3819
 20
5.11423
 11
-20.6037
 21
5.1516
  0
LINE
  8
0
 10
-20.6037
 20
5.1516
 11
-20.641
 21
5.15645
  0
LINE
  8
0
 10
-20.641
 20
5.15645
 11
-20.8849
 21
5.17886
  0
LINE
  8
0
 10
-20.8849
 20
5.17886
 11
-20.9166
 21
5.18077
  0
LINE
  8
0
 10
-20.9166
 20
5.18077
 11
-21.1826
 21
5.18825
  0
LINE
  8
0
 10
-21.1826
 20
5.18825
 11
-21.1967
 21
5.18845
  0
LINE
  8
0
 10
-21.1967
 20
5.18845
 11
-22.9245
 21
5.18845
  0
LINE
  8
0
 10
-22.9245
 20
5.18845
 11
-23.0182
 21
5.1796
  0
LINE
  8
0
 10
-23.0182
 20
5.1796
 11
-23.079
 21
5.16397
  0
LINE
  8
0
 10
-23.079
 20
5.16397
 11
-23.1374
 21
5.14085
  0
LINE
  8
0
 10
-23.1374
 20
5.14085
 11
-23.1924
 21
5.11061
  0
LINE
  8
0
 10
-23.1924
 20
5.11061
 11
-23.2432
 21
5.0737
  0
LINE
  8
0
 10
-23.2432
 20
5.0737
 11
-23.289
 21
5.03072
  0
LINE
  8
0
 10
-23.289
 20
5.03072
 11
-23.329
 21
4.98235
  0
LINE
  8
0
 10
-23.329
 20
4.98235
 11
-23.3627
 21
4.92932
  0
LINE
  8
0
 10
-23.3627
 20
4.92932
 11
-23.3894
 21
4.87251
  0
LINE
  8
0
 10
-23.3894
 20
4.87251
 11
-23.4088
 21
4.81279
  0
LINE
  8
0
 10
-23.4088
 20
4.81279
 11
-23.4206
 21
4.75111
  0
LINE
  8
0
 10
-23.4206
 20
4.75111
 11
-23.4245
 21
4.68845
  0
LINE
  8
0
 10
-23.4245
 20
4.68845
 11
-23.4245
 21
1.62668
  0
LINE
  8
0
 10
-23.4245
 20
1.62668
 11
-23.4157
 21
1.53299
  0
LINE
  8
0
 10
-23.4157
 20
1.53299
 11
-23.4
 21
1.47217
  0
LINE
  8
0
 10
-23.4
 20
1.47217
 11
-23.3769
 21
1.41379
  0
LINE
  8
0
 10
-23.3769
 20
1.41379
 11
-23.3467
 21
1.35876
  0
LINE
  8
0
 10
-23.3467
 20
1.35876
 11
-23.3098
 21
1.30797
  0
LINE
  8
0
 10
-23.3098
 20
1.30797
 11
-23.2668
 21
1.26219
  0
LINE
  8
0
 10
-23.2668
 20
1.26219
 11
-23.2184
 21
1.22217
  0
LINE
  8
0
 10
-23.2184
 20
1.22217
 11
-23.1654
 21
1.18852
  0
LINE
  8
0
 10
-23.1654
 20
1.18852
 11
-23.1086
 21
1.16179
  0
LINE
  8
0
 10
-23.1086
 20
1.16179
 11
-23.0489
 21
1.14238
  0
LINE
  8
0
 10
-23.0489
 20
1.14238
 11
-22.9872
 21
1.13062
  0
LINE
  8
0
 10
-22.9872
 20
1.13062
 11
-22.9245
 21
1.12668
  0
LINE
  8
0
 10
-22.9245
 20
1.12668
 11
-21.1967
 21
1.12668
  0
LINE
  8
0
 10
-21.1967
 20
1.12668
 11
-21.1834
 21
1.12686
  0
LINE
  8
0
 10
-22.9245
 20
1.62668
 11
-22.9245
 21
4.68845
  0
LINE
  8
0
 10
-22.9245
 20
4.68845
 11
-21.1967
 21
4.68845
  0
LINE
  8
0
 10
-21.1967
 20
4.68845
 11
-20.9307
 21
4.68097
  0
LINE
  8
0
 10
-20.9307
 20
4.68097
 11
-20.6868
 21
4.65855
  0
LINE
  8
0
 10
-20.6868
 20
4.65855
 11
-20.465
 21
4.62119
  0
LINE
  8
0
 10
-20.465
 20
4.62119
 11
-20.2654
 21
4.56886
  0
LINE
  8
0
 10
-20.2654
 20
4.56886
 11
-20.0879
 21
4.5016
  0
LINE
  8
0
 10
-20.0879
 20
4.5016
 11
-19.9325
 21
4.41939
  0
LINE
  8
0
 10
-19.9325
 20
4.41939
 11
-19.7993
 21
4.32224
  0
LINE
  8
0
 10
-19.7993
 20
4.32224
 11
-19.6859
 21
4.20854
  0
LINE
  8
0
 10
-19.6859
 20
4.20854
 11
-19.5899
 21
4.07666
  0
LINE
  8
0
 10
-19.5899
 20
4.07666
 11
-19.5114
 21
3.92657
  0
LINE
  8
0
 10
-19.5114
 20
3.92657
 11
-19.4503
 21
3.7583
  0
LINE
  8
0
 10
-19.4503
 20
3.7583
 11
-19.4066
 21
3.57182
  0
LINE
  8
0
 10
-19.4066
 20
3.57182
 11
-19.3805
 21
3.36716
  0
LINE
  8
0
 10
-19.3805
 20
3.36716
 11
-19.3717
 21
3.1443
  0
LINE
  8
0
 10
-19.3717
 20
3.1443
 11
-19.3803
 21
2.92174
  0
LINE
  8
0
 10
-19.3803
 20
2.92174
 11
-19.4059
 21
2.71791
  0
LINE
  8
0
 10
-19.4059
 20
2.71791
 11
-19.4487
 21
2.53281
  0
LINE
  8
0
 10
-19.4487
 20
2.53281
 11
-19.5085
 21
2.36642
  0
LINE
  8
0
 10
-19.5085
 20
2.36642
 11
-19.5854
 21
2.21877
  0
LINE
  8
0
 10
-19.5854
 20
2.21877
 11
-19.6795
 21
2.08984
  0
LINE
  8
0
 10
-19.6795
 20
2.08984
 11
-19.7906
 21
1.97963
  0
LINE
  8
0
 10
-19.7906
 20
1.97963
 11
-19.9218
 21
1.88599
  0
LINE
  8
0
 10
-19.9218
 20
1.88599
 11
-20.0763
 21
1.80676
  0
LINE
  8
0
 10
-20.0763
 20
1.80676
 11
-20.254
 21
1.74193
  0
LINE
  8
0
 10
-20.254
 20
1.74193
 11
-20.4548
 21
1.69151
  0
LINE
  8
0
 10
-20.4548
 20
1.69151
 11
-20.6789
 21
1.65549
  0
LINE
  8
0
 10
-20.6789
 20
1.65549
 11
-20.9262
 21
1.63388
  0
LINE
  8
0
 10
-20.9262
 20
1.63388
 11
-21.1967
 21
1.62668
  0
LINE
  8
0
 10
-21.1967
 20
1.62668
 11
-22.9245
 21
1.62668
  0
LINE
  8
0
 10
-21.184
 20
-4.83858
 11
-20.844
 21
-4.82994
  0
LINE
  8
0
 10
-20.844
 20
-4.82994
 11
-20.8151
 21
-4.82837
  0
LINE
  8
0
 10
-20.8151
 20
-4.82837
 11
-20.5055
 21
-4.80249
  0
LINE
  8
0
 10
-20.5055
 20
-4.80249
 11
-20.4708
 21
-4.79837
  0
LINE
  8
0
 10
-20.4708
 20
-4.79837
 11
-20.1917
 21
-4.75523
  0
LINE
  8
0
 10
-20.1917
 20
-4.75523
 11
-20.1501
 21
-4.74698
  0
LINE
  8
0
 10
-20.1501
 20
-4.74698
 11
-19.9013
 21
-4.68658
  0
LINE
  8
0
 10
-19.9013
 20
-4.68658
 11
-19.8517
 21
-4.67178
  0
LINE
  8
0
 10
-19.8517
 20
-4.67178
 11
-19.6334
 21
-4.59413
  0
LINE
  8
0
 10
-19.6334
 20
-4.59413
 11
-19.5756
 21
-4.56935
  0
LINE
  8
0
 10
-19.5756
 20
-4.56935
 11
-19.3877
 21
-4.47444
  0
LINE
  8
0
 10
-19.3877
 20
-4.47444
 11
-19.3231
 21
-4.43542
  0
LINE
  8
0
 10
-19.3231
 20
-4.43542
 11
-19.1656
 21
-4.32327
  0
LINE
  8
0
 10
-19.1656
 20
-4.32327
 11
-19.1001
 21
-4.26762
  0
LINE
  8
0
 10
-19.1001
 20
-4.26762
 11
-18.968
 21
-4.13403
  0
LINE
  8
0
 10
-18.968
 20
-4.13403
 11
-18.9144
 21
-4.0699
  0
LINE
  8
0
 10
-18.9144
 20
-4.0699
 11
-18.8025
 21
-3.91078
  0
LINE
  8
0
 10
-18.8025
 20
-3.91078
 11
-18.7636
 21
-3.84529
  0
LINE
  8
0
 10
-18.7636
 20
-3.84529
 11
-18.6721
 21
-3.66064
  0
LINE
  8
0
 10
-18.6721
 20
-3.66064
 11
-18.6465
 21
-3.59898
  0
LINE
  8
0
 10
-18.6465
 20
-3.59898
 11
-18.5753
 21
-3.38881
  0
LINE
  8
0
 10
-18.5753
 20
-3.38881
 11
-18.5602
 21
-3.33385
  0
LINE
  8
0
 10
-18.5602
 20
-3.33385
 11
-18.5093
 21
-3.09814
  0
LINE
  8
0
 10
-18.5093
 20
-3.09814
 11
-18.5015
 21
-3.05074
  0
LINE
  8
0
 10
-18.5015
 20
-3.05074
 11
-18.471
 21
-2.78951
  0
LINE
  8
0
 10
-18.471
 20
-2.78951
 11
-18.4679
 21
-2.74924
  0
LINE
  8
0
 10
-18.4679
 20
-2.74924
 11
-18.4578
 21
-2.46249
  0
LINE
  8
0
 10
-18.4578
 20
-2.46249
 11
-18.4578
 21
-2.42665
  0
LINE
  8
0
 10
-18.4578
 20
-2.42665
 11
-18.4684
 21
-2.13431
  0
LINE
  8
0
 10
-18.4684
 20
-2.13431
 11
-18.4715
 21
-2.09341
  0
LINE
  8
0
 10
-18.4715
 20
-2.09341
 11
-18.5034
 21
-1.82552
  0
LINE
  8
0
 10
-18.5034
 20
-1.82552
 11
-18.5114
 21
-1.778
  0
LINE
  8
0
 10
-18.5114
 20
-1.778
 11
-18.5645
 21
-1.53458
  0
LINE
  8
0
 10
-18.5645
 20
-1.53458
 11
-18.5795
 21
-1.48047
  0
LINE
  8
0
 10
-18.5795
 20
-1.48047
 11
-18.6538
 21
-1.26149
  0
LINE
  8
0
 10
-18.6538
 20
-1.26149
 11
-18.6785
 21
-1.20172
  0
LINE
  8
0
 10
-18.6785
 20
-1.20172
 11
-18.774
 21
-1.0072
  0
LINE
  8
0
 10
-18.774
 20
-1.0072
 11
-18.8106
 21
-0.944611
  0
LINE
  8
0
 10
-18.8106
 20
-0.944611
 11
-18.9274
 21
-0.774551
  0
LINE
  8
0
 10
-18.9274
 20
-0.774551
 11
-18.9767
 21
-0.713623
  0
LINE
  8
0
 10
-18.9767
 20
-0.713623
 11
-19.1147
 21
-0.568008
  0
LINE
  8
0
 10
-19.1147
 20
-0.568008
 11
-19.1744
 21
-0.514359
  0
LINE
  8
0
 10
-19.1744
 20
-0.514359
 11
-19.3368
 21
-0.390472
  0
LINE
  8
0
 10
-19.3368
 20
-0.390472
 11
-19.3987
 21
-0.350174
  0
LINE
  8
0
 10
-19.3987
 20
-0.350174
 11
-19.5888
 21
-0.245346
  0
LINE
  8
0
 10
-19.5888
 20
-0.245346
 11
-19.647
 21
-0.217972
  0
LINE
  8
0
 10
-19.647
 20
-0.217972
 11
-19.8649
 21
-0.132202
  0
LINE
  8
0
 10
-19.8649
 20
-0.132202
 11
-19.917
 21
-0.114944
  0
LINE
  8
0
 10
-19.917
 20
-0.114944
 11
-20.1626
 21
-0.048233
  0
LINE
  8
0
 10
-20.1626
 20
-0.048233
 11
-20.2078
 21
-0.0381775
  0
LINE
  8
0
 10
-20.2078
 20
-0.0381775
 11
-20.4811
 21
0.00946045
  0
LINE
  8
0
 10
-20.4811
 20
0.00946045
 11
-20.5197
 21
0.0146484
  0
LINE
  8
0
 10
-20.5197
 20
0.0146484
 11
-20.8207
 21
0.0432434
  0
LINE
  8
0
 10
-20.8207
 20
0.0432434
 11
-20.8535
 21
0.0452728
  0
LINE
  8
0
 10
-20.8535
 20
0.0452728
 11
-21.1822
 21
0.0548096
  0
LINE
  8
0
 10
-21.1822
 20
0.0548096
 11
-21.1967
 21
0.0550232
  0
LINE
  8
0
 10
-21.1967
 20
0.0550232
 11
-22.9245
 21
0.0550232
  0
LINE
  8
0
 10
-22.9245
 20
0.0550232
 11
-23.0182
 21
0.0461731
  0
LINE
  8
0
 10
-23.0182
 20
0.0461731
 11
-23.079
 21
0.0305481
  0
LINE
  8
0
 10
-23.079
 20
0.0305481
 11
-23.1374
 21
0.00743103
  0
LINE
  8
0
 10
-23.1374
 20
0.00743103
 11
-23.1924
 21
-0.0228119
  0
LINE
  8
0
 10
-23.1924
 20
-0.0228119
 11
-23.2432
 21
-0.0597229
  0
LINE
  8
0
 10
-23.2432
 20
-0.0597229
 11
-23.289
 21
-0.102707
  0
LINE
  8
0
 10
-23.289
 20
-0.102707
 11
-23.329
 21
-0.151077
  0
LINE
  8
0
 10
-23.329
 20
-0.151077
 11
-23.3627
 21
-0.204102
  0
LINE
  8
0
 10
-23.3627
 20
-0.204102
 11
-23.3894
 21
-0.26091
  0
LINE
  8
0
 10
-23.3894
 20
-0.26091
 11
-23.4088
 21
-0.320633
  0
LINE
  8
0
 10
-23.4088
 20
-0.320633
 11
-23.4206
 21
-0.382309
  0
LINE
  8
0
 10
-23.4206
 20
-0.382309
 11
-23.4245
 21
-0.444977
  0
LINE
  8
0
 10
-23.4245
 20
-0.444977
 11
-23.4245
 21
-4.33875
  0
LINE
  8
0
 10
-23.4245
 20
-4.33875
 11
-23.4157
 21
-4.43243
  0
LINE
  8
0
 10
-23.4157
 20
-4.43243
 11
-23.4
 21
-4.49326
  0
LINE
  8
0
 10
-23.4
 20
-4.49326
 11
-23.3769
 21
-4.55164
  0
LINE
  8
0
 10
-23.3769
 20
-4.55164
 11
-23.3467
 21
-4.60666
  0
LINE
  8
0
 10
-23.3467
 20
-4.60666
 11
-23.3098
 21
-4.65746
  0
LINE
  8
0
 10
-23.3098
 20
-4.65746
 11
-23.2668
 21
-4.70323
  0
LINE
  8
0
 10
-23.2668
 20
-4.70323
 11
-23.2184
 21
-4.74326
  0
LINE
  8
0
 10
-23.2184
 20
-4.74326
 11
-23.1654
 21
-4.7769
  0
LINE
  8
0
 10
-23.1654
 20
-4.7769
 11
-23.1086
 21
-4.80363
  0
LINE
  8
0
 10
-23.1086
 20
-4.80363
 11
-23.0489
 21
-4.82304
  0
LINE
  8
0
 10
-23.0489
 20
-4.82304
 11
-22.9872
 21
-4.83481
  0
LINE
  8
0
 10
-22.9872
 20
-4.83481
 11
-22.9245
 21
-4.83875
  0
LINE
  8
0
 10
-22.9245
 20
-4.83875
 11
-21.1967
 21
-4.83875
  0
LINE
  8
0
 10
-21.1967
 20
-4.83875
 11
-21.184
 21
-4.83858
  0
LINE
  8
0
 10
-22.9245
 20
-4.33875
 11
-22.9245
 21
-0.444977
  0
LINE
  8
0
 10
-22.9245
 20
-0.444977
 11
-21.1967
 21
-0.444977
  0
LINE
  8
0
 10
-21.1967
 20
-0.444977
 11
-20.868
 21
-0.454514
  0
LINE
  8
0
 10
-20.868
 20
-0.454514
 11
-20.567
 21
-0.483109
  0
LINE
  8
0
 10
-20.567
 20
-0.483109
 11
-20.2937
 21
-0.530746
  0
LINE
  8
0
 10
-20.2937
 20
-0.530746
 11
-20.0481
 21
-0.597458
  0
LINE
  8
0
 10
-20.0481
 20
-0.597458
 11
-19.8302
 21
-0.683228
  0
LINE
  8
0
 10
-19.8302
 20
-0.683228
 11
-19.64
 21
-0.788055
  0
LINE
  8
0
 10
-19.64
 20
-0.788055
 11
-19.4776
 21
-0.911942
  0
LINE
  8
0
 10
-19.4776
 20
-0.911942
 11
-19.3396
 21
-1.05756
  0
LINE
  8
0
 10
-19.3396
 20
-1.05756
 11
-19.2228
 21
-1.22762
  0
LINE
  8
0
 10
-19.2228
 20
-1.22762
 11
-19.1273
 21
-1.42213
  0
LINE
  8
0
 10
-19.1273
 20
-1.42213
 11
-19.053
 21
-1.64111
  0
LINE
  8
0
 10
-19.053
 20
-1.64111
 11
-18.9999
 21
-1.88454
  0
LINE
  8
0
 10
-18.9999
 20
-1.88454
 11
-18.968
 21
-2.15244
  0
LINE
  8
0
 10
-18.968
 20
-2.15244
 11
-18.9574
 21
-2.44478
  0
LINE
  8
0
 10
-18.9574
 20
-2.44478
 11
-18.9676
 21
-2.73152
  0
LINE
  8
0
 10
-18.9676
 20
-2.73152
 11
-18.9981
 21
-2.99275
  0
LINE
  8
0
 10
-18.9981
 20
-2.99275
 11
-19.0489
 21
-3.22845
  0
LINE
  8
0
 10
-19.0489
 20
-3.22845
 11
-19.1201
 21
-3.43863
  0
LINE
  8
0
 10
-19.1201
 20
-3.43863
 11
-19.2116
 21
-3.62328
  0
LINE
  8
0
 10
-19.2116
 20
-3.62328
 11
-19.3234
 21
-3.78239
  0
LINE
  8
0
 10
-19.3234
 20
-3.78239
 11
-19.4556
 21
-3.91599
  0
LINE
  8
0
 10
-19.4556
 20
-3.91599
 11
-19.6131
 21
-4.02814
  0
LINE
  8
0
 10
-19.6131
 20
-4.02814
 11
-19.801
 21
-4.12305
  0
LINE
  8
0
 10
-19.801
 20
-4.12305
 11
-20.0193
 21
-4.2007
  0
LINE
  8
0
 10
-20.0193
 20
-4.2007
 11
-20.2681
 21
-4.26109
  0
LINE
  8
0
 10
-20.2681
 20
-4.26109
 11
-20.5472
 21
-4.30423
  0
LINE
  8
0
 10
-20.5472
 20
-4.30423
 11
-20.8567
 21
-4.33011
  0
LINE
  8
0
 10
-20.8567
 20
-4.33011
 11
-21.1967
 21
-4.33875
  0
LINE
  8
0
 10
-21.1967
 20
-4.33875
 11
-22.9245
 21
-4.33875
  0
LINE
  8
0
 10
1.42738
 20
4.47212
 11
4.76851
 21
4.47212
  0
LINE
  8
0
 10
4.76851
 20
4.47212
 11
4.76851
 21
6.74348
  0
LINE
  8
0
 10
4.76851
 20
6.74348
 11
-4.51439
 21
6.74348
  0
LINE
  8
0
 10
-4.51439
 20
6.74348
 11
-4.51439
 21
4.47212
  0
LINE
  8
0
 10
-4.51439
 20
4.47212
 11
-1.17325
 21
4.47212
  0
LINE
  8
0
 10
-1.17325
 20
4.47212
 11
-1.17325
 21
-6.41875
  0
LINE
  8
0
 10
-1.17325
 20
-6.41875
 11
1.42738
 21
-6.41875
  0
LINE
  8
0
 10
1.42738
 20
-6.41875
 11
1.42738
 21
4.47212
  0
LINE
  8
0
 10
-0.673248
 20
-5.91875
 11
-0.673248
 21
4.47212
  0
LINE
  8
0
 10
-0.673248
 20
4.47212
 11
-0.682098
 21
4.56581
  0
LINE
  8
0
 10
-0.682098
 20
4.56581
 11
-0.697723
 21
4.62663
  0
LINE
  8
0
 10
-0.697723
 20
4.62663
 11
-0.72084
 21
4.68501
  0
LINE
  8
0
 10
-0.72084
 20
4.68501
 11
-0.751083
 21
4.74004
  0
LINE
  8
0
 10
-0.751083
 20
4.74004
 11
-0.787994
 21
4.79083
  0
LINE
  8
0
 10
-0.787994
 20
4.79083
 11
-0.830978
 21
4.83661
  0
LINE
  8
0
 10
-0.830978
 20
4.83661
 11
-0.879349
 21
4.87663
  0
LINE
  8
0
 10
-0.879349
 20
4.87663
 11
-0.932373
 21
4.91028
  0
LINE
  8
0
 10
-0.932373
 20
4.91028
 11
-0.989182
 21
4.93701
  0
LINE
  8
0
 10
-0.989182
 20
4.93701
 11
-1.0489
 21
4.95642
  0
LINE
  8
0
 10
-1.0489
 20
4.95642
 11
-1.11058
 21
4.96819
  0
LINE
  8
0
 10
-1.11058
 20
4.96819
 11
-1.17325
 21
4.97212
  0
LINE
  8
0
 10
-1.17325
 20
4.97212
 11
-4.01439
 21
4.97212
  0
LINE
  8
0
 10
-4.01439
 20
4.97212
 11
-4.01439
 21
6.24348
  0
LINE
  8
0
 10
-4.01439
 20
6.24348
 11
4.26851
 21
6.24348
  0
LINE
  8
0
 10
4.26851
 20
6.24348
 11
4.26851
 21
4.97212
  0
LINE
  8
0
 10
4.26851
 20
4.97212
 11
1.42738
 21
4.97212
  0
LINE
  8
0
 10
1.42738
 20
4.97212
 11
1.33369
 21
4.96327
  0
LINE
  8
0
 10
1.33369
 20
4.96327
 11
1.27287
 21
4.94765
  0
LINE
  8
0
 10
1.27287
 20
4.94765
 11
1.21449
 21
4.92453
  0
LINE
  8
0
 10
1.21449
 20
4.92453
 11
1.15947
 21
4.89429
  0
LINE
  8
0
 10
1.15947
 20
4.89429
 11
1.10867
 21
4.85738
  0
LINE
  8
0
 10
1.10867
 20
4.85738
 11
1.0629
 21
4.81439
  0
LINE
  8
0
 10
1.0629
 20
4.81439
 11
1.02287
 21
4.76602
  0
LINE
  8
0
 10
1.02287
 20
4.76602
 11
0.989227
 21
4.713
  0
LINE
  8
0
 10
0.989227
 20
4.713
 11
0.962494
 21
4.65619
  0
LINE
  8
0
 10
0.962494
 20
4.65619
 11
0.943085
 21
4.59647
  0
LINE
  8
0
 10
0.943085
 20
4.59647
 11
0.93132
 21
4.53479
  0
LINE
  8
0
 10
0.93132
 20
4.53479
 11
0.927383
 21
4.47212
  0
LINE
  8
0
 10
0.927383
 20
4.47212
 11
0.927383
 21
-5.91875
  0
LINE
  8
0
 10
0.927383
 20
-5.91875
 11
-0.673248
 21
-5.91875
  0
LINE
  8
0
 10
14.9873
 20
-4.13074
 11
9.38939
 21
-4.13074
  0
LINE
  8
0
 10
9.38939
 20
-4.13074
 11
9.38939
 21
-0.677948
  0
LINE
  8
0
 10
9.38939
 20
-0.677948
 11
14.4583
 21
-0.677948
  0
LINE
  8
0
 10
14.4583
 20
-0.677948
 11
14.4583
 21
1.61005
  0
LINE
  8
0
 10
14.4583
 20
1.61005
 11
9.38939
 21
1.61005
  0
LINE
  8
0
 10
9.38939
 20
1.61005
 11
9.38939
 21
4.45547
  0
LINE
  8
0
 10
9.38939
 20
4.45547
 11
14.9873
 21
4.45547
  0
LINE
  8
0
 10
14.9873
 20
4.45547
 11
14.9873
 21
6.74348
  0
LINE
  8
0
 10
14.9873
 20
6.74348
 11
6.78886
 21
6.74348
  0
LINE
  8
0
 10
6.78886
 20
6.74348
 11
6.78886
 21
-6.41875
  0
LINE
  8
0
 10
6.78886
 20
-6.41875
 11
14.9873
 21
-6.41875
  0
LINE
  8
0
 10
14.9873
 20
-6.41875
 11
14.9873
 21
-4.13074
  0
LINE
  8
0
 10
7.28886
 20
-5.91875
 11
7.28886
 21
6.24348
  0
LINE
  8
0
 10
7.28886
 20
6.24348
 11
14.4873
 21
6.24348
  0
LINE
  8
0
 10
14.4873
 20
6.24348
 11
14.4873
 21
4.95547
  0
LINE
  8
0
 10
14.4873
 20
4.95547
 11
9.38939
 21
4.95547
  0
LINE
  8
0
 10
9.38939
 20
4.95547
 11
9.2957
 21
4.94662
  0
LINE
  8
0
 10
9.2957
 20
4.94662
 11
9.23488
 21
4.931
  0
LINE
  8
0
 10
9.23488
 20
4.931
 11
9.1765
 21
4.90788
  0
LINE
  8
0
 10
9.1765
 20
4.90788
 11
9.12148
 21
4.87764
  0
LINE
  8
0
 10
9.12148
 20
4.87764
 11
9.07068
 21
4.84073
  0
LINE
  8
0
 10
9.07068
 20
4.84073
 11
9.0249
 21
4.79774
  0
LINE
  8
0
 10
9.0249
 20
4.79774
 11
8.98488
 21
4.74937
  0
LINE
  8
0
 10
8.98488
 20
4.74937
 11
8.95123
 21
4.69635
  0
LINE
  8
0
 10
8.95123
 20
4.69635
 11
8.9245
 21
4.63954
  0
LINE
  8
0
 10
8.9245
 20
4.63954
 11
8.90509
 21
4.57982
  0
LINE
  8
0
 10
8.90509
 20
4.57982
 11
8.89333
 21
4.51814
  0
LINE
  8
0
 10
8.89333
 20
4.51814
 11
8.88939
 21
4.45547
  0
LINE
  8
0
 10
8.88939
 20
4.45547
 11
8.88939
 21
1.61005
  0
LINE
  8
0
 10
8.88939
 20
1.61005
 11
8.89824
 21
1.51636
  0
LINE
  8
0
 10
8.89824
 20
1.51636
 11
8.91386
 21
1.45554
  0
LINE
  8
0
 10
8.91386
 20
1.45554
 11
8.93698
 21
1.39716
  0
LINE
  8
0
 10
8.93698
 20
1.39716
 11
8.96722
 21
1.34213
  0
LINE
  8
0
 10
8.96722
 20
1.34213
 11
9.00414
 21
1.29134
  0
LINE
  8
0
 10
9.00414
 20
1.29134
 11
9.04712
 21
1.24556
  0
LINE
  8
0
 10
9.04712
 20
1.24556
 11
9.09549
 21
1.20554
  0
LINE
  8
0
 10
9.09549
 20
1.20554
 11
9.14851
 21
1.17189
  0
LINE
  8
0
 10
9.14851
 20
1.17189
 11
9.20532
 21
1.14516
  0
LINE
  8
0
 10
9.20532
 20
1.14516
 11
9.26505
 21
1.12575
  0
LINE
  8
0
 10
9.26505
 20
1.12575
 11
9.32672
 21
1.11398
  0
LINE
  8
0
 10
9.32672
 20
1.11398
 11
9.38939
 21
1.11005
  0
LINE
  8
0
 10
9.38939
 20
1.11005
 11
13.9583
 21
1.11005
  0
LINE
  8
0
 10
13.9583
 20
1.11005
 11
13.9583
 21
-0.177948
  0
LINE
  8
0
 10
13.9583
 20
-0.177948
 11
9.38939
 21
-0.177948
  0
LINE
  8
0
 10
9.38939
 20
-0.177948
 11
9.2957
 21
-0.186798
  0
LINE
  8
0
 10
9.2957
 20
-0.186798
 11
9.23488
 21
-0.202423
  0
LINE
  8
0
 10
9.23488
 20
-0.202423
 11
9.1765
 21
-0.22554
  0
LINE
  8
0
 10
9.1765
 20
-0.22554
 11
9.12148
 21
-0.255783
  0
LINE
  8
0
 10
9.12148
 20
-0.255783
 11
9.07068
 21
-0.292694
  0
LINE
  8
0
 10
9.07068
 20
-0.292694
 11
9.0249
 21
-0.335678
  0
LINE
  8
0
 10
9.0249
 20
-0.335678
 11
8.98488
 21
-0.384048
  0
LINE
  8
0
 10
8.98488
 20
-0.384048
 11
8.95123
 21
-0.437073
  0
LINE
  8
0
 10
8.95123
 20
-0.437073
 11
8.9245
 21
-0.493881
  0
LINE
  8
0
 10
8.9245
 20
-0.493881
 11
8.90509
 21
-0.553604
  0
LINE
  8
0
 10
8.90509
 20
-0.553604
 11
8.89333
 21
-0.61528
  0
LINE
  8
0
 10
8.89333
 20
-0.61528
 11
8.88939
 21
-0.677948
  0
LINE
  8
0
 10
8.88939
 20
-0.677948
 11
8.88939
 21
-4.13074
  0
LINE
  8
0
 10
8.88939
 20
-4.13074
 11
8.89824
 21
-4.22443
  0
LINE
  8
0
 10
8.89824
 20
-4.22443
 11
8.91386
 21
-4.28525
  0
LINE
  8
0
 10
8.91386
 20
-4.28525
 11
8.93698
 21
-4.34363
  0
LINE
  8
0
 10
8.93698
 20
-4.34363
 11
8.96722
 21
-4.39865
  0
LINE
  8
0
 10
8.96722
 20
-4.39865
 11
9.00414
 21
-4.44945
  0
LINE
  8
0
 10
9.00414
 20
-4.44945
 11
9.04712
 21
-4.49522
  0
LINE
  8
0
 10
9.04712
 20
-4.49522
 11
9.09549
 21
-4.53525
  0
LINE
  8
0
 10
9.09549
 20
-4.53525
 11
9.14851
 21
-4.56889
  0
LINE
  8
0
 10
9.14851
 20
-4.56889
 11
9.20532
 21
-4.59563
  0
LINE
  8
0
 10
9.20532
 20
-4.59563
 11
9.26505
 21
-4.61504
  0
LINE
  8
0
 10
9.26505
 20
-4.61504
 11
9.32672
 21
-4.6268
  0
LINE
  8
0
 10
9.32672
 20
-4.6268
 11
9.38939
 21
-4.63074
  0
LINE
  8
0
 10
9.38939
 20
-4.63074
 11
14.4873
 21
-4.63074
  0
LINE
  8
0
 10
14.4873
 20
-4.63074
 11
14.4873
 21
-5.91875
  0
LINE
  8
0
 10
14.4873
 20
-5.91875
 11
7.28886
 21
-5.91875
  0
LINE
  8
0
 10
-9.18817
 20
-1.23499
 11
-5.12424
 21
6.74348
  0
LINE
  8
0
 10
-5.12424
 20
6.74348
 11
-7.92757
 21
6.74348
  0
LINE
  8
0
 10
-7.92757
 20
6.74348
 11
-10.4929
 21
1.45392
  0
LINE
  8
0
 10
-10.4929
 20
1.45392
 11
-13.0494
 21
6.74348
  0
LINE
  8
0
 10
-13.0494
 20
6.74348
 11
-15.8528
 21
6.74348
  0
LINE
  8
0
 10
-15.8528
 20
6.74348
 11
-11.7888
 21
-1.23499
  0
LINE
  8
0
 10
-11.7888
 20
-1.23499
 11
-11.7888
 21
-6.41875
  0
LINE
  8
0
 10
-11.7888
 20
-6.41875
 11
-9.18817
 21
-6.41875
  0
LINE
  8
0
 10
-9.18817
 20
-6.41875
 11
-9.18817
 21
-1.23499
  0
LINE
  8
0
 10
-11.2888
 20
-5.91875
 11
-11.2888
 21
-1.23499
  0
LINE
  8
0
 10
-11.2888
 20
-1.23499
 11
-11.291
 21
-1.18799
  0
LINE
  8
0
 10
-11.291
 20
-1.18799
 11
-11.3008
 21
-1.12598
  0
LINE
  8
0
 10
-11.3008
 20
-1.12598
 11
-11.3184
 21
-1.06567
  0
LINE
  8
0
 10
-11.3184
 20
-1.06567
 11
-11.3433
 21
-1.00804
  0
LINE
  8
0
 10
-11.3433
 20
-1.00804
 11
-15.0369
 21
6.24348
  0
LINE
  8
0
 10
-15.0369
 20
6.24348
 11
-13.3631
 21
6.24348
  0
LINE
  8
0
 10
-13.3631
 20
6.24348
 11
-10.943
 21
1.23634
  0
LINE
  8
0
 10
-10.943
 20
1.23634
 11
-10.9181
 21
1.19098
  0
LINE
  8
0
 10
-10.9181
 20
1.19098
 11
-10.8818
 21
1.13974
  0
LINE
  8
0
 10
-10.8818
 20
1.13974
 11
-10.8394
 21
1.09348
  0
LINE
  8
0
 10
-10.8394
 20
1.09348
 11
-10.7915
 21
1.05289
  0
LINE
  8
0
 10
-10.7915
 20
1.05289
 11
-10.7389
 21
1.01862
  0
LINE
  8
0
 10
-10.7389
 20
1.01862
 11
-10.6824
 21
0.991226
  0
LINE
  8
0
 10
-10.6824
 20
0.991226
 11
-10.6229
 21
0.971115
  0
LINE
  8
0
 10
-10.6229
 20
0.971115
 11
-10.5613
 21
0.958633
  0
LINE
  8
0
 10
-10.5613
 20
0.958633
 11
-10.4987
 21
0.953949
  0
LINE
  8
0
 10
-10.4987
 20
0.953949
 11
-10.436
 21
0.957153
  0
LINE
  8
0
 10
-10.436
 20
0.957153
 11
-10.3742
 21
0.968201
  0
LINE
  8
0
 10
-10.3742
 20
0.968201
 11
-10.3143
 21
0.986908
  0
LINE
  8
0
 10
-10.3143
 20
0.986908
 11
-10.2571
 21
1.01297
  0
LINE
  8
0
 10
-10.2571
 20
1.01297
 11
-10.2037
 21
1.04599
  0
LINE
  8
0
 10
-10.2037
 20
1.04599
 11
-10.1549
 21
1.08545
  0
LINE
  8
0
 10
-10.1549
 20
1.08545
 11
-10.1114
 21
1.13071
  0
LINE
  8
0
 10
-10.1114
 20
1.13071
 11
-10.0739
 21
1.18108
  0
LINE
  8
0
 10
-10.0739
 20
1.18108
 11
-10.043
 21
1.23573
  0
LINE
  8
0
 10
-10.043
 20
1.23573
 11
-7.61435
 21
6.24348
  0
LINE
  8
0
 10
-7.61435
 20
6.24348
 11
-5.94005
 21
6.24348
  0
LINE
  8
0
 10
-5.94005
 20
6.24348
 11
-9.6337
 21
-1.00804
  0
LINE
  8
0
 10
-9.6337
 20
-1.00804
 11
-9.65306
 21
-1.05092
  0
LINE
  8
0
 10
-9.65306
 20
-1.05092
 11
-9.67247
 21
-1.11064
  0
LINE
  8
0
 10
-9.67247
 20
-1.11064
 11
-9.68423
 21
-1.17232
  0
LINE
  8
0
 10
-9.68423
 20
-1.17232
 11
-9.68817
 21
-1.23499
  0
LINE
  8
0
 10
-9.68817
 20
-1.23499
 11
-9.68817
 21
-5.91875
  0
LINE
  8
0
 10
-9.68817
 20
-5.91875
 11
-11.2888
 21
-5.91875
  0
ENDSEC
  0
SECTION
  2
OBJECTS
  0
DICTIONARY
  0
ENDSEC
  0
EOF
