<?xml version="1.0" standalone="no"?>
<!DOCTYPE svg PUBLIC "-//W3C//DTD SVG 1.1//EN" "http://www.w3.org/Graphics/SVG/1.1/DTD/svg11.dtd">
<svg width="52mm" height="14mm" viewBox="-26 -7 52 14" xmlns="http://www.w3.org/2000/svg" version="1.1">
<title>OpenSCAD Model</title>
<path d="
M 21.6302,6.6566 L 22.2366,6.59641 L 22.7939,6.49609 L 23.302,6.35567 L 23.7611,6.17509 L 24.171,5.95441
 L 24.5318,5.6936 L 24.8441,5.39212 L 25.1082,5.04944 L 25.3244,4.66554 L 25.4925,4.24045 L 25.6126,3.77414
 L 25.6847,3.26662 L 25.7087,2.7179 L 25.6934,2.31 L 25.6475,1.92262 L 25.5711,1.55576 L 25.464,1.2094
 L 25.3264,0.883545 L 25.1582,0.578217 L 24.9594,0.293396 L 24.7282,0.0265503 L 24.4628,-0.224823 L 24.1633,-0.460724
 L 23.8296,-0.681152 L 23.4617,-0.886093 L 23.0596,-1.07556 L 22.6233,-1.24956 L 21.5036,-1.67322 L 21.1874,-1.79515
 L 20.9038,-1.91402 L 20.6527,-2.02982 L 20.4342,-2.14253 L 20.2483,-2.2522 L 20.0949,-2.3588 L 19.9741,-2.46233
 L 19.8771,-2.56822 L 19.795,-2.68187 L 19.7278,-2.80325 L 19.6755,-2.93239 L 19.6382,-3.06924 L 19.6158,-3.21387
 L 19.6083,-3.36621 L 19.6186,-3.5611 L 19.6493,-3.74265 L 19.7006,-3.91089 L 19.7724,-4.06581 L 19.8647,-4.20741
 L 19.9775,-4.33571 L 20.1108,-4.45067 L 20.2634,-4.55128 L 20.4339,-4.63641 L 20.6225,-4.70605 L 20.8291,-4.76024
 L 21.0536,-4.79892 L 21.2961,-4.82214 L 21.5566,-4.82988 L 21.7988,-4.82359 L 22.0417,-4.80472 L 22.2853,-4.77327
 L 22.5296,-4.72923 L 22.7746,-4.67262 L 23.0203,-4.60342 L 23.2668,-4.52165 L 23.5131,-4.42784 L 23.7583,-4.32253
 L 24.0025,-4.20572 L 24.2455,-4.07741 L 24.4875,-3.93759 L 24.7284,-3.78629 L 24.9682,-3.62349 L 24.9682,-6.16109
 L 24.7135,-6.27342 L 24.458,-6.37762 L 24.2018,-6.47369 L 23.9449,-6.56163 L 23.6872,-6.64143 L 23.4289,-6.7131
 L 23.1698,-6.77663 L 22.9104,-6.83185 L 22.651,-6.87857 L 22.3916,-6.91681 L 22.1321,-6.94653 L 21.8727,-6.96777
 L 21.6133,-6.98051 L 21.3538,-6.98476 L 20.7995,-6.96387 L 20.2801,-6.9012 L 19.7956,-6.79675 L 19.3459,-6.65051
 L 18.9312,-6.46251 L 18.5514,-6.23271 L 18.2065,-5.96114 L 17.9025,-5.65305 L 17.6452,-5.31361 L 17.4348,-4.94284
 L 17.2711,-4.54074 L 17.1541,-4.10728 L 17.084,-3.6425 L 17.0606,-3.14638 L 17.0748,-2.75967 L 17.1174,-2.39619
 L 17.1885,-2.05594 L 17.288,-1.73891 L 17.4159,-1.4451 L 17.5722,-1.17451 L 17.757,-0.927155 L 17.9819,-0.692978
 L 18.2586,-0.461853 L 18.5871,-0.23381 L 18.9674,-0.00880432 L 19.3995,0.213104 L 19.8835,0.431976 L 20.4193,0.647781
 L 21.6976,1.13307 L 21.8825,1.20985 L 22.0545,1.29436 L 22.2135,1.3866 L 22.3596,1.48657 L 22.4928,1.59427
 L 22.6129,1.7097 L 22.7201,1.83286 L 22.8137,1.96281 L 22.8929,2.09869 L 22.9577,2.24051 L 23.008,2.38824
 L 23.044,2.5419 L 23.0656,2.70149 L 23.0728,2.86702 L 23.062,3.08374 L 23.0296,3.28629 L 22.9757,3.47464
 L 22.9001,3.64879 L 22.8029,3.80878 L 22.6842,3.95456 L 22.5439,4.08615 L 22.3839,4.20172 L 22.2064,4.29951
 L 22.0112,4.37953 L 21.7984,4.44177 L 21.5679,4.48622 L 21.3198,4.51289 L 21.054,4.52179 L 20.7816,4.51445
 L 20.5082,4.49243 L 20.2339,4.45573 L 19.9587,4.40437 L 19.6827,4.33832 L 19.4057,4.2576 L 19.1278,4.1622
 L 18.8482,4.05173 L 18.5658,3.92587 L 18.2807,3.78464 L 17.993,3.62801 L 17.7025,3.45598 L 17.4094,3.26857
 L 17.1135,3.06578 L 17.1135,5.75314 L 17.3768,5.87924 L 17.6428,5.99617 L 17.9114,6.10396 L 18.1828,6.20259
 L 18.4569,6.29207 L 18.7337,6.37241 L 19.0132,6.44357 L 19.294,6.50542 L 19.5746,6.55774 L 19.855,6.60056
 L 20.1352,6.63385 L 20.4152,6.65764 L 20.6951,6.67191 L 20.9747,6.67667 z
M 20.7119,6.17212 L 20.4492,6.15872 L 20.186,6.13637 L 19.9225,6.10506 L 19.6581,6.0647 L 19.3935,6.01537
 L 19.1288,5.95705 L 18.8649,5.88985 L 18.6042,5.81419 L 18.3459,5.72986 L 18.0901,5.63689 L 17.8367,5.53522
 L 17.6135,5.43712 L 17.6135,3.98436 L 17.7382,4.05821 L 17.754,4.06715 L 18.0417,4.22379 L 18.0588,4.23267
 L 18.3438,4.3739 L 18.3623,4.38257 L 18.6446,4.50842 L 18.6645,4.51675 L 18.9441,4.62723 L 18.9655,4.6351
 L 19.2433,4.7305 L 19.2658,4.73763 L 19.5428,4.81834 L 19.5663,4.82458 L 19.8424,4.89064 L 19.867,4.89589
 L 20.1422,4.94725 L 20.1676,4.95132 L 20.4419,4.98802 L 20.468,4.99081 L 20.7414,5.01283 L 20.7681,5.01427
 L 21.0406,5.02161 L 21.0708,5.02151 L 21.3365,5.01262 L 21.3732,5.01003 L 21.6213,4.98335 L 21.6626,4.97717
 L 21.8931,4.93272 L 21.9387,4.92168 L 22.1515,4.85944 L 22.2008,4.84216 L 22.396,4.76215 L 22.4476,4.73749
 L 22.6252,4.63969 L 22.6768,4.60696 L 22.8367,4.49139 L 22.8859,4.45088 L 23.0262,4.31929 L 23.0719,4.27032
 L 23.1906,4.12454 L 23.2303,4.06833 L 23.3275,3.90834 L 23.3588,3.84781 L 23.4343,3.67366 L 23.4563,3.6124
 L 23.5103,3.42404 L 23.5234,3.36522 L 23.5558,3.16267 L 23.5614,3.1086 L 23.5722,2.89188 L 23.5723,2.84534
 L 23.5652,2.67981 L 23.5611,2.63446 L 23.5395,2.47487 L 23.5309,2.42786 L 23.4949,2.2742 L 23.4813,2.22685
 L 23.4309,2.07912 L 23.4125,2.03278 L 23.3477,1.89096 L 23.3249,1.84695 L 23.2457,1.71107 L 23.2195,1.67067
 L 23.1259,1.54071 L 23.0972,1.50453 L 22.99,1.38138 L 22.9593,1.34912 L 22.8391,1.23369 L 22.8072,1.20555
 L 22.6741,1.09785 L 22.642,1.07394 L 22.4959,0.973969 L 22.4644,0.954071 L 22.3054,0.861832 L 22.275,0.845596
 L 22.103,0.761093 L 22.0742,0.748062 L 21.8893,0.67128 L 21.875,0.665619 L 20.6013,0.182053 L 20.0801,-0.0278625
 L 19.6167,-0.237427 L 19.2091,-0.446732 L 18.8573,-0.654892 L 18.562,-0.859909 L 18.3235,-1.05905 L 18.139,-1.25121
 L 17.9904,-1.4502 L 17.863,-1.67064 L 17.7571,-1.914 L 17.6729,-2.18222 L 17.6114,-2.47658 L 17.5737,-2.79803
 L 17.561,-3.14375 L 17.5822,-3.59332 L 17.6443,-4.00456 L 17.7458,-4.38075 L 17.8856,-4.72417 L 18.0638,-5.03801
 L 18.2813,-5.32507 L 18.5405,-5.58769 L 18.8365,-5.8208 L 19.1648,-6.01939 L 19.5271,-6.18364 L 19.9259,-6.31337
 L 20.3629,-6.40756 L 20.8389,-6.465 L 21.3591,-6.4846 L 21.5969,-6.48071 L 21.8401,-6.46877 L 22.0834,-6.44885
 L 22.3265,-6.42099 L 22.5704,-6.38504 L 22.8138,-6.3412 L 23.0585,-6.28912 L 23.3021,-6.22937 L 23.5466,-6.16158
 L 23.7901,-6.08612 L 24.0328,-6.00307 L 24.276,-5.91187 L 24.4682,-5.83347 L 24.4682,-4.52525 L 24.2359,-4.64789
 L 24.2182,-4.65675 L 23.9741,-4.77356 L 23.9556,-4.78195 L 23.7104,-4.88727 L 23.6911,-4.8951 L 23.4447,-4.98891
 L 23.4242,-4.99622 L 23.1778,-5.07799 L 23.1559,-5.0847 L 22.9101,-5.1539 L 22.8871,-5.15979 L 22.6421,-5.2164
 L 22.6183,-5.2213 L 22.374,-5.26534 L 22.3493,-5.26915 L 22.1057,-5.3006 L 22.0804,-5.30321 L 21.8375,-5.32208
 L 21.8118,-5.32343 L 21.5696,-5.32971 L 21.5418,-5.32967 L 21.2813,-5.32193 L 21.2484,-5.31987 L 21.0059,-5.29665
 L 20.9687,-5.29166 L 20.7442,-5.25298 L 20.7022,-5.24388 L 20.4956,-5.1897 L 20.4493,-5.17509 L 20.2607,-5.10545
 L 20.2106,-5.08379 L 20.0401,-4.99866 L 19.9881,-4.9687 L 19.8355,-4.86809 L 19.7843,-4.82933 L 19.6509,-4.71437
 L 19.6019,-4.66585 L 19.4892,-4.53755 L 19.4458,-4.48041 L 19.3535,-4.33881 L 19.3187,-4.276 L 19.2469,-4.12108
 L 19.2223,-4.05664 L 19.1711,-3.8884 L 19.1564,-3.82617 L 19.1256,-3.64462 L 19.1193,-3.58737 L 19.109,-3.39249
 L 19.1089,-3.34175 L 19.1164,-3.18941 L 19.1217,-3.13734 L 19.1441,-2.99272 L 19.1558,-2.93768 L 19.1931,-2.80083
 L 19.212,-2.74481 L 19.2643,-2.61568 L 19.2903,-2.56108 L 19.3575,-2.4397 L 19.3897,-2.38902 L 19.4718,-2.27538
 L 19.5085,-2.23041 L 19.6055,-2.12451 L 19.6488,-2.08267 L 19.7696,-1.97914 L 19.8096,-1.94823 L 19.9629,-1.84163
 L 19.9943,-1.82153 L 20.1802,-1.71187 L 20.205,-1.69818 L 20.4235,-1.58546 L 20.4433,-1.57578 L 20.6944,-1.45998
 L 20.7105,-1.45288 L 20.9941,-1.33401 L 21.0075,-1.32864 L 21.3237,-1.20671 L 22.4422,-0.783478 L 22.8603,-0.616714
 L 23.2332,-0.441025 L 23.5697,-0.253586 L 23.8703,-0.0549927 L 24.1355,0.153854 L 24.3664,0.372559 L 24.5644,0.601044
 L 24.733,0.842651 L 24.8759,1.10211 L 24.9937,1.38083 L 25.0864,1.68089 L 25.1536,2.00319 L 25.1945,2.34888
 L 25.2083,2.71626 L 25.1862,3.22044 L 25.1215,3.67635 L 25.0161,4.08566 L 24.872,4.44992 L 24.6903,4.77269
 L 24.4704,5.05783 L 24.2101,5.30919 L 23.9049,5.5298 L 23.5503,5.7207 L 23.1434,5.88077 L 22.6828,6.00804
 L 22.1675,6.1008 L 21.5979,6.15735 L 20.9712,6.17653 z
M -20.488,6.40129 L -19.838,6.34897 L -19.2466,6.26175 L -18.7139,6.13963 L -18.2398,5.98265 L -17.8244,5.79076
 L -17.4676,5.564 L -17.1636,5.29839 L -16.9063,4.98997 L -16.6958,4.63878 L -16.5321,4.24478 L -16.4151,3.808
 L -16.3449,3.32841 L -16.3216,2.80605 L -16.3371,2.37695 L -16.3838,1.97594 L -16.4616,1.60297 L -16.5706,1.25806
 L -16.7106,0.941208 L -16.8818,0.65242 L -17.0841,0.391678 L -17.3172,0.159515 L -17.5807,-0.0435181 L -17.8746,-0.217407
 L -18.1989,-0.362183 L -18.5536,-0.477798 L -18.9387,-0.564301 L -19.3542,-0.621658 L -19.0064,-0.666656 L -18.6835,-0.73613
 L -18.3854,-0.830078 L -18.1121,-0.948517 L -17.8637,-1.09142 L -17.64,-1.2588 L -17.4413,-1.45067 L -17.2681,-1.66614
 L -17.1217,-1.90428 L -17.0018,-2.1651 L -16.9086,-2.44859 L -16.842,-2.75476 L -16.8021,-3.0836 L -16.7888,-3.43512
 L -16.8114,-3.89204 L -16.8791,-4.31531 L -16.992,-4.70491 L -17.1501,-5.06085 L -17.3533,-5.38312 L -17.6017,-5.67174
 L -17.8952,-5.9267 L -18.2335,-6.14781 L -18.6163,-6.3349 L -19.0435,-6.48798 L -19.5151,-6.60704 L -20.0312,-6.69209
 L -20.5917,-6.74312 L -21.1967,-6.76012 L -25.4369,-6.76012 L -25.4369,6.41875 L -21.1967,6.41875 z
M -24.9369,5.91875 L -24.9369,-6.26012 L -21.2037,-6.26012 L -20.6214,-6.24376 L -20.0946,-6.1958 L -19.6171,-6.1171
 L -19.1893,-6.00912 L -18.811,-5.87354 L -18.481,-5.71227 L -18.1973,-5.52686 L -17.9569,-5.31804 L -17.7565,-5.08508
 L -17.5923,-4.82477 L -17.4628,-4.5331 L -17.3679,-4.20581 L -17.3094,-3.84006 L -17.2892,-3.43216 L -17.3009,-3.12341
 L -17.3356,-2.8382 L -17.3917,-2.58006 L -17.468,-2.34818 L -17.5634,-2.1405 L -17.6776,-1.95483 L -17.8112,-1.7885
 L -17.9648,-1.6403 L -18.1391,-1.50978 L -18.3368,-1.39607 L -18.5605,-1.29915 L -18.8115,-1.22003 L -19.0913,-1.15985
 L -19.4184,-1.11752 L -19.473,-1.10735 L -19.5329,-1.08864 L -19.59,-1.06256 L -19.6434,-1.02953 L -19.6923,-0.990051
 L -19.7358,-0.944778 L -19.7733,-0.894409 L -19.8041,-0.839737 L -19.8279,-0.781631 L -19.8442,-0.720993 L -19.8528,-0.658798
 L -19.8535,-0.596008 L -19.8464,-0.53363 L -19.8315,-0.472641 L -19.809,-0.413986 L -19.7794,-0.358627 L -19.7431,-0.307404
 L -19.7007,-0.261139 L -19.6527,-0.220566 L -19.6001,-0.18631 L -19.5436,-0.15892 L -19.4841,-0.138824 L -19.4226,-0.126358
 L -19.0278,-0.0718536 L -18.6863,0.00485229 L -18.3788,0.105072 L -18.1046,0.227478 L -17.8616,0.371246 L -17.6476,0.536194
 L -17.4596,0.723373 L -17.296,0.93428 L -17.1559,1.17061 L -17.0391,1.43491 L -16.9459,1.72974 L -16.8779,2.05609
 L -16.8361,2.41501 L -16.822,2.80388 L -16.8433,3.28085 L -16.9056,3.70683 L -17.0065,4.08353 L -17.1434,4.41302
 L -17.3152,4.69957 L -17.5223,4.94783 L -17.7679,5.16238 L -18.0644,5.35085 L -18.4239,5.51688 L -18.8486,5.65753
 L -19.3393,5.77 L -19.8946,5.85191 L -20.5142,5.90178 L -21.2028,5.91875 z
M -21.1834,-1.12686 L -20.9129,-1.13406 L -20.8827,-1.13577 L -20.6354,-1.15738 L -20.5995,-1.16182 L -20.3755,-1.19785
 L -20.3331,-1.20656 L -20.1322,-1.25697 L -20.0826,-1.27222 L -19.9049,-1.33705 L -19.8481,-1.36188 L -19.6936,-1.4411
 L -19.6314,-1.47897 L -19.5002,-1.57262 L -19.4385,-1.62463 L -19.3274,-1.73485 L -19.2755,-1.79518 L -19.1815,-1.9241
 L -19.142,-1.98773 L -19.0651,-2.13539 L -19.038,-2.19724 L -18.9782,-2.36362 L -18.9615,-2.42032 L -18.9188,-2.60542
 L -18.9099,-2.65549 L -18.8842,-2.85931 L -18.8807,-2.90256 L -18.8721,-3.12512 L -18.8721,-3.16386 L -18.8809,-3.38672
 L -18.8845,-3.43057 L -18.9107,-3.63524 L -18.9198,-3.68576 L -18.9634,-3.87224 L -18.9803,-3.92891 L -19.0414,-4.09718
 L -19.0683,-4.15836 L -19.1469,-4.30844 L -19.1856,-4.37091 L -19.2816,-4.50279 L -19.3319,-4.56169 L -19.4454,-4.67538
 L -19.5047,-4.72623 L -19.6379,-4.82338 L -19.6987,-4.86133 L -19.854,-4.94354 L -19.9107,-4.96916 L -20.0882,-5.03642
 L -20.1386,-5.05252 L -20.3383,-5.10484 L -20.3819,-5.11423 L -20.6037,-5.1516 L -20.641,-5.15645 L -20.8849,-5.17886
 L -20.9166,-5.18077 L -21.1826,-5.18825 L -21.1967,-5.18845 L -22.9245,-5.18845 L -23.0182,-5.1796 L -23.079,-5.16397
 L -23.1374,-5.14085 L -23.1924,-5.11061 L -23.2432,-5.0737 L -23.289,-5.03072 L -23.329,-4.98235 L -23.3627,-4.92932
 L -23.3894,-4.87251 L -23.4088,-4.81279 L -23.4206,-4.75111 L -23.4245,-4.68845 L -23.4245,-1.62668 L -23.4157,-1.53299
 L -23.4,-1.47217 L -23.3769,-1.41379 L -23.3467,-1.35876 L -23.3098,-1.30797 L -23.2668,-1.26219 L -23.2184,-1.22217
 L -23.1654,-1.18852 L -23.1086,-1.16179 L -23.0489,-1.14238 L -22.9872,-1.13062 L -22.9245,-1.12668 L -21.1967,-1.12668
 z
M -22.9245,-1.62668 L -22.9245,-4.68845 L -21.1967,-4.68845 L -20.9307,-4.68097 L -20.6868,-4.65855 L -20.465,-4.62119
 L -20.2654,-4.56886 L -20.0879,-4.5016 L -19.9325,-4.41939 L -19.7993,-4.32224 L -19.6859,-4.20854 L -19.5899,-4.07666
 L -19.5114,-3.92657 L -19.4503,-3.7583 L -19.4066,-3.57182 L -19.3805,-3.36716 L -19.3717,-3.1443 L -19.3803,-2.92174
 L -19.4059,-2.71791 L -19.4487,-2.53281 L -19.5085,-2.36642 L -19.5854,-2.21877 L -19.6795,-2.08984 L -19.7906,-1.97963
 L -19.9218,-1.88599 L -20.0763,-1.80676 L -20.254,-1.74193 L -20.4548,-1.69151 L -20.6789,-1.65549 L -20.9262,-1.63388
 L -21.1967,-1.62668 z
M -21.184,4.83858 L -20.844,4.82994 L -20.8151,4.82837 L -20.5055,4.80249 L -20.4708,4.79837 L -20.1917,4.75523
 L -20.1501,4.74698 L -19.9013,4.68658 L -19.8517,4.67178 L -19.6334,4.59413 L -19.5756,4.56935 L -19.3877,4.47444
 L -19.3231,4.43542 L -19.1656,4.32327 L -19.1001,4.26762 L -18.968,4.13403 L -18.9144,4.0699 L -18.8025,3.91078
 L -18.7636,3.84529 L -18.6721,3.66064 L -18.6465,3.59898 L -18.5753,3.38881 L -18.5602,3.33385 L -18.5093,3.09814
 L -18.5015,3.05074 L -18.471,2.78951 L -18.4679,2.74924 L -18.4578,2.46249 L -18.4578,2.42665 L -18.4684,2.13431
 L -18.4715,2.09341 L -18.5034,1.82552 L -18.5114,1.778 L -18.5645,1.53458 L -18.5795,1.48047 L -18.6538,1.26149
 L -18.6785,1.20172 L -18.774,1.0072 L -18.8106,0.944611 L -18.9274,0.774551 L -18.9767,0.713623 L -19.1147,0.568008
 L -19.1744,0.514359 L -19.3368,0.390472 L -19.3987,0.350174 L -19.5888,0.245346 L -19.647,0.217972 L -19.8649,0.132202
 L -19.917,0.114944 L -20.1626,0.048233 L -20.2078,0.0381775 L -20.4811,-0.00946045 L -20.5197,-0.0146484 L -20.8207,-0.0432434
 L -20.8535,-0.0452728 L -21.1822,-0.0548096 L -21.1967,-0.0550232 L -22.9245,-0.0550232 L -23.0182,-0.0461731 L -23.079,-0.0305481
 L -23.1374,-0.00743103 L -23.1924,0.0228119 L -23.2432,0.0597229 L -23.289,0.102707 L -23.329,0.151077 L -23.3627,0.204102
 L -23.3894,0.26091 L -23.4088,0.320633 L -23.4206,0.382309 L -23.4245,0.444977 L -23.4245,4.33875 L -23.4157,4.43243
 L -23.4,4.49326 L -23.3769,4.55164 L -23.3467,4.60666 L -23.3098,4.65746 L -23.2668,4.70323 L -23.2184,4.74326
 L -23.1654,4.7769 L -23.1086,4.80363 L -23.0489,4.82304 L -22.9872,4.83481 L -22.9245,4.83875 L -21.1967,4.83875
 z
M -22.9245,4.33875 L -22.9245,0.444977 L -21.1967,0.444977 L -20.868,0.454514 L -20.567,0.483109 L -20.2937,0.530746
 L -20.0481,0.597458 L -19.8302,0.683228 L -19.64,0.788055 L -19.4776,0.911942 L -19.3396,1.05756 L -19.2228,1.22762
 L -19.1273,1.42213 L -19.053,1.64111 L -18.9999,1.88454 L -18.968,2.15244 L -18.9574,2.44478 L -18.9676,2.73152
 L -18.9981,2.99275 L -19.0489,3.22845 L -19.1201,3.43863 L -19.2116,3.62328 L -19.3234,3.78239 L -19.4556,3.91599
 L -19.6131,4.02814 L -19.801,4.12305 L -20.0193,4.2007 L -20.2681,4.26109 L -20.5472,4.30423 L -20.8567,4.33011
 L -21.1967,4.33875 z
M 1.42738,-4.47212 L 4.76851,-4.47212 L 4.76851,-6.74348 L -4.51439,-6.74348 L -4.51439,-4.47212 L -1.17325,-4.47212
 L -1.17325,6.41875 L 1.42738,6.41875 z
M -0.673248,5.91875 L -0.673248,-4.47212 L -0.682098,-4.56581 L -0.697723,-4.62663 L -0.72084,-4.68501 L -0.751083,-4.74004
 L -0.787994,-4.79083 L -0.830978,-4.83661 L -0.879349,-4.87663 L -0.932373,-4.91028 L -0.989182,-4.93701 L -1.0489,-4.95642
 L -1.11058,-4.96819 L -1.17325,-4.97212 L -4.01439,-4.97212 L -4.01439,-6.24348 L 4.26851,-6.24348 L 4.26851,-4.97212
 L 1.42738,-4.97212 L 1.33369,-4.96327 L 1.27287,-4.94765 L 1.21449,-4.92453 L 1.15947,-4.89429 L 1.10867,-4.85738
 L 1.0629,-4.81439 L 1.02287,-4.76602 L 0.989227,-4.713 L 0.962494,-4.65619 L 0.943085,-4.59647 L 0.93132,-4.53479
 L 0.927383,-4.47212 L 0.927383,5.91875 z
M 14.9873,4.13074 L 9.38939,4.13074 L 9.38939,0.677948 L 14.4583,0.677948 L 14.4583,-1.61005 L 9.38939,-1.61005
 L 9.38939,-4.45547 L 14.9873,-4.45547 L 14.9873,-6.74348 L 6.78886,-6.74348 L 6.78886,6.41875 L 14.9873,6.41875
 z
M 7.28886,5.91875 L 7.28886,-6.24348 L 14.4873,-6.24348 L 14.4873,-4.95547 L 9.38939,-4.95547 L 9.2957,-4.94662
 L 9.23488,-4.931 L 9.1765,-4.90788 L 9.12148,-4.87764 L 9.07068,-4.84073 L 9.0249,-4.79774 L 8.98488,-4.74937
 L 8.95123,-4.69635 L 8.9245,-4.63954 L 8.90509,-4.57982 L 8.89333,-4.51814 L 8.88939,-4.45547 L 8.88939,-1.61005
 L 8.89824,-1.51636 L 8.91386,-1.45554 L 8.93698,-1.39716 L 8.96722,-1.34213 L 9.00414,-1.29134 L 9.04712,-1.24556
 L 9.09549,-1.20554 L 9.14851,-1.17189 L 9.20532,-1.14516 L 9.26505,-1.12575 L 9.32672,-1.11398 L 9.38939,-1.11005
 L 13.9583,-1.11005 L 13.9583,0.177948 L 9.38939,0.177948 L 9.2957,0.186798 L 9.23488,0.202423 L 9.1765,0.22554
 L 9.12148,0.255783 L 9.07068,0.292694 L 9.0249,0.335678 L 8.98488,0.384048 L 8.95123,0.437073 L 8.9245,0.493881
 L 8.90509,0.553604 L 8.89333,0.61528 L 8.88939,0.677948 L 8.88939,4.13074 L 8.89824,4.22443 L 8.91386,4.28525
 L 8.93698,4.34363 L 8.96722,4.39865 L 9.00414,4.44945 L 9.04712,4.49522 L 9.09549,4.53525 L 9.14851,4.56889
 L 9.20532,4.59563 L 9.26505,4.61504 L 9.32672,4.6268 L 9.38939,4.63074 L 14.4873,4.63074 L 14.4873,5.91875
 z
M -9.18817,1.23499 L -5.12424,-6.74348 L -7.92757,-6.74348 L -10.4929,-1.45392 L -13.0494,-6.74348 L -15.8528,-6.74348
 L -11.7888,1.23499 L -11.7888,6.41875 L -9.18817,6.41875 z
M -11.2888,5.91875 L -11.2888,1.23499 L -11.291,1.18799 L -11.3008,1.12598 L -11.3184,1.06567 L -11.3433,1.00804
 L -15.0369,-6.24348 L -13.3631,-6.24348 L -10.943,-1.23634 L -10.9181,-1.19098 L -10.8818,-1.13974 L -10.8394,-1.09348
 L -10.7915,-1.05289 L -10.7389,-1.01862 L -10.6824,-0.991226 L -10.6229,-0.971115 L -10.5613,-0.958633 L -10.4987,-0.953949
 L -10.436,-0.957153 L -10.3742,-0.968201 L -10.3143,-0.986908 L -10.2571,-1.01297 L -10.2037,-1.04599 L -10.1549,-1.08545
 L -10.1114,-1.13071 L -10.0739,-1.18108 L -10.043,-1.23573 L -7.61435,-6.24348 L -5.94005,-6.24348 L -9.6337,1.00804
 L -9.65306,1.05092 L -9.67247,1.11064 L -9.68423,1.17232 L -9.68817,1.23499 L -9.68817,5.91875 z
" stroke="black" fill="lightgray" stroke-width="0.5"/>
</svg>
