  0
SECTION
  2
BLOCKS
  0
ENDSEC
  0
SECTION
  2
ENTITIES
  0
LINE
  8
0
 10
-15.5242
 20
-6.6566
 11
-14.9178
 21
-6.59641
  0
LINE
  8
0
 10
-14.9178
 20
-6.59641
 11
-14.3606
 21
-6.49609
  0
LINE
  8
0
 10
-14.3606
 20
-6.49609
 11
-13.8524
 21
-6.35567
  0
LINE
  8
0
 10
-13.8524
 20
-6.35567
 11
-13.3934
 21
-6.17509
  0
LINE
  8
0
 10
-13.3934
 20
-6.17509
 11
-12.9835
 21
-5.95441
  0
LINE
  8
0
 10
-12.9835
 20
-5.95441
 11
-12.6227
 21
-5.6936
  0
LINE
  8
0
 10
-12.6227
 20
-5.6936
 11
-12.3104
 21
-5.39212
  0
LINE
  8
0
 10
-12.3104
 20
-5.39212
 11
-12.0462
 21
-5.04944
  0
LINE
  8
0
 10
-12.0462
 20
-5.04944
 11
-11.8301
 21
-4.66554
  0
LINE
  8
0
 10
-11.8301
 20
-4.66554
 11
-11.6619
 21
-4.24045
  0
LINE
  8
0
 10
-11.6619
 20
-4.24045
 11
-11.5418
 21
-3.77414
  0
LINE
  8
0
 10
-11.5418
 20
-3.77414
 11
-11.4698
 21
-3.26662
  0
LINE
  8
0
 10
-11.4698
 20
-3.26662
 11
-11.4458
 21
-2.7179
  0
LINE
  8
0
 10
-11.4458
 20
-2.7179
 11
-11.4611
 21
-2.31
  0
LINE
  8
0
 10
-11.4611
 20
-2.31
 11
-11.5069
 21
-1.92262
  0
LINE
  8
0
 10
-11.5069
 20
-1.92262
 11
-11.5834
 21
-1.55576
  0
LINE
  8
0
 10
-11.5834
 20
-1.55576
 11
-11.6904
 21
-1.2094
  0
LINE
  8
0
 10
-11.6904
 20
-1.2094
 11
-11.8281
 21
-0.883545
  0
LINE
  8
0
 10
-11.8281
 20
-0.883545
 11
-11.9963
 21
-0.578217
  0
LINE
  8
0
 10
-11.9963
 20
-0.578217
 11
-12.1951
 21
-0.293396
  0
LINE
  8
0
 10
-12.1951
 20
-0.293396
 11
-12.4263
 21
-0.0265503
  0
LINE
  8
0
 10
-12.4263
 20
-0.0265503
 11
-12.6916
 21
0.224823
  0
LINE
  8
0
 10
-12.6916
 20
0.224823
 11
-12.9912
 21
0.460724
  0
LINE
  8
0
 10
-12.9912
 20
0.460724
 11
-13.3249
 21
0.681152
  0
LINE
  8
0
 10
-13.3249
 20
0.681152
 11
-13.6928
 21
0.886093
  0
LINE
  8
0
 10
-13.6928
 20
0.886093
 11
-14.0949
 21
1.07556
  0
LINE
  8
0
 10
-14.0949
 20
1.07556
 11
-14.5312
 21
1.24956
  0
LINE
  8
0
 10
-14.5312
 20
1.24956
 11
-15.6509
 21
1.67322
  0
LINE
  8
0
 10
-15.6509
 20
1.67322
 11
-15.9671
 21
1.79515
  0
LINE
  8
0
 10
-15.9671
 20
1.79515
 11
-16.2507
 21
1.91402
  0
LINE
  8
0
 10
-16.2507
 20
1.91402
 11
-16.5017
 21
2.02982
  0
LINE
  8
0
 10
-16.5017
 20
2.02982
 11
-16.7202
 21
2.14253
  0
LINE
  8
0
 10
-16.7202
 20
2.14253
 11
-16.9062
 21
2.2522
  0
LINE
  8
0
 10
-16.9062
 20
2.2522
 11
-17.0595
 21
2.3588
  0
LINE
  8
0
 10
-17.0595
 20
2.3588
 11
-17.1803
 21
2.46233
  0
LINE
  8
0
 10
-17.1803
 20
2.46233
 11
-17.2774
 21
2.56822
  0
LINE
  8
0
 10
-17.2774
 20
2.56822
 11
-17.3595
 21
2.68187
  0
LINE
  8
0
 10
-17.3595
 20
2.68187
 11
-17.4267
 21
2.80325
  0
LINE
  8
0
 10
-17.4267
 20
2.80325
 11
-17.479
 21
2.93239
  0
LINE
  8
0
 10
-17.479
 20
2.93239
 11
-17.5163
 21
3.06924
  0
LINE
  8
0
 10
-17.5163
 20
3.06924
 11
-17.5387
 21
3.21387
  0
LINE
  8
0
 10
-17.5387
 20
3.21387
 11
-17.5461
 21
3.36621
  0
LINE
  8
0
 10
-17.5461
 20
3.36621
 11
-17.5359
 21
3.5611
  0
LINE
  8
0
 10
-17.5359
 20
3.5611
 11
-17.5051
 21
3.74265
  0
LINE
  8
0
 10
-17.5051
 20
3.74265
 11
-17.4539
 21
3.91089
  0
LINE
  8
0
 10
-17.4539
 20
3.91089
 11
-17.3821
 21
4.06581
  0
LINE
  8
0
 10
-17.3821
 20
4.06581
 11
-17.2898
 21
4.20741
  0
LINE
  8
0
 10
-17.2898
 20
4.20741
 11
-17.177
 21
4.33571
  0
LINE
  8
0
 10
-17.177
 20
4.33571
 11
-17.0437
 21
4.45067
  0
LINE
  8
0
 10
-17.0437
 20
4.45067
 11
-16.8911
 21
4.55128
  0
LINE
  8
0
 10
-16.8911
 20
4.55128
 11
-16.7205
 21
4.63641
  0
LINE
  8
0
 10
-16.7205
 20
4.63641
 11
-16.532
 21
4.70605
  0
LINE
  8
0
 10
-16.532
 20
4.70605
 11
-16.3254
 21
4.76024
  0
LINE
  8
0
 10
-16.3254
 20
4.76024
 11
-16.1009
 21
4.79892
  0
LINE
  8
0
 10
-16.1009
 20
4.79892
 11
-15.8584
 21
4.82214
  0
LINE
  8
0
 10
-15.8584
 20
4.82214
 11
-15.5978
 21
4.82988
  0
LINE
  8
0
 10
-15.5978
 20
4.82988
 11
-15.3557
 21
4.82359
  0
LINE
  8
0
 10
-15.3557
 20
4.82359
 11
-15.1128
 21
4.80472
  0
LINE
  8
0
 10
-15.1128
 20
4.80472
 11
-14.8692
 21
4.77327
  0
LINE
  8
0
 10
-14.8692
 20
4.77327
 11
-14.6249
 21
4.72923
  0
LINE
  8
0
 10
-14.6249
 20
4.72923
 11
-14.3799
 21
4.67262
  0
LINE
  8
0
 10
-14.3799
 20
4.67262
 11
-14.1341
 21
4.60342
  0
LINE
  8
0
 10
-14.1341
 20
4.60342
 11
-13.8877
 21
4.52165
  0
LINE
  8
0
 10
-13.8877
 20
4.52165
 11
-13.6414
 21
4.42784
  0
LINE
  8
0
 10
-13.6414
 20
4.42784
 11
-13.3961
 21
4.32253
  0
LINE
  8
0
 10
-13.3961
 20
4.32253
 11
-13.152
 21
4.20572
  0
LINE
  8
0
 10
-13.152
 20
4.20572
 11
-12.9089
 21
4.07741
  0
LINE
  8
0
 10
-12.9089
 20
4.07741
 11
-12.667
 21
3.93759
  0
LINE
  8
0
 10
-12.667
 20
3.93759
 11
-12.4261
 21
3.78629
  0
LINE
  8
0
 10
-12.4261
 20
3.78629
 11
-12.1862
 21
3.62349
  0
LINE
  8
0
 10
-12.1862
 20
3.62349
 11
-12.1862
 21
6.16109
  0
LINE
  8
0
 10
-12.1862
 20
6.16109
 11
-12.441
 21
6.27342
  0
LINE
  8
0
 10
-12.441
 20
6.27342
 11
-12.6965
 21
6.37762
  0
LINE
  8
0
 10
-12.6965
 20
6.37762
 11
-12.9527
 21
6.47369
  0
LINE
  8
0
 10
-12.9527
 20
6.47369
 11
-13.2096
 21
6.56163
  0
LINE
  8
0
 10
-13.2096
 20
6.56163
 11
-13.4672
 21
6.64143
  0
LINE
  8
0
 10
-13.4672
 20
6.64143
 11
-13.7256
 21
6.7131
  0
LINE
  8
0
 10
-13.7256
 20
6.7131
 11
-13.9847
 21
6.77663
  0
LINE
  8
0
 10
-13.9847
 20
6.77663
 11
-14.2441
 21
6.83185
  0
LINE
  8
0
 10
-14.2441
 20
6.83185
 11
-14.5035
 21
6.87857
  0
LINE
  8
0
 10
-14.5035
 20
6.87857
 11
-14.7629
 21
6.91681
  0
LINE
  8
0
 10
-14.7629
 20
6.91681
 11
-15.0223
 21
6.94653
  0
LINE
  8
0
 10
-15.0223
 20
6.94653
 11
-15.2818
 21
6.96777
  0
LINE
  8
0
 10
-15.2818
 20
6.96777
 11
-15.5412
 21
6.98051
  0
LINE
  8
0
 10
-15.5412
 20
6.98051
 11
-15.8006
 21
6.98476
  0
LINE
  8
0
 10
-15.8006
 20
6.98476
 11
-16.355
 21
6.96387
  0
LINE
  8
0
 10
-16.355
 20
6.96387
 11
-16.8744
 21
6.9012
  0
LINE
  8
0
 10
-16.8744
 20
6.9012
 11
-17.3589
 21
6.79675
  0
LINE
  8
0
 10
-17.3589
 20
6.79675
 11
-17.8085
 21
6.65051
  0
LINE
  8
0
 10
-17.8085
 20
6.65051
 11
-18.2232
 21
6.46251
  0
LINE
  8
0
 10
-18.2232
 20
6.46251
 11
-18.603
 21
6.23271
  0
LINE
  8
0
 10
-18.603
 20
6.23271
 11
-18.9479
 21
5.96114
  0
LINE
  8
0
 10
-18.9479
 20
5.96114
 11
-19.252
 21
5.65305
  0
LINE
  8
0
 10
-19.252
 20
5.65305
 11
-19.5092
 21
5.31361
  0
LINE
  8
0
 10
-19.5092
 20
5.31361
 11
-19.7197
 21
4.94284
  0
LINE
  8
0
 10
-19.7197
 20
4.94284
 11
-19.8834
 21
4.54074
  0
LINE
  8
0
 10
-19.8834
 20
4.54074
 11
-20.0003
 21
4.10728
  0
LINE
  8
0
 10
-20.0003
 20
4.10728
 11
-20.0705
 21
3.6425
  0
LINE
  8
0
 10
-20.0705
 20
3.6425
 11
-20.0939
 21
3.14638
  0
LINE
  8
0
 10
-20.0939
 20
3.14638
 11
-20.0797
 21
2.75967
  0
LINE
  8
0
 10
-20.0797
 20
2.75967
 11
-20.037
 21
2.39619
  0
LINE
  8
0
 10
-20.037
 20
2.39619
 11
-19.966
 21
2.05594
  0
LINE
  8
0
 10
-19.966
 20
2.05594
 11
-19.8665
 21
1.73891
  0
LINE
  8
0
 10
-19.8665
 20
1.73891
 11
-19.7386
 21
1.4451
  0
LINE
  8
0
 10
-19.7386
 20
1.4451
 11
-19.5822
 21
1.17451
  0
LINE
  8
0
 10
-19.5822
 20
1.17451
 11
-19.3975
 21
0.927155
  0
LINE
  8
0
 10
-19.3975
 20
0.927155
 11
-19.1726
 21
0.692978
  0
LINE
  8
0
 10
-19.1726
 20
0.692978
 11
-18.8959
 21
0.461853
  0
LINE
  8
0
 10
-18.8959
 20
0.461853
 11
-18.5674
 21
0.23381
  0
LINE
  8
0
 10
-18.5674
 20
0.23381
 11
-18.1871
 21
0.00880432
  0
LINE
  8
0
 10
-18.1871
 20
0.00880432
 11
-17.7549
 21
-0.213104
  0
LINE
  8
0
 10
-17.7549
 20
-0.213104
 11
-17.271
 21
-0.431976
  0
LINE
  8
0
 10
-17.271
 20
-0.431976
 11
-16.7352
 21
-0.647781
  0
LINE
  8
0
 10
-16.7352
 20
-0.647781
 11
-15.4569
 21
-1.13307
  0
LINE
  8
0
 10
-15.4569
 20
-1.13307
 11
-15.272
 21
-1.20985
  0
LINE
  8
0
 10
-15.272
 20
-1.20985
 11
-15.1
 21
-1.29436
  0
LINE
  8
0
 10
-15.1
 20
-1.29436
 11
-14.9409
 21
-1.3866
  0
LINE
  8
0
 10
-14.9409
 20
-1.3866
 11
-14.7948
 21
-1.48657
  0
LINE
  8
0
 10
-14.7948
 20
-1.48657
 11
-14.6617
 21
-1.59427
  0
LINE
  8
0
 10
-14.6617
 20
-1.59427
 11
-14.5415
 21
-1.7097
  0
LINE
  8
0
 10
-14.5415
 20
-1.7097
 11
-14.4343
 21
-1.83286
  0
LINE
  8
0
 10
-14.4343
 20
-1.83286
 11
-14.3408
 21
-1.96281
  0
LINE
  8
0
 10
-14.3408
 20
-1.96281
 11
-14.2616
 21
-2.09869
  0
LINE
  8
0
 10
-14.2616
 20
-2.09869
 11
-14.1968
 21
-2.24051
  0
LINE
  8
0
 10
-14.1968
 20
-2.24051
 11
-14.1464
 21
-2.38824
  0
LINE
  8
0
 10
-14.1464
 20
-2.38824
 11
-14.1104
 21
-2.5419
  0
LINE
  8
0
 10
-14.1104
 20
-2.5419
 11
-14.0888
 21
-2.70149
  0
LINE
  8
0
 10
-14.0888
 20
-2.70149
 11
-14.0816
 21
-2.86702
  0
LINE
  8
0
 10
-14.0816
 20
-2.86702
 11
-14.0924
 21
-3.08374
  0
LINE
  8
0
 10
-14.0924
 20
-3.08374
 11
-14.1248
 21
-3.28629
  0
LINE
  8
0
 10
-14.1248
 20
-3.28629
 11
-14.1788
 21
-3.47464
  0
LINE
  8
0
 10
-14.1788
 20
-3.47464
 11
-14.2544
 21
-3.64879
  0
LINE
  8
0
 10
-14.2544
 20
-3.64879
 11
-14.3515
 21
-3.80878
  0
LINE
  8
0
 10
-14.3515
 20
-3.80878
 11
-14.4703
 21
-3.95456
  0
LINE
  8
0
 10
-14.4703
 20
-3.95456
 11
-14.6106
 21
-4.08615
  0
LINE
  8
0
 10
-14.6106
 20
-4.08615
 11
-14.7705
 21
-4.20172
  0
LINE
  8
0
 10
-14.7705
 20
-4.20172
 11
-14.9481
 21
-4.29951
  0
LINE
  8
0
 10
-14.9481
 20
-4.29951
 11
-15.1433
 21
-4.37953
  0
LINE
  8
0
 10
-15.1433
 20
-4.37953
 11
-15.3561
 21
-4.44177
  0
LINE
  8
0
 10
-15.3561
 20
-4.44177
 11
-15.5866
 21
-4.48622
  0
LINE
  8
0
 10
-15.5866
 20
-4.48622
 11
-15.8347
 21
-4.51289
  0
LINE
  8
0
 10
-15.8347
 20
-4.51289
 11
-16.1004
 21
-4.52179
  0
LINE
  8
0
 10
-16.1004
 20
-4.52179
 11
-16.3729
 21
-4.51445
  0
LINE
  8
0
 10
-16.3729
 20
-4.51445
 11
-16.6463
 21
-4.49243
  0
LINE
  8
0
 10
-16.6463
 20
-4.49243
 11
-16.9205
 21
-4.45573
  0
LINE
  8
0
 10
-16.9205
 20
-4.45573
 11
-17.1957
 21
-4.40437
  0
LINE
  8
0
 10
-17.1957
 20
-4.40437
 11
-17.4718
 21
-4.33832
  0
LINE
  8
0
 10
-17.4718
 20
-4.33832
 11
-17.7488
 21
-4.2576
  0
LINE
  8
0
 10
-17.7488
 20
-4.2576
 11
-18.0266
 21
-4.1622
  0
LINE
  8
0
 10
-18.0266
 20
-4.1622
 11
-18.3063
 21
-4.05173
  0
LINE
  8
0
 10
-18.3063
 20
-4.05173
 11
-18.5887
 21
-3.92587
  0
LINE
  8
0
 10
-18.5887
 20
-3.92587
 11
-18.8737
 21
-3.78464
  0
LINE
  8
0
 10
-18.8737
 20
-3.78464
 11
-19.1615
 21
-3.62801
  0
LINE
  8
0
 10
-19.1615
 20
-3.62801
 11
-19.452
 21
-3.45598
  0
LINE
  8
0
 10
-19.452
 20
-3.45598
 11
-19.7451
 21
-3.26857
  0
LINE
  8
0
 10
-19.7451
 20
-3.26857
 11
-20.041
 21
-3.06578
  0
LINE
  8
0
 10
-20.041
 20
-3.06578
 11
-20.041
 21
-5.75314
  0
LINE
  8
0
 10
-20.041
 20
-5.75314
 11
-19.7777
 21
-5.87924
  0
LINE
  8
0
 10
-19.7777
 20
-5.87924
 11
-19.5117
 21
-5.99617
  0
LINE
  8
0
 10
-19.5117
 20
-5.99617
 11
-19.243
 21
-6.10396
  0
LINE
  8
0
 10
-19.243
 20
-6.10396
 11
-18.9716
 21
-6.20259
  0
LINE
  8
0
 10
-18.9716
 20
-6.20259
 11
-18.6976
 21
-6.29207
  0
LINE
  8
0
 10
-18.6976
 20
-6.29207
 11
-18.4208
 21
-6.37241
  0
LINE
  8
0
 10
-18.4208
 20
-6.37241
 11
-18.1413
 21
-6.44357
  0
LINE
  8
0
 10
-18.1413
 20
-6.44357
 11
-17.8605
 21
-6.50542
  0
LINE
  8
0
 10
-17.8605
 20
-6.50542
 11
-17.5799
 21
-6.55774
  0
LINE
  8
0
 10
-17.5799
 20
-6.55774
 11
-17.2995
 21
-6.60056
  0
LINE
  8
0
 10
-17.2995
 20
-6.60056
 11
-17.0193
 21
-6.63385
  0
LINE
  8
0
 10
-17.0193
 20
-6.63385
 11
-16.7392
 21
-6.65764
  0
LINE
  8
0
 10
-16.7392
 20
-6.65764
 11
-16.4594
 21
-6.67191
  0
LINE
  8
0
 10
-16.4594
 20
-6.67191
 11
-16.1797
 21
-6.67667
  0
LINE
  8
0
 10
-16.1797
 20
-6.67667
 11
-15.5242
 21
-6.6566
  0
LINE
  8
0
 10
-16.4421
 20
-6.17213
 11
-16.7057
 21
-6.15869
  0
LINE
  8
0
 10
-16.7057
 20
-6.15869
 11
-16.9685
 21
-6.13637
  0
LINE
  8
0
 10
-16.9685
 20
-6.13637
 11
-17.232
 21
-6.10506
  0
LINE
  8
0
 10
-17.232
 20
-6.10506
 11
-17.4964
 21
-6.0647
  0
LINE
  8
0
 10
-17.4964
 20
-6.0647
 11
-17.7609
 21
-6.01537
  0
LINE
  8
0
 10
-17.7609
 20
-6.01537
 11
-18.0257
 21
-5.95705
  0
LINE
  8
0
 10
-18.0257
 20
-5.95705
 11
-18.2896
 21
-5.88985
  0
LINE
  8
0
 10
-18.2896
 20
-5.88985
 11
-18.5502
 21
-5.81419
  0
LINE
  8
0
 10
-18.5502
 20
-5.81419
 11
-18.8086
 21
-5.72986
  0
LINE
  8
0
 10
-18.8086
 20
-5.72986
 11
-19.0644
 21
-5.63689
  0
LINE
  8
0
 10
-19.0644
 20
-5.63689
 11
-19.3178
 21
-5.53522
  0
LINE
  8
0
 10
-19.3178
 20
-5.53522
 11
-19.541
 21
-5.43712
  0
LINE
  8
0
 10
-19.541
 20
-5.43712
 11
-19.541
 21
-3.98436
  0
LINE
  8
0
 10
-19.541
 20
-3.98436
 11
-19.4163
 21
-4.05821
  0
LINE
  8
0
 10
-19.4163
 20
-4.05821
 11
-19.4005
 21
-4.06717
  0
LINE
  8
0
 10
-19.4005
 20
-4.06717
 11
-19.1127
 21
-4.2238
  0
LINE
  8
0
 10
-19.1127
 20
-4.2238
 11
-19.0957
 21
-4.23267
  0
LINE
  8
0
 10
-19.0957
 20
-4.23267
 11
-18.8106
 21
-4.3739
  0
LINE
  8
0
 10
-18.8106
 20
-4.3739
 11
-18.7922
 21
-4.38257
  0
LINE
  8
0
 10
-18.7922
 20
-4.38257
 11
-18.5098
 21
-4.50842
  0
LINE
  8
0
 10
-18.5098
 20
-4.50842
 11
-18.49
 21
-4.51675
  0
LINE
  8
0
 10
-18.49
 20
-4.51675
 11
-18.2103
 21
-4.62723
  0
LINE
  8
0
 10
-18.2103
 20
-4.62723
 11
-18.189
 21
-4.6351
  0
LINE
  8
0
 10
-18.189
 20
-4.6351
 11
-17.9111
 21
-4.7305
  0
LINE
  8
0
 10
-17.9111
 20
-4.7305
 11
-17.8887
 21
-4.73763
  0
LINE
  8
0
 10
-17.8887
 20
-4.73763
 11
-17.6117
 21
-4.81834
  0
LINE
  8
0
 10
-17.6117
 20
-4.81834
 11
-17.5882
 21
-4.8246
  0
LINE
  8
0
 10
-17.5882
 20
-4.8246
 11
-17.3121
 21
-4.89066
  0
LINE
  8
0
 10
-17.3121
 20
-4.89066
 11
-17.2875
 21
-4.89589
  0
LINE
  8
0
 10
-17.2875
 20
-4.89589
 11
-17.0123
 21
-4.94725
  0
LINE
  8
0
 10
-17.0123
 20
-4.94725
 11
-16.9869
 21
-4.95132
  0
LINE
  8
0
 10
-16.9869
 20
-4.95132
 11
-16.7126
 21
-4.98802
  0
LINE
  8
0
 10
-16.7126
 20
-4.98802
 11
-16.6864
 21
-4.99081
  0
LINE
  8
0
 10
-16.6864
 20
-4.99081
 11
-16.413
 21
-5.01283
  0
LINE
  8
0
 10
-16.413
 20
-5.01283
 11
-16.3864
 21
-5.01427
  0
LINE
  8
0
 10
-16.3864
 20
-5.01427
 11
-16.1139
 21
-5.02161
  0
LINE
  8
0
 10
-16.1139
 20
-5.02161
 11
-16.0837
 21
-5.02151
  0
LINE
  8
0
 10
-16.0837
 20
-5.02151
 11
-15.8179
 21
-5.01262
  0
LINE
  8
0
 10
-15.8179
 20
-5.01262
 11
-15.7812
 21
-5.01003
  0
LINE
  8
0
 10
-15.7812
 20
-5.01003
 11
-15.5331
 21
-4.98335
  0
LINE
  8
0
 10
-15.5331
 20
-4.98335
 11
-15.4919
 21
-4.97717
  0
LINE
  8
0
 10
-15.4919
 20
-4.97717
 11
-15.2614
 21
-4.93272
  0
LINE
  8
0
 10
-15.2614
 20
-4.93272
 11
-15.2158
 21
-4.92168
  0
LINE
  8
0
 10
-15.2158
 20
-4.92168
 11
-15.0029
 21
-4.85944
  0
LINE
  8
0
 10
-15.0029
 20
-4.85944
 11
-14.9536
 21
-4.84216
  0
LINE
  8
0
 10
-14.9536
 20
-4.84216
 11
-14.7584
 21
-4.76215
  0
LINE
  8
0
 10
-14.7584
 20
-4.76215
 11
-14.7069
 21
-4.73747
  0
LINE
  8
0
 10
-14.7069
 20
-4.73747
 11
-14.5293
 21
-4.63968
  0
LINE
  8
0
 10
-14.5293
 20
-4.63968
 11
-14.4777
 21
-4.60698
  0
LINE
  8
0
 10
-14.4777
 20
-4.60698
 11
-14.3177
 21
-4.49141
  0
LINE
  8
0
 10
-14.3177
 20
-4.49141
 11
-14.2686
 21
-4.45088
  0
LINE
  8
0
 10
-14.2686
 20
-4.45088
 11
-14.1283
 21
-4.31929
  0
LINE
  8
0
 10
-14.1283
 20
-4.31929
 11
-14.0826
 21
-4.27032
  0
LINE
  8
0
 10
-14.0826
 20
-4.27032
 11
-13.9639
 21
-4.12454
  0
LINE
  8
0
 10
-13.9639
 20
-4.12454
 11
-13.9242
 21
-4.06833
  0
LINE
  8
0
 10
-13.9242
 20
-4.06833
 11
-13.827
 21
-3.90834
  0
LINE
  8
0
 10
-13.827
 20
-3.90834
 11
-13.7957
 21
-3.84781
  0
LINE
  8
0
 10
-13.7957
 20
-3.84781
 11
-13.7201
 21
-3.67366
  0
LINE
  8
0
 10
-13.7201
 20
-3.67366
 11
-13.6982
 21
-3.61237
  0
LINE
  8
0
 10
-13.6982
 20
-3.61237
 11
-13.6442
 21
-3.42401
  0
LINE
  8
0
 10
-13.6442
 20
-3.42401
 11
-13.6311
 21
-3.36525
  0
LINE
  8
0
 10
-13.6311
 20
-3.36525
 11
-13.5987
 21
-3.1627
  0
LINE
  8
0
 10
-13.5987
 20
-3.1627
 11
-13.5931
 21
-3.1086
  0
LINE
  8
0
 10
-13.5931
 20
-3.1086
 11
-13.5823
 21
-2.89188
  0
LINE
  8
0
 10
-13.5823
 20
-2.89188
 11
-13.5821
 21
-2.84534
  0
LINE
  8
0
 10
-13.5821
 20
-2.84534
 11
-13.5893
 21
-2.67981
  0
LINE
  8
0
 10
-13.5893
 20
-2.67981
 11
-13.5934
 21
-2.63441
  0
LINE
  8
0
 10
-13.5934
 20
-2.63441
 11
-13.615
 21
-2.47482
  0
LINE
  8
0
 10
-13.615
 20
-2.47482
 11
-13.6236
 21
-2.4279
  0
LINE
  8
0
 10
-13.6236
 20
-2.4279
 11
-13.6596
 21
-2.27425
  0
LINE
  8
0
 10
-13.6596
 20
-2.27425
 11
-13.6732
 21
-2.22685
  0
LINE
  8
0
 10
-13.6732
 20
-2.22685
 11
-13.7236
 21
-2.07912
  0
LINE
  8
0
 10
-13.7236
 20
-2.07912
 11
-13.742
 21
-2.03275
  0
LINE
  8
0
 10
-13.742
 20
-2.03275
 11
-13.8068
 21
-1.89093
  0
LINE
  8
0
 10
-13.8068
 20
-1.89093
 11
-13.8296
 21
-1.847
  0
LINE
  8
0
 10
-13.8296
 20
-1.847
 11
-13.9087
 21
-1.71112
  0
LINE
  8
0
 10
-13.9087
 20
-1.71112
 11
-13.935
 21
-1.67064
  0
LINE
  8
0
 10
-13.935
 20
-1.67064
 11
-14.0286
 21
-1.54068
  0
LINE
  8
0
 10
-14.0286
 20
-1.54068
 11
-14.0572
 21
-1.50456
  0
LINE
  8
0
 10
-14.0572
 20
-1.50456
 11
-14.1644
 21
-1.38141
  0
LINE
  8
0
 10
-14.1644
 20
-1.38141
 11
-14.1952
 21
-1.34912
  0
LINE
  8
0
 10
-14.1952
 20
-1.34912
 11
-14.3153
 21
-1.23369
  0
LINE
  8
0
 10
-14.3153
 20
-1.23369
 11
-14.3472
 21
-1.20554
  0
LINE
  8
0
 10
-14.3472
 20
-1.20554
 11
-14.4804
 21
-1.09784
  0
LINE
  8
0
 10
-14.4804
 20
-1.09784
 11
-14.5124
 21
-1.07396
  0
LINE
  8
0
 10
-14.5124
 20
-1.07396
 11
-14.6585
 21
-0.973984
  0
LINE
  8
0
 10
-14.6585
 20
-0.973984
 11
-14.6901
 21
-0.954071
  0
LINE
  8
0
 10
-14.6901
 20
-0.954071
 11
-14.8491
 21
-0.861832
  0
LINE
  8
0
 10
-14.8491
 20
-0.861832
 11
-14.8795
 21
-0.845596
  0
LINE
  8
0
 10
-14.8795
 20
-0.845596
 11
-15.0515
 21
-0.761093
  0
LINE
  8
0
 10
-15.0515
 20
-0.761093
 11
-15.0802
 21
-0.748062
  0
LINE
  8
0
 10
-15.0802
 20
-0.748062
 11
-15.2652
 21
-0.67128
  0
LINE
  8
0
 10
-15.2652
 20
-0.67128
 11
-15.2794
 21
-0.665619
  0
LINE
  8
0
 10
-15.2794
 20
-0.665619
 11
-16.5532
 21
-0.182053
  0
LINE
  8
0
 10
-16.5532
 20
-0.182053
 11
-17.0743
 21
0.0278625
  0
LINE
  8
0
 10
-17.0743
 20
0.0278625
 11
-17.5377
 21
0.237427
  0
LINE
  8
0
 10
-17.5377
 20
0.237427
 11
-17.9453
 21
0.446732
  0
LINE
  8
0
 10
-17.9453
 20
0.446732
 11
-18.2973
 21
0.654953
  0
LINE
  8
0
 10
-18.2973
 20
0.654953
 11
-18.5925
 21
0.859863
  0
LINE
  8
0
 10
-18.5925
 20
0.859863
 11
-18.8309
 21
1.05904
  0
LINE
  8
0
 10
-18.8309
 20
1.05904
 11
-19.0154
 21
1.25121
  0
LINE
  8
0
 10
-19.0154
 20
1.25121
 11
-19.1641
 21
1.4502
  0
LINE
  8
0
 10
-19.1641
 20
1.4502
 11
-19.2914
 21
1.67064
  0
LINE
  8
0
 10
-19.2914
 20
1.67064
 11
-19.3974
 21
1.914
  0
LINE
  8
0
 10
-19.3974
 20
1.914
 11
-19.4816
 21
2.18222
  0
LINE
  8
0
 10
-19.4816
 20
2.18222
 11
-19.543
 21
2.47658
  0
LINE
  8
0
 10
-19.543
 20
2.47658
 11
-19.5807
 21
2.79803
  0
LINE
  8
0
 10
-19.5807
 20
2.79803
 11
-19.5934
 21
3.14375
  0
LINE
  8
0
 10
-19.5934
 20
3.14375
 11
-19.5723
 21
3.59332
  0
LINE
  8
0
 10
-19.5723
 20
3.59332
 11
-19.5102
 21
4.00456
  0
LINE
  8
0
 10
-19.5102
 20
4.00456
 11
-19.4087
 21
4.38075
  0
LINE
  8
0
 10
-19.4087
 20
4.38075
 11
-19.2689
 21
4.72417
  0
LINE
  8
0
 10
-19.2689
 20
4.72417
 11
-19.0907
 21
5.03807
  0
LINE
  8
0
 10
-19.0907
 20
5.03807
 11
-18.8732
 21
5.32501
  0
LINE
  8
0
 10
-18.8732
 20
5.32501
 11
-18.614
 21
5.58769
  0
LINE
  8
0
 10
-18.614
 20
5.58769
 11
-18.3179
 21
5.8208
  0
LINE
  8
0
 10
-18.3179
 20
5.8208
 11
-17.9897
 21
6.01939
  0
LINE
  8
0
 10
-17.9897
 20
6.01939
 11
-17.6274
 21
6.18364
  0
LINE
  8
0
 10
-17.6274
 20
6.18364
 11
-17.2286
 21
6.31337
  0
LINE
  8
0
 10
-17.2286
 20
6.31337
 11
-16.7916
 21
6.40756
  0
LINE
  8
0
 10
-16.7916
 20
6.40756
 11
-16.3156
 21
6.465
  0
LINE
  8
0
 10
-16.3156
 20
6.465
 11
-15.7953
 21
6.4846
  0
LINE
  8
0
 10
-15.7953
 20
6.4846
 11
-15.5576
 21
6.48071
  0
LINE
  8
0
 10
-15.5576
 20
6.48071
 11
-15.3144
 21
6.46877
  0
LINE
  8
0
 10
-15.3144
 20
6.46877
 11
-15.0711
 21
6.44885
  0
LINE
  8
0
 10
-15.0711
 20
6.44885
 11
-14.828
 21
6.42099
  0
LINE
  8
0
 10
-14.828
 20
6.42099
 11
-14.5841
 21
6.38504
  0
LINE
  8
0
 10
-14.5841
 20
6.38504
 11
-14.3405
 21
6.34119
  0
LINE
  8
0
 10
-14.3405
 20
6.34119
 11
-14.0961
 21
6.28914
  0
LINE
  8
0
 10
-14.0961
 20
6.28914
 11
-13.8523
 21
6.22937
  0
LINE
  8
0
 10
-13.8523
 20
6.22937
 11
-13.6079
 21
6.16158
  0
LINE
  8
0
 10
-13.6079
 20
6.16158
 11
-13.3643
 21
6.08612
  0
LINE
  8
0
 10
-13.3643
 20
6.08612
 11
-13.1217
 21
6.00307
  0
LINE
  8
0
 10
-13.1217
 20
6.00307
 11
-12.8784
 21
5.91187
  0
LINE
  8
0
 10
-12.8784
 20
5.91187
 11
-12.6862
 21
5.83347
  0
LINE
  8
0
 10
-12.6862
 20
5.83347
 11
-12.6862
 21
4.52524
  0
LINE
  8
0
 10
-12.6862
 20
4.52524
 11
-12.9186
 21
4.64789
  0
LINE
  8
0
 10
-12.9186
 20
4.64789
 11
-12.9362
 21
4.65675
  0
LINE
  8
0
 10
-12.9362
 20
4.65675
 11
-13.1804
 21
4.77356
  0
LINE
  8
0
 10
-13.1804
 20
4.77356
 11
-13.1988
 21
4.78195
  0
LINE
  8
0
 10
-13.1988
 20
4.78195
 11
-13.4441
 21
4.88727
  0
LINE
  8
0
 10
-13.4441
 20
4.88727
 11
-13.4634
 21
4.8951
  0
LINE
  8
0
 10
-13.4634
 20
4.8951
 11
-13.7097
 21
4.98891
  0
LINE
  8
0
 10
-13.7097
 20
4.98891
 11
-13.7302
 21
4.99622
  0
LINE
  8
0
 10
-13.7302
 20
4.99622
 11
-13.9767
 21
5.07799
  0
LINE
  8
0
 10
-13.9767
 20
5.07799
 11
-13.9986
 21
5.0847
  0
LINE
  8
0
 10
-13.9986
 20
5.0847
 11
-14.2444
 21
5.1539
  0
LINE
  8
0
 10
-14.2444
 20
5.1539
 11
-14.2673
 21
5.15979
  0
LINE
  8
0
 10
-14.2673
 20
5.15979
 11
-14.5124
 21
5.2164
  0
LINE
  8
0
 10
-14.5124
 20
5.2164
 11
-14.5362
 21
5.2213
  0
LINE
  8
0
 10
-14.5362
 20
5.2213
 11
-14.7805
 21
5.26534
  0
LINE
  8
0
 10
-14.7805
 20
5.26534
 11
-14.8052
 21
5.26915
  0
LINE
  8
0
 10
-14.8052
 20
5.26915
 11
-15.0488
 21
5.3006
  0
LINE
  8
0
 10
-15.0488
 20
5.3006
 11
-15.0741
 21
5.30321
  0
LINE
  8
0
 10
-15.0741
 20
5.30321
 11
-15.3169
 21
5.32208
  0
LINE
  8
0
 10
-15.3169
 20
5.32208
 11
-15.3427
 21
5.32343
  0
LINE
  8
0
 10
-15.3427
 20
5.32343
 11
-15.5849
 21
5.32971
  0
LINE
  8
0
 10
-15.5849
 20
5.32971
 11
-15.6127
 21
5.32967
  0
LINE
  8
0
 10
-15.6127
 20
5.32967
 11
-15.8732
 21
5.32193
  0
LINE
  8
0
 10
-15.8732
 20
5.32193
 11
-15.906
 21
5.31987
  0
LINE
  8
0
 10
-15.906
 20
5.31987
 11
-16.1485
 21
5.29665
  0
LINE
  8
0
 10
-16.1485
 20
5.29665
 11
-16.1858
 21
5.29166
  0
LINE
  8
0
 10
-16.1858
 20
5.29166
 11
-16.4103
 21
5.25298
  0
LINE
  8
0
 10
-16.4103
 20
5.25298
 11
-16.4523
 21
5.24388
  0
LINE
  8
0
 10
-16.4523
 20
5.24388
 11
-16.6588
 21
5.1897
  0
LINE
  8
0
 10
-16.6588
 20
5.1897
 11
-16.7052
 21
5.17509
  0
LINE
  8
0
 10
-16.7052
 20
5.17509
 11
-16.8938
 21
5.10545
  0
LINE
  8
0
 10
-16.8938
 20
5.10545
 11
-16.9438
 21
5.0838
  0
LINE
  8
0
 10
-16.9438
 20
5.0838
 11
-17.1144
 21
4.99867
  0
LINE
  8
0
 10
-17.1144
 20
4.99867
 11
-17.1664
 21
4.9687
  0
LINE
  8
0
 10
-17.1664
 20
4.9687
 11
-17.319
 21
4.86809
  0
LINE
  8
0
 10
-17.319
 20
4.86809
 11
-17.3702
 21
4.82932
  0
LINE
  8
0
 10
-17.3702
 20
4.82932
 11
-17.5035
 21
4.71436
  0
LINE
  8
0
 10
-17.5035
 20
4.71436
 11
-17.5525
 21
4.66585
  0
LINE
  8
0
 10
-17.5525
 20
4.66585
 11
-17.6653
 21
4.53755
  0
LINE
  8
0
 10
-17.6653
 20
4.53755
 11
-17.7087
 21
4.48041
  0
LINE
  8
0
 10
-17.7087
 20
4.48041
 11
-17.801
 21
4.33881
  0
LINE
  8
0
 10
-17.801
 20
4.33881
 11
-17.8358
 21
4.276
  0
LINE
  8
0
 10
-17.8358
 20
4.276
 11
-17.9075
 21
4.12108
  0
LINE
  8
0
 10
-17.9075
 20
4.12108
 11
-17.9321
 21
4.05664
  0
LINE
  8
0
 10
-17.9321
 20
4.05664
 11
-17.9834
 21
3.8884
  0
LINE
  8
0
 10
-17.9834
 20
3.8884
 11
-17.9981
 21
3.82617
  0
LINE
  8
0
 10
-17.9981
 20
3.82617
 11
-18.0289
 21
3.64462
  0
LINE
  8
0
 10
-18.0289
 20
3.64462
 11
-18.0352
 21
3.58737
  0
LINE
  8
0
 10
-18.0352
 20
3.58737
 11
-18.0455
 21
3.39249
  0
LINE
  8
0
 10
-18.0455
 20
3.39249
 11
-18.0455
 21
3.34175
  0
LINE
  8
0
 10
-18.0455
 20
3.34175
 11
-18.0381
 21
3.18941
  0
LINE
  8
0
 10
-18.0381
 20
3.18941
 11
-18.0328
 21
3.13734
  0
LINE
  8
0
 10
-18.0328
 20
3.13734
 11
-18.0104
 21
2.99272
  0
LINE
  8
0
 10
-18.0104
 20
2.99272
 11
-17.9987
 21
2.93768
  0
LINE
  8
0
 10
-17.9987
 20
2.93768
 11
-17.9613
 21
2.80083
  0
LINE
  8
0
 10
-17.9613
 20
2.80083
 11
-17.9424
 21
2.74481
  0
LINE
  8
0
 10
-17.9424
 20
2.74481
 11
-17.8902
 21
2.61568
  0
LINE
  8
0
 10
-17.8902
 20
2.61568
 11
-17.8641
 21
2.56108
  0
LINE
  8
0
 10
-17.8641
 20
2.56108
 11
-17.7969
 21
2.4397
  0
LINE
  8
0
 10
-17.7969
 20
2.4397
 11
-17.7648
 21
2.38902
  0
LINE
  8
0
 10
-17.7648
 20
2.38902
 11
-17.6826
 21
2.27538
  0
LINE
  8
0
 10
-17.6826
 20
2.27538
 11
-17.646
 21
2.23041
  0
LINE
  8
0
 10
-17.646
 20
2.23041
 11
-17.549
 21
2.12451
  0
LINE
  8
0
 10
-17.549
 20
2.12451
 11
-17.5057
 21
2.08267
  0
LINE
  8
0
 10
-17.5057
 20
2.08267
 11
-17.3849
 21
1.97914
  0
LINE
  8
0
 10
-17.3849
 20
1.97914
 11
-17.3449
 21
1.94823
  0
LINE
  8
0
 10
-17.3449
 20
1.94823
 11
-17.1915
 21
1.84163
  0
LINE
  8
0
 10
-17.1915
 20
1.84163
 11
-17.1602
 21
1.82153
  0
LINE
  8
0
 10
-17.1602
 20
1.82153
 11
-16.9742
 21
1.71187
  0
LINE
  8
0
 10
-16.9742
 20
1.71187
 11
-16.9495
 21
1.69818
  0
LINE
  8
0
 10
-16.9495
 20
1.69818
 11
-16.731
 21
1.58546
  0
LINE
  8
0
 10
-16.731
 20
1.58546
 11
-16.7112
 21
1.57579
  0
LINE
  8
0
 10
-16.7112
 20
1.57579
 11
-16.4601
 21
1.45999
  0
LINE
  8
0
 10
-16.4601
 20
1.45999
 11
-16.4439
 21
1.45288
  0
LINE
  8
0
 10
-16.4439
 20
1.45288
 11
-16.1603
 21
1.33401
  0
LINE
  8
0
 10
-16.1603
 20
1.33401
 11
-16.147
 21
1.32864
  0
LINE
  8
0
 10
-16.147
 20
1.32864
 11
-15.8308
 21
1.20671
  0
LINE
  8
0
 10
-15.8308
 20
1.20671
 11
-14.7123
 21
0.783478
  0
LINE
  8
0
 10
-14.7123
 20
0.783478
 11
-14.2942
 21
0.616745
  0
LINE
  8
0
 10
-14.2942
 20
0.616745
 11
-13.9214
 21
0.441071
  0
LINE
  8
0
 10
-13.9214
 20
0.441071
 11
-13.5846
 21
0.253479
  0
LINE
  8
0
 10
-13.5846
 20
0.253479
 11
-13.2841
 21
0.0549927
  0
LINE
  8
0
 10
-13.2841
 20
0.0549927
 11
-13.0189
 21
-0.153854
  0
LINE
  8
0
 10
-13.0189
 20
-0.153854
 11
-12.7881
 21
-0.372559
  0
LINE
  8
0
 10
-12.7881
 20
-0.372559
 11
-12.5901
 21
-0.601105
  0
LINE
  8
0
 10
-12.5901
 20
-0.601105
 11
-12.4215
 21
-0.842621
  0
LINE
  8
0
 10
-12.4215
 20
-0.842621
 11
-12.2785
 21
-1.10207
  0
LINE
  8
0
 10
-12.2785
 20
-1.10207
 11
-12.1608
 21
-1.38083
  0
LINE
  8
0
 10
-12.1608
 20
-1.38083
 11
-12.0681
 21
-1.68089
  0
LINE
  8
0
 10
-12.0681
 20
-1.68089
 11
-12.0009
 21
-2.00319
  0
LINE
  8
0
 10
-12.0009
 20
-2.00319
 11
-11.9599
 21
-2.34888
  0
LINE
  8
0
 10
-11.9599
 20
-2.34888
 11
-11.9462
 21
-2.71626
  0
LINE
  8
0
 10
-11.9462
 20
-2.71626
 11
-11.9682
 21
-3.22044
  0
LINE
  8
0
 10
-11.9682
 20
-3.22044
 11
-12.033
 21
-3.67635
  0
LINE
  8
0
 10
-12.033
 20
-3.67635
 11
-12.1384
 21
-4.0856
  0
LINE
  8
0
 10
-12.1384
 20
-4.0856
 11
-12.2825
 21
-4.44992
  0
LINE
  8
0
 10
-12.2825
 20
-4.44992
 11
-12.4642
 21
-4.77266
  0
LINE
  8
0
 10
-12.4642
 20
-4.77266
 11
-12.6841
 21
-5.05794
  0
LINE
  8
0
 10
-12.6841
 20
-5.05794
 11
-12.9443
 21
-5.30916
  0
LINE
  8
0
 10
-12.9443
 20
-5.30916
 11
-13.2496
 21
-5.5298
  0
LINE
  8
0
 10
-13.2496
 20
-5.5298
 11
-13.6042
 21
-5.7207
  0
LINE
  8
0
 10
-13.6042
 20
-5.7207
 11
-14.0111
 21
-5.88077
  0
LINE
  8
0
 10
-14.0111
 20
-5.88077
 11
-14.4716
 21
-6.00804
  0
LINE
  8
0
 10
-14.4716
 20
-6.00804
 11
-14.9869
 21
-6.1008
  0
LINE
  8
0
 10
-14.9869
 20
-6.1008
 11
-15.5566
 21
-6.15735
  0
LINE
  8
0
 10
-15.5566
 20
-6.15735
 11
-16.1833
 21
-6.17653
  0
LINE
  8
0
 10
-16.1833
 20
-6.17653
 11
-16.4421
 21
-6.17213
  0
LINE
  8
0
 10
-0.93602
 20
6.74348
 11
-9.13448
 21
6.74348
  0
LINE
  8
0
 10
-9.13448
 20
6.74348
 11
-9.13448
 21
-6.41875
  0
LINE
  8
0
 10
-9.13448
 20
-6.41875
 11
-0.93602
 21
-6.41875
  0
LINE
  8
0
 10
-0.93602
 20
-6.41875
 11
-0.93602
 21
-4.13074
  0
LINE
  8
0
 10
-0.93602
 20
-4.13074
 11
-6.53395
 21
-4.13074
  0
LINE
  8
0
 10
-6.53395
 20
-4.13074
 11
-6.53395
 21
-0.677948
  0
LINE
  8
0
 10
-6.53395
 20
-0.677948
 11
-1.465
 21
-0.677948
  0
LINE
  8
0
 10
-1.465
 20
-0.677948
 11
-1.465
 21
1.61005
  0
LINE
  8
0
 10
-1.465
 20
1.61005
 11
-6.53395
 21
1.61005
  0
LINE
  8
0
 10
-6.53395
 20
1.61005
 11
-6.53395
 21
4.45547
  0
LINE
  8
0
 10
-6.53395
 20
4.45547
 11
-0.93602
 21
4.45547
  0
LINE
  8
0
 10
-0.93602
 20
4.45547
 11
-0.93602
 21
6.74348
  0
LINE
  8
0
 10
-7.0251
 20
1.51636
 11
-7.00948
 21
1.45554
  0
LINE
  8
0
 10
-7.00948
 20
1.45554
 11
-6.98636
 21
1.39716
  0
LINE
  8
0
 10
-6.98636
 20
1.39716
 11
-6.95612
 21
1.34213
  0
LINE
  8
0
 10
-6.95612
 20
1.34213
 11
-6.9192
 21
1.29134
  0
LINE
  8
0
 10
-6.9192
 20
1.29134
 11
-6.87622
 21
1.24556
  0
LINE
  8
0
 10
-6.87622
 20
1.24556
 11
-6.82785
 21
1.20554
  0
LINE
  8
0
 10
-6.82785
 20
1.20554
 11
-6.77483
 21
1.17189
  0
LINE
  8
0
 10
-6.77483
 20
1.17189
 11
-6.71802
 21
1.14516
  0
LINE
  8
0
 10
-6.71802
 20
1.14516
 11
-6.65829
 21
1.12575
  0
LINE
  8
0
 10
-6.65829
 20
1.12575
 11
-6.59662
 21
1.11398
  0
LINE
  8
0
 10
-6.59662
 20
1.11398
 11
-6.53395
 21
1.11005
  0
LINE
  8
0
 10
-6.53395
 20
1.11005
 11
-1.965
 21
1.11005
  0
LINE
  8
0
 10
-1.965
 20
1.11005
 11
-1.965
 21
-0.177948
  0
LINE
  8
0
 10
-1.965
 20
-0.177948
 11
-6.53395
 21
-0.177948
  0
LINE
  8
0
 10
-6.53395
 20
-0.177948
 11
-6.62764
 21
-0.186798
  0
LINE
  8
0
 10
-6.62764
 20
-0.186798
 11
-6.68846
 21
-0.202423
  0
LINE
  8
0
 10
-6.68846
 20
-0.202423
 11
-6.74684
 21
-0.22554
  0
LINE
  8
0
 10
-6.74684
 20
-0.22554
 11
-6.80186
 21
-0.255783
  0
LINE
  8
0
 10
-6.80186
 20
-0.255783
 11
-6.85266
 21
-0.292694
  0
LINE
  8
0
 10
-6.85266
 20
-0.292694
 11
-6.89844
 21
-0.335678
  0
LINE
  8
0
 10
-6.89844
 20
-0.335678
 11
-6.93846
 21
-0.384048
  0
LINE
  8
0
 10
-6.93846
 20
-0.384048
 11
-6.97211
 21
-0.437073
  0
LINE
  8
0
 10
-6.97211
 20
-0.437073
 11
-6.99884
 21
-0.493881
  0
LINE
  8
0
 10
-6.99884
 20
-0.493881
 11
-7.01825
 21
-0.553604
  0
LINE
  8
0
 10
-7.01825
 20
-0.553604
 11
-7.03001
 21
-0.61528
  0
LINE
  8
0
 10
-7.03001
 20
-0.61528
 11
-7.03395
 21
-0.677948
  0
LINE
  8
0
 10
-7.03395
 20
-0.677948
 11
-7.03395
 21
-4.13074
  0
LINE
  8
0
 10
-7.03395
 20
-4.13074
 11
-7.0251
 21
-4.22443
  0
LINE
  8
0
 10
-7.0251
 20
-4.22443
 11
-7.00948
 21
-4.28525
  0
LINE
  8
0
 10
-7.00948
 20
-4.28525
 11
-6.98636
 21
-4.34363
  0
LINE
  8
0
 10
-6.98636
 20
-4.34363
 11
-6.95612
 21
-4.39865
  0
LINE
  8
0
 10
-6.95612
 20
-4.39865
 11
-6.9192
 21
-4.44945
  0
LINE
  8
0
 10
-6.9192
 20
-4.44945
 11
-6.87622
 21
-4.49522
  0
LINE
  8
0
 10
-6.87622
 20
-4.49522
 11
-6.82785
 21
-4.53525
  0
LINE
  8
0
 10
-6.82785
 20
-4.53525
 11
-6.77483
 21
-4.56889
  0
LINE
  8
0
 10
-6.77483
 20
-4.56889
 11
-6.71802
 21
-4.59563
  0
LINE
  8
0
 10
-6.71802
 20
-4.59563
 11
-6.65829
 21
-4.61504
  0
LINE
  8
0
 10
-6.65829
 20
-4.61504
 11
-6.59662
 21
-4.6268
  0
LINE
  8
0
 10
-6.59662
 20
-4.6268
 11
-6.53395
 21
-4.63074
  0
LINE
  8
0
 10
-6.53395
 20
-4.63074
 11
-1.43602
 21
-4.63074
  0
LINE
  8
0
 10
-1.43602
 20
-4.63074
 11
-1.43602
 21
-5.91875
  0
LINE
  8
0
 10
-1.43602
 20
-5.91875
 11
-8.63448
 21
-5.91875
  0
LINE
  8
0
 10
-8.63448
 20
-5.91875
 11
-8.63448
 21
6.24348
  0
LINE
  8
0
 10
-8.63448
 20
6.24348
 11
-1.43602
 21
6.24348
  0
LINE
  8
0
 10
-1.43602
 20
6.24348
 11
-1.43602
 21
4.95547
  0
LINE
  8
0
 10
-1.43602
 20
4.95547
 11
-6.53395
 21
4.95547
  0
LINE
  8
0
 10
-6.53395
 20
4.95547
 11
-6.62764
 21
4.94662
  0
LINE
  8
0
 10
-6.62764
 20
4.94662
 11
-6.68846
 21
4.931
  0
LINE
  8
0
 10
-6.68846
 20
4.931
 11
-6.74684
 21
4.90788
  0
LINE
  8
0
 10
-6.74684
 20
4.90788
 11
-6.80186
 21
4.87764
  0
LINE
  8
0
 10
-6.80186
 20
4.87764
 11
-6.85266
 21
4.84073
  0
LINE
  8
0
 10
-6.85266
 20
4.84073
 11
-6.89844
 21
4.79774
  0
LINE
  8
0
 10
-6.89844
 20
4.79774
 11
-6.93846
 21
4.74937
  0
LINE
  8
0
 10
-6.93846
 20
4.74937
 11
-6.97211
 21
4.69635
  0
LINE
  8
0
 10
-6.97211
 20
4.69635
 11
-6.99884
 21
4.63954
  0
LINE
  8
0
 10
-6.99884
 20
4.63954
 11
-7.01825
 21
4.57982
  0
LINE
  8
0
 10
-7.01825
 20
4.57982
 11
-7.03001
 21
4.51814
  0
LINE
  8
0
 10
-7.03001
 20
4.51814
 11
-7.03395
 21
4.45547
  0
LINE
  8
0
 10
-7.03395
 20
4.45547
 11
-7.03395
 21
1.61005
  0
LINE
  8
0
 10
-7.03395
 20
1.61005
 11
-7.0251
 21
1.51636
  0
LINE
  8
0
 10
3.68497
 20
-3.16562
 11
7.16714
 21
-3.16562
  0
LINE
  8
0
 10
7.16714
 20
-3.16562
 11
7.97809
 21
-6.41875
  0
LINE
  8
0
 10
7.97809
 20
-6.41875
 11
10.5787
 21
-6.41875
  0
LINE
  8
0
 10
10.5787
 20
-6.41875
 11
7.02611
 21
6.74348
  0
LINE
  8
0
 10
7.02611
 20
6.74348
 11
3.84357
 21
6.74348
  0
LINE
  8
0
 10
3.84357
 20
6.74348
 11
0.290939
 21
-6.41875
  0
LINE
  8
0
 10
0.290939
 20
-6.41875
 11
2.89159
 21
-6.41875
  0
LINE
  8
0
 10
2.89159
 20
-6.41875
 11
3.68497
 21
-3.16562
  0
LINE
  8
0
 10
0.943787
 20
-5.91875
 11
4.2265
 21
6.24348
  0
LINE
  8
0
 10
4.2265
 20
6.24348
 11
6.64317
 21
6.24348
  0
LINE
  8
0
 10
6.64317
 20
6.24348
 11
9.92589
 21
-5.91875
  0
LINE
  8
0
 10
9.92589
 20
-5.91875
 11
8.36874
 21
-5.91875
  0
LINE
  8
0
 10
8.36874
 20
-5.91875
 11
7.6523
 21
-3.04468
  0
LINE
  8
0
 10
7.6523
 20
-3.04468
 11
7.64267
 21
-3.01111
  0
LINE
  8
0
 10
7.64267
 20
-3.01111
 11
7.61955
 21
-2.95273
  0
LINE
  8
0
 10
7.61955
 20
-2.95273
 11
7.58931
 21
-2.89771
  0
LINE
  8
0
 10
7.58931
 20
-2.89771
 11
7.5524
 21
-2.84691
  0
LINE
  8
0
 10
7.5524
 20
-2.84691
 11
7.50941
 21
-2.80113
  0
LINE
  8
0
 10
7.50941
 20
-2.80113
 11
7.46104
 21
-2.76111
  0
LINE
  8
0
 10
7.46104
 20
-2.76111
 11
7.40802
 21
-2.72746
  0
LINE
  8
0
 10
7.40802
 20
-2.72746
 11
7.35121
 21
-2.70073
  0
LINE
  8
0
 10
7.35121
 20
-2.70073
 11
7.29149
 21
-2.68132
  0
LINE
  8
0
 10
7.29149
 20
-2.68132
 11
7.22981
 21
-2.66956
  0
LINE
  8
0
 10
7.22981
 20
-2.66956
 11
7.16714
 21
-2.66562
  0
LINE
  8
0
 10
7.16714
 20
-2.66562
 11
3.68497
 21
-2.66562
  0
LINE
  8
0
 10
3.68497
 20
-2.66562
 11
3.64752
 21
-2.66702
  0
LINE
  8
0
 10
3.64752
 20
-2.66702
 11
3.58533
 21
-2.67564
  0
LINE
  8
0
 10
3.58533
 20
-2.67564
 11
3.5247
 21
-2.692
  0
LINE
  8
0
 10
3.5247
 20
-2.692
 11
3.46661
 21
-2.71582
  0
LINE
  8
0
 10
3.46661
 20
-2.71582
 11
3.41196
 21
-2.74673
  0
LINE
  8
0
 10
3.41196
 20
-2.74673
 11
3.36162
 21
-2.78426
  0
LINE
  8
0
 10
3.36162
 20
-2.78426
 11
3.31636
 21
-2.82779
  0
LINE
  8
0
 10
3.31636
 20
-2.82779
 11
3.27693
 21
-2.87665
  0
LINE
  8
0
 10
3.27693
 20
-2.87665
 11
3.24393
 21
-2.93007
  0
LINE
  8
0
 10
3.24393
 20
-2.93007
 11
3.21788
 21
-2.9872
  0
LINE
  8
0
 10
3.21788
 20
-2.9872
 11
3.1992
 21
-3.04715
  0
LINE
  8
0
 10
3.1992
 20
-3.04715
 11
2.49887
 21
-5.91875
  0
LINE
  8
0
 10
2.49887
 20
-5.91875
 11
0.943787
 21
-5.91875
  0
LINE
  8
0
 10
6.74535
 20
-1.52081
 11
6.80655
 21
-1.50681
  0
LINE
  8
0
 10
6.80655
 20
-1.50681
 11
6.86552
 21
-1.48523
  0
LINE
  8
0
 10
6.86552
 20
-1.48523
 11
6.92133
 21
-1.45644
  0
LINE
  8
0
 10
6.92133
 20
-1.45644
 11
6.97307
 21
-1.42087
  0
LINE
  8
0
 10
6.97307
 20
-1.42087
 11
7.01996
 21
-1.3791
  0
LINE
  8
0
 10
7.01996
 20
-1.3791
 11
7.06123
 21
-1.33179
  0
LINE
  8
0
 10
7.06123
 20
-1.33179
 11
7.09625
 21
-1.27966
  0
LINE
  8
0
 10
7.09625
 20
-1.27966
 11
7.12447
 21
-1.22357
  0
LINE
  8
0
 10
7.12447
 20
-1.22357
 11
7.14543
 21
-1.16438
  0
LINE
  8
0
 10
7.14543
 20
-1.16438
 11
7.15881
 21
-1.10304
  0
LINE
  8
0
 10
7.15881
 20
-1.10304
 11
7.1644
 21
-1.0405
  0
LINE
  8
0
 10
7.1644
 20
-1.0405
 11
7.16209
 21
-0.977753
  0
LINE
  8
0
 10
7.16209
 20
-0.977753
 11
7.15195
 21
-0.915787
  0
LINE
  8
0
 10
7.15195
 20
-0.915787
 11
5.91786
 21
4.47348
  0
LINE
  8
0
 10
5.91786
 20
4.47348
 11
5.89008
 21
4.55878
  0
LINE
  8
0
 10
5.89008
 20
4.55878
 11
5.86179
 21
4.61482
  0
LINE
  8
0
 10
5.86179
 20
4.61482
 11
5.82668
 21
4.66689
  0
LINE
  8
0
 10
5.82668
 20
4.66689
 11
5.78532
 21
4.71414
  0
LINE
  8
0
 10
5.78532
 20
4.71414
 11
5.73837
 21
4.75583
  0
LINE
  8
0
 10
5.73837
 20
4.75583
 11
5.68657
 21
4.79132
  0
LINE
  8
0
 10
5.68657
 20
4.79132
 11
5.63074
 21
4.82002
  0
LINE
  8
0
 10
5.63074
 20
4.82002
 11
5.57173
 21
4.84151
  0
LINE
  8
0
 10
5.57173
 20
4.84151
 11
5.5105
 21
4.85544
  0
LINE
  8
0
 10
5.5105
 20
4.85544
 11
5.44801
 21
4.86157
  0
LINE
  8
0
 10
5.44801
 20
4.86157
 11
5.38525
 21
4.85983
  0
LINE
  8
0
 10
5.38525
 20
4.85983
 11
5.3232
 21
4.85023
  0
LINE
  8
0
 10
5.3232
 20
4.85023
 11
5.26283
 21
4.83293
  0
LINE
  8
0
 10
5.26283
 20
4.83293
 11
5.20512
 21
4.80821
  0
LINE
  8
0
 10
5.20512
 20
4.80821
 11
5.15096
 21
4.77644
  0
LINE
  8
0
 10
5.15096
 20
4.77644
 11
5.1012
 21
4.73814
  0
LINE
  8
0
 10
5.1012
 20
4.73814
 11
5.05664
 21
4.69391
  0
LINE
  8
0
 10
5.05664
 20
4.69391
 11
5.01797
 21
4.64442
  0
LINE
  8
0
 10
5.01797
 20
4.64442
 11
4.98581
 21
4.5905
  0
LINE
  8
0
 10
4.98581
 20
4.5905
 11
4.96066
 21
4.53297
  0
LINE
  8
0
 10
4.96066
 20
4.53297
 11
4.94293
 21
4.47273
  0
LINE
  8
0
 10
4.94293
 20
4.47273
 11
3.71756
 21
-0.916534
  0
LINE
  8
0
 10
3.71756
 20
-0.916534
 11
3.7061
 21
-0.995987
  0
LINE
  8
0
 10
3.7061
 20
-0.995987
 11
3.7061
 21
-1.05879
  0
LINE
  8
0
 10
3.7061
 20
-1.05879
 11
3.71396
 21
-1.12108
  0
LINE
  8
0
 10
3.71396
 20
-1.12108
 11
3.72958
 21
-1.1819
  0
LINE
  8
0
 10
3.72958
 20
-1.1819
 11
3.7527
 21
-1.24028
  0
LINE
  8
0
 10
3.7527
 20
-1.24028
 11
3.78294
 21
-1.2953
  0
LINE
  8
0
 10
3.78294
 20
-1.2953
 11
3.81985
 21
-1.3461
  0
LINE
  8
0
 10
3.81985
 20
-1.3461
 11
3.86284
 21
-1.39188
  0
LINE
  8
0
 10
3.86284
 20
-1.39188
 11
3.91121
 21
-1.4319
  0
LINE
  8
0
 10
3.91121
 20
-1.4319
 11
3.96423
 21
-1.46555
  0
LINE
  8
0
 10
3.96423
 20
-1.46555
 11
4.02104
 21
-1.49228
  0
LINE
  8
0
 10
4.02104
 20
-1.49228
 11
4.08076
 21
-1.51169
  0
LINE
  8
0
 10
4.08076
 20
-1.51169
 11
4.14244
 21
-1.52345
  0
LINE
  8
0
 10
4.14244
 20
-1.52345
 11
4.20511
 21
-1.52739
  0
LINE
  8
0
 10
4.20511
 20
-1.52739
 11
6.66457
 21
-1.52739
  0
LINE
  8
0
 10
6.66457
 20
-1.52739
 11
6.74535
 21
-1.52081
  0
LINE
  8
0
 10
4.20511
 20
-1.02739
 11
5.43048
 21
4.36188
  0
LINE
  8
0
 10
5.43048
 20
4.36188
 11
6.66457
 21
-1.02739
  0
LINE
  8
0
 10
6.66457
 20
-1.02739
 11
4.20511
 21
-1.02739
  0
LINE
  8
0
 10
13.9567
 20
3.14651
 11
17.6417
 21
-6.41875
  0
LINE
  8
0
 10
17.6417
 20
-6.41875
 11
20.4186
 21
-6.41875
  0
LINE
  8
0
 10
20.4186
 20
-6.41875
 11
20.4186
 21
6.74348
  0
LINE
  8
0
 10
20.4186
 20
6.74348
 11
18.1264
 21
6.74348
  0
LINE
  8
0
 10
18.1264
 20
6.74348
 11
18.1264
 21
-2.82178
  0
LINE
  8
0
 10
18.1264
 20
-2.82178
 11
14.4591
 21
6.74348
  0
LINE
  8
0
 10
14.4591
 20
6.74348
 11
11.6647
 21
6.74348
  0
LINE
  8
0
 10
11.6647
 20
6.74348
 11
11.6647
 21
-6.41875
  0
LINE
  8
0
 10
11.6647
 20
-6.41875
 11
13.9567
 21
-6.41875
  0
LINE
  8
0
 10
13.9567
 20
-6.41875
 11
13.9567
 21
3.14651
  0
LINE
  8
0
 10
12.1647
 20
-5.91875
 11
12.1647
 21
6.24348
  0
LINE
  8
0
 10
12.1647
 20
6.24348
 11
14.1154
 21
6.24348
  0
LINE
  8
0
 10
14.1154
 20
6.24348
 11
17.6596
 21
-3.00078
  0
LINE
  8
0
 10
17.6596
 20
-3.00078
 11
17.6883
 21
-3.06265
  0
LINE
  8
0
 10
17.6883
 20
-3.06265
 11
17.7219
 21
-3.11568
  0
LINE
  8
0
 10
17.7219
 20
-3.11568
 11
17.7619
 21
-3.16405
  0
LINE
  8
0
 10
17.7619
 20
-3.16405
 11
17.8077
 21
-3.20703
  0
LINE
  8
0
 10
17.8077
 20
-3.20703
 11
17.8585
 21
-3.24394
  0
LINE
  8
0
 10
17.8585
 20
-3.24394
 11
17.9135
 21
-3.27419
  0
LINE
  8
0
 10
17.9135
 20
-3.27419
 11
17.9719
 21
-3.2973
  0
LINE
  8
0
 10
17.9719
 20
-3.2973
 11
18.0327
 21
-3.31293
  0
LINE
  8
0
 10
18.0327
 20
-3.31293
 11
18.095
 21
-3.32079
  0
LINE
  8
0
 10
18.095
 20
-3.32079
 11
18.1578
 21
-3.32079
  0
LINE
  8
0
 10
18.1578
 20
-3.32079
 11
18.2201
 21
-3.31293
  0
LINE
  8
0
 10
18.2201
 20
-3.31293
 11
18.2809
 21
-3.2973
  0
LINE
  8
0
 10
18.2809
 20
-3.2973
 11
18.3393
 21
-3.27419
  0
LINE
  8
0
 10
18.3393
 20
-3.27419
 11
18.3943
 21
-3.24394
  0
LINE
  8
0
 10
18.3943
 20
-3.24394
 11
18.4451
 21
-3.20703
  0
LINE
  8
0
 10
18.4451
 20
-3.20703
 11
18.4909
 21
-3.16405
  0
LINE
  8
0
 10
18.4909
 20
-3.16405
 11
18.5309
 21
-3.11568
  0
LINE
  8
0
 10
18.5309
 20
-3.11568
 11
18.5646
 21
-3.06265
  0
LINE
  8
0
 10
18.5646
 20
-3.06265
 11
18.5913
 21
-3.00584
  0
LINE
  8
0
 10
18.5913
 20
-3.00584
 11
18.6107
 21
-2.94612
  0
LINE
  8
0
 10
18.6107
 20
-2.94612
 11
18.6225
 21
-2.88445
  0
LINE
  8
0
 10
18.6225
 20
-2.88445
 11
18.6264
 21
-2.82178
  0
LINE
  8
0
 10
18.6264
 20
-2.82178
 11
18.6264
 21
6.24348
  0
LINE
  8
0
 10
18.6264
 20
6.24348
 11
19.9186
 21
6.24348
  0
LINE
  8
0
 10
19.9186
 20
6.24348
 11
19.9186
 21
-5.91875
  0
LINE
  8
0
 10
19.9186
 20
-5.91875
 11
17.9848
 21
-5.91875
  0
LINE
  8
0
 10
17.9848
 20
-5.91875
 11
14.4233
 21
3.32626
  0
LINE
  8
0
 10
14.4233
 20
3.32626
 11
14.3949
 21
3.38739
  0
LINE
  8
0
 10
14.3949
 20
3.38739
 11
14.3612
 21
3.44041
  0
LINE
  8
0
 10
14.3612
 20
3.44041
 11
14.3212
 21
3.48878
  0
LINE
  8
0
 10
14.3212
 20
3.48878
 11
14.2754
 21
3.53177
  0
LINE
  8
0
 10
14.2754
 20
3.53177
 11
14.2246
 21
3.56868
  0
LINE
  8
0
 10
14.2246
 20
3.56868
 11
14.1696
 21
3.59892
  0
LINE
  8
0
 10
14.1696
 20
3.59892
 11
14.1112
 21
3.62204
  0
LINE
  8
0
 10
14.1112
 20
3.62204
 11
14.0504
 21
3.63766
  0
LINE
  8
0
 10
14.0504
 20
3.63766
 11
13.9881
 21
3.64552
  0
LINE
  8
0
 10
13.9881
 20
3.64552
 11
13.9253
 21
3.64552
  0
LINE
  8
0
 10
13.9253
 20
3.64552
 11
13.863
 21
3.63766
  0
LINE
  8
0
 10
13.863
 20
3.63766
 11
13.8022
 21
3.62204
  0
LINE
  8
0
 10
13.8022
 20
3.62204
 11
13.7438
 21
3.59892
  0
LINE
  8
0
 10
13.7438
 20
3.59892
 11
13.6888
 21
3.56868
  0
LINE
  8
0
 10
13.6888
 20
3.56868
 11
13.638
 21
3.53177
  0
LINE
  8
0
 10
13.638
 20
3.53177
 11
13.5922
 21
3.48878
  0
LINE
  8
0
 10
13.5922
 20
3.48878
 11
13.5522
 21
3.44041
  0
LINE
  8
0
 10
13.5522
 20
3.44041
 11
13.5185
 21
3.38739
  0
LINE
  8
0
 10
13.5185
 20
3.38739
 11
13.4918
 21
3.33058
  0
LINE
  8
0
 10
13.4918
 20
3.33058
 11
13.4724
 21
3.27086
  0
LINE
  8
0
 10
13.4724
 20
3.27086
 11
13.4606
 21
3.20918
  0
LINE
  8
0
 10
13.4606
 20
3.20918
 11
13.4567
 21
3.14651
  0
LINE
  8
0
 10
13.4567
 20
3.14651
 11
13.4567
 21
-5.91875
  0
LINE
  8
0
 10
13.4567
 20
-5.91875
 11
12.1647
 21
-5.91875
  0
ENDSEC
  0
SECTION
  2
OBJECTS
  0
DICTIONARY
  0
ENDSEC
  0
EOF
