<?xml version="1.0" standalone="no"?>
<!DOCTYPE svg PUBLIC "-//W3C//DTD SVG 1.1//EN" "http://www.w3.org/Graphics/SVG/1.1/DTD/svg11.dtd">
<svg width="42mm" height="14mm" viewBox="-21 -7 42 14" xmlns="http://www.w3.org/2000/svg" version="1.1">
<title>OpenSCAD Model</title>
<path d="
M -15.5242,6.6566 L -14.9178,6.59641 L -14.3606,6.49609 L -13.8524,6.35567 L -13.3934,6.17509 L -12.9835,5.95441
 L -12.6227,5.6936 L -12.3104,5.39212 L -12.0462,5.04944 L -11.8301,4.66554 L -11.6619,4.24045 L -11.5418,3.77414
 L -11.4698,3.26662 L -11.4458,2.7179 L -11.4611,2.31 L -11.5069,1.92262 L -11.5834,1.55576 L -11.6904,1.2094
 L -11.8281,0.883545 L -11.9963,0.578217 L -12.1951,0.293396 L -12.4263,0.0265503 L -12.6916,-0.224823 L -12.9912,-0.460724
 L -13.3249,-0.681152 L -13.6928,-0.886093 L -14.0949,-1.07556 L -14.5312,-1.24956 L -15.6509,-1.67322 L -15.9671,-1.79515
 L -16.2507,-1.91402 L -16.5017,-2.02982 L -16.7202,-2.14253 L -16.9062,-2.2522 L -17.0595,-2.3588 L -17.1803,-2.46233
 L -17.2774,-2.56822 L -17.3595,-2.68187 L -17.4267,-2.80325 L -17.479,-2.93239 L -17.5163,-3.06924 L -17.5387,-3.21387
 L -17.5461,-3.36621 L -17.5359,-3.5611 L -17.5051,-3.74265 L -17.4539,-3.91089 L -17.3821,-4.06581 L -17.2898,-4.20741
 L -17.177,-4.33571 L -17.0437,-4.45067 L -16.8911,-4.55128 L -16.7205,-4.63641 L -16.532,-4.70605 L -16.3254,-4.76024
 L -16.1009,-4.79892 L -15.8584,-4.82214 L -15.5978,-4.82988 L -15.3557,-4.82359 L -15.1128,-4.80472 L -14.8692,-4.77327
 L -14.6249,-4.72923 L -14.3799,-4.67262 L -14.1341,-4.60342 L -13.8877,-4.52165 L -13.6414,-4.42784 L -13.3961,-4.32253
 L -13.152,-4.20572 L -12.9089,-4.07741 L -12.667,-3.93759 L -12.4261,-3.78629 L -12.1862,-3.62349 L -12.1862,-6.16109
 L -12.441,-6.27342 L -12.6965,-6.37762 L -12.9527,-6.47369 L -13.2096,-6.56163 L -13.4672,-6.64143 L -13.7256,-6.7131
 L -13.9847,-6.77663 L -14.2441,-6.83185 L -14.5035,-6.87857 L -14.7629,-6.91681 L -15.0223,-6.94653 L -15.2818,-6.96777
 L -15.5412,-6.98051 L -15.8006,-6.98476 L -16.355,-6.96387 L -16.8744,-6.9012 L -17.3589,-6.79675 L -17.8085,-6.65051
 L -18.2232,-6.46251 L -18.603,-6.23271 L -18.9479,-5.96114 L -19.252,-5.65305 L -19.5092,-5.31361 L -19.7197,-4.94284
 L -19.8834,-4.54074 L -20.0003,-4.10728 L -20.0705,-3.6425 L -20.0939,-3.14638 L -20.0797,-2.75967 L -20.037,-2.39619
 L -19.966,-2.05594 L -19.8665,-1.73891 L -19.7386,-1.4451 L -19.5822,-1.17451 L -19.3975,-0.927155 L -19.1726,-0.692978
 L -18.8959,-0.461853 L -18.5674,-0.23381 L -18.1871,-0.00880432 L -17.7549,0.213104 L -17.271,0.431976 L -16.7352,0.647781
 L -15.4569,1.13307 L -15.272,1.20985 L -15.1,1.29436 L -14.9409,1.3866 L -14.7948,1.48657 L -14.6617,1.59427
 L -14.5415,1.7097 L -14.4343,1.83286 L -14.3408,1.96281 L -14.2616,2.09869 L -14.1968,2.24051 L -14.1464,2.38824
 L -14.1104,2.5419 L -14.0888,2.70149 L -14.0816,2.86702 L -14.0924,3.08374 L -14.1248,3.28629 L -14.1788,3.47464
 L -14.2544,3.64879 L -14.3515,3.80878 L -14.4703,3.95456 L -14.6106,4.08615 L -14.7705,4.20172 L -14.9481,4.29951
 L -15.1433,4.37953 L -15.3561,4.44177 L -15.5866,4.48622 L -15.8347,4.51289 L -16.1004,4.52179 L -16.3729,4.51445
 L -16.6463,4.49243 L -16.9205,4.45573 L -17.1957,4.40437 L -17.4718,4.33832 L -17.7488,4.2576 L -18.0266,4.1622
 L -18.3063,4.05173 L -18.5887,3.92587 L -18.8737,3.78464 L -19.1615,3.62801 L -19.452,3.45598 L -19.7451,3.26857
 L -20.041,3.06578 L -20.041,5.75314 L -19.7777,5.87924 L -19.5117,5.99617 L -19.243,6.10396 L -18.9716,6.20259
 L -18.6976,6.29207 L -18.4208,6.37241 L -18.1413,6.44357 L -17.8605,6.50542 L -17.5799,6.55774 L -17.2995,6.60056
 L -17.0193,6.63385 L -16.7392,6.65764 L -16.4594,6.67191 L -16.1797,6.67667 z
M -16.4421,6.17213 L -16.7057,6.15869 L -16.9685,6.13637 L -17.232,6.10506 L -17.4964,6.0647 L -17.7609,6.01537
 L -18.0257,5.95705 L -18.2896,5.88985 L -18.5502,5.81419 L -18.8086,5.72986 L -19.0644,5.63689 L -19.3178,5.53522
 L -19.541,5.43712 L -19.541,3.98436 L -19.4163,4.05821 L -19.4005,4.06717 L -19.1127,4.2238 L -19.0957,4.23267
 L -18.8106,4.3739 L -18.7922,4.38257 L -18.5098,4.50842 L -18.49,4.51675 L -18.2103,4.62723 L -18.189,4.6351
 L -17.9111,4.7305 L -17.8887,4.73763 L -17.6117,4.81834 L -17.5882,4.8246 L -17.3121,4.89066 L -17.2875,4.89589
 L -17.0123,4.94725 L -16.9869,4.95132 L -16.7126,4.98802 L -16.6864,4.99081 L -16.413,5.01283 L -16.3864,5.01427
 L -16.1139,5.02161 L -16.0837,5.02151 L -15.8179,5.01262 L -15.7812,5.01003 L -15.5331,4.98335 L -15.4919,4.97717
 L -15.2614,4.93272 L -15.2158,4.92168 L -15.0029,4.85944 L -14.9536,4.84216 L -14.7584,4.76215 L -14.7069,4.73747
 L -14.5293,4.63968 L -14.4777,4.60698 L -14.3177,4.49141 L -14.2686,4.45088 L -14.1283,4.31929 L -14.0826,4.27032
 L -13.9639,4.12454 L -13.9242,4.06833 L -13.827,3.90834 L -13.7957,3.84781 L -13.7201,3.67366 L -13.6982,3.61237
 L -13.6442,3.42401 L -13.6311,3.36525 L -13.5987,3.1627 L -13.5931,3.1086 L -13.5823,2.89188 L -13.5821,2.84534
 L -13.5893,2.67981 L -13.5934,2.63441 L -13.615,2.47482 L -13.6236,2.4279 L -13.6596,2.27425 L -13.6732,2.22685
 L -13.7236,2.07912 L -13.742,2.03275 L -13.8068,1.89093 L -13.8296,1.847 L -13.9087,1.71112 L -13.935,1.67064
 L -14.0286,1.54068 L -14.0572,1.50456 L -14.1644,1.38141 L -14.1952,1.34912 L -14.3153,1.23369 L -14.3472,1.20554
 L -14.4804,1.09784 L -14.5124,1.07396 L -14.6585,0.973984 L -14.6901,0.954071 L -14.8491,0.861832 L -14.8795,0.845596
 L -15.0515,0.761093 L -15.0802,0.748062 L -15.2652,0.67128 L -15.2794,0.665619 L -16.5532,0.182053 L -17.0743,-0.0278625
 L -17.5377,-0.237427 L -17.9453,-0.446732 L -18.2973,-0.654953 L -18.5925,-0.859863 L -18.8309,-1.05904 L -19.0154,-1.25121
 L -19.1641,-1.4502 L -19.2914,-1.67064 L -19.3974,-1.914 L -19.4816,-2.18222 L -19.543,-2.47658 L -19.5807,-2.79803
 L -19.5934,-3.14375 L -19.5723,-3.59332 L -19.5102,-4.00456 L -19.4087,-4.38075 L -19.2689,-4.72417 L -19.0907,-5.03807
 L -18.8732,-5.32501 L -18.614,-5.58769 L -18.3179,-5.8208 L -17.9897,-6.01939 L -17.6274,-6.18364 L -17.2286,-6.31337
 L -16.7916,-6.40756 L -16.3156,-6.465 L -15.7953,-6.4846 L -15.5576,-6.48071 L -15.3144,-6.46877 L -15.0711,-6.44885
 L -14.828,-6.42099 L -14.5841,-6.38504 L -14.3405,-6.34119 L -14.0961,-6.28914 L -13.8523,-6.22937 L -13.6079,-6.16158
 L -13.3643,-6.08612 L -13.1217,-6.00307 L -12.8784,-5.91187 L -12.6862,-5.83347 L -12.6862,-4.52524 L -12.9186,-4.64789
 L -12.9362,-4.65675 L -13.1804,-4.77356 L -13.1988,-4.78195 L -13.4441,-4.88727 L -13.4634,-4.8951 L -13.7097,-4.98891
 L -13.7302,-4.99622 L -13.9767,-5.07799 L -13.9986,-5.0847 L -14.2444,-5.1539 L -14.2673,-5.15979 L -14.5124,-5.2164
 L -14.5362,-5.2213 L -14.7805,-5.26534 L -14.8052,-5.26915 L -15.0488,-5.3006 L -15.0741,-5.30321 L -15.3169,-5.32208
 L -15.3427,-5.32343 L -15.5849,-5.32971 L -15.6127,-5.32967 L -15.8732,-5.32193 L -15.906,-5.31987 L -16.1485,-5.29665
 L -16.1858,-5.29166 L -16.4103,-5.25298 L -16.4523,-5.24388 L -16.6588,-5.1897 L -16.7052,-5.17509 L -16.8938,-5.10545
 L -16.9438,-5.0838 L -17.1144,-4.99867 L -17.1664,-4.9687 L -17.319,-4.86809 L -17.3702,-4.82932 L -17.5035,-4.71436
 L -17.5525,-4.66585 L -17.6653,-4.53755 L -17.7087,-4.48041 L -17.801,-4.33881 L -17.8358,-4.276 L -17.9075,-4.12108
 L -17.9321,-4.05664 L -17.9834,-3.8884 L -17.9981,-3.82617 L -18.0289,-3.64462 L -18.0352,-3.58737 L -18.0455,-3.39249
 L -18.0455,-3.34175 L -18.0381,-3.18941 L -18.0328,-3.13734 L -18.0104,-2.99272 L -17.9987,-2.93768 L -17.9613,-2.80083
 L -17.9424,-2.74481 L -17.8902,-2.61568 L -17.8641,-2.56108 L -17.7969,-2.4397 L -17.7648,-2.38902 L -17.6826,-2.27538
 L -17.646,-2.23041 L -17.549,-2.12451 L -17.5057,-2.08267 L -17.3849,-1.97914 L -17.3449,-1.94823 L -17.1915,-1.84163
 L -17.1602,-1.82153 L -16.9742,-1.71187 L -16.9495,-1.69818 L -16.731,-1.58546 L -16.7112,-1.57579 L -16.4601,-1.45999
 L -16.4439,-1.45288 L -16.1603,-1.33401 L -16.147,-1.32864 L -15.8308,-1.20671 L -14.7123,-0.783478 L -14.2942,-0.616745
 L -13.9214,-0.441071 L -13.5846,-0.253479 L -13.2841,-0.0549927 L -13.0189,0.153854 L -12.7881,0.372559 L -12.5901,0.601105
 L -12.4215,0.842621 L -12.2785,1.10207 L -12.1608,1.38083 L -12.0681,1.68089 L -12.0009,2.00319 L -11.9599,2.34888
 L -11.9462,2.71626 L -11.9682,3.22044 L -12.033,3.67635 L -12.1384,4.0856 L -12.2825,4.44992 L -12.4642,4.77266
 L -12.6841,5.05794 L -12.9443,5.30916 L -13.2496,5.5298 L -13.6042,5.7207 L -14.0111,5.88077 L -14.4716,6.00804
 L -14.9869,6.1008 L -15.5566,6.15735 L -16.1833,6.17653 z
M -0.93602,-6.74348 L -9.13448,-6.74348 L -9.13448,6.41875 L -0.93602,6.41875 L -0.93602,4.13074 L -6.53395,4.13074
 L -6.53395,0.677948 L -1.465,0.677948 L -1.465,-1.61005 L -6.53395,-1.61005 L -6.53395,-4.45547 L -0.93602,-4.45547
 z
M -7.0251,-1.51636 L -7.00948,-1.45554 L -6.98636,-1.39716 L -6.95612,-1.34213 L -6.9192,-1.29134 L -6.87622,-1.24556
 L -6.82785,-1.20554 L -6.77483,-1.17189 L -6.71802,-1.14516 L -6.65829,-1.12575 L -6.59662,-1.11398 L -6.53395,-1.11005
 L -1.965,-1.11005 L -1.965,0.177948 L -6.53395,0.177948 L -6.62764,0.186798 L -6.68846,0.202423 L -6.74684,0.22554
 L -6.80186,0.255783 L -6.85266,0.292694 L -6.89844,0.335678 L -6.93846,0.384048 L -6.97211,0.437073 L -6.99884,0.493881
 L -7.01825,0.553604 L -7.03001,0.61528 L -7.03395,0.677948 L -7.03395,4.13074 L -7.0251,4.22443 L -7.00948,4.28525
 L -6.98636,4.34363 L -6.95612,4.39865 L -6.9192,4.44945 L -6.87622,4.49522 L -6.82785,4.53525 L -6.77483,4.56889
 L -6.71802,4.59563 L -6.65829,4.61504 L -6.59662,4.6268 L -6.53395,4.63074 L -1.43602,4.63074 L -1.43602,5.91875
 L -8.63448,5.91875 L -8.63448,-6.24348 L -1.43602,-6.24348 L -1.43602,-4.95547 L -6.53395,-4.95547 L -6.62764,-4.94662
 L -6.68846,-4.931 L -6.74684,-4.90788 L -6.80186,-4.87764 L -6.85266,-4.84073 L -6.89844,-4.79774 L -6.93846,-4.74937
 L -6.97211,-4.69635 L -6.99884,-4.63954 L -7.01825,-4.57982 L -7.03001,-4.51814 L -7.03395,-4.45547 L -7.03395,-1.61005
 z
M 3.68497,3.16562 L 7.16714,3.16562 L 7.97809,6.41875 L 10.5787,6.41875 L 7.02611,-6.74348 L 3.84357,-6.74348
 L 0.290939,6.41875 L 2.89159,6.41875 z
M 0.943787,5.91875 L 4.2265,-6.24348 L 6.64317,-6.24348 L 9.92589,5.91875 L 8.36874,5.91875 L 7.6523,3.04468
 L 7.64267,3.01111 L 7.61955,2.95273 L 7.58931,2.89771 L 7.5524,2.84691 L 7.50941,2.80113 L 7.46104,2.76111
 L 7.40802,2.72746 L 7.35121,2.70073 L 7.29149,2.68132 L 7.22981,2.66956 L 7.16714,2.66562 L 3.68497,2.66562
 L 3.64752,2.66702 L 3.58533,2.67564 L 3.5247,2.692 L 3.46661,2.71582 L 3.41196,2.74673 L 3.36162,2.78426
 L 3.31636,2.82779 L 3.27693,2.87665 L 3.24393,2.93007 L 3.21788,2.9872 L 3.1992,3.04715 L 2.49887,5.91875
 z
M 6.74535,1.52081 L 6.80655,1.50681 L 6.86552,1.48523 L 6.92133,1.45644 L 6.97307,1.42087 L 7.01996,1.3791
 L 7.06123,1.33179 L 7.09625,1.27966 L 7.12447,1.22357 L 7.14543,1.16438 L 7.15881,1.10304 L 7.1644,1.0405
 L 7.16209,0.977753 L 7.15195,0.915787 L 5.91786,-4.47348 L 5.89008,-4.55878 L 5.86179,-4.61482 L 5.82668,-4.66689
 L 5.78532,-4.71414 L 5.73837,-4.75583 L 5.68657,-4.79132 L 5.63074,-4.82002 L 5.57173,-4.84151 L 5.5105,-4.85544
 L 5.44801,-4.86157 L 5.38525,-4.85983 L 5.3232,-4.85023 L 5.26283,-4.83293 L 5.20512,-4.80821 L 5.15096,-4.77644
 L 5.1012,-4.73814 L 5.05664,-4.69391 L 5.01797,-4.64442 L 4.98581,-4.5905 L 4.96066,-4.53297 L 4.94293,-4.47273
 L 3.71756,0.916534 L 3.7061,0.995987 L 3.7061,1.05879 L 3.71396,1.12108 L 3.72958,1.1819 L 3.7527,1.24028
 L 3.78294,1.2953 L 3.81985,1.3461 L 3.86284,1.39188 L 3.91121,1.4319 L 3.96423,1.46555 L 4.02104,1.49228
 L 4.08076,1.51169 L 4.14244,1.52345 L 4.20511,1.52739 L 6.66457,1.52739 z
M 4.20511,1.02739 L 5.43048,-4.36188 L 6.66457,1.02739 z
M 13.9567,-3.14651 L 17.6417,6.41875 L 20.4186,6.41875 L 20.4186,-6.74348 L 18.1264,-6.74348 L 18.1264,2.82178
 L 14.4591,-6.74348 L 11.6647,-6.74348 L 11.6647,6.41875 L 13.9567,6.41875 z
M 12.1647,5.91875 L 12.1647,-6.24348 L 14.1154,-6.24348 L 17.6596,3.00078 L 17.6883,3.06265 L 17.7219,3.11568
 L 17.7619,3.16405 L 17.8077,3.20703 L 17.8585,3.24394 L 17.9135,3.27419 L 17.9719,3.2973 L 18.0327,3.31293
 L 18.095,3.32079 L 18.1578,3.32079 L 18.2201,3.31293 L 18.2809,3.2973 L 18.3393,3.27419 L 18.3943,3.24394
 L 18.4451,3.20703 L 18.4909,3.16405 L 18.5309,3.11568 L 18.5646,3.06265 L 18.5913,3.00584 L 18.6107,2.94612
 L 18.6225,2.88445 L 18.6264,2.82178 L 18.6264,-6.24348 L 19.9186,-6.24348 L 19.9186,5.91875 L 17.9848,5.91875
 L 14.4233,-3.32626 L 14.3949,-3.38739 L 14.3612,-3.44041 L 14.3212,-3.48878 L 14.2754,-3.53177 L 14.2246,-3.56868
 L 14.1696,-3.59892 L 14.1112,-3.62204 L 14.0504,-3.63766 L 13.9881,-3.64552 L 13.9253,-3.64552 L 13.863,-3.63766
 L 13.8022,-3.62204 L 13.7438,-3.59892 L 13.6888,-3.56868 L 13.638,-3.53177 L 13.5922,-3.48878 L 13.5522,-3.44041
 L 13.5185,-3.38739 L 13.4918,-3.33058 L 13.4724,-3.27086 L 13.4606,-3.20918 L 13.4567,-3.14651 L 13.4567,5.91875
 z
" stroke="black" fill="lightgray" stroke-width="0.5"/>
</svg>
