<?xml version="1.0" standalone="no"?>
<!DOCTYPE svg PUBLIC "-//W3C//DTD SVG 1.1//EN" "http://www.w3.org/Graphics/SVG/1.1/DTD/svg11.dtd">
<svg width="42mm" height="14mm" viewBox="-21 -7 42 14" xmlns="http://www.w3.org/2000/svg" version="1.1">
<title>OpenSCAD Model</title>
<path d="
M -18.2338,-4.11612 L -16.8233,1.64287 L -14.7517,1.64287 L -13.3587,-4.11612 L -13.3587,6.42686 L -11.1196,6.42686
 L -11.1196,-6.73535 L -14.2404,-6.73535 L -15.8006,-0.958801 L -17.3699,-6.73535 L -20.473,-6.73535 L -20.473,6.42686
 L -18.2338,6.42686 z
M -19.973,5.92686 L -19.973,-6.23535 L -17.7522,-6.23535 L -16.2831,-0.827728 L -16.2678,-0.780548 L -16.2418,-0.723404
 L -16.2088,-0.669983 L -16.1694,-0.621109 L -16.1241,-0.577545 L -16.0738,-0.540009 L -16.0191,-0.509079 L -15.9611,-0.485245
 L -15.9004,-0.468872 L -15.8382,-0.46022 L -15.7755,-0.459442 L -15.7131,-0.466522 L -15.6521,-0.481384 L -15.5934,-0.503769
 L -15.538,-0.533325 L -15.4868,-0.569595 L -15.4404,-0.612 L -15.3998,-0.659882 L -15.3655,-0.712479 L -15.3381,-0.768951
 L -15.3179,-0.828415 L -13.8575,-6.23535 L -11.6196,-6.23535 L -11.6196,5.92686 L -12.8587,5.92686 L -12.8587,-4.11612
 L -12.8636,-4.18573 L -12.8762,-4.24724 L -12.8965,-4.30667 L -12.924,-4.36311 L -12.9584,-4.41565 L -12.9991,-4.46347
 L -13.0454,-4.5058 L -13.0967,-4.54199 L -13.1522,-4.57147 L -13.2109,-4.59377 L -13.2719,-4.60852 L -13.3343,-4.61552
 L -13.3971,-4.61464 L -13.4593,-4.6059 L -13.5199,-4.58943 L -13.5779,-4.56551 L -13.6325,-4.53448 L -13.6828,-4.49687
 L -13.728,-4.45325 L -13.7673,-4.40431 L -13.8002,-4.35083 L -13.8261,-4.29366 L -13.8447,-4.23367 L -15.1452,1.14287
 L -16.431,1.14287 L -17.7482,-4.23506 L -17.769,-4.30019 L -17.7957,-4.35699 L -17.8293,-4.41002 L -17.8694,-4.45839
 L -17.9151,-4.50137 L -17.9659,-4.53828 L -18.021,-4.56853 L -18.0793,-4.59164 L -18.1402,-4.60727 L -18.2024,-4.61513
 L -18.2652,-4.61513 L -18.3275,-4.60727 L -18.3884,-4.59164 L -18.4467,-4.56853 L -18.5018,-4.53828 L -18.5526,-4.50137
 L -18.5983,-4.45839 L -18.6384,-4.41002 L -18.672,-4.35699 L -18.6987,-4.30019 L -18.7181,-4.24046 L -18.7299,-4.17879
 L -18.7338,-4.11612 L -18.7338,5.92686 z
M -6.93057,3.17375 L -3.44839,3.17375 L -2.63745,6.42686 L -0.0368042,6.42686 L -3.58945,-6.73535 L -6.77197,-6.73535
 L -10.3246,6.42686 L -7.72397,6.42686 z
M -9.67177,5.92686 L -6.38904,-6.23535 L -3.97238,-6.23535 L -0.689651,5.92686 L -2.2468,5.92686 L -2.96324,3.05281
 L -2.97287,3.01924 L -2.99599,2.96086 L -3.02623,2.90584 L -3.06314,2.85504 L -3.10612,2.80927 L -3.1545,2.76924
 L -3.20752,2.7356 L -3.26433,2.70886 L -3.32405,2.68945 L -3.38573,2.67769 L -3.44839,2.67375 L -6.93057,2.67375
 L -6.968,2.67516 L -7.0302,2.68378 L -7.09082,2.70013 L -7.14893,2.72395 L -7.20358,2.75487 L -7.25392,2.79239
 L -7.29918,2.83592 L -7.33861,2.88478 L -7.37161,2.9382 L -7.39766,2.99533 L -7.41634,3.05528 L -8.11668,5.92686
 z
M -3.87019,1.52893 L -3.80899,1.51492 L -3.75002,1.49335 L -3.69421,1.46455 L -3.64247,1.42899 L -3.59558,1.38722
 L -3.55431,1.3399 L -3.51929,1.28778 L -3.49107,1.23169 L -3.47011,1.1725 L -3.45673,1.11116 L -3.45114,1.04861
 L -3.45345,0.98587 L -3.46359,0.923904 L -4.69769,-4.46536 L -4.72548,-4.55066 L -4.75377,-4.6067 L -4.78888,-4.65877
 L -4.83023,-4.70602 L -4.87718,-4.74771 L -4.92899,-4.7832 L -4.98482,-4.8119 L -5.04382,-4.83339 L -5.10506,-4.84732
 L -5.16754,-4.85345 L -5.2303,-4.85172 L -5.29236,-4.84212 L -5.35272,-4.82481 L -5.41043,-4.80009 L -5.4646,-4.76833
 L -5.51436,-4.73003 L -5.55891,-4.68579 L -5.59758,-4.63631 L -5.62975,-4.58238 L -5.65489,-4.52486 L -5.67262,-4.46461
 L -6.89799,0.924652 L -6.90945,1.0041 L -6.90945,1.06691 L -6.9016,1.1292 L -6.88597,1.19002 L -6.86285,1.2484
 L -6.83261,1.30342 L -6.7957,1.35422 L -6.75272,1.39999 L -6.70435,1.44002 L -6.65132,1.47366 L -6.59451,1.5004
 L -6.53479,1.51981 L -6.47311,1.53157 L -6.41045,1.53551 L -3.95097,1.53551 z
M -6.41045,1.03551 L -5.18507,-4.35376 L -3.95097,1.03551 z
M 17.3507,-4.464 L 20.6919,-4.464 L 20.6919,-6.73535 L 11.409,-6.73535 L 11.409,-4.464 L 14.7501,-4.464
 L 14.7501,6.42686 L 17.3507,6.42686 z
M 15.2501,5.92686 L 15.2501,-4.464 L 15.2412,-4.55769 L 15.2256,-4.61852 L 15.2025,-4.6769 L 15.1722,-4.73192
 L 15.1353,-4.78271 L 15.0923,-4.82849 L 15.044,-4.86852 L 14.991,-4.90216 L 14.9341,-4.92889 L 14.8744,-4.9483
 L 14.8127,-4.96007 L 14.7501,-4.964 L 11.909,-4.964 L 11.909,-6.23535 L 20.1919,-6.23535 L 20.1919,-4.964
 L 17.3507,-4.964 L 17.257,-4.95515 L 17.1962,-4.93953 L 17.1378,-4.91641 L 17.0828,-4.88617 L 17.032,-4.84926
 L 16.9862,-4.80627 L 16.9462,-4.7579 L 16.9126,-4.70488 L 16.8858,-4.64807 L 16.8664,-4.58835 L 16.8547,-4.52667
 L 16.8507,-4.464 L 16.8507,5.92686 z
M 6.73517,-4.464 L 10.0763,-4.464 L 10.0763,-6.73535 L 0.793381,-6.73535 L 0.793381,-4.464 L 4.13451,-4.464
 L 4.13451,6.42686 L 6.73517,6.42686 z
M 4.63451,5.92686 L 4.63451,-4.464 L 4.62566,-4.55769 L 4.61003,-4.61852 L 4.58691,-4.6769 L 4.55667,-4.73192
 L 4.51976,-4.78271 L 4.47678,-4.82849 L 4.42841,-4.86852 L 4.37538,-4.90216 L 4.31857,-4.92889 L 4.25885,-4.9483
 L 4.19717,-4.96007 L 4.13451,-4.964 L 1.29338,-4.964 L 1.29338,-6.23535 L 9.57629,-6.23535 L 9.57629,-4.964
 L 6.73517,-4.964 L 6.64148,-4.95515 L 6.58066,-4.93953 L 6.52228,-4.91641 L 6.46725,-4.88617 L 6.41646,-4.84926
 L 6.37068,-4.80627 L 6.33066,-4.7579 L 6.29701,-4.70488 L 6.27028,-4.64807 L 6.25087,-4.58835 L 6.23911,-4.52667
 L 6.23517,-4.464 L 6.23517,5.92686 z
" stroke="black" fill="lightgray" stroke-width="0.5"/>
</svg>
