  0
SECTION
  2
BLOCKS
  0
ENDSEC
  0
SECTION
  2
ENTITIES
  0
LINE
  8
0
 10
-18.2338
 20
4.11612
 11
-16.8233
 21
-1.64287
  0
LINE
  8
0
 10
-16.8233
 20
-1.64287
 11
-14.7517
 21
-1.64287
  0
LINE
  8
0
 10
-14.7517
 20
-1.64287
 11
-13.3587
 21
4.11612
  0
LINE
  8
0
 10
-13.3587
 20
4.11612
 11
-13.3587
 21
-6.42686
  0
LINE
  8
0
 10
-13.3587
 20
-6.42686
 11
-11.1196
 21
-6.42686
  0
LINE
  8
0
 10
-11.1196
 20
-6.42686
 11
-11.1196
 21
6.73535
  0
LINE
  8
0
 10
-11.1196
 20
6.73535
 11
-14.2404
 21
6.73535
  0
LINE
  8
0
 10
-14.2404
 20
6.73535
 11
-15.8006
 21
0.958801
  0
LINE
  8
0
 10
-15.8006
 20
0.958801
 11
-17.3699
 21
6.73535
  0
LINE
  8
0
 10
-17.3699
 20
6.73535
 11
-20.473
 21
6.73535
  0
LINE
  8
0
 10
-20.473
 20
6.73535
 11
-20.473
 21
-6.42686
  0
LINE
  8
0
 10
-20.473
 20
-6.42686
 11
-18.2338
 21
-6.42686
  0
LINE
  8
0
 10
-18.2338
 20
-6.42686
 11
-18.2338
 21
4.11612
  0
LINE
  8
0
 10
-19.973
 20
-5.92686
 11
-19.973
 21
6.23535
  0
LINE
  8
0
 10
-19.973
 20
6.23535
 11
-17.7522
 21
6.23535
  0
LINE
  8
0
 10
-17.7522
 20
6.23535
 11
-16.2831
 21
0.827728
  0
LINE
  8
0
 10
-16.2831
 20
0.827728
 11
-16.2678
 21
0.780548
  0
LINE
  8
0
 10
-16.2678
 20
0.780548
 11
-16.2418
 21
0.723404
  0
LINE
  8
0
 10
-16.2418
 20
0.723404
 11
-16.2088
 21
0.669983
  0
LINE
  8
0
 10
-16.2088
 20
0.669983
 11
-16.1694
 21
0.621109
  0
LINE
  8
0
 10
-16.1694
 20
0.621109
 11
-16.1241
 21
0.577545
  0
LINE
  8
0
 10
-16.1241
 20
0.577545
 11
-16.0738
 21
0.540009
  0
LINE
  8
0
 10
-16.0738
 20
0.540009
 11
-16.0191
 21
0.509079
  0
LINE
  8
0
 10
-16.0191
 20
0.509079
 11
-15.9611
 21
0.485245
  0
LINE
  8
0
 10
-15.9611
 20
0.485245
 11
-15.9004
 21
0.468872
  0
LINE
  8
0
 10
-15.9004
 20
0.468872
 11
-15.8382
 21
0.46022
  0
LINE
  8
0
 10
-15.8382
 20
0.46022
 11
-15.7755
 21
0.459442
  0
LINE
  8
0
 10
-15.7755
 20
0.459442
 11
-15.7131
 21
0.466522
  0
LINE
  8
0
 10
-15.7131
 20
0.466522
 11
-15.6521
 21
0.481384
  0
LINE
  8
0
 10
-15.6521
 20
0.481384
 11
-15.5934
 21
0.503769
  0
LINE
  8
0
 10
-15.5934
 20
0.503769
 11
-15.538
 21
0.533325
  0
LINE
  8
0
 10
-15.538
 20
0.533325
 11
-15.4868
 21
0.569595
  0
LINE
  8
0
 10
-15.4868
 20
0.569595
 11
-15.4404
 21
0.612
  0
LINE
  8
0
 10
-15.4404
 20
0.612
 11
-15.3998
 21
0.659882
  0
LINE
  8
0
 10
-15.3998
 20
0.659882
 11
-15.3655
 21
0.712479
  0
LINE
  8
0
 10
-15.3655
 20
0.712479
 11
-15.3381
 21
0.768951
  0
LINE
  8
0
 10
-15.3381
 20
0.768951
 11
-15.3179
 21
0.828415
  0
LINE
  8
0
 10
-15.3179
 20
0.828415
 11
-13.8575
 21
6.23535
  0
LINE
  8
0
 10
-13.8575
 20
6.23535
 11
-11.6196
 21
6.23535
  0
LINE
  8
0
 10
-11.6196
 20
6.23535
 11
-11.6196
 21
-5.92686
  0
LINE
  8
0
 10
-11.6196
 20
-5.92686
 11
-12.8587
 21
-5.92686
  0
LINE
  8
0
 10
-12.8587
 20
-5.92686
 11
-12.8587
 21
4.11612
  0
LINE
  8
0
 10
-12.8587
 20
4.11612
 11
-12.8636
 21
4.18573
  0
LINE
  8
0
 10
-12.8636
 20
4.18573
 11
-12.8762
 21
4.24724
  0
LINE
  8
0
 10
-12.8762
 20
4.24724
 11
-12.8965
 21
4.30667
  0
LINE
  8
0
 10
-12.8965
 20
4.30667
 11
-12.924
 21
4.36311
  0
LINE
  8
0
 10
-12.924
 20
4.36311
 11
-12.9584
 21
4.41565
  0
LINE
  8
0
 10
-12.9584
 20
4.41565
 11
-12.9991
 21
4.46347
  0
LINE
  8
0
 10
-12.9991
 20
4.46347
 11
-13.0454
 21
4.5058
  0
LINE
  8
0
 10
-13.0454
 20
4.5058
 11
-13.0967
 21
4.54199
  0
LINE
  8
0
 10
-13.0967
 20
4.54199
 11
-13.1522
 21
4.57147
  0
LINE
  8
0
 10
-13.1522
 20
4.57147
 11
-13.2109
 21
4.59377
  0
LINE
  8
0
 10
-13.2109
 20
4.59377
 11
-13.2719
 21
4.60852
  0
LINE
  8
0
 10
-13.2719
 20
4.60852
 11
-13.3343
 21
4.61552
  0
LINE
  8
0
 10
-13.3343
 20
4.61552
 11
-13.3971
 21
4.61464
  0
LINE
  8
0
 10
-13.3971
 20
4.61464
 11
-13.4593
 21
4.6059
  0
LINE
  8
0
 10
-13.4593
 20
4.6059
 11
-13.5199
 21
4.58943
  0
LINE
  8
0
 10
-13.5199
 20
4.58943
 11
-13.5779
 21
4.56551
  0
LINE
  8
0
 10
-13.5779
 20
4.56551
 11
-13.6325
 21
4.53448
  0
LINE
  8
0
 10
-13.6325
 20
4.53448
 11
-13.6828
 21
4.49687
  0
LINE
  8
0
 10
-13.6828
 20
4.49687
 11
-13.728
 21
4.45325
  0
LINE
  8
0
 10
-13.728
 20
4.45325
 11
-13.7673
 21
4.40431
  0
LINE
  8
0
 10
-13.7673
 20
4.40431
 11
-13.8002
 21
4.35083
  0
LINE
  8
0
 10
-13.8002
 20
4.35083
 11
-13.8261
 21
4.29366
  0
LINE
  8
0
 10
-13.8261
 20
4.29366
 11
-13.8447
 21
4.23367
  0
LINE
  8
0
 10
-13.8447
 20
4.23367
 11
-15.1452
 21
-1.14287
  0
LINE
  8
0
 10
-15.1452
 20
-1.14287
 11
-16.431
 21
-1.14287
  0
LINE
  8
0
 10
-16.431
 20
-1.14287
 11
-17.7482
 21
4.23506
  0
LINE
  8
0
 10
-17.7482
 20
4.23506
 11
-17.769
 21
4.30019
  0
LINE
  8
0
 10
-17.769
 20
4.30019
 11
-17.7957
 21
4.35699
  0
LINE
  8
0
 10
-17.7957
 20
4.35699
 11
-17.8293
 21
4.41002
  0
LINE
  8
0
 10
-17.8293
 20
4.41002
 11
-17.8694
 21
4.45839
  0
LINE
  8
0
 10
-17.8694
 20
4.45839
 11
-17.9151
 21
4.50137
  0
LINE
  8
0
 10
-17.9151
 20
4.50137
 11
-17.9659
 21
4.53828
  0
LINE
  8
0
 10
-17.9659
 20
4.53828
 11
-18.021
 21
4.56853
  0
LINE
  8
0
 10
-18.021
 20
4.56853
 11
-18.0793
 21
4.59164
  0
LINE
  8
0
 10
-18.0793
 20
4.59164
 11
-18.1402
 21
4.60727
  0
LINE
  8
0
 10
-18.1402
 20
4.60727
 11
-18.2024
 21
4.61513
  0
LINE
  8
0
 10
-18.2024
 20
4.61513
 11
-18.2652
 21
4.61513
  0
LINE
  8
0
 10
-18.2652
 20
4.61513
 11
-18.3275
 21
4.60727
  0
LINE
  8
0
 10
-18.3275
 20
4.60727
 11
-18.3884
 21
4.59164
  0
LINE
  8
0
 10
-18.3884
 20
4.59164
 11
-18.4467
 21
4.56853
  0
LINE
  8
0
 10
-18.4467
 20
4.56853
 11
-18.5018
 21
4.53828
  0
LINE
  8
0
 10
-18.5018
 20
4.53828
 11
-18.5526
 21
4.50137
  0
LINE
  8
0
 10
-18.5526
 20
4.50137
 11
-18.5983
 21
4.45839
  0
LINE
  8
0
 10
-18.5983
 20
4.45839
 11
-18.6384
 21
4.41002
  0
LINE
  8
0
 10
-18.6384
 20
4.41002
 11
-18.672
 21
4.35699
  0
LINE
  8
0
 10
-18.672
 20
4.35699
 11
-18.6987
 21
4.30019
  0
LINE
  8
0
 10
-18.6987
 20
4.30019
 11
-18.7181
 21
4.24046
  0
LINE
  8
0
 10
-18.7181
 20
4.24046
 11
-18.7299
 21
4.17879
  0
LINE
  8
0
 10
-18.7299
 20
4.17879
 11
-18.7338
 21
4.11612
  0
LINE
  8
0
 10
-18.7338
 20
4.11612
 11
-18.7338
 21
-5.92686
  0
LINE
  8
0
 10
-18.7338
 20
-5.92686
 11
-19.973
 21
-5.92686
  0
LINE
  8
0
 10
-6.93057
 20
-3.17375
 11
-3.44839
 21
-3.17375
  0
LINE
  8
0
 10
-3.44839
 20
-3.17375
 11
-2.63745
 21
-6.42686
  0
LINE
  8
0
 10
-2.63745
 20
-6.42686
 11
-0.0368042
 21
-6.42686
  0
LINE
  8
0
 10
-0.0368042
 20
-6.42686
 11
-3.58945
 21
6.73535
  0
LINE
  8
0
 10
-3.58945
 20
6.73535
 11
-6.77197
 21
6.73535
  0
LINE
  8
0
 10
-6.77197
 20
6.73535
 11
-10.3246
 21
-6.42686
  0
LINE
  8
0
 10
-10.3246
 20
-6.42686
 11
-7.72397
 21
-6.42686
  0
LINE
  8
0
 10
-7.72397
 20
-6.42686
 11
-6.93057
 21
-3.17375
  0
LINE
  8
0
 10
-9.67177
 20
-5.92686
 11
-6.38904
 21
6.23535
  0
LINE
  8
0
 10
-6.38904
 20
6.23535
 11
-3.97238
 21
6.23535
  0
LINE
  8
0
 10
-3.97238
 20
6.23535
 11
-0.689651
 21
-5.92686
  0
LINE
  8
0
 10
-0.689651
 20
-5.92686
 11
-2.2468
 21
-5.92686
  0
LINE
  8
0
 10
-2.2468
 20
-5.92686
 11
-2.96324
 21
-3.05281
  0
LINE
  8
0
 10
-2.96324
 20
-3.05281
 11
-2.97287
 21
-3.01924
  0
LINE
  8
0
 10
-2.97287
 20
-3.01924
 11
-2.99599
 21
-2.96086
  0
LINE
  8
0
 10
-2.99599
 20
-2.96086
 11
-3.02623
 21
-2.90584
  0
LINE
  8
0
 10
-3.02623
 20
-2.90584
 11
-3.06314
 21
-2.85504
  0
LINE
  8
0
 10
-3.06314
 20
-2.85504
 11
-3.10612
 21
-2.80927
  0
LINE
  8
0
 10
-3.10612
 20
-2.80927
 11
-3.1545
 21
-2.76924
  0
LINE
  8
0
 10
-3.1545
 20
-2.76924
 11
-3.20752
 21
-2.7356
  0
LINE
  8
0
 10
-3.20752
 20
-2.7356
 11
-3.26433
 21
-2.70886
  0
LINE
  8
0
 10
-3.26433
 20
-2.70886
 11
-3.32405
 21
-2.68945
  0
LINE
  8
0
 10
-3.32405
 20
-2.68945
 11
-3.38573
 21
-2.67769
  0
LINE
  8
0
 10
-3.38573
 20
-2.67769
 11
-3.44839
 21
-2.67375
  0
LINE
  8
0
 10
-3.44839
 20
-2.67375
 11
-6.93057
 21
-2.67375
  0
LINE
  8
0
 10
-6.93057
 20
-2.67375
 11
-6.968
 21
-2.67516
  0
LINE
  8
0
 10
-6.968
 20
-2.67516
 11
-7.0302
 21
-2.68378
  0
LINE
  8
0
 10
-7.0302
 20
-2.68378
 11
-7.09082
 21
-2.70013
  0
LINE
  8
0
 10
-7.09082
 20
-2.70013
 11
-7.14893
 21
-2.72395
  0
LINE
  8
0
 10
-7.14893
 20
-2.72395
 11
-7.20358
 21
-2.75487
  0
LINE
  8
0
 10
-7.20358
 20
-2.75487
 11
-7.25392
 21
-2.79239
  0
LINE
  8
0
 10
-7.25392
 20
-2.79239
 11
-7.29918
 21
-2.83592
  0
LINE
  8
0
 10
-7.29918
 20
-2.83592
 11
-7.33861
 21
-2.88478
  0
LINE
  8
0
 10
-7.33861
 20
-2.88478
 11
-7.37161
 21
-2.9382
  0
LINE
  8
0
 10
-7.37161
 20
-2.9382
 11
-7.39766
 21
-2.99533
  0
LINE
  8
0
 10
-7.39766
 20
-2.99533
 11
-7.41634
 21
-3.05528
  0
LINE
  8
0
 10
-7.41634
 20
-3.05528
 11
-8.11668
 21
-5.92686
  0
LINE
  8
0
 10
-8.11668
 20
-5.92686
 11
-9.67177
 21
-5.92686
  0
LINE
  8
0
 10
-3.87019
 20
-1.52893
 11
-3.80899
 21
-1.51492
  0
LINE
  8
0
 10
-3.80899
 20
-1.51492
 11
-3.75002
 21
-1.49335
  0
LINE
  8
0
 10
-3.75002
 20
-1.49335
 11
-3.69421
 21
-1.46455
  0
LINE
  8
0
 10
-3.69421
 20
-1.46455
 11
-3.64247
 21
-1.42899
  0
LINE
  8
0
 10
-3.64247
 20
-1.42899
 11
-3.59558
 21
-1.38722
  0
LINE
  8
0
 10
-3.59558
 20
-1.38722
 11
-3.55431
 21
-1.3399
  0
LINE
  8
0
 10
-3.55431
 20
-1.3399
 11
-3.51929
 21
-1.28778
  0
LINE
  8
0
 10
-3.51929
 20
-1.28778
 11
-3.49107
 21
-1.23169
  0
LINE
  8
0
 10
-3.49107
 20
-1.23169
 11
-3.47011
 21
-1.1725
  0
LINE
  8
0
 10
-3.47011
 20
-1.1725
 11
-3.45673
 21
-1.11116
  0
LINE
  8
0
 10
-3.45673
 20
-1.11116
 11
-3.45114
 21
-1.04861
  0
LINE
  8
0
 10
-3.45114
 20
-1.04861
 11
-3.45345
 21
-0.98587
  0
LINE
  8
0
 10
-3.45345
 20
-0.98587
 11
-3.46359
 21
-0.923904
  0
LINE
  8
0
 10
-3.46359
 20
-0.923904
 11
-4.69769
 21
4.46536
  0
LINE
  8
0
 10
-4.69769
 20
4.46536
 11
-4.72548
 21
4.55066
  0
LINE
  8
0
 10
-4.72548
 20
4.55066
 11
-4.75377
 21
4.6067
  0
LINE
  8
0
 10
-4.75377
 20
4.6067
 11
-4.78888
 21
4.65877
  0
LINE
  8
0
 10
-4.78888
 20
4.65877
 11
-4.83023
 21
4.70602
  0
LINE
  8
0
 10
-4.83023
 20
4.70602
 11
-4.87718
 21
4.74771
  0
LINE
  8
0
 10
-4.87718
 20
4.74771
 11
-4.92899
 21
4.7832
  0
LINE
  8
0
 10
-4.92899
 20
4.7832
 11
-4.98482
 21
4.8119
  0
LINE
  8
0
 10
-4.98482
 20
4.8119
 11
-5.04382
 21
4.83339
  0
LINE
  8
0
 10
-5.04382
 20
4.83339
 11
-5.10506
 21
4.84732
  0
LINE
  8
0
 10
-5.10506
 20
4.84732
 11
-5.16754
 21
4.85345
  0
LINE
  8
0
 10
-5.16754
 20
4.85345
 11
-5.2303
 21
4.85172
  0
LINE
  8
0
 10
-5.2303
 20
4.85172
 11
-5.29236
 21
4.84212
  0
LINE
  8
0
 10
-5.29236
 20
4.84212
 11
-5.35272
 21
4.82481
  0
LINE
  8
0
 10
-5.35272
 20
4.82481
 11
-5.41043
 21
4.80009
  0
LINE
  8
0
 10
-5.41043
 20
4.80009
 11
-5.4646
 21
4.76833
  0
LINE
  8
0
 10
-5.4646
 20
4.76833
 11
-5.51436
 21
4.73003
  0
LINE
  8
0
 10
-5.51436
 20
4.73003
 11
-5.55891
 21
4.68579
  0
LINE
  8
0
 10
-5.55891
 20
4.68579
 11
-5.59758
 21
4.63631
  0
LINE
  8
0
 10
-5.59758
 20
4.63631
 11
-5.62975
 21
4.58238
  0
LINE
  8
0
 10
-5.62975
 20
4.58238
 11
-5.65489
 21
4.52486
  0
LINE
  8
0
 10
-5.65489
 20
4.52486
 11
-5.67262
 21
4.46461
  0
LINE
  8
0
 10
-5.67262
 20
4.46461
 11
-6.89799
 21
-0.924652
  0
LINE
  8
0
 10
-6.89799
 20
-0.924652
 11
-6.90945
 21
-1.0041
  0
LINE
  8
0
 10
-6.90945
 20
-1.0041
 11
-6.90945
 21
-1.06691
  0
LINE
  8
0
 10
-6.90945
 20
-1.06691
 11
-6.9016
 21
-1.1292
  0
LINE
  8
0
 10
-6.9016
 20
-1.1292
 11
-6.88597
 21
-1.19002
  0
LINE
  8
0
 10
-6.88597
 20
-1.19002
 11
-6.86285
 21
-1.2484
  0
LINE
  8
0
 10
-6.86285
 20
-1.2484
 11
-6.83261
 21
-1.30342
  0
LINE
  8
0
 10
-6.83261
 20
-1.30342
 11
-6.7957
 21
-1.35422
  0
LINE
  8
0
 10
-6.7957
 20
-1.35422
 11
-6.75272
 21
-1.39999
  0
LINE
  8
0
 10
-6.75272
 20
-1.39999
 11
-6.70435
 21
-1.44002
  0
LINE
  8
0
 10
-6.70435
 20
-1.44002
 11
-6.65132
 21
-1.47366
  0
LINE
  8
0
 10
-6.65132
 20
-1.47366
 11
-6.59451
 21
-1.5004
  0
LINE
  8
0
 10
-6.59451
 20
-1.5004
 11
-6.53479
 21
-1.51981
  0
LINE
  8
0
 10
-6.53479
 20
-1.51981
 11
-6.47311
 21
-1.53157
  0
LINE
  8
0
 10
-6.47311
 20
-1.53157
 11
-6.41045
 21
-1.53551
  0
LINE
  8
0
 10
-6.41045
 20
-1.53551
 11
-3.95097
 21
-1.53551
  0
LINE
  8
0
 10
-3.95097
 20
-1.53551
 11
-3.87019
 21
-1.52893
  0
LINE
  8
0
 10
-6.41045
 20
-1.03551
 11
-5.18507
 21
4.35376
  0
LINE
  8
0
 10
-5.18507
 20
4.35376
 11
-3.95097
 21
-1.03551
  0
LINE
  8
0
 10
-3.95097
 20
-1.03551
 11
-6.41045
 21
-1.03551
  0
LINE
  8
0
 10
17.3507
 20
4.464
 11
20.6919
 21
4.464
  0
LINE
  8
0
 10
20.6919
 20
4.464
 11
20.6919
 21
6.73535
  0
LINE
  8
0
 10
20.6919
 20
6.73535
 11
11.409
 21
6.73535
  0
LINE
  8
0
 10
11.409
 20
6.73535
 11
11.409
 21
4.464
  0
LINE
  8
0
 10
11.409
 20
4.464
 11
14.7501
 21
4.464
  0
LINE
  8
0
 10
14.7501
 20
4.464
 11
14.7501
 21
-6.42686
  0
LINE
  8
0
 10
14.7501
 20
-6.42686
 11
17.3507
 21
-6.42686
  0
LINE
  8
0
 10
17.3507
 20
-6.42686
 11
17.3507
 21
4.464
  0
LINE
  8
0
 10
15.2501
 20
-5.92686
 11
15.2501
 21
4.464
  0
LINE
  8
0
 10
15.2501
 20
4.464
 11
15.2412
 21
4.55769
  0
LINE
  8
0
 10
15.2412
 20
4.55769
 11
15.2256
 21
4.61852
  0
LINE
  8
0
 10
15.2256
 20
4.61852
 11
15.2025
 21
4.6769
  0
LINE
  8
0
 10
15.2025
 20
4.6769
 11
15.1722
 21
4.73192
  0
LINE
  8
0
 10
15.1722
 20
4.73192
 11
15.1353
 21
4.78271
  0
LINE
  8
0
 10
15.1353
 20
4.78271
 11
15.0923
 21
4.82849
  0
LINE
  8
0
 10
15.0923
 20
4.82849
 11
15.044
 21
4.86852
  0
LINE
  8
0
 10
15.044
 20
4.86852
 11
14.991
 21
4.90216
  0
LINE
  8
0
 10
14.991
 20
4.90216
 11
14.9341
 21
4.92889
  0
LINE
  8
0
 10
14.9341
 20
4.92889
 11
14.8744
 21
4.9483
  0
LINE
  8
0
 10
14.8744
 20
4.9483
 11
14.8127
 21
4.96007
  0
LINE
  8
0
 10
14.8127
 20
4.96007
 11
14.7501
 21
4.964
  0
LINE
  8
0
 10
14.7501
 20
4.964
 11
11.909
 21
4.964
  0
LINE
  8
0
 10
11.909
 20
4.964
 11
11.909
 21
6.23535
  0
LINE
  8
0
 10
11.909
 20
6.23535
 11
20.1919
 21
6.23535
  0
LINE
  8
0
 10
20.1919
 20
6.23535
 11
20.1919
 21
4.964
  0
LINE
  8
0
 10
20.1919
 20
4.964
 11
17.3507
 21
4.964
  0
LINE
  8
0
 10
17.3507
 20
4.964
 11
17.257
 21
4.95515
  0
LINE
  8
0
 10
17.257
 20
4.95515
 11
17.1962
 21
4.93953
  0
LINE
  8
0
 10
17.1962
 20
4.93953
 11
17.1378
 21
4.91641
  0
LINE
  8
0
 10
17.1378
 20
4.91641
 11
17.0828
 21
4.88617
  0
LINE
  8
0
 10
17.0828
 20
4.88617
 11
17.032
 21
4.84926
  0
LINE
  8
0
 10
17.032
 20
4.84926
 11
16.9862
 21
4.80627
  0
LINE
  8
0
 10
16.9862
 20
4.80627
 11
16.9462
 21
4.7579
  0
LINE
  8
0
 10
16.9462
 20
4.7579
 11
16.9126
 21
4.70488
  0
LINE
  8
0
 10
16.9126
 20
4.70488
 11
16.8858
 21
4.64807
  0
LINE
  8
0
 10
16.8858
 20
4.64807
 11
16.8664
 21
4.58835
  0
LINE
  8
0
 10
16.8664
 20
4.58835
 11
16.8547
 21
4.52667
  0
LINE
  8
0
 10
16.8547
 20
4.52667
 11
16.8507
 21
4.464
  0
LINE
  8
0
 10
16.8507
 20
4.464
 11
16.8507
 21
-5.92686
  0
LINE
  8
0
 10
16.8507
 20
-5.92686
 11
15.2501
 21
-5.92686
  0
LINE
  8
0
 10
6.73517
 20
4.464
 11
10.0763
 21
4.464
  0
LINE
  8
0
 10
10.0763
 20
4.464
 11
10.0763
 21
6.73535
  0
LINE
  8
0
 10
10.0763
 20
6.73535
 11
0.793381
 21
6.73535
  0
LINE
  8
0
 10
0.793381
 20
6.73535
 11
0.793381
 21
4.464
  0
LINE
  8
0
 10
0.793381
 20
4.464
 11
4.13451
 21
4.464
  0
LINE
  8
0
 10
4.13451
 20
4.464
 11
4.13451
 21
-6.42686
  0
LINE
  8
0
 10
4.13451
 20
-6.42686
 11
6.73517
 21
-6.42686
  0
LINE
  8
0
 10
6.73517
 20
-6.42686
 11
6.73517
 21
4.464
  0
LINE
  8
0
 10
4.63451
 20
-5.92686
 11
4.63451
 21
4.464
  0
LINE
  8
0
 10
4.63451
 20
4.464
 11
4.62566
 21
4.55769
  0
LINE
  8
0
 10
4.62566
 20
4.55769
 11
4.61003
 21
4.61852
  0
LINE
  8
0
 10
4.61003
 20
4.61852
 11
4.58691
 21
4.6769
  0
LINE
  8
0
 10
4.58691
 20
4.6769
 11
4.55667
 21
4.73192
  0
LINE
  8
0
 10
4.55667
 20
4.73192
 11
4.51976
 21
4.78271
  0
LINE
  8
0
 10
4.51976
 20
4.78271
 11
4.47678
 21
4.82849
  0
LINE
  8
0
 10
4.47678
 20
4.82849
 11
4.42841
 21
4.86852
  0
LINE
  8
0
 10
4.42841
 20
4.86852
 11
4.37538
 21
4.90216
  0
LINE
  8
0
 10
4.37538
 20
4.90216
 11
4.31857
 21
4.92889
  0
LINE
  8
0
 10
4.31857
 20
4.92889
 11
4.25885
 21
4.9483
  0
LINE
  8
0
 10
4.25885
 20
4.9483
 11
4.19717
 21
4.96007
  0
LINE
  8
0
 10
4.19717
 20
4.96007
 11
4.13451
 21
4.964
  0
LINE
  8
0
 10
4.13451
 20
4.964
 11
1.29338
 21
4.964
  0
LINE
  8
0
 10
1.29338
 20
4.964
 11
1.29338
 21
6.23535
  0
LINE
  8
0
 10
1.29338
 20
6.23535
 11
9.57629
 21
6.23535
  0
LINE
  8
0
 10
9.57629
 20
6.23535
 11
9.57629
 21
4.964
  0
LINE
  8
0
 10
9.57629
 20
4.964
 11
6.73517
 21
4.964
  0
LINE
  8
0
 10
6.73517
 20
4.964
 11
6.64148
 21
4.95515
  0
LINE
  8
0
 10
6.64148
 20
4.95515
 11
6.58066
 21
4.93953
  0
LINE
  8
0
 10
6.58066
 20
4.93953
 11
6.52228
 21
4.91641
  0
LINE
  8
0
 10
6.52228
 20
4.91641
 11
6.46725
 21
4.88617
  0
LINE
  8
0
 10
6.46725
 20
4.88617
 11
6.41646
 21
4.84926
  0
LINE
  8
0
 10
6.41646
 20
4.84926
 11
6.37068
 21
4.80627
  0
LINE
  8
0
 10
6.37068
 20
4.80627
 11
6.33066
 21
4.7579
  0
LINE
  8
0
 10
6.33066
 20
4.7579
 11
6.29701
 21
4.70488
  0
LINE
  8
0
 10
6.29701
 20
4.70488
 11
6.27028
 21
4.64807
  0
LINE
  8
0
 10
6.27028
 20
4.64807
 11
6.25087
 21
4.58835
  0
LINE
  8
0
 10
6.25087
 20
4.58835
 11
6.23911
 21
4.52667
  0
LINE
  8
0
 10
6.23911
 20
4.52667
 11
6.23517
 21
4.464
  0
LINE
  8
0
 10
6.23517
 20
4.464
 11
6.23517
 21
-5.92686
  0
LINE
  8
0
 10
6.23517
 20
-5.92686
 11
4.63451
 21
-5.92686
  0
ENDSEC
  0
SECTION
  2
OBJECTS
  0
DICTIONARY
  0
ENDSEC
  0
EOF
